<?xml version="1.0" standalone="no"?>
<!DOCTYPE svg PUBLIC "-//W3C//DTD SVG 1.1//EN" "http://www.w3.org/Graphics/SVG/1.1/DTD/svg11.dtd" >
<svg xmlns="http://www.w3.org/2000/svg" xmlns:xlink="http://www.w3.org/1999/xlink" version="1.1">
<metadata>
Created by FontForge 20201107 at Fri May  5 13:18:47 2017
 By Jimmy Wärting
Copyright (c) 2014 Indian Type Foundry (info@indiantypefoundry.com)
</metadata>
<defs>
<font id="Laila-Bold" horiz-adv-x="0" >
  <font-face 
    font-family="Laila"
    font-weight="700"
    font-stretch="normal"
    units-per-em="1000"
    panose-1="2 0 0 0 0 0 0 0 0 0"
    ascent="800"
    descent="-200"
    x-height="530"
    cap-height="746"
    bbox="-525 -452 2279 1098"
    underline-thickness="50"
    underline-position="-100"
    unicode-range="U+000D-FB02"
  />
<missing-glyph 
 />
    <glyph glyph-name="fi" unicode="fi" horiz-adv-x="660" 
d="M588 404v-301q0 -54 32 -71q-36 -43 -91 -43q-98 0 -98 119v319h-162v-517q0 -90 -40 -134t-102 -44q-96 0 -121 90q62 0 84 26t22 88v494q-51 5 -69 18t-18 37t22 41q32 -3 65 -3v40q0 112 73 166.5t177.5 54.5t162 -34t57.5 -83q0 -34 -36 -54q-22 -13 -44 -13t-40 5
q-13 32 -39 53.5t-57 21.5q-97 0 -97 -110v-47h231q50 0 69 -28t19 -91z" />
    <glyph glyph-name="fl" unicode="fl" horiz-adv-x="720" 
d="M588 653v-550q0 -54 32 -71q-36 -43 -91 -43q-98 0 -98 119v563q-35 15 -74 15t-63.5 -22t-24.5 -58v-121h90q7 -8 7 -21q0 -27 -23.5 -49t-73.5 -25v-480q0 -90 -40 -134t-102 -44q-96 0 -121 90q62 0 84 26t22 88v454q-87 6 -87 53q0 29 22 44q42 -2 65 -2v125
q0 174 237 174q105 0 172 -38t67 -93z" />
    <glyph glyph-name=".notdef" 
 />
    <glyph glyph-name=".null" 
 />
    <glyph glyph-name="nonmarkingreturn" horiz-adv-x="333" 
 />
    <glyph glyph-name="NULL" 
 />
    <glyph glyph-name="NULL" 
 />
    <glyph glyph-name="CR" unicode="&#xd;" 
 />
    <glyph glyph-name="space" unicode=" " horiz-adv-x="280" 
 />
    <glyph glyph-name="exclam" unicode="!" horiz-adv-x="418" 
d="M217 370q-9 -52 -9 -83.5t3 -50.5q-17 -14 -38 -14q-55 0 -69 92l-39 291q-3 21 -3 39q0 49 22 83q29 46 80.5 46t81.5 -47q21 -32 21 -77q0 -21 -4 -44zM239 141.5q20 -20.5 20 -56t-30.5 -66.5t-66.5 -31t-56.5 21t-20.5 56t31.5 66t67 31t55.5 -20.5z" />
    <glyph glyph-name="quotedbl" unicode="&#x22;" horiz-adv-x="515" 
d="M227 812q0 -68 -26.5 -143t-50 -75t-51 75.5t-27.5 136t20.5 92.5t56.5 32q78 0 78 -118zM443 812q0 -68 -26.5 -143t-50 -75t-51 75.5t-27.5 136t20.5 92.5t56.5 32q78 0 78 -118z" />
    <glyph glyph-name="numbersign" unicode="#" horiz-adv-x="908" 
d="M501 278l56 179h-155l-56 -179h155zM710 457h-8l-56 -179h100q10 -22 10 -37q0 -27 -32.5 -45t-100.5 -18h-8l-22 -70q-37 -119 -136 -119q-19 0 -32.5 6.5t-18.5 13.5t-15 23q37 16 55 71l24 75h-155l-22 -70q-37 -119 -136 -119q-19 0 -32.5 6.5t-18.5 13.5t-15 23
q37 16 55 71l24 75h-96q-9 20 -9 37q0 27 32.5 45t100.5 18h3l56 179h-95q-10 22 -10 37q0 27 32.5 45.5t101.5 18.5h3l22 70q20 63 47.5 90.5t79.5 27.5t76 -43q-39 -17 -56 -69l-24 -76h155l22 70q20 63 47.5 90.5t79.5 27.5t76 -43q-39 -17 -56 -69l-24 -76h100
q10 -22 10 -37q0 -27 -32.5 -45.5t-101.5 -18.5z" />
    <glyph glyph-name="dollar" unicode="$" horiz-adv-x="709" 
d="M451 772v-31q88 -13 140 -51.5t52 -91.5q0 -37 -23.5 -59.5t-64.5 -22.5t-77 26q8 16 8 41.5t-29.5 45.5t-84 20t-89.5 -20t-35 -53.5t42.5 -62t103 -55t121 -57.5t103 -81t42.5 -112q0 -85 -69 -144t-172 -72v-33q0 -54 32 -71q-36 -43 -91 -43q-98 0 -98 119v35
q-83 18 -133.5 58.5t-50.5 88.5t29.5 73t71 25t81.5 -32q-24 -22 -24 -53t36.5 -52t98 -21t97 25t35.5 66.5t-42.5 74t-103 58.5t-121 55t-103 73.5t-42.5 101.5q0 78 56 130t147 69v39q0 51 -34 69q38 43 92 43q99 0 99 -118z" />
    <glyph glyph-name="percent" unicode="%" horiz-adv-x="947" 
d="M362.5 395.5q-55.5 -67.5 -135.5 -67.5t-123.5 56.5t-43.5 141t52.5 152.5t133.5 68t126.5 -57t45.5 -141.5t-55.5 -152zM272 610q-14 36 -36.5 36t-36.5 -28t-14 -74.5t14 -82t35.5 -35.5t36.5 26t15 74t-14 84zM640 683q44 63 85 63t62 -39q-17 -6 -55 -59l-424 -594
q-45 -66 -85.5 -66t-60.5 41q9 4 26.5 23t29.5 37zM831.5 57q-55.5 -68 -135.5 -68t-123.5 56.5t-43.5 141.5t52.5 153t133.5 68t126.5 -57t45.5 -141.5t-55.5 -152.5zM741 271q-14 36 -36.5 36t-36.5 -27.5t-14 -74t14 -82t35.5 -35.5t36.5 26t15 73.5t-14 83.5z" />
    <glyph glyph-name="ampersand" unicode="&#x26;" horiz-adv-x="780" 
d="M335 480q17 -20 17 -42.5t-7.5 -40.5t-33.5 -32.5t-64 -14.5h-4q-43 -36 -43 -91.5t51 -90.5t125 -35t125 35t51 92q0 89 -95 89q-15 25 -15 45.5t17.5 37t57.5 16.5q72 0 94 28q16 21 16 44.5t-3 39.5q37 15 67 15t53 -15q48 -28 48 -84t-41.5 -85.5t-124.5 -29.5h-8
q25 -50 25 -103q0 -113 -85.5 -191t-211.5 -78t-206 59t-80 156.5t109 160.5q-91 40 -91 158q0 94 68.5 159.5t143.5 65.5t125.5 -32.5t50.5 -77t-42 -70.5q-25 -16 -51 -16t-49 7q0 102 -64 102q-27 0 -44.5 -19.5t-17.5 -52.5q0 -48 38.5 -78.5t98.5 -30.5z" />
    <glyph glyph-name="quotesingle" unicode="'" horiz-adv-x="299" 
d="M227 812q0 -68 -26.5 -143t-50 -75t-51 75.5t-27.5 136t20.5 92.5t56.5 32q78 0 78 -118z" />
    <glyph glyph-name="parenleft" unicode="(" horiz-adv-x="529" 
d="M493 968q-229 -266 -229 -618.5t229 -618.5q-13 -30 -58.5 -30t-102 52.5t-109.5 137.5t-90 209t-37 249t37 249.5t90 209t109.5 137.5t102 53t58.5 -30z" />
    <glyph glyph-name="parenright" unicode=")" horiz-adv-x="529" 
d="M432.5 551.5q24.5 -101.5 24.5 -214.5t-37 -237t-90 -209t-109.5 -137.5t-101 -52.5t-59.5 30q229 266 229 618.5t-229 618.5q14 30 64 30q32 0 75 -33t88 -94.5t83 -139.5t62.5 -179.5z" />
    <glyph glyph-name="asterisk" unicode="*" horiz-adv-x="653" 
d="M382 906q20 -23 20 -62.5t-44 -109.5q74 81 128 81q30 0 50.5 -20.5t20.5 -56t-28.5 -56.5t-63.5 -21t-81 10q47 -20 81 -50.5t34 -62t-25.5 -54t-53.5 -22.5q-45 0 -67.5 46.5t-26.5 106.5q-14 -154 -96 -154q-30 0 -53 25.5t-23 55.5t34 60t80 50q-37 -8 -76 -8
t-67.5 20.5t-28.5 55.5t23 55.5t51 20.5t60.5 -22.5t59.5 -53.5q-38 70 -38 107t19 59.5t55 22.5t56 -23z" />
    <glyph glyph-name="plus" unicode="+" horiz-adv-x="730" 
d="M301 478l-5 123q0 126 98 126q15 0 36 -8l-4 -241l244 3q6 -14 6 -31q0 -101 -131 -101q-9 0 -119 4q4 -87 4 -130t-23 -81.5t-78 -38.5q-20 0 -28 6l4 244l-245 -4q-8 14 -8 36q0 96 129 96q10 0 120 -3z" />
    <glyph glyph-name="comma" unicode="," horiz-adv-x="359" 
d="M82 -196q74 57 74 141.5t-70 126.5q12 34 39 58t68.5 24t73.5 -39.5t32 -106.5q0 -91 -60 -164t-118 -73q-31 0 -39 33z" />
    <glyph glyph-name="hyphen" unicode="-" horiz-adv-x="588" 
d="M205 416h317q6 -11 6 -35.5t-12 -45.5t-26.5 -31t-37.5 -16q-28 -6 -69 -6h-315q-8 19 -8 41.5t12 42.5t26.5 29t37.5 15q28 6 69 6z" />
    <glyph glyph-name="period" unicode="." horiz-adv-x="396" 
d="M272.5 157q22.5 -23 22.5 -62t-33.5 -73t-73 -34t-62.5 23t-23 62t34.5 73t73.5 34t61.5 -23z" />
    <glyph glyph-name="slash" unicode="/" horiz-adv-x="631" 
d="M494 1052q35 0 60 -21q-20 -15 -38 -72l-355 -1023q-34 -91 -89 -91q-32 0 -58 23q17 14 39 74l354 1020q30 90 87 90z" />
    <glyph glyph-name="zero" unicode="0" horiz-adv-x="689" 
d="M48 368q0 167 75 272.5t221 105.5q98 0 166.5 -51.5t99.5 -135t31 -191.5t-31 -191.5t-99.5 -135.5t-166.5 -52q-146 0 -221 106t-75 273zM328 643q-120 0 -120 -222q0 -25 2 -53q13 -276 149 -276q121 0 121 224q0 24 -1 52q-13 275 -151 275z" />
    <glyph glyph-name="one" unicode="1" horiz-adv-x="394" 
d="M289 638v-535q0 -54 33 -71q-38 -43 -92 -43q-98 0 -98 119v487q0 31 -26 31q-29 0 -56 -21q-22 9 -22 35q0 37 46.5 71.5t104 34.5t84 -29t26.5 -79z" />
    <glyph glyph-name="two" unicode="2" horiz-adv-x="584" 
d="M560 100q0 -100 -162 -100h-268q-61 0 -90 36q-17 22 -17 47.5t7 48.5q179 113 255 206q31 39 52 87.5t21 104.5t-23 88t-65 32q-28 0 -43.5 -18.5t-15.5 -41.5t16 -41.5t43 -26.5q-31 -61 -113 -61q-49 0 -85 28.5t-36 79.5q0 74 75 125.5t180.5 51.5t173 -64.5
t67.5 -164.5t-89 -207t-258 -182l218 14q90 4 130 32q27 -35 27 -74z" />
    <glyph glyph-name="three" unicode="3" horiz-adv-x="578" 
d="M499 586q0 -50 -32.5 -88.5t-84.5 -55.5q63 -17 105.5 -71.5t42.5 -132.5q0 -106 -87.5 -177.5t-194.5 -71.5q-114 0 -178 65q-34 36 -34 85t33.5 74.5t57.5 25.5q22 -68 72.5 -105t101.5 -37t77 26t26 64q0 58 -52 106t-141 48q-28 0 -43 -4q-14 11 -14 32.5t30.5 43.5
t66.5 38t66.5 44.5t30.5 63t-28 55t-68 20.5q-67 0 -133 -50q-14 4 -22.5 17.5t-8.5 29.5q0 44 63 79.5t148.5 35.5t142.5 -43.5t57 -116.5z" />
    <glyph glyph-name="four" unicode="4" horiz-adv-x="655" 
d="M206 288h147v270q0 18 -12 18q-18 0 -60 -51.5t-77 -116.5t-35 -97q0 -13 8.5 -18t28.5 -5zM529 176h-19v-73q0 -54 32 -71q-36 -43 -91 -43q-98 0 -98 119v68h-226q-79 0 -79 64q0 75 66 196.5t158.5 215.5t158.5 94q79 0 79 -120v-338h32q50 0 71 18q18 -20 18 -51.5
t-28.5 -55t-73.5 -23.5z" />
    <glyph glyph-name="five" unicode="5" horiz-adv-x="583" 
d="M181 446q68 39 148.5 39t146 -64t65.5 -167t-82.5 -184t-202.5 -81q-84 0 -146 40t-62 107q0 50 34 76t68 26q20 -59 64 -91t95 -32t81.5 24.5t30.5 69.5q0 65 -55.5 103t-122.5 38t-117 -21q-21 0 -35.5 15.5t-14.5 38.5t50 265q18 88 149 88h117q53 0 78 20
q20 -22 20 -66t-36 -69.5t-116 -25.5h-124z" />
    <glyph glyph-name="six" unicode="6" horiz-adv-x="640" 
d="M60 322q0 78 25.5 153.5t69.5 136t110.5 97.5t142.5 37q27 0 49 -14t22 -40q0 -7 -1 -10q-118 -13 -187 -104.5t-69 -227.5t44 -201.5t101 -65.5q36 0 62 25.5t26 66.5q0 61 -48.5 114t-135.5 58q1 46 34.5 77t90.5 31t105.5 -35.5t69.5 -83t21 -95.5q0 -114 -72.5 -183
t-181.5 -69q-130 0 -204 96t-74 237z" />
    <glyph glyph-name="seven" unicode="7" horiz-adv-x="526" 
d="M169 736h324q9 -11 9 -39t-35.5 -91.5t-78.5 -129t-78.5 -153t-35.5 -161.5t62 -100q-1 -3 -2.5 -8t-9 -17.5t-17.5 -22.5q-27 -25 -75 -25t-81 38.5t-33 99.5t45 146t114 185.5t90 140.5q-23 -4 -56 -4h-196q-52 0 -78 -20q-19 26 -19 57t12.5 51.5t27.5 30.5t40 16
q30 6 71 6z" />
    <glyph glyph-name="eight" unicode="8" horiz-adv-x="653" 
d="M235 335q-35 -46 -35 -106t41.5 -107.5t111.5 -47.5q37 0 67 22.5t30 61.5q0 70 -114 126q-49 23 -101 51zM406 419q24 43 24 97.5t-38.5 101.5t-95.5 47q-34 0 -59 -22t-25 -60q0 -31 28 -65q16 -19 51 -38.5t68.5 -36.5t46.5 -24zM571 541q0 -100 -93 -163
q115 -77 115 -180q0 -54 -26 -96t-66 -66q-81 -47 -163 -47q-106 0 -192 59.5t-86 164t104 167.5q-84 70 -84 159t67 148t173 59q58 0 114 -22t96.5 -70.5t40.5 -112.5z" />
    <glyph glyph-name="nine" unicode="9" horiz-adv-x="640" 
d="M580 414q0 -105 -42 -201.5t-123.5 -160t-182.5 -63.5q-28 0 -49.5 14t-21.5 40q0 7 1 11q117 13 186.5 104.5t69.5 227.5t-44.5 201.5t-101.5 65.5q-36 0 -61.5 -26t-25.5 -67q0 -61 48.5 -113.5t134.5 -57.5q-1 -47 -34 -77.5t-90 -30.5t-105.5 35.5t-69.5 82.5t-21 95
q0 114 72.5 183t180.5 69q130 0 204.5 -95.5t74.5 -236.5z" />
    <glyph glyph-name="colon" unicode=":" horiz-adv-x="398" 
d="M273 527q22 -23 22 -62.5t-33.5 -73t-73 -33.5t-62.5 23t-23 62t34.5 73t74 34t61.5 -23zM272.5 158q22.5 -23 22.5 -62t-33.5 -73t-73 -34t-62.5 23.5t-23 62t34.5 72.5t73.5 34t61.5 -23z" />
    <glyph glyph-name="semicolon" unicode=";" horiz-adv-x="398" 
d="M273 527q22 -23 22 -62.5t-33.5 -73t-73 -33.5t-62.5 23t-23 62t34.5 73t74 34t61.5 -23zM156 -37q0 91 -70 133q12 34 39 58t63 24q53 0 79.5 -39t26.5 -94.5t-25.5 -119t-66.5 -109t-76.5 -45.5t-43.5 33q36 28 55 71t19 88z" />
    <glyph glyph-name="less" unicode="&#x3c;" horiz-adv-x="768" 
d="M257 454q0 -21 140 -87.5t264 -115.5q0 -56 -28 -89.5t-73 -33.5t-163.5 52t-223.5 123t-105 114.5t116 118.5t241.5 129.5t157.5 54.5t55.5 -16t23.5 -48q-405 -165 -405 -202z" />
    <glyph glyph-name="equal" unicode="=" horiz-adv-x="769" 
d="M210 623h487q6 -11 6 -36t-12 -46t-26.5 -31t-38.5 -16q-27 -6 -68 -6h-485q-8 21 -8 42.5t12 41.5t26.5 29.5t38.5 14.5q27 7 68 7zM210 342h487q6 -10 6 -35t-12 -46t-26.5 -31t-38.5 -16q-27 -6 -68 -6h-485q-8 19 -8 41.5t12 42.5t26.5 29t38.5 15q27 6 68 6z" />
    <glyph glyph-name="greater" unicode="&#x3e;" horiz-adv-x="734" 
d="M334 180q-118 -52 -163.5 -52t-73 33.5t-27.5 89.5q124 49 264 115.5t140 87.5q0 37 -406 202q0 32 24 48t55.5 16t157 -54.5t241.5 -129.5t116 -118.5t-105 -114.5t-223 -123z" />
    <glyph glyph-name="question" unicode="?" horiz-adv-x="610" 
d="M383.5 377q-18.5 -26 -18.5 -47t14 -36.5t39 -21.5q-3 -28 -26 -45.5t-61.5 -17.5t-68.5 29t-30 79q0 58 54 113q22 24 44.5 49.5t38 60t15.5 74.5t-25 65t-63 25q-72 0 -72 -57q0 -23 16 -42.5t37 -27.5q0 -14 -31 -39.5t-75.5 -25.5t-74.5 31t-30 77q0 73 73 118.5
t171.5 45.5t166 -46t67.5 -121t-64 -139q-26 -26 -52 -50.5t-44.5 -50.5zM397.5 139.5q22.5 -20.5 22.5 -55.5t-34 -65t-73.5 -30t-62 21t-22.5 55t34.5 64.5t73.5 30.5t61.5 -20.5z" />
    <glyph glyph-name="at" unicode="@" horiz-adv-x="958" 
d="M403 199q0 -37 49 -37q36 0 70 32l5 81q-124 -8 -124 -76zM535 416q0 48 -47 48q-20 0 -34 -11.5t-14 -30.5t12 -34q-35 -30 -81 -30t-66.5 18t-20.5 46q0 51 66 81.5t150.5 30.5t130.5 -34t46 -102v-14l-11 -190v-7q0 -35 30 -35q46 0 83 52q41 57 41 159
q0 123 -75.5 197.5t-214.5 74.5q-193 0 -301.5 -114.5t-108.5 -282.5q0 -133 76 -203.5t220 -70.5q111 0 215 38q8 -8 8 -17q0 -21 -45 -42q-81 -39 -199 -39q-151 0 -246 88t-95 246q0 92 35.5 176t97.5 146t153 98.5t185.5 36.5t162.5 -27.5t110 -73.5q88 -95 88 -226
t-74.5 -209.5t-182.5 -78.5q-83 0 -103 57q-59 -57 -148 -57q-64 0 -98 27t-34 71q0 70 77 109.5t207 41.5l5 79v8z" />
    <glyph glyph-name="A" unicode="A" horiz-adv-x="742" 
d="M288 236h156l-73 257zM681.5 4.5q-28.5 -15.5 -67.5 -15.5t-64 19.5t-45 69.5l-24 62h-227l-25 -70q-28 -81 -95 -81q-32 0 -60.5 14.5t-37.5 36.5q17 7 28.5 23.5t25.5 51.5l205 529q-18 39 -39 54q31 48 96 48q50 0 73 -27t49 -97l179 -484q26 -71 69 -92
q-12 -26 -40.5 -41.5z" />
    <glyph glyph-name="B" unicode="B" horiz-adv-x="785" 
d="M665 541q0 -56 -37.5 -94.5t-104.5 -52.5q71 -12 127 -56q28 -23 45.5 -57.5t17.5 -76.5q0 -94 -90 -154.5t-236 -60.5t-214.5 42.5t-68.5 137.5v415q0 69 -27 110q143 52 292 52t222.5 -58t73.5 -147zM375 427q59 0 94 29.5t35 76t-35.5 76t-99 29.5t-107.5 -13v-197
l109 -1h4zM262 156q0 -59 127 -59q76 0 119 31t43 82t-43 82.5t-119 31.5h-127v-168z" />
    <glyph glyph-name="C" unicode="C" horiz-adv-x="738" 
d="M670 599q0 -45 -32 -66.5t-77 -21.5t-79 21q4 20 4 45.5t-14 47.5q-22 33 -71 33q-72 0 -123 -74.5t-51 -207t55.5 -189.5t153.5 -57q60 0 114.5 28.5t86.5 67.5q35 -15 35 -62q0 -61 -82 -118t-195 -57q-158 0 -245.5 97.5t-87.5 273.5t95 281t258 105q105 0 180 -42.5
t75 -104.5z" />
    <glyph glyph-name="D" unicode="D" horiz-adv-x="803" 
d="M104 169v415q0 69 -27 110q143 52 279 52q173 0 280.5 -100t107.5 -278.5t-107.5 -278.5t-280.5 -100q-130 0 -191 42.5t-61 137.5zM262 158q0 -62 99.5 -62t160 74t60.5 197t-60.5 198t-165.5 75q-46 0 -94 -18v-464z" />
    <glyph glyph-name="E" unicode="E" horiz-adv-x="716" 
d="M337 128h161q71 0 126 40q32 -27 32 -71t-32 -70.5t-96 -26.5h-217q-100 0 -146.5 43t-46.5 136v444q0 51 -34 69q37 44 91 44h334q79 0 113 -20.5t34 -60.5t-32 -67q-48 19 -126 19h-223v-150h138q80 0 113.5 -17t33.5 -57.5t-32 -65.5q-36 12 -126 12h-127v-130
q0 -71 62 -71z" />
    <glyph glyph-name="F" unicode="F" horiz-adv-x="670" 
d="M175 736h346q76 0 105.5 -18t29.5 -54.5t-32 -63.5q-48 19 -126 19h-223v-177h138q80 0 113.5 -14.5t33.5 -48t-32 -55.5q-36 10 -126 10h-127v-231q0 -54 32 -71q-36 -43 -91 -43q-98 0 -98 119v515q0 51 -34 69q37 44 91 44z" />
    <glyph glyph-name="G" unicode="G" horiz-adv-x="790" 
d="M716 280v-273q0 -54 33 -71q-38 -43 -90 -43t-76 29t-24 90v54q-57 -77 -177 -77q-116 0 -214 84q-47 41 -76.5 111t-29.5 157q0 180 104.5 292.5t295.5 112.5q107 0 182.5 -44t75.5 -106q0 -36 -33.5 -60.5t-76.5 -24.5t-77 21q1 10 1 19q0 45 -26 76t-78 31
q-91 0 -144 -78q-56 -80 -56 -206t52 -195.5t146 -69.5q131 0 131 121v47h-32q-52 0 -94 -2q-18 26 -18 60.5t35 48t120 13.5t115.5 -27t30.5 -90z" />
    <glyph glyph-name="H" unicode="H" horiz-adv-x="852" 
d="M743 628v-525q0 -54 32 -71q-36 -43 -91 -43q-98 0 -98 119v215h-318v-220q0 -54 32 -71q-38 -43 -90 -43t-76 29t-24 90v526q0 52 -33 69q36 43 91 43q100 0 100 -118v-203h318v209q0 51 -34 69q38 43 90.5 43t76.5 -29t24 -89z" />
    <glyph glyph-name="I" unicode="I" horiz-adv-x="377" 
d="M268 628v-525q0 -54 32 -71q-38 -43 -90 -43t-76 29t-24 90v526q0 52 -33 69q36 43 91 43q100 0 100 -118z" />
    <glyph glyph-name="J" unicode="J" horiz-adv-x="468" 
d="M403 628v-431q0 -102 -58.5 -155t-144.5 -53t-134 32.5t-48 75t25 65.5q55 -48 119 -48q37 0 60.5 19.5t23.5 56.5v444q0 51 -34 69q38 43 92 43q99 0 99 -118z" />
    <glyph glyph-name="K" unicode="K" horiz-adv-x="769" 
d="M688.5 22q-32.5 -33 -73 -33t-74 25t-90.5 88l-183 205v-204q0 -54 32 -71q-38 -43 -90 -43t-76 29t-24 90v526q0 52 -33 69q36 43 91 43q100 0 100 -118v-195l190 220q46 53 77.5 73t75.5 20t73 -30.5t31 -77.5q-7 1 -14 1q-32 0 -63 -27l-241 -221l220 -235
q48 -50 97 -50h7q0 -51 -32.5 -84z" />
    <glyph glyph-name="L" unicode="L" horiz-adv-x="589" 
d="M110 167v467q0 52 -33 69q36 43 91 43q100 0 100 -118v-441q0 -71 62 -71h103q71 0 108 40q24 -17 24 -56.5t-31.5 -69.5t-91.5 -30h-150q-100 0 -141 37t-41 130z" />
    <glyph glyph-name="M" unicode="M" horiz-adv-x="970" 
d="M913 10q-37 -17 -80.5 -17t-68.5 22.5t-28 79.5l-28 506l-175 -555q-15 -46 -64 -46q-28 1 -39 12t-18 35l-181 555l-29 -504q-4 -56 -22.5 -82.5t-65.5 -26.5t-84 39q29 27 32 80l40 511v13q0 47 -20 75q72 39 154 39t115.5 -39t58.5 -132l80 -287l78 282
q29 105 73.5 140.5t116 35.5t122.5 -22q-18 -30 -18 -74q0 -9 1 -20l30 -518q2 -70 20 -102z" />
    <glyph glyph-name="N" unicode="N" horiz-adv-x="856" 
d="M110 108v526q0 52 -33 69q36 43 108 43q88 0 141 -88l276 -458v434q0 52 -33 69q36 43 91 43q100 0 100 -118v-525q0 -57 19 -85q-31 -29 -90 -29t-104 35.5t-97 120.5l-220 369v-411q0 -54 32 -71q-38 -43 -90 -43t-76 29t-24 90z" />
    <glyph glyph-name="O" unicode="O" horiz-adv-x="794" 
d="M414 88q88 0 124 78q28 63 28 158q0 21 -1 44q-7 126 -52 203t-133 77q-152 0 -152 -239q0 -201 86 -282q41 -39 100 -39zM709.5 516.5q18.5 -66.5 18.5 -148t-18.5 -148.5t-56.5 -120t-103.5 -82t-152.5 -29q-166 0 -248.5 105.5t-82.5 273.5t82.5 273t248.5 105
q88 0 153 -29t103 -81.5t56.5 -119z" />
    <glyph glyph-name="P" unicode="P" horiz-adv-x="630" 
d="M293 643h-57v-289h57q69 0 106.5 39.5t37.5 106t-37.5 105t-106.5 38.5zM136 736h187h6q165 0 245 -102q44 -56 44 -135t-44 -134q-81 -103 -251 -103h-88v-159q0 -54 33 -71q-38 -43 -92 -43q-98 0 -98 119v515q0 51 -34 69q37 44 92 44z" />
    <glyph glyph-name="Q" unicode="Q" horiz-adv-x="844" 
d="M742 -17q27 -27 27 -69q0 -65 -62 -100q-38 -22 -95.5 -22t-117 22.5t-100 55t-65.5 68.5t-25 58t12.5 33.5t51.5 29.5q225 105 225 332q0 104 -56 178t-138 74t-127 -62t-45 -164t45 -153t119 -59q-12 -41 -43 -70t-73 -29q-78 0 -141.5 74t-63.5 188q0 161 101 269.5
t263 108.5q142 0 232 -88.5t90 -238t-84.5 -263t-245.5 -158.5q78 -48 203 -48q66 0 113 33z" />
    <glyph glyph-name="R" unicode="R" horiz-adv-x="676" 
d="M236 624v-235h57q70 0 107 30.5t37 87t-37 87t-107 30.5h-57zM658 56q-34 -67 -108 -67q-39 0 -71 20t-69 79l-116 189h-59v-174q0 -54 33 -71q-38 -43 -92 -43q-98 0 -98 119v515q0 51 -34 69q37 44 92 44h166q121 0 208.5 -60.5t87.5 -169.5q0 -71 -39 -121.5
t-105 -78.5l118 -175q36 -49 86 -75z" />
    <glyph glyph-name="S" unicode="S" horiz-adv-x="702" 
d="M643 598q0 -37 -23.5 -59.5t-64.5 -22.5t-77 26q8 16 8 41.5t-29.5 45.5t-84 20t-89.5 -20t-35 -53.5t42.5 -62t103 -55t121 -57.5t103 -81t42.5 -112q0 -96 -85.5 -157.5t-207 -61.5t-205.5 45.5t-84 117.5q0 42 29.5 67t71 25t81.5 -32q-24 -22 -24 -53t36.5 -52
t98 -21t97 25t35.5 66.5t-42.5 74t-103 58.5t-121 55t-103 73.5t-42.5 101.5q0 94 82 150t201 56t194 -42t75 -106z" />
    <glyph glyph-name="T" unicode="T" horiz-adv-x="649" 
d="M167 736h362q96 0 96 -77q0 -27 -25 -58q-41 18 -118 18h-79v-516q0 -54 33 -71q-38 -43 -92 -43q-98 0 -98 119v511h-126q-96 0 -96 77q0 27 25 58q41 -18 118 -18z" />
    <glyph glyph-name="U" unicode="U" horiz-adv-x="757" 
d="M94 263v371q0 51 -34 69q38 43 90.5 43t76.5 -29t24 -89v-388q0 -66 40 -100t104.5 -34t104.5 34t40 100v394q0 51 -34 69q38 43 92 43q99 0 99 -118v-365q0 -129 -74.5 -201.5t-227.5 -72.5t-227 72.5t-74 201.5z" />
    <glyph glyph-name="V" unicode="V" horiz-adv-x="730" 
d="M529 720q41 26 87 26t71 -24t25 -61t-18 -80l-192 -465q-32 -77 -57 -102t-80 -25q-29 0 -46.5 5t-32 23t-23 37t-23.5 62l-181 510q-19 53 -53 71q47 49 104 49q41 0 68 -24.5t48 -87.5l154 -481l152 431q19 58 19 86.5t-22 49.5z" />
    <glyph glyph-name="W" unicode="W" horiz-adv-x="1048" 
d="M880 656q0 41 -22 63q37 27 88 27q85 0 85 -91q0 -14 -6 -50l-123 -485q-26 -131 -128 -131q-104 0 -132 131l-103 395l-107 -395q-16 -73 -47.5 -102t-86 -29t-84 29t-44.5 102l-116 496q-16 68 -48 88q41 42 93 42t80.5 -26.5t40.5 -93.5l86 -469l134 495q15 52 41 73
t70 21q91 0 113 -94l117 -503l95 470q4 20 4 37z" />
    <glyph glyph-name="X" unicode="X" horiz-adv-x="674" 
d="M626 14q-28 -25 -67 -25t-65.5 16.5t-55.5 61.5l-106 166l-121 -173q-26 -37 -51.5 -54t-62.5 -17t-62 26t-25 73q24 0 39 8.5t31 29.5l170 234l-142 223q-44 70 -98 70q23 93 108 93q36 0 63 -17t55 -61l125 -195l101 143q23 31 23 57.5t-27 47.5q47 25 94.5 25
t74 -23.5t26.5 -68t-46 -102.5l-165 -207l124 -193q44 -69 99 -69q-11 -44 -39 -69z" />
    <glyph glyph-name="Y" unicode="Y" horiz-adv-x="655" 
d="M425 10q-37 -17 -80.5 -17t-68 30t-24.5 89l1 207l-185 304q-25 40 -62 43q26 80 101 80q38 0 65.5 -24.5t56.5 -72.5l115 -189l112 145q26 34 26 63t-24 54q48 24 90.5 24t70.5 -22t28 -62t-37 -86l-201 -256l-1 -225q0 -54 17 -85z" />
    <glyph glyph-name="Z" unicode="Z" horiz-adv-x="677" 
d="M638 100q0 -100 -162 -100h-284q-69 0 -115.5 36t-46.5 96q0 39 17 69.5t55 64.5l380 343q-144 -27 -278 -27q-162 0 -162 100q0 37 24 68q48 -14 133 -14h274q69 0 115.5 -36.5t46.5 -95.5q0 -38 -17 -68.5t-55 -66.5l-383 -346l310 21q76 6 123 30q25 -30 25 -74z" />
    <glyph glyph-name="bracketleft" unicode="[" horiz-adv-x="452" 
d="M197 -76h101q112 0 112 -76q0 -16 -6 -28h-217q-75 0 -108 33q-15 15 -27 46t-12 75v1077h258q112 0 112 -77q0 -15 -6 -27h-207v-1023z" />
    <glyph glyph-name="backslash" unicode="\" horiz-adv-x="631" 
d="M137 1052q57 0 87 -90q69 -194 191.5 -549.5t162.5 -470.5q22 -60 39 -74q-26 -23 -58 -23q-55 0 -89 91q-22 63 -125 362.5t-230 660.5q-19 58 -38 72q25 21 60 21z" />
    <glyph glyph-name="bracketright" unicode="]" horiz-adv-x="452" 
d="M256 947h-101q-113 0 -113 77q0 9 6 27h217q76 0 109 -33q15 -15 27 -46t12 -74v-1078h-258q-113 0 -113 77q0 9 6 27h208v1023z" />
    <glyph glyph-name="asciicircum" unicode="^" horiz-adv-x="734" 
d="M580 218q-56 0 -105 104l-113 249l-175 -336q-37 0 -67 22.5t-30 61.5t28 87l153 271q41 71 91 71q26 0 43.5 -17.5t37.5 -59.5l201 -427q-34 -26 -64 -26z" />
    <glyph glyph-name="underscore" unicode="_" horiz-adv-x="619" 
d="M145 -66h468q6 -10 6 -35t-12 -46t-26.5 -31t-38.5 -16q-27 -6 -68 -6h-466q-8 19 -8 41.5t12 42.5t26.5 29t37.5 15q28 6 69 6z" />
    <glyph glyph-name="grave" unicode="`" horiz-adv-x="276" 
d="M252 666q-11 4 -29 4t-45 -21l-81 -62q-19 -17 -43 -17q-29 0 -42 25l55 94q31 53 59 74.5t69.5 21.5t60.5 -37q9 -17 9 -37.5t-13 -44.5z" />
    <glyph glyph-name="a" unicode="a" horiz-adv-x="569" 
d="M210 137q0 -49 56 -49q41 0 74 38v97q-130 -7 -130 -86zM497 354v-227q0 -63 54 -80q-18 -25 -48.5 -41.5t-64.5 -16.5q-74 0 -92 66q-62 -66 -155 -66q-69 0 -110 34t-41 96q0 76 79.5 121.5t220.5 47.5v95q0 67 -54 67q-22 0 -36.5 -13.5t-14.5 -36t16 -41.5
q-34 -36 -85.5 -36t-76 23t-24.5 60q0 56 68.5 92t160 36t147.5 -43t56 -137z" />
    <glyph glyph-name="b" unicode="b" horiz-adv-x="608" 
d="M235 155q0 -81 69 -81q55 0 89.5 52t34.5 133t-30 124.5t-72 43.5q-27 0 -51.5 -17.5t-39.5 -47.5v-207zM235 665v-197q53 66 141.5 66t149 -68t60.5 -184q0 -137 -81 -215t-210 -78q-107 0 -162 36.5t-55 129.5v516q0 50 -34 71q38 42 92 42q99 0 99 -119z" />
    <glyph glyph-name="c" unicode="c" horiz-adv-x="523" 
d="M487 415q0 -37 -23 -57.5t-61 -20.5t-68 23q3 12 3 32t-11.5 36t-31.5 16q-39 0 -67.5 -53t-28.5 -131.5t34.5 -120t90.5 -41.5q83 0 139 63q23 -9 23 -42q0 -51 -56.5 -90.5t-134.5 -39.5q-117 0 -182 67t-65 185t76 205.5t195 87.5q67 0 117.5 -32.5t50.5 -86.5z" />
    <glyph glyph-name="d" unicode="d" horiz-adv-x="601" 
d="M372 422q-23 26 -68 26t-78.5 -49.5t-33.5 -136.5q0 -174 107 -174q47 0 73 39v295zM529 665v-562q0 -54 33 -71q-38 -43 -92 -43q-67 0 -88 54q-22 -25 -56.5 -39.5t-67.5 -14.5q-99 0 -163.5 69t-64.5 189.5t73 203.5t197 83q35 0 72 -8v145q0 50 -34 71q38 42 92 42
q99 0 99 -119z" />
    <glyph glyph-name="e" unicode="e" horiz-adv-x="534" 
d="M339 342.5q9 9.5 9 36.5t-15.5 49.5t-42.5 22.5t-51 -34t-32 -99l105 13q18 2 27 11.5zM329 98q83 0 139 63q23 -10 23 -42q0 -48 -57 -89t-134 -41q-119 0 -185.5 65t-66.5 186.5t73 207.5t185 86q86 0 142 -55.5t56 -126.5q0 -55 -26 -79t-89 -26l-185 -5
q7 -144 125 -144z" />
    <glyph glyph-name="f" unicode="f" horiz-adv-x="408" 
d="M112 485v125q0 81 49.5 127.5t130.5 46.5q59 0 94.5 -28t35.5 -66t-31 -44q-31 34 -67 34q-55 0 -55 -74v-121h122q7 -8 7 -21q0 -29 -27.5 -52t-84.5 -23h-17v-479q0 -91 -39.5 -134.5t-102.5 -43.5q-96 0 -121 90q62 0 84 26t22 88v454q-87 6 -87 53q0 29 22 44
q42 -2 65 -2z" />
    <glyph glyph-name="g" unicode="g" horiz-adv-x="565" 
d="M283 194q54 0 54 107q0 14 -1 30q-8 136 -67 136q-55 0 -55 -107q0 -13 1 -29q8 -137 68 -137zM407 -78h-159q-78 0 -134 32.5t-56 101.5t82 110q-87 57 -87 165q0 92 65 147.5t158 55.5q73 0 131 -36q4 63 32 97.5t67 34.5t61 -24t22 -56q0 -51 -32 -70q-23 17 -45 17
q-43 0 -56 -42q42 -52 42 -124q0 -92 -64.5 -148t-157.5 -56q-38 0 -74 11q-24 -10 -24 -32.5t18 -30t62 -7.5h137q75 0 110.5 -36t35.5 -99q0 -89 -79.5 -145t-209 -56t-183 36.5t-53.5 85.5q0 38 28.5 60t68.5 22q1 -50 38.5 -71t118.5 -21t122 15.5t41 40.5q0 22 -26 22z
" />
    <glyph glyph-name="h" unicode="h" horiz-adv-x="636" 
d="M564 354v-251q0 -54 32 -71q-36 -43 -91 -43q-98 0 -98 119v223q0 36 -17.5 56.5t-49.5 20.5t-62 -29.5t-43 -87.5v-188q0 -54 33 -71q-38 -43 -92 -43q-98 0 -98 119v563q0 50 -34 71q38 42 92 42q99 0 99 -119v-235q27 51 74.5 77.5t110 26.5t103.5 -46t41 -134z" />
    <glyph glyph-name="i" unicode="i" horiz-adv-x="307" 
d="M227.5 760.5q25.5 -23.5 25.5 -62t-32.5 -70.5t-74.5 -32t-67.5 24.5t-25.5 64.5t35.5 69.5t74.5 29.5t64.5 -23.5zM235 415v-312q0 -54 33 -71q-38 -43 -92 -43q-98 0 -98 119v313q0 52 -34 70q38 43 90.5 43t76.5 -29t24 -90z" />
    <glyph glyph-name="j" unicode="j" horiz-adv-x="304" 
d="M235 415v-505q0 -91 -39.5 -134.5t-101.5 -43.5q-95 0 -122 90q62 0 84 26t22 88v485q0 52 -34 71q38 42 90.5 42t76.5 -29t24 -90zM227.5 760.5q25.5 -23.5 25.5 -62t-32.5 -70.5t-74.5 -32t-67.5 24.5t-25.5 64.5t35.5 69.5t74.5 29.5t64.5 -23.5z" />
    <glyph glyph-name="k" unicode="k" horiz-adv-x="637" 
d="M235 665v-337q186 87 186 206q67 0 108 -27t41 -75.5t-54.5 -85.5t-171.5 -72q97 -98 144 -125t105 -27q0 -63 -30 -98t-83 -35t-108.5 53.5t-136.5 184.5v-124q0 -54 33 -71q-38 -43 -92 -43q-98 0 -98 119v563q0 50 -34 71q38 42 92 42q99 0 99 -119z" />
    <glyph glyph-name="l" unicode="l" horiz-adv-x="312" 
d="M235 665v-562q0 -54 33 -71q-38 -43 -92 -43q-98 0 -98 119v563q0 50 -34 71q38 42 92 42q99 0 99 -119z" />
    <glyph glyph-name="m" unicode="m" horiz-adv-x="965" 
d="M893 354v-251q0 -54 32 -71q-36 -43 -91 -43q-98 0 -98 119v223q0 36 -17.5 56.5t-49.5 20.5t-62 -28.5t-43 -84.5v-192q0 -54 32 -71q-36 -43 -91 -43q-98 0 -98 119v223q0 36 -17.5 56.5t-49.5 20.5t-62 -29.5t-43 -87.5v-188q0 -54 33 -71q-38 -43 -92 -43
q-98 0 -98 119v313q0 52 -34 70q38 43 89 43t75 -25.5t27 -78.5q27 51 74.5 77.5t103 26.5t93.5 -30t51 -87q26 57 76 87t114 30t105 -46t41 -134z" />
    <glyph glyph-name="n" unicode="n" horiz-adv-x="636" 
d="M564 354v-251q0 -54 32 -71q-36 -43 -91 -43q-98 0 -98 119v223q0 36 -17.5 56.5t-49.5 20.5t-62 -29.5t-43 -87.5v-188q0 -54 33 -71q-38 -43 -92 -43q-98 0 -98 119v313q0 52 -34 70q38 43 89 43t75 -25.5t27 -78.5q27 51 74.5 77.5t110 26.5t103.5 -46t41 -134z" />
    <glyph glyph-name="o" unicode="o" horiz-adv-x="610" 
d="M292 458q-86 0 -86 -150q0 -22 2 -46q12 -197 110 -197q86 0 86 151q0 21 -2 46q-14 196 -110 196zM305 534q115 0 186 -70.5t71 -201.5t-71.5 -202t-186 -71t-185.5 71t-71 202t71 201.5t186 70.5z" />
    <glyph glyph-name="p" unicode="p" horiz-adv-x="613" 
d="M326 80q40 0 71 51t31 130t-30 122.5t-72 43.5q-27 0 -51.5 -17.5t-39.5 -47.5v-236q37 -46 91 -46zM78 -149v570q0 52 -34 71q38 42 92 42q79 0 94 -72q54 72 145 72t151 -71.5t60 -199.5t-72 -201t-166 -73q-62 0 -113 35v-178q0 -53 33 -70q-37 -44 -92 -44
q-98 0 -98 119z" />
    <glyph glyph-name="q" unicode="q" horiz-adv-x="581" 
d="M372 374q0 36 -22.5 55t-49.5 19q-46 0 -77 -49.5t-31 -136.5t26 -130.5t69 -43.5q56 0 85 47v239zM529 534v-688q0 -53 33 -70q-37 -44 -92 -44q-98 0 -98 119v186q-50 -48 -119 -48q-91 0 -157 70t-66 185q0 75 29 139.5t90.5 107.5t143.5 43q57 0 104 -37q28 37 93 37
h39z" />
    <glyph glyph-name="r" unicode="r" horiz-adv-x="493" 
d="M78 108v313q0 52 -34 70q38 43 92 43q89 0 98 -96q40 96 133 96q47 0 77.5 -28t30.5 -75t-23.5 -74.5t-71.5 -27.5q-6 0 -26 2q4 18 4 23q0 25 -14.5 39.5t-35.5 14.5q-54 0 -73 -82v-223q0 -54 33 -71q-38 -43 -92 -43q-98 0 -98 119z" />
    <glyph glyph-name="s" unicode="s" horiz-adv-x="526" 
d="M473 421q0 -33 -19 -51t-54 -18t-67 24q13 41 -12 62q-16 13 -43.5 13t-44 -11.5t-16.5 -34.5t29 -43.5t70 -38t82 -38t70 -53.5t29 -75q0 -74 -69 -121t-165.5 -47t-161.5 35q-66 37 -66 92q0 33 25 54.5t60 21.5q55 0 78 -34q-17 -14 -17 -37t22 -35.5t58 -12.5
t57.5 14.5t21.5 37.5t-29 43t-70 38t-82 39t-70 54.5t-29 74.5q0 65 63 112.5t149.5 47.5t143.5 -32t57 -81z" />
    <glyph glyph-name="t" unicode="t" horiz-adv-x="434" 
d="M240 427v-270q0 -63 49 -63q54 0 100 49q14 0 23.5 -11.5t9.5 -30.5q0 -41 -50 -76.5t-123.5 -35.5t-119.5 37t-46 113v288q-36 1 -54 17.5t-18 41.5t21 40q24 -3 51 -3v30q0 52 -34 70q38 43 90.5 43t76.5 -29t24 -90v-24h151q7 -8 7 -20q0 -31 -33.5 -53.5
t-116.5 -22.5h-8z" />
    <glyph glyph-name="u" unicode="u" horiz-adv-x="636" 
d="M564 415v-312q0 -54 32 -71q-36 -43 -91 -43q-81 0 -95 81q-51 -81 -141.5 -81t-140.5 46t-50 134v252q0 52 -34 70q38 43 90.5 43t76.5 -29t24 -90v-230q0 -77 78 -77q67 0 94 76v237q0 52 -34 70q38 43 90.5 43t76.5 -29t24 -90z" />
    <glyph glyph-name="v" unicode="v" horiz-adv-x="580" 
d="M391 406q11 33 11 60.5t-13 49.5q34 18 76.5 18t66.5 -21t24 -52t-17 -75l-105 -272q-25 -67 -54.5 -94t-88 -27t-88.5 25t-51 96l-86 293q-16 51 -42 69q12 25 39 41.5t57 16.5q89 0 108 -98l66 -339z" />
    <glyph glyph-name="w" unicode="w" horiz-adv-x="913" 
d="M739 426q6 31 6 55t-8 37q31 16 75 16t65 -38q12 -21 12 -43.5t-6 -43.5l-86 -294q-21 -71 -49 -98.5t-86.5 -27.5t-88.5 30t-45 96l-48 212l-50 -212q-17 -69 -48 -97.5t-94 -28.5t-92.5 27t-49.5 99l-75 279q-10 36 -20 54.5t-27 27.5q37 58 103 58q83 0 103 -113
l57 -309l75 318q14 59 43.5 81.5t82.5 22.5t84 -23t42 -81l63 -310z" />
    <glyph glyph-name="x" unicode="x" horiz-adv-x="558" 
d="M438 -11q-64 0 -113 69l-57 80l-54 -91q-35 -58 -105 -58q-32 0 -57.5 19t-32.5 48q29 7 57 46l106 157l-122 173q-21 31 -41 34q4 31 30 49.5t61 18.5q65 0 113 -68l61 -87l59 97q35 58 105 58q32 0 57.5 -19t32.5 -48q-30 -7 -57 -46l-111 -163l117 -167q23 -31 42 -33
q-4 -31 -29.5 -50t-61.5 -19z" />
    <glyph glyph-name="y" unicode="y" horiz-adv-x="617" 
d="M448 476q0 24 -11 40q28 18 65 18q53 0 79 -40q13 -20 13 -47t-13 -62l-191 -517q-50 -136 -158 -136q-48 0 -79 25t-31 59.5t18 63.5q27 -22 52 -22t44.5 14.5t28.5 41.5l26 76h-5q-38 0 -72 29.5t-51 84.5l-95 304q-11 36 -19.5 53.5t-24.5 29.5q45 43 92 43t73 -27
t41 -86l92 -338l115 339q11 30 11 54z" />
    <glyph glyph-name="z" unicode="z" horiz-adv-x="500" 
d="M440 145q18 -21 18 -60t-27.5 -62t-88.5 -23h-167q-65 0 -99 30t-34 77q0 28 11.5 49t40.5 47l234 207q-84 -14 -151 -14t-95 23.5t-28 56t17 54.5q45 -7 96 -7h164q65 0 99 -30t34 -77q0 -27 -11.5 -48t-40.5 -48l-238 -210l168 9q64 3 98 26z" />
    <glyph glyph-name="braceleft" unicode="{" horiz-adv-x="588" 
d="M328 913q0 -35 13.5 -150.5t13.5 -157.5t-15.5 -79t-37.5 -56q-40 -34 -64 -37q24 -3 64 -37q22 -19 37.5 -55.5t15.5 -79t-13.5 -158t-13.5 -150.5q0 -58 29 -95.5t79 -49.5q-12 -18 -43 -29t-55 -11q-67 0 -115 52t-48 150q0 56 15 159t15 145t-13.5 71t-29 40.5
t-29 23.5t-13.5 24t13.5 24.5t29 24t29 40.5t13.5 70.5t-15 145t-15 158.5q0 99 48 150.5t115 51.5q25 0 55.5 -11t42.5 -29q-50 -12 -79 -49.5t-29 -95.5z" />
    <glyph glyph-name="bar" unicode="|" horiz-adv-x="377" 
d="M268 868v-981q0 -54 32 -71q-38 -43 -90 -43t-76 29t-24 90v982q0 52 -33 69q36 43 91 43q100 0 100 -118z" />
    <glyph glyph-name="braceright" unicode="}" horiz-adv-x="588" 
d="M380 896q0 -55 -15 -158.5t-15 -145t13.5 -70.5t29.5 -40.5t29.5 -24t13.5 -24.5t-13.5 -24t-29.5 -23.5t-29.5 -40.5t-13.5 -71t15 -145t15 -159q0 -99 -48 -150.5t-115 -51.5q-24 0 -54.5 11t-42.5 29q50 12 79 49.5t29 95.5q0 35 -14 150.5t-14 158t15.5 79t36.5 55.5
q41 34 66 37q-25 3 -66 37q-21 19 -36.5 56t-15.5 79t14 157.5t14 150.5q0 58 -29 95.5t-79 49.5q12 18 42.5 29t54.5 11q68 0 115.5 -51.5t47.5 -150.5z" />
    <glyph glyph-name="asciitilde" unicode="~" horiz-adv-x="697" 
d="M520 420q27 0 43.5 15.5t18.5 40.5q43 -18 43 -69t-39 -85.5t-98 -34.5t-163.5 34.5t-139.5 34.5q-66 0 -70 -56q-43 13 -43 66.5t39 88.5t91 35t158.5 -35t159.5 -35z" />
    <glyph glyph-name="exclamdown" unicode="&#xa1;" horiz-adv-x="349" 
d="M272 -98q5 -25 5 -57.5t-21 -64.5q-30 -46 -81.5 -46t-80.5 46q-23 34 -23 85q0 18 3 37l40 290q12 92 68 92q24 0 39 -14q-3 -22 -3 -54t9 -79zM115.5 364.5q-20.5 20.5 -20.5 56t30.5 66.5t66.5 31t56.5 -21t20.5 -56t-31.5 -66t-66.5 -31t-55.5 20.5z" />
    <glyph glyph-name="cent" unicode="&#xa2;" horiz-adv-x="523" 
d="M390 559v-36q44 -13 70.5 -41t26.5 -66t-23 -58.5t-61 -20.5t-68 23q3 12 3 32t-11.5 36t-31.5 16q-39 0 -67.5 -53t-28.5 -131.5t34.5 -120t90.5 -41.5q83 0 139 63q23 -9 23 -45.5t-36 -71t-92 -47.5v-38q0 -54 32 -71q-38 -43 -90 -43t-76 29t-24 90v39
q-73 24 -112.5 85.5t-39.5 153.5t50.5 170.5t134.5 107.5v45q0 52 -34 70q38 43 90.5 43t76.5 -29t24 -90z" />
    <glyph glyph-name="sterling" unicode="&#xa3;" horiz-adv-x="668" 
d="M126 422h36q-1 18 -1 69q0 113 80.5 184t194.5 71q81 0 122.5 -30t41.5 -73t-32 -70t-82 -29q-9 44 -34.5 73t-55.5 29q-59 0 -59 -117q0 -67 4 -107h165q5 -4 5 -18q0 -63 -90 -63h-77v-53q0 -88 -55 -126q21 -3 95.5 -19t124.5 -16q79 0 121 37q14 -26 14 -57
q0 -47 -38 -82.5t-103 -35.5t-160.5 19.5t-132.5 19.5q-89 0 -134 -38q-15 27 -15 60.5t25 63.5t68 43q14 30 14 79t-2 105h-125q-5 5 -5 21q0 60 90 60z" />
    <glyph glyph-name="currency" unicode="&#xa4;" horiz-adv-x="720" 
d="M471 341q0 181 -122 181q-99 0 -99 -126q0 -11 1 -24q10 -150 120 -150q100 0 100 119zM572 491q28 -51 28 -118.5t-27 -118.5l93 -92q-16 -59 -73 -59q-46 0 -85 40l-26 27q-51 -25 -122 -25t-122 25l-26 -27q-39 -40 -85 -40q-57 0 -73 59l93 92q-27 51 -27 118.5
t28 118.5l-94 92q15 59 73 59q46 0 85 -40l27 -27q51 25 121 25t121 -25l27 27q39 40 85 40q58 0 73 -59z" />
    <glyph glyph-name="yen" unicode="&#xa5;" horiz-adv-x="701" 
d="M456 605q26 34 26 63t-24 54q48 24 90.5 24t70.5 -22t28 -62t-37 -86l-138 -176h129q5 -5 5 -18q0 -64 -90 -64h-107v-76h192q5 -4 5 -18q0 -63 -90 -63h-108v-66q0 -54 17 -85q-37 -17 -80.5 -17t-68 30t-24.5 89v49h-176q-5 5 -5 21q0 60 90 60h92v76h-177q-5 7 -5 22
q0 60 90 60h43l-136 223q-25 40 -62 43q26 80 101 80q38 0 65.5 -24.5t56.5 -72.5l115 -189z" />
    <glyph glyph-name="brokenbar" unicode="&#xa6;" horiz-adv-x="377" 
d="M268 220v-237q0 -54 32 -71q-38 -43 -90 -43t-76 29t-24 90v238q0 52 -33 69q36 43 91 43q100 0 100 -118zM268 784v-237q0 -54 32 -71q-38 -43 -90 -43t-76 29t-24 90v238q0 52 -33 69q36 43 91 43q100 0 100 -118z" />
    <glyph glyph-name="section" unicode="&#xa7;" horiz-adv-x="702" 
d="M333 56q33 -20 72.5 -39t79.5 -41t73 -48t53.5 -65t20.5 -87q0 -97 -77 -158t-187.5 -61t-186 45.5t-75.5 117.5q0 44 30.5 68.5t77 24.5t76.5 -33q-21 -23 -21 -54t27.5 -51.5t82 -20.5t83.5 25.5t29 61t-38.5 64t-93.5 55t-109.5 57.5t-93 81t-38.5 118.5t43.5 114
t104.5 45.5q28 0 57 -12q-64 -42 -64 -103.5t74 -104.5zM618 598q0 -37 -22 -59.5t-51 -22.5q-59 0 -91 26q7 21 7 44t-27 43t-75 20q-100 0 -100 -68q0 -25 38.5 -51t93 -52.5t109.5 -59t93.5 -84t38.5 -123.5t-46.5 -113.5t-105.5 -41.5q-30 0 -53 12q64 42 64 105
q0 62 -74 107q-33 20 -72.5 39.5t-79.5 40.5t-73 45q-74 54 -74 135q0 95 73.5 150.5t181.5 55.5t176.5 -42t68.5 -106z" />
    <glyph glyph-name="dieresis" unicode="&#xa8;" horiz-adv-x="394" 
d="M158.5 735q19.5 -20 19.5 -53.5t-29 -63t-63.5 -29.5t-54 20t-19.5 53.5t30 63t63.5 29.5t53 -20zM362.5 735q19.5 -20 19.5 -53.5t-29 -63t-63.5 -29.5t-54 20t-19.5 53.5t30 63t63.5 29.5t53 -20z" />
    <glyph glyph-name="copyright" unicode="&#xa9;" horiz-adv-x="869" 
d="M610 508q0 -33 -20.5 -51t-55 -18t-58.5 21q3 11 3 28t-10 31.5t-29 14.5q-34 0 -59 -46.5t-25 -116t30.5 -106t80.5 -36.5q74 0 122 55q19 -6 19 -37q0 -45 -49.5 -79.5t-118.5 -34.5q-103 0 -160 59t-57 162.5t67 181t172 77.5q59 0 103.5 -28.5t44.5 -76.5zM128 367
q0 -142 83.5 -236.5t222.5 -94.5t222.5 94.5t83.5 237t-83 237.5t-222 95t-223 -95.5t-84 -237.5zM694 641.5q103 -106.5 103 -274t-103 -273t-260 -105.5t-259.5 105.5t-102.5 273t103 274t259.5 106.5t259.5 -106.5z" />
    <glyph glyph-name="ordfeminine" unicode="&#xaa;" horiz-adv-x="569" 
d="M210 137q0 -49 56 -49q41 0 74 38v97q-130 -7 -130 -86zM497 354v-227q0 -63 54 -80q-18 -25 -48.5 -41.5t-64.5 -16.5q-74 0 -92 66q-62 -66 -155 -66q-69 0 -110 34t-41 96q0 76 79.5 121.5t220.5 47.5v95q0 67 -54 67q-22 0 -36.5 -13.5t-14.5 -36t16 -41.5
q-34 -36 -85.5 -36t-76 23t-24.5 60q0 56 68.5 92t160 36t147.5 -43t56 -137z" />
    <glyph glyph-name="guillemotleft" unicode="&#xab;" horiz-adv-x="586" 
d="M207.5 487q-26.5 -46 -26.5 -82.5t27 -83.5t102 -146q-3 -7 -12.5 -14t-21.5 -7q-34 0 -92 46.5t-103 107.5t-45 96.5t45 96.5t103 107.5t92 46.5q12 0 21.5 -7t12.5 -14q-76 -101 -102.5 -147zM447.5 487q-26.5 -46 -26.5 -82.5t27 -83.5t102 -146q-3 -7 -12.5 -14
t-21.5 -7q-34 0 -92 46.5t-103 107.5t-45 96.5t45 96.5t103 107.5t92 46.5q12 0 21.5 -7t12.5 -14q-76 -101 -102.5 -147z" />
    <glyph glyph-name="logicalnot" unicode="&#xac;" horiz-adv-x="844" 
d="M751 400v-90q0 -54 33 -71q-38 -43 -90.5 -43t-76 29t-23.5 89v45q0 18 -8 24.5t-28 6.5h-502q-8 19 -8 36q0 78 110 78h465q71 0 99.5 -24t28.5 -80z" />
    <glyph glyph-name="registered" unicode="&#xae;" horiz-adv-x="680" 
d="M304 664v-105h25q63 0 63 52.5t-63 52.5h-25zM491 410q-15 -30 -53 -30t-65 45l-52 85h-19v-78q0 -23 15 -32q-18 -20 -45 -20q-46 0 -46 54v230q0 22 -15 31q17 19 40 19h91q53 0 92 -27.5t39 -75.5q0 -67 -70 -91l51 -76q10 -14 37 -34zM340 307q105 0 168.5 68.5
t63.5 169t-63 168.5t-168 68t-169 -68.5t-64 -168.5t63.5 -168.5t168.5 -68.5zM340 824q123 0 201.5 -77.5t78.5 -202.5t-78.5 -202.5t-201.5 -77.5t-201.5 77.5t-78.5 202.5t78.5 202.5t201.5 77.5z" />
    <glyph glyph-name="macron" unicode="&#xaf;" horiz-adv-x="422" 
d="M88 694h314q8 -10 8 -30t-20.5 -35t-54.5 -15h-315q-8 13 -8 31.5t21 33.5t55 15z" />
    <glyph glyph-name="degree" unicode="&#xb0;" horiz-adv-x="1000" 
d="M263 896q82 0 133.5 -48.5t51.5 -127.5t-52 -128.5t-133 -49.5t-133 49.5t-52 128.5t51.5 127.5t133.5 48.5zM209.5 663q19.5 -22 53 -22t53.5 22t20 57.5t-20 57t-53.5 21.5t-53 -22t-19.5 -57t19.5 -57z" />
    <glyph glyph-name="plusminus" unicode="&#xb1;" horiz-adv-x="726" 
d="M301 547l-5 96v4q0 126 98 126q18 0 36 -9l-4 -217l244 4q6 -14 6 -31q0 -101 -131 -101q-9 0 -119 3q4 -86 4 -93q0 -55 -23 -93.5t-78 -38.5q-22 0 -28 6l4 219l-245 -3q-8 14 -8 36q0 96 129 96q10 0 120 -4zM180 157h504q6 -11 6 -35.5t-11.5 -45t-26 -30.5
t-38.5 -16q-28 -6 -68 -6h-502q-8 19 -8 39t7 37.5t21.5 27.5t27.5 16.5t32 9.5q28 3 56 3z" />
    <glyph glyph-name="twosuperior" unicode="&#xb2;" horiz-adv-x="434" 
d="M283 313h-177q-40 0 -58 21q-12 13 -12 27.5t5 28.5q154 86 194 158q19 34 19 69q0 73 -57 73q-19 0 -29 -10.5t-10 -24.5q0 -27 39 -39q-20 -35 -73 -35q-32 0 -56 16t-24 46q0 43 49.5 73t117.5 30t112 -37.5t44 -96t-59 -118.5t-171 -102q81 10 144 10q105 0 105 -58
q0 -18 -15 -39q-33 8 -88 8z" />
    <glyph glyph-name="threesuperior" unicode="&#xb3;" horiz-adv-x="382" 
d="M331 653q0 -29 -21.5 -51.5t-55.5 -32.5q42 -13 70 -45t28 -73q0 -53 -61.5 -98.5t-121 -45.5t-99.5 24t-40 58t21.5 56.5t33.5 22.5q27 -71 103 -71q32 0 51 13.5t19 36.5t-28.5 43.5t-85.5 20.5q-15 0 -29 -2q-8 7 -8 19.5t17 24.5t37.5 20t37.5 22.5t17 33.5t-18 30.5
t-49.5 11.5t-63.5 -22q-21 6 -21 33.5t37 45.5t96.5 18t96.5 -25.5t37 -67.5z" />
    <glyph glyph-name="acute" unicode="&#xb4;" horiz-adv-x="276" 
d="M264 595q-13 -25 -39.5 -25t-45.5 17l-81 62q-27 21 -45 21t-29 -4q-13 24 -13 44.5t9 37.5q19 37 60.5 37t69.5 -21.5t59 -74.5z" />
    <glyph glyph-name="uni00B5" unicode="&#xb5;" horiz-adv-x="636" 
d="M564 415v-312q0 -54 32 -71q-36 -43 -91 -43q-82 0 -95 81q-50 -81 -130 -81q-22 0 -45 7v-76q0 -54 33 -71q-38 -43 -90.5 -43t-76 29t-23.5 89v497q0 52 -34 70q38 43 90.5 43t76.5 -29t24 -90v-230q0 -77 78 -77q67 0 94 76v237q0 52 -34 70q38 43 90.5 43t76.5 -29
t24 -90z" />
    <glyph glyph-name="paragraph" unicode="&#xb6;" horiz-adv-x="720" 
d="M253 736h348q-18 -59 -18 -152v-584q-17 -6 -38.5 -6t-39.5 17t-18 54v491q0 38 7 92h-55q-43 0 -43 -48v-600q-16 -6 -38.5 -6t-40 17t-17.5 54v211h-47q-97 0 -151 65t-54 165t54 165t151 65z" />
    <glyph glyph-name="periodcentered" unicode="&#xb7;" horiz-adv-x="391" 
d="M273 456q22 -23 22 -62.5t-33.5 -73t-73 -33.5t-62.5 23t-23 62t34.5 73t74 34t61.5 -23z" />
    <glyph glyph-name="cedilla" unicode="&#xb8;" horiz-adv-x="389" 
d="M238 -62q127 0 127 -92q0 -48 -53 -80t-129 -32t-123 27.5t-47 63.5q0 25 22 38q19 -30 54.5 -45.5t70.5 -15.5q73 0 73 44.5t-63 44.5h-18q-25 0 -25 18q0 8 4 19l32 82h101l-27 -72h1z" />
    <glyph glyph-name="onesuperior" unicode="&#xb9;" horiz-adv-x="251" 
d="M194 684v-311q0 -33 21 -41q-25 -25 -59 -25q-65 0 -65 69v283q0 18 -17.5 18t-35.5 -13q-14 5 -14 23.5t30 38.5t68 20q72 0 72 -62z" />
    <glyph glyph-name="ordmasculine" unicode="&#xba;" horiz-adv-x="406" 
d="M257 563q0 129 -61 129q-47 0 -47 -81q0 -11 1 -23q7 -104 60 -104q47 0 47 79zM203 746q75 0 121 -41t46 -117t-46 -116.5t-121 -40.5t-121 40.5t-46 116.5t46 117t121 41z" />
    <glyph glyph-name="guillemotright" unicode="&#xbb;" horiz-adv-x="586" 
d="M504.5 501q45.5 -61 45.5 -96.5t-45.5 -96.5t-103.5 -107.5t-91 -46.5q-12 0 -22 7.5t-12 13.5q74 98 101 145.5t27 84t-26.5 83t-101.5 146.5q2 6 12 13.5t22 7.5q33 0 91 -46.5t103.5 -107.5zM264.5 501q45.5 -61 45.5 -96.5t-45.5 -96.5t-103.5 -107.5t-91 -46.5
q-12 0 -22 7.5t-12 13.5q74 98 101 145.5t27 84t-26.5 83t-101.5 146.5q2 6 12 13.5t22 7.5q33 0 91 -46.5t103.5 -107.5z" />
    <glyph glyph-name="onequarter" unicode="&#xbc;" horiz-adv-x="689" 
d="M97 376v283q0 18 -17.5 18t-35.5 -13q-14 5 -14 23.5t30 38.5t68 20q72 0 72 -62v-311q0 -33 21 -41q-25 -25 -59 -25q-65 0 -65 69zM515 710q22 36 42.5 36t35.5 -21q-10 -5 -25 -35l-417 -660q-5 -9 -13.5 -20t-11.5 -13q-8 -5 -17 -5q-23 0 -36 22q10 8 25 34z
M432 166h71v146q0 10 -7 10q-14 0 -51 -57.5t-37 -85.5q0 -13 24 -13zM622 103h-14v-43q0 -33 21 -41q-25 -25 -59 -25q-67 0 -67 68v41h-119q-59 0 -59 45q0 32 37 100t92 126.5t96 58.5q58 0 58 -69v-198h21q32 0 45 10q12 -12 12 -29t-17.5 -30.5t-46.5 -13.5z" />
    <glyph glyph-name="onehalf" unicode="&#xbd;" horiz-adv-x="770" 
d="M97 376v283q0 18 -17.5 18t-35.5 -13q-14 5 -14 23.5t30 38.5t68 20q72 0 72 -62v-311q0 -33 21 -41q-25 -25 -59 -25q-65 0 -65 69zM515 710q22 36 42.5 36t35.5 -21q-10 -5 -25 -35l-417 -660q-5 -9 -13.5 -20t-11.5 -13q-8 -5 -17 -5q-23 0 -36 22q10 8 25 34zM643 0
h-177q-40 0 -58 21q-12 13 -12 27.5t5 28.5q152 83 194 158q19 34 19 69q0 73 -57 73q-19 0 -29 -10.5t-10 -24.5q0 -26 39 -40q-20 -34 -73 -34q-32 0 -56 16t-24 46q0 43 49.5 73t117.5 30t112 -37.5t44 -95.5t-58 -117.5t-169 -103.5q80 10 141 10q105 0 105 -58
q0 -20 -15 -39q-33 8 -88 8z" />
    <glyph glyph-name="threequarters" unicode="&#xbe;" horiz-adv-x="731" 
d="M352 451q0 -53 -61.5 -98.5t-121 -45.5t-99.5 24t-40 58t21.5 56.5t33.5 22.5q27 -71 103 -71q32 0 51 13.5t19 36.5t-28.5 43.5t-85.5 20.5q-15 0 -29 -2q-8 7 -8 19.5t17 24.5t37.5 20t37.5 22.5t17 33.5t-18 30.5t-49.5 11.5t-63.5 -22q-21 6 -21 33.5t37 45.5
t96.5 18t96.5 -25.5t37 -67.5q0 -29 -21.5 -51.5t-55.5 -32.5q42 -13 70 -45t28 -73zM595 708q26 38 51.5 38t37.5 -25q-19 -6 -36 -31l-451 -660q-26 -38 -51.5 -38t-37.5 25q19 6 36 31zM479 166h71v146q0 10 -8 10q-14 0 -50.5 -57.5t-36.5 -85.5q0 -13 24 -13zM668 103
h-13v-43q0 -33 21 -41q-25 -25 -59 -25q-67 0 -67 68v41h-119q-59 0 -59 45q0 32 37 100t91.5 126.5t95.5 58.5q59 0 59 -69v-198h21q32 0 45 10q12 -12 12 -29t-18 -30.5t-47 -13.5z" />
    <glyph glyph-name="questiondown" unicode="&#xbf;" horiz-adv-x="587" 
d="M238.5 140q18.5 26 18.5 47t-14.5 37t-38.5 21q3 28 25.5 45.5t61 17.5t69 -29t30.5 -79q0 -58 -54 -114q-22 -23 -44 -48q-54 -61 -54 -135q0 -41 25 -65.5t62 -24.5q72 0 72 57q0 24 -15.5 43t-37.5 27q0 14 31.5 39.5t76 25.5t74.5 -31t30 -77q0 -73 -73.5 -118
t-172 -45t-165.5 45.5t-67 120.5t64 138q26 27 52 51.5t44.5 50.5zM224.5 378q-22.5 20 -22.5 55t33.5 65t73 30t62.5 -20.5t23 -55t-34.5 -64.5t-73.5 -30t-61.5 20z" />
    <glyph glyph-name="Agrave" unicode="&#xc0;" horiz-adv-x="742" 
d="M329 808l55 94q31 53 59 74.5t69.5 21.5t60.5 -38q9 -17 9 -37t-13 -44q-11 4 -29 4t-45 -21l-81 -62q-19 -17 -45.5 -17t-39.5 25zM288 236h156l-73 257zM681.5 4.5q-28.5 -15.5 -67.5 -15.5t-64 19.5t-45 69.5l-24 62h-227l-25 -70q-28 -81 -95 -81q-32 0 -60.5 14.5
t-37.5 36.5q17 7 28.5 23.5t25.5 51.5l205 529q-18 39 -39 54q31 48 96 48q50 0 73 -27t49 -97l179 -484q26 -71 69 -92q-12 -26 -40.5 -41.5z" />
    <glyph glyph-name="Aacute" unicode="&#xc1;" horiz-adv-x="742" 
d="M449 808q-13 -25 -39.5 -25t-45.5 17l-81 62q-27 21 -45 21t-29 -4q-13 24 -13 44t9 37q19 38 60.5 38t69.5 -21.5t59 -74.5zM288 236h156l-73 257zM681.5 4.5q-28.5 -15.5 -67.5 -15.5t-64 19.5t-45 69.5l-24 62h-227l-25 -70q-28 -81 -95 -81q-32 0 -60.5 14.5
t-37.5 36.5q17 7 28.5 23.5t25.5 51.5l205 529q-18 39 -39 54q31 48 96 48q50 0 73 -27t49 -97l179 -484q26 -71 69 -92q-12 -26 -40.5 -41.5z" />
    <glyph glyph-name="Acircumflex" unicode="&#xc2;" horiz-adv-x="742" 
d="M276 800q-18 -17 -45.5 -17t-39.5 25l73 107q28 39 49.5 56.5t57.5 17.5t57.5 -17.5t49.5 -56.5l73 -107q-12 -25 -39.5 -25t-45.5 17l-95 82zM288 236h156l-73 257zM681.5 4.5q-28.5 -15.5 -67.5 -15.5t-64 19.5t-45 69.5l-24 62h-227l-25 -70q-28 -81 -95 -81
q-32 0 -60.5 14.5t-37.5 36.5q17 7 28.5 23.5t25.5 51.5l205 529q-18 39 -39 54q31 48 96 48q50 0 73 -27t49 -97l179 -484q26 -71 69 -92q-12 -26 -40.5 -41.5z" />
    <glyph glyph-name="Atilde" unicode="&#xc3;" horiz-adv-x="742" 
d="M235 813q-18 0 -32 14t-14 44q0 46 35 78t79 32t92 -28t72.5 -28t41 15t16.5 43q21 -1 33.5 -17t12.5 -40q0 -48 -36.5 -79.5t-80 -31.5t-95.5 28.5t-72 28.5t-36 -15.5t-16 -43.5zM288 236h156l-73 257zM681.5 4.5q-28.5 -15.5 -67.5 -15.5t-64 19.5t-45 69.5l-24 62
h-227l-25 -70q-28 -81 -95 -81q-32 0 -60.5 14.5t-37.5 36.5q17 7 28.5 23.5t25.5 51.5l205 529q-18 39 -39 54q31 48 96 48q50 0 73 -27t49 -97l179 -484q26 -71 69 -92q-12 -26 -40.5 -41.5z" />
    <glyph glyph-name="Adieresis" unicode="&#xc4;" horiz-adv-x="742" 
d="M527 831q-29 -29 -63.5 -29t-54 20t-19.5 53.5t30 63t63.5 29.5t53 -20t19.5 -54t-29 -63zM323 831q-29 -29 -63.5 -29t-54 20t-19.5 53.5t30 63t63.5 29.5t53 -20t19.5 -54t-29 -63zM288 236h156l-73 257zM681.5 4.5q-28.5 -15.5 -67.5 -15.5t-64 19.5t-45 69.5l-24 62
h-227l-25 -70q-28 -81 -95 -81q-32 0 -60.5 14.5t-37.5 36.5q17 7 28.5 23.5t25.5 51.5l205 529q-18 39 -39 54q31 48 96 48q50 0 73 -27t49 -97l179 -484q26 -71 69 -92q-12 -26 -40.5 -41.5z" />
    <glyph glyph-name="Aring" unicode="&#xc5;" horiz-adv-x="742" 
d="M329 908q0 -72 48 -72q35 0 35 47v10q-6 58 -47 58q-36 0 -36 -43zM371 799q-49 0 -81.5 24.5t-32.5 70t32.5 70t81.5 24.5t81.5 -24.5t32.5 -70t-32.5 -70t-81.5 -24.5zM288 236h156l-73 257zM681.5 4.5q-28.5 -15.5 -67.5 -15.5t-64 19.5t-45 69.5l-24 62h-227l-25 -70
q-28 -81 -95 -81q-32 0 -60.5 14.5t-37.5 36.5q17 7 28.5 23.5t25.5 51.5l205 529q-18 39 -39 54q31 48 96 48q50 0 73 -27t49 -97l179 -484q26 -71 69 -92q-12 -26 -40.5 -41.5z" />
    <glyph glyph-name="AE" unicode="&#xc6;" horiz-adv-x="1075" 
d="M476 293v313l-151 -313h151zM680 128h177q71 0 126 40q32 -27 32 -71t-32 -70.5t-96 -26.5h-226q-185 0 -185 145v19h-213l-43 -90q-39 -80 -104 -80q-33 0 -62 15t-42 38q18 9 30 23.5t30 49.5l263 514q28 55 63 78.5t98 23.5h372q79 0 113 -20.5t34 -60.5t-32 -67
q-47 19 -126 19h-223v-150h138q80 0 113.5 -17t33.5 -57.5t-32 -65.5q-36 12 -126 12h-127v-156q0 -45 46 -45z" />
    <glyph glyph-name="Ccedilla" unicode="&#xc7;" horiz-adv-x="738" 
d="M62 361q0 175 95 280t258 105q105 0 180 -42.5t75 -104.5q0 -45 -32 -66.5t-77 -21.5t-79 21q4 20 4 45.5t-14 47.5q-22 33 -71 33q-72 0 -123 -74.5t-51 -207t55.5 -189.5t153.5 -57q60 0 114.5 28.5t86.5 67.5q35 -15 35 -62q0 -58 -76.5 -114t-184.5 -61l-19 -51h1
q127 0 127 -92q0 -48 -53 -80t-129 -32t-123 27.5t-47 63.5q0 25 22 38q19 -30 54.5 -45.5t71.5 -15.5q72 0 72 44.5t-63 44.5h-18q-25 0 -25 18q0 8 4 19l27 69q-120 24 -185.5 118t-65.5 246z" />
    <glyph glyph-name="Egrave" unicode="&#xc8;" horiz-adv-x="716" 
d="M341 808l55 94q31 53 59 74.5t69.5 21.5t60.5 -38q9 -17 9 -37t-13 -44q-11 4 -29 4t-45 -21l-81 -62q-19 -17 -45.5 -17t-39.5 25zM337 128h161q71 0 126 40q32 -27 32 -71t-32 -70.5t-96 -26.5h-217q-100 0 -146.5 43t-46.5 136v444q0 51 -34 69q37 44 91 44h334
q79 0 113 -20.5t34 -60.5t-32 -67q-48 19 -126 19h-223v-150h138q80 0 113.5 -17t33.5 -57.5t-32 -65.5q-36 12 -126 12h-127v-130q0 -71 62 -71z" />
    <glyph glyph-name="Eacute" unicode="&#xc9;" horiz-adv-x="716" 
d="M461 808q-13 -25 -39.5 -25t-45.5 17l-81 62q-27 21 -45 21t-29 -4q-13 24 -13 44t9 37q19 38 60.5 38t69.5 -21.5t59 -74.5zM337 128h161q71 0 126 40q32 -27 32 -71t-32 -70.5t-96 -26.5h-217q-100 0 -146.5 43t-46.5 136v444q0 51 -34 69q37 44 91 44h334
q79 0 113 -20.5t34 -60.5t-32 -67q-48 19 -126 19h-223v-150h138q80 0 113.5 -17t33.5 -57.5t-32 -65.5q-36 12 -126 12h-127v-130q0 -71 62 -71z" />
    <glyph glyph-name="Ecircumflex" unicode="&#xca;" horiz-adv-x="716" 
d="M288 800q-18 -17 -45.5 -17t-39.5 25l73 107q28 39 49.5 56.5t57.5 17.5t57.5 -17.5t49.5 -56.5l73 -107q-12 -25 -39.5 -25t-45.5 17l-95 82zM337 128h161q71 0 126 40q32 -27 32 -71t-32 -70.5t-96 -26.5h-217q-100 0 -146.5 43t-46.5 136v444q0 51 -34 69q37 44 91 44
h334q79 0 113 -20.5t34 -60.5t-32 -67q-48 19 -126 19h-223v-150h138q80 0 113.5 -17t33.5 -57.5t-32 -65.5q-36 12 -126 12h-127v-130q0 -71 62 -71z" />
    <glyph glyph-name="Edieresis" unicode="&#xcb;" horiz-adv-x="716" 
d="M539 831q-29 -29 -63.5 -29t-54 20t-19.5 53.5t30 63t63.5 29.5t53 -20t19.5 -54t-29 -63zM335 831q-29 -29 -63.5 -29t-54 20t-19.5 53.5t30 63t63.5 29.5t53 -20t19.5 -54t-29 -63zM337 128h161q71 0 126 40q32 -27 32 -71t-32 -70.5t-96 -26.5h-217q-100 0 -146.5 43
t-46.5 136v444q0 51 -34 69q37 44 91 44h334q79 0 113 -20.5t34 -60.5t-32 -67q-48 19 -126 19h-223v-150h138q80 0 113.5 -17t33.5 -57.5t-32 -65.5q-36 12 -126 12h-127v-130q0 -71 62 -71z" />
    <glyph glyph-name="Igrave" unicode="&#xcc;" horiz-adv-x="377" 
d="M260 976.5q28 21.5 69.5 21.5t60.5 -38q9 -17 9 -37t-13 -44q-11 4 -29 4t-45 -21l-81 -62q-19 -17 -43 -17q-29 0 -42 25l55 94q31 53 59 74.5zM268 628v-525q0 -54 32 -71q-38 -43 -90 -43t-76 29t-24 90v526q0 52 -33 69q36 43 91 43q100 0 100 -118z" />
    <glyph glyph-name="Iacute" unicode="&#xcd;" horiz-adv-x="377" 
d="M266 808q-13 -25 -39.5 -25t-45.5 17l-81 62q-27 21 -45 21t-29 -4q-13 24 -13 44t9 37q19 38 60.5 38t69.5 -21.5t59 -74.5zM268 628v-525q0 -54 32 -71q-38 -43 -90 -43t-76 29t-24 90v526q0 52 -33 69q36 43 91 43q100 0 100 -118z" />
    <glyph glyph-name="Icircumflex" unicode="&#xce;" horiz-adv-x="377" 
d="M268 628v-525q0 -54 32 -71q-38 -43 -90 -43t-76 29t-24 90v526q0 52 -33 69q36 43 91 43q100 0 100 -118zM368 808q-12 -25 -39.5 -25t-45.5 17l-95 82l-95 -82q-18 -17 -45.5 -17t-39.5 25l73 107q28 39 49.5 56.5t57.5 17.5t57.5 -17.5t49.5 -56.5z" />
    <glyph glyph-name="Idieresis" unicode="&#xcf;" horiz-adv-x="377" 
d="M353.5 948q19.5 -20 19.5 -54t-29.5 -63t-63.5 -29t-53.5 20t-19.5 53.5t30 63t63.5 29.5t53 -20zM149.5 948q19.5 -20 19.5 -54t-29.5 -63t-63.5 -29t-53.5 20t-19.5 53.5t30 63t63.5 29.5t53 -20zM268 628v-525q0 -54 32 -71q-38 -43 -90 -43t-76 29t-24 90v526
q0 52 -33 69q36 43 91 43q100 0 100 -118z" />
    <glyph glyph-name="Eth" unicode="&#xd0;" horiz-adv-x="839" 
d="M262 329v-171q0 -62 99.5 -62t160 74t60.5 197t-60.5 198t-165.5 75q-46 0 -94 -18v-212h180q4 -4 4 -18q0 -63 -90 -63h-94zM104 410v174q0 69 -27 110q143 52 279 52q173 0 280.5 -100t107.5 -278.5t-107.5 -278.5t-280.5 -100q-130 0 -191 42.5t-61 137.5v160h-104
q-5 7 -5 21q0 60 90 60h19z" />
    <glyph glyph-name="Ntilde" unicode="&#xd1;" horiz-adv-x="856" 
d="M452 953q48 -28 72.5 -28t41 15t16.5 43q21 -1 33.5 -17t12.5 -40q0 -48 -36.5 -79.5t-80 -31.5t-95.5 28.5t-72 28.5t-36 -15.5t-16 -43.5q-18 0 -32 14t-14 44q0 46 35 78t79 32t92 -28zM110 108v526q0 52 -33 69q36 43 108 43q88 0 141 -88l276 -458v434q0 52 -33 69
q36 43 91 43q100 0 100 -118v-525q0 -57 19 -85q-31 -29 -90 -29t-104 35.5t-97 120.5l-220 369v-411q0 -54 32 -71q-38 -43 -90 -43t-76 29t-24 90z" />
    <glyph glyph-name="Ograve" unicode="&#xd2;" horiz-adv-x="794" 
d="M469 976.5q28 21.5 69.5 21.5t60.5 -38q9 -17 9 -37t-13 -44q-11 4 -29 4t-45 -21l-81 -62q-19 -17 -43 -17q-29 0 -42 25l55 94q31 53 59 74.5zM414 88q88 0 124 78q28 63 28 158q0 21 -1 44q-7 126 -52 203t-133 77q-152 0 -152 -239q0 -201 86 -282q41 -39 100 -39z
M709.5 516.5q18.5 -66.5 18.5 -148t-18.5 -148.5t-56.5 -120t-103.5 -82t-152.5 -29q-166 0 -248.5 105.5t-82.5 273.5t82.5 273t248.5 105q88 0 153 -29t103 -81.5t56.5 -119z" />
    <glyph glyph-name="Oacute" unicode="&#xd3;" horiz-adv-x="794" 
d="M414 88q88 0 124 78q28 63 28 158q0 21 -1 44q-7 126 -52 203t-133 77q-152 0 -152 -239q0 -201 86 -282q41 -39 100 -39zM709.5 516.5q18.5 -66.5 18.5 -148t-18.5 -148.5t-56.5 -120t-103.5 -82t-152.5 -29q-166 0 -248.5 105.5t-82.5 273.5t82.5 273t248.5 105
q88 0 153 -29t103 -81.5t56.5 -119zM475 808q-13 -25 -39.5 -25t-45.5 17l-81 62q-27 21 -45 21t-29 -4q-13 24 -13 44t9 37q19 38 60.5 38t69.5 -21.5t59 -74.5z" />
    <glyph glyph-name="Ocircumflex" unicode="&#xd4;" horiz-adv-x="794" 
d="M302 800q-18 -17 -45.5 -17t-39.5 25l73 107q28 39 49.5 56.5t57.5 17.5t57.5 -17.5t49.5 -56.5l73 -107q-12 -25 -39.5 -25t-45.5 17l-95 82zM414 88q88 0 124 78q28 63 28 158q0 21 -1 44q-7 126 -52 203t-133 77q-152 0 -152 -239q0 -201 86 -282q41 -39 100 -39z
M397 746q88 0 153 -29t103 -81q75 -104 75 -268q0 -163 -75 -268q-38 -53 -103.5 -82t-152.5 -29q-166 0 -248.5 105.5t-82.5 273.5t82.5 273t248.5 105z" />
    <glyph glyph-name="Otilde" unicode="&#xd5;" horiz-adv-x="794" 
d="M421 953q48 -28 72.5 -28t41 15t16.5 43q21 -1 33.5 -17t12.5 -40q0 -48 -36.5 -79.5t-80 -31.5t-95.5 28.5t-72 28.5t-36 -15.5t-16 -43.5q-18 0 -32 14t-14 44q0 46 35 78t79 32t92 -28zM414 88q88 0 124 78q28 63 28 158q0 21 -1 44q-7 126 -52 203t-133 77
q-152 0 -152 -239q0 -201 86 -282q41 -39 100 -39zM709.5 516.5q18.5 -66.5 18.5 -148t-18.5 -148.5t-56.5 -120t-103.5 -82t-152.5 -29q-166 0 -248.5 105.5t-82.5 273.5t82.5 273t248.5 105q88 0 153 -29t103 -81.5t56.5 -119z" />
    <glyph glyph-name="Odieresis" unicode="&#xd6;" horiz-adv-x="794" 
d="M414 88q88 0 124 78q28 63 28 158q0 21 -1 44q-7 126 -52 203t-133 77q-152 0 -152 -239q0 -201 86 -282q41 -39 100 -39zM709.5 516.5q18.5 -66.5 18.5 -148t-18.5 -148.5t-56.5 -120t-103.5 -82t-152.5 -29q-166 0 -248.5 105.5t-82.5 273.5t82.5 273t248.5 105
q88 0 153 -29t103 -81.5t56.5 -119zM562.5 948q19.5 -20 19.5 -54t-29 -63t-63.5 -29t-54 20t-19.5 53.5t30 63t63.5 29.5t53 -20zM358.5 948q19.5 -20 19.5 -54t-29 -63t-63.5 -29t-54 20t-19.5 53.5t30 63t63.5 29.5t53 -20z" />
    <glyph glyph-name="multiply" unicode="&#xd7;" horiz-adv-x="766" 
d="M595 128q-51 0 -109 70l-121 140l-147 -169q-36 -42 -67.5 -42t-47.5 33l209 240l-226 260q13 26 36.5 40t45.5 14q49 0 110 -70l123 -141l147 169q1 1 5 5.5t6 6.5t7 6.5t8 7.5t8.5 6.5t9.5 5.5q12 4 21 4q35 0 51 -31l-210 -243l225 -260q-12 -25 -37.5 -38.5
t-46.5 -13.5z" />
    <glyph glyph-name="Oslash" unicode="&#xd8;" horiz-adv-x="832" 
d="M280 169q49 -80 135.5 -80t122.5 77q28 64 28 159q0 79 -13 138zM379 649q-87 0 -122 -77q-29 -64 -29 -162q0 -102 24 -177l280 301q-48 115 -153 115zM761 746q33 0 39 -33q-29 -17 -74 -64l-48 -51q50 -91 50 -229q0 -163 -75 -268q-38 -53 -103.5 -82t-152.5 -29
q-133 0 -216 72l-29 -31q-38 -42 -70 -42q-14 0 -25 9t-15 25q28 15 74 63l22 23q-72 100 -72 264t82.5 269t245 105t247.5 -96l49 53q38 42 71 42z" />
    <glyph glyph-name="Ugrave" unicode="&#xd9;" horiz-adv-x="757" 
d="M463 976.5q28 21.5 69.5 21.5t60.5 -38q9 -17 9 -37t-13 -44q-11 4 -29 4t-45 -21l-81 -62q-19 -17 -43 -17q-29 0 -42 25l55 94q31 53 59 74.5zM94 263v371q0 51 -34 69q38 43 90.5 43t76.5 -29t24 -89v-388q0 -66 40 -100t104.5 -34t104.5 34t40 100v394q0 51 -34 69
q38 43 92 43q99 0 99 -118v-365q0 -129 -74.5 -201.5t-227.5 -72.5t-227 72.5t-74 201.5z" />
    <glyph glyph-name="Uacute" unicode="&#xda;" horiz-adv-x="757" 
d="M94 263v371q0 51 -34 69q38 43 90.5 43t76.5 -29t24 -89v-388q0 -66 40 -100t104.5 -34t104.5 34t40 100v394q0 51 -34 69q38 43 92 43q99 0 99 -118v-365q0 -129 -74.5 -201.5t-227.5 -72.5t-227 72.5t-74 201.5zM469 808q-13 -25 -39.5 -25t-45.5 17l-81 62
q-27 21 -45 21t-29 -4q-13 24 -13 44t9 37q19 38 60.5 38t69.5 -21.5t59 -74.5z" />
    <glyph glyph-name="Ucircumflex" unicode="&#xdb;" horiz-adv-x="757" 
d="M296 800q-18 -17 -45.5 -17t-39.5 25l73 107q28 39 49.5 56.5t57.5 17.5t57.5 -17.5t49.5 -56.5l73 -107q-12 -25 -39.5 -25t-45.5 17l-95 82zM540 240v394q0 51 -34 69q38 43 92 43q99 0 99 -118v-365q0 -129 -74.5 -201.5t-227.5 -72.5t-227 72.5t-74 201.5v371
q0 51 -34 69q38 43 90.5 43t76.5 -29t24 -89v-388q0 -66 40 -100t104.5 -34t104.5 34t40 100z" />
    <glyph glyph-name="Udieresis" unicode="&#xdc;" horiz-adv-x="757" 
d="M94 263v371q0 51 -34 69q38 43 90.5 43t76.5 -29t24 -89v-388q0 -66 40 -100t104.5 -34t104.5 34t40 100v394q0 51 -34 69q38 43 92 43q99 0 99 -118v-365q0 -129 -74.5 -201.5t-227.5 -72.5t-227 72.5t-74 201.5zM556.5 948q19.5 -20 19.5 -54t-29 -63t-63.5 -29t-54 20
t-19.5 53.5t30 63t63.5 29.5t53 -20zM352.5 948q19.5 -20 19.5 -54t-29 -63t-63.5 -29t-54 20t-19.5 53.5t30 63t63.5 29.5t53 -20z" />
    <glyph glyph-name="Yacute" unicode="&#xdd;" horiz-adv-x="655" 
d="M406 808q-13 -25 -39.5 -25t-45.5 17l-81 62q-27 21 -45 21t-29 -4q-13 24 -13 44t9 37q19 38 60.5 38t69.5 -21.5t59 -74.5zM425 10q-37 -17 -80.5 -17t-68 30t-24.5 89l1 207l-185 304q-25 40 -62 43q26 80 101 80q38 0 65.5 -24.5t56.5 -72.5l115 -189l112 145
q26 34 26 63t-24 54q48 24 90.5 24t70.5 -22t28 -62t-37 -86l-201 -256l-1 -225q0 -54 17 -85z" />
    <glyph glyph-name="Thorn" unicode="&#xde;" horiz-adv-x="679" 
d="M268 297q48 -19 105.5 -19t96 33t38.5 90t-38 89.5t-96 32.5t-106 -19v-207zM268 628v-30q58 26 139 26q109 0 184.5 -62t75.5 -161t-75.5 -161t-184.5 -62q-81 0 -139 26v-101q0 -54 32 -71q-38 -43 -90 -43t-76 29t-24 90v526q0 52 -33 69q36 43 91 43q100 0 100 -118z
" />
    <glyph glyph-name="germandbls" unicode="&#xdf;" horiz-adv-x="660" 
d="M624 191q0 -87 -53 -144.5t-140 -57.5q-61 0 -92.5 28.5t-31.5 66.5q0 16 6 32q30 -22 69 -22q80 0 80 68q0 31 -12.5 53t-34.5 42t-55 50.5t-49 47.5t-16 27t13.5 24t29 30t29 45t13.5 66.5t-21 60.5t-55 23t-57.5 -24.5t-23.5 -77.5v-426q0 -54 33 -71q-38 -43 -92 -43
q-98 0 -98 119v421q0 96 66.5 147t174.5 51t171.5 -53t63.5 -131t-80 -131l56 -42q106 -77 106 -179z" />
    <glyph glyph-name="agrave" unicode="&#xe0;" horiz-adv-x="569" 
d="M254 595l55 94q31 53 59 74.5t69.5 21.5t60.5 -37q9 -17 9 -37.5t-13 -44.5q-11 4 -29 4t-45 -21l-81 -62q-19 -17 -45.5 -17t-39.5 25zM210 137q0 -49 56 -49q41 0 74 38v97q-130 -7 -130 -86zM497 354v-227q0 -63 54 -80q-18 -25 -48.5 -41.5t-64.5 -16.5q-74 0 -92 66
q-62 -66 -155 -66q-69 0 -110 34t-41 96q0 76 79.5 121.5t220.5 47.5v95q0 67 -54 67q-22 0 -36.5 -13.5t-14.5 -36t16 -41.5q-34 -36 -85.5 -36t-76 23t-24.5 60q0 56 68.5 92t160 36t147.5 -43t56 -137z" />
    <glyph glyph-name="aacute" unicode="&#xe1;" horiz-adv-x="569" 
d="M374 595q-13 -25 -39.5 -25t-45.5 17l-81 62q-27 21 -45 21t-29 -4q-13 24 -13 44.5t9 37.5q19 37 60.5 37t69.5 -21.5t59 -74.5zM210 137q0 -49 56 -49q41 0 74 38v97q-130 -7 -130 -86zM497 354v-227q0 -63 54 -80q-18 -25 -48.5 -41.5t-64.5 -16.5q-74 0 -92 66
q-62 -66 -155 -66q-69 0 -110 34t-41 96q0 76 79.5 121.5t220.5 47.5v95q0 67 -54 67q-22 0 -36.5 -13.5t-14.5 -36t16 -41.5q-34 -36 -85.5 -36t-76 23t-24.5 60q0 56 68.5 92t160 36t147.5 -43t56 -137z" />
    <glyph glyph-name="acircumflex" unicode="&#xe2;" horiz-adv-x="569" 
d="M201 587q-18 -17 -45.5 -17t-39.5 25l73 107q28 39 49.5 56.5t57.5 17.5t57.5 -17.5t49.5 -56.5l73 -107q-12 -25 -39.5 -25t-45.5 17l-95 82zM210 137q0 -49 56 -49q41 0 74 38v97q-130 -7 -130 -86zM497 354v-227q0 -63 54 -80q-18 -25 -48.5 -41.5t-64.5 -16.5
q-74 0 -92 66q-62 -66 -155 -66q-69 0 -110 34t-41 96q0 76 79.5 121.5t220.5 47.5v95q0 67 -54 67q-22 0 -36.5 -13.5t-14.5 -36t16 -41.5q-34 -36 -85.5 -36t-76 23t-24.5 60q0 56 68.5 92t160 36t147.5 -43t56 -137z" />
    <glyph glyph-name="atilde" unicode="&#xe3;" horiz-adv-x="569" 
d="M160 600q-18 0 -32 14t-14 44q0 46 35 78t79 32t92 -28t72.5 -28t41 15t16.5 43q21 -1 33.5 -17t12.5 -40q0 -48 -36.5 -79.5t-80 -31.5t-95.5 28.5t-72 28.5t-36 -15.5t-16 -43.5zM210 137q0 -49 56 -49q41 0 74 38v97q-130 -7 -130 -86zM497 354v-227q0 -63 54 -80
q-18 -25 -48.5 -41.5t-64.5 -16.5q-74 0 -92 66q-62 -66 -155 -66q-69 0 -110 34t-41 96q0 76 79.5 121.5t220.5 47.5v95q0 67 -54 67q-22 0 -36.5 -13.5t-14.5 -36t16 -41.5q-34 -36 -85.5 -36t-76 23t-24.5 60q0 56 68.5 92t160 36t147.5 -43t56 -137z" />
    <glyph glyph-name="adieresis" unicode="&#xe4;" horiz-adv-x="569" 
d="M451.5 618.5q-29.5 -29.5 -63.5 -29.5t-53.5 20t-19.5 53.5t30 63t63.5 29.5t53 -20t19.5 -53.5t-29.5 -63zM247.5 618.5q-29.5 -29.5 -63.5 -29.5t-53.5 20t-19.5 53.5t30 63t63.5 29.5t53 -20t19.5 -53.5t-29.5 -63zM210 137q0 -49 56 -49q41 0 74 38v97
q-130 -7 -130 -86zM497 354v-227q0 -63 54 -80q-18 -25 -48.5 -41.5t-64.5 -16.5q-74 0 -92 66q-62 -66 -155 -66q-69 0 -110 34t-41 96q0 76 79.5 121.5t220.5 47.5v95q0 67 -54 67q-22 0 -36.5 -13.5t-14.5 -36t16 -41.5q-34 -36 -85.5 -36t-76 23t-24.5 60q0 56 68.5 92
t160 36t147.5 -43t56 -137z" />
    <glyph glyph-name="aring" unicode="&#xe5;" horiz-adv-x="569" 
d="M254 695q0 -72 48 -72q35 0 35 47v10q-6 58 -47 58q-36 0 -36 -43zM296 586q-49 0 -81.5 24.5t-32.5 70t32.5 70t81.5 24.5t81.5 -24.5t32.5 -70t-32.5 -70t-81.5 -24.5zM210 137q0 -49 56 -49q41 0 74 38v97q-130 -7 -130 -86zM497 354v-227q0 -63 54 -80
q-18 -25 -48.5 -41.5t-64.5 -16.5q-74 0 -92 66q-62 -66 -155 -66q-69 0 -110 34t-41 96q0 76 79.5 121.5t220.5 47.5v95q0 67 -54 67q-22 0 -36.5 -13.5t-14.5 -36t16 -41.5q-34 -36 -85.5 -36t-76 23t-24.5 60q0 56 68.5 92t160 36t147.5 -43t56 -137z" />
    <glyph glyph-name="ae" unicode="&#xe6;" horiz-adv-x="826" 
d="M210 137q0 -49 53 -49t92 48q-13 39 -15 87q-130 -7 -130 -86zM598 331q36 5 36 39.5t-13.5 57.5t-40 23t-50 -33.5t-31.5 -98.5zM620 98q82 0 140 63q22 -9 22 -42q0 -48 -57 -89t-133 -41q-132 0 -199 79q-74 -79 -179 -79q-80 0 -127 34t-47 96q0 76 79.5 121.5
t220.5 47.5v95q0 67 -54 67q-22 0 -36.5 -13.5t-14.5 -36t16 -41.5q-34 -36 -85.5 -36t-76 23t-24.5 60q0 56 66.5 92t148.5 36q104 0 161 -57q68 57 155 57t143.5 -55.5t56.5 -126.5q0 -55 -26.5 -79t-89.5 -26l-184 -5q7 -144 124 -144z" />
    <glyph glyph-name="ccedilla" unicode="&#xe7;" horiz-adv-x="523" 
d="M48 240q0 119 76 206.5t195 87.5q67 0 117.5 -32.5t50.5 -86.5q0 -37 -23 -57.5t-61 -20.5t-68 23q3 12 3 32t-11.5 36t-31.5 16q-39 0 -67.5 -53t-28.5 -131.5t34.5 -120t90.5 -41.5q83 0 139 63q23 -9 23 -42q0 -50 -54 -89t-129 -41l-19 -51h1q127 0 127 -92
q0 -48 -53 -80t-129 -32t-123 27.5t-47 63.5q0 25 22 38q19 -30 54.5 -45.5t71.5 -15.5q72 0 72 44.5t-63 44.5h-18q-25 0 -25 18q0 8 4 19l28 73q-76 22 -117 84.5t-41 154.5z" />
    <glyph glyph-name="egrave" unicode="&#xe8;" horiz-adv-x="534" 
d="M256 595l55 94q31 53 59 74.5t69.5 21.5t60.5 -37q9 -17 9 -37.5t-13 -44.5q-11 4 -29 4t-45 -21l-81 -62q-19 -17 -45.5 -17t-39.5 25zM339 342.5q9 9.5 9 36.5t-15.5 49.5t-42.5 22.5t-51 -34t-32 -99l105 13q18 2 27 11.5zM329 98q83 0 139 63q23 -10 23 -42
q0 -48 -57 -89t-134 -41q-119 0 -185.5 65t-66.5 186.5t73 207.5t185 86q86 0 142 -55.5t56 -126.5q0 -55 -26 -79t-89 -26l-185 -5q7 -144 125 -144z" />
    <glyph glyph-name="eacute" unicode="&#xe9;" horiz-adv-x="534" 
d="M376 595q-13 -25 -39.5 -25t-45.5 17l-81 62q-27 21 -45 21t-29 -4q-13 24 -13 44.5t9 37.5q19 37 60.5 37t69.5 -21.5t59 -74.5zM339 342.5q9 9.5 9 36.5t-15.5 49.5t-42.5 22.5t-51 -34t-32 -99l105 13q18 2 27 11.5zM329 98q83 0 139 63q23 -10 23 -42q0 -48 -57 -89
t-134 -41q-119 0 -185.5 65t-66.5 186.5t73 207.5t185 86q86 0 142 -55.5t56 -126.5q0 -55 -26 -79t-89 -26l-185 -5q7 -144 125 -144z" />
    <glyph glyph-name="ecircumflex" unicode="&#xea;" horiz-adv-x="534" 
d="M203 587q-18 -17 -45.5 -17t-39.5 25l73 107q28 39 49.5 56.5t57.5 17.5t57.5 -17.5t49.5 -56.5l73 -107q-12 -25 -39.5 -25t-45.5 17l-95 82zM339 342.5q9 9.5 9 36.5t-15.5 49.5t-42.5 22.5t-51 -34t-32 -99l105 13q18 2 27 11.5zM329 98q83 0 139 63q23 -10 23 -42
q0 -48 -57 -89t-134 -41q-119 0 -185.5 65t-66.5 186.5t73 207.5t185 86q86 0 142 -55.5t56 -126.5q0 -55 -26 -79t-89 -26l-185 -5q7 -144 125 -144z" />
    <glyph glyph-name="edieresis" unicode="&#xeb;" horiz-adv-x="534" 
d="M453.5 618.5q-29.5 -29.5 -63.5 -29.5t-53.5 20t-19.5 53.5t30 63t63.5 29.5t53 -20t19.5 -53.5t-29.5 -63zM249.5 618.5q-29.5 -29.5 -63.5 -29.5t-53.5 20t-19.5 53.5t30 63t63.5 29.5t53 -20t19.5 -53.5t-29.5 -63zM339 342.5q9 9.5 9 36.5t-15.5 49.5t-42.5 22.5
t-51 -34t-32 -99l105 13q18 2 27 11.5zM329 98q83 0 139 63q23 -10 23 -42q0 -48 -57 -89t-134 -41q-119 0 -185.5 65t-66.5 186.5t73 207.5t185 86q86 0 142 -55.5t56 -126.5q0 -55 -26 -79t-89 -26l-185 -5q7 -144 125 -144z" />
    <glyph glyph-name="igrave" unicode="&#xec;" horiz-adv-x="307" 
d="M226 763.5q28 21.5 69.5 21.5t60.5 -37q9 -17 9 -37.5t-13 -44.5q-11 4 -29 4t-45 -21l-81 -62q-19 -17 -43 -17q-29 0 -42 25l55 94q31 53 59 74.5zM235 415v-312q0 -54 33 -71q-38 -43 -92 -43q-98 0 -98 119v313q0 52 -34 70q38 43 90.5 43t76.5 -29t24 -90z" />
    <glyph glyph-name="iacute" unicode="&#xed;" horiz-adv-x="307" 
d="M236 415v-312q0 -54 33 -71q-38 -43 -92 -43q-98 0 -98 119v313q0 52 -34 70q38 43 90.5 43t76.5 -29t24 -90zM233 595q-13 -25 -39.5 -25t-45.5 17l-81 62q-27 21 -45 21t-29 -4q-13 24 -13 44.5t9 37.5q19 37 60.5 37t69.5 -21.5t59 -74.5z" />
    <glyph glyph-name="icircumflex" unicode="&#xee;" horiz-adv-x="307" 
d="M235 415v-312q0 -54 33 -71q-38 -43 -92 -43q-98 0 -98 119v313q0 52 -34 70q38 43 90.5 43t76.5 -29t24 -90zM334 595q-12 -25 -39.5 -25t-45.5 17l-95 82l-95 -82q-18 -17 -45.5 -17t-39.5 25l73 107q28 39 49.5 56.5t57.5 17.5t57.5 -17.5t49.5 -56.5z" />
    <glyph glyph-name="idieresis" unicode="&#xef;" horiz-adv-x="307" 
d="M235 415v-312q0 -54 33 -71q-38 -43 -92 -43q-98 0 -98 119v313q0 52 -34 70q38 43 90.5 43t76.5 -29t24 -90zM319.5 735q19.5 -20 19.5 -53.5t-29.5 -63t-63.5 -29.5t-53.5 20t-19.5 53.5t30 63t63.5 29.5t53 -20zM115.5 735q19.5 -20 19.5 -53.5t-29.5 -63t-63.5 -29.5
t-53.5 20t-19.5 53.5t30 63t63.5 29.5t53 -20z" />
    <glyph glyph-name="eth" unicode="&#xf0;" horiz-adv-x="610" 
d="M318 65q86 0 86 151q0 21 -2 46q-14 196 -110 196q-86 0 -86 -150q0 -22 2 -46q12 -197 110 -197zM512 752q13 -10 13 -25t-5.5 -26t-23.5 -21q-26 -15 -68 -26q59 -77 96.5 -177.5t37.5 -191t-24.5 -150t-64.5 -89.5q-76 -57 -168 -57q-115 0 -186 71t-71 202t71 201.5
t186 70.5q34 0 64 -9q-19 50 -49 95l-133 -44q-14 19 -14 32.5t17 30.5t64 32l22 7q-39 42 -71 72q15 30 45 30q57 0 129 -70z" />
    <glyph glyph-name="ntilde" unicode="&#xf1;" horiz-adv-x="636" 
d="M189 600q-18 0 -32 14t-14 44q0 46 35 78t79 32t92 -28t72.5 -28t41 15t16.5 43q21 -1 33.5 -17t12.5 -40q0 -48 -36.5 -79.5t-80 -31.5t-95.5 28.5t-72 28.5t-36 -15.5t-16 -43.5zM564 354v-251q0 -54 32 -71q-36 -43 -91 -43q-98 0 -98 119v223q0 36 -17.5 56.5
t-49.5 20.5t-62 -29.5t-43 -87.5v-188q0 -54 33 -71q-38 -43 -92 -43q-98 0 -98 119v313q0 52 -34 70q38 43 89 43t75 -25.5t27 -78.5q27 51 74.5 77.5t110 26.5t103.5 -46t41 -134z" />
    <glyph glyph-name="ograve" unicode="&#xf2;" horiz-adv-x="610" 
d="M377 763.5q28 21.5 69.5 21.5t60.5 -37q9 -17 9 -37.5t-13 -44.5q-11 4 -29 4t-45 -21l-81 -62q-19 -17 -43 -17q-29 0 -42 25l55 94q31 53 59 74.5zM292 458q-86 0 -86 -150q0 -22 2 -46q12 -197 110 -197q86 0 86 151q0 21 -2 46q-14 196 -110 196zM305 534
q115 0 186 -70.5t71 -201.5t-71.5 -202t-186 -71t-185.5 71t-71 202t71 201.5t186 70.5z" />
    <glyph glyph-name="oacute" unicode="&#xf3;" horiz-adv-x="610" 
d="M292 458q-86 0 -86 -150q0 -22 2 -46q12 -197 110 -197q86 0 86 151q0 21 -2 46q-14 196 -110 196zM305 534q115 0 186 -70.5t71 -201.5t-71.5 -202t-186 -71t-185.5 71t-71 202t71 201.5t186 70.5zM383 595q-13 -25 -39.5 -25t-45.5 17l-81 62q-27 21 -45 21t-29 -4
q-13 24 -13 44.5t9 37.5q19 37 60.5 37t69.5 -21.5t59 -74.5z" />
    <glyph glyph-name="ocircumflex" unicode="&#xf4;" horiz-adv-x="610" 
d="M210 587q-18 -17 -45.5 -17t-39.5 25l73 107q28 39 49.5 56.5t57.5 17.5t57.5 -17.5t49.5 -56.5l73 -107q-12 -25 -39.5 -25t-45.5 17l-95 82zM318 65q86 0 86 151q0 21 -2 46q-14 196 -110 196q-86 0 -86 -150q0 -22 2 -46q12 -197 110 -197zM305 534q115 0 186 -70.5
t71 -201.5t-71.5 -202t-186 -71t-185.5 71t-71 202t71 201.5t186 70.5z" />
    <glyph glyph-name="otilde" unicode="&#xf5;" horiz-adv-x="610" 
d="M329 740q48 -28 72.5 -28t41 15t16.5 43q21 -1 33.5 -17t12.5 -40q0 -48 -36.5 -79.5t-80 -31.5t-95.5 28.5t-72 28.5t-36 -15.5t-16 -43.5q-18 0 -32 14t-14 44q0 46 35 78t79 32t92 -28zM292 458q-86 0 -86 -150q0 -22 2 -46q12 -197 110 -197q86 0 86 151q0 21 -2 46
q-14 196 -110 196zM305 534q115 0 186 -70.5t71 -201.5t-71.5 -202t-186 -71t-185.5 71t-71 202t71 201.5t186 70.5z" />
    <glyph glyph-name="odieresis" unicode="&#xf6;" horiz-adv-x="610" 
d="M292 458q-86 0 -86 -150q0 -22 2 -46q12 -197 110 -197q86 0 86 151q0 21 -2 46q-14 196 -110 196zM305 534q115 0 186 -70.5t71 -201.5t-71.5 -202t-186 -71t-185.5 71t-71 202t71 201.5t186 70.5zM470.5 735q19.5 -20 19.5 -53.5t-29 -63t-63.5 -29.5t-54 20
t-19.5 53.5t30 63t63.5 29.5t53 -20zM266.5 735q19.5 -20 19.5 -53.5t-29 -63t-63.5 -29.5t-54 20t-19.5 53.5t30 63t63.5 29.5t53 -20z" />
    <glyph glyph-name="divide" unicode="&#xf7;" horiz-adv-x="746" 
d="M199 480h487q6 -11 6 -35.5t-12 -45.5t-26.5 -31t-37.5 -16q-28 -6 -69 -6h-485q-8 19 -8 41.5t12 42.5t26.5 29t37.5 15q28 6 69 6zM450.5 265q22.5 -23 22.5 -62t-34 -73t-73.5 -34t-62 23t-22.5 62t34.5 73t73.5 34t61.5 -23zM450.5 709q22.5 -23 22.5 -62t-34 -73
t-73.5 -34t-62 23t-22.5 62t34.5 73t73.5 34t61.5 -23z" />
    <glyph glyph-name="oslash" unicode="&#xf8;" horiz-adv-x="720" 
d="M318 65q86 0 86 151q0 52 -8 99l-164 -181q28 -69 86 -69zM292 458q-86 0 -86 -150q0 -59 8 -103l165 182q-28 71 -87 71zM474 492q38 42 71.5 42t38.5 -30q-34 -19 -74 -64q52 -69 52 -178q0 -131 -71.5 -202t-185.5 -71q-95 0 -160 48l-6 -6q-38 -42 -70.5 -42
t-39.5 30q27 14 72 62q-53 69 -53 190.5t71 192t186 70.5q95 0 162 -50z" />
    <glyph glyph-name="ugrave" unicode="&#xf9;" horiz-adv-x="636" 
d="M276 595l55 94q31 53 59 74.5t69.5 21.5t60.5 -37q9 -17 9 -37.5t-13 -44.5q-11 4 -29 4t-45 -21l-81 -62q-19 -17 -45.5 -17t-39.5 25zM564 415v-312q0 -54 32 -71q-36 -43 -91 -43q-81 0 -95 81q-51 -81 -141.5 -81t-140.5 46t-50 134v252q0 52 -34 70q38 43 90.5 43
t76.5 -29t24 -90v-230q0 -77 78 -77q67 0 94 76v237q0 52 -34 70q38 43 90.5 43t76.5 -29t24 -90z" />
    <glyph glyph-name="uacute" unicode="&#xfa;" horiz-adv-x="636" 
d="M396 595q-13 -25 -39.5 -25t-45.5 17l-81 62q-27 21 -45 21t-29 -4q-13 24 -13 44.5t9 37.5q19 37 60.5 37t69.5 -21.5t59 -74.5zM564 415v-312q0 -54 32 -71q-36 -43 -91 -43q-81 0 -95 81q-51 -81 -141.5 -81t-140.5 46t-50 134v252q0 52 -34 70q38 43 90.5 43
t76.5 -29t24 -90v-230q0 -77 78 -77q67 0 94 76v237q0 52 -34 70q38 43 90.5 43t76.5 -29t24 -90z" />
    <glyph glyph-name="ucircumflex" unicode="&#xfb;" horiz-adv-x="636" 
d="M223 587q-18 -17 -45.5 -17t-39.5 25l73 107q28 39 49.5 56.5t57.5 17.5t57.5 -17.5t49.5 -56.5l73 -107q-12 -25 -39.5 -25t-45.5 17l-95 82zM564 415v-312q0 -54 32 -71q-36 -43 -91 -43q-81 0 -95 81q-51 -81 -141.5 -81t-140.5 46t-50 134v252q0 52 -34 70
q38 43 90.5 43t76.5 -29t24 -90v-230q0 -77 78 -77q67 0 94 76v237q0 52 -34 70q38 43 90.5 43t76.5 -29t24 -90z" />
    <glyph glyph-name="udieresis" unicode="&#xfc;" horiz-adv-x="636" 
d="M473.5 618.5q-29.5 -29.5 -63.5 -29.5t-53.5 20t-19.5 53.5t30 63t63.5 29.5t53 -20t19.5 -53.5t-29.5 -63zM269.5 618.5q-29.5 -29.5 -63.5 -29.5t-53.5 20t-19.5 53.5t30 63t63.5 29.5t53 -20t19.5 -53.5t-29.5 -63zM564 415v-312q0 -54 32 -71q-36 -43 -91 -43
q-81 0 -95 81q-51 -81 -141.5 -81t-140.5 46t-50 134v252q0 52 -34 70q38 43 90.5 43t76.5 -29t24 -90v-230q0 -77 78 -77q67 0 94 76v237q0 52 -34 70q38 43 90.5 43t76.5 -29t24 -90z" />
    <glyph glyph-name="yacute" unicode="&#xfd;" horiz-adv-x="617" 
d="M380 595q-13 -25 -39.5 -25t-45.5 17l-81 62q-27 21 -45 21t-29 -4q-13 24 -13 44.5t9 37.5q19 37 60.5 37t69.5 -21.5t59 -74.5zM448 476q0 24 -11 40q28 18 65 18q53 0 79 -40q13 -20 13 -47t-13 -62l-191 -517q-50 -136 -158 -136q-48 0 -79 25t-31 59.5t18 63.5
q27 -22 52 -22t44.5 14.5t28.5 41.5l26 76h-5q-38 0 -72 29.5t-51 84.5l-95 304q-11 36 -19.5 53.5t-24.5 29.5q45 43 92 43t73 -27t41 -86l92 -338l115 339q11 30 11 54z" />
    <glyph glyph-name="thorn" unicode="&#xfe;" horiz-adv-x="625" 
d="M326 80q40 0 71 51t31 130t-30 122.5t-72 43.5q-27 0 -51.5 -17.5t-39.5 -47.5v-236q37 -46 91 -46zM235 665v-197q53 66 142 66t149 -71.5t60 -199.5t-72 -201t-166 -73q-62 0 -113 35v-176q0 -54 33 -71q-38 -43 -90.5 -43t-76 29t-23.5 89v819q0 51 -34 69
q37 44 92 44q99 0 99 -119z" />
    <glyph glyph-name="ydieresis" unicode="&#xff;" horiz-adv-x="617" 
d="M457.5 618.5q-29.5 -29.5 -63.5 -29.5t-53.5 20t-19.5 53.5t30 63t63.5 29.5t53 -20t19.5 -53.5t-29.5 -63zM253.5 618.5q-29.5 -29.5 -63.5 -29.5t-53.5 20t-19.5 53.5t30 63t63.5 29.5t53 -20t19.5 -53.5t-29.5 -63zM448 476q0 24 -11 40q28 18 65 18q53 0 79 -40
q13 -20 13 -47t-13 -62l-191 -517q-50 -136 -158 -136q-48 0 -79 25t-31 59.5t18 63.5q27 -22 52 -22t44.5 14.5t28.5 41.5l26 76h-5q-38 0 -72 29.5t-51 84.5l-95 304q-11 36 -19.5 53.5t-24.5 29.5q45 43 92 43t73 -27t41 -86l92 -338l115 339q11 30 11 54z" />
    <glyph glyph-name="dotlessi" unicode="&#x131;" horiz-adv-x="307" 
d="M235 415v-312q0 -54 33 -71q-38 -43 -92 -43q-98 0 -98 119v313q0 52 -34 70q38 43 90.5 43t76.5 -29t24 -90z" />
    <glyph glyph-name="Lslash" unicode="&#x141;" horiz-adv-x="590" 
d="M331 116h103q71 0 108 40q24 -17 24 -56.5t-31.5 -69.5t-91.5 -30h-150q-100 0 -141 37t-41 130v178l-76 -37q-1 1 -6 4q-12 7 -16 13q-7 14 -7 25.5t6 21t10.5 16t17 14t15.5 8.5l56 28v196q0 52 -33 69q36 43 91 43q100 0 100 -118v-115l122 58q7 -1 13.5 -15.5
t6.5 -29t-5 -24t-16 -18.5t-17 -12t-17 -9l-87 -42v-234q0 -71 62 -71z" />
    <glyph glyph-name="lslash" unicode="&#x142;" horiz-adv-x="415" 
d="M389 558q6 -1 12.5 -15.5t6.5 -29t-4.5 -24t-15.5 -18.5q-15 -12 -34 -21l-77 -37v-310q0 -54 33 -71q-38 -43 -92 -43q-98 0 -98 119v229l-87 -42q-22 16 -22 17q-7 15 -7 26t6 20.5t10 15.5t17 13.5t15.5 9t14.5 7.5l53 25v242q0 50 -34 71q38 42 92 42q99 0 99 -119
v-161z" />
    <glyph glyph-name="OE" unicode="&#x152;" horiz-adv-x="1139" 
d="M433 637q-92 0 -142.5 -75t-50.5 -184q0 -14 1 -29q17 -251 173 -251q73 0 124 28v488q-44 23 -105 23zM760 128h160q71 0 126 40q33 -26 33 -70.5t-32.5 -71t-96.5 -26.5h-519q-190 0 -277.5 99.5t-87.5 265.5t93 268.5t259 102.5h513q79 0 113.5 -20.5t34.5 -61
t-33 -66.5q-46 19 -126 19h-223v-150h138q81 0 114.5 -17t33.5 -57.5t-33 -65.5q-36 12 -126 12h-127v-130q0 -71 63 -71z" />
    <glyph glyph-name="oe" unicode="&#x153;" horiz-adv-x="892" 
d="M670 331q36 5 36 40t-16 57.5t-43 22.5t-50.5 -34t-31.5 -99zM318 65q86 0 86 151q0 21 -2 46q-14 196 -110 196q-86 0 -86 -150q0 -22 2 -46q12 -197 110 -197zM686 98q82 0 140 63q22 -9 22 -42q0 -48 -57 -89t-133 -41q-113 0 -180 59q-68 -59 -178 -59t-181 71
t-71 202t71 201.5t187.5 70.5t185.5 -72q70 72 172 72q85 0 141.5 -55.5t56.5 -126.5q0 -55 -26.5 -79t-89.5 -26l-184 -5q7 -144 124 -144z" />
    <glyph glyph-name="Scaron" unicode="&#x160;" horiz-adv-x="702" 
d="M352 783q-36 0 -57.5 17.5t-49.5 56.5l-73 107q12 25 40 25t45 -16l95 -82l95 82q17 16 45 16t40 -25l-73 -107q-28 -39 -49.5 -56.5t-57.5 -17.5zM283 629q-35 -20 -35 -53.5t42.5 -62t103 -55t121 -57.5t103 -81t42.5 -112q0 -96 -85.5 -157.5t-207 -61.5t-205.5 45.5
t-84 117.5q0 42 29.5 67t71 25t81.5 -32q-24 -22 -24 -53t36.5 -52t98 -21t97 25t35.5 66.5t-42.5 74t-103 58.5t-121 55t-103 73.5t-42.5 101.5q0 94 82 150t201 56t194 -42t75 -106q0 -37 -23.5 -59.5t-64.5 -22.5t-77 26q8 16 8 41.5t-29.5 45.5t-84 20t-89.5 -20z" />
    <glyph glyph-name="scaron" unicode="&#x161;" horiz-adv-x="526" 
d="M262 570q-36 0 -57.5 17.5t-49.5 56.5l-73 107q12 25 40 25t45 -16l95 -82l95 82q17 16 45 16t40 -25l-73 -107q-28 -39 -49.5 -56.5t-57.5 -17.5zM233.5 439.5q-16.5 -11.5 -16.5 -34.5t29 -43.5t70 -38t82 -38t70 -53.5t29 -75q0 -74 -69 -121t-165.5 -47t-162 36
t-65.5 91q0 33 25 54.5t60 21.5q55 0 78 -34q-17 -14 -17 -37t22 -35.5t58 -12.5t57.5 14.5t21.5 37.5t-29 43t-70 38t-82 39t-70 54.5t-29 74.5q0 65 63 112.5t149.5 47.5t143.5 -32t57 -81q0 -33 -19 -51t-54 -18t-67 24q13 41 -12 62q-16 13 -43.5 13t-44 -11.5z" />
    <glyph glyph-name="Ydieresis" unicode="&#x178;" horiz-adv-x="655" 
d="M483.5 831q-29.5 -29 -63.5 -29t-53.5 20t-19.5 53.5t30 63t63.5 29.5t53 -20t19.5 -54t-29.5 -63zM279.5 831q-29.5 -29 -63.5 -29t-53.5 20t-19.5 53.5t30 63t63.5 29.5t53 -20t19.5 -54t-29.5 -63zM425 10q-37 -17 -80.5 -17t-68 30t-24.5 89l1 207l-185 304
q-25 40 -62 43q26 80 101 80q38 0 65.5 -24.5t56.5 -72.5l115 -189l112 145q26 34 26 63t-24 54q48 24 90.5 24t70.5 -22t28 -62t-37 -86l-201 -256l-1 -225q0 -54 17 -85z" />
    <glyph glyph-name="Zcaron" unicode="&#x17d;" horiz-adv-x="677" 
d="M338 783q-36 0 -57.5 17.5t-49.5 56.5l-73 107q12 25 40 25t45 -16l95 -82l95 82q17 16 45 16t40 -25l-73 -107q-28 -39 -49.5 -56.5t-57.5 -17.5zM638 100q0 -100 -162 -100h-284q-69 0 -115.5 36t-46.5 96q0 39 17 69.5t55 64.5l380 343q-144 -27 -278 -27
q-162 0 -162 100q0 37 24 68q48 -14 133 -14h274q69 0 115.5 -36.5t46.5 -95.5q0 -38 -17 -68.5t-55 -66.5l-383 -346l310 21q76 6 123 30q25 -30 25 -74z" />
    <glyph glyph-name="zcaron" unicode="&#x17e;" horiz-adv-x="500" 
d="M251 570q-36 0 -57.5 17.5t-49.5 56.5l-73 107q12 25 40 25t45 -16l95 -82l95 82q17 16 45 16t40 -25l-73 -107q-28 -39 -49.5 -56.5t-57.5 -17.5zM440 145q18 -21 18 -60t-27.5 -62t-88.5 -23h-167q-65 0 -99 30t-34 77q0 28 11.5 49t40.5 47l234 207q-84 -14 -151 -14
t-95 23.5t-28 56t17 54.5q45 -7 96 -7h164q65 0 99 -30t34 -77q0 -27 -11.5 -48t-40.5 -48l-238 -210l168 9q64 3 98 26z" />
    <glyph glyph-name="florin" unicode="&#x192;" horiz-adv-x="529" 
d="M263 699q51 47 115.5 47t95.5 -25t31 -58t-21 -52q-25 32 -63 32q-55 0 -73 -74l-21 -84h119q4 -7 4 -16q0 -29 -33.5 -54.5t-98.5 -25.5h-15l-113 -454q-52 -203 -191 -203q-46 0 -72 26t-28 64q62 0 90 26t43 88l114 453q-32 1 -49.5 16.5t-17.5 40t24 45.5
q25 -6 65 -6h3l19 77q22 90 73 137z" />
    <glyph glyph-name="circumflex" unicode="&#x2c6;" horiz-adv-x="384" 
d="M372 595q-12 -25 -39.5 -25t-45.5 17l-95 82l-95 -82q-18 -17 -45.5 -17t-39.5 25l73 107q28 39 49.5 56.5t57.5 17.5t57.5 -17.5t49.5 -56.5z" />
    <glyph glyph-name="caron" unicode="&#x2c7;" horiz-adv-x="384" 
d="M287 760q17 16 45 16t40 -25l-73 -107q-28 -39 -49.5 -56.5t-57.5 -17.5t-57.5 17.5t-49.5 56.5l-73 107q12 25 40 25t45 -16l95 -82z" />
    <glyph glyph-name="breve" unicode="&#x2d8;" horiz-adv-x="413" 
d="M331 744q29 0 49.5 -14t20.5 -36q0 -38 -51.5 -66.5t-143 -28.5t-143 28.5t-51.5 66.5q0 22 20.5 36t49.5 14t55 -8q0 -87 69.5 -87t69.5 87q26 8 55 8z" />
    <glyph glyph-name="dotaccent" unicode="&#x2d9;" horiz-adv-x="185" 
d="M154 740.5q19 -19.5 19 -52.5t-28.5 -61t-61.5 -28t-52 19.5t-19 51.5t29 61t61.5 29t51.5 -19.5z" />
    <glyph glyph-name="ring" unicode="&#x2da;" horiz-adv-x="252" 
d="M84 695q0 -72 48 -72q35 0 35 47v10q-6 58 -47 58q-36 0 -36 -43zM126 775q49 0 81.5 -24.5t32.5 -70t-32.5 -70t-81.5 -24.5t-81.5 24.5t-32.5 70t32.5 70t81.5 24.5z" />
    <glyph glyph-name="ogonek" unicode="&#x2db;" horiz-adv-x="347" 
d="M175 -133q0 -42 54 -42t97 31q9 -12 9 -28q0 -35 -47 -63t-117.5 -28t-114.5 30.5t-44 78.5q0 60 62.5 99t166.5 43v-60q-66 -15 -66 -61z" />
    <glyph glyph-name="tilde" unicode="&#x2dc;" horiz-adv-x="406" 
d="M218 740q48 -28 72.5 -28t41 15t16.5 43q21 -1 33.5 -17t12.5 -40q0 -48 -36.5 -79.5t-80 -31.5t-95.5 28.5t-72 28.5t-36 -15.5t-16 -43.5q-18 0 -32 14t-14 44q0 46 35 78t79 32t92 -28z" />
    <glyph glyph-name="hungarumlaut" unicode="&#x2dd;" horiz-adv-x="382" 
d="M176 710q-20 0 -34 -24l-64 -99q-11 -18 -28.5 -18t-37.5 20l34 113q14 46 33 64.5t48.5 18.5t44.5 -19t15 -34t-2 -23q-4 1 -9 1zM354 697q-19 0 -41 -24l-80 -86q-17 -18 -39 -18t-34 26l54 107q23 46 46.5 64.5t55.5 18.5t47 -31q7 -14 7 -29t-8 -29q-4 1 -8 1z" />
    <glyph glyph-name="uni0901" unicode="&#x901;" 
d="M-98 932.5q-19 -19.5 -52 -19.5t-61 28t-28 61t18.5 52t51.5 19t61.5 -28.5t28.5 -60.5t-19 -51.5zM-157 850q47 0 88.5 22.5t62.5 67.5q26 -2 48 -23.5t22 -51.5q0 -55 -57 -86.5t-118 -31.5q-93 0 -164.5 46.5t-71.5 95.5q0 29 28 44q61 -83 162 -83z" />
    <glyph glyph-name="uni0902" unicode="&#x902;" 
d="M-84 764.5q-19 -19.5 -52 -19.5t-61 28t-28 61t18.5 52t51.5 19t61.5 -28.5t28.5 -60.5t-19 -51.5z" />
    <glyph glyph-name="uni0903" unicode="&#x903;" horiz-adv-x="371" 
d="M257 393.5q-19 -19.5 -52 -19.5t-61 28t-28 61t18.5 52t51.5 19t61.5 -28.5t28.5 -60.5t-19 -51.5zM257 69.5q-19 -19.5 -52 -19.5t-61 28t-28 61t18.5 52t51.5 19t61.5 -28.5t28.5 -60.5t-19 -51.5z" />
    <glyph glyph-name="uni0905" unicode="&#x905;" horiz-adv-x="795" 
d="M714 431l-5 -326q0 -80 15 -105q-18 -7 -42 -7q-106 0 -106 144q0 46 10 109q-16 -4 -45.5 -4t-69.5 16q7 -28 7 -49q0 -61 -42.5 -102t-110 -41t-123.5 28t-92 66.5t-58 76.5t-22 60q0 36 42 49q34 -68 87.5 -115.5t120.5 -47.5q39 0 66 21.5t27 60.5q0 22 -10.5 39
t-19.5 21q-31 -12 -72 -12t-76 21t-35 56t22 51.5t54 16.5t64 -14q56 34 56 78q0 24 -18.5 36t-49.5 12t-69 -13.5t-63 -34.5q-41 27 -41 69t38.5 64t87.5 22q86 0 148 -60t62 -145q0 -62 -42 -104q39 -24 86.5 -24t84.5 28q1 22 1 88t-17 92l1 1q-96 7 -96 89q0 17 5 27
h258q126 0 126 -85q0 -18 -7 -32h-178q41 -30 41 -121z" />
    <glyph glyph-name="uni0906" unicode="&#x906;" horiz-adv-x="1078" 
d="M714 431l-5 -326q0 -80 15 -105q-18 -7 -42 -7q-106 0 -106 144q0 46 10 109q-16 -4 -45.5 -4t-69.5 16q7 -28 7 -49q0 -61 -42.5 -102t-110 -41t-123.5 28t-92 66.5t-58 76.5t-22 60q0 36 42 49q34 -68 87.5 -115.5t120.5 -47.5q39 0 66 21.5t27 60.5q0 22 -10.5 39
t-19.5 21q-31 -12 -72 -12t-76 21t-35 56t22 51.5t54 16.5t64 -14q56 34 56 78q0 24 -18.5 36t-49.5 12t-69 -13.5t-63 -34.5q-41 27 -41 69t38.5 64t87.5 22q86 0 148 -60t62 -145q0 -62 -42 -104q39 -24 86.5 -24t84.5 28q1 22 1 88t-17 92l1 1q-96 7 -96 89q0 17 5 27
h541q126 0 126 -85q0 -18 -7 -32h-167q39 -30 39 -121l-5 -326q0 -80 15 -105q-18 -7 -42 -7q-106 0 -106 152l5 303q0 81 -15 104h-185q41 -30 41 -121z" />
    <glyph glyph-name="uni0907" unicode="&#x907;" horiz-adv-x="487" 
d="M205 494l66 -1q51 0 51 28q0 19 -18 31h-261q-126 0 -126 90q0 17 5 27h519q126 0 126 -85q0 -18 -7 -32h-171q37 -38 37 -82t-28 -69t-81 -25l-63 1q-102 0 -102 -40q0 -31 46 -31l91 9q70 0 125 -52.5t55 -123t-47.5 -109.5t-124.5 -39q-43 0 -86 8q51 -82 120 -82
q36 0 61 21q31 -26 31 -62.5t-25.5 -57.5t-61.5 -21q-131 0 -203 227q-100 48 -100 130q0 22 14 37.5t40.5 15.5t49 -25t31.5 -58q31 -17 81 -17t90 17.5t40 43.5t-35 26l-91 -7q-76 0 -132.5 56.5t-56.5 133.5q0 55 37 86t104 31z" />
    <glyph glyph-name="uni0908" unicode="&#x908;" horiz-adv-x="487" 
d="M205 494l66 -1q51 0 51 28q0 19 -18 31h-261q-126 0 -126 90q0 17 5 27h298q-35 27 -60.5 74t-25.5 98.5t32 87t85.5 35.5t87.5 -38.5t34 -83.5q0 -26 -12.5 -42.5t-36.5 -16.5q-2 28 -14.5 47.5t-35 19.5t-35.5 -13.5t-13 -42.5q0 -50 86 -125h129q126 0 126 -85
q0 -18 -7 -32h-171q37 -38 37 -82t-28 -69t-81 -25l-63 1q-102 0 -102 -40q0 -31 46 -31l91 9q70 0 125 -52.5t55 -123t-47.5 -109.5t-124.5 -39q-43 0 -86 8q51 -82 120 -82q36 0 61 21q31 -26 31 -62.5t-25.5 -57.5t-61.5 -21q-131 0 -203 227q-100 48 -100 130
q0 22 14 37.5t40.5 15.5t49 -25t31.5 -58q31 -17 81 -17t90 17.5t40 43.5t-35 26l-91 -7q-76 0 -132.5 56.5t-56.5 133.5q0 55 37 86t104 31z" />
    <glyph glyph-name="uni0909" unicode="&#x909;" horiz-adv-x="521" 
d="M458 669q126 0 126 -85q0 -18 -7 -32h-162q33 -50 33 -108t-39 -102q66 -78 66 -155q0 -61 -42.5 -102t-110.5 -41t-124.5 29t-93 68.5t-59 78.5t-22.5 62q0 39 42 49q34 -71 87.5 -120t121.5 -49q39 0 66 21.5t27 58.5t-24 59q-31 -12 -74 -12t-77.5 22.5t-34.5 56
t25 51t57 17.5t65 -14q42 30 42 69.5t-21 60.5h-254q-126 0 -126 90q0 17 5 27h508z" />
    <glyph glyph-name="uni090A" unicode="&#x90a;" horiz-adv-x="777" 
d="M696 669q126 0 126 -85q0 -18 -7 -32h-400q33 -50 33 -108.5t-40 -101.5q16 -19 26 -38q46 86 129 86q70 0 133 -66t63 -148q0 -52 -32.5 -92t-89.5 -40q-41 0 -69 26.5t-28 63.5q0 7 1 11q11 -3 23 -3q37 0 67.5 24.5t30.5 61.5q0 22 -15.5 38t-42.5 16q-64 0 -113 -101
q-16 -33 -27 -50.5t-32 -40.5q-41 -46 -119 -46q-59 0 -115.5 29t-93 68.5t-59 78.5t-22.5 62q0 39 42 49q34 -71 87.5 -120t121.5 -49q39 0 66 21.5t27 58.5t-24 59q-31 -12 -74 -12t-77.5 22.5t-34.5 56t25 51t57 17.5t65 -14q42 30 42 69.5t-21 60.5h-254q-126 0 -126 90
q0 17 5 27h746z" />
    <glyph glyph-name="uni090B" unicode="&#x90b;" horiz-adv-x="741" 
d="M430 209l-1 -104q0 -80 15 -105q-17 -7 -42 -7q-55 0 -79 35.5t-24 82t12 82.5q-132 -81 -204 -81q-41 0 -69.5 21.5t-28.5 70.5q81 0 243 96q-69 52 -123 52q-21 0 -38.5 -11t-25.5 -29q-24 10 -41 31t-17 53t25.5 53.5t60.5 21.5t65.5 -13t48.5 -26.5t48.5 -40.5
t44.5 -38q1 28 1 102t-15 97h-243q-126 0 -126 90q0 17 5 27h756q126 0 126 -85q0 -18 -7 -32h-402q39 -30 39 -121q0 -42 -2 -126q34 2 63.5 15t43.5 28q-21 30 -21 60t19 50t51 20t61.5 -33.5t29.5 -76.5t-25 -79q65 -90 65 -158q0 -39 -23.5 -69t-66 -30t-70 31t-27.5 75
q9 -3 28 -3t38 14.5t19 40.5t-13 54q-56 -37 -137 -37q-13 0 -37 2z" />
    <glyph glyph-name="uni090C" unicode="&#x90c;" horiz-adv-x="734" 
d="M671 669q126 0 126 -85q0 -18 -7 -32h-275q39 -30 39 -121v-10q52 -27 85.5 -72.5t33.5 -93.5t-20.5 -89t-44.5 -67q-65 -70 -65 -108q0 -17 10.5 -26t25.5 -9q49 0 93 76q66 -21 66 -81q0 -37 -29 -65.5t-78 -28.5q-68 0 -127.5 54t-59.5 133q0 47 29 92t58 83.5t29 67
t-18 44.5t-44.5 16t-52 -16.5t-39.5 -49.5q5 -23 5 -48.5t-16 -51t-50.5 -25.5t-54 31t-19.5 73t20 82q-22 12 -49 12q-43 0 -64.5 -29t-21.5 -78q0 -105 76 -218q-13 -23 -40 -23t-67 46t-70 116.5t-30 139.5t44 109t118 40t144 -57q40 39 90 46v2q0 81 -15 104h-363
q-126 0 -126 90q0 17 5 27h749z" />
    <glyph glyph-name="uni090D" unicode="&#x90d;" horiz-adv-x="585" 
d="M319 747q-93 0 -164.5 46.5t-71.5 95.5q0 29 28 44q61 -83 162 -83q47 0 88.5 22.5t62.5 67.5q26 -2 48 -23.5t22 -51.5q0 -55 -57 -86.5t-118 -31.5zM65 307l2 133q0 87 -15 112h-9q-126 0 -126 90q0 17 5 27h600q126 0 126 -85q0 -18 -7 -32h-173q58 -76 58 -166
q0 -56 -28 -98t-83.5 -42t-90 31t-37.5 81q18 -5 35 -5q40 0 67.5 24t27.5 80t-35 95h-221q39 -30 39 -121l-2 -122q0 -44 35 -79.5t85.5 -61l101 -51t85.5 -63.5t35 -81t-23.5 -69t-62.5 -26t-65 19.5t-33 38.5l-7 20q29 0 45 12t16 37t-35.5 50.5t-86 48t-101.5 48.5
t-86.5 66t-35.5 89z" />
    <glyph glyph-name="uni090E" unicode="&#x90e;" horiz-adv-x="585" 
d="M65 307l2 133q0 87 -15 112h-9q-126 0 -126 90q0 17 5 27h377q42 0 71 17.5t29 39.5q0 43 -49 43q-24 0 -68 -18t-70 -18q-70 0 -119 59t-49 130q0 47 30.5 84.5t83.5 37.5q33 0 55.5 -22t22.5 -53q0 -13 -5 -26q-42 0 -71 -17.5t-29 -43.5q0 -39 49 -39q24 0 68 18
t70 18q70 0 119 -59t49 -130q0 -7 -2 -21h38q126 0 126 -85q0 -18 -7 -32h-173q58 -76 58 -166q0 -56 -28 -98t-83.5 -42t-90 31t-37.5 81q18 -5 35 -5q40 0 67.5 24t27.5 80t-35 95h-221q39 -30 39 -121l-2 -122q0 -44 35 -79.5t85.5 -61l101 -51t85.5 -63.5t35 -81
t-23.5 -69t-62.5 -26t-65 19.5t-33 38.5l-7 20q29 0 45 12t16 37t-35.5 50.5t-86 48t-101.5 48.5t-86.5 66t-35.5 89z" />
    <glyph glyph-name="uni090F" unicode="&#x90f;" horiz-adv-x="585" 
d="M65 307l2 133q0 87 -15 112h-9q-126 0 -126 90q0 17 5 27h600q126 0 126 -85q0 -18 -7 -32h-173q58 -76 58 -166q0 -56 -28 -98t-83.5 -42t-90 31t-37.5 81q18 -5 35 -5q40 0 67.5 24t27.5 80t-35 95h-221q39 -30 39 -121l-2 -122q0 -44 35 -79.5t85.5 -61l101 -51
t85.5 -63.5t35 -81t-23.5 -69t-62.5 -26t-65 19.5t-33 38.5l-7 20q29 0 45 12t16 37t-35.5 50.5t-86 48t-101.5 48.5t-86.5 66t-35.5 89z" />
    <glyph glyph-name="uni0910" unicode="&#x910;" horiz-adv-x="585" 
d="M65 307l2 133q0 87 -15 112h-9q-126 0 -126 90q0 17 5 27h486q-79 146 -149 146q-41 0 -62 -41q-35 9 -54.5 35.5t-19.5 59.5t24.5 57t71 24t96.5 -36t83.5 -85t54.5 -93.5t23 -66.5h46q126 0 126 -85q0 -18 -7 -32h-173q58 -76 58 -166q0 -56 -28 -98t-83.5 -42t-90 31
t-37.5 81q18 -5 35 -5q40 0 67.5 24t27.5 80t-35 95h-221q39 -30 39 -121l-2 -122q0 -44 35 -79.5t85.5 -61l101 -51t85.5 -63.5t35 -81t-23.5 -69t-62.5 -26t-65 19.5t-33 38.5l-7 20q29 0 45 12t16 37t-35.5 50.5t-86 48t-101.5 48.5t-86.5 66t-35.5 89z" />
    <glyph glyph-name="uni0911" unicode="&#x911;" horiz-adv-x="1078" 
d="M795 747q-93 0 -164.5 46.5t-71.5 95.5q0 29 28 44q61 -83 162 -83q47 0 88.5 22.5t62.5 67.5q26 -2 48 -23.5t22 -51.5q0 -55 -57 -86.5t-118 -31.5zM714 431l-5 -326q0 -80 15 -105q-18 -7 -42 -7q-106 0 -106 144q0 46 10 109q-16 -4 -45.5 -4t-69.5 16q7 -28 7 -49
q0 -61 -42.5 -102t-110 -41t-123.5 28t-92 66.5t-58 76.5t-22 60q0 36 42 49q34 -68 87.5 -115.5t120.5 -47.5q39 0 66 21.5t27 60.5q0 22 -10.5 39t-19.5 21q-31 -12 -72 -12t-76 21t-35 56t22 51.5t54 16.5t64 -14q56 34 56 78q0 24 -18.5 36t-49.5 12t-69 -13.5
t-63 -34.5q-41 27 -41 69t38.5 64t87.5 22q86 0 148 -60t62 -145q0 -62 -42 -104q39 -24 86.5 -24t84.5 28q1 22 1 88t-17 92l1 1q-96 7 -96 89q0 17 5 27h541q126 0 126 -85q0 -18 -7 -32h-167q39 -30 39 -121l-5 -326q0 -80 15 -105q-18 -7 -42 -7q-106 0 -106 152l5 303
q0 81 -15 104h-185q41 -30 41 -121z" />
    <glyph glyph-name="uni0912" unicode="&#x912;" horiz-adv-x="1078" 
d="M714 431l-5 -326q0 -80 15 -105q-18 -7 -42 -7q-106 0 -106 144q0 46 10 109q-16 -4 -45.5 -4t-69.5 16q7 -28 7 -49q0 -61 -42.5 -102t-110 -41t-123.5 28t-92 66.5t-58 76.5t-22 60q0 36 42 49q34 -68 87.5 -115.5t120.5 -47.5q39 0 66 21.5t27 60.5q0 22 -10.5 39
t-19.5 21q-31 -12 -72 -12t-76 21t-35 56t22 51.5t54 16.5t64 -14q56 34 56 78q0 24 -18.5 36t-49.5 12t-69 -13.5t-63 -34.5q-41 27 -41 69t38.5 64t87.5 22q86 0 148 -60t62 -145q0 -62 -42 -104q39 -24 86.5 -24t84.5 28q1 22 1 88t-17 92l1 1q-96 7 -96 89q0 17 5 27
h345q42 0 71 17.5t29 39.5q0 43 -49 43q-24 0 -68 -18t-70 -18q-70 0 -119 59t-49 130q0 47 30.5 84.5t83.5 37.5q33 0 55.5 -22t22.5 -53q0 -13 -5 -26q-42 0 -71 -17.5t-29 -43.5q0 -39 49 -39q24 0 68 18t70 18q70 0 119 -59t49 -130q0 -7 -2 -21h11q126 0 126 -85
q0 -18 -7 -32h-167q39 -30 39 -121l-5 -326q0 -80 15 -105q-18 -7 -42 -7q-106 0 -106 152l5 303q0 81 -15 104h-185q41 -30 41 -121z" />
    <glyph glyph-name="uni0913" unicode="&#x913;" horiz-adv-x="1078" 
d="M714 431l-5 -326q0 -80 15 -105q-18 -7 -42 -7q-106 0 -106 144q0 46 10 109q-16 -4 -45.5 -4t-69.5 16q7 -28 7 -49q0 -61 -42.5 -102t-110 -41t-123.5 28t-92 66.5t-58 76.5t-22 60q0 36 42 49q34 -68 87.5 -115.5t120.5 -47.5q39 0 66 21.5t27 60.5q0 22 -10.5 39
t-19.5 21q-31 -12 -72 -12t-76 21t-35 56t22 51.5t54 16.5t64 -14q56 34 56 78q0 24 -18.5 36t-49.5 12t-69 -13.5t-63 -34.5q-41 27 -41 69t38.5 64t87.5 22q86 0 148 -60t62 -145q0 -62 -42 -104q39 -24 86.5 -24t84.5 28q1 22 1 88t-17 92l1 1q-96 7 -96 89q0 17 5 27
h430q-79 146 -149 146q-41 0 -62 -41q-35 9 -54.5 35.5t-19.5 59.5t24.5 57t71 24t96.5 -36t83.5 -85t54.5 -93.5t23 -66.5h43q126 0 126 -85q0 -18 -7 -32h-167q39 -30 39 -121l-5 -326q0 -80 15 -105q-18 -7 -42 -7q-106 0 -106 152l5 303q0 81 -15 104h-185
q41 -30 41 -121z" />
    <glyph glyph-name="uni0914" unicode="&#x914;" horiz-adv-x="1078" 
d="M714 431l-5 -326q0 -80 15 -105q-18 -7 -42 -7q-106 0 -106 144q0 46 10 109q-16 -4 -45.5 -4t-69.5 16q7 -28 7 -49q0 -61 -42.5 -102t-110 -41t-123.5 28t-92 66.5t-58 76.5t-22 60q0 36 42 49q34 -68 87.5 -115.5t120.5 -47.5q39 0 66 21.5t27 60.5q0 22 -10.5 39
t-19.5 21q-31 -12 -72 -12t-76 21t-35 56t22 51.5t54 16.5t64 -14q56 34 56 78q0 24 -18.5 36t-49.5 12t-69 -13.5t-63 -34.5q-41 27 -41 69t38.5 64t87.5 22q86 0 148 -60t62 -145q0 -62 -42 -104q39 -24 86.5 -24t84.5 28q1 22 1 88t-17 92l1 1q-96 7 -96 89q0 17 5 27
h422q-93 91 -154 91q-26 0 -46.5 -14t-26.5 -38q-34 0 -60 24.5t-26 61.5t29 60t70 23q61 0 123.5 -40t108.5 -93q-34 157 -109 157q-24 0 -48 -15q-33 26 -33 63.5t22.5 60t62 22.5t76 -34t56.5 -86q41 -107 41 -207q0 -25 -2 -36h35q126 0 126 -85q0 -18 -7 -32h-167
q39 -30 39 -121l-5 -326q0 -80 15 -105q-18 -7 -42 -7q-106 0 -106 152l5 303q0 81 -15 104h-185q41 -30 41 -121z" />
    <glyph glyph-name="uni0915" unicode="&#x915;" horiz-adv-x="784" 
d="M456 285l-3 -180q0 -80 15 -105q-18 -7 -42 -7q-51 0 -74 30.5t-23 67.5t7 61q-34 -31 -90 -31q-83 0 -149.5 68t-66.5 155q0 57 37.5 99.5t95.5 42.5q41 0 67 -26.5t26 -63.5q0 -6 -1 -11q-59 0 -95 -37q-26 -26 -26 -58t19 -50t45 -18q70 0 125 86q2 78 2 149.5
t-15 94.5h-264q-126 0 -126 90q0 17 5 27h783q126 0 126 -85q0 -18 -7 -32h-407q29 -24 29 -78q0 -16 -3 -29q36 31 86 31q79 0 146.5 -69t67.5 -155q0 -57 -37.5 -99.5t-95.5 -42.5q-41 0 -67 26.5t-26 63.5q0 6 1 11q60 0 96 37q25 26 25 58.5t-19 50t-45 17.5
q-67 0 -122 -89z" />
    <glyph glyph-name="uni0916" unicode="&#x916;" horiz-adv-x="815" 
d="M335 384q0 -62 -40 -103.5t-113 -46.5q29 -50 81.5 -77t112.5 -27q97 0 166.5 60t69.5 146q0 27 -12.5 46t-37.5 19t-38 -19t-13 -48q0 -51 26 -74q-16 -12 -39 -12q-45 0 -77.5 32.5t-32.5 87.5t36.5 89.5t92.5 34.5t99 -35q-2 76 -21 95h-331q71 -78 71 -168zM743 431
l-5 -326q0 -80 15 -105q-18 -7 -42 -7q-44 0 -66.5 25t-22.5 68q0 8 2 30q-36 -41 -95 -68t-127 -27q-90 0 -180.5 61t-125.5 166q-36 17 -58 45.5t-22 58t15.5 47.5t43.5 18q53 0 76 -83q30 10 48 35t18 61q0 73 -42 122h-104q-126 0 -126 90q0 17 5 27h802q126 0 126 -85
q0 -18 -7 -32h-167q39 -30 39 -121z" />
    <glyph glyph-name="uni0917" unicode="&#x917;" horiz-adv-x="612" 
d="M401 145l5 303q0 81 -15 104h-189q37 -36 59 -91t22 -116t-34 -96t-85 -35t-94 38.5t-43 93.5q0 31 17 47.5t42 16.5q38 0 63 -38q12 16 12 51q0 81 -63 129h-55q-126 0 -126 90q0 17 5 27h627q126 0 126 -85q0 -18 -7 -32h-168q39 -30 39 -121l-5 -326q0 -80 15 -105
q-17 -7 -42 -7q-106 0 -106 152z" />
    <glyph glyph-name="uni0918" unicode="&#x918;" horiz-adv-x="631" 
d="M152 446q0 -7 2 -21q36 18 77.5 18t70.5 -21t29 -51t-24.5 -46.5t-52 -16.5t-44.5 4q-30 -21 -30 -52t21 -46.5t62.5 -15.5t89 29t71.5 73q2 80 2 154.5t-15 97.5h-198q-61 -33 -61 -106zM559 431l-5 -326q0 -80 15 -105q-17 -7 -42 -7q-44 0 -70.5 26.5t-26.5 74.5
q0 26 9 57q-55 -47 -143 -47t-157.5 60t-69.5 129q0 45 26 82q-54 54 -54 120q0 30 12 60q-16 -2 -27 -2q-46 0 -77.5 20.5t-31.5 68.5q0 17 5 27h646q126 0 126 -85q0 -18 -7 -32h-167q39 -30 39 -121z" />
    <glyph glyph-name="uni0919" unicode="&#x919;" horiz-adv-x="661" 
d="M534 388.5q16 16.5 44.5 16.5t54 -25t25.5 -53t-16.5 -45t-45 -17t-53.5 24.5t-25 53.5t16 45.5zM404 194l-140 -7q-76 0 -132.5 56.5t-56.5 133.5q0 55 37 86t105 31t113 -0.5t45 28.5q0 16 -18 30h-301q-126 0 -126 90q0 17 5 27h663q126 0 126 -85q0 -18 -7 -32h-276
q38 -40 38 -83t-28 -68t-81 -25l-105 1q-102 0 -102 -40q0 -31 44 -31l144 9q73 0 126.5 -54t53.5 -122.5t-46.5 -108t-125.5 -39.5q-121 0 -221.5 59.5t-100.5 113.5q0 25 27 35q40 -43 102 -67.5t128 -24.5t106.5 17.5t40.5 43.5t-37 26z" />
    <glyph glyph-name="uni091A" unicode="&#x91a;" horiz-adv-x="673" 
d="M601 431l-5 -326q0 -80 15 -105q-17 -7 -42 -7q-50 0 -72.5 29.5t-22.5 64.5t6 59q-43 -38 -108 -38q-92 0 -161.5 69.5t-69.5 140.5q0 20 6 40q-28 -10 -59.5 -10t-61 22t-29.5 67q0 17 5 27h244q126 0 126 -85q0 -16 -7 -30h-35q-38 0 -64.5 -18t-26.5 -49t23 -48.5
t62.5 -17.5t81 28.5t61.5 83.5q1 35 1 118t-15 106h-419q-126 0 -126 90q0 17 5 27h697q126 0 126 -85q0 -18 -7 -32h-167q39 -30 39 -121z" />
    <glyph glyph-name="uni091B" unicode="&#x91b;" horiz-adv-x="697" 
d="M490 363.5q-13 -28.5 -13 -60t10 -47.5q-6 -10 -20 -10q-30 0 -55.5 39t-25.5 83t16.5 77t45.5 49q-3 39 -18 58h-204q-65 -35 -65 -108q0 -21 6 -39q35 11 73.5 11t66.5 -20t28 -50.5t-24.5 -47.5t-52.5 -17t-56 7q-39 -25 -39 -67.5t39.5 -68.5t99.5 -26q97 0 177 59
t80 158q0 49 -31 49q-25 0 -38 -28.5zM631 669q126 0 126 -85q0 -18 -7 -32h-224q24 -20 31 -65q44 -24 69.5 -77t25.5 -115q0 -125 -80.5 -199t-203.5 -74t-217 70.5t-94 172.5q0 55 40 97q-45 58 -45 124q0 37 14 69q-16 -2 -27 -2q-46 0 -77.5 20.5t-31.5 68.5q0 17 5 27
h696z" />
    <glyph glyph-name="uni091C" unicode="&#x91c;" horiz-adv-x="725" 
d="M516 145l4 190h-159q53 -58 53 -119.5t-33 -92.5t-88 -31t-111 38t-91 90t-56.5 101.5t-21.5 76.5t13.5 39t32.5 13q43 -121 95 -178.5t95 -57.5q30 0 45 17t15 45t-26 61q-88 11 -88 88q0 17 5 27h321q0 75 -15 100h-445q-126 0 -126 90q0 17 5 27h722q126 0 126 -85
q0 -18 -7 -32h-166q39 -30 39 -121l-5 -326q0 -80 15 -105q-18 -7 -42 -7q-106 0 -106 152z" />
    <glyph glyph-name="uni091D" unicode="&#x91d;" horiz-adv-x="762" 
d="M558 337l1 111q0 81 -15 104h-144q37 -38 37 -82t-28 -69t-81 -25l-74 1q-102 0 -102 -37q0 -30 46 -30l91 8q27 0 79 -11.5t82 -11.5q71 0 108 42zM205 494l77 -1q51 0 51 28q0 19 -18 31h-272q-126 0 -126 90q0 17 5 27h777q126 0 126 -85q0 -18 -7 -32h-165
q39 -30 39 -121l-5 -326q0 -80 15 -105q-18 -7 -42 -7q-103 0 -103 128q0 44 8 87q-22 -12 -53 -12t-60 12q17 -37 17 -74q0 -65 -47.5 -104t-124.5 -39q-43 0 -86 8q53 -82 120 -82q36 0 61 21q31 -26 31 -62.5t-25.5 -57.5t-61.5 -21q-131 0 -202 226q-101 47 -101 131
q0 22 14 37.5t40.5 15.5t49 -25t31.5 -58q31 -17 80.5 -17t90 18t40.5 43q0 30 -35 30l-91 -7q-76 0 -132.5 55.5t-56.5 130.5q0 55 37 86t104 31z" />
    <glyph glyph-name="uni091E" unicode="&#x91e;" horiz-adv-x="746" 
d="M535 231q-38 4 -78 18q0 -67 -44.5 -106t-105.5 -39t-111 24t-84.5 60.5t-60.5 77.5q-51 82 -51 136q0 26 14 38t32 13q82 -228 215 -228q46 0 74 26t28 53.5t-14 42.5t-36 15t-40 -13.5t-27 -32.5q-27 8 -46.5 32.5t-19.5 55.5t23 54.5t71 23.5t96.5 -42t71.5 -106h10
q45 0 85 22q1 25 1 98t-15 98h-480q-126 0 -126 90q0 17 5 27h761q126 0 126 -85q0 -18 -7 -32h-170q39 -30 39 -121l-5 -326q0 -80 15 -105q-17 -7 -42 -7q-106 0 -106 152q0 24 2 86z" />
    <glyph glyph-name="uni091F" unicode="&#x91f;" horiz-adv-x="485" 
d="M424 669q126 0 126 -85q0 -18 -7 -32h-210q45 -35 45 -73.5t-24.5 -64.5t-59 -42.5t-69 -34t-59 -45.5t-24.5 -64t26 -59t71.5 -23t88.5 34.5t53 83.5q38 -3 63 -30t25 -69t-45 -79.5t-135 -37.5t-176.5 68.5t-86.5 155.5q0 50 24 87t58 57.5t68 36t58 32t24 35t-12 32.5
h-190q-126 0 -126 90q0 17 5 27h489z" />
    <glyph glyph-name="uni0920" unicode="&#x920;" horiz-adv-x="520" 
d="M334 173.5q41 36.5 41 79t-31 71t-79 34.5q-97 -48 -117 -91q-10 -21 -10 -46q0 -42 29 -63t67 -21q59 0 100 36.5zM459 669q126 0 126 -85q0 -18 -7 -32h-237q43 -34 43 -76.5t-48 -76.5q76 -4 120 -56.5t44 -116.5q0 -86 -62.5 -136.5t-153.5 -50.5t-174 71t-83 157
q0 51 24.5 89t59.5 59t69.5 37.5t59 33.5t24.5 35t-10 31h-198q-126 0 -126 90q0 17 5 27h524z" />
    <glyph glyph-name="uni0921" unicode="&#x921;" horiz-adv-x="549" 
d="M404 194l-140 -7q-76 0 -132.5 56.5t-56.5 133.5q0 55 37 86t105 31t113 -0.5t45 28.5q0 16 -18 30h-301q-126 0 -126 90q0 17 5 27h568q126 0 126 -85q0 -18 -7 -32h-181q38 -40 38 -83t-28 -68t-81 -25l-105 1q-102 0 -102 -40q0 -31 44 -31l144 9q73 0 126.5 -54
t53.5 -122.5t-46.5 -108t-125.5 -39.5q-121 0 -221.5 59.5t-100.5 113.5q0 25 27 35q40 -43 102 -67.5t128 -24.5t106.5 17.5t40.5 43.5t-37 26z" />
    <glyph glyph-name="uni0922" unicode="&#x922;" horiz-adv-x="515" 
d="M454 669q126 0 126 -85q0 -18 -7 -32h-201q38 -32 38 -70t-28.5 -62.5t-69 -40.5t-80.5 -34t-68.5 -49.5t-28.5 -79t40 -79.5t96.5 -32t88.5 30.5t32 64.5q0 16 -8.5 25.5t-20.5 9.5q-31 0 -42 -43q-4 -13 -4 -35q-9 -4 -24 -4q-32 0 -57 23t-25 62t30 65t75 26
q68 0 123.5 -51.5t55.5 -121t-52.5 -108.5t-124.5 -39t-138 33.5t-111.5 93.5t-45.5 128q0 48 20 86t50.5 59.5t65.5 40t65 28.5q71 25 71 53q0 11 -10 21h-247q-126 0 -126 90q0 17 5 27h537z" />
    <glyph glyph-name="uni0923" unicode="&#x923;" horiz-adv-x="762" 
d="M178 431q0 -56 3 -80q10 -78 62 -78q69 0 69 162q0 88 -17 117h-156q39 -30 39 -121zM552 145l5 303q0 81 -15 104h-171q26 -29 49 -82.5t23 -123.5t-37 -119t-111 -49t-154.5 58.5t-91.5 137.5q-4 32 -4 93.5t-15 84.5q-113 3 -113 90q0 17 5 27h777q126 0 126 -85
q0 -18 -7 -32h-167q39 -30 39 -121l-5 -326q0 -80 15 -105q-18 -7 -42 -7q-106 0 -106 152z" />
    <glyph glyph-name="uni0924" unicode="&#x924;" horiz-adv-x="564" 
d="M496 431l-5 -326q0 -80 15 -105q-18 -7 -42 -7q-106 0 -106 152q0 27 4 181h-102q-41 0 -64.5 -22t-23.5 -63q0 -104 75 -206q-11 -23 -38.5 -23t-66 42.5t-68 109t-29.5 123.5q0 82 48.5 120t115.5 38t154 -10v5q0 87 -15 112h-292q-126 0 -126 90q0 17 5 27h566
q126 0 126 -85q0 -18 -7 -32h-163q39 -30 39 -121z" />
    <glyph glyph-name="uni0925" unicode="&#x925;" horiz-adv-x="640" 
d="M434 333l1 114q0 63 -6.5 82t-34.5 46.5t-28 66.5q0 17 5 27h206q126 0 126 -85q0 -18 -7 -32h-168q40 -29 40 -121l-5 -326q0 -80 15 -105q-18 -7 -42 -7q-50 0 -72.5 33t-22.5 72.5t7 72.5q-64 -46 -153.5 -46t-172 68t-82.5 126q0 25 33.5 49t73 41.5t73 49t33.5 68.5
q0 18 -10.5 31.5t-34 13.5t-40.5 -23.5t-17 -51.5t10 -45q-8 -4 -21 -4q-41 0 -67 33.5t-26 81t35 81t88 33.5q67 0 123 -61t56 -145q0 -42 -18.5 -75.5t-44.5 -53t-52.5 -34.5t-45 -27t-18.5 -22q0 -23 54 -23t117 25t93 72z" />
    <glyph glyph-name="uni0926" unicode="&#x926;" horiz-adv-x="493" 
d="M412 669q126 0 126 -85q0 -18 -7 -32h-150q37 -37 37 -74.5t-28 -64.5t-68 -43t-80.5 -32.5t-68.5 -44t-28 -66.5t31 -61.5t67 -22.5t63 9q-9 18 -9 44.5t21.5 48t56 21.5t62 -32.5t27.5 -73.5q0 -63 -53 -96q46 -49 46 -105q0 -40 -23.5 -66.5t-61.5 -26.5t-63 21.5
t-31 55.5q33 6 54 25t21 42.5t-4 32.5q-19 -3 -41 -3q-102 0 -189 73.5t-87 163.5q0 53 27.5 91t67 58t79 34.5t67 31t27.5 32.5t-7 28h-238q-126 0 -126 90q0 17 5 27h478z" />
    <glyph glyph-name="uni0927" unicode="&#x927;" horiz-adv-x="631" 
d="M559 431l-5 -326q0 -80 15 -105q-17 -7 -42 -7q-51 0 -74 29.5t-23 74.5q0 23 7 53q-54 -46 -141.5 -46t-157 60t-69.5 129q0 45 26 82q-54 54 -54 120q0 30 12 60q-16 -2 -27 -2q-46 0 -77.5 20.5t-31.5 68.5q0 17 5 27h221q126 0 126 -85q0 -18 -7 -32h-10
q-46 0 -73 -28t-27 -75q0 -12 3 -24q35 18 76.5 18t70.5 -21t29 -51t-24.5 -46.5t-52 -16.5t-44.5 4q-30 -21 -30 -52t21 -46.5t62 -15.5t88.5 28t72.5 71q2 80 2 147t-6.5 85.5t-34.5 46t-28 66.5q0 17 5 27h206q126 0 126 -85q0 -18 -7 -32h-168q40 -29 40 -121z" />
    <glyph glyph-name="uni0928" unicode="&#x928;" horiz-adv-x="589" 
d="M517 431l-5 -326q0 -80 15 -105q-17 -7 -42 -7q-106 0 -106 152q0 27 4 181h-162q-44 0 -67 -19.5t-23 -39.5t11 -32t35 -12t43 16t24 29q29 -11 46 -37t17 -54.5t-18.5 -47.5t-55.5 -19q-73 0 -141 67t-68 139q0 128 185 128q83 0 175 -9v5q0 87 -15 112h-313
q-126 0 -126 90q0 17 5 27h591q126 0 126 -85q0 -18 -7 -32h-167q39 -30 39 -121z" />
    <glyph glyph-name="uni0928093C" unicode="&#x929;" horiz-adv-x="589" 
d="M127 54.5q16 16.5 44.5 16.5t54 -25t25.5 -53t-16.5 -45t-45.5 -17t-53.5 24.5t-24.5 53.5t16 45.5zM517 431l-5 -326q0 -80 15 -105q-17 -7 -42 -7q-106 0 -106 152q0 27 4 181h-162q-44 0 -67 -19.5t-23 -39.5t11 -32t35 -12t43 16t24 29q29 -11 46 -37t17 -54.5
t-18.5 -47.5t-55.5 -19q-73 0 -141 67t-68 139q0 128 185 128q83 0 175 -9v5q0 87 -15 112h-313q-126 0 -126 90q0 17 5 27h591q126 0 126 -85q0 -18 -7 -32h-167q39 -30 39 -121z" />
    <glyph glyph-name="uni092A" unicode="&#x92a;" horiz-adv-x="572" 
d="M184 431l-2 -81q0 -46 14 -68.5t50 -22.5t69 25.5t51 60.5v103q0 81 -15 104h-205q38 -29 38 -121zM499 431l-5 -326q0 -80 15 -105q-17 -7 -42 -7q-54 0 -79 36t-25 78.5t8 71.5q-36 -18 -74 -18q-85 0 -164.5 73t-79.5 145q0 104 -2.5 130.5t-12.5 42.5q-113 3 -113 90
q0 17 5 27h579q126 0 126 -85q0 -18 -7 -32h-168q39 -30 39 -121z" />
    <glyph glyph-name="uni092B" unicode="&#x92b;" horiz-adv-x="789" 
d="M329 321l1 127q0 81 -15 104h-174q38 -29 38 -121l-2 -61q0 -46 14 -68.5t55 -22.5t83 42zM461 285l-3 -180q0 -80 15 -105q-17 -7 -42 -7q-54 0 -79.5 37.5t-25.5 81t8 75.5q-20 -6 -42 -6q-91 0 -167.5 69t-76.5 143.5t-1 107.5t-14 51q-108 5 -108 90q0 17 5 27h783
q126 0 126 -85q0 -18 -7 -32h-408q29 -26 29 -79q0 -9 -2 -29q34 32 86 32q82 0 148 -68.5t66 -155.5q0 -57 -37.5 -99.5t-95.5 -42.5q-41 0 -67 26.5t-26 63.5q0 6 1 11q62 0 98 39q23 26 23 57.5t-19 49t-45 17.5q-67 0 -122 -89z" />
    <glyph glyph-name="uni092C" unicode="&#x92c;" horiz-adv-x="604" 
d="M161 345q-27 -22 -27 -55.5t27 -56.5t55.5 -23t50.5 5zM398 324l1 124q0 81 -15 104h-338q-126 0 -126 90q0 17 5 27h616q126 0 126 -85q0 -18 -7 -32h-167q39 -30 39 -121l-5 -326q0 -80 15 -105q-18 -7 -42 -7q-51 0 -75.5 31.5t-24.5 77.5q0 17 7 40
q-50 -39 -121.5 -39t-131 39.5t-92.5 95t-33 104.5q0 71 51 110t112.5 39t100 -24.5t38.5 -62t-15 -55.5q-33 20 -79 20q-10 0 -14 -1l104 -127q44 31 71 83z" />
    <glyph glyph-name="uni092D" unicode="&#x92d;" horiz-adv-x="671" 
d="M599 431l-5 -326q0 -80 15 -105q-17 -7 -42 -7q-106 0 -106 152q0 53 3 123h-161q-15 -97 -69 -97q-50 0 -95.5 51t-45.5 97q0 65 90 70q1 26 1 98.5t-31 72.5q-20 0 -29.5 -19.5t-9.5 -48.5t10 -47q-8 -4 -21 -4q-41 0 -67 36.5t-26 82t28 77.5t77 32q69 0 128 -84.5
t65 -196.5q91 -3 158 -9v69q0 81 -15 104h-16q-126 0 -126 90q0 17 5 27h294q126 0 126 -85q0 -18 -7 -32h-167q39 -30 39 -121z" />
    <glyph glyph-name="uni092E" unicode="&#x92e;" horiz-adv-x="622" 
d="M250 431v-43q100 -4 167 -9v69q0 81 -15 104h-191q39 -30 39 -121zM550 431l-5 -326q0 -80 15 -105q-18 -7 -42 -7q-106 0 -106 152q0 53 3 123h-173q-8 -51 -24 -74t-46 -23q-50 0 -95.5 51t-45.5 97q0 63 86 70q1 15 1 44q0 93 -17 119h-58q-126 0 -126 90q0 17 5 27
h637q126 0 126 -85q0 -18 -7 -32h-167q39 -30 39 -121z" />
    <glyph glyph-name="uni092F" unicode="&#x92f;" horiz-adv-x="609" 
d="M400 333l1 115q0 51 -3.5 71t-14.5 33h-121q30 -43 30 -90t-21 -77.5t-46 -44.5q-67 -38 -67 -58q0 -34 67 -34q49 0 99.5 22t75.5 63zM534 431l-5 -326q0 -80 15 -105q-18 -7 -42 -7q-50 0 -72.5 33t-22.5 72.5t7 72.5q-51 -36 -124 -36q-91 0 -174 72.5t-83 140.5
q0 36 77 76q30 16 54 42.5t24 50.5t-8 35h-104q-126 0 -126 90q0 17 5 27h591q126 0 126 -85q0 -18 -7 -32h-170q39 -30 39 -121z" />
    <glyph glyph-name="uni0930" unicode="&#x930;" horiz-adv-x="416" 
d="M347 669q126 0 126 -85q0 -18 -7 -32h-168q66 -78 66 -158.5t-47 -128t-122 -49.5q20 -52 52 -81.5t87 -29.5q19 0 32 4q10 -22 10 -49t-19 -48.5t-57 -21.5q-116 0 -187 243q-42 19 -69.5 52t-27.5 68.5t16.5 56.5t47 21t48.5 -22t31 -63q45 1 68.5 32t23.5 74
q0 67 -44 100h-155q-126 0 -126 90q0 17 5 27h416z" />
    <glyph glyph-name="uni0930093C" unicode="&#x931;" horiz-adv-x="416" 
d="M38 8.5q14 14.5 39 14.5t47 -22t22 -46.5t-14 -39t-39.5 -14.5t-47 21.5t-21.5 46.5t14 39.5zM347 669q126 0 126 -85q0 -18 -7 -32h-168q66 -78 66 -158.5t-47 -128t-122 -49.5q20 -52 52 -81.5t87 -29.5q19 0 32 4q10 -22 10 -49t-19 -48.5t-57 -21.5q-116 0 -187 243
q-42 19 -69.5 52t-27.5 68.5t16.5 56.5t47 21t48.5 -22t31 -63q45 1 68.5 32t23.5 74q0 67 -44 100h-155q-126 0 -126 90q0 17 5 27h416z" />
    <glyph glyph-name="uni0932" unicode="&#x932;" horiz-adv-x="747" 
d="M677 431l-5 -326q0 -80 15 -105q-17 -7 -42 -7q-106 0 -106 152q0 26 4 184q-22 5 -44 5t-43.5 -13.5t-30.5 -36.5q7 -32 7 -61t-17 -58t-54 -29t-59.5 34.5t-22.5 79t25 92.5q-22 12 -55.5 12t-56.5 -28t-23 -74q0 -114 104 -223q-12 -23 -42 -23t-75.5 40.5t-81 109
t-35.5 140.5t44 118.5t119.5 46.5t142.5 -57q51 49 118 49q44 0 81 -23v18q0 81 -15 104h-473q-126 0 -126 90q0 17 5 27h749q126 0 126 -85q0 -18 -7 -32h-165q39 -30 39 -121z" />
    <glyph glyph-name="uni0933" unicode="&#x933;" horiz-adv-x="693" 
d="M563 300q0 30 -20 46.5t-40 16.5t-33.5 -7t-22.5 -14.5t-20 -26.5t-15.5 -29t-15.5 -36.5t-15 -35.5q30 -7 58 -7q51 0 87.5 25t36.5 68zM141 207.5q20 -16.5 40 -16.5t33.5 7t22.5 14.5t20 26.5t15.5 29t15.5 36.5t15 35.5q-30 7 -58 7q-51 0 -87.5 -25t-36.5 -68
q0 -30 20 -46.5zM617 669q126 0 126 -85q0 -18 -7 -32h-245q34 -28 36 -103q57 -26 94.5 -85.5t37.5 -121.5t-41 -108t-111 -46q-47 0 -85.5 25t-54.5 71q-50 -96 -135 -96t-146 71t-61 143t41 118t111 46q47 0 85.5 -25t54.5 -71q40 76 99 91q-2 68 -22 91h-348
q-126 0 -126 90q0 17 5 27h692z" />
    <glyph glyph-name="uni0933093C" unicode="&#x934;" horiz-adv-x="693" 
d="M96 18.5q14 14.5 39 14.5t47 -22t22 -46.5t-14 -39t-39.5 -14.5t-47 21.5t-21.5 46.5t14 39.5zM563 300q0 30 -20 46.5t-40 16.5t-33.5 -7t-22.5 -14.5t-20 -26.5t-15.5 -29t-15.5 -36.5t-15 -35.5q30 -7 58 -7q51 0 87.5 25t36.5 68zM141 207.5q20 -16.5 40 -16.5
t33.5 7t22.5 14.5t20 26.5t15.5 29t15.5 36.5t15 35.5q-30 7 -58 7q-51 0 -87.5 -25t-36.5 -68q0 -30 20 -46.5zM617 669q126 0 126 -85q0 -18 -7 -32h-245q34 -28 36 -103q57 -26 94.5 -85.5t37.5 -121.5t-41 -108t-111 -46q-47 0 -85.5 25t-54.5 71q-50 -96 -135 -96
t-146 71t-61 143t41 118t111 46q47 0 85.5 -25t54.5 -71q40 76 99 91q-2 68 -22 91h-348q-126 0 -126 90q0 17 5 27h692z" />
    <glyph glyph-name="uni0935" unicode="&#x935;" horiz-adv-x="568" 
d="M362 335l1 113q0 81 -15 104h-302q-126 0 -126 90q0 17 5 27h580q126 0 126 -85q0 -18 -7 -32h-167q39 -30 39 -121l-5 -326q0 -80 15 -105q-18 -7 -42 -7q-51 0 -75.5 31.5t-24.5 67.5t8 62q-42 -36 -105 -36q-92 0 -165 77.5t-73 149.5t43.5 108t97.5 36t89.5 -24.5
t35.5 -60.5t-15 -55q-29 18 -64 18t-58.5 -19t-23.5 -51t23.5 -52t64.5 -20t79.5 30.5t60.5 79.5z" />
    <glyph glyph-name="uni0936" unicode="&#x936;" horiz-adv-x="725" 
d="M435 418q0 -103 -59.5 -156t-147.5 -55q50 -101 148 -101q26 0 47 5q11 -22 11 -50t-19 -49.5t-57 -21.5q-130 0 -216 231q-49 18 -80.5 52.5t-31.5 77.5q0 24 16.5 42t43.5 18q61 0 97 -93q61 1 102 45t41 117q0 32 -13.5 57t-35 25t-32.5 -16t-11 -40.5t13.5 -52
t33.5 -41.5q-13 -18 -39 -18q-43 0 -83.5 44.5t-40.5 101.5t30 92.5t85.5 35.5t103.5 -43.5t71 -99.5t23 -107zM515 145l5 302q0 63 -6.5 82t-34.5 46.5t-28 66.5q0 17 5 27h206q126 0 126 -85q0 -18 -7 -32h-168q40 -29 40 -121l-5 -326q0 -80 15 -105q-18 -7 -42 -7
q-106 0 -106 152z" />
    <glyph glyph-name="uni0937" unicode="&#x937;" horiz-adv-x="576" 
d="M370 448q0 81 -15 104h-206q40 -15 71 -40.5t47.5 -40t49.5 -45t53 -48.5v70zM183 415l-1 -65q0 -46 14 -68.5t54 -22.5q60 0 108 51q-77 73 -185 163q10 -25 10 -58zM503 431l-5 -326q0 -80 15 -105q-17 -7 -42 -7q-54 0 -79 36t-25 79.5t9 73.5q-38 -21 -79 -21
q-86 0 -165 73.5t-79 144.5q0 88 -2 121.5t-13 51.5q-113 3 -113 90q0 17 5 27h583q126 0 126 -85q0 -18 -7 -32h-168q39 -30 39 -121z" />
    <glyph glyph-name="uni0938" unicode="&#x938;" horiz-adv-x="744" 
d="M364 387q0 -21 -5 -44q20 -4 45 -4q74 0 135 34v75q0 81 -15 104h-226q66 -78 66 -165zM672 431l-5 -326q0 -80 15 -105q-18 -7 -42 -7q-106 0 -106 152q0 25 2 91q-13 -2 -43 -2q-96 0 -165 44q-48 -59 -133 -62q20 -52 52 -81.5t87 -29.5q19 0 32 4q10 -22 10 -49
t-19 -48.5t-57 -21.5q-116 0 -187 243q-42 19 -69.5 52t-27.5 68.5t16.5 56.5t47 21t48.5 -22t31 -63q45 1 68.5 32t23.5 74q0 67 -44 100h-155q-126 0 -126 90q0 17 5 27h750q126 0 126 -85q0 -18 -7 -32h-167q39 -30 39 -121z" />
    <glyph glyph-name="uni0939" unicode="&#x939;" horiz-adv-x="491" 
d="M192 482l88 -1q38 0 38 28q0 12 -9 24t-23 19h-230q-126 0 -126 90q0 17 5 27h502q126 0 126 -85q0 -18 -7 -32h-182q48 -44 48 -99q0 -38 -28 -63t-81 -25l-89 1q-65 0 -65 -48q0 -17 9 -35q37 15 81 15q87 0 150 -57.5t63 -120.5q0 -41 -26.5 -67t-63 -26t-63.5 20
t-32 56q36 5 56.5 21.5t20.5 36t-13.5 30.5t-38.5 11q-46 0 -84 -31.5t-38 -86t55 -90.5t127 -36q28 0 57 6q7 -14 7 -32.5t-20.5 -33t-57.5 -14.5q-115 0 -201 73.5t-86 174.5q0 69 46 113q-55 61 -55 125q0 49 35 80.5t105 31.5z" />
    <glyph glyph-name="uni093C" unicode="&#x93c;" 
d="M-268.5 -213.5q-21.5 21.5 -21.5 46.5t14 39.5t39 14.5t47 -22t22 -46.5t-14 -39t-39.5 -14.5t-47 21.5z" />
    <glyph glyph-name="uni093D" unicode="&#x93d;" horiz-adv-x="498" 
d="M91 565q0 36 17.5 59t52 32t58.5 11t63 2t62 -2t51 -9q56 -16 56 -74q0 -18 -6 -30q-62 1 -123 1t-78.5 -8t-17.5 -30.5t23 -49.5t56 -55.5t66 -60t56 -72.5t23 -83q0 -66 -44.5 -105.5t-126 -39.5t-163.5 66.5t-82 120.5q0 28 28 37q94 -111 185 -111q37 0 58.5 17.5
t21.5 49t-24.5 64.5t-59 64t-69 62.5t-59 69.5t-24.5 74z" />
    <glyph glyph-name="uni093E" unicode="&#x93e;" horiz-adv-x="283" 
d="M73 145l5 303q0 81 -15 104h-20q-126 0 -126 90q0 17 5 27h298q126 0 126 -85q0 -18 -7 -32h-167q39 -30 39 -121l-5 -326q0 -80 15 -105q-17 -7 -42 -7q-106 0 -106 152z" />
    <glyph glyph-name="uni093F" unicode="&#x93f;" horiz-adv-x="283" 
d="M73 145l5 313q0 58 -4 94h-31q-126 0 -126 90q0 17 5 27h134q-2 10 -7 28.5t-7.5 28t-5.5 23.5q-5 23 -5 52q0 75 54 118t138 43t173.5 -26.5t153 -63.5t105 -74t41.5 -59.5t-24 -33.5q-100 69 -203 104t-172 35q-145 0 -145 -111q0 -33 7 -64h61q126 0 126 -85
q0 -18 -7 -32h-140q12 -45 12 -98l-5 -349q0 -80 15 -105q-17 -7 -42 -7q-106 0 -106 152z" />
    <glyph glyph-name="uni0940" unicode="&#x940;" horiz-adv-x="283" 
d="M73 145l5 324q0 31 -2 83h-33q-126 0 -126 90q0 17 5 27h144q-26 181 -124 181q-35 0 -55.5 -24t-20.5 -55.5t16 -56.5q-12 -8 -31 -8q-42 0 -70 38.5t-28 91.5t38.5 89.5t96.5 36.5q98 0 174 -82.5t116 -210.5h42q126 0 126 -85q0 -18 -7 -32h-135q7 -46 7 -99l-5 -348
q0 -80 15 -105q-17 -7 -42 -7q-106 0 -106 152z" />
    <glyph glyph-name="uni0941" unicode="&#x941;" 
d="M-15 -237.5q-43 -37.5 -110.5 -37.5t-141.5 35.5t-119 80.5t-45 77t27 41q53 -61 116 -94.5t114 -33.5t79.5 20t28.5 48q0 12 -8.5 20.5t-28 8.5t-39 -15.5t-26.5 -37.5q-33 3 -52 25t-19 51.5t24.5 52t66.5 22.5q64 0 120 -51t56 -113t-43 -99.5z" />
    <glyph glyph-name="uni0942" unicode="&#x942;" 
d="M-237 -224q-56 51 -56 114.5t44.5 99.5t105 36t119 -27t100.5 -65t69 -79t27 -65t-12.5 -35t-22.5 -12q-40 67 -102.5 122t-138.5 55q-44 0 -69.5 -20.5t-25.5 -47.5q0 -12 8.5 -20.5t28 -8.5t39 15.5t26.5 37.5q33 -3 52 -25t19 -51.5t-24.5 -52t-66.5 -22.5
q-64 0 -120 51z" />
    <glyph glyph-name="uni0943" unicode="&#x943;" 
d="M-321 -58q0 65 40 102t92 37q34 0 60 -22t26 -66q-49 -4 -80 -32.5t-31 -60t17 -47.5t52.5 -16t68 29t41.5 73q34 -4 59.5 -28t25.5 -64t-42.5 -72.5t-116 -32.5t-143 59.5t-69.5 140.5z" />
    <glyph glyph-name="uni0944" unicode="&#x944;" 
d="M35.5 -282.5q22.5 -22.5 22.5 -59t-37 -65.5t-101 -29t-125 52t-61 124q0 47 28 78q-75 58 -75 140q0 57 37.5 90t79 33t67.5 -22t26 -66q-46 -4 -76.5 -28.5t-30.5 -48.5t12.5 -35.5t32.5 -11.5q45 0 68 32q19 -4 33.5 -19.5t14.5 -40.5t-19 -44t-41.5 -28t-41.5 -26
t-19 -39.5t14.5 -35t44.5 -12.5t58.5 25t36.5 62q29 -3 51.5 -25.5z" />
    <glyph glyph-name="uni0945" unicode="&#x945;" 
d="M-157 850q47 0 88.5 22.5t62.5 67.5q26 -2 48 -23.5t22 -51.5q0 -55 -57 -86.5t-118 -31.5q-93 0 -164.5 46.5t-71.5 95.5q0 29 28 44q61 -83 162 -83z" />
    <glyph glyph-name="uni0946" unicode="&#x946;" 
d="M-389 843q24 0 68 18t70 18q70 0 119 -59t49 -130q0 -47 -30.5 -84.5t-83.5 -37.5q-33 0 -55.5 22t-22.5 53q0 13 5 26q42 0 71 17.5t29 39.5q0 43 -49 43q-24 0 -68 -18t-70 -18q-70 0 -119 59t-49 130q0 47 30.5 84.5t83.5 37.5q33 0 55.5 -22t22.5 -53q0 -13 -5 -26
q-42 0 -71 -17.5t-29 -43.5q0 -39 49 -39z" />
    <glyph glyph-name="uni0947" unicode="&#x947;" 
d="M-323 815q-41 0 -62 -41q-35 9 -54.5 35.5t-19.5 59.5t24.5 57t71.5 24t98 -37.5t84.5 -88t54 -95t20.5 -64.5t-13 -30.5t-32 -10.5q-94 191 -172 191z" />
    <glyph glyph-name="uni0948" unicode="&#x948;" 
d="M-348.5 1009.5q22.5 22.5 62 22.5t76 -34t56.5 -86q41 -107 41 -207q0 -22 -2 -35q-5 -35 -41 -46q-126 136 -197 136q-26 0 -46.5 -14t-26.5 -38q-34 0 -60 24.5t-26 61.5t29 60t70 23q61 0 123.5 -40t108.5 -93q-34 157 -109 157q-24 0 -48 -15q-33 26 -33 63.5
t22.5 60z" />
    <glyph glyph-name="uni0949" unicode="&#x949;" horiz-adv-x="283" 
d="M146 747q-93 0 -164.5 46.5t-71.5 95.5q0 29 28 44q61 -83 162 -83q47 0 88.5 22.5t62.5 67.5q26 -2 48 -23.5t22 -51.5q0 -55 -57 -86.5t-118 -31.5zM70 145l5 303q0 81 -15 104h-20q-126 0 -126 90q0 17 5 27h298q126 0 126 -85q0 -18 -7 -32h-167q39 -30 39 -121
l-5 -326q0 -80 15 -105q-18 -7 -42 -7q-106 0 -106 152z" />
    <glyph glyph-name="uni094A" unicode="&#x94a;" horiz-adv-x="283" 
d="M73 145l5 303q0 81 -15 104h-20q-126 0 -126 90q0 17 5 27h102q42 0 71 17.5t29 39.5q0 43 -49 43q-24 0 -68 -18t-70 -18q-70 0 -119 59t-49 130q0 47 30.5 84.5t83.5 37.5q33 0 55.5 -22t22.5 -53q0 -13 -5 -26q-42 0 -71 -17.5t-29 -43.5q0 -39 49 -39q24 0 68 18
t70 18q70 0 119 -59t49 -130q0 -7 -2 -21h11q126 0 126 -85q0 -18 -7 -32h-167q39 -30 39 -121l-5 -326q0 -80 15 -105q-17 -7 -42 -7q-106 0 -106 152z" />
    <glyph glyph-name="uni094B" unicode="&#x94b;" horiz-adv-x="283" 
d="M70 145l5 303q0 81 -15 104h-20q-126 0 -126 90q0 17 5 27h190q-79 146 -149 146q-42 0 -62 -41q-35 9 -54.5 35.5t-19.5 59.5t24.5 57t71 24t96.5 -36t83.5 -85t54.5 -93.5t23 -66.5h40q126 0 126 -85q0 -18 -7 -32h-167q39 -30 39 -121l-5 -326q0 -80 15 -105
q-18 -7 -42 -7q-106 0 -106 152z" />
    <glyph glyph-name="uni094C" unicode="&#x94c;" horiz-adv-x="283" 
d="M70 145l5 303q0 81 -15 104h-20q-126 0 -126 90q0 17 5 27h182q-93 91 -154 91q-26 0 -46.5 -14t-26.5 -38q-34 0 -60 24.5t-26 61.5t29 60t70 23q61 0 123.5 -40t108.5 -93q-34 157 -109 157q-24 0 -48 -15q-33 26 -33 63.5t22.5 60t62 22.5t76 -34t56.5 -86
q41 -107 41 -207q0 -25 -2 -36h32q126 0 126 -85q0 -18 -7 -32h-167q39 -30 39 -121l-5 -326q0 -80 15 -105q-18 -7 -42 -7q-106 0 -106 152z" />
    <glyph glyph-name="uni094D" unicode="&#x94d;" 
d="M-234 -164q-11 19 -11 46t23.5 49t62.5 22q72 0 145.5 -79.5t73.5 -129.5q0 -23 -23 -30q-99 134 -207 134q-31 0 -64 -12z" />
    <glyph glyph-name="uni0950" unicode="&#x950;" horiz-adv-x="917" 
d="M543 806.5q-19 -19.5 -52 -19.5t-61 28t-28 61t18.5 52t51.5 19t61.5 -28.5t28.5 -60.5t-19 -51.5zM530 621q-93 0 -164.5 46.5t-71.5 95.5q0 29 28 44q61 -83 162 -83q47 0 88.5 22.5t62.5 67.5q26 -2 48 -23.5t22 -51.5q0 -55 -57 -86.5t-118 -31.5zM659 562
q83 0 150.5 -85.5t67.5 -181.5t-51.5 -159.5t-126.5 -63.5q-41 0 -68 24.5t-27 71.5q74 0 117.5 61.5t43.5 141.5q0 31 -13.5 55.5t-43.5 24.5t-51 -36t-34.5 -78.5t-47.5 -78.5t-85 -36q-23 0 -42 8q10 -33 10 -61q0 -61 -42.5 -102t-110 -41t-123.5 28t-92 66.5t-58 76.5
t-22 60q0 36 42 49q34 -68 87.5 -115.5t120.5 -47.5q39 0 66 21.5t27 60.5q0 22 -10.5 39t-19.5 21q-31 -12 -72 -12t-76 21t-35 56t22 51.5t56 16.5t63 -13q55 35 55 77q0 24 -18.5 36t-49.5 12t-69 -13.5t-63 -34.5q-41 27 -41 69t38.5 64t87.5 22q86 0 148 -60t62 -145
q0 -63 -42 -105q19 -11 43 -11t44 25.5t33.5 61.5t29.5 72t46.5 61.5t73.5 25.5z" />
    <glyph glyph-name="uni0915093C" unicode="&#x958;" horiz-adv-x="784" 
d="M130 57.5q14 14.5 39 14.5t47 -22t22 -46.5t-14 -39t-39.5 -14.5t-47 21.5t-21.5 46.5t14 39.5zM456 285l-3 -180q0 -80 15 -105q-18 -7 -42 -7q-51 0 -74 30.5t-23 67.5t7 61q-34 -31 -90 -31q-83 0 -149.5 68t-66.5 155q0 57 37.5 99.5t95.5 42.5q41 0 67 -26.5
t26 -63.5q0 -6 -1 -11q-59 0 -95 -37q-26 -26 -26 -58t19 -50t45 -18q70 0 125 86q2 78 2 149.5t-15 94.5h-264q-126 0 -126 90q0 17 5 27h783q126 0 126 -85q0 -18 -7 -32h-407q29 -24 29 -78q0 -16 -3 -29q36 31 86 31q79 0 146.5 -69t67.5 -155q0 -57 -37.5 -99.5
t-95.5 -42.5q-41 0 -67 26.5t-26 63.5q0 6 1 11q60 0 96 37q25 26 25 58.5t-19 50t-45 17.5q-67 0 -122 -89z" />
    <glyph glyph-name="uni0916093C" unicode="&#x959;" horiz-adv-x="815" 
d="M64 33.5q14 14.5 39 14.5t47 -22t22 -46.5t-14 -39t-39.5 -14.5t-47 21.5t-21.5 46.5t14 39.5zM335 384q0 -62 -40 -103.5t-113 -46.5q29 -50 81.5 -77t112.5 -27q97 0 166.5 60t69.5 146q0 27 -12.5 46t-37.5 19t-38 -19t-13 -48q0 -51 26 -74q-16 -12 -39 -12
q-45 0 -77.5 32.5t-32.5 87.5t36.5 89.5t92.5 34.5t99 -35q-2 76 -21 95h-331q71 -78 71 -168zM743 431l-5 -326q0 -80 15 -105q-18 -7 -42 -7q-44 0 -66.5 25t-22.5 68q0 8 2 30q-36 -41 -95 -68t-127 -27q-90 0 -180.5 61t-125.5 166q-36 17 -58 45.5t-22 58t15.5 47.5
t43.5 18q53 0 76 -83q30 10 48 35t18 61q0 73 -42 122h-104q-126 0 -126 90q0 17 5 27h802q126 0 126 -85q0 -18 -7 -32h-167q39 -30 39 -121z" />
    <glyph glyph-name="uni0917093C" unicode="&#x95a;" horiz-adv-x="612" 
d="M105 104.5q14 14.5 39 14.5t47 -22t22 -46.5t-14 -39t-39.5 -14.5t-47 21.5t-21.5 46.5t14 39.5zM401 145l5 303q0 81 -15 104h-189q37 -36 59 -91t22 -116t-34 -96t-85 -35t-94 38.5t-43 93.5q0 31 17 47.5t42 16.5q38 0 63 -38q12 16 12 51q0 81 -63 129h-55
q-126 0 -126 90q0 17 5 27h627q126 0 126 -85q0 -18 -7 -32h-168q39 -30 39 -121l-5 -326q0 -80 15 -105q-17 -7 -42 -7q-106 0 -106 152z" />
    <glyph glyph-name="uni091C093C" unicode="&#x95b;" horiz-adv-x="725" 
d="M358 24.5q14 14.5 39 14.5t47 -22t22 -46.5t-14 -39t-39.5 -14.5t-47 21.5t-21.5 46.5t14 39.5zM516 145l4 190h-159q53 -58 53 -119.5t-33 -92.5t-88 -31t-111 38t-91 90t-56.5 101.5t-21.5 76.5t13.5 39t32.5 13q43 -121 95 -178.5t95 -57.5q30 0 45 17t15 45t-26 61
q-88 11 -88 88q0 17 5 27h321q0 75 -15 100h-445q-126 0 -126 90q0 17 5 27h722q126 0 126 -85q0 -18 -7 -32h-166q39 -30 39 -121l-5 -326q0 -80 15 -105q-18 -7 -42 -7q-106 0 -106 152z" />
    <glyph glyph-name="uni0921093C" unicode="&#x95c;" horiz-adv-x="549" 
d="M264 -91.5q14 14.5 39 14.5t47 -22t22 -46.5t-14 -39t-39.5 -14.5t-47 21.5t-21.5 46.5t14 39.5zM404 194l-140 -7q-76 0 -132.5 56.5t-56.5 133.5q0 55 37 86t105 31t113 -0.5t45 28.5q0 16 -18 30h-301q-126 0 -126 90q0 17 5 27h568q126 0 126 -85q0 -18 -7 -32h-181
q38 -40 38 -83t-28 -68t-81 -25l-105 1q-102 0 -102 -40q0 -31 44 -31l144 9q73 0 126.5 -54t53.5 -122.5t-46.5 -108t-125.5 -39.5q-121 0 -221.5 59.5t-100.5 113.5q0 25 27 35q40 -43 102 -67.5t128 -24.5t106.5 17.5t40.5 43.5t-37 26z" />
    <glyph glyph-name="uni0922093C" unicode="&#x95d;" horiz-adv-x="515" 
d="M226 -55.5q14 14.5 39 14.5t47 -22t22 -46.5t-14 -39t-39.5 -14.5t-47 21.5t-21.5 46.5t14 39.5zM454 669q126 0 126 -85q0 -18 -7 -32h-201q38 -32 38 -70t-28.5 -62.5t-69 -40.5t-80.5 -34t-68.5 -49.5t-28.5 -79t40 -79.5t96.5 -32t88.5 30.5t32 64.5q0 16 -8.5 25.5
t-20.5 9.5q-31 0 -42 -43q-4 -13 -4 -35q-9 -4 -24 -4q-32 0 -57 23t-25 62t30 65t75 26q68 0 123.5 -51.5t55.5 -121t-52.5 -108.5t-124.5 -39t-138 33.5t-111.5 93.5t-45.5 128q0 48 20 86t50.5 59.5t65.5 40t65 28.5q71 25 71 53q0 11 -10 21h-247q-126 0 -126 90
q0 17 5 27h537z" />
    <glyph glyph-name="uni092B093C" unicode="&#x95e;" horiz-adv-x="789" 
d="M73 137.5q14 14.5 39 14.5t47 -22t22 -46.5t-14 -39t-39.5 -14.5t-47 21.5t-21.5 46.5t14 39.5zM329 321l1 127q0 81 -15 104h-174q38 -29 38 -121l-2 -61q0 -46 14 -68.5t55 -22.5t83 42zM461 285l-3 -180q0 -80 15 -105q-17 -7 -42 -7q-54 0 -79.5 37.5t-25.5 81
t8 75.5q-20 -6 -42 -6q-91 0 -167.5 69t-76.5 143.5t-1 107.5t-14 51q-108 5 -108 90q0 17 5 27h783q126 0 126 -85q0 -18 -7 -32h-408q29 -26 29 -79q0 -9 -2 -29q34 32 86 32q82 0 148 -68.5t66 -155.5q0 -57 -37.5 -99.5t-95.5 -42.5q-41 0 -67 26.5t-26 63.5q0 6 1 11
q62 0 98 39q23 26 23 57.5t-19 49t-45 17.5q-67 0 -122 -89z" />
    <glyph glyph-name="uni092F093C" unicode="&#x95f;" horiz-adv-x="609" 
d="M118 65.5q14 14.5 39 14.5t47 -22t22 -46.5t-14 -39t-39.5 -14.5t-47 21.5t-21.5 46.5t14 39.5zM400 333l1 115q0 51 -3.5 71t-14.5 33h-121q30 -43 30 -90t-21 -77.5t-46 -44.5q-67 -38 -67 -58q0 -34 67 -34q49 0 99.5 22t75.5 63zM534 431l-5 -326q0 -80 15 -105
q-18 -7 -42 -7q-50 0 -72.5 33t-22.5 72.5t7 72.5q-51 -36 -124 -36q-91 0 -174 72.5t-83 140.5q0 36 77 76q30 16 54 42.5t24 50.5t-8 35h-104q-126 0 -126 90q0 17 5 27h591q126 0 126 -85q0 -18 -7 -32h-170q39 -30 39 -121z" />
    <glyph glyph-name="uni0960" unicode="&#x960;" horiz-adv-x="781" 
d="M434 431l-1 -109q74 6 111 46q-26 35 -26 67t19 52t50.5 20t60 -31.5t28.5 -76.5t-30 -86q49 -40 49 -87q0 -32 -35 -68t-35 -55q0 -27 32 -27t59.5 28.5t37.5 63.5q64 -16 64 -75q0 -44 -37.5 -68.5t-91.5 -24.5t-109 39.5t-55 96.5q0 26 19.5 49t39 41.5t19.5 29.5
t-1 14q-65 -47 -156 -47h-15q-2 -80 -2 -139t15 -84q-17 -7 -42 -7q-55 0 -79 35.5t-24 82t12 82.5q-132 -81 -204 -81q-41 0 -69.5 21.5t-28.5 70.5q80 0 243 95q-25 18 -38 27q-40 26 -85 26q-21 0 -38.5 -11t-25.5 -29q-24 10 -41 31t-17 53t25.5 53.5t65 21.5t73 -17
t73 -52.5t56.5 -46.5q1 27 1 100.5t-15 96.5h-243q-126 0 -126 90q0 17 5 27h796q126 0 126 -85q0 -18 -7 -32h-442q39 -30 39 -121z" />
    <glyph glyph-name="uni0961" unicode="&#x961;" horiz-adv-x="734" 
d="M671 669q126 0 126 -85q0 -18 -7 -32h-275q39 -30 39 -121v-10q52 -27 85.5 -72.5t33.5 -93t-20.5 -82t-45.5 -53.5q-66 -50 -66 -78.5t32 -28.5t58 39q28 -8 43.5 -27t15.5 -42t-15.5 -42.5t-34.5 -31t-34.5 -29t-15.5 -34t9 -26t25 -9.5q32 0 57.5 24t34.5 58
q28 -2 49.5 -23.5t21.5 -56.5t-34.5 -64t-93.5 -29t-111.5 45t-52.5 102t29 91q-36 19 -60.5 53.5t-24.5 69.5t19 62.5t41.5 45t41.5 44t19 54.5t-18 44t-44.5 16t-52 -16.5t-39.5 -49.5q5 -23 5 -48.5t-16 -51t-50.5 -25.5t-54 31t-19.5 73t20 82q-22 12 -49 12
q-43 0 -64.5 -29t-21.5 -78q0 -105 76 -218q-13 -23 -40 -23t-67 46t-70 116.5t-30 139.5t44 109t118 40t144 -57q40 39 90 46v2q0 81 -15 104h-363q-126 0 -126 90q0 17 5 27h749z" />
    <glyph glyph-name="uni0964" unicode="&#x964;" horiz-adv-x="606" 
d="M396 522l-5 -417q0 -80 15 -105q-18 -7 -42 -7q-106 0 -106 152q0 36 2.5 155t2.5 263q0 81 -15 104q18 7 42 7q106 0 106 -152z" />
    <glyph glyph-name="uni0965" unicode="&#x965;" horiz-adv-x="767" 
d="M396 522l-5 -417q0 -80 15 -105q-18 -7 -42 -7q-106 0 -106 152q0 36 2.5 155t2.5 263q0 81 -15 104q18 7 42 7q106 0 106 -152zM646 522l-5 -417q0 -80 15 -105q-18 -7 -42 -7q-106 0 -106 152q0 36 2.5 155t2.5 263q0 81 -15 104q18 7 42 7q106 0 106 -152z" />
    <glyph glyph-name="uni0966" unicode="&#x966;" horiz-adv-x="543" 
d="M113 495q55 64 151 64t161 -68.5t65 -171t-53.5 -163t-148 -60.5t-162.5 67.5t-68 167.5t55 164zM255 179q44 0 77.5 49t33.5 134q0 112 -68 112q-42 0 -76.5 -47.5t-34.5 -130.5q0 -117 68 -117z" />
    <glyph glyph-name="uni0967" unicode="&#x967;" horiz-adv-x="486" 
d="M422 441q0 -42 -22 -76.5t-53.5 -55.5t-63 -37t-53.5 -29.5t-22 -27t20 -36t44.5 -42t44.5 -48t20 -62t-24.5 -52t-51.5 -18.5q-54 0 -81 49q25 21 25 50.5t-23 59t-50 52t-50 51t-23 53.5t27.5 46.5t66 39t77.5 36t66.5 46t27.5 57.5t-17 53t-51 23t-55 -25.5t-21 -64.5
t22 -68q-10 -4 -21 -4q-50 0 -82.5 38.5t-32.5 93.5t41.5 95.5t103.5 40.5q79 0 145 -70t66 -168z" />
    <glyph glyph-name="uni0968" unicode="&#x968;" horiz-adv-x="503" 
d="M382 55q19 0 32 4q10 -22 10 -49t-19 -48.5t-57 -21.5q-125 0 -201 259q-46 18 -77 53.5t-31 81.5q0 28 17 48t46 20q61 0 89 -89q74 4 122 42t48 85.5t-30.5 76.5t-87 29t-107.5 -39q-15 10 -28 32t-13 49q0 42 34 67t81 25q97 0 169.5 -88t72.5 -198q0 -86 -66 -144
t-158 -63q21 -62 56 -97t98 -35z" />
    <glyph glyph-name="uni0969" unicode="&#x969;" horiz-adv-x="492" 
d="M378 375q61 -69 61 -138t-52 -109.5t-126 -40.5q-12 0 -38 2q33 -60 86 -60q28 0 42 16q28 -25 28 -59.5t-22.5 -57t-64.5 -22.5t-75.5 34t-47 76t-18.5 91q-46 17 -73.5 47.5t-27.5 62.5t17 50.5t45 18.5q63 0 84 -88q15 -3 31 -3q43 0 75 23.5t32 58t-18 54.5
q-29 -13 -72 -13t-78 21t-35 56t22 51.5t53 16.5t67 -12q48 32 48 71q0 24 -18.5 36t-49.5 12t-69 -13.5t-63 -34.5q-41 27 -41 69t38.5 64t87.5 22q86 0 148 -60t62 -145q0 -55 -38 -97z" />
    <glyph glyph-name="uni096A" unicode="&#x96a;" horiz-adv-x="537" 
d="M197 131q20 -19 49 -19t51 20.5t22 51.5q0 55 -56 113q-86 -70 -86 -114q0 -33 20 -52zM459.5 617.5q25.5 -27.5 25.5 -65t-25.5 -76t-54 -64.5t-77.5 -64q119 -96 119 -178q0 -62 -48 -103.5t-113 -41.5q-93 0 -157 62t-64 138.5t94 158.5q-116 89 -138 136
q-11 24 -11 57t25 57t60.5 24t61 -25.5t25.5 -63.5q-36 -11 -36 -45.5t73 -91.5q91 69 116 97q42 46 42 90q0 11 -3 25l17 1q43 0 68.5 -27.5z" />
    <glyph glyph-name="uni096B" unicode="&#x96b;" horiz-adv-x="568" 
d="M556 66q11 -22 11 -50.5t-19 -50t-57 -21.5q-101 0 -159 205q-20 -3 -40 -3q-104 0 -183 68.5t-79 170t87.5 193.5t163.5 92q49 0 71.5 -25.5t22.5 -47.5q-84 -27 -157 -107.5t-73 -164.5q0 -37 24 -61t63.5 -24t69.5 14q-9 21 -9 55t22.5 57t56 23t60 -31t26.5 -79
q0 -66 -57 -103q17 -54 45 -84t78 -30q19 0 32 4z" />
    <glyph glyph-name="uni096C" unicode="&#x96c;" horiz-adv-x="506" 
d="M486 2q0 -38 -24 -64t-60.5 -26t-61.5 21t-29 53q38 7 56.5 27t18.5 39.5t-5 37.5q-39 -16 -89 -16q-99 0 -171 66.5t-72 141.5q0 56 37 98q-56 56 -56 127.5t56.5 116.5t129 45t117 -25t44.5 -75q0 -26 -15 -42q-50 26 -100 26t-86.5 -22t-36.5 -70q0 -17 8 -35
q41 21 86.5 21t74.5 -21t29 -51.5t-28 -46.5t-58.5 -16t-54.5 6q-40 -35 -40 -74.5t23 -59t64.5 -19.5t82.5 24q-5 13 -5 35t19 39t48.5 17t53 -27.5t23.5 -63.5t-29 -65q50 -65 50 -122z" />
    <glyph glyph-name="uni096D" unicode="&#x96d;" horiz-adv-x="660" 
d="M366 456q0 -89 101 -125q-14 -43 -68.5 -43t-110 54.5t-55.5 137.5q0 65 44.5 106.5t104.5 41.5q94 0 169 -84.5t75 -215.5t-67 -206t-176 -75q-76 0 -140.5 40.5t-106 102.5t-70.5 140q-56 145 -56 282q0 60 64 60q28 -241 105 -375t183 -134q79 0 116.5 59.5t37.5 143
t-25.5 126t-56 42.5t-49.5 -20t-19 -58z" />
    <glyph glyph-name="uni096E" unicode="&#x96e;" horiz-adv-x="514" 
d="M402 260q64 -26 64 -85t-47.5 -100.5t-136.5 -41.5q-109 0 -180.5 69.5t-71.5 163t70 172.5q146 163 201 232l20 25q32 -8 50.5 -30.5t18.5 -49.5t-14 -54t-29.5 -46.5t-55.5 -64.5t-65 -75q-85 -100 -85 -161q0 -36 24.5 -58t65 -22t87.5 30t84 96z" />
    <glyph glyph-name="uni096F" unicode="&#x96f;" horiz-adv-x="487" 
d="M173.5 527.5q-32.5 -37.5 -32.5 -81.5t22.5 -84.5t57 -72.5t74 -67t74 -65.5t57 -67.5t22.5 -76.5t-26.5 -66t-62.5 -26.5q-57 0 -91 60q52 27 52 68q0 30 -32 69t-77.5 81t-91 88t-77.5 104.5t-32 123.5t52 114t145.5 49t163.5 -68.5t70 -144.5q0 -62 -35 -100t-84 -38
q-60 0 -83 58q33 17 56 47.5t23 63.5t-18.5 51.5t-46.5 18.5q-47 0 -79.5 -37.5z" />
    <glyph glyph-name="uni0970" unicode="&#x970;" horiz-adv-x="390" 
d="M322 212q-43 -48 -117.5 -48t-114.5 43.5t-40 106t43 110.5t117.5 48t114.5 -43.5t40 -106t-43 -110.5zM249.5 367.5q-15.5 22.5 -43 22.5t-41.5 -19.5t-14 -49t15.5 -52t43 -22.5t41.5 20t14 49t-15.5 51.5z" />
    <glyph glyph-name="uni0972" unicode="&#x972;" horiz-adv-x="795" 
d="M652 747q-93 0 -164.5 46.5t-71.5 95.5q0 29 28 44q61 -83 162 -83q47 0 88.5 22.5t62.5 67.5q26 -2 48 -23.5t22 -51.5q0 -55 -57 -86.5t-118 -31.5zM714 431l-5 -326q0 -80 15 -105q-18 -7 -42 -7q-106 0 -106 144q0 46 10 109q-16 -4 -45.5 -4t-69.5 16q7 -28 7 -49
q0 -61 -42.5 -102t-110 -41t-123.5 28t-92 66.5t-58 76.5t-22 60q0 36 42 49q34 -68 87.5 -115.5t120.5 -47.5q39 0 66 21.5t27 60.5q0 22 -10.5 39t-19.5 21q-31 -12 -72 -12t-76 21t-35 56t22 51.5t54 16.5t64 -14q56 34 56 78q0 24 -18.5 36t-49.5 12t-69 -13.5
t-63 -34.5q-41 27 -41 69t38.5 64t87.5 22q86 0 148 -60t62 -145q0 -62 -42 -104q39 -24 86.5 -24t84.5 28q1 22 1 88t-17 92l1 1q-96 7 -96 89q0 17 5 27h258q126 0 126 -85q0 -18 -7 -32h-178q41 -30 41 -121z" />
    <glyph glyph-name="uni097D" unicode="&#x97d;" horiz-adv-x="592" 
d="M315 202l-2 -123q0 -59 11 -78q-14 -5 -31 -5q-79 0 -79 113v89q0 108 10.5 146t15.5 45.5t19.5 27t26 30t38 35t40.5 38.5q37 39 37 62q0 49 -62 49q-80 0 -156 -63q-48 34 -48 79t39 71t90 26q90 0 161.5 -59t71.5 -147q0 -28 -12 -54t-24 -40.5t-29.5 -33.5
t-41.5 -43.5t-29 -30t-18 -22t-15 -23t-7 -22.5q-6 -19 -6 -67z" />
    <glyph glyph-name="uni200B" unicode="&#x200b;" 
 />
    <glyph glyph-name="uni200C" unicode="&#x200c;" horiz-adv-x="11" 
d="M-19 -301l-1 1033q0 61 42 61q9 0 16 -4q-5 -9 -5 -41l1 -1033q0 -61 -42 -61q-9 0 -16 4q5 9 5 41z" />
    <glyph glyph-name="uni200D" unicode="&#x200d;" 
d="M18 611l1 -896q0 -61 -42 -61q-9 0 -16 4q5 9 5 70.5t-0.5 413.5t-0.5 468l-39 -36q-24 -24 -45.5 -24t-29.5 25l103 96l-103 97q10 24 31.5 24t44.5 -23l65 -61l65 61q23 23 44.5 23t31.5 -24l-103 -97l103 -96q-8 -25 -29.5 -25t-45.5 24z" />
    <glyph glyph-name="endash" unicode="&#x2013;" horiz-adv-x="794" 
d="M205 416h523q6 -11 6 -35.5t-12 -45.5t-26.5 -31t-37.5 -16q-28 -6 -69 -6h-521q-8 19 -8 41.5t12 42.5t26.5 29t37.5 15q28 6 69 6z" />
    <glyph glyph-name="emdash" unicode="&#x2014;" horiz-adv-x="1038" 
d="M205 416h767q6 -10 6 -35t-12 -46t-26.5 -31t-37.5 -16q-28 -6 -69 -6h-765q-8 19 -8 41.5t12 42.5t26.5 29t37.5 15q28 6 69 6z" />
    <glyph glyph-name="quoteleft" unicode="&#x2018;" horiz-adv-x="349" 
d="M210 782q0 -36 17 -66t50 -43q-10 -29 -34.5 -48.5t-66.5 -19.5t-73 30.5t-31 80.5q0 86 58.5 150t108.5 64q27 0 33 -29q-62 -47 -62 -119z" />
    <glyph glyph-name="quoteright" unicode="&#x2019;" horiz-adv-x="349" 
d="M77 634q62 45 62 122t-67 106q10 29 34.5 48.5t66.5 19.5t73 -30.5t31 -81.5q0 -85 -58.5 -149t-108.5 -64q-26 0 -33 29z" />
    <glyph glyph-name="quotesinglbase" unicode="&#x201a;" horiz-adv-x="720" 
d="M82 -196q74 57 74 141.5t-70 126.5q12 34 39 58t68.5 24t73.5 -39.5t32 -106.5q0 -91 -60 -164t-118 -73q-31 0 -39 33z" />
    <glyph glyph-name="quotedblleft" unicode="&#x201c;" horiz-adv-x="590" 
d="M451 782q0 -35 17 -65t50 -44q-10 -29 -34.5 -48.5t-66.5 -19.5t-73 30.5t-31 80.5q0 86 59 150t108 64q27 0 34 -29q-63 -46 -63 -119zM210 782q0 -36 17 -66t50 -43q-10 -29 -34.5 -48.5t-66.5 -19.5t-73 30.5t-31 80.5q0 86 58.5 150t108.5 64q27 0 33 -29
q-62 -47 -62 -119z" />
    <glyph glyph-name="quotedblright" unicode="&#x201d;" horiz-adv-x="590" 
d="M77 634q62 45 62 122t-67 106q10 29 34.5 48.5t66.5 19.5t73 -30.5t31 -81.5q0 -85 -58.5 -149t-108.5 -64q-26 0 -33 29zM318 634q62 45 62 122t-67 106q10 29 34.5 48.5t66.5 19.5t73 -30.5t31 -81.5q0 -85 -58.5 -149t-107.5 -64q-27 0 -34 29z" />
    <glyph glyph-name="quotedblbase" unicode="&#x201e;" horiz-adv-x="720" 
d="M82 -196q74 57 74 141.5t-70 126.5q12 34 39 58t68.5 24t73.5 -39.5t32 -106.5q0 -91 -60 -164t-118 -73q-31 0 -39 33z" />
    <glyph glyph-name="dagger" unicode="&#x2020;" horiz-adv-x="658" 
d="M262 -107l-4 449q0 149 6 197q-80 -6 -246 -6q-8 14 -8 39t12 45t26.5 29t37.5 14q28 7 66.5 7t110.5 -3q-7 52 -7 104q0 157 110 157q25 0 44 -7q-16 -24 -16 -117.5t-4 -140.5q67 7 252 7q6 -11 6 -35.5t-12 -45.5t-26.5 -31t-37.5 -15q-28 -7 -85.5 -7t-100.5 5
q14 -118 14 -603q0 -157 -111 -157q-24 0 -44 7q17 26 17 108z" />
    <glyph glyph-name="daggerdbl" unicode="&#x2021;" horiz-adv-x="658" 
d="M410 918q-16 -24 -16 -117.5t-4 -140.5q67 7 252 7q6 -11 6 -35.5t-12 -45.5t-26.5 -31t-37.5 -15q-28 -7 -85.5 -7t-100.5 5q9 -76 10 -200t-5 -182q68 7 255 7q6 -14 6 -40.5t-15.5 -49.5t-43.5 -31q-67 -21 -202 -10q9 -54 9 -97q0 -157 -111 -157q-24 0 -44 7
q17 26 17 114.5t6 135.5q-80 -6 -246 -6q-9 16 -9 40t12 44t26.5 29t38.5 14q27 7 83 7t92 -3q-7 54 -7 186t7 193q-58 -6 -247 -6q-8 14 -8 39t12 45t26.5 29t37.5 14q28 7 66.5 7t110.5 -3q-7 52 -7 104q0 157 110 157q25 0 44 -7z" />
    <glyph glyph-name="bullet" unicode="&#x2022;" horiz-adv-x="556" 
d="M437 442q0 -74 -56.5 -131t-123.5 -57t-104.5 39t-37.5 96q0 73 58 130t123.5 57t103 -38.5t37.5 -95.5z" />
    <glyph glyph-name="ellipsis" unicode="&#x2026;" horiz-adv-x="1049" 
d="M237.5 157q22.5 -23 22.5 -62t-33.5 -73t-73 -34t-62.5 23t-23 62t34.5 73t73.5 34t61.5 -23zM597.5 157q22.5 -23 22.5 -62t-33.5 -73t-73 -34t-62.5 23t-23 62t34.5 73t73.5 34t61.5 -23zM957.5 157q22.5 -23 22.5 -62t-33.5 -73t-73 -34t-62.5 23t-23 62t34.5 73
t73.5 34t61.5 -23z" />
    <glyph glyph-name="perthousand" unicode="&#x2030;" horiz-adv-x="1343" 
d="M1227.5 57q-55.5 -68 -135.5 -68t-123.5 56.5t-43.5 141.5t52.5 153t133.5 68t126.5 -57t45.5 -141.5t-55.5 -152.5zM1137 271q-14 36 -36.5 36t-36.5 -27.5t-14 -74t14 -82t35.5 -35.5t36.5 26t15 73.5t-14 83.5zM362.5 395.5q-55.5 -67.5 -135.5 -67.5t-123.5 56.5
t-43.5 141t52.5 152.5t133.5 68t126.5 -57t45.5 -141.5t-55.5 -152zM272 610q-14 36 -36.5 36t-36.5 -28t-14 -74.5t14 -82t35.5 -35.5t36.5 26t15 74t-14 84zM640 683q44 63 85 63t62 -39q-17 -6 -55 -59l-424 -594q-45 -66 -85.5 -66t-60.5 41q9 4 26.5 23t29.5 37z
M831.5 57q-55.5 -68 -135.5 -68t-123.5 56.5t-43.5 141.5t52.5 153t133.5 68t126.5 -57t45.5 -141.5t-55.5 -152.5zM741 271q-14 36 -36.5 36t-36.5 -27.5t-14 -74t14 -82t35.5 -35.5t36.5 26t15 73.5t-14 83.5z" />
    <glyph glyph-name="guilsinglleft" unicode="&#x2039;" horiz-adv-x="346" 
d="M207.5 487q-26.5 -46 -26.5 -82.5t27 -83.5t102 -146q-3 -7 -12.5 -14t-21.5 -7q-34 0 -92 46.5t-103 107.5t-45 96.5t45 96.5t103 107.5t92 46.5q12 0 21.5 -7t12.5 -14q-76 -101 -102.5 -147z" />
    <glyph glyph-name="guilsinglright" unicode="&#x203a;" horiz-adv-x="346" 
d="M264.5 501q45.5 -61 45.5 -96.5t-45.5 -96.5t-103.5 -107.5t-91 -46.5q-12 0 -22 7.5t-12 13.5q74 98 101 145.5t27 84t-26.5 83t-101.5 146.5q2 6 12 13.5t22 7.5q33 0 91 -46.5t103.5 -107.5z" />
    <glyph glyph-name="fraction" unicode="&#x2044;" horiz-adv-x="721" 
d="M526 683q44 63 85 63t62 -39q-17 -6 -55 -59l-424 -594q-45 -66 -85.5 -66t-60.5 41q9 4 26.5 23t29.5 37z" />
    <glyph glyph-name="Euro" unicode="&#x20ac;" horiz-adv-x="779" 
d="M305 377l1 -43h224q5 -5 5 -18q0 -64 -90 -64h-124q38 -128 176 -128q60 0 117 31.5t90 70.5q17 -6 26 -24t9 -38q0 -61 -82 -118t-200 -57t-197 68.5t-103 194.5h-104q-5 7 -5 22q0 60 90 60h11q-1 9 -1 26t2 49h-97q-5 7 -5 22q0 60 90 60h25q29 120 113 187.5
t201.5 67.5t191.5 -36t74 -94q0 -41 -32 -61t-76.5 -20t-78.5 21q1 10 1 19q0 32 -18 57.5t-68 25.5t-92.5 -44.5t-60.5 -122.5h212q5 -5 5 -18q0 -64 -90 -64h-139q-1 -10 -1 -32z" />
    <glyph glyph-name="uni20B9" unicode="&#x20b9;" horiz-adv-x="531" 
d="M559 486q0 -68 -97 -68h-7v-12q0 -80 -42.5 -135.5t-115.5 -71.5q39 -123 128 -123q9 0 17 1q1 -5 1 -10q0 -30 -23 -52t-61 -22q-123 0 -185 214q-76 32 -76 94q0 28 19 45.5t48 17.5q72 0 109 -87q67 29 67 114q0 9 -2 27h-296q-5 12 -5 25q0 65 97 65h176
q-22 44 -52 71h-216q-5 13 -5 25q0 65 97 65h420q4 -8 4 -22q0 -68 -97 -68h-70q28 -31 44 -71h119q4 -8 4 -22z" />
    <glyph glyph-name="trademark" unicode="&#x2122;" horiz-adv-x="1066" 
d="M108 742h211q66 0 66 -53q0 -19 -18 -41q-30 13 -78 13h-39v-306q0 -32 21 -43q-23 -26 -66 -26q-65 0 -65 72v303h-64q-64 0 -64 53q0 22 17 42q27 -14 79 -14zM953 288q-69 0 -73 62l-19 309l-117 -339q-11 -27 -36.5 -26.5t-33 7.5t-10.5 21l-123 339l-20 -308
q-2 -35 -14.5 -51t-44 -16t-55.5 24q18 17 21 48l27 312v10q0 26 -13 42q41 24 99 24t82.5 -23.5t43.5 -79.5l53 -157l47 154q21 63 50.5 84.5t82 21.5t83.5 -14q-11 -16 -11 -46v-10l19 -315q2 -43 15 -62q-29 -11 -53 -11z" />
    <glyph glyph-name="minus" unicode="&#x2212;" horiz-adv-x="732" 
d="M181 480h509q6 -11 6 -35.5t-12 -45.5t-26.5 -31t-37.5 -16q-28 -6 -69 -6h-507q-8 19 -8 41.5t12 42.5t26.5 29t37.5 15q28 6 69 6z" />
    <glyph glyph-name="uni25CC" unicode="&#x25cc;" horiz-adv-x="825" 
d="M134 270l111 24q6 -28 19 -55l-96 -56q-23 38 -34 87zM242 333h-114q0 47 14 92l108 -36q-8 -27 -8 -56zM206 132l81 74q19 -21 46 -38l-53 -92q-45 24 -74 56zM228 554l74 -82q-21 -19 -37 -45l-97 56q25 41 60 71zM428 144v-104q-48 0 -91 12l33 100q29 -8 58 -8z
M612 333h115q0 -50 -15 -92l-108 35q8 29 8 57zM366 620l23 -106q-33 -7 -55 -19l-54 95q43 23 86 30zM489 46l-22 102q32 8 55 21l53 -93q-41 -23 -86 -30zM428 518v108q44 0 90 -13l-34 -104q-31 9 -56 9zM628 112l-74 81q21 20 35 46l97 -56q-22 -40 -58 -71zM649 533
l-83 -76q-19 21 -45 37l55 96q41 -23 73 -57zM687 482q24 -39 33 -87l-112 -24q-6 28 -19 55z" />
    <glyph glyph-name="uni0915094D" horiz-adv-x="557" 
d="M456 285l-3 -180q0 -80 15 -105q-18 -7 -42 -7q-51 0 -74 30.5t-23 67.5t7 61q-34 -31 -90 -31q-83 0 -149.5 68t-66.5 155q0 57 37.5 99.5t95.5 42.5q41 0 67 -26.5t26 -63.5q0 -6 -1 -11q-59 0 -95 -37q-26 -26 -26 -58t19 -50t45 -18q70 0 125 86q2 78 2 149.5
t-15 94.5h-264q-126 0 -126 90q0 17 5 27h567q126 0 126 -85q0 -18 -7 -32h-191q29 -24 29 -78q0 -19 -3 -34q43 36 104 36t105 -44t44 -89q0 -27 -17 -40q-9 -7 -19 -7t-21 6q0 36 -18 54t-46 18q-67 0 -122 -89z" />
    <glyph glyph-name="uni0916094D" horiz-adv-x="602" 
d="M335 384q0 -62 -40 -103.5t-113 -46.5q29 -50 81.5 -77t112.5 -27q97 0 166.5 60t69.5 146q0 27 -12.5 46t-37.5 19t-38 -19t-13 -48q0 -51 26 -74q-16 -12 -39 -12q-45 0 -77.5 32.5t-32.5 87.5t36.5 89.5t92.5 34.5q82 0 131 -61.5t49 -146.5q0 -101 -69 -178
q-35 -39 -93.5 -62t-140.5 -23t-172.5 61t-125.5 166q-36 17 -58 45.5t-22 58t15.5 47.5t43.5 18q53 0 76 -83q30 10 48 35t18 61q0 73 -42 122h-104q-126 0 -126 90q0 17 5 27h606q126 0 126 -85q0 -18 -7 -32h-411q71 -78 71 -168z" />
    <glyph glyph-name="uni0917094D" horiz-adv-x="347" 
d="M287 669q126 0 126 -85q0 -18 -7 -32h-204q37 -36 59 -91t22 -116t-34 -96t-85 -35t-94 38.5t-43 93.5q0 31 17 47.5t42 16.5q38 0 63 -38q12 16 12 51q0 81 -63 129h-55q-126 0 -126 90q0 17 5 27h365z" />
    <glyph glyph-name="uni0918094D" horiz-adv-x="387" 
d="M152 446q0 -7 2 -21q36 18 77.5 18t70.5 -21t29 -51t-24.5 -46.5t-52 -16.5t-44.5 4q-30 -21 -30 -52t21 -46.5t52 -15.5q63 0 118 38t79 97q38 -5 56.5 -27t18.5 -47q0 -62 -67.5 -108.5t-158.5 -46.5t-160.5 60t-69.5 129q0 45 26 82q-54 54 -54 120q0 30 12 60
q-16 -2 -27 -2q-46 0 -77.5 20.5t-31.5 68.5q0 17 5 27h382q126 0 126 -85q0 -18 -7 -32h-210q-61 -33 -61 -106z" />
    <glyph glyph-name="uni0919094D" horiz-adv-x="661" 
d="M285 -76q72 0 145.5 -79.5t73.5 -129.5q0 -23 -23 -30q-99 134 -207 134q-31 0 -64 -12q-11 19 -11 46t23.5 49t62.5 22zM534 388.5q16 16.5 44.5 16.5t54 -25t25.5 -53t-16.5 -45t-45 -17t-53.5 24.5t-25 53.5t16 45.5zM404 194l-140 -7q-76 0 -132.5 56.5t-56.5 133.5
q0 55 37 86t105 31t113 -0.5t45 28.5q0 16 -18 30h-301q-126 0 -126 90q0 17 5 27h663q126 0 126 -85q0 -18 -7 -32h-276q38 -40 38 -83t-28 -68t-81 -25l-105 1q-102 0 -102 -40q0 -31 44 -31l144 9q73 0 126.5 -54t53.5 -122.5t-46.5 -108t-125.5 -39.5
q-121 0 -221.5 59.5t-100.5 113.5q0 25 27 35q40 -43 102 -67.5t128 -24.5t106.5 17.5t40.5 43.5t-37 26z" />
    <glyph glyph-name="uni091A094D" horiz-adv-x="442" 
d="M34 552q-126 0 -126 90q0 17 5 27h465q126 0 126 -85q0 -18 -7 -32h-463zM330 349q-38 0 -64.5 -18t-26.5 -49t23 -48.5t66 -17.5t96.5 32.5t79.5 87.5q60 -29 60 -86.5t-56.5 -99.5t-142 -42t-155 69.5t-69.5 140.5q0 20 6 40q-28 -10 -59.5 -10t-61 22t-29.5 67
q0 17 5 27h244q126 0 126 -85q0 -16 -7 -30h-35z" />
    <glyph glyph-name="uni091B094D" horiz-adv-x="694" 
d="M161 444q0 -21 6 -39q35 11 73.5 11t66.5 -20t28 -50.5t-24.5 -47.5t-52.5 -17t-56 7q-39 -25 -39 -67.5t39.5 -68.5t99.5 -26q97 0 177 59t80 158q0 20 -7 37q-17 -40 -62.5 -40t-72.5 27t-27 62t24.5 56t59.5 21q78 0 128 -65.5t50 -145.5q0 -125 -80.5 -199
t-203.5 -74t-217 70.5t-94 172.5q0 55 40 97q-45 58 -45 124q0 37 14 69q-16 -2 -27 -2q-46 0 -77.5 20.5t-31.5 68.5q0 17 5 27h696q126 0 126 -85q0 -18 -7 -32h-524q-65 -35 -65 -108z" />
    <glyph glyph-name="uni091C094D" horiz-adv-x="473" 
d="M61 552q-126 0 -126 90q0 17 5 27h472q126 0 126 -85q0 -18 -7 -32h-470zM462 452q126 0 126 -85q0 -18 -7 -32h-220q53 -58 53 -119.5t-33 -92.5t-88 -31t-111 38t-91 90t-56.5 101.5t-21.5 76.5t13.5 39t32.5 13q43 -121 95 -178.5t95 -57.5q30 0 45 17t15 45t-26 61
q-88 11 -88 88q0 17 5 27h262z" />
    <glyph glyph-name="uni091D094D" horiz-adv-x="548" 
d="M205 494l77 -1q51 0 51 28q0 19 -18 31h-272q-126 0 -126 90q0 17 5 27h564q126 0 126 -85q0 -18 -7 -32h-205q37 -38 37 -82t-28 -69t-81 -25l-74 1q-102 0 -102 -37q0 -30 46 -30l91 8q31 0 96 -11.5t114.5 -11.5t83.5 12t64 37q34 -20 34 -62t-35.5 -64t-91 -22
t-106.5 20q21 -42 21 -82q0 -65 -47.5 -104t-124.5 -39q-43 0 -86 8q53 -82 120 -82q36 0 61 21q31 -26 31 -62.5t-25.5 -57.5t-61.5 -21q-131 0 -202 226q-101 47 -101 131q0 22 14 37.5t40.5 15.5t49 -25t31.5 -58q31 -17 80.5 -17t90 18t40.5 43q0 30 -35 30l-91 -7
q-76 0 -132.5 55.5t-56.5 130.5q0 55 37 86t104 31z" />
    <glyph glyph-name="uni091E094D" horiz-adv-x="509" 
d="M43 552q-126 0 -126 90q0 17 5 27h523q126 0 126 -85q0 -18 -7 -32h-521zM618 381q34 -29 34 -68.5t-27 -59.5t-77 -20t-91 16q-1 -67 -44.5 -106t-105 -39t-111.5 24t-84.5 60.5t-60.5 77.5q-51 82 -51 136q0 26 14 38t32 13q82 -228 215 -228q46 0 74 26t28 53.5
t-14 42.5t-36 15t-40 -13.5t-27 -32.5q-27 8 -46.5 32.5t-19.5 55.5t23 54.5t71 23.5t96.5 -42t71.5 -106h10q95 0 166 47z" />
    <glyph glyph-name="uni091F094D" horiz-adv-x="485" 
d="M239 13q72 0 145.5 -79.5t73.5 -129.5q0 -23 -23 -30q-99 134 -207 134q-31 0 -64 -12q-11 19 -11 46t23.5 49t62.5 22zM424 669q126 0 126 -85q0 -18 -7 -32h-210q45 -35 45 -73.5t-24.5 -64.5t-59 -42.5t-69 -34t-59 -45.5t-24.5 -64t26 -59t71.5 -23t88.5 34.5
t53 83.5q38 -3 63 -30t25 -69t-45 -79.5t-135 -37.5t-176.5 68.5t-86.5 155.5q0 50 24 87t58 57.5t68 36t58 32t24 35t-12 32.5h-190q-126 0 -126 90q0 17 5 27h489z" />
    <glyph glyph-name="uni0920094D" horiz-adv-x="520" 
d="M248 4q72 0 145.5 -79.5t73.5 -129.5q0 -23 -23 -30q-99 134 -207 134q-31 0 -64 -12q-11 19 -11 46t23.5 49t62.5 22zM334 173.5q41 36.5 41 79t-31 71t-79 34.5q-97 -48 -117 -91q-10 -21 -10 -46q0 -42 29 -63t67 -21q59 0 100 36.5zM459 669q126 0 126 -85
q0 -18 -7 -32h-237q43 -34 43 -76.5t-48 -76.5q76 -4 120 -56.5t44 -116.5q0 -86 -62.5 -136.5t-153.5 -50.5t-174 71t-83 157q0 51 24.5 89t59.5 59t69.5 37.5t59 33.5t24.5 35t-10 31h-198q-126 0 -126 90q0 17 5 27h524z" />
    <glyph glyph-name="uni0921094D" horiz-adv-x="549" 
d="M278 -44q72 0 145.5 -79.5t73.5 -129.5q0 -23 -23 -30q-99 134 -207 134q-31 0 -64 -12q-11 19 -11 46t23.5 49t62.5 22zM404 194l-140 -7q-76 0 -132.5 56.5t-56.5 133.5q0 55 37 86t105 31t113 -0.5t45 28.5q0 16 -18 30h-301q-126 0 -126 90q0 17 5 27h568
q126 0 126 -85q0 -18 -7 -32h-181q38 -40 38 -83t-28 -68t-81 -25l-105 1q-102 0 -102 -40q0 -31 44 -31l144 9q73 0 126.5 -54t53.5 -122.5t-46.5 -108t-125.5 -39.5q-121 0 -221.5 59.5t-100.5 113.5q0 25 27 35q40 -43 102 -67.5t128 -24.5t106.5 17.5t40.5 43.5t-37 26z
" />
    <glyph glyph-name="uni0922094D" horiz-adv-x="515" 
d="M248 -26q72 0 145.5 -79.5t73.5 -129.5q0 -23 -23 -30q-99 134 -207 134q-31 0 -64 -12q-11 19 -11 46t23.5 49t62.5 22zM454 669q126 0 126 -85q0 -18 -7 -32h-201q38 -32 38 -70t-28.5 -62.5t-69 -40.5t-80.5 -34t-68.5 -49.5t-28.5 -79t40 -79.5t96.5 -32t88.5 30.5
t32 64.5q0 16 -8.5 25.5t-20.5 9.5q-31 0 -42 -43q-4 -13 -4 -35q-9 -4 -24 -4q-32 0 -57 23t-25 62t30 65t75 26q68 0 123.5 -51.5t55.5 -121t-52.5 -108.5t-124.5 -39t-138 33.5t-111.5 93.5t-45.5 128q0 48 20 86t50.5 59.5t65.5 40t65 28.5q71 25 71 53q0 11 -10 21
h-247q-126 0 -126 90q0 17 5 27h537z" />
    <glyph glyph-name="uni0923094D" horiz-adv-x="496" 
d="M178 431q0 -56 3 -80q10 -78 62 -78q69 0 69 162q0 88 -17 117h-156q39 -30 39 -121zM433 669q126 0 126 -85q0 -18 -7 -32h-181q26 -29 49 -82.5t23 -123.5t-37 -119t-111 -49t-154.5 58.5t-91.5 137.5q-4 32 -4 93.5t-15 84.5q-113 3 -113 90q0 17 5 27h511z" />
    <glyph glyph-name="uni0924094D" horiz-adv-x="328" 
d="M271 669q126 0 126 -85q0 -18 -7 -32h-334q-126 0 -126 90q0 17 5 27h336zM364 326h-104q-41 0 -64.5 -22t-23.5 -63q0 -104 75 -206q-11 -23 -38.5 -23t-66 42.5t-68 109t-29.5 123.5q0 82 48.5 120t124.5 38q113 0 223 -13q9 -21 9 -46q0 -60 -86 -60z" />
    <glyph glyph-name="uni0925094D" horiz-adv-x="430" 
d="M465.5 175.5q-70.5 -50.5 -165.5 -50.5t-177.5 68t-82.5 126q0 25 33.5 49t73 41.5t73 49t33.5 68.5q0 18 -10.5 31.5t-34 13.5t-40.5 -23.5t-17 -51.5t10 -45q-8 -4 -21 -4q-41 0 -67 33.5t-26 81t35 81t88 33.5q67 0 123 -61t56 -145q0 -42 -18.5 -75.5t-44.5 -53
t-52.5 -34.5t-45 -27t-18.5 -22q0 -23 49 -23q71 0 141.5 32.5t105.5 104.5q70 -26 70 -86.5t-70.5 -111z" />
    <glyph glyph-name="uni0926094D" horiz-adv-x="475" 
d="M224 -52q72 0 145.5 -79.5t73.5 -129.5q0 -23 -23 -30q-99 134 -207 134q-31 0 -64 -12q-11 19 -11 46t23.5 49t62.5 22zM381 552q37 -37 37 -74.5t-28 -64.5t-68 -43t-80.5 -32.5t-68.5 -44t-28 -66.5t31 -61.5t68 -22.5t58 8q-5 20 -5 46t21.5 47.5t56 21.5t62 -32.5
t27.5 -73.5q0 -63 -51 -94q19 -13 44 -13q37 0 61 39q43 -34 43 -84q0 -29 -21 -50.5t-63 -21.5t-78 30.5t-54 76.5q-18 -3 -37 -3q-102 0 -189 73.5t-87 163.5q0 53 27.5 91t67 58t79 34.5t67 31t27.5 32.5t-7 28h-238q-126 0 -126 90q0 17 5 27h478q126 0 126 -85
q0 -18 -7 -32h-150z" />
    <glyph glyph-name="uni0927094D" horiz-adv-x="402" 
d="M252 552q-45 0 -72.5 -27.5t-27.5 -69.5q0 -17 4 -29q36 17 76.5 17t69.5 -21t29 -51t-24.5 -46.5t-52 -16.5t-44.5 4q-30 -21 -30 -52t21 -46.5t52 -15.5q63 0 118 38t79 97q38 -5 56.5 -27t18.5 -47q0 -62 -67.5 -108.5t-158.5 -46.5t-160.5 60t-69.5 129q0 45 26 82
q-54 54 -54 120q0 30 12 60q-16 -2 -27 -2q-46 0 -77.5 20.5t-31.5 68.5q0 17 5 27h221q126 0 126 -85q0 -18 -7 -32h-10z" />
    <glyph glyph-name="uni0928094D" horiz-adv-x="323" 
d="M271 669q126 0 126 -85q0 -18 -7 -32h-334q-126 0 -126 90q0 17 5 27h336zM24 316q0 128 185 128q124 0 232 -12q9 -18 9 -39q0 -67 -101 -67h-128q-44 0 -67 -19.5t-23 -39.5t11 -32t35 -12t43 16t24 29q29 -11 46 -37t17 -54.5t-18.5 -47.5t-55.5 -19q-73 0 -141 67
t-68 139z" />
    <glyph glyph-name="uni092A094D" horiz-adv-x="330" 
d="M184 431l-2 -81q0 -46 14 -68.5t55.5 -22.5t86 33t61.5 77q33 -11 49.5 -36t16.5 -53q0 -47 -46.5 -83t-126.5 -36t-159.5 73t-79.5 145q0 104 -2.5 130.5t-12.5 42.5q-113 3 -113 90q0 17 5 27h345q126 0 126 -85q0 -18 -7 -32h-248q38 -29 38 -121z" />
    <glyph glyph-name="uni092B094D" horiz-adv-x="562" 
d="M329 321l1 127q0 81 -15 104h-174q38 -29 38 -121l-2 -61q0 -46 14 -68.5t55 -22.5t83 42zM461 285l-3 -180q0 -80 15 -105q-17 -7 -42 -7q-54 0 -79.5 37.5t-25.5 81t8 75.5q-20 -6 -42 -6q-91 0 -167.5 69t-76.5 142.5t-1 107.5t-14 52q-108 5 -108 90q0 17 5 27h577
q126 0 126 -85q0 -18 -7 -32h-202q29 -25 29 -80q0 -17 -3 -32q44 36 105 36t105 -44t44 -89q0 -27 -17 -40q-9 -7 -19 -7t-21 6q0 36 -18.5 54t-45.5 18q-67 0 -122 -89z" />
    <glyph glyph-name="uni092C094D" horiz-adv-x="357" 
d="M46 552q-126 0 -126 90q0 17 5 27h369q126 0 126 -85q0 -18 -7 -32h-367zM161 345q-27 -22 -27 -57.5t29 -56t73 -20.5q16 0 32 3zM423 330q59 -26 59 -86t-58.5 -100.5t-139.5 -40.5q-97 0 -176 76t-79 163q0 71 51 110t112.5 39t100 -24.5t38.5 -62t-15 -55.5
q-33 20 -79 20q-10 0 -14 -1l108 -133q63 34 92 95z" />
    <glyph glyph-name="uni092D094D" horiz-adv-x="390" 
d="M400 268h-97q-15 -97 -69 -97q-50 0 -95.5 51t-45.5 97q0 65 90 70q1 26 1 98.5t-31 72.5q-20 0 -29.5 -19.5t-9.5 -48.5t10 -47q-8 -4 -21 -4q-41 0 -67 36.5t-26 82t28 77.5t77 32q69 0 128 -84.5t65 -196.5q119 -6 185 -15q8 -16 8 -38q0 -67 -101 -67z" />
    <glyph glyph-name="uni092E094D" horiz-adv-x="328" 
d="M250 431v-44q111 -5 181 -14q8 -16 8 -38q0 -67 -101 -67h-96q-8 -51 -24 -74t-46 -23q-50 0 -95.5 51t-45.5 97q0 63 86 70q1 15 1 44q0 93 -17 119h-58q-126 0 -126 90q0 17 5 27h352q126 0 126 -85q0 -18 -7 -32h-182q39 -30 39 -121z" />
    <glyph glyph-name="uni092F094D" horiz-adv-x="348" 
d="M262 552q30 -43 30 -90t-21 -77.5t-46 -44.5q-67 -38 -67 -58q0 -34 60.5 -34t114.5 26t81 76q61 -32 61 -87t-52 -91.5t-138 -36.5t-169 72.5t-83 140.5q0 36 77 76q30 16 54 42.5t24 50.5t-8 35h-104q-126 0 -126 90q0 17 5 27h331q126 0 126 -85q0 -18 -7 -32h-143z
" />
    <glyph glyph-name="uni0930094D" horiz-adv-x="416" 
d="M238 -45q72 0 145.5 -79.5t73.5 -129.5q0 -23 -23 -30q-99 134 -207 134q-31 0 -64 -12q-11 19 -11 46t23.5 49t62.5 22zM347 669q126 0 126 -85q0 -18 -7 -32h-168q66 -78 66 -158.5t-47 -128t-122 -49.5q20 -52 52 -81.5t87 -29.5q19 0 32 4q10 -22 10 -49t-19 -48.5
t-57 -21.5q-116 0 -187 243q-42 19 -69.5 52t-27.5 68.5t16.5 56.5t47 21t48.5 -22t31 -63q45 1 68.5 32t23.5 74q0 67 -44 100h-155q-126 0 -126 90q0 17 5 27h416z" />
    <glyph glyph-name="uni0932094D" horiz-adv-x="506" 
d="M56 552q-126 0 -126 90q0 17 5 27h507q126 0 126 -85q0 -18 -7 -32h-505zM345 404q51 49 115 49t105 -35.5t41 -80.5q0 -27 -20 -40q-33 37 -85 37q-24 0 -45.5 -13.5t-30.5 -36.5q7 -32 7 -61t-17 -58t-54 -29t-59.5 34.5t-22.5 79t25 92.5q-22 12 -55.5 12t-56.5 -28
t-23 -74q0 -114 104 -223q-12 -23 -42 -23t-75.5 40.5t-81 109t-35.5 140.5t44 118.5t119.5 46.5t142.5 -57z" />
    <glyph glyph-name="uni0933094D" horiz-adv-x="693" 
d="M439 207q51 0 87.5 25t36.5 68q0 30 -20 46.5t-40 16.5t-33.5 -7t-22.5 -14.5t-20 -26.5t-15.5 -29t-15.5 -36.5t-15 -35.5q30 -7 58 -7zM141 207.5q20 -16.5 40 -16.5t33.5 7t22.5 14.5t20 26.5t15.5 29t15.5 36.5t15 35.5q-30 7 -58 7q-51 0 -87.5 -25t-36.5 -68
q0 -30 20 -46.5zM317 370q50 96 135 96t146 -71t61 -143t-41 -118t-111 -46q-47 0 -85.5 25t-54.5 71q-50 -96 -135 -96t-146 71t-61 143t41 118t111 46q47 0 85.5 -25t54.5 -71zM617 669q126 0 126 -85q0 -18 -7 -32h-690q-126 0 -126 90q0 17 5 27h692z" />
    <glyph glyph-name="uni0935094D" horiz-adv-x="328" 
d="M270 669q126 0 126 -85q0 -18 -7 -32h-343q-126 0 -126 90q0 17 5 27h345zM157.5 348q-23.5 -19 -23.5 -51.5t25.5 -53t64.5 -20.5q106 0 179 119q58 -28 58 -84t-53.5 -98t-143 -42t-162.5 77.5t-73 149.5t43.5 108t97.5 36t89.5 -24.5t35.5 -60.5t-15 -55
q-29 18 -64 18t-58.5 -19z" />
    <glyph glyph-name="uni0936094D" horiz-adv-x="494" 
d="M376 106q26 0 47 5q11 -22 11 -50t-19 -49.5t-57 -21.5q-130 0 -216 231q-49 18 -80.5 52.5t-31.5 77.5q0 24 16.5 42t43.5 18q61 0 97 -93q61 1 102 45t41 117q0 32 -13.5 57t-35 25t-32.5 -16t-11 -40.5t13.5 -52t33.5 -41.5q-13 -18 -39 -18q-43 0 -83.5 44.5
t-40.5 101.5t30 92.5t85.5 35.5t103.5 -43.5t71 -99.5t23 -107q0 -103 -59.5 -156t-147.5 -55q50 -101 148 -101z" />
    <glyph glyph-name="uni0937094D" horiz-adv-x="356" 
d="M183 415l-1 -65q0 -46 14 -68.5t54 -22.5q58 0 107 51q-70 68 -184 163q10 -25 10 -58zM297 161q-86 0 -165 73.5t-79 144.5q0 91 -2 123t-13 50q-113 3 -113 90q0 17 5 27h373q126 0 126 -85q0 -18 -7 -32h-274q39 -14 82.5 -50.5t69 -59t81.5 -74t97 -88.5
q-14 -23 -33.5 -46t-61 -48t-86.5 -25z" />
    <glyph glyph-name="uni0938094D" horiz-adv-x="470" 
d="M364 387q0 -21 -5 -44q20 -4 45 -4q90 0 159 49q34 -31 34 -68t-30 -61.5t-85 -24.5q-87 0 -154 44q-48 -59 -133 -62q20 -52 52 -81.5t87 -29.5q19 0 32 4q10 -22 10 -49t-19 -48.5t-57 -21.5q-116 0 -187 243q-42 19 -69.5 52t-27.5 68.5t16.5 56.5t47 21t48.5 -22
t31 -63q45 1 68.5 32t23.5 74q0 67 -44 100h-155q-126 0 -126 90q0 17 5 27h465q126 0 126 -85q0 -18 -7 -32h-217q66 -78 66 -165z" />
    <glyph glyph-name="uni0939094D" horiz-adv-x="502" 
d="M192 482l88 -1q38 0 38 28q0 12 -9 24t-23 19h-230q-126 0 -126 90q0 17 5 27h502q126 0 126 -85q0 -18 -7 -32h-182q48 -44 48 -99q0 -38 -28 -63t-81 -25l-89 1q-65 0 -65 -48q0 -18 10 -36q39 16 89 16q147 0 326 -17q4 -10 4 -24q0 -60 -97 -60h-178q-59 0 -96 -29.5
t-37 -83.5t55 -90t127 -36q28 0 57 6q7 -14 7 -32.5t-20.5 -33t-57.5 -14.5q-115 0 -201 73.5t-86 174.5q0 68 47 112q-56 61 -56 126q0 49 35 80.5t105 31.5z" />
    <glyph glyph-name="uni0915093C094D" horiz-adv-x="557" 
d="M130 57.5q14 14.5 39 14.5t47 -22t22 -46.5t-14 -39t-39.5 -14.5t-47 21.5t-21.5 46.5t14 39.5zM456 285l-3 -180q0 -80 15 -105q-18 -7 -42 -7q-51 0 -74 30.5t-23 67.5t7 61q-34 -31 -90 -31q-83 0 -149.5 68t-66.5 155q0 57 37.5 99.5t95.5 42.5q41 0 67 -26.5
t26 -63.5q0 -6 -1 -11q-59 0 -95 -37q-26 -26 -26 -58t19 -50t45 -18q70 0 125 86q2 78 2 149.5t-15 94.5h-264q-126 0 -126 90q0 17 5 27h567q126 0 126 -85q0 -18 -7 -32h-191q29 -24 29 -78q0 -19 -3 -34q43 36 104 36t105 -44t44 -89q0 -27 -17 -40q-9 -7 -19 -7t-21 6
q0 36 -18 54t-46 18q-67 0 -122 -89z" />
    <glyph glyph-name="uni0916093C094D" horiz-adv-x="602" 
d="M64 33.5q14 14.5 39 14.5t47 -22t22 -46.5t-14 -39t-39.5 -14.5t-47 21.5t-21.5 46.5t14 39.5zM335 384q0 -62 -40 -103.5t-113 -46.5q29 -50 81.5 -77t112.5 -27q97 0 166.5 60t69.5 146q0 27 -12.5 46t-37.5 19t-38 -19t-13 -48q0 -51 26 -74q-16 -12 -39 -12
q-45 0 -77.5 32.5t-32.5 87.5t36.5 89.5t92.5 34.5q82 0 131 -61.5t49 -146.5q0 -101 -69 -178q-35 -39 -93.5 -62t-140.5 -23t-172.5 61t-125.5 166q-36 17 -58 45.5t-22 58t15.5 47.5t43.5 18q53 0 76 -83q30 10 48 35t18 61q0 73 -42 122h-104q-126 0 -126 90q0 17 5 27
h606q126 0 126 -85q0 -18 -7 -32h-411q71 -78 71 -168z" />
    <glyph glyph-name="uni0917093C094D" horiz-adv-x="347" 
d="M105 104.5q14 14.5 39 14.5t47 -22t22 -46.5t-14 -39t-39.5 -14.5t-47 21.5t-21.5 46.5t14 39.5zM287 669q126 0 126 -85q0 -18 -7 -32h-204q37 -36 59 -91t22 -116t-34 -96t-85 -35t-94 38.5t-43 93.5q0 31 17 47.5t42 16.5q38 0 63 -38q12 16 12 51q0 81 -63 129h-55
q-126 0 -126 90q0 17 5 27h365z" />
    <glyph glyph-name="uni091C093C094D" horiz-adv-x="473" 
d="M61 552q-126 0 -126 90q0 17 5 27h472q126 0 126 -85q0 -18 -7 -32h-470zM358 24.5q14 14.5 39 14.5t47 -22t22 -46.5t-14 -39t-39.5 -14.5t-47 21.5t-21.5 46.5t14 39.5zM462 452q126 0 126 -85q0 -18 -7 -32h-220q53 -58 53 -119.5t-33 -92.5t-88 -31t-111 38t-91 90
t-56.5 101.5t-21.5 76.5t13.5 39t32.5 13q43 -121 95 -178.5t95 -57.5q30 0 45 17t15 45t-26 61q-88 11 -88 88q0 17 5 27h262z" />
    <glyph glyph-name="uni0928093C094D" horiz-adv-x="323" 
d="M271 669q126 0 126 -85q0 -18 -7 -32h-334q-126 0 -126 90q0 17 5 27h336zM24 316q0 128 185 128q124 0 232 -12q9 -18 9 -39q0 -67 -101 -67h-128q-44 0 -67 -19.5t-23 -39.5t11 -32t35 -12t43 16t24 29q29 -11 46 -37t17 -54.5t-18.5 -47.5t-55.5 -19q-73 0 -141 67
t-68 139zM151.5 -38.5q-21.5 21.5 -21.5 46.5t14 39.5t39 14.5t47 -22t22 -46.5t-14 -39t-39.5 -14.5t-47 21.5z" />
    <glyph glyph-name="uni092B093C094D" horiz-adv-x="562" 
d="M73 137.5q14 14.5 39 14.5t47 -22t22 -46.5t-14 -39t-39.5 -14.5t-47 21.5t-21.5 46.5t14 39.5zM329 321l1 127q0 81 -15 104h-174q38 -29 38 -121l-2 -61q0 -46 14 -68.5t55 -22.5t83 42zM461 285l-3 -180q0 -80 15 -105q-17 -7 -42 -7q-54 0 -79.5 37.5t-25.5 81
t8 75.5q-20 -6 -42 -6q-91 0 -167.5 69t-76.5 142.5t-1 107.5t-14 52q-108 5 -108 90q0 17 5 27h577q126 0 126 -85q0 -18 -7 -32h-202q29 -25 29 -80q0 -17 -3 -32q44 36 105 36t105 -44t44 -89q0 -27 -17 -40q-9 -7 -19 -7t-21 6q0 36 -18.5 54t-45.5 18q-67 0 -122 -89z
" />
    <glyph glyph-name="uni092F093C094D" horiz-adv-x="348" 
d="M118 65.5q14 14.5 39 14.5t47 -22t22 -46.5t-14 -39t-39.5 -14.5t-47 21.5t-21.5 46.5t14 39.5zM262 552q30 -43 30 -90t-21 -77.5t-46 -44.5q-67 -38 -67 -58q0 -34 60.5 -34t114.5 26t81 76q61 -32 61 -87t-52 -91.5t-138 -36.5t-169 72.5t-83 140.5q0 36 77 76
q30 16 54 42.5t24 50.5t-8 35h-104q-126 0 -126 90q0 17 5 27h331q126 0 126 -85q0 -18 -7 -32h-143z" />
    <glyph glyph-name="uni09080902" horiz-adv-x="487" 
d="M205 494l66 -1q51 0 51 28q0 19 -18 31h-261q-126 0 -126 90q0 17 5 27h235q-34 26 -57.5 70t-24 99.5t44 99t111.5 43.5t103.5 -32t36.5 -64.5t-17 -44.5q-42 37 -91.5 37t-71.5 -26t-22 -59q0 -64 81 -123h191q126 0 126 -85q0 -18 -7 -32h-171q37 -38 37 -82t-28 -69
t-81 -25l-63 1q-102 0 -102 -40q0 -31 46 -31l91 9q70 0 125 -52.5t55 -123t-47.5 -109.5t-124.5 -39q-43 0 -86 8q51 -82 120 -82q36 0 61 21q31 -26 31 -62.5t-25.5 -57.5t-61.5 -21q-131 0 -203 227q-100 48 -100 130q0 22 14 37.5t40.5 15.5t49 -25t31.5 -58
q31 -17 81 -17t90 17.5t40 43.5t-35 26l-91 -7q-76 0 -132.5 56.5t-56.5 133.5q0 55 37 86t104 31zM243.5 745q-16.5 17 -16.5 36.5t11 31t30.5 11.5t37 -17t17.5 -36.5t-11 -31t-31.5 -11.5t-37 17z" />
    <glyph glyph-name="uni09300941" horiz-adv-x="631" 
d="M401 427q75 0 137 -62.5t62 -133.5q0 -47 -29.5 -79t-74.5 -32t-69.5 27.5t-24.5 59.5q0 7 1 15q8 -1 24.5 -1t44 14t27.5 39t-15.5 37.5t-42 12.5t-57.5 -16.5t-53.5 -36t-59 -37t-76.5 -18.5q20 -52 52 -81.5t87 -29.5q19 0 32 4q10 -22 10 -49t-19 -48.5t-57 -21.5
q-116 0 -187 243q-42 19 -69.5 52t-27.5 68.5t16.5 56.5t47 21t48.5 -22t31 -63q45 1 68.5 32t23.5 74q0 67 -44 100h-155q-126 0 -126 90q0 17 5 27h619q126 0 126 -85q0 -18 -7 -32h-371q52 -60 55 -134q23 9 48 9z" />
    <glyph glyph-name="uni09300942" horiz-adv-x="734" 
d="M504 459q82 0 140.5 -67t58.5 -147q0 -63 -37 -106t-101 -43q-42 0 -71.5 24.5t-29.5 64.5q0 11 1 16q13 -3 27 -3q45 0 78 28t33 78q0 22 -13 43.5t-36.5 21.5t-36.5 -14.5t-13 -35.5t13 -40q-14 -16 -47.5 -16t-56 26.5t-22.5 68.5t31 71.5t82 29.5zM653 669
q126 0 126 -85q0 -18 -7 -32h-474q66 -78 66 -158.5t-47 -128t-122 -49.5q20 -52 52 -81.5t87 -29.5q19 0 32 4q10 -22 10 -49t-19 -48.5t-57 -21.5q-116 0 -187 243q-42 19 -69.5 52t-27.5 68.5t16.5 56.5t47 21t48.5 -22t31 -63q45 1 68.5 32t23.5 74q0 67 -44 100h-155
q-126 0 -126 90q0 17 5 27h722z" />
    <glyph glyph-name="uni09390941" horiz-adv-x="491" 
d="M192 482l88 -1q38 0 38 28q0 12 -9 24t-23 19h-230q-126 0 -126 90q0 17 5 27h502q126 0 126 -85q0 -18 -7 -32h-182q48 -44 48 -99q0 -38 -28 -63t-81 -25l-89 1q-65 0 -65 -48q0 -17 9 -35q37 15 81 15q87 0 150 -57.5t63 -120.5q0 -41 -26.5 -67t-63 -26t-63.5 20
t-32 56q36 5 56.5 21.5t20.5 36t-13.5 30.5t-38.5 11q-45 0 -83.5 -29.5t-38.5 -74t28 -75t67.5 -49.5t79 -39.5t67.5 -55.5t28 -86.5t-44 -88.5t-110.5 -37t-140.5 35.5t-119 80.5t-45 77t27 41q53 -61 116 -94.5t114 -33.5t79.5 20t28.5 48q0 12 -8.5 20.5t-28 8.5
t-39 -15.5t-26.5 -37.5q-31 3 -48.5 21.5t-17.5 44t18 44.5q-65 32 -105 87t-40 121t46 110q-55 61 -55 125q0 49 35 80.5t105 31.5z" />
    <glyph glyph-name="uni09390942" horiz-adv-x="491" 
d="M192 482l88 -1q38 0 38 28q0 12 -9 24t-23 19h-230q-126 0 -126 90q0 17 5 27h502q126 0 126 -85q0 -18 -7 -32h-182q48 -44 48 -99q0 -38 -28 -63t-81 -25l-89 1q-65 0 -65 -48q0 -17 9 -35q37 15 81 15q87 0 150 -57.5t63 -120.5q0 -41 -26.5 -67t-63 -26t-63.5 20
t-32 56q36 5 56.5 21.5t20.5 36t-13.5 30.5t-38.5 11q-45 0 -83.5 -29.5t-38.5 -73.5t28 -75t64 -49q128 -63 172 -102t69 -78t25 -63t-12.5 -35t-22.5 -12q-40 67 -102.5 122t-138.5 55q-44 0 -69.5 -20.5t-25.5 -47.5q0 -12 8.5 -20.5t28 -8.5t39 15.5t26.5 37.5
q33 -3 52 -25t19 -51.5t-24.5 -52t-66.5 -22.5q-64 0 -120 51t-56 119q0 42 23 72.5t62 46.5q-97 72 -97 176q0 69 46 113q-55 61 -55 125q0 49 35 80.5t105 31.5z" />
    <glyph glyph-name="uni09260943" horiz-adv-x="478" 
d="M194 486l64 -1q38 0 38 28q0 23 -25 39h-225q-126 0 -126 90q0 17 5 27h497q126 0 126 -85q0 -18 -7 -32h-185q44 -44 44 -95q0 -36 -29 -60.5t-83 -24.5l-65 1q-66 0 -66 -51q0 -11 4 -20q24 7 59.5 7t64.5 -20t29 -50t-24.5 -47.5t-51.5 -17.5t-52 10
q-25 -16 -25 -41.5t21.5 -39.5t50.5 -14q58 0 104 28t65 79q32 -6 53.5 -31t21.5 -58q0 -51 -51 -85.5t-137.5 -34.5t-162.5 53.5t-76 139.5q0 55 46 91q-42 50 -42 101t35 82.5t105 31.5z" />
    <glyph glyph-name="uni09390943" horiz-adv-x="580" 
d="M192 490l115 -2q35 0 35 24t-31 40h-255q-126 0 -126 90q0 17 5 27h582q126 0 126 -85q0 -18 -7 -32h-235q48 -42 48 -96q0 -36 -28 -60t-81 -24l-116 2q-65 0 -65 -48q0 -16 8 -34q52 25 109 25q87 0 143.5 -40t56.5 -94q0 -29 -24 -66.5t-24 -48.5q0 -19 25 -19
t54.5 25.5t43.5 79.5q35 -2 57 -25t22 -61t-35.5 -69t-87.5 -31q-75 0 -126 43.5t-51 92.5q0 29 24 68.5t24 48.5q0 14 -26 14q-65 0 -118 -42.5t-53 -113t59 -111.5t141 -41q21 0 40 3q4 -11 4 -23q0 -25 -20.5 -39t-55.5 -14q-108 0 -198 78t-90 190q0 76 49 128
q-58 61 -58 128q0 49 35 80.5t105 31.5z" />
    <glyph glyph-name="uni094D0930" 
d="M-274 -273q-58 21 -58 72.5t73.5 104.5t125 53t136 -70t84.5 -112q0 -30 -34 -44q-41 41 -91.5 77.5t-70.5 36.5t-67 -32.5t-98 -85.5z" />
    <glyph glyph-name="uni0930094D.1" horiz-adv-x="284" 
d="M228 669q126 0 126 -85q0 -18 -7 -32h-296q-126 0 -126 90q0 17 5 27h298zM377 448q41 -28 41 -75t-47 -78.5t-135 -31.5t-163.5 39.5t-75.5 81.5q0 25 20 37q61 -44 163 -44q58 0 112 20t85 51z" />
    <glyph glyph-name="uni0930094D.2" 
d="M-108.5 829.5q-12.5 19.5 -35 19.5t-35.5 -13.5t-13 -42.5q0 -50 86 -125q-11 -23 -40 -23q-41 0 -89.5 61t-48.5 134q0 52 32 87.5t85.5 35.5t87.5 -38.5t34 -83.5q0 -26 -12.5 -42.5t-36.5 -16.5q-2 28 -14.5 47.5z" />
    <glyph glyph-name="uni0930094D0902" 
d="M9 839q-42 37 -91.5 37t-71.5 -26t-22 -59q0 -64 81 -123q-11 -23 -40 -23q-40 0 -87 57.5t-47.5 124t44 110t111.5 43.5t103.5 -32t36.5 -64.5t-17 -44.5zM-33 738.5q-11 -11.5 -31.5 -11.5t-37 16.5t-16.5 36.5t11 31.5t30.5 11.5t37 -17t17.5 -36.5t-11 -31z" />
    <glyph glyph-name="uni0930094D.aMatraI" 
d="M17.5 944q-14.5 -18 -14.5 -49.5t12 -68t12 -46.5t-8 -20t-19 -13q-78 92 -78 206q0 55 32 89t85.5 34t88 -39.5t34.5 -84.5q0 -26 -12.5 -42.5t-36.5 -16.5q-2 28 -16.5 48.5t-39.5 20.5t-39.5 -18z" />
    <glyph glyph-name="uni0902.aMatraI" 
d="M176 818.5q-19 -19.5 -52 -19.5t-61 28t-28 61t18.5 52t51.5 19t61.5 -28.5t28.5 -60.5t-19 -51.5z" />
    <glyph glyph-name="uni0930094D0902.aMatraI" 
d="M148 811.5q-11 -11.5 -31.5 -11.5t-37 17t-16.5 36.5t11 31t30.5 11.5t37 -17t17.5 -36.5t-11 -31zM3 900q0 -35 12 -72.5t12 -47.5t-8 -20t-19 -13q-78 92 -78 206q0 54 32 88.5t80 34.5t77.5 -29t29.5 -61.5t-19 -51.5q-18 38 -58 38q-25 0 -43 -18.5t-18 -53.5z" />
    <glyph glyph-name="uni09400930094D" horiz-adv-x="283" 
d="M73 145l5 324q0 31 -2 83h-33q-126 0 -126 90q0 17 5 27h144q-26 181 -124 181q-35 0 -55.5 -24t-20.5 -55.5t16 -56.5q-12 -8 -31 -8q-42 0 -70 38.5t-28 91.5t38.5 89.5t96.5 36.5q110 0 196 -109q8 36 35 59.5t72.5 23.5t77 -35t31.5 -68q0 -66 -49 -66
q-2 28 -15.5 47.5t-37 19.5t-38 -16t-14.5 -33t3.5 -30.5t13.5 -43t14 -42.5h43q126 0 126 -85q0 -18 -7 -32h-135q7 -52 7 -99l-5 -348q0 -80 15 -105q-17 -7 -42 -7q-106 0 -106 152z" />
    <glyph glyph-name="uni09400902" horiz-adv-x="283" 
d="M315 776.5q-19 -19.5 -52 -19.5t-61 28t-28 61t18.5 52t51.5 19t61.5 -28.5t28.5 -60.5t-19 -51.5zM73 145l5 324q0 31 -2 83h-33q-126 0 -126 90q0 17 5 27h144q-26 181 -124 181q-35 0 -55.5 -24t-20.5 -55.5t16 -56.5q-12 -8 -31 -8q-42 0 -70 38.5t-28 91.5
t38.5 89.5t96.5 36.5q98 0 174 -82.5t116 -210.5h42q126 0 126 -85q0 -18 -7 -32h-135q7 -46 7 -99l-5 -348q0 -80 15 -105q-17 -7 -42 -7q-106 0 -106 152z" />
    <glyph glyph-name="uni09400930094D0902" horiz-adv-x="283" 
d="M73 145l5 324q0 31 -2 83h-33q-126 0 -126 90q0 17 5 27h144q-26 181 -124 181q-35 0 -55.5 -24t-20.5 -55.5t16 -56.5q-12 -8 -31 -8q-42 0 -70 38.5t-28 91.5t38.5 89.5t96.5 36.5q112 0 198 -111q9 46 40.5 71t75.5 25t74 -29t30 -63q0 -18 -10 -31q-30 24 -64.5 24
t-56 -22t-21.5 -52t23 -105h43q126 0 126 -85q0 -18 -7 -32h-135q7 -51 7 -99l-5 -348q0 -80 15 -105q-17 -7 -42 -7q-106 0 -106 152zM217 723q-17 17 -17 36.5t11 31t30.5 11.5t37 -17t17.5 -36.5t-11 -31t-31 -11.5t-37 17z" />
    <glyph glyph-name="uni0940.aLong" horiz-adv-x="283" 
d="M73 145l5 324q0 44 -4 83h-31q-126 0 -126 90q0 17 5 27h127q-61 181 -236 181q-57 0 -94.5 -28.5t-37.5 -75.5q0 -16 6 -31q-13 -9 -35 -9q-41 0 -70.5 34t-29.5 86.5t48 94t133 41.5q133 0 250 -81.5t179 -211.5h58q126 0 126 -85q0 -18 -7 -32h-138q10 -53 10 -99
l-5 -348q0 -80 15 -105q-17 -7 -42 -7q-106 0 -106 152z" />
    <glyph glyph-name="uni09400930094D.aLong" horiz-adv-x="283" 
d="M73 145l5 324q0 44 -4 83h-31q-126 0 -126 90q0 17 5 27h127q-61 181 -236 181q-57 0 -94.5 -28.5t-37.5 -75.5q0 -16 6 -31q-13 -9 -35 -9q-41 0 -70.5 34t-29.5 86.5t48 94t133 41.5q154 0 287 -110v3q0 45 28.5 76.5t80.5 31.5t86 -38.5t34 -83.5q0 -26 -12.5 -42.5
t-36.5 -16.5q-2 28 -14.5 47.5t-35 19.5t-35.5 -13.5t-13 -31t5.5 -33.5t12 -28.5t19.5 -36t20 -37.5h61q126 0 126 -85q0 -18 -7 -32h-138q10 -48 10 -99l-5 -348q0 -80 15 -105q-17 -7 -42 -7q-106 0 -106 152z" />
    <glyph glyph-name="uni09400902.aLong" horiz-adv-x="283" 
d="M301 764.5q-19 -19.5 -52 -19.5t-61 28t-28 61t18.5 52t51.5 19t61.5 -28.5t28.5 -60.5t-19 -51.5zM73 145l5 324q0 44 -4 83h-31q-126 0 -126 90q0 17 5 27h127q-61 181 -236 181q-57 0 -94.5 -28.5t-37.5 -75.5q0 -16 6 -31q-13 -9 -35 -9q-41 0 -70.5 34t-29.5 86.5
t48 94t133 41.5q133 0 250 -81.5t179 -211.5h58q126 0 126 -85q0 -18 -7 -32h-138q10 -53 10 -99l-5 -348q0 -80 15 -105q-17 -7 -42 -7q-106 0 -106 152z" />
    <glyph glyph-name="uni09400930094D0902.aLong" horiz-adv-x="283" 
d="M73 145l5 324q0 44 -4 83h-31q-126 0 -126 90q0 17 5 27h127q-61 181 -236 181q-57 0 -94.5 -28.5t-37.5 -75.5q0 -16 6 -31q-13 -9 -35 -9q-41 0 -70.5 34t-29.5 86.5t48 94t133 41.5q155 0 284 -107q7 61 49.5 98t101.5 37t97.5 -34t38.5 -78q0 -22 -10 -39
q-42 37 -91.5 37t-71.5 -26t-22 -59q0 -27 10 -47t22.5 -42.5t17.5 -32.5h61q126 0 126 -85q0 -18 -7 -32h-137q9 -52 9 -99l-5 -348q0 -80 15 -105q-17 -7 -42 -7q-106 0 -106 152zM183.5 743.5q-16.5 16.5 -16.5 36.5t11 31.5t30.5 11.5t37 -17t17.5 -36.5t-11 -31
t-31.5 -11.5t-37 16.5z" />
    <glyph glyph-name="uni09470930094D" 
d="M-166.5 909q28.5 27 75 27t78 -35t31.5 -68q0 -66 -49 -66q-2 28 -15.5 47.5t-37.5 19.5t-39 -16t-15 -39t16 -60.5t16 -55.5t-13 -28.5t-32 -10.5q-94 191 -172 191q-41 0 -62 -41q-35 9 -54.5 35.5t-19.5 59.5t24.5 57t69 24t90.5 -30.5t76 -75.5q4 38 32.5 65z" />
    <glyph glyph-name="uni09470902" 
d="M-323 815q-41 0 -62 -41q-35 9 -54.5 35.5t-19.5 59.5t24.5 57t71.5 24t98 -37.5t84.5 -88t54 -95t20.5 -64.5t-13 -30.5t-32 -10.5q-94 191 -172 191zM29 789.5q-19 -19.5 -52 -19.5t-61 28t-28 61t18.5 52t51.5 19t61.5 -28.5t28.5 -60.5t-19 -51.5z" />
    <glyph glyph-name="uni09470901" 
d="M31 867.5q-13 -13.5 -35.5 -13.5t-42 19.5t-19.5 42t13 35.5t35 13t42 -19.5t20 -41.5t-13 -35.5zM-121 868q42 -57 113.5 -57t101.5 62q18 -1 33 -16t15 -36q0 -38 -39.5 -59.5t-92 -21.5t-101.5 32t-49 66q0 20 19 30zM-323 815q-41 0 -62 -41q-35 9 -54.5 35.5
t-19.5 59.5t24.5 57t71.5 24t98 -37.5t84.5 -88t54 -95t20.5 -64.5t-13 -30.5t-32 -10.5q-94 191 -172 191z" />
    <glyph glyph-name="uni09470930094D0902" 
d="M-69 784.5q11 11.5 30.5 11.5t37 -17t17.5 -36.5t-11 -31t-31 -11.5t-37 17t-17 36.5t11 31zM-156.5 914q32.5 27 77.5 27t75 -29t30 -63q0 -18 -10 -31q-30 24 -64.5 24t-56 -22t-21.5 -49t10 -61t10 -49.5t-13 -26t-32 -10.5q-94 191 -172 191q-41 0 -62 -41
q-35 9 -54.5 35.5t-19.5 59.5t24.5 57t69.5 24t92.5 -32.5t77.5 -80.5q6 50 38.5 77z" />
    <glyph glyph-name="uni09480930094D" 
d="M-117 772l4 -67q0 -22 -2 -35q-5 -35 -41 -46q-126 136 -197 136q-26 0 -46.5 -14t-26.5 -38q-34 0 -60 24.5t-26 61.5t29 60t70 23q61 0 123.5 -40t108.5 -93q-34 157 -109 157q-24 0 -48 -15q-33 26 -33 63.5t22.5 60t56.5 22.5q52 0 88.5 -41.5t52.5 -106.5
q10 24 32.5 38t46.5 14q50 0 80.5 -35t30.5 -68q0 -66 -49 -66q-2 28 -15.5 47.5t-38.5 19.5t-39 -16.5t-14 -45.5z" />
    <glyph glyph-name="uni09480902" 
d="M-348.5 1009.5q22.5 22.5 62 22.5t76 -34t56.5 -86q41 -107 41 -207q0 -22 -2 -35q-5 -35 -41 -46q-126 136 -197 136q-26 0 -46.5 -14t-26.5 -38q-34 0 -60 24.5t-26 61.5t29 60t70 23q61 0 123.5 -40t108.5 -93q-34 157 -109 157q-24 0 -48 -15q-33 26 -33 63.5
t22.5 60zM-61.5 911q18.5 19 51.5 19t61.5 -28.5t28.5 -60.5t-19 -51.5t-52 -19.5t-61 28t-28 61t18.5 52z" />
    <glyph glyph-name="uni09480901" 
d="M73 867.5q-13 -13.5 -35.5 -13.5t-42 19.5t-19.5 42t13 35.5t35 13t42 -19.5t20 -41.5t-13 -35.5zM-348.5 1009.5q22.5 22.5 62 22.5t76 -34t56.5 -86q41 -107 41 -207q0 -22 -2 -35q-5 -35 -41 -46q-126 136 -197 136q-26 0 -46.5 -14t-26.5 -38q-34 0 -60 24.5
t-26 61.5t29 60t70 23q61 0 123.5 -40t108.5 -93q-34 157 -109 157q-24 0 -48 -15q-33 26 -33 63.5t22.5 60zM184 821q0 -38 -39.5 -59.5t-92 -21.5t-101.5 32t-49 66q0 20 19 30q42 -57 113.5 -57t101.5 62q18 -1 33 -16t15 -36z" />
    <glyph glyph-name="uni09480930094D0902" 
d="M-57 784.5q11 11.5 30.5 11.5t37 -17t17.5 -36.5t-11 -31t-31 -11.5t-37 17t-17 36.5t11 31zM-115 761l2 -56q0 -22 -2 -35q-5 -35 -41 -46q-126 136 -197 136q-26 0 -46.5 -14t-26.5 -38q-34 0 -60 24.5t-26 61.5t29 60t70 23q61 0 123.5 -40t108.5 -93
q-34 157 -109 157q-24 0 -48 -15q-33 26 -33 63.5t22.5 60t56.5 22.5q51 0 87.5 -40.5t52.5 -103.5q26 53 88 53q44 0 73 -29.5t29 -62.5q0 -18 -10 -31q-30 24 -65 24t-56.5 -22.5t-21.5 -58.5z" />
    <glyph glyph-name="uni094B0930094D" horiz-adv-x="283" 
d="M73 145l5 303q0 81 -15 104h-20q-126 0 -126 90q0 17 5 27h187q-79 146 -149 146q-42 0 -62 -41q-35 9 -54.5 35.5t-19.5 59.5t24.5 57t69 24t90.5 -30.5t76 -75.5q4 38 32.5 65t75 27t78 -35t31.5 -68q0 -66 -49 -66q-2 28 -15.5 47.5t-37.5 19.5t-39 -16t-15 -39
t15.5 -59.5t16.5 -50.5h43q126 0 126 -85q0 -18 -7 -32h-167q39 -30 39 -121l-5 -326q0 -80 15 -105q-17 -7 -42 -7q-106 0 -106 152z" />
    <glyph glyph-name="uni094B0902" horiz-adv-x="283" 
d="M312 789.5q-19 -19.5 -52 -19.5t-61 28t-28 61t18.5 52t51.5 19t61.5 -28.5t28.5 -60.5t-19 -51.5zM73 145l5 303q0 81 -15 104h-20q-126 0 -126 90q0 17 5 27h187q-79 146 -149 146q-42 0 -62 -41q-35 9 -54.5 35.5t-19.5 59.5t24.5 57t71 24t96.5 -36t83.5 -85
t54.5 -93.5t23 -66.5h43q126 0 126 -85q0 -18 -7 -32h-167q39 -30 39 -121l-5 -326q0 -80 15 -105q-17 -7 -42 -7q-106 0 -106 152z" />
    <glyph glyph-name="uni094B0930094D0902" horiz-adv-x="283" 
d="M73 145l5 303q0 81 -15 104h-20q-126 0 -126 90q0 17 5 27h187q-79 146 -149 146q-42 0 -62 -41q-35 9 -54.5 35.5t-19.5 59.5t24.5 57t69.5 24t92.5 -32.5t77.5 -80.5q6 50 38.5 77t77.5 27t75 -29t30 -63q0 -18 -10 -31q-30 24 -64.5 24t-56 -22t-21.5 -49t9.5 -60
t10.5 -42h43q126 0 126 -85q0 -18 -7 -32h-167q39 -30 39 -121l-5 -326q0 -80 15 -105q-17 -7 -42 -7q-106 0 -106 152zM219.5 717q-16.5 17 -16.5 36.5t11 31t30.5 11.5t37 -17t17.5 -36.5t-11 -31t-31.5 -11.5t-37 17z" />
    <glyph glyph-name="uni094C0930094D" horiz-adv-x="283" 
d="M183 772l4 -67q0 -25 -2 -36h35q126 0 126 -85q0 -18 -7 -32h-167q39 -30 39 -121l-5 -326q0 -80 15 -105q-17 -7 -42 -7q-106 0 -106 152l5 303q0 81 -15 104h-20q-126 0 -126 90q0 17 5 27h179q-93 91 -154 91q-26 0 -46.5 -14t-26.5 -38q-34 0 -60 24.5t-26 61.5
t29 60t70 23q61 0 123.5 -40t108.5 -93q-34 157 -109 157q-24 0 -48 -15q-33 26 -33 63.5t22.5 60t56.5 22.5q52 0 88.5 -41.5t52.5 -106.5q10 24 32.5 38t46.5 14q50 0 80.5 -35t30.5 -68q0 -66 -49 -66q-2 28 -15.5 47.5t-38.5 19.5t-39 -16.5t-14 -45.5z" />
    <glyph glyph-name="uni094C0902" horiz-adv-x="283" 
d="M73 145l5 303q0 81 -15 104h-20q-126 0 -126 90q0 17 5 27h179q-93 91 -154 91q-26 0 -46.5 -14t-26.5 -38q-34 0 -60 24.5t-26 61.5t29 60t70 23q61 0 123.5 -40t108.5 -93q-34 157 -109 157q-24 0 -48 -15q-33 26 -33 63.5t22.5 60t62 22.5t76 -34t56.5 -86
q41 -107 41 -207q0 -25 -2 -36h35q126 0 126 -85q0 -18 -7 -32h-167q39 -30 39 -121l-5 -326q0 -80 15 -105q-17 -7 -42 -7q-106 0 -106 152zM238.5 911q18.5 19 51.5 19t61.5 -28.5t28.5 -60.5t-19 -51.5t-52 -19.5t-61 28t-28 61t18.5 52z" />
    <glyph glyph-name="uni094C0930094D0902" horiz-adv-x="283" 
d="M185 761l2 -56q0 -25 -2 -36h35q126 0 126 -85q0 -18 -7 -32h-167q39 -30 39 -121l-5 -326q0 -80 15 -105q-17 -7 -42 -7q-106 0 -106 152l5 303q0 81 -15 104h-20q-126 0 -126 90q0 17 5 27h179q-93 91 -154 91q-26 0 -46.5 -14t-26.5 -38q-34 0 -60 24.5t-26 61.5
t29 60t70 23q61 0 123.5 -40t108.5 -93q-34 157 -109 157q-24 0 -48 -15q-33 26 -33 63.5t22.5 60t56.5 22.5q51 0 87.5 -40.5t52.5 -103.5q26 53 88 53q44 0 73 -29.5t29 -62.5q0 -18 -10 -31q-30 24 -65 24t-56.5 -22.5t-21.5 -58.5zM249 717q-17 17 -17 36.5t11 31
t30.5 11.5t37 -17t17.5 -36.5t-11 -31t-31 -11.5t-37 17z" />
    <glyph glyph-name="uni0915094D0937" horiz-adv-x="772" 
d="M227.5 570q-20.5 -23 -20.5 -61t28 -71q44 25 67 47.5t23 50.5t-14.5 42.5t-38.5 14.5t-44.5 -23zM700 431l-5 -326q0 -80 15 -105q-18 -7 -42 -7q-106 0 -106 152q0 78 11 147q-42 -13 -97 -13q-98 0 -188 40q-58 -34 -80 -52q-41 -34 -41 -74t27.5 -64t66.5 -24t61 12
q-5 15 -5 29q0 34 21.5 55.5t54.5 21.5t58.5 -29t25.5 -67q0 -58 -47 -90q47 -49 47 -106q0 -40 -23.5 -66.5t-61.5 -26.5t-63 21.5t-31 55.5q33 6 54 25t21 41.5t-3 31.5q-27 -5 -51 -5q-57 0 -118 27.5t-106 82.5t-45 115.5t30.5 97.5t84.5 69q-79 76 -79 156
q0 64 42.5 99t109 35t132.5 -58.5t66 -132t-62 -125.5h11q105 0 182 52v21q0 63 -6.5 82t-34.5 46.5t-28 66.5q0 17 5 27h206q126 0 126 -85q0 -18 -7 -32h-168q40 -29 40 -121z" />
    <glyph glyph-name="uni0915094D0937094D" horiz-adv-x="574" 
d="M227.5 570q-20.5 -23 -20.5 -61t28 -71q44 25 67 47.5t23 50.5t-14.5 42.5t-38.5 14.5t-44.5 -23zM385 374q166 0 263 88q22 -9 36.5 -29t14.5 -44q0 -46 -52 -78.5t-157.5 -32.5t-200.5 41q-96 -54 -113 -89q-9 -19 -9 -48t27.5 -53t66.5 -24t61 12q-5 15 -5 29
q0 34 21.5 55.5t54.5 21.5t58.5 -29t25.5 -67q0 -58 -47 -90q47 -49 47 -106q0 -40 -23.5 -66.5t-61.5 -26.5t-63 21.5t-31 55.5q33 6 54 25t21 41.5t-3 31.5q-27 -5 -51 -5q-57 0 -118 27.5t-106 82.5t-45 115.5t30.5 98t84.5 68.5q-79 76 -79 156q0 64 42.5 99t109 35
t132.5 -58.5t66 -132t-62 -125.5h11z" />
    <glyph glyph-name="uni0915094D0937094D092E" horiz-adv-x="1101" 
d="M729 431v-43q100 -4 167 -9v69q0 81 -15 104h-191q39 -30 39 -121zM227.5 570q-20.5 -23 -20.5 -61t28 -71q44 25 67 47.5t23 50.5t-14.5 42.5t-38.5 14.5t-44.5 -23zM1029 431l-5 -326q0 -80 15 -105q-17 -7 -42 -7q-106 0 -106 152q0 53 3 123h-173q-8 -51 -24 -74
t-49.5 -23t-69.5 29.5t-55 69.5q-7 -1 -21 -1q-111 0 -216 49q-93 -51 -110 -88q-9 -19 -9 -48t27.5 -53t66.5 -24t61 12q-5 15 -5 29q0 34 21.5 55.5t54.5 21.5t58.5 -29t25.5 -67q0 -58 -47 -90q47 -49 47 -106q0 -40 -23.5 -66.5t-61.5 -26.5t-63 21.5t-31 55.5
q33 6 54 25t21 41.5t-3 31.5q-27 -5 -51 -5q-57 0 -118 27.5t-106 82.5t-45 115.5t30.5 97.5t84.5 69q-79 77 -79 156q0 64 42.5 99t109 35t132.5 -58.5t66 -131.5t-61 -125q22 -2 46 -2t86 8t89 9q1 14 1 43q0 93 -17 119q-114 3 -114 90q0 17 5 27h567q126 0 126 -85
q0 -18 -7 -32h-167q39 -30 39 -121z" />
    <glyph glyph-name="uni0915094D0937094D092E094D" horiz-adv-x="808" 
d="M227.5 570q-20.5 -23 -20.5 -61t28 -71q44 25 67 47.5t23 50.5t-14.5 42.5t-38.5 14.5t-44.5 -23zM730 431v-44q111 -5 181 -14q8 -16 8 -38q0 -67 -101 -67h-96q-8 -51 -24 -74t-49.5 -23t-69.5 29.5t-55 69.5q-7 -1 -22 -1q-111 0 -216 49q-93 -51 -110 -88
q-9 -19 -9 -48t27.5 -53t66.5 -24t61 12q-5 15 -5 29q0 34 21.5 55.5t54.5 21.5t58.5 -29t25.5 -67q0 -58 -47 -90q47 -49 47 -106q0 -40 -23.5 -66.5t-61.5 -26.5t-63 21.5t-31 55.5q33 6 54 25t21 41.5t-3 31.5q-27 -5 -51 -5q-57 0 -118 27.5t-106 82.5t-45 115.5
t30.5 97.5t84.5 69q-79 77 -79 156q0 64 42.5 99t109 35t132.5 -58.5t66 -131.5t-61 -125q22 -2 45.5 -2t86 8t90.5 9q1 14 1 43q0 93 -16 119q-115 3 -115 90q0 17 5 27h282q126 0 126 -85q0 -18 -7 -32h-182q39 -30 39 -121z" />
    <glyph glyph-name="uni0915094D0937094D092E094D092F" horiz-adv-x="1399" 
d="M1190 333l1 115q0 51 -3.5 71t-14.5 33h-121q30 -43 30 -90t-21 -77.5t-46 -44.5q-67 -38 -67 -58q0 -34 67 -34q49 0 99.5 22t75.5 63zM729 431v-44q19 0 110 -6q12 12 50.5 35.5t63.5 49t25 58.5q0 17 -8 28h-280q39 -30 39 -121zM227.5 570q-20.5 -23 -20.5 -61
t28 -71q44 25 67 47.5t23 50.5t-14.5 42.5t-38.5 14.5t-44.5 -23zM1324 431l-5 -326q0 -80 15 -105q-18 -7 -42 -7q-50 0 -72.5 33t-22.5 72.5t7 72.5q-51 -36 -120 -36t-133.5 40t-100.5 95q-18 -2 -33 -2h-96q-8 -51 -24 -74t-49.5 -23t-69.5 29.5t-55 69.5q-7 -1 -21 -1
q-111 0 -216 49q-93 -51 -110 -88q-9 -19 -9 -48t27.5 -53t66.5 -24t61 12q-5 15 -5 29q0 34 21.5 55.5t54.5 21.5t58.5 -29t25.5 -67q0 -58 -47 -90q47 -49 47 -106q0 -40 -23.5 -66.5t-61.5 -26.5t-63 21.5t-31 55.5q33 6 54 25t21 41.5t-3 31.5q-27 -5 -51 -5
q-57 0 -118 27.5t-106 82.5t-45 115.5t30.5 97.5t84.5 69q-79 77 -79 156q0 64 42.5 99t109 35t132.5 -58.5t66 -131.5t-61 -125q22 -2 46 -2t86 8t89 9q1 14 1 43q0 93 -16 119q-115 3 -115 90q0 17 5 27h865q126 0 126 -85q0 -18 -7 -32h-170q39 -30 39 -121z" />
    <glyph glyph-name="uni0915094D0937094D092F" horiz-adv-x="1117" 
d="M908 333l1 115q0 51 -3.5 71t-14.5 33h-121q30 -43 30 -90t-21 -77.5t-46 -44.5q-67 -38 -67 -58q0 -34 67 -34q49 0 99.5 22t75.5 63zM207 510q0 -37 28 -72q44 25 67 47.5t23 50.5t-14.5 42.5t-38.5 14.5t-44.5 -23t-20.5 -60zM1042 431l-5 -326q0 -80 15 -105
q-18 -7 -42 -7q-50 0 -72.5 33t-22.5 72.5t7 72.5q-51 -36 -120 -36t-133 39.5t-100 94.5q-25 -3 -52 -3q-121 0 -231 52q-93 -52 -110 -89q-9 -18 -9 -47t27.5 -53t66.5 -24t61 12q-5 15 -5 29q0 34 21.5 55.5t54.5 21.5t58.5 -29t25.5 -67q0 -58 -47 -90q47 -49 47 -106
q0 -40 -23.5 -66.5t-61.5 -26.5t-63 21.5t-31 55.5q33 6 54 25t21 41.5t-3 31.5q-27 -5 -51 -5q-57 0 -118 27.5t-106 82.5t-45 115.5t30.5 98t84.5 68.5q-79 77 -79 156q0 64 42.5 99t109 35t132.5 -58.5t66 -134.5t-69 -129q30 -5 54 -5q101 0 188 56q29 19 43 29t29 31.5
t15 41.5t-8 31h-64q-126 0 -126 90q0 17 5 27h551q126 0 126 -85q0 -18 -7 -32h-170q39 -30 39 -121z" />
    <glyph glyph-name="uni0915094D0937094D0935" horiz-adv-x="1068" 
d="M227.5 570q-20.5 -23 -20.5 -61t28 -71q44 25 67 47.5t23 50.5t-14.5 42.5t-38.5 14.5t-44.5 -23zM862 335l1 113q0 81 -15 104h-224q-126 0 -126 90q0 17 5 27h502q126 0 126 -85q0 -18 -7 -32h-167q39 -30 39 -121l-5 -326q0 -80 15 -105q-18 -7 -42 -7
q-51 0 -75.5 31.5t-24.5 67.5t8 62q-42 -36 -110.5 -36t-131.5 52t-89 119q-32 -9 -68 -9q-93 0 -184 39q-96 -54 -113 -89q-9 -19 -9 -48t27.5 -53t66.5 -24t61 12q-5 15 -5 29q0 34 21.5 55.5t54.5 21.5t58.5 -29t25.5 -67q0 -58 -47 -90q47 -49 47 -106
q0 -40 -23.5 -66.5t-61.5 -26.5t-63 21.5t-31 55.5q33 6 54 25t21 41.5t-3 31.5q-27 -5 -51 -5q-57 0 -118 27.5t-106 82.5t-45 115.5t30.5 98t84.5 68.5q-79 76 -79 156q0 64 42.5 99t109 35t132.5 -58.5t66 -132t-62 -125.5h11q45 0 86 18t67 39.5t63 39.5t80 18
t78.5 -24.5t35.5 -60.5t-15 -55q-29 18 -63.5 18t-58.5 -19t-24 -51t23.5 -52t64.5 -20t79.5 30.5t60.5 79.5z" />
    <glyph glyph-name="uni091C094D091E" horiz-adv-x="687" 
d="M477 145l4 200h-173q49 -58 49 -120.5t-45 -101.5t-112 -39q-10 0 -15 1q44 -66 130 -66q30 0 46 5q12 -24 12 -51t-19 -48.5t-57 -21.5q-118 0 -194 202q-87 40 -87 108q0 24 15.5 42t39.5 18q49 0 73 -69q16 -2 23 -2q35 0 57 20t22 58t-27 65q-119 0 -119 90
q0 17 5 27h377q0 67 -15 90h-421q-126 0 -126 90q0 17 5 27h699q126 0 126 -85q0 -18 -7 -32h-167q39 -30 39 -121l-5 -326q0 -80 15 -105q-17 -7 -42 -7q-106 0 -106 152z" />
    <glyph glyph-name="uni091C094D091E094D" horiz-adv-x="423" 
d="M46 552q-126 0 -126 90q0 17 5 27h443q126 0 126 -85q0 -18 -7 -32h-441zM444 462q126 0 126 -85q0 -18 -7 -32h-255q49 -58 49 -120.5t-45 -101.5t-112 -39q-10 0 -15 1q44 -66 130 -66q30 0 46 5q12 -24 12 -51t-19 -48.5t-57 -21.5q-118 0 -194 202q-87 40 -87 108
q0 24 15.5 42t39.5 18q48 0 73 -69q16 -2 23 -2q35 0 57 20t22 58t-27 65q-119 0 -119 90q0 17 5 27h339z" />
    <glyph glyph-name="uni091C094D091E094D092F" horiz-adv-x="1009" 
d="M800 333l1 115q0 51 -3.5 71t-14.5 33h-121q30 -43 30 -90t-21 -77.5t-46 -44.5q-67 -38 -67 -58q0 -34 67 -34q49 0 99.5 22t75.5 63zM934 431l-5 -326q0 -80 15 -105q-18 -7 -42 -7q-50 0 -72.5 33t-22.5 72.5t7 72.5q-51 -36 -114 -36t-116.5 27t-96 74t-61.5 65
q-42 39 -117 43q48 -57 48 -119.5t-45 -101.5t-112 -39q-10 0 -15 1q44 -66 130 -66q30 0 46 5q12 -24 12 -51t-19 -48.5t-57 -21.5q-118 0 -194 202q-87 40 -87 108q0 24 15.5 42t39.5 18q48 0 73 -69q16 -2 23 -2q35 0 57 20t22 58t-27 65q-119 0 -119 90q0 17 5 27h91
q116 0 167 -11.5t99 -62.5q8 7 48 32.5t59 49t19 47.5t-8 35h-534q-126 0 -126 90q0 17 5 27h1021q126 0 126 -85q0 -18 -7 -32h-170q39 -30 39 -121z" />
    <glyph glyph-name="uni0915094D0928" horiz-adv-x="784" 
d="M456 285l-3 -180q0 -80 15 -105q-18 -7 -42 -7q-51 0 -74 30.5t-23 69.5t10 71q-42 -42 -123 -79q13 -29 13 -57t-20.5 -46.5t-57 -18.5t-80 33t-43.5 75q0 25 25.5 47t84.5 50q-47 21 -77.5 69.5t-30.5 106t37.5 100t95.5 42.5q41 0 67 -26.5t26 -63.5q0 -6 -1 -11
q-62 0 -97 -38q-24 -26 -24 -57.5t19 -49.5t45 -18q70 0 125 86q2 78 2 149.5t-15 94.5h-264q-126 0 -126 90q0 17 5 27h783q126 0 126 -85q0 -18 -7 -32h-407q29 -24 29 -78q0 -16 -3 -29q36 31 86 31q79 0 146.5 -69t67.5 -155q0 -57 -37.5 -99.5t-95.5 -42.5
q-41 0 -67 26.5t-26 63.5q0 6 1 11q62 0 98 39q23 26 23 57.5t-19 49t-45 17.5q-67 0 -122 -89z" />
    <glyph glyph-name="uni0916094D0928" horiz-adv-x="815" 
d="M335 384q0 -62 -40 -103.5t-113 -46.5q29 -50 81.5 -77t112.5 -27q97 0 166.5 60t69.5 146q0 27 -12.5 46t-37.5 19t-38 -19t-13 -48q0 -51 26 -74q-16 -12 -39 -12q-45 0 -77.5 32.5t-32.5 87.5t36.5 89.5t92.5 34.5t99 -35q-2 76 -21 95h-331q71 -78 71 -168zM743 431
l-5 -326q0 -80 15 -105q-18 -7 -42 -7q-44 0 -66.5 25t-22.5 68q0 13 1 20q-41 -41 -96.5 -64.5t-75.5 -31.5q-30 -12 -159 -55q8 -27 8 -50t-19.5 -40t-55 -17t-80.5 33.5t-45 75.5q0 74 189 101q-64 20 -115 67t-78 123q-35 16 -57.5 45t-22.5 58.5t15.5 47.5t43.5 18
q53 0 76 -83q30 10 48 35t18 61q0 73 -42 122h-104q-126 0 -126 90q0 17 5 27h802q126 0 126 -85q0 -18 -7 -32h-167q39 -30 39 -121z" />
    <glyph glyph-name="uni0917094D0928" horiz-adv-x="612" 
d="M539 431l-5 -326q0 -80 15 -105q-17 -7 -42 -7q-52 0 -76.5 33t-24.5 75.5t11 75.5l-136 -84q16 -36 16 -64t-19.5 -45.5t-55.5 -17.5t-80.5 32.5t-44.5 73.5q0 34 51 70q65 46 170 91q70 30 85 36q3 141 3 200.5t-15 82.5h-176q68 -71 68 -167q0 -64 -34.5 -97t-85 -33
t-93.5 38.5t-43 93.5q0 31 17 47.5t42 16.5q38 0 63 -38q12 16 12 58t-39 81h-79q-126 0 -126 90q0 17 5 27h627q126 0 126 -85q0 -18 -7 -32h-168q39 -30 39 -121z" />
    <glyph glyph-name="uni0918094D0928" horiz-adv-x="631" 
d="M152 446q0 -7 2 -21q36 18 77.5 18t70.5 -21t29 -51t-24.5 -46.5t-52 -16.5t-44.5 4q-30 -21 -30 -52t21 -46.5t62.5 -15.5t89 29t71.5 73q2 80 2 154.5t-15 97.5h-198q-61 -33 -61 -106zM559 431l-5 -326q0 -80 15 -105q-17 -7 -42 -7q-44 0 -70.5 26.5t-26.5 74.5
q0 28 7 59q-26 -24 -88.5 -53t-91.5 -44q14 -36 14 -62t-19.5 -43.5t-55.5 -17.5t-80.5 32.5t-44.5 73.5q0 27 33 53.5t88 47.5q-55 19 -89 62.5t-34 89.5t26 83q-54 54 -54 120q0 30 12 60q-16 -2 -27 -2q-46 0 -77.5 20.5t-31.5 68.5q0 17 5 27h646q126 0 126 -85
q0 -18 -7 -32h-167q39 -30 39 -121z" />
    <glyph glyph-name="uni091A094D0928" horiz-adv-x="674" 
d="M601 431l-5 -326q0 -80 15 -105q-17 -7 -42 -7q-50 0 -72.5 29.5t-22.5 68t8 68.5q-23 -23 -82 -55t-79 -43q16 -38 16 -65t-19.5 -44.5t-55.5 -17.5t-80.5 32.5t-44.5 73.5q0 52 125 109q-53 22 -87 72t-34 97q0 20 6 40q-28 -10 -59.5 -10t-61 22t-29.5 67q0 17 5 27
h244q126 0 126 -85q0 -16 -7 -30h-35q-38 0 -64.5 -18t-26.5 -49t23 -48.5t62.5 -17.5t81 28.5t61.5 83.5q1 35 1 118t-15 106h-419q-126 0 -126 90q0 17 5 27h698q126 0 126 -85q0 -18 -7 -32h-168q39 -30 39 -121z" />
    <glyph glyph-name="uni091B094D0928" horiz-adv-x="694" 
d="M161 444q0 -20 6 -40q30 9 66.5 9t64.5 -19.5t28 -48.5t-24 -45t-51 -16t-47 6q-41 -26 -41 -69t39.5 -69t101.5 -26t122 27q-5 19 -31.5 90.5t-26.5 117t21 83t59 52.5q-4 39 -18 56h-204q-65 -35 -65 -108zM563 345q0 19 -10.5 34.5t-33 15.5t-39.5 -24.5t-17 -69
t29 -106.5q71 63 71 150zM559 -13l-4 -262q0 -73 12 -96q-13 -6 -33 -6q-97 0 -97 138q0 44 1 67h-141q-6 -52 -24 -77t-56.5 -25t-74.5 46.5t-36 91.5t32.5 61t118 16t183.5 -10q1 28 1 99q-40 -8 -79 -8q-117 0 -211 70.5t-94 172.5q0 57 40 97q-45 58 -45 124q0 37 14 69
q-16 -2 -27 -2q-46 0 -77.5 20.5t-31.5 68.5q0 17 5 27h696q126 0 126 -85q0 -18 -7 -32h-224q26 -22 31 -68q43 -27 69 -81t26 -108q0 -144 -106 -219q13 -42 13 -89z" />
    <glyph glyph-name="uni091C094D0928" horiz-adv-x="725" 
d="M654 431l-5 -326q0 -80 15 -105q-18 -7 -42 -7q-43 0 -69.5 25.5t-26.5 67.5q0 22 7 44l-137 -84q16 -36 16 -64t-19.5 -45.5t-55.5 -17.5t-80.5 32.5t-44.5 73.5q0 34 52 71q64 45 168 90q71 30 86 36q2 72 2 124h-156q11 -39 11 -66q0 -54 -33 -85t-84 -31
q-67 0 -126.5 53t-89 111.5t-29.5 88t13.5 41.5t32.5 13q71 -187 171 -187q27 0 41.5 16t14.5 30t-1 17q-90 11 -90 88q0 17 5 27h321q0 67 -15 90h-445q-126 0 -126 90q0 17 5 27h722q126 0 126 -85q0 -18 -7 -32h-166q39 -30 39 -121z" />
    <glyph glyph-name="uni091D094D0928" horiz-adv-x="934" 
d="M312 318l152 -4q192 0 270 85q1 15 1 49q0 81 -15 104h-320q37 -38 37 -82t-28 -69t-81 -25l-74 1q-102 0 -102 -37q0 -30 46 -30q13 0 48.5 4t65.5 4zM205 494l77 -1q51 0 51 28q0 19 -18 31h-272q-126 0 -126 90q0 17 5 27h949q126 0 126 -85q0 -18 -7 -32h-166
q39 -30 39 -121l-5 -416q0 -80 15 -105q-17 -7 -42 -7q-94 0 -94 113q0 40 13 99l-76 -46q14 -36 14 -59.5t-18 -38t-52 -14.5t-76.5 30.5t-42.5 68.5q0 66 239 162q2 38 4 57q-78 -55 -181 -55q-67 0 -124 16q32 -53 32 -102q0 -65 -47.5 -104t-124.5 -39q-43 0 -86 8
q53 -82 120 -82q36 0 61 21q31 -26 31 -62.5t-25.5 -57.5t-61.5 -21q-131 0 -202 226q-101 47 -101 131q0 22 14 37.5t40.5 15.5t49 -25t31.5 -58q31 -17 80.5 -17t90 18t40.5 43q0 30 -35 30l-91 -7q-76 0 -132.5 55.5t-56.5 130.5q0 55 37 86t104 31z" />
    <glyph glyph-name="uni091F094D0928" horiz-adv-x="505" 
d="M411 50l-3 -230q0 -69 13 -89q-15 -7 -36 -7q-91 0 -91 132q0 19 2 89h-88q-6 -55 -24 -81t-57 -26t-75 46.5t-36 91.5t32.5 61t96.5 16t152 -6v16q0 47 -4 67h-6q-96 0 -177 62t-81 144q0 38 23.5 66.5t56.5 43.5t66.5 27t57 25t23.5 27.5t-9 26.5h-191q-126 0 -126 90
q0 17 5 27h489q126 0 126 -85q0 -18 -7 -32h-216q39 -33 39 -69t-23 -58t-56 -36t-66 -27q-79 -31 -79 -76q0 -27 23.5 -42.5t69.5 -15.5t89.5 31.5t56.5 86.5q38 -4 63 -31t25 -61t-20.5 -62.5t-62.5 -45.5q25 -26 25 -96z" />
    <glyph glyph-name="uni0920094D0928" horiz-adv-x="522" 
d="M363 308q0 62 -109 79q-84 -35 -106 -53.5t-22 -40.5q0 -33 32.5 -48.5t84 -15.5t86 24t34.5 55zM397 50l-3 -230q0 -69 13 -89q-15 -7 -36 -7q-91 0 -91 132q0 19 2 89h-87q-6 -55 -24 -81t-57 -26t-75 46.5t-36 91.5t32.5 61t107 16t140.5 -6v16q0 49 -5 69h-5
q-103 0 -181 66t-78 134q0 39 24.5 68.5t59 46t69.5 29t59.5 26t24.5 27t-10 23.5h-198q-126 0 -126 90q0 17 5 27h524q126 0 126 -85q0 -18 -7 -32h-236q38 -32 38 -66t-34 -58q72 -9 113 -53t41 -93t-30 -84t-85 -52q25 -27 25 -96z" />
    <glyph glyph-name="uni0921094D0928" horiz-adv-x="564" 
d="M469 -25l-3 -223q0 -70 13 -89q-15 -7 -34 -7q-89 0 -89 130q0 30 2 100h-89q-5 -57 -23 -84.5t-57.5 -27.5t-75.5 46.5t-36 91.5t32.5 61t97 16t152.5 -6v5q0 42 -3 61q-80 1 -156 25.5t-119.5 58t-43.5 60.5t23 40q87 -74 239 -74q63 0 104.5 13t41.5 33.5t-30 20.5
q-13 0 -65.5 -4t-85.5 -4q-76 0 -132.5 52t-56.5 122q0 48 36.5 75t105 27t113.5 -0.5t45 28.5q0 16 -18 30h-301q-126 0 -126 90q0 17 5 27h568q126 0 126 -85q0 -18 -7 -32h-180q37 -37 37 -77.5t-28 -64.5t-81 -24l-105 1q-102 0 -102 -35q0 -30 44 -30l151 9
q79 0 126.5 -52.5t47.5 -104.5q0 -77 -81 -110q18 -25 18 -89z" />
    <glyph glyph-name="uni0924094D0928" horiz-adv-x="682" 
d="M614 431l-5 -326q0 -80 15 -105q-18 -7 -42 -7q-106 0 -106 141q0 50 14 97l-91 -56q13 -34 13 -57.5t-17 -38.5t-48.5 -15t-71 28.5t-39.5 65.5q0 62 244 162v12h-176q-132 0 -132 -107q0 -101 75 -202q-11 -23 -38.5 -23t-66 42t-68 107.5t-29.5 121.5q0 93 61 136.5
t154 43.5t221 -23v20q0 81 -15 104h-410q-126 0 -126 90q0 17 5 27h684q126 0 126 -85q0 -18 -7 -32h-163q39 -30 39 -121z" />
    <glyph glyph-name="uni0925094D0928" horiz-adv-x="640" 
d="M434 333l1 114q0 63 -6.5 82t-34.5 46.5t-28 66.5q0 17 5 27h206q126 0 126 -85q0 -18 -7 -32h-168q40 -29 40 -121l-5 -326q0 -80 15 -105q-18 -7 -42 -7q-50 0 -72.5 33t-22.5 74t7 78q-22 -24 -54 -39q-68 -32 -126 -61q14 -36 14 -62t-19.5 -43.5t-55.5 -17.5t-80 32
t-44 72q0 28 36.5 56t95.5 49q-72 15 -123.5 60t-51.5 95q0 25 33.5 49t73 41.5t73 49t33.5 68.5q0 18 -10.5 31.5t-34 13.5t-40.5 -23.5t-17 -51.5t10 -45q-8 -4 -21 -4q-41 0 -67 33.5t-26 81t35 81t88 33.5q67 0 123 -61t56 -145q0 -42 -18.5 -75.5t-44.5 -53
t-52.5 -34.5t-45 -27t-18.5 -22q0 -25 57 -25t118 26.5t89 72.5z" />
    <glyph glyph-name="uni0926094D0928" horiz-adv-x="498" 
d="M412 669q126 0 126 -85q0 -18 -7 -32h-150q37 -37 37 -73t-28 -61t-68 -40t-80.5 -30t-68.5 -40.5t-28 -65.5t32.5 -64.5t71 -24.5t65.5 8q-12 24 -12 52.5t21.5 50t56 21.5t56.5 -28t22 -68t-30 -81q96 -53 96 -132q0 -38 -23 -63t-61 -25q-62 0 -87 54q26 6 40 23.5
t14 45t-22 49.5q-42 -38 -116 -85q15 -37 15 -64.5t-19.5 -45t-55.5 -17.5t-80.5 32.5t-44.5 73.5q0 58 166 125q-92 12 -155 75t-63 142q0 48 27.5 83.5t67 54t79 32t67 28.5t27.5 30.5t-7 27.5h-238q-126 0 -126 90q0 17 5 27h478z" />
    <glyph glyph-name="uni0927094D0928" horiz-adv-x="631" 
d="M559 431l-5 -326q0 -80 15 -105q-17 -7 -42 -7q-51 0 -74 29.5t-23 64.5t7 67q-26 -25 -89 -54.5t-91 -43.5q14 -36 14 -62t-19.5 -43.5t-55.5 -17.5t-80.5 32.5t-44.5 73.5q0 27 33 53.5t88 47.5q-55 19 -89 62.5t-34 89.5t26 83q-54 54 -54 120q0 30 12 60
q-16 -2 -27 -2q-46 0 -77.5 20.5t-31.5 68.5q0 17 5 27h221q126 0 126 -85q0 -18 -7 -32h-10q-46 0 -73 -28t-27 -75q0 -12 3 -24q35 18 76.5 18t70.5 -21t29 -51t-24.5 -46.5t-52 -16.5t-44.5 4q-30 -21 -30 -52t21 -46.5t62.5 -15.5t88.5 28.5t72 72.5q2 82 2 147
t-6.5 83.5t-34.5 46t-28 66.5q0 17 5 27h206q126 0 126 -85q0 -18 -7 -32h-168q40 -29 40 -121z" />
    <glyph glyph-name="uni0928094D0928" horiz-adv-x="589" 
d="M517 431l-5 -326q0 -80 15 -105q-17 -7 -42 -7q-103 0 -103 134q0 35 9 84l-125 -72q18 -43 18 -72t-21.5 -48t-59 -19t-85 33t-47.5 78q0 81 259 185q-58 51 -115 61q-15 -91 -76 -91q-42 0 -78.5 40t-36.5 85.5t30.5 70.5t79.5 25q128 0 249 -140q1 27 1 103.5
t-15 101.5h-313q-126 0 -126 90q0 17 5 27h591q126 0 126 -85q0 -18 -7 -32h-167q39 -30 39 -121z" />
    <glyph glyph-name="uni092A094D0928" horiz-adv-x="572" 
d="M184 431l-2 -81q0 -46 14 -68.5t50 -22.5t69 25t50 61q1 30 1 107t-15 100h-205q38 -29 38 -121zM499 431l-5 -326q0 -80 15 -105q-17 -7 -42 -7q-54 0 -79 36t-25 80t10 77q-38 -31 -145 -93q16 -38 16 -65t-19.5 -44.5t-55.5 -17.5t-80.5 32.5t-44.5 68.5t35 65t105 64
q-56 33 -93.5 84.5t-37.5 98.5q0 83 -1 118t-14 55q-113 3 -113 90q0 17 5 27h579q126 0 126 -85q0 -18 -7 -32h-168q39 -30 39 -121z" />
    <glyph glyph-name="uni092B094D0928" horiz-adv-x="789" 
d="M179 431l-2 -61q0 -90 61 -90q48 0 91 45q1 35 1 119.5t-15 107.5h-174q38 -29 38 -121zM461 296l-3 -191q0 -80 15 -105q-17 -7 -42 -7q-54 0 -79.5 37.5t-25.5 82.5t9 74q-38 -33 -127 -88q16 -40 16 -66t-19.5 -43.5t-55.5 -17.5t-80.5 32.5t-44.5 69.5t39 67.5
t118 68.5q-58 31 -95.5 82.5t-37.5 100.5q0 74 -1 107.5t-14 51.5q-108 5 -108 90q0 17 5 27h783q126 0 126 -85q0 -18 -7 -32h-408q29 -26 29 -79q0 -9 -2 -29q34 32 86 32q82 0 148 -68.5t66 -155.5q0 -57 -37.5 -99.5t-95.5 -42.5q-42 0 -68 26.5t-26 63.5q0 7 1 11
q65 0 101 41q21 25 21 56t-19 48.5t-45 17.5q-60 0 -122 -78z" />
    <glyph glyph-name="uni092C094D0928" horiz-adv-x="604" 
d="M161 345q-27 -22 -27 -55.5t27 -56.5t55.5 -23t50.5 5zM398 312l1 136q0 81 -15 104h-338q-126 0 -126 90q0 17 5 27h616q126 0 126 -85q0 -18 -7 -32h-167q39 -30 39 -121l-5 -326q0 -80 15 -105q-18 -7 -42 -7q-51 0 -75.5 31.5t-24.5 67.5t10 61q-22 -22 -128 -88
q17 -39 17 -66.5t-19.5 -45t-55.5 -17.5t-80.5 32.5t-44.5 73.5q0 47 99 87q-71 23 -120 87.5t-49 130.5t51 105t112.5 39t100 -24.5t38.5 -62t-15 -55.5q-33 20 -79 20q-10 0 -14 -1l105 -129q44 29 70 73z" />
    <glyph glyph-name="uni092D094D0928" horiz-adv-x="671" 
d="M599 431l-5 -326q0 -80 15 -105q-17 -7 -51 -7t-60.5 25.5t-26.5 67.5q0 17 5 42l-131 -66q12 -32 12 -57.5t-19.5 -43t-55.5 -17.5t-80.5 32.5t-44.5 73.5q0 46 93 91q78 37 142 59.5t71 25.5l1 55h-162q-17 -81 -67.5 -81t-96 44.5t-45.5 84.5q0 65 90 70q1 24 1 92.5
t-31 68.5q-20 0 -29.5 -19.5t-9.5 -48.5t10 -47q-8 -4 -21 -4q-41 0 -67 36.5t-26 82t28 77.5t77 32q68 0 127 -84t66 -187q91 -3 158 -9v59q0 81 -15 104h-16q-126 0 -126 90q0 17 5 27h294q126 0 126 -85q0 -18 -7 -32h-167q39 -30 39 -121z" />
    <glyph glyph-name="uni092E094D0928" horiz-adv-x="622" 
d="M417 448q0 81 -15 104h-191q39 -30 39 -121v-34q100 -4 167 -9v60zM550 431l-5 -326q0 -80 15 -105q-18 -7 -42 -7q-43 0 -69.5 25.5t-26.5 67.5q0 17 5 42l-131 -66q12 -32 12 -57.5t-19.5 -43t-55.5 -17.5t-80.5 32.5t-44.5 73.5q0 46 94 91q77 37 141 59.5t71 25.5
l1 54h-175q-9 -42 -28 -61.5t-58 -19.5t-81 44.5t-42 84.5q0 63 86 70q1 12 1 35q0 93 -17 119h-58q-126 0 -126 90q0 17 5 27h637q126 0 126 -85q0 -18 -7 -32h-167q39 -30 39 -121z" />
    <glyph glyph-name="uni092F094D0928" horiz-adv-x="609" 
d="M400 333l1 115q0 51 -3.5 71t-14.5 33h-121q30 -43 30 -90t-21 -77.5t-46 -44.5q-67 -38 -67 -58q0 -34 67 -34q49 0 99.5 22t75.5 63zM534 431l-5 -326q0 -80 15 -105q-18 -7 -42 -7q-50 0 -72.5 33t-22.5 75t9 82q-24 -22 -47 -33t-51 -25l-50 -25q18 -40 18 -69.5
t-21.5 -48.5t-59 -19t-85 33t-47.5 78q0 54 105 103q-62 22 -103.5 74t-41.5 97q0 36 77 76q30 16 54 42.5t24 50.5t-8 35h-104q-126 0 -126 90q0 17 5 27h591q126 0 126 -85q0 -18 -7 -32h-170q39 -30 39 -121z" />
    <glyph glyph-name="uni0935094D0928" horiz-adv-x="568" 
d="M362 335l1 113q0 81 -15 104h-302q-126 0 -126 90q0 17 5 27h580q126 0 126 -85q0 -18 -7 -32h-167q39 -30 39 -121l-5 -326q0 -80 15 -105q-18 -7 -42 -7q-51 0 -75.5 31.5t-24.5 67.5t7 64q-26 -23 -124 -84q17 -39 17 -66.5t-19.5 -45t-55.5 -17.5t-80.5 32.5
t-44.5 73.5q0 29 28.5 57t77.5 49q-59 24 -100 81t-41 119t43.5 98t97.5 36t89.5 -24.5t35.5 -60.5t-15 -55q-29 18 -64 18t-58.5 -19t-23.5 -51t23.5 -52t64.5 -20t79.5 30.5t60.5 79.5z" />
    <glyph glyph-name="uni0936094D0928" horiz-adv-x="741" 
d="M226 504q0 -49 42 -93q66 51 66 109q0 23 -13 39t-38 16t-41 -21t-16 -50zM669 431l-5 -326q0 -80 15 -105q-17 -7 -42 -7q-51 0 -75.5 31.5t-24.5 84.5q0 24 7 61l-137 -80q17 -40 17 -68.5t-21.5 -47.5t-59 -19t-85 33t-47.5 78q0 72 219 169q-54 17 -115 46
q-45 -30 -93 -48.5t-85 -18.5t-65.5 26t-31.5 73q65 7 148 48q-95 78 -95 168q0 62 42.5 102t112.5 40t131 -62t61 -137t-60 -137q75 -34 154 -51q2 86 2 156t-6.5 89t-34.5 46.5t-28 66.5q0 17 5 27h206q126 0 126 -85q0 -18 -7 -32h-168q40 -29 40 -121z" />
    <glyph glyph-name="uni0938094D0928" horiz-adv-x="804" 
d="M431 452q77 0 167 -92q1 25 1 97t-15 95h-286q47 -54 49 -122q39 22 84 22zM732 431l-5 -326q0 -80 15 -105q-18 -7 -42 -7q-106 0 -106 141q0 68 15 130l-86 -55q14 -34 14 -58t-17 -39t-48.5 -15t-71 28.5t-39.5 65.5q0 52 162 128q-35 20 -68 20t-60 -12.5t-46 -30
t-39 -35.5q-46 -43 -115 -45q20 -52 52 -81.5t87 -29.5q19 0 32 4q10 -22 10 -49t-19 -48.5t-57 -21.5q-116 0 -187 243q-42 19 -69.5 52t-27.5 68.5t16.5 56.5t47 21t48.5 -22t31 -63q45 1 68.5 32t23.5 74q0 68 -46 100h-153q-126 0 -126 90q0 17 5 27h810q126 0 126 -85
q0 -18 -7 -32h-167q39 -30 39 -121z" />
    <glyph glyph-name="uni0939094D0928" horiz-adv-x="609" 
d="M192 482l206 -1q38 0 38 28q0 12 -9 24t-23 19h-348q-126 0 -126 90q0 17 5 27h632q60 0 85 -18q11 -8 20 -25.5t9 -38.5t-7 -35h-182q48 -44 48 -99q0 -37 -28.5 -62.5t-80.5 -25.5l-207 1q-65 0 -65 -48q0 -23 16 -47q59 31 132 31t140 -33.5t113 -96.5t46 -135l-1 -52
q0 -67 13 -86q-16 -5 -34 -5q-86 0 -86 123l1 73v4l-81 -51q14 -34 14 -58t-17 -39t-48.5 -15t-71 28.5t-39.5 65.5q0 60 200 150q-36 28 -92 28q-78 0 -130.5 -45.5t-52.5 -120t65 -127.5t149 -53q29 0 57 6q7 -16 7 -33.5t-20.5 -32t-57.5 -14.5q-75 0 -149 39
t-122.5 108.5t-48.5 156t59 145.5q-68 65 -68 138q0 49 35 80.5t105 31.5z" />
    <glyph glyph-name="uni0915094D0930" horiz-adv-x="784" 
d="M456 285l-3 -180q0 -80 15 -105q-18 -7 -42 -7q-51 0 -74 30.5t-23 66t6 59.5q-61 -68 -121.5 -99t-101.5 -31t-70.5 26.5t-31.5 65.5q76 13 147 44q-54 19 -90.5 72t-36.5 113.5t37.5 103t95.5 42.5q41 0 67 -26.5t26 -63.5q0 -6 -1 -11q-30 0 -57 -11q-64 -27 -64 -89
q0 -27 19 -45t45 -18q70 0 125 86q2 78 2 149.5t-15 94.5h-264q-126 0 -126 90q0 17 5 27h783q126 0 126 -85q0 -18 -7 -32h-407q29 -24 29 -78q0 -16 -3 -29q36 31 86 31q79 0 146.5 -69t67.5 -155q0 -57 -37.5 -99.5t-95.5 -42.5q-41 0 -67 26.5t-26 63.5q0 6 1 11
q64 0 99 41q22 25 22 56t-19 48.5t-45 17.5q-67 0 -122 -89z" />
    <glyph glyph-name="uni0916094D0930" horiz-adv-x="815" 
d="M335 384q0 -62 -40 -103.5t-113 -46.5q29 -50 81.5 -77t112.5 -27q97 0 166.5 60t69.5 146q0 27 -12.5 46t-37.5 19t-38 -19t-13 -48q0 -51 26 -74q-16 -12 -39 -12q-45 0 -77.5 32.5t-32.5 87.5t36.5 89.5t92.5 34.5t99 -35q-2 76 -21 95h-331q71 -78 71 -168zM743 431
l-5 -326q0 -80 15 -105q-18 -7 -42 -7q-44 0 -66.5 25t-22.5 68q0 16 3 34q-64 -76 -198 -133.5t-204.5 -57.5t-100 26.5t-29.5 63.5q0 12 3 27q54 -6 111 -6t115 9q-74 15 -135 64t-91 135q-35 16 -57.5 45t-22.5 58.5t15.5 47.5t43.5 18q53 0 76 -83q30 10 48 35t18 61
q0 73 -42 122h-104q-126 0 -126 90q0 17 5 27h802q126 0 126 -85q0 -18 -7 -32h-167q39 -30 39 -121z" />
    <glyph glyph-name="uni0917094D0930" horiz-adv-x="612" 
d="M539 431l-5 -326q0 -80 15 -105q-17 -7 -42 -7q-52 0 -76.5 33t-24.5 71t8 67q-79 -73 -139.5 -101.5t-98 -28.5t-65.5 27t-30 67q74 15 169 68t154 100q2 82 2 157.5t-15 98.5h-176q68 -71 68 -167q0 -64 -34.5 -97t-85 -33t-93.5 38.5t-43 93.5q0 31 17 47.5t42 16.5
q38 0 63 -38q12 16 12 58t-39 81h-79q-126 0 -126 90q0 17 5 27h627q126 0 126 -85q0 -18 -7 -32h-168q39 -30 39 -121z" />
    <glyph glyph-name="uni0918094D0930" horiz-adv-x="631" 
d="M152 446q0 -7 2 -21q36 18 77.5 18t70.5 -21t29 -51t-24.5 -46.5t-52 -16.5t-44.5 4q-30 -21 -30 -52t21 -46.5t62.5 -15.5t89 29t71.5 73q2 80 2 154.5t-15 97.5h-198q-61 -33 -61 -106zM559 431l-5 -326q0 -80 15 -105q-17 -7 -42 -7q-44 0 -70.5 26.5t-26.5 74.5
q0 25 6 57q-66 -72 -146 -120.5t-126 -48.5t-76 28t-32 68q77 12 184 51q-73 8 -122 57.5t-49 100.5t26 88q-54 54 -54 120q0 30 12 60q-16 -2 -27 -2q-46 0 -77.5 20.5t-31.5 68.5q0 17 5 27h646q126 0 126 -85q0 -18 -7 -32h-167q39 -30 39 -121z" />
    <glyph glyph-name="uni0919094D0930" horiz-adv-x="661" 
d="M161.5 -87q73.5 53 125 53t136 -70t84.5 -112q0 -30 -34 -44q-40 40 -91 77t-71 37t-67 -32.5t-98 -85.5q-58 21 -58 72.5t73.5 104.5zM534 388.5q16 16.5 44.5 16.5t54 -25t25.5 -53t-16.5 -45t-45 -17t-53.5 24.5t-25 53.5t16 45.5zM404 194l-140 -7q-76 0 -132.5 56.5
t-56.5 133.5q0 55 37 86t105 31t113 -0.5t45 28.5q0 16 -18 30h-301q-126 0 -126 90q0 17 5 27h663q126 0 126 -85q0 -18 -7 -32h-276q38 -40 38 -83t-28 -68t-81 -25l-105 1q-102 0 -102 -40q0 -31 44 -31l144 9q73 0 126.5 -54t53.5 -122.5t-46.5 -108t-125.5 -39.5
q-121 0 -221.5 59.5t-100.5 113.5q0 25 27 35q40 -43 102 -67.5t128 -24.5t106.5 17.5t40.5 43.5t-37 26z" />
    <glyph glyph-name="uni091A094D0930" horiz-adv-x="674" 
d="M601 431l-5 -326q0 -80 15 -105q-17 -7 -42 -7q-50 0 -72.5 29.5t-22.5 64.5t7 67q-53 -58 -140.5 -110t-134.5 -52t-77 28t-32 68q76 14 177 56q-57 20 -95 72t-38 102q0 20 6 40q-28 -10 -59.5 -10t-61 22t-29.5 67q0 17 5 27h244q126 0 126 -85q0 -16 -7 -30h-35
q-38 0 -64.5 -18t-26.5 -49t23 -48.5t62.5 -17.5t81 28.5t61.5 83.5q1 35 1 118t-15 106h-419q-126 0 -126 90q0 17 5 27h698q126 0 126 -85q0 -18 -7 -32h-168q39 -30 39 -121z" />
    <glyph glyph-name="uni091B094D0930" horiz-adv-x="694" 
d="M224.5 -56q73.5 53 125 53t136 -70t84.5 -112q0 -30 -34 -44q-41 41 -91.5 77.5t-70.5 36.5t-67 -32.5t-98 -85.5q-58 21 -58 72.5t73.5 104.5zM490 363.5q-13 -28.5 -13 -60t10 -47.5q-6 -10 -20 -10q-30 0 -55.5 39t-25.5 83t16.5 77t45.5 49q-3 39 -18 58h-204
q-65 -35 -65 -108q0 -21 6 -39q35 11 73.5 11t66.5 -20t28 -50.5t-24.5 -47.5t-52.5 -17t-56 7q-39 -25 -39 -67.5t39.5 -68.5t99.5 -26q97 0 177 59t80 158q0 49 -31 49q-25 0 -38 -28.5zM631 669q126 0 126 -85q0 -18 -7 -32h-224q24 -20 31 -65q44 -24 69.5 -77
t25.5 -115q0 -125 -80.5 -199t-203.5 -74t-217 70.5t-94 172.5q0 55 40 97q-45 58 -45 124q0 37 14 69q-16 -2 -27 -2q-46 0 -77.5 20.5t-31.5 68.5q0 17 5 27h696z" />
    <glyph glyph-name="uni091C094D0930" horiz-adv-x="725" 
d="M654 431l-5 -326q0 -80 15 -105q-18 -7 -42 -7q-46 0 -70.5 26t-24.5 56.5t7 61.5q-68 -74 -131 -111t-103.5 -37t-70 26t-31.5 63q73 15 167 67.5t153 98.5q2 60 2 102h-161q16 -29 16 -79.5t-33 -81.5t-84 -31q-67 0 -126.5 53t-89 111.5t-29.5 88t13.5 41.5t32.5 13
q71 -187 171 -187q27 0 41.5 16t14.5 31.5t-4 26.5q-87 11 -87 87q0 17 5 27h321q0 67 -15 90h-445q-126 0 -126 90q0 17 5 27h722q126 0 126 -85q0 -18 -7 -32h-166q39 -30 39 -121z" />
    <glyph glyph-name="uni091D094D0930" horiz-adv-x="914" 
d="M312 318l152 -4q81 0 142 17.5t104 67.5q1 14 1 72t-15 81h-296q37 -38 37 -82t-28 -69t-81 -25l-74 1q-102 0 -102 -37q0 -30 46 -30q13 0 48.5 4t65.5 4zM205 494l77 -1q51 0 51 28q0 19 -18 31h-272q-126 0 -126 90q0 17 5 27h929q126 0 126 -85q0 -18 -7 -32h-166
q39 -30 39 -121l-5 -326q0 -80 15 -105q-17 -7 -42 -7q-88 0 -88 91q0 16 3 31q-57 -79 -127 -79q-37 0 -63 22.5t-34 58.5q103 30 216 105q2 34 3 50q-64 -52 -160 -52q-67 0 -124 16q32 -53 32 -102q0 -65 -47.5 -104t-124.5 -39q-43 0 -86 8q53 -82 120 -82q36 0 61 21
q31 -26 31 -62.5t-25.5 -57.5t-61.5 -21q-131 0 -202 226q-101 47 -101 131q0 22 14 37.5t40.5 15.5t49 -25t31.5 -58q31 -17 80.5 -17t90 18t40.5 43q0 30 -35 30l-91 -7q-76 0 -132.5 55.5t-56.5 130.5q0 55 37 86t104 31z" />
    <glyph glyph-name="uni091E094D0930" horiz-adv-x="746" 
d="M671 431l-5 -326q0 -80 15 -105q-17 -7 -42 -7q-48 0 -71.5 28t-23.5 63t7 57q-143 -141 -229 -141q-47 0 -76.5 26t-31.5 66q74 15 169 65.5t152 94.5l1 41q-8 -1 -37.5 -1t-61.5 8q-10 -54 -52 -84.5t-103 -30.5t-114.5 28t-86 67.5t-51.5 77t-19 62.5t14 37t32 12
q70 -172 188 -172q45 0 74.5 22t29.5 48q0 11 -7.5 18.5t-24 7.5t-35.5 -13.5t-27 -32.5q-22 7 -38 29t-16 51t23.5 52.5t67 23.5t85 -37t55.5 -91h6q57 0 100 34v39q0 81 -15 104h-480q-126 0 -126 90q0 17 5 27h761q126 0 126 -85q0 -18 -7 -32h-170q39 -30 39 -121z" />
    <glyph glyph-name="uni091F094D0930" horiz-adv-x="485" 
d="M112.5 -30q73.5 53 125 53t136 -70t84.5 -112q0 -30 -34 -44q-40 40 -91 77t-71 37t-67 -32.5t-98 -85.5q-58 21 -58 72.5t73.5 104.5zM424 669q126 0 126 -85q0 -18 -7 -32h-210q45 -35 45 -73.5t-24.5 -64.5t-59 -42.5t-69 -34t-59 -45.5t-24.5 -64t26 -59t71.5 -23
t88.5 34.5t53 83.5q38 -3 63 -30t25 -69t-45 -79.5t-135 -37.5t-176.5 68.5t-86.5 155.5q0 50 24 87t58 57.5t68 36t58 32t24 35t-12 32.5h-190q-126 0 -126 90q0 17 5 27h489z" />
    <glyph glyph-name="uni0920094D0930" horiz-adv-x="520" 
d="M136.5 -39q73.5 53 125 53t136 -70t84.5 -112q0 -30 -34 -44q-41 41 -91.5 77.5t-70.5 36.5t-67 -32.5t-98 -85.5q-58 21 -58 72.5t73.5 104.5zM334 173.5q41 36.5 41 79t-31 71t-79 34.5q-97 -48 -117 -91q-10 -21 -10 -46q0 -42 29 -63t67 -21q59 0 100 36.5zM459 669
q126 0 126 -85q0 -18 -7 -32h-237q43 -34 43 -76.5t-48 -76.5q76 -4 120 -56.5t44 -116.5q0 -86 -62.5 -136.5t-153.5 -50.5t-174 71t-83 157q0 51 24.5 89t59.5 59t69.5 37.5t59 33.5t24.5 35t-10 31h-198q-126 0 -126 90q0 17 5 27h524z" />
    <glyph glyph-name="uni0921094D0930" horiz-adv-x="549" 
d="M158.5 -87q73.5 53 125 53t136 -70t84.5 -112q0 -30 -34 -44q-40 40 -91 77t-71 37t-67 -32.5t-98 -85.5q-58 21 -58 72.5t73.5 104.5zM404 194l-140 -7q-76 0 -132.5 56.5t-56.5 133.5q0 55 37 86t105 31t113 -0.5t45 28.5q0 16 -18 30h-301q-126 0 -126 90q0 17 5 27
h568q126 0 126 -85q0 -18 -7 -32h-181q38 -40 38 -83t-28 -68t-81 -25l-105 1q-102 0 -102 -40q0 -31 44 -31l144 9q73 0 126.5 -54t53.5 -122.5t-46.5 -108t-125.5 -39.5q-121 0 -221.5 59.5t-100.5 113.5q0 25 27 35q40 -43 102 -67.5t128 -24.5t106.5 17.5t40.5 43.5
t-37 26z" />
    <glyph glyph-name="uni0922094D0930" horiz-adv-x="515" 
d="M125.5 -69q73.5 53 125 53t136 -70t84.5 -112q0 -30 -34 -44q-41 41 -91.5 77.5t-70.5 36.5t-67 -32.5t-98 -85.5q-58 21 -58 72.5t73.5 104.5zM454 669q126 0 126 -85q0 -18 -7 -32h-201q38 -32 38 -70t-28.5 -62.5t-69 -40.5t-80.5 -34t-68.5 -49.5t-28.5 -79t40 -79.5
t96.5 -32t88.5 30.5t32 64.5q0 16 -8.5 25.5t-20.5 9.5q-31 0 -42 -43q-4 -13 -4 -35q-9 -4 -24 -4q-32 0 -57 23t-25 62t30 65t75 26q68 0 123.5 -51.5t55.5 -121t-52.5 -108.5t-124.5 -39t-138 33.5t-111.5 93.5t-45.5 128q0 48 20 86t50.5 59.5t65.5 40t65 28.5
q71 25 71 53q0 11 -10 21h-247q-126 0 -126 90q0 17 5 27h537z" />
    <glyph glyph-name="uni0923094D0930" horiz-adv-x="762" 
d="M139 552q24 -18 31.5 -46.5t7.5 -61t0.5 -44t4 -30t9.5 -28.5q18 -28 53.5 -28t51 35.5t15.5 104.5t-17 98h-156zM690 431l-5 -326q0 -80 15 -105q-18 -7 -42 -7q-52 0 -76.5 33t-24.5 82q0 20 5 43q-76 -69 -134.5 -96.5t-96.5 -27.5t-67.5 27t-31.5 67q74 15 169 68
t154 100q2 86 2 163t-15 100h-170q64 -67 64 -169q0 -68 -35.5 -114.5t-114.5 -46.5t-160 67t-81 159q0 41 -2.5 65t-12.5 39q-113 3 -113 90q0 17 5 27h777q126 0 126 -85q0 -18 -7 -32h-167q39 -30 39 -121z" />
    <glyph glyph-name="uni0924094D0930" horiz-adv-x="579" 
d="M373 327l1 121q0 81 -15 104h-303q-126 0 -126 90q0 17 5 27h581q126 0 126 -85q0 -18 -7 -32h-167q39 -30 39 -121l-5 -326q0 -80 15 -105q-17 -7 -42 -7q-55 0 -80 37.5t-25 88t14 99.5q-137 -135 -221 -135q-36 0 -66 23.5t-30 72.5q75 0 223 124q-66 48 -131 48
q-21 0 -38.5 -11t-25.5 -29q-66 28 -66 87q0 36 28 58t68 22q63 0 122 -41t126 -110z" />
    <glyph glyph-name="uni0925094D0930" horiz-adv-x="640" 
d="M434 333l1 114q0 63 -6.5 82t-34.5 46.5t-28 66.5q0 17 5 27h206q126 0 126 -85q0 -18 -7 -32h-168q40 -29 40 -121l-5 -326q0 -80 15 -105q-18 -7 -42 -7q-50 0 -72.5 33t-22.5 73t7 77q-66 -66 -154 -114t-137.5 -48t-78.5 28t-31 71q115 19 203 46q-82 7 -146 55
t-64 105q0 25 33.5 49t73 41.5t73 49t33.5 68.5q0 18 -10.5 31.5t-34 13.5t-40.5 -23.5t-17 -51.5t10 -45q-8 -4 -21 -4q-41 0 -67 33.5t-26 81t35 81t88 33.5q67 0 123 -61t56 -145q0 -42 -18.5 -75.5t-44.5 -53t-52.5 -34.5t-45 -27t-18.5 -22q0 -25 57 -25t118 26.5
t89 72.5z" />
    <glyph glyph-name="uni0926094D0930" horiz-adv-x="503" 
d="M412 669q126 0 126 -85q0 -18 -7 -32h-150q37 -37 37 -72.5t-27 -60t-65.5 -39.5l-77 -30t-65.5 -40t-27 -64.5t34.5 -63t83.5 -23.5q23 0 39 4q-11 22 -11 50.5t21.5 50t56 21.5t56.5 -28t22 -67t-27 -83q41 -23 67 -57.5t26 -73t-23 -63.5t-61 -25q-62 0 -87 54
q26 6 40 23.5t14 43t-17 46.5q-54 -56 -127.5 -94.5t-120 -38.5t-76 25t-30.5 71q103 11 239 66q-101 3 -172 66.5t-71 145.5q0 48 27.5 83.5t67 54t79 32t67 28.5t27.5 30.5t-7 27.5h-238q-126 0 -126 90q0 17 5 27h478z" />
    <glyph glyph-name="uni0927094D0930" horiz-adv-x="631" 
d="M559 431l-5 -326q0 -80 15 -105q-17 -7 -42 -7q-51 0 -74 29.5t-23 65t7 68.5q-67 -74 -148 -124t-127.5 -50t-75.5 28t-29 68q64 11 163 51q-65 15 -108 63.5t-43 97t26 85.5q-54 54 -54 120q0 30 12 60q-16 -2 -27 -2q-46 0 -77.5 20.5t-31.5 68.5q0 17 5 27h221
q126 0 126 -85q0 -18 -7 -32h-10q-46 0 -73 -28t-27 -75q0 -12 3 -24q35 18 76.5 18t70.5 -21t29 -51t-24.5 -46.5t-52 -16.5t-44.5 4q-30 -21 -30 -52t21 -46.5t62 -15.5t88.5 28t72.5 71q2 80 2 147t-6.5 85.5t-34.5 46t-28 66.5q0 17 5 27h206q126 0 126 -85
q0 -18 -7 -32h-168q40 -29 40 -121z" />
    </font>
</defs>
</svg>
