<?xml version="1.0" standalone="no"?>
<!DOCTYPE svg PUBLIC "-//W3C//DTD SVG 1.1//EN" "http://www.w3.org/Graphics/SVG/1.1/DTD/svg11.dtd" >
<svg>
<metadata>
Created by FontForge 20120731 at Wed Mar 20 08:15:53 2019
 By www-data
Copyright 2015 Google Inc. All Rights Reserved.
</metadata>
<defs>
<font id="NotoSerif-Bold" horiz-adv-x="0" >
  <font-face 
    font-family="Noto Serif"
    font-weight="700"
    font-stretch="normal"
    units-per-em="1000"
    panose-1="2 2 8 2 6 5 5 2 2 4"
    ascent="800"
    descent="-200"
    x-height="536"
    cap-height="714"
    bbox="-724 -389 2797 1065"
    underline-thickness="50"
    underline-position="-75"
    unicode-range="U+000D-FFFD"
  />
<missing-glyph horiz-adv-x="582" 
d="M85 0v714h411v-714h-411zM136 51div09v612h-309v-612z" />
    <glyph glyph-name="f_f" unicode="ff" horiz-adv-x="762" 
d="M19 0v53h22q15 0 31.5 4.5t28 18.5t11.5 42v350h-89v68h89v8q0 107 50 161t154 54q63 0 95 -12.5t43.5 -29.5t11.5 -33q0 -34 -27.5 -48.5t-78.5 -14.5q0 16 -4 35t-13.5 32.5t-27.5 13.5q-15 0 -26.5 -12t-18 -44.5t-6.5 -94.5v-15h203v9q0 62 22 113t68.5 81t120.5 30
q92 0 126 -21t34 -52q0 -65 -123 -65q0 16 -4.5 35t-14 32.5t-25.5 13.5q-29 0 -40.5 -41.5t-11.5 -107.5v-27h138v-68h-138v-350q0 -28 11.5 -42t28.5 -18.5t31 -4.5h47v-53h-353v53h12q15 0 31.5 4.5t28 18.5t11.5 42v350h-203v-350q0 -28 11.5 -42t28.5 -18.5t31 -4.5h27
v-53h-343z" />
    <glyph glyph-name="f_f_i" unicode="ffi" horiz-adv-x="1074" 
d="M19 0v53h22q15 0 31.5 4.5t28 18.5t11.5 42v350h-89v68h89v8q0 107 50 161t154 54q63 0 95 -12.5t43.5 -29.5t11.5 -33q0 -34 -27.5 -48.5t-78.5 -14.5q0 16 -4 35t-13.5 32.5t-27.5 13.5q-15 0 -26.5 -12t-18 -44.5t-6.5 -94.5v-15h203v6q0 108 65 167.5t205 59.5
q83 0 131.5 -10.5t69 -30t20.5 -47.5q0 -37 -34 -60.5t-114 -23.5q0 19 -7.5 46t-27.5 48t-58 21q-48 0 -73 -31t-25 -97v-48div55v-418q0 -28 11.5 -42t28.5 -18.5t31 -4.5h12v-53h-318v53h12q15 0 31.5 4.5t28 18.5t11.5 42v350h-203v-350q0 -28 11.5 -42t28.5 -18.5
t31 -4.5h27v-53h-333v53h12q15 0 31.5 4.5t28 18.5t11.5 42v350h-203v-350q0 -28 11.5 -42t28.5 -18.5t31 -4.5h27v-53h-343z" />
    <glyph glyph-name="f_f_l" unicode="ffl" horiz-adv-x="1074" 
d="M19 0v53h22q15 0 31.5 4.5t28 18.5t11.5 42v350h-89v68h89v8q0 107 50 161t154 54q63 0 95 -12.5t43.5 -29.5t11.5 -33q0 -34 -27.5 -48.5t-78.5 -14.5q0 16 -4 35t-13.5 32.5t-27.5 13.5q-15 0 -26.5 -12t-18 -44.5t-6.5 -94.5v-15h203v6q0 108 65 167.5t205 59.5
q63 0 109 -9h128v-642q0 -28 11.5 -42t28.5 -18.5t31 -4.5h12v-53h-308v53h2q15 0 31.5 4.5t28 18.5t11.5 42v471q-1 20 -12.5 49t-34 51.5t-58.5 22.5q-48 0 -73 -31t-25 -97v-48h125v-68h-125v-350q0 -28 11.5 -42t28.5 -18.5t31 -4.5h17v-53h-323v53h12q15 0 31.5 4.5
t28 18.5t11.5 42v350h-203v-350q0 -28 11.5 -42t28.5 -18.5t31 -4.5h17v-53h-333z" />
    <glyph glyph-name="fi" unicode="fi" horiz-adv-x="719" 
d="M19 0v53h22q15 0 31.5 4.5t28 18.5t11.5 42v350h-89v68h89v6q0 108 65 167.5t205 59.5q83 0 131.5 -10.5t69 -30t20.5 -47.5q0 -37 -34 -60.5t-114 -23.5q0 19 -7.5 46t-27.5 48t-58 21q-48 0 -73 -31t-25 -97v-48div55v-418q0 -28 11.5 -42t28.5 -18.5t31 -4.5h12v-53
h-318v53h12q15 0 31.5 4.5t28 18.5t11.5 42v350h-203v-350q0 -28 11.5 -42t28.5 -18.5t31 -4.5h27v-53h-343z" />
    <glyph glyph-name="fl" unicode="fl" horiz-adv-x="719" 
d="M19 0v53h22q15 0 31.5 4.5t28 18.5t11.5 42v350h-89v68h89v6q0 108 65 167.5t205 59.5q63 0 109 -9h128v-642q0 -28 11.5 -42t28.5 -18.5t31 -4.5h12v-53h-308v53h2q15 0 31.5 4.5t28 18.5t11.5 42v471q-1 20 -12.5 49t-34 51.5t-58.5 22.5q-48 0 -73 -31t-25 -97v-48
h125v-68h-125v-350q0 -28 11.5 -42t28.5 -18.5t31 -4.5h17v-53h-333z" />
    <glyph glyph-name=".notdef" horiz-adv-x="582" 
d="M85 0v714h411v-714h-411zM136 51div09v612h-309v-612z" />
    <glyph glyph-name="NULL" 
 />
    <glyph glyph-name="NULL" 
 />
    <glyph glyph-name="CR" unicode="&#xd;" horiz-adv-x="260" 
 />
    <glyph glyph-name="space" unicode=" " horiz-adv-x="260" 
 />
    <glyph glyph-name="exclam" unicode="!" horiz-adv-x="382" 
d="M157 228l-53 486h174l-52 -486h-69zM192 -8q-34 0 -58 17.5t-24 62.5q0 46 24 63t58 17q33 0 57.5 -17t24.5 -63q0 -45 -24.5 -62.5t-57.5 -17.5z" />
    <glyph glyph-name="quotedbl" unicode="&#x22;" horiz-adv-x="508" 
d="M330 439l-45 275h156l-45 -275h-66zM112 439l-45 275h156l-45 -275h-66z" />
    <glyph glyph-name="numbersign" unicode="#" horiz-adv-x="559" 
d="M90 0l38 200h-100v69h113l35 181h-116v70h129l35 194h72l-36 -194h104l37 194h71l-37 -194h96v-70h-109l-34 -181h111v-69h-125l-37 -200h-71l37 200h-104l-38 -200h-71zM212 269h105l35 181h-105z" />
    <glyph glyph-name="dollar" unicode="$" horiz-adv-x="559" 
d="M256 -79v122q-76 2 -121.5 23.5t-65.5 53.5t-20 63q0 44 29 62t65 18q0 -75 31 -117t82 -50v216q-73 30 -113 58.5t-56 61.5t-16 77q0 72 51.5 118.5t133.5 55.5v77h56v-76q89 -3 130 -31.5t41 -68.5q0 -31 -27 -52t-83 -21q0 30 -14 65t-47 49v-195q30 -15 64 -29
t64.5 -34t49.5 -51t19 -81q0 -76 -52 -127.5t-145 -62.5v-124h-56zM256 457v173q-29 -5 -48.5 -25t-19.5 -54q0 -27 14 -49t54 -45zM312 98q38 8 58 33t20 59q0 32 -19.5 54.5t-58.5 42.5v-189z" />
    <glyph glyph-name="percent" unicode="%" horiz-adv-x="906" 
d="M214 280q-95 0 -137.5 61.5t-42.5 161.5q0 101 42.5 161t138.5 60q90 0 134.5 -60t44.5 -161q0 -100 -44.5 -161.5t-135.5 -61.5zM240 0l345 714h77l-344 -714h-78zM214 330q38 0 52 45.5t14 127.5q0 80 -14 125t-51 45t-52.5 -45t-15.5 -125q0 -82 15 -127.5t52 -45.5z
M692 -10q-95 0 -137.5 61.5t-42.5 161.5q0 101 42.5 161t138.5 60q90 0 134.5 -60t44.5 -161q0 -100 -44.5 -161.5t-135.5 -61.5zM692 40q38 0 52 45.5t14 127.5q0 80 -14 125t-51 45t-52.5 -45t-15.5 -125q0 -82 15 -127.5t52 -45.5z" />
    <glyph glyph-name="ampersand" unicode="&#x26;" horiz-adv-x="801" 
d="M301 -10q-123 0 -188.5 56.5t-65.5 156.5q0 59 23.5 95.5t62.5 60t85 41.5q-40 47 -58 87t-18 90q0 66 50.5 106.5t150.5 40.5q96 0 143.5 -42t47.5 -100q0 -61 -37 -100t-115 -75l149 -156q6 35 8 69t2 62v44h219v-53h-16q-34 0 -62 -11t-41 -57q-7 -28 -18 -59.5
t-26 -63.5l100 -104q14 -15 34.5 -20t47.5 -5h9v-53h-198l-69 73q-37 -37 -91 -60t-129 -23zM340 452q42 24 57.5 53.5t15.5 75.5q0 35 -14 59t-56 24q-34 0 -49.5 -24t-15.5 -60q0 -34 15.5 -63.5t46.5 -64.5zM326 57q53 0 90 17.5t61 46.5l-214 228q-42 -30 -55.5 -67.5
t-13.5 -83.5q0 -59 36 -100t96 -41z" />
    <glyph glyph-name="quotesingle" unicode="'" horiz-adv-x="290" 
d="M112 439l-45 275h156l-45 -275h-66z" />
    <glyph glyph-name="parenleft" unicode="(" horiz-adv-x="400" 
d="M368 -139q-167 67 -239 181t-72 276q0 161 72 274t239 180v-63q-62 -41 -94.5 -102.5t-44 -135.5t-11.5 -153t11.5 -154t44 -136.5t94.5 -102.5v-64z" />
    <glyph glyph-name="parenright" unicode=")" horiz-adv-x="400" 
d="M32 -139v64q62 41 94.5 102.5t44 136.5t11.5 154t-11.5 153t-44 135.5t-94.5 102.5v63q167 -67 239 -180t72 -274q0 -162 -72 -276t-239 -181z" />
    <glyph glyph-name="asterisk" unicode="*" horiz-adv-x="502" 
d="M196 367l32 162l-148 -105l-45 99l156 40l-156 41l45 99l148 -106l-32 163h112l-36 -162l150 105l45 -100l-156 -40l156 -39l-45 -100l-150 104l36 -161h-112z" />
    <glyph glyph-name="plus" unicode="+" horiz-adv-x="559" 
d="M243 143v179h-178v71h178v179h72v-179h179v-71h-179v-179h-72z" />
    <glyph glyph-name="comma" unicode="," horiz-adv-x="294" 
d="M45 -154v52q44 16 66 32.5t22 45.5q0 14 -11 21.5t-25.5 16t-25.5 24t-11 45.5q0 34 20.5 51.5t51.5 17.5q42 0 67 -29.5t25 -80.5q0 -64 -40.5 -117t-138.5 -79z" />
    <glyph glyph-name="hyphen" unicode="-" horiz-adv-x="310" 
d="M25 220v105h260v-105h-260z" />
    <glyph glyph-name="period" unicode="." horiz-adv-x="294" 
d="M147 -8q-34 0 -58 17.5t-24 62.5q0 46 24 63t58 17q33 0 57.5 -17t24.5 -63q0 -45 -24.5 -62.5t-57.5 -17.5z" />
    <glyph glyph-name="slash" unicode="/" horiz-adv-x="288" 
d="M0 -121l218 881h70l-216 -882z" />
    <glyph glyph-name="zero" unicode="0" horiz-adv-x="559" 
d="M280 -10q-91 0 -145 46t-77.5 129t-23.5 194t23.5 193t77.5 127t146 45q87 0 140.5 -45t78.5 -127.5t25 -193.5t-25 -193.5t-79 -128.5t-141 -46zM280 55q56 0 73 80t17 223t-17 222t-72 79q-56 0 -74 -79t-18 -222t18 -223t73 -80z" />
    <glyph glyph-name="one" unicode="1" horiz-adv-x="559" 
d="M97 0v53h82q26 0 38 14t12 51v501q-38 -46 -68.5 -75t-60.5 -29q-24 0 -41 20t-17 54q30 8 67.5 24t86.5 53l70 52h112v-600q0 -31 10 -48t41 -17h81v-53h-413z" />
    <glyph glyph-name="two" unicode="2" horiz-adv-x="559" 
d="M35 0v103l148 151q62 63 95 111t46 92t13 96q0 57 -21 83.5t-57 26.5q-51 0 -71.5 -43.5t-20.5 -129.5q-57 0 -92.5 22.5t-35.5 76.5q0 36 24.5 67t73.5 49.5t122 18.5q112 0 170.5 -44.5t58.5 -121.5q0 -35 -12.5 -68t-41.5 -72t-79 -90.5t-125 -122.5l-100 -95h233
q64 0 83 69l8 31h59l-5 -210h-473z" />
    <glyph glyph-name="three" unicode="3" horiz-adv-x="559" 
d="M243 -10q-75 0 -122.5 17t-70 44.5t-22.5 58.5q0 38 25.5 58t59.5 20q0 -64 34 -96t89 -32q33 0 61 13t45 45t17 89t-40 94t-115 37h-62v62h66q65 0 96 40.5t31 106.5q0 54 -21 85t-62 31q-36 0 -54.5 -22.5t-25 -58t-6.5 -74.5q-62 0 -96 21.5t-34 67.5q0 53 56 90
t165 37q107 0 169 -42.5t62 -120.5q0 -67 -44 -112.5t-109 -67.5q40 -7 81 -26.5t69 -55t28 -93.5q0 -61 -22.5 -102.5t-61 -66.5t-86.5 -36t-100 -11z" />
    <glyph glyph-name="four" unicode="4" horiz-adv-x="559" 
d="M180 0v53h28q34 0 58 12.5t24 59.5v61h-277v61l284 467h139v-462h104v-66h-104v-61q0 -47 24 -59.5t58 -12.5h13v-53h-351zM83 252h207v175q0 44 1.5 95t5.5 97q-5 -12 -15.5 -32t-23 -42.5t-23.5 -41.5t-17 -28z" />
    <glyph glyph-name="five" unicode="5" horiz-adv-x="559" 
d="M245 -10q-75 0 -120 17.5t-65 45t-20 58.5q0 35 22 52t58 17q0 -28 10.5 -56t34.5 -46t65 -18q33 0 61 14.5t45 49.5t17 96q0 75 -35.5 111.5t-100.5 36.5q-38 0 -63 -5.5t-48 -12.5l-46 18l32 346div78l5 -182h-57l-8 34q-4 18 -13 28t-33 10h-208l-16 -185
q16 6 47.5 10.5t62.5 4.5q116 0 186 -53.5t70 -160.5q0 -65 -23.5 -109t-62 -70.5t-84.5 -38.5t-91 -12z" />
    <glyph glyph-name="six" unicode="6" horiz-adv-x="559" 
d="M293 -10q-74 0 -130 36.5t-87 112t-31 191.5q0 83 17.5 154.5t52.5 125t89 84t126 30.5q65 0 103.5 -15.5t56 -40.5t17.5 -54q0 -31 -27 -54.5t-93 -23.5q0 30 -5.5 60t-19.5 49.5t-41 19.5q-59 0 -94 -68.5t-41 -195.5q20 14 53.5 25.5t84.5 11.5q91 0 145.5 -54.5
t54.5 -152.5q0 -107 -58.5 -174t-172.5 -67zM296 56q38 0 60.5 39.5t22.5 125.5q0 81 -24.5 118.5t-67.5 37.5q-27 0 -57.5 -15.5t-43.5 -32.5q1 -144 32.5 -208.5t77.5 -64.5z" />
    <glyph glyph-name="seven" unicode="7" horiz-adv-x="559" 
d="M165 0l266 605h-263q-52 0 -58 -51l-6 -50h-60l5 210h477v-49l-276 -665h-85z" />
    <glyph glyph-name="eight" unicode="8" horiz-adv-x="559" 
d="M273 -10q-83 0 -137 26t-80 69.5t-26 96.5q0 65 40.5 105.5t106.5 73.5q-60 35 -92 79t-32 102q0 47 22 88.5t73 67.5t137 26q106 0 159.5 -49.5t53.5 -125.5q0 -60 -36.5 -95t-98.5 -67q90 -43 128 -90t38 -108q0 -94 -67.5 -146.5t-188.5 -52.5zM302 421q37 21 53.5 51
t16.5 79q0 29 -10.5 55t-31 43t-51.5 17q-41 0 -63 -32t-22 -80q0 -52 28 -80.5t80 -52.5zM278 47q51 0 81.5 35t30.5 90q0 49 -34.5 81.5t-111.5 67.5q-34 -22 -56.5 -56t-22.5 -87q0 -58 31 -94.5t82 -36.5z" />
    <glyph glyph-name="nine" unicode="9" horiz-adv-x="559" 
d="M227 -10q-60 0 -96 16.5t-52 42.5t-16 54q0 22 12 37t37 20q14 -45 42 -76t78 -31q130 0 141 290q-22 -29 -57 -48.5t-85 -19.5q-86 0 -141 53t-55 154q0 72 27.5 126.5t79 85t122.5 30.5q73 0 129 -35t88.5 -109t32.5 -192q0 -82 -16 -154.5t-50.5 -127t-89 -85.5
t-131.5 -31zM274 347q35 0 60 18.5t39 48.5q-1 128 -29 185.5t-74 57.5q-43 0 -66.5 -42.5t-23.5 -126.5q0 -141 94 -141z" />
    <glyph glyph-name="colon" unicode=":" horiz-adv-x="304" 
d="M152 385q-34 0 -58 17.5t-24 62.5q0 46 24 63t58 17q33 0 57.5 -17t24.5 -63q0 -45 -24.5 -62.5t-57.5 -17.5zM152 -8q-34 0 -58 17.5t-24 62.5q0 46 24 63t58 17q33 0 57.5 -17t24.5 -63q0 -45 -24.5 -62.5t-57.5 -17.5z" />
    <glyph glyph-name="semicolon" unicode=";" horiz-adv-x="304" 
d="M152 385q-34 0 -58 17.5t-24 62.5q0 46 24 63t58 17q33 0 57.5 -17t24.5 -63q0 -45 -24.5 -62.5t-57.5 -17.5zM55 -154v52q44 16 66 32.5t22 45.5q0 14 -11 21.5t-25.5 16t-25.5 24t-11 45.5q0 34 20.5 51.5t51.5 17.5q42 0 67 -29.5t25 -80.5q0 -64 -40.5 -117
t-138.5 -79z" />
    <glyph glyph-name="less" unicode="&#x3c;" horiz-adv-x="559" 
d="M494 104l-429 233v41l429 234v-79l-322 -176l322 -174v-79z" />
    <glyph glyph-name="equal" unicode="=" horiz-adv-x="559" 
d="M63 419v70h433v-70h-433zM63 225v70h433v-70h-433z" />
    <glyph glyph-name="greater" unicode="&#x3e;" horiz-adv-x="559" 
d="M65 104v79l322 174l-322 176v79l429 -234v-41z" />
    <glyph glyph-name="question" unicode="?" horiz-adv-x="550" 
d="M208 228l-13 123q57 23 87.5 56t42 71.5t11.5 77.5q0 48 -18.5 78t-59.5 30q-45 0 -62.5 -37.5t-17.5 -88.5q-61 0 -101 17.5t-40 52.5q0 49 51.5 82.5t161.5 33.5q71 0 126 -22t87 -63t32 -99q0 -80 -49.5 -130t-149.5 -91l-13 -91h-75zM244 -8q-34 0 -58 17.5t-24 62.5
q0 46 24 63t58 17q33 0 57.5 -17t24.5 -63q0 -45 -24.5 -62.5t-57.5 -17.5z" />
    <glyph glyph-name="at" unicode="@" horiz-adv-x="921" 
d="M466 -142q-85 0 -160.5 24t-132.5 72t-89.5 120.5t-32.5 169.5q0 101 35.5 186.5t100 149t152 99t191.5 35.5q116 0 194 -43t118 -115.5t40 -163.5q0 -99 -30.5 -169.5t-78 -108t-97.5 -37.5q-44 0 -75 22t-48 72h-6q-21 -39 -53 -66.5t-85 -27.5q-42 0 -77.5 18.5
t-57.5 56.5t-22 96q0 40 15 88.5t47 92.5t83 72t124 28q35 0 59.5 -9t40.5 -21l42 21h24l-42 -250q-2 -12 -4.5 -34t-2.5 -34q0 -41 16 -54t32 -13q27 0 53.5 29t44 85.5t17.5 138.5q0 92 -36 153t-98.5 91.5t-143.5 30.5q-71 0 -138 -29.5t-120 -84.5t-84.5 -133.5
t-31.5 -177.5q0 -88 26 -151t72 -102t106 -57.5t127 -18.5q81 0 152.5 26.5t117.5 57.5l24 -38q-52 -40 -132.5 -68.5t-175.5 -28.5zM439 135q29 0 47 17.5t28.5 44.5t15.5 56l40 204q-6 14 -21.5 21t-31.5 7q-38 0 -65 -26.5t-44 -67t-25 -82t-8 -71.5q0 -49 18 -76t46 -27
z" />
    <glyph glyph-name="A" unicode="A" horiz-adv-x="753" 
d="M4 0v53h12q27 0 45.5 14t34.5 59l217 588h137l209 -589q15 -42 33.5 -57t42.5 -15h18v-53h-330v53div9q15 0 29 9t14 30q0 12 -3 23.5t-6 19.5l-35 100h-243l-29 -86q-4 -12 -8 -28.5t-4 -28.5q0 -19 14 -29t31 -10h42v-53h-260zM239 296h202l-53 164q-10 34 -22.5 76
t-20.5 77q-9 -32 -22 -72.5t-25 -75.5z" />
    <glyph glyph-name="B" unicode="B" horiz-adv-x="672" 
d="M28 0v53h41q22 0 37 11t15 54v479q0 40 -15.5 52t-36.5 12h-41v53h292q143 0 214.5 -44t71.5 -138q0 -66 -35 -100t-91 -52v-5q69 -17 112.5 -61.5t43.5 -117.5q0 -196 -286 -196h-322zM279 404div8q70 0 95.5 30t25.5 98t-27.5 94.5t-95.5 26.5h-36v-249zM279 61h66
q67 0 95 31t28 107q0 74 -26 109t-95 35h-68v-282z" />
    <glyph glyph-name="C" unicode="C" horiz-adv-x="668" 
d="M401 -10q-116 0 -193 46t-115 128.5t-38 193.5q0 108 39 190.5t116 129t190 46.5q115 0 171.5 -33.5t56.5 -82.5q0 -37 -32 -62t-93 -25q0 33 -10 65t-34 53t-66 21q-95 0 -132.5 -78.5t-37.5 -223.5t45.5 -216.5t156.5 -71.5q49 0 84 14.5t59.5 36.5t41.5 44
q17 -14 17 -43q0 -28 -21 -58.5t-70 -52t-135 -21.5z" />
    <glyph glyph-name="D" unicode="D" horiz-adv-x="767" 
d="M28 0v53h42q22 0 36.5 11t14.5 54v482q0 40 -15 50.5t-36 10.5h-42v53div30q166 0 260 -87t94 -257q0 -109 -40 -192.5t-118.5 -130.5t-195.5 -47h-330zM279 62h56q103 0 155.5 82.5t52.5 225.5t-52.5 213t-154.5 70h-57v-591z" />
    <glyph glyph-name="E" unicode="E" horiz-adv-x="653" 
d="M28 0v53h42q21 0 36 10t15 50v483q0 43 -14.5 54t-36.5 11h-42v53h555l4 -184h-70l-5 47q-4 37 -18.5 56.5t-45.5 19.5h-168v-250h237v-60h-237v-282h200q30 0 44.5 21.5t19.5 54.5l8 47h69l-7 -184h-586z" />
    <glyph glyph-name="F" unicode="F" horiz-adv-x="621" 
d="M28 0v53h42q21 0 36 10t15 50v487q0 40 -15 50.5t-36 10.5h-42v53h554l5 -184h-70l-5 48q-4 40 -23.5 57.5t-50.5 17.5h-159v-273h237v-59h-237v-203q0 -43 15 -54t37 -11h62v-53h-365z" />
    <glyph glyph-name="G" unicode="G" horiz-adv-x="769" 
d="M423 -10q-124 0 -205.5 46t-122 128.5t-40.5 193.5q0 108 42 190.5t125.5 129t205.5 46.5q125 0 187.5 -33.5t62.5 -82.5q0 -35 -33 -60t-96 -25q0 61 -30 99t-94 38q-109 0 -155.5 -78.5t-46.5 -223.5t48.5 -222.5t166.5 -77.5q19 0 37.5 1.5t35.5 5.5v147
q0 40 -18 55.5t-53 15.5h-13v53div14v-53h-13q-31 0 -45 -16t-14 -59v-164q-58 -27 -118 -40.5t-128 -13.5z" />
    <glyph glyph-name="H" unicode="H" horiz-adv-x="819" 
d="M28 0v53h42q21 0 36 11t15 54v482q0 40 -15.5 50.5t-35.5 10.5h-42v53div45v-53h-43q-21 0 -36 -11t-15 -54v-193h261v193q0 43 -15 54t-36 11h-43v53div45v-53h-42q-21 0 -36 -11t-15 -54v-483q0 -40 15.5 -50t35.5 -10h42v-53h-345v53h43q21 0 36 11t15 54v224h-261v-224
q0 -43 15 -54t36 -11h43v-53h-345z" />
    <glyph glyph-name="I" unicode="I" horiz-adv-x="401" 
d="M28 0v53h42q22 0 36.5 11t14.5 54v478q0 43 -14.5 54t-36.5 11h-42v53div45v-53h-42q-22 0 -36.5 -11t-14.5 -54v-478q0 -43 14.5 -54t36.5 -11h42v-53h-345z" />
    <glyph glyph-name="J" unicode="J" horiz-adv-x="397" 
d="M-21 -240v58h18q32 0 61 17t47 56t18 106v603q0 40 -15 50.5t-36 10.5h-42v53div45v-53h-42q-22 0 -37 -11t-15 -54v-598q0 -68 -22 -114t-59.5 -73t-85.5 -39t-99 -12h-36z" />
    <glyph glyph-name="K" unicode="K" horiz-adv-x="734" 
d="M28 0v53h42q21 0 36 10t15 50v487q0 40 -15 50.5t-36 10.5h-42v53div45v-53h-42q-22 0 -37 -11t-15 -54v-233l155 169q32 35 44.5 57.5t12.5 43.5q0 17 -12.5 23t-43.5 6v52h271v-52q-40 0 -74.5 -24.5t-69.5 -63.5l-132 -145l186 -295q30 -46 55.5 -63.5t58.5 -17.5h4
v-53h-54q-76 0 -117.5 10t-63.5 30.5t-41 51.5l-135 230l-44 -35v-169q0 -43 15 -54t37 -11h42v-53h-345z" />
    <glyph glyph-name="L" unicode="L" horiz-adv-x="654" 
d="M28 0v53h42q22 0 36.5 11t14.5 54v478q0 43 -14.5 54t-36.5 11h-42v53div45v-53h-42q-21 0 -36 -10.5t-15 -50.5v-539h186q35 0 54.5 22.5t28.5 64.5l16 75h56l-7 -223h-586z" />
    <glyph glyph-name="M" unicode="M" horiz-adv-x="952" 
d="M28 0v53h42q21 0 36 10t15 50v487q0 40 -15 50.5t-36 10.5h-42v53h288l166 -483l159 483h283v-53h-42q-22 0 -36.5 -11t-14.5 -54v-478q0 -43 14.5 -54t36.5 -11h42v-53h-320v53h10q32 0 47.5 9.5t15.5 46.5v506l-202 -615h-68l-211 615v-497q0 -43 19.5 -54t54.5 -11h6
v-53h-248z" />
    <glyph glyph-name="N" unicode="N" horiz-adv-x="788" 
d="M28 0v53h42q21 0 36 11t15 54v482q0 40 -15.5 50.5t-35.5 10.5h-42v53h222l353 -499v385q0 40 -15.5 50.5t-35.5 10.5h-42v53h261v-53h-42q-21 0 -36 -11t-15 -54v-596h-92l-390 551v-433q0 -43 15 -54t36 -11h42v-53h-261z" />
    <glyph glyph-name="O" unicode="O" horiz-adv-x="787" 
d="M394 -10q-114 0 -189 46t-112.5 129t-37.5 194t37.5 193t113 127.5t189.5 45.5q108 0 183.5 -45.5t114.5 -128t39 -193.5t-39.5 -193.5t-114.5 -128.5t-184 -46zM394 55q94 0 132 80t38 223t-38 222.5t-131 79.5q-94 0 -133 -79.5t-39 -222.5t39 -223t132 -80z" />
    <glyph glyph-name="P" unicode="P" horiz-adv-x="638" 
d="M28 0v53h42q22 0 36.5 11t14.5 54v482q0 40 -15 50.5t-36 10.5h-42v53div07q139 0 206 -57t67 -155q0 -60 -28.5 -112t-93.5 -84.5t-173 -32.5h-34v-160q0 -40 16 -50t37 -10h61v-53h-365zM279 331h24q74 0 105.5 38.5t31.5 128.5q0 80 -27.5 118.5t-94.5 38.5h-39v-324z
" />
    <glyph glyph-name="Q" unicode="Q" horiz-adv-x="787" 
d="M577 -240q-60 0 -116 24t-94 76t-45 136q-135 21 -201 118t-66 245q0 111 37.5 193t113 127.5t189.5 45.5q108 0 183.5 -45.5t114.5 -128t39 -193.5q0 -140 -62.5 -234.5t-180.5 -123.5q6 -73 27.5 -112.5t52.5 -54.5t64 -15h16v-58h-72zM394 55q94 0 132 80t38 223
t-38 222.5t-131 79.5q-94 0 -133 -79.5t-39 -222.5t39 -223t132 -80z" />
    <glyph glyph-name="R" unicode="R" horiz-adv-x="707" 
d="M28 0v53h42q20 0 35.5 10t15.5 50v487q0 40 -15.5 50.5t-35.5 10.5h-42v53div22q142 0 208 -47.5t66 -137.5q0 -53 -20 -90t-51 -61t-65 -38l119 -205q26 -43 49 -62.5t51 -19.5h4v-53h-33q-60 0 -100 7t-66.5 26.5t-47.5 56.5l-119 220h-66v-197q0 -40 15.5 -50t35.5 -10
h43v-53h-345zM279 368h56q69 0 95 37t26 110q0 76 -28 108t-95 32h-54v-287z" />
    <glyph glyph-name="S" unicode="S" horiz-adv-x="586" 
d="M264 -10q-89 0 -140.5 21.5t-72.5 54t-21 64.5q0 34 16 54.5t42 29.5t55 9q0 -85 38.5 -129t98.5 -44q59 0 91.5 31t32.5 77q0 51 -41.5 82t-125.5 65q-70 29 -111 60.5t-58.5 70t-17.5 87.5q0 61 32 106t87.5 70t125.5 25q110 0 161.5 -33.5t51.5 -82.5q0 -35 -30.5 -59
t-92.5 -24q0 28 -10.5 60t-33.5 55t-62 23q-40 0 -69.5 -23.5t-29.5 -68.5q0 -28 13 -52t49 -47.5t103 -50.5q103 -42 147 -90t44 -122q0 -64 -33.5 -113.5t-94.5 -77.5t-144 -28z" />
    <glyph glyph-name="T" unicode="T" horiz-adv-x="653" 
d="M154 0v53h42q22 0 36.5 11t14.5 54v535h-80q-45 0 -62 -19t-21 -52l-7 -62h-67l5 194h623l5 -194h-67l-7 62q-4 33 -21 52t-62 19h-80v-535q0 -43 14.5 -54t36.5 -11h42v-53h-345z" />
    <glyph glyph-name="U" unicode="U" horiz-adv-x="747" 
d="M387 -10q-130 0 -203.5 52.5t-73.5 175.5v382q0 40 -15.5 50.5t-35.5 10.5h-43v53div45v-53h-42q-21 0 -36 -11t-15 -54v-386q0 -84 40.5 -116.5t108.5 -32.5q67 0 106 35.5t39 111.5v392q0 40 -15 50.5t-36 10.5h-42v53h262v-53h-43q-21 0 -36 -11t-15 -54v-390
q0 -100 -59.5 -158t-190.5 -58z" />
    <glyph glyph-name="V" unicode="V" horiz-adv-x="698" 
d="M298 0l-213 613q-10 29 -28.5 38.5t-33.5 9.5h-23v53div30v-53h-46q-14 0 -26.5 -7t-12.5 -26q0 -10 3 -22.5t6 -20.5l102 -308q8 -22 17 -59.5t12 -64.5q4 25 13.5 59.5t18.5 61.5l103 304q4 11 8 26t4 23q0 17 -11 25.5t-29 8.5h-52v53h258v-53h-48q-13 0 -22.5 -13.5
t-25.5 -59.5l-204 -588h-100z" />
    <glyph glyph-name="W" unicode="W" horiz-adv-x="1067" 
d="M267 0l-183 608q-9 32 -25.5 42.5t-45.5 10.5h-13v53div34v-53h-23q-60 0 -60 -48q0 -8 3 -24t7 -30l67 -231q8 -25 16 -55.5t14.5 -60t8.5 -51.5q7 32 15 60.5t17 57.5l132 428h73l138 -382q17 -47 30.5 -93.5t18.5 -72.5q8 36 18 86.5t22 98.5l53 216q3 12 6 29t3 25
q0 26 -15.5 36.5t-48.5 10.5h-23v53h261v-53h-19q-29 0 -45.5 -14t-30.5 -64l-155 -583h-114l-168 469l-144 -469h-124z" />
    <glyph glyph-name="X" unicode="X" horiz-adv-x="732" 
d="M10 0v53h6q36 0 57.5 19t46.5 51l175 228l-165 257q-16 26 -34 39.5t-52 13.5h-13v53div31v-53h-3q-34 0 -46.5 -8.5t-12.5 -20.5q0 -10 7.5 -26t18.5 -33l83 -124l87 122q9 14 18 31t9 30q0 18 -16.5 23.5t-39.5 5.5h-3v53h234v-53h-9q-29 0 -49.5 -15.5t-49.5 -56.5
l-145 -198l184 -285q20 -31 40.5 -42t39.5 -11h13v-53h-330v53h5q60 0 60 33q0 11 -5.5 24t-27.5 45l-92 139l-108 -146q-9 -13 -17.5 -29t-8.5 -32t14 -25t47 -9divv-53h-252z" />
    <glyph glyph-name="Y" unicode="Y" horiz-adv-x="693" 
d="M164 0v53h47q24 0 41 9t17 52v139l-185 355q-15 29 -28.5 41t-42.5 12h-13v53div35v-53h-17q-30 0 -45 -12.5t-15 -32.5q0 -13 4.5 -27.5t10.5 -27.5l74 -147q16 -31 26 -56t18 -48q11 26 24.5 57t29.5 65l58 120q11 22 14 37t3 23q0 49 -66 49h-23v53h262v-53h-19
q-25 0 -39 -15.5t-37 -62.5l-170 -331v-137q0 -43 16.5 -52.5t39.5 -9.5h49v-53h-369z" />
    <glyph glyph-name="Z" unicode="Z" horiz-adv-x="666" 
d="M42 0v50l375 603h-197q-47 0 -62.5 -25t-19.5 -66l-5 -54h-72l5 206h534v-51l-376 -602h216q41 0 63 14.5t31 37.5t11 48l5 45h72l-5 -206h-575z" />
    <glyph glyph-name="bracketleft" unicode="[" horiz-adv-x="414" 
d="M100 -128v888h277v-53h-43q-34 0 -58 -12.5t-24 -59.5v-638q0 -47 24 -59.5t58 -12.5h43v-53h-277z" />
    <glyph glyph-name="backslash" unicode="\" horiz-adv-x="288" 
d="M216 -121l-216 881h71l217 -881h-72z" />
    <glyph glyph-name="bracketright" unicode="]" horiz-adv-x="414" 
d="M37 -128v53h43q34 0 58 12.5t24 59.5v638q0 47 -24 59.5t-58 12.5h-43v53h277v-888h-277z" />
    <glyph glyph-name="asciicircum" unicode="^" horiz-adv-x="559" 
d="M46 262l211 452h43l212 -452h-78l-156 343l-154 -343h-78z" />
    <glyph glyph-name="underscore" unicode="_" horiz-adv-x="459" 
d="M-5 -142v59h469v-59h-469z" />
    <glyph glyph-name="grave" unicode="`" horiz-adv-x="334" 
d="M226 606q-24 14 -52 33.5t-55 41.5t-48.5 42t-30.5 33v10h157q11 -22 28 -49t36 -53t33 -45v-13h-68z" />
    <glyph glyph-name="a" unicode="a" horiz-adv-x="599" 
d="M202 -10q-66 0 -111.5 40t-45.5 123q0 81 56 120t168 43l82 3v55q0 50 -10.5 82t-51.5 32q-38 0 -52.5 -30.5t-14.5 -77.5q-67 0 -101 15t-34 52t28 59t75 32.5t103 10.5q105 0 157.5 -38t52.5 -132v-255q0 -41 13 -56t47 -15h4v-53h-186l-21 69h-9q-22 -27 -41.5 -44.5
t-44.5 -26t-63 -8.5zM257 63q43 0 68.5 35t25.5 93v75l-45 -3q-60 -3 -83 -31.5t-23 -82.5q0 -86 57 -86z" />
    <glyph glyph-name="b" unicode="b" horiz-adv-x="649" 
d="M397 -10q-58 0 -94.5 24.5t-58.5 63.5h-9l-28 -78h-190v53h7q19 0 36.5 5t28.5 20t11 45v517q0 43 -23.5 55t-55.5 12h-4v53h235v-171q0 -15 -1 -37.5t-3 -45.5t-4 -38h7q22 37 57.5 58.5t92.5 21.5q98 0 149.5 -66.5t51.5 -211.5t-52.5 -212.5t-152.5 -67.5zM355 65
q50 0 71.5 53t21.5 153q0 102 -22 152.5t-72 50.5q-59 0 -80.5 -50t-21.5 -154q0 -99 21.5 -152t81.5 -53z" />
    <glyph glyph-name="c" unicode="c" horiz-adv-x="527" 
d="M295 -10q-73 0 -129 26.5t-87.5 87t-31.5 162.5q0 108 32.5 169.5t88 87.5t124.5 26q97 0 147.5 -30.5t50.5 -74.5q0 -21 -10.5 -40.5t-38.5 -32t-80 -12.5q0 35 -6 64t-20 47t-39 18q-29 0 -50.5 -19.5t-33 -67.5t-11.5 -134q0 -101 28 -151.5t91 -50.5q52 0 90 23.5
t55 57.5q12 -7 18 -19.5t6 -26.5q0 -25 -20.5 -50.5t-63 -42.5t-110.5 -17z" />
    <glyph glyph-name="d" unicode="d" horiz-adv-x="649" 
d="M250 -10q-98 0 -151 66.5t-53 210.5q0 145 52.5 213t149.5 68q56 0 92 -22.5t57 -57.5h7q-4 28 -6 63t-2 59v55q0 41 -24 51.5t-57 10.5h-8v53h241v-637q0 -30 11.5 -45t30.5 -20t41 -5h4v-53h-194l-28 78h-9q-22 -40 -58.5 -64t-95.5 -24zM293 65q59 0 81 50.5t22 153.5
q0 99 -22 152t-81 53q-50 0 -71.5 -53t-21.5 -153q0 -102 21.5 -152.5t71.5 -50.5z" />
    <glyph glyph-name="e" unicode="e" horiz-adv-x="571" 
d="M306 -10q-127 0 -193 72.5t-66 202.5q0 141 65 212.5t183 71.5q109 0 171.5 -61t62.5 -180v-51h-328q3 -100 37.5 -146t96.5 -46q52 0 88 23.5t53 57.5q27 -15 27 -49q0 -43 -48 -75t-149 -32zM203 321h173q0 77 -18 120t-61 43q-42 0 -67 -41.5t-27 -121.5z" />
    <glyph glyph-name="f" unicode="f" horiz-adv-x="407" 
d="M19 0v53h22q15 0 31.5 4.5t28 18.5t11.5 42v350h-89v68h89v37q0 93 49 144.5t155 51.5q65 0 101 -9.5t51 -26t15 -37.5q0 -65 -123 -65q0 16 -5 35t-15.5 32.5t-29.5 13.5q-25 0 -35.5 -27.5t-10.5 -93.5v-55h138v-68h-138v-350q0 -28 11.5 -42t28.5 -18.5t31 -4.5h47
v-53h-363z" />
    <glyph glyph-name="g" unicode="g" horiz-adv-x="560" 
d="M236 -240q-234 0 -234 139q0 53 35 82t100 34q-27 11 -50 32.5t-23 56.5q0 33 25 58t64 47q-44 16 -73 55t-29 100q0 88 51 136.5t158 48.5q35 0 66 -9t53 -22q26 29 50 42.5t54 13.5q36 0 54 -17t18 -40q0 -22 -15 -39.5t-56 -17.5q0 20 -12 31t-26 11q-20 0 -33 -11
q20 -22 34.5 -56t14.5 -71q0 -76 -49 -125.5t-153 -49.5q-11 0 -30 1t-28 2q-14 -6 -25 -19.5t-11 -31.5q0 -16 13 -24t34 -8h121q100 0 146 -40.5t46 -112.5q0 -92 -71 -144t-219 -52zM257 248q40 0 54 31.5t14 85.5q0 56 -14.5 90t-54.5 34q-39 0 -54 -35t-15 -90
q0 -52 15.5 -84t54.5 -32zM238 -180q88 0 128 25.5t40 74.5q0 32 -20 44.5t-61 12.5h-116q-20 0 -40.5 -5.5t-34.5 -21.5t-14 -49q0 -81 118 -81z" />
    <glyph glyph-name="h" unicode="h" horiz-adv-x="667" 
d="M20 0v53h2q34 0 56.5 12t22.5 57l-1 524q0 27 -12 40t-28.5 17t-30.5 4h-12v53h235v-165q0 -26 -2 -55.5t-4 -50.5l-2 -21h9q20 38 43.5 55t51 21.5t58.5 4.5q77 0 121 -46t44 -147v-232q0 -46 16.5 -58.5t50.5 -12.5divv-53h-222v329q0 65 -18 100t-62 35
q-33 0 -52 -21.5t-27 -57t-8 -76.5l1 -191q0 -42 19 -53.5t52 -11.5divv-53h-307z" />
    <glyph glyph-name="i" unicode="i" horiz-adv-x="352" 
d="M171 626q-36 0 -60.5 17.5t-24.5 54.5q0 38 24.5 55t60.5 17q35 0 60.5 -17t25.5 -55q0 -37 -25.5 -54.5t-60.5 -17.5zM17 0v53h12q15 0 31.5 4.5t28 18.5t11.5 42v304q0 27 -12 40t-28.5 17t-30.5 4h-12v53h235v-418q0 -28 11.5 -42t28.5 -18.5t31 -4.5h12v-53h-318z
" />
    <glyph glyph-name="j" unicode="j" horiz-adv-x="345" 
d="M172 626q-36 0 -60.5 17.5t-24.5 54.5q0 38 24.5 55t60.5 17q35 0 60.5 -17t25.5 -55q0 -37 -25.5 -54.5t-60.5 -17.5zM-20 -240v62h7q55 0 84 38t29 140v417q0 43 -24 54.5t-56 11.5h-3v53h235v-544q0 -89 -32.5 -140t-89 -71.5t-130.5 -20.5h-20z" />
    <glyph glyph-name="k" unicode="k" horiz-adv-x="636" 
d="M17 0v53h12q15 0 31.5 4.5t28 18.5t11.5 42v528q0 27 -12 40t-28.5 17t-30.5 4h-12v53h235v-386q0 -18 -1 -42.5t-2.5 -43l-1.5 -18.5l126 141q17 19 22 30t5 18q0 27 -52 27v50h252v-50q-34 0 -68 -20.5t-73 -64.5l-63 -72l133 -198q26 -40 53 -59t51 -19divv-53h-14
q-55 0 -92.5 2.5t-63.5 11t-45.5 26.5t-39.5 49l-89 140l-40 -30v-81q0 -28 11.5 -42t28.5 -18.5t31 -4.5h12v-53h-318z" />
    <glyph glyph-name="l" unicode="l" horiz-adv-x="352" 
d="M17 0v53h12q15 0 31.5 4.5t28 18.5t11.5 42v528q0 27 -12 40t-28.5 17t-30.5 4h-12v53h235v-642q0 -28 11.5 -42t28.5 -18.5t31 -4.5h12v-53h-318z" />
    <glyph glyph-name="m" unicode="m" horiz-adv-x="986" 
d="M20 0v53h2q34 0 56 12t22 57v299q0 42 -19.5 53.5t-52.5 11.5h-3v50h210l13 -71h5q20 38 43.5 55.5t51 23t58.5 5.5q55 0 94 -20t57 -64h9q20 38 45 55.5t54 23t60 5.5q77 0 121 -46t44 -147v-232q0 -46 16.5 -58.5t50.5 -12.5divv-53h-222v329q0 65 -18 100t-62 35
q-31 0 -50.5 -19.5t-28 -52t-8.5 -71.5v-197q0 -46 16.5 -58.5t50.5 -12.5divv-53h-222v329q0 65 -18 100t-62 35q-33 0 -52 -21.5t-27 -57t-8 -76.5v-191q0 -42 19.5 -53.5t52.5 -11.5divv-53h-307z" />
    <glyph glyph-name="n" unicode="n" horiz-adv-x="667" 
d="M20 0v53h2q34 0 56 12t22 57v296q0 42 -19.5 53.5t-52.5 11.5h-3v53h210l13 -71h5q20 38 43.5 55.5t51 23t58.5 5.5q77 0 121 -46t44 -147v-232q0 -46 16.5 -58.5t50.5 -12.5divv-53h-222v329q0 65 -18 100t-62 35q-33 0 -52 -21.5t-27 -57t-8 -76.5v-191
q0 -42 19.5 -53.5t52.5 -11.5divv-53h-307z" />
    <glyph glyph-name="o" unicode="o" horiz-adv-x="613" 
d="M305 -10q-120 0 -189 69.5t-69 210.5t66 210t195 69q120 0 189 -69t69 -210t-66.5 -210.5t-194.5 -69.5zM307 53q58 0 81 55.5t23 161.5q0 107 -23.5 161t-81.5 54t-81 -54t-23 -161q0 -106 23.5 -161.5t81.5 -55.5z" />
    <glyph glyph-name="p" unicode="p" horiz-adv-x="645" 
d="M13 -240v53h12q15 0 31.5 4.5t28 18.5t11.5 42v535q0 46 -19 58t-48 12h-7v53h196l18 -78h4q22 39 58.5 63.5t94.5 24.5q100 0 152.5 -67t52.5 -213q0 -145 -51.5 -211.5t-149.5 -66.5q-57 0 -92.5 21.5t-57.5 58.5h-7q2 -14 4 -37.5t3 -46t1 -37.5v-69q0 -28 11.5 -42
t28.5 -18.5t31 -4.5h22v-53h-328zM350 62q50 0 72 50.5t22 152.5q0 100 -21.5 153t-71.5 53q-60 0 -81.5 -53t-21.5 -152q0 -103 21.5 -153.5t80.5 -50.5z" />
    <glyph glyph-name="q" unicode="q" horiz-adv-x="648" 
d="M297 -240v53h18q33 0 57 10.5t24 51.5v73q0 32 2.5 65t5.5 57h-7q-21 -34 -57 -57t-92 -23q-97 0 -149.5 67t-52.5 212q0 144 53 210.5t151 66.5q59 0 95.5 -23.5t58.5 -64.5h9l20 78h202v-53h-4q-22 0 -41 -5t-30.5 -19.5t-11.5 -45.5v-538q0 -41 24 -51.5t57 -10.5h18
v-53h-350zM293 64q59 0 81 52t22 151q0 104 -22 154t-81 50q-50 0 -71.5 -50.5t-21.5 -152.5q0 -100 21.5 -152t71.5 -52z" />
    <glyph glyph-name="r" unicode="r" horiz-adv-x="523" 
d="M20 0v53divq34 0 55.5 12.5t21.5 59.5v290q0 44 -19.5 56t-52.5 12h-3v53h202l20 -78h5q20 45 50 67.5t91 22.5q115 0 115 -81q0 -46 -33.5 -71.5t-93.5 -25.5q0 41 -10 62t-39 21q-26 0 -42 -18t-24 -44.5t-11 -53.5t-3 -44v-173q0 -44 20 -55.5t50 -11.5div2v-53h-334z
" />
    <glyph glyph-name="s" unicode="s" horiz-adv-x="488" 
d="M231 -10q-109 0 -155 33.5t-46 83.5q0 33 16 49t38 21.5t39 5.5q0 -62 29.5 -98t78.5 -36q52 0 75.5 20t23.5 48q0 33 -26 54t-97 46q-81 28 -124 66.5t-43 105.5q0 80 59 119.5t156 39.5q63 0 101.5 -13.5t56 -35t17.5 -44.5q0 -34 -23.5 -51.5t-78.5 -17.5
q0 50 -22 77.5t-66 27.5q-32 0 -56.5 -15.5t-24.5 -46.5q0 -21 11.5 -37t41.5 -31t84 -34q67 -23 109.5 -60.5t42.5 -100.5q0 -83 -56.5 -129.5t-160.5 -46.5z" />
    <glyph glyph-name="t" unicode="t" horiz-adv-x="405" 
d="M243 -10q-67 0 -107 35t-40 123v320h-75v51q32 0 57.5 13t40.5 29q31 33 46 99h83v-124h128v-68h-128v-310q0 -45 15.5 -66t50.5 -21q20 0 37.5 2.5t33.5 6.5v-65q-16 -7 -52.5 -16t-89.5 -9z" />
    <glyph glyph-name="u" unicode="u" horiz-adv-x="667" 
d="M258 -10q-78 0 -120 48.5t-42 149.5v224q0 44 -16 57.5t-52 13.5h-2v53h222v-320q0 -64 16 -102.5t60 -38.5q48 0 69.5 41t21.5 111v192q0 44 -21.5 54t-50.5 10h-3v53h227v-420q0 -43 19 -53t48 -10h8v-53h-199l-22 71h-5q-30 -52 -70.5 -66.5t-87.5 -14.5z" />
    <glyph glyph-name="v" unicode="v" horiz-adv-x="606" 
d="M244 0l-164 435q-10 29 -28.5 38.5t-51.5 9.5v53div10v-53h-42q-33 0 -33 -32q0 -12 3 -24t6 -20l67 -189q11 -31 21.5 -65t14.5 -60q5 24 13 54.5t15 50.5l68 201q5 14 8 28t3 27q0 17 -11 23t-28 6h-29v53h220v-53h-20q-20 0 -34 -12.5t-31 -60.5l-145 -410h-132z" />
    <glyph glyph-name="w" unicode="w" horiz-adv-x="856" 
d="M199 0l-128 430q-11 32 -26.5 42.5t-44.5 10.5h-3v53h293v-53h-13q-30 0 -45 -8.5t-15 -33.5q0 -8 2.5 -20t5.5 -23l37 -130q10 -36 18 -74t12 -63divq5 25 12 51.5t20 63.5l102 285h65l98 -295q12 -36 17.5 -61t8.5 -44divq5 25 10.5 47.5t16.5 59.5l44 146q4 13 6.5 27.5
t2.5 22.5q0 49 -66 49h-7v53h229v-53h-13q-29 0 -44 -14.5t-31 -63.5l-129 -405h-108l-109 332l-115 -332h-109z" />
    <glyph glyph-name="x" unicode="x" horiz-adv-x="646" 
d="M11 0v53h9q36 0 57.5 13.5t51.5 50.5l126 152l-126 161q-42 53 -86 53h-13v53div14v-53h-3q-34 0 -45.5 -8.5t-11.5 -20.5q0 -17 23 -46l56 -68l47 57q25 31 25 56q0 18 -14 24t-37 6h-3v53h231v-53h-9q-29 0 -49 -12.5t-52 -51.5l-103 -126l147 -187q23 -28 42 -40.5
t38 -12.5h13v-53h-318v53h5q60 0 60 33q0 11 -6.5 25t-31.5 44l-57 69l-70 -87q-9 -12 -15 -24.5t-6 -25.5q0 -16 14.5 -25t47.5 -9divv-53h-254z" />
    <glyph glyph-name="y" unicode="y" horiz-adv-x="579" 
d="M27 -240v58q70 0 112.5 22t67.5 62t41 93l-180 440q-11 26 -27 33.5t-37 8.5h-4v59h285v-53h-3q-28 0 -44 -8t-16 -29q0 -8 3.5 -19.5t6.5 -19.5l69 -183q14 -38 20 -62t8 -44q2 21 10.5 47t11.5 33l66 196q4 10 7 25t3 24q0 22 -18 30.5t-51 9.5h-4v53h225v-53h-4
q-28 -1 -44.5 -16.5t-31.5 -56.5l-151 -410q-26 -73 -49.5 -119.5t-54.5 -73t-78.5 -37t-121.5 -10.5h-17z" />
    <glyph glyph-name="z" unicode="z" horiz-adv-x="529" 
d="M18 0v41l295 427h-146q-22 0 -34 -14.5t-23 -55.5l-6 -24h-60l12 162h432v-43l-296 -425h176q30 0 44 19t22 62l6 32h59l-5 -181h-476z" />
    <glyph glyph-name="braceleft" unicode="{" horiz-adv-x="442" 
d="M317 -125q-84 0 -127.5 40t-43.5 108v171q0 38 -15.5 57.5t-41.5 27.5t-59 9v61q33 1 59 8.5t41.5 27.5t15.5 57v172q0 70 43.5 108t127.5 38h95v-53h-39q-43 0 -57 -25t-14 -72v-170q0 -45 -26 -74t-84 -43v-8q57 -14 83.5 -43.5t26.5 -74.5v-171q0 -47 14 -72.5
t57 -25.5div9v-53h-95z" />
    <glyph glyph-name="bar" unicode="|" horiz-adv-x="559" 
d="M243 -240v1000h72v-1000h-72z" />
    <glyph glyph-name="braceright" unicode="}" horiz-adv-x="442" 
d="M30 -125v53div9q43 0 57 25.5t14 72.5v171q0 45 26.5 74.5t83.5 43.5v8q-58 14 -84 43t-26 74v170q0 47 -14 72t-57 25h-39v53h95q84 0 127.5 -38t43.5 -108v-172q0 -37 15.5 -57t42 -27.5t58.5 -8.5v-61q-32 -1 -58.5 -9t-42 -27.5t-15.5 -57.5v-171q0 -68 -43.5 -108
t-127.5 -40h-95z" />
    <glyph glyph-name="asciitilde" unicode="~" horiz-adv-x="559" 
d="M46 262q0 49 12 92t40.5 70t79.5 27q36 0 61.5 -16t66.5 -51q31 -26 45.5 -37.5t29.5 -11.5q53 0 57 116h74q-2 -53 -14.5 -96t-40 -68t-74.5 -25q-32 0 -60 14.5t-67 50.5q-34 32 -47.5 41.5t-28.5 9.5q-30 0 -45 -27.5t-16 -88.5h-73z" />
    <glyph glyph-name="uni00A0" unicode="&#xa0;" horiz-adv-x="260" 
 />
    <glyph glyph-name="exclamdown" unicode="&#xa1;" horiz-adv-x="382" 
d="M225 306l53 -486h-174l52 486h69zM190 542q34 0 58 -17.5t24 -62.5q0 -46 -24 -63t-58 -17q-33 0 -57.5 17t-24.5 63q0 45 24.5 62.5t57.5 17.5z" />
    <glyph glyph-name="cent" unicode="&#xa2;" horiz-adv-x="559" 
d="M279 0v83q-67 5 -117 34t-77.5 87.5t-27.5 153.5q0 100 29 160t79 88.5t114 33.5v74h62v-74q86 -4 131.5 -33.5t45.5 -70.5q0 -21 -10.5 -40.5t-38.5 -32t-80 -12.5q0 43 -10.5 78t-37.5 46v-418q50 2 88 24.5t55 56.5q13 -7 19 -19.5t6 -26.5q0 -23 -18 -46.5t-55 -41
t-95 -21.5v-83h-62zM279 169v404q-32 -14 -50.5 -63.5t-18.5 -150.5q0 -76 16.5 -124t52.5 -66z" />
    <glyph glyph-name="sterling" unicode="&#xa3;" horiz-adv-x="559" 
d="M414 -10q-31 0 -63.5 7t-55.5 15q-25 8 -52 15t-47 7q-34 0 -60.5 -8t-53.5 -22l-44 -23v90l32 20q21 13 42 33t35 50t14 70q0 29 -6 53t-16 49h-115v61h93q-10 25 -21 61.5t-11 74.5q0 87 57.5 134t164.5 47t152.5 -33.5t45.5 -82.5q0 -35 -31.5 -58t-93.5 -23
q0 31 -6.5 62t-23.5 52.5t-50 21.5q-37 0 -59.5 -28.5t-22.5 -87.5q0 -41 11 -78t22 -62h177v-61l-158 1q7 -22 11 -39t4 -43q0 -78 -90 -137l3 -5q6 2 23.5 5.5t35.5 3.5q20 0 38.5 -5t49.5 -15q22 -7 40 -11t40 -4q34 0 60 20.5t45 53.5v-112q-39 -69 -116 -69z" />
    <glyph glyph-name="currency" unicode="&#xa4;" horiz-adv-x="559" 
d="M117 146l-51 51l58 58q-29 44 -29 101q0 60 32 104l-60 60l50 50l60 -60q22 14 47.5 22t53.5 8q56 0 101 -31l62 62l50 -51l-61 -62q15 -22 23.5 -47.5t8.5 -54.5q0 -28 -8 -53.5t-22 -47.5l59 -59l-50 -50l-59 59q-22 -15 -48.5 -23.5t-55.5 -8.5q-58 0 -103 31z
M278 240q50 0 82.5 34t32.5 82q0 50 -32.5 83.5t-82.5 33.5q-48 0 -81.5 -33.5t-33.5 -83.5q0 -32 15.5 -58.5t41.5 -42t58 -15.5z" />
    <glyph glyph-name="yen" unicode="&#xa5;" horiz-adv-x="559" 
d="M105 0v53h23q22 0 40 2t29.5 14t12.5 41v55h-140v59h140v58h-140v59h123l-118 267q-13 30 -26 41.5t-39 11.5h-3v53h286v-53h-7q-57 0 -57 -39q0 -12 4.5 -26.5t11.5 -32.5l38 -95q13 -31 22 -61t13 -50q3 14 10.5 33t15.5 40l42 110q13 34 16.5 51t3.5 30q0 20 -14 30
t-47 10h-3v53h208v-53h-3q-25 0 -40.5 -15.5t-35.5 -62.5l-103 -242h131v-59h-140v-58h140v-59h-140v-50q0 -31 11 -44t30 -15.5t41 -2.5h23v-53h-359z" />
    <glyph glyph-name="brokenbar" unicode="&#xa6;" horiz-adv-x="559" 
d="M243 360v400h72v-400h-72zM243 -240v400h72v-400h-72z" />
    <glyph glyph-name="section" unicode="&#xa7;" horiz-adv-x="544" 
d="M276 -113q-75 0 -117 19.5t-59.5 49t-17.5 59.5q0 39 25 59t64 20q0 -66 30 -109.5t88 -43.5q48 0 75 26.5t27 70.5q0 21 -6.5 37t-24 32t-51.5 35.5t-90 46.5q-83 41 -118.5 85t-35.5 103q0 34 18.5 61t46.5 42q-17 18 -30 48.5t-13 70.5q0 51 25.5 87t70 55t101.5 19
q89 0 134 -32t45 -82q0 -31 -24.5 -51.5t-70.5 -20.5q0 30 -7.5 60t-26.5 50.5t-54 20.5q-42 0 -67.5 -24.5t-25.5 -69.5q0 -32 14 -51.5t41 -34t64 -32.5q71 -33 115 -63t64.5 -62.5t20.5 -75.5q0 -36 -19 -68.5t-45 -49.5q35 -45 35 -107q0 -79 -50.5 -129.5t-150.5 -50.5
zM395 214q5 8 9 19t4 24q0 23 -10 43t-36.5 40.5t-75.5 44.5q-33 16 -62.5 31t-53.5 31q-16 -18 -16 -44q0 -27 13 -47.5t43.5 -40t84.5 -45.5q32 -16 56.5 -29t43.5 -27z" />
    <glyph glyph-name="dieresis" unicode="&#xa8;" horiz-adv-x="577" 
d="M391 626q-24 0 -42 14t-18 48q0 35 18 48.5t42 13.5q23 0 41 -13.5t18 -48.5q0 -34 -18 -48t-41 -14zM185 626q-23 0 -41 14t-18 48q0 35 18 48.5t41 13.5t41.5 -13.5t18.5 -48.5q0 -34 -18.5 -48t-41.5 -14z" />
    <glyph glyph-name="copyright" unicode="&#xa9;" horiz-adv-x="845" 
d="M422 -10q-106 0 -189 45.5t-130.5 128t-47.5 194.5q0 111 47 193.5t130 128t190 45.5t190 -45.5t130.5 -128t47.5 -194.5q0 -111 -47.5 -193.5t-130.5 -128t-190 -45.5zM423 50q91 0 158 38t104.5 107.5t37.5 162.5q0 94 -38 163t-105.5 106.5t-156.5 37.5t-157 -37.5
t-106 -106.5t-38 -164q0 -96 39 -165t107 -105.5t155 -36.5zM428 124q-105 0 -158 64t-53 170q0 103 57.5 167.5t167.5 64.5q71 0 106 -23.5t35 -58.5q0 -22 -20.5 -35t-49.5 -13q0 28 -16 53.5t-57 25.5q-71 0 -101 -47t-30 -134t34 -134.5t98 -47.5q47 0 80 21t46 46
q18 -10 18 -32q0 -20 -17.5 -40t-52.5 -33.5t-87 -13.5z" />
    <glyph glyph-name="ordfeminine" unicode="&#xaa;" horiz-adv-x="420" 
d="M138 380q-50 0 -79.5 26t-29.5 76t42 73.5t127 27.5l45 2v27q0 29 -7 46.5t-33 17.5q-24 0 -31 -18t-7 -44q-52 0 -80.5 10t-28.5 33q0 34 44 48t105 14q76 0 113.5 -23.5t37.5 -80.5v-147q0 -22 9.5 -30t33.5 -8v-44h-117l-24 49h-7q-18 -22 -45 -38.5t-68 -16.5z
M182 436q31 0 46 19.5t15 49.5v41l-23 -1q-41 -1 -58.5 -16.5t-17.5 -44.5q0 -26 11 -37t27 -11z" />
    <glyph glyph-name="guillemotleft" unicode="&#xab;" horiz-adv-x="554" 
d="M419 70l-153 174v52l153 174h70l-101 -200l101 -200h-70zM218 70l-153 174v52l153 174h70l-101 -200l101 -200h-70z" />
    <glyph glyph-name="logicalnot" unicode="&#xac;" horiz-adv-x="559" 
d="M422 143v179h-357v71h429v-250h-72z" />
    <glyph glyph-name="uni00AD" unicode="&#xad;" horiz-adv-x="310" 
d="M25 220v105h260v-105h-260z" />
    <glyph glyph-name="registered" unicode="&#xae;" horiz-adv-x="845" 
d="M422 -10q-106 0 -189 45.5t-130.5 128t-47.5 194.5q0 111 47 193.5t130 128t190 45.5t190 -45.5t130.5 -128t47.5 -194.5q0 -111 -47.5 -193.5t-130.5 -128t-190 -45.5zM423 50q91 0 158 38t104.5 107.5t37.5 162.5q0 94 -38 163t-105.5 106.5t-156.5 37.5t-157 -37.5
t-106 -106.5t-38 -164q0 -96 39 -165t107 -105.5t155 -36.5zM232 141v34h13q20 0 34.5 6t14.5 29v293q0 23 -14.5 29t-34.5 6h-13v41h183q176 0 176 -125q0 -49 -29.5 -75.5t-65.5 -38.5l89 -139q9 -16 19 -21t32 -5v-34h-105l-110 183h-49v-114q0 -23 15 -29t34 -6h14v-34
h-203zM372 368h42q54 0 74 21t20 64t-22 61t-75 18h-39v-164z" />
    <glyph glyph-name="overscore" unicode="&#xaf;" horiz-adv-x="459" 
d="M-5 760v59h469v-59h-469z" />
    <glyph glyph-name="degree" unicode="&#xb0;" horiz-adv-x="400" 
d="M199 423q-69 0 -112.5 42t-43.5 109t43.5 109.5t112.5 42.5t113 -42.5t44 -109.5t-44 -109t-113 -42zM200 491q38 0 59 23t21 61t-21.5 60.5t-58.5 22.5t-59 -22.5t-22 -60.5t21.5 -61t59.5 -23z" />
    <glyph glyph-name="plusminus" unicode="&#xb1;" horiz-adv-x="559" 
d="M243 143v179h-178v71h178v179h72v-179h179v-71h-179v-179h-72zM65 0v71h429v-71h-429z" />
    <glyph glyph-name="uni00B2" unicode="&#xb2;" horiz-adv-x="400" 
d="M37 387v72l110 92q52 44 69.5 82t17.5 79q0 32 -10.5 50t-36.5 18q-23 0 -34 -15t-14.5 -38t-3.5 -46q-33 0 -61.5 14t-28.5 46q0 36 36.5 60t105.5 24q81 0 117.5 -29t36.5 -78q0 -29 -12 -55t-43 -57t-89 -77l-82 -64h160q21 0 30 9.5t12 23.5l5 27div7l-4 -138h-318z
" />
    <glyph glyph-name="uni00B3" unicode="&#xb3;" horiz-adv-x="400" 
d="M165 380q-65 0 -99.5 22.5t-34.5 59.5q0 20 13 34.5t43 14.5q0 -34 21 -57t58 -23q38 0 63 19.5t25 62.5q0 34 -22 53.5t-77 19.5h-33v47div3q38 0 58.5 22t20.5 60q0 31 -10.5 47.5t-36.5 16.5q-31 0 -42.5 -26t-11.5 -61q-40 0 -63.5 8.5t-23.5 34.5q0 37 36.5 63
t106.5 26q69 0 110.5 -26t41.5 -73q0 -85 -92 -108v-5q52 -7 80.5 -32.5t28.5 -68.5q0 -37 -18.5 -62t-47.5 -40t-62.5 -22t-64.5 -7z" />
    <glyph glyph-name="acute" unicode="&#xb4;" horiz-adv-x="334" 
d="M40 606v13q15 19 33.5 45t36 53t27.5 49h157v-10q-9 -13 -30.5 -33t-48.5 -42t-55 -41.5t-52 -33.5h-68z" />
    <glyph glyph-name="uni00B5" unicode="&#xb5;" horiz-adv-x="665" 
d="M175 -240q-37 0 -65.5 29t-28.5 102q0 40 2.5 85.5t5.5 105.5t4 143v311h152v-330q0 -54 16 -92.5t60 -38.5q42 0 66.5 42.5t24.5 112.5v306h152v-398q0 -46 17 -65.5t51 -19.5h7v-53h-87q-51 0 -84 24t-46 63h-5q-23 -44 -53.5 -70.5t-83.5 -26.5q-41 0 -70.5 15.5
t-49.5 43.5q0 -55 7 -98.5t30 -70.5t70 -33q0 -37 -24.5 -62t-67.5 -25z" />
    <glyph glyph-name="paragraph" unicode="&#xb6;" horiz-adv-x="627" 
d="M169 -111v53h13q23 0 41.5 4.5t29.5 20t11 46.5v373h-71q-58 0 -91.5 27.5t-47.5 72t-14 96.5q0 80 35 129t120 49div92v-53h-13q-34 0 -58 -12.5t-24 -59.5v-622q0 -31 11 -46.5t30 -20t41 -4.5h13v-53h-167v809h-84v-809h-167z" />
    <glyph glyph-name="periodcentered" unicode="&#xb7;" horiz-adv-x="294" 
d="M147 275q-34 0 -58 17.5t-24 62.5q0 46 24 63t58 17q33 0 57.5 -17t24.5 -63q0 -45 -24.5 -62.5t-57.5 -17.5z" />
    <glyph glyph-name="cedilla" unicode="&#xb8;" horiz-adv-x="333" 
d="M137 -240q-16 0 -42.5 3t-44.5 8v61q38 -8 68 -8q29 0 45 10.5t16 35.5q0 29 -21.5 39t-53.5 12l21 88h57l-10 -43q49 -4 78 -28t29 -64q0 -53 -39 -83.5t-103 -30.5z" />
    <glyph glyph-name="uni00B9" unicode="&#xb9;" horiz-adv-x="400" 
d="M63 387v44h51q19 0 32 6.5t13 31.5v284q-23 -28 -41.5 -45t-36.5 -17q-14 0 -24 14.5t-10 34.5q18 5 40 14.5t52 31.5l45 33h74v-350q0 -25 13.5 -31.5t32.5 -6.5h41v-44h-282z" />
    <glyph glyph-name="ordmasculine" unicode="&#xba;" horiz-adv-x="437" 
d="M218 380q-87 0 -135 42.5t-48 127.5q0 169 185 169q84 0 133 -41.5t49 -127.5q0 -85 -47 -127.5t-137 -42.5zM219 430q37 0 52 30.5t15 89.5t-15.5 88t-52.5 29t-51.5 -29t-14.5 -88t15 -89.5t52 -30.5z" />
    <glyph glyph-name="guillemotright" unicode="&#xbb;" horiz-adv-x="554" 
d="M266 70l101 200l-101 200h70l153 -174v-52l-153 -174h-70zM65 70l101 200l-101 200h70l153 -174v-52l-153 -174h-70z" />
    <glyph glyph-name="onequarter" unicode="&#xbc;" horiz-adv-x="840" 
d="M21 287v44h51q19 0 32 6.5t13 31.5v284q-23 -28 -41.5 -45t-36.5 -17q-14 0 -24 14.5t-10 34.5q18 5 40 14.5t52 31.5l45 33h74v-350q0 -25 13.5 -31.5t32.5 -6.5h41v-44h-282zM204 0l357 714h77l-356 -714h-78zM575 0v44h28q17 0 29 6.5t12 31.5v35h-190v40l199 275h90
v-262h78v-53h-78v-35q0 -25 13 -31.5t29 -6.5h20v-44h-230zM520 170h124v120q0 16 1.5 31t3.5 34q-4 -8 -8.5 -16t-6.5 -12z" />
    <glyph glyph-name="onehalf" unicode="&#xbd;" horiz-adv-x="840" 
d="M21 287v44h51q19 0 32 6.5t13 31.5v284q-23 -28 -41.5 -45t-36.5 -17q-14 0 -24 14.5t-10 34.5q18 5 40 14.5t52 31.5l45 33h74v-350q0 -25 13.5 -31.5t32.5 -6.5h41v-44h-282zM184 0l357 714h77l-356 -714h-78zM491 0v72l110 92q52 44 69.5 82t17.5 79q0 32 -10.5 50
t-36.5 18q-23 0 -34 -15t-14.5 -38t-3.5 -46q-33 0 -61.5 14t-28.5 46q0 36 36.5 60t105.5 24q81 0 117.5 -29t36.5 -78q0 -29 -12 -55t-43 -57t-89 -77l-82 -64h160q21 0 30 9.5t12 23.5l5 27div7l-4 -138h-318z" />
    <glyph glyph-name="threequarters" unicode="&#xbe;" horiz-adv-x="840" 
d="M165 280q-65 0 -99.5 22.5t-34.5 59.5q0 20 13 34.5t43 14.5q0 -34 21 -57t58 -23q38 0 63 19.5t25 62.5q0 34 -22 53.5t-77 19.5h-33v47div3q38 0 58.5 22t20.5 60q0 31 -10.5 47.5t-36.5 16.5q-31 0 -42.5 -26t-11.5 -61q-40 0 -63.5 8.5t-23.5 34.5q0 37 36.5 63
t106.5 26q69 0 110.5 -26t41.5 -73q0 -85 -92 -108v-5q52 -7 80.5 -32.5t28.5 -68.5q0 -37 -18.5 -62t-47.5 -40t-62.5 -22t-64.5 -7zM224 0l357 714h77l-356 -714h-78zM575 0v44h28q17 0 29 6.5t12 31.5v35h-190v40l199 275h90v-262h78v-53h-78v-35q0 -25 13 -31.5t29 -6.5
h20v-44h-230zM520 170h124v120q0 16 1.5 31t3.5 34q-4 -8 -8.5 -16t-6.5 -12z" />
    <glyph glyph-name="questiondown" unicode="&#xbf;" horiz-adv-x="550" 
d="M342 304l13 -123q-57 -23 -87.5 -56t-42 -71.5t-11.5 -77.5q0 -48 18.5 -78t59.5 -30q45 0 62.5 37.5t17.5 88.5q61 0 101 -17.5t40 -52.5q0 -49 -51.5 -82.5t-161.5 -33.5q-71 0 -126 22t-87 63t-32 99q0 80 49.5 130t149.5 91l13 91h75zM306 540q34 0 58 -17.5
t24 -62.5q0 -46 -24 -63t-58 -17q-33 0 -57.5 17t-24.5 63q0 45 24.5 62.5t57.5 17.5z" />
    <glyph glyph-name="Agrave" unicode="&#xc0;" horiz-adv-x="753" 
d="M4 0v53h12q27 0 45.5 14t34.5 59l217 588h137l209 -589q15 -42 33.5 -57t42.5 -15h18v-53h-330v53div9q15 0 29 9t14 30q0 12 -3 23.5t-6 19.5l-35 100h-243l-29 -86q-4 -12 -8 -28.5t-4 -28.5q0 -19 14 -29t31 -10h42v-53h-260zM239 296h202l-53 164q-10 34 -22.5 76
t-20.5 77q-9 -32 -22 -72.5t-25 -75.5zM370 771q-24 14 -52 33.5t-55 41.5t-48.5 42t-30.5 33v10h157q11 -22 28 -49t36 -53t33 -45v-13h-68z" />
    <glyph glyph-name="Aacute" unicode="&#xc1;" horiz-adv-x="753" 
d="M4 0v53h12q27 0 45.5 14t34.5 59l217 588h137l209 -589q15 -42 33.5 -57t42.5 -15h18v-53h-330v53div9q15 0 29 9t14 30q0 12 -3 23.5t-6 19.5l-35 100h-243l-29 -86q-4 -12 -8 -28.5t-4 -28.5q0 -19 14 -29t31 -10h42v-53h-260zM239 296h202l-53 164q-10 34 -22.5 76
t-20.5 77q-9 -32 -22 -72.5t-25 -75.5zM313 771v13q15 19 33.5 45t36 53t27.5 49h157v-10q-9 -13 -30.5 -33t-48.5 -42t-55 -41.5t-52 -33.5h-68z" />
    <glyph glyph-name="Acircumflex" unicode="&#xc2;" horiz-adv-x="753" 
d="M4 0v53h12q27 0 45.5 14t34.5 59l217 588h137l209 -589q15 -42 33.5 -57t42.5 -15h18v-53h-330v53div9q15 0 29 9t14 30q0 12 -3 23.5t-6 19.5l-35 100h-243l-29 -86q-4 -12 -8 -28.5t-4 -28.5q0 -19 14 -29t31 -10h42v-53h-260zM239 296h202l-53 164q-10 34 -22.5 76
t-20.5 77q-9 -32 -22 -72.5t-25 -75.5zM203 771v13q16 19 37.5 45t42 53t30.5 49h135q11 -22 31 -49t42 -53t37 -45v-13h-69q-14 11 -34 27t-40 33t-35 30q-22 -20 -54.5 -46.5t-53.5 -43.5h-69z" />
    <glyph glyph-name="Atilde" unicode="&#xc3;" horiz-adv-x="753" 
d="M4 0v53h12q27 0 45.5 14t34.5 59l217 588h137l209 -589q15 -42 33.5 -57t42.5 -15h18v-53h-330v53div9q15 0 29 9t14 30q0 12 -3 23.5t-6 19.5l-35 100h-243l-29 -86q-4 -12 -8 -28.5t-4 -28.5q0 -19 14 -29t31 -10h42v-53h-260zM239 296h202l-53 164q-10 34 -22.5 76
t-20.5 77q-9 -32 -22 -72.5t-25 -75.5zM449 771q-27 0 -49 9.5t-40.5 22t-35 22t-32.5 9.5q-22 0 -34 -16.5t-15 -36.5h-65q2 41 18.5 74.5t44 53.5t63.5 20q27 0 48.5 -9.5t40 -22t35 -22t32.5 -9.5q22 0 34 16.5t15 36.5h65q-2 -40 -18.5 -74t-43.5 -54t-63 -20z" />
    <glyph glyph-name="Adieresis" unicode="&#xc4;" horiz-adv-x="753" 
d="M4 0v53h12q27 0 45.5 14t34.5 59l217 588h137l209 -589q15 -42 33.5 -57t42.5 -15h18v-53h-330v53div9q15 0 29 9t14 30q0 12 -3 23.5t-6 19.5l-35 100h-243l-29 -86q-4 -12 -8 -28.5t-4 -28.5q0 -19 14 -29t31 -10h42v-53h-260zM239 296h202l-53 164q-10 34 -22.5 76
t-20.5 77q-9 -32 -22 -72.5t-25 -75.5zM478 791q-24 0 -42 14t-18 48q0 35 18 48.5t42 13.5q23 0 41 -13.5t18 -48.5q0 -34 -18 -48t-41 -14zM272 791q-23 0 -41 14t-18 48q0 35 18 48.5t41 13.5t41.5 -13.5t18.5 -48.5q0 -34 -18.5 -48t-41.5 -14z" />
    <glyph glyph-name="Aring" unicode="&#xc5;" horiz-adv-x="753" 
d="M4 0v53h12q27 0 45.5 14t34.5 59l205 556q-19 14 -30 35.5t-11 50.5q0 53 35 81t85 28t85 -28t35 -81q0 -28 -10.5 -49.5t-28.5 -35.5l198 -558q15 -42 33.5 -57t42.5 -15h18v-53h-330v53div9q15 0 29 9t14 30q0 12 -3 23.5t-6 19.5l-35 100h-243l-29 -86q-4 -12 -8 -28.5
t-4 -28.5q0 -19 14 -29t31 -10h42v-53h-260zM380 714q24 0 41.5 12.5t17.5 41.5t-17.5 41.5t-41.5 12.5t-41.5 -12.5t-17.5 -41.5q0 -28 16.5 -40.5t42.5 -13.5zM239 296h202l-53 164q-10 34 -22.5 76t-20.5 77q-8 -31 -21.5 -72t-25.5 -76z" />
    <glyph glyph-name="AE" unicode="&#xc6;" horiz-adv-x="993" 
d="M0 0v53h12q26 0 46.5 19t42.5 59l281 525l-66 5v53h607l4 -184h-70l-5 47q-4 37 -18.5 56.5t-45.5 19.5h-168v-250h237v-60h-237v-282h200q30 0 44.5 21.5t19.5 54.5l8 47h69l-7 -184h-586v53h42q28 0 39.5 17t11.5 43v116h-230l-42 -84q-8 -16 -12 -30t-4 -23
q0 -39 60 -39h17v-53h-250zM263 289h198v364h-10z" />
    <glyph glyph-name="Ccedilla" unicode="&#xc7;" horiz-adv-x="668" 
d="M401 -10q-116 0 -193 46t-115 128.5t-38 193.5q0 108 39 190.5t116 129t190 46.5q115 0 171.5 -33.5t56.5 -82.5q0 -37 -32 -62t-93 -25q0 33 -10 65t-34 53t-66 21q-95 0 -132.5 -78.5t-37.5 -223.5t45.5 -216.5t156.5 -71.5q49 0 84 14.5t59.5 36.5t41.5 44
q17 -14 17 -43q0 -28 -21 -58.5t-70 -52t-135 -21.5zM361 -240q-16 0 -42.5 3t-44.5 8v61q38 -8 68 -8q29 0 45 10.5t16 35.5q0 29 -21.5 39t-53.5 12l21 88h57l-10 -43q49 -4 78 -28t29 -64q0 -53 -39 -83.5t-103 -30.5z" />
    <glyph glyph-name="Egrave" unicode="&#xc8;" horiz-adv-x="653" 
d="M28 0v53h42q21 0 36 10t15 50v483q0 43 -14.5 54t-36.5 11h-42v53h555l4 -184h-70l-5 47q-4 37 -18.5 56.5t-45.5 19.5h-168v-250h237v-60h-237v-282h200q30 0 44.5 21.5t19.5 54.5l8 47h69l-7 -184h-586zM336 771q-24 14 -52 33.5t-55 41.5t-48.5 42t-30.5 33v10h157
q11 -22 28 -49t36 -53t33 -45v-13h-68z" />
    <glyph glyph-name="Eacute" unicode="&#xc9;" horiz-adv-x="653" 
d="M28 0v53h42q21 0 36 10t15 50v483q0 43 -14.5 54t-36.5 11h-42v53h555l4 -184h-70l-5 47q-4 37 -18.5 56.5t-45.5 19.5h-168v-250h237v-60h-237v-282h200q30 0 44.5 21.5t19.5 54.5l8 47h69l-7 -184h-586zM255 771v13q15 19 33.5 45t36 53t27.5 49h157v-10
q-9 -13 -30.5 -33t-48.5 -42t-55 -41.5t-52 -33.5h-68z" />
    <glyph glyph-name="Ecircumflex" unicode="&#xca;" horiz-adv-x="653" 
d="M28 0v53h42q21 0 36 10t15 50v483q0 43 -14.5 54t-36.5 11h-42v53h555l4 -184h-70l-5 47q-4 37 -18.5 56.5t-45.5 19.5h-168v-250h237v-60h-237v-282h200q30 0 44.5 21.5t19.5 54.5l8 47h69l-7 -184h-586zM141 771v13q16 19 37.5 45t42 53t30.5 49h135q11 -22 31 -49
t42 -53t37 -45v-13h-69q-14 11 -34 27t-40 33t-35 30q-22 -20 -54.5 -46.5t-53.5 -43.5h-69z" />
    <glyph glyph-name="Edieresis" unicode="&#xcb;" horiz-adv-x="653" 
d="M28 0v53h42q21 0 36 10t15 50v483q0 43 -14.5 54t-36.5 11h-42v53h555l4 -184h-70l-5 47q-4 37 -18.5 56.5t-45.5 19.5h-168v-250h237v-60h-237v-282h200q30 0 44.5 21.5t19.5 54.5l8 47h69l-7 -184h-586zM439 791q-24 0 -42 14t-18 48q0 35 18 48.5t42 13.5
q23 0 41 -13.5t18 -48.5q0 -34 -18 -48t-41 -14zM233 791q-23 0 -41 14t-18 48q0 35 18 48.5t41 13.5t41.5 -13.5t18.5 -48.5q0 -34 -18.5 -48t-41.5 -14z" />
    <glyph glyph-name="Igrave" unicode="&#xcc;" horiz-adv-x="401" 
d="M28 0v53h42q22 0 36.5 11t14.5 54v478q0 43 -14.5 54t-36.5 11h-42v53div45v-53h-42q-22 0 -36.5 -11t-14.5 -54v-478q0 -43 14.5 -54t36.5 -11h42v-53h-345zM209 771q-24 14 -52 33.5t-55 41.5t-48.5 42t-30.5 33v10h157q11 -22 28 -49t36 -53t33 -45v-13h-68z" />
    <glyph glyph-name="Iacute" unicode="&#xcd;" horiz-adv-x="401" 
d="M28 0v53h42q22 0 36.5 11t14.5 54v478q0 43 -14.5 54t-36.5 11h-42v53div45v-53h-42q-22 0 -36.5 -11t-14.5 -54v-478q0 -43 14.5 -54t36.5 -11h42v-53h-345zM123 771v13q15 19 33.5 45t36 53t27.5 49h157v-10q-9 -13 -30.5 -33t-48.5 -42t-55 -41.5t-52 -33.5h-68z" />
    <glyph glyph-name="Icircumflex" unicode="&#xce;" horiz-adv-x="401" 
d="M28 0v53h42q22 0 36.5 11t14.5 54v478q0 43 -14.5 54t-36.5 11h-42v53div45v-53h-42q-22 0 -36.5 -11t-14.5 -54v-478q0 -43 14.5 -54t36.5 -11h42v-53h-345zM23 771v13q16 19 37.5 45t42 53t30.5 49h135q11 -22 31 -49t42 -53t37 -45v-13h-69q-14 11 -34 27t-40 33
t-35 30q-22 -20 -54.5 -46.5t-53.5 -43.5h-69z" />
    <glyph glyph-name="Idieresis" unicode="&#xcf;" horiz-adv-x="401" 
d="M28 0v53h42q22 0 36.5 11t14.5 54v478q0 43 -14.5 54t-36.5 11h-42v53div45v-53h-42q-22 0 -36.5 -11t-14.5 -54v-478q0 -43 14.5 -54t36.5 -11h42v-53h-345zM303 791q-24 0 -42 14t-18 48q0 35 18 48.5t42 13.5q23 0 41 -13.5t18 -48.5q0 -34 -18 -48t-41 -14zM97 791
q-23 0 -41 14t-18 48q0 35 18 48.5t41 13.5t41.5 -13.5t18.5 -48.5q0 -34 -18.5 -48t-41.5 -14z" />
    <glyph glyph-name="Eth" unicode="&#xd0;" horiz-adv-x="767" 
d="M28 0v53h42q22 0 36.5 11t14.5 54v225h-83v61h83v196q0 40 -15 50.5t-36 10.5h-42v53div30q166 0 260 -87t94 -257q0 -109 -40 -192.5t-118.5 -130.5t-195.5 -47h-330zM279 62h56q103 0 155.5 82.5t52.5 225.5t-52.5 213t-154.5 70h-57v-249h125v-61h-125v-281z" />
    <glyph glyph-name="Ntilde" unicode="&#xd1;" horiz-adv-x="788" 
d="M28 0v53h42q21 0 36 11t15 54v482q0 40 -15.5 50.5t-35.5 10.5h-42v53h222l353 -499v385q0 40 -15.5 50.5t-35.5 10.5h-42v53h261v-53h-42q-21 0 -36 -11t-15 -54v-596h-92l-390 551v-433q0 -43 15 -54t36 -11h42v-53h-261zM476 771q-27 0 -49 9.5t-40.5 22t-35 22
t-32.5 9.5q-22 0 -34 -16.5t-15 -36.5h-65q2 41 18.5 74.5t44 53.5t63.5 20q27 0 48.5 -9.5t40 -22t35 -22t32.5 -9.5q22 0 34 16.5t15 36.5h65q-2 -40 -18.5 -74t-43.5 -54t-63 -20z" />
    <glyph glyph-name="Ograve" unicode="&#xd2;" horiz-adv-x="787" 
d="M394 -10q-114 0 -189 46t-112.5 129t-37.5 194t37.5 193t113 127.5t189.5 45.5q108 0 183.5 -45.5t114.5 -128t39 -193.5t-39.5 -193.5t-114.5 -128.5t-184 -46zM394 55q94 0 132 80t38 223t-38 222.5t-131 79.5q-94 0 -133 -79.5t-39 -222.5t39 -223t132 -80zM397 771
q-24 14 -52 33.5t-55 41.5t-48.5 42t-30.5 33v10h157q11 -22 28 -49t36 -53t33 -45v-13h-68z" />
    <glyph glyph-name="Oacute" unicode="&#xd3;" horiz-adv-x="787" 
d="M394 -10q-114 0 -189 46t-112.5 129t-37.5 194t37.5 193t113 127.5t189.5 45.5q108 0 183.5 -45.5t114.5 -128t39 -193.5t-39.5 -193.5t-114.5 -128.5t-184 -46zM394 55q94 0 132 80t38 223t-38 222.5t-131 79.5q-94 0 -133 -79.5t-39 -222.5t39 -223t132 -80zM325 771
v13q15 19 33.5 45t36 53t27.5 49h157v-10q-9 -13 -30.5 -33t-48.5 -42t-55 -41.5t-52 -33.5h-68z" />
    <glyph glyph-name="Ocircumflex" unicode="&#xd4;" horiz-adv-x="787" 
d="M394 -10q-114 0 -189 46t-112.5 129t-37.5 194t37.5 193t113 127.5t189.5 45.5q108 0 183.5 -45.5t114.5 -128t39 -193.5t-39.5 -193.5t-114.5 -128.5t-184 -46zM394 55q94 0 132 80t38 223t-38 222.5t-131 79.5q-94 0 -133 -79.5t-39 -222.5t39 -223t132 -80zM215 771
v13q16 19 37.5 45t42 53t30.5 49h135q11 -22 31 -49t42 -53t37 -45v-13h-69q-14 11 -34 27t-40 33t-35 30q-22 -20 -54.5 -46.5t-53.5 -43.5h-69z" />
    <glyph glyph-name="Otilde" unicode="&#xd5;" horiz-adv-x="787" 
d="M394 -10q-114 0 -189 46t-112.5 129t-37.5 194t37.5 193t113 127.5t189.5 45.5q108 0 183.5 -45.5t114.5 -128t39 -193.5t-39.5 -193.5t-114.5 -128.5t-184 -46zM394 55q94 0 132 80t38 223t-38 222.5t-131 79.5q-94 0 -133 -79.5t-39 -222.5t39 -223t132 -80zM465 771
q-27 0 -49 9.5t-40.5 22t-35 22t-32.5 9.5q-22 0 -34 -16.5t-15 -36.5h-65q2 41 18.5 74.5t44 53.5t63.5 20q27 0 48.5 -9.5t40 -22t35 -22t32.5 -9.5q22 0 34 16.5t15 36.5h65q-2 -40 -18.5 -74t-43.5 -54t-63 -20z" />
    <glyph glyph-name="Odieresis" unicode="&#xd6;" horiz-adv-x="787" 
d="M394 -10q-114 0 -189 46t-112.5 129t-37.5 194t37.5 193t113 127.5t189.5 45.5q108 0 183.5 -45.5t114.5 -128t39 -193.5t-39.5 -193.5t-114.5 -128.5t-184 -46zM394 55q94 0 132 80t38 223t-38 222.5t-131 79.5q-94 0 -133 -79.5t-39 -222.5t39 -223t132 -80zM491 791
q-24 0 -42 14t-18 48q0 35 18 48.5t42 13.5q23 0 41 -13.5t18 -48.5q0 -34 -18 -48t-41 -14zM285 791q-23 0 -41 14t-18 48q0 35 18 48.5t41 13.5t41.5 -13.5t18.5 -48.5q0 -34 -18.5 -48t-41.5 -14z" />
    <glyph glyph-name="multiply" unicode="&#xd7;" horiz-adv-x="559" 
d="M132 160l-51 51l147 148l-147 147l51 50l147 -147l147 148l51 -51l-148 -148l148 -148l-50 -50l-148 148z" />
    <glyph glyph-name="Oslash" unicode="&#xd8;" horiz-adv-x="787" 
d="M145 -40l46 85q-68 47 -102 127.5t-34 186.5q0 111 37.5 193t113 127.5t189.5 45.5q41 0 78 -7t69 -21l31 58h70l-47 -87q66 -46 101 -126t35 -184q0 -111 -39.5 -193.5t-114.5 -128.5t-184 -46q-84 0 -148 26l-30 -56h-71zM252 158l247 460q-39 42 -104 42
q-94 0 -133 -79.5t-39 -222.5q0 -62 7 -112t22 -88zM394 55q94 0 132 80t38 223q0 125 -28 199l-247 -461q39 -41 105 -41z" />
    <glyph glyph-name="Ugrave" unicode="&#xd9;" horiz-adv-x="747" 
d="M387 -10q-130 0 -203.5 52.5t-73.5 175.5v382q0 40 -15.5 50.5t-35.5 10.5h-43v53div45v-53h-42q-21 0 -36 -11t-15 -54v-386q0 -84 40.5 -116.5t108.5 -32.5q67 0 106 35.5t39 111.5v392q0 40 -15 50.5t-36 10.5h-42v53h262v-53h-43q-21 0 -36 -11t-15 -54v-390
q0 -100 -59.5 -158t-190.5 -58zM397 771q-24 14 -52 33.5t-55 41.5t-48.5 42t-30.5 33v10h157q11 -22 28 -49t36 -53t33 -45v-13h-68z" />
    <glyph glyph-name="Uacute" unicode="&#xda;" horiz-adv-x="747" 
d="M387 -10q-130 0 -203.5 52.5t-73.5 175.5v382q0 40 -15.5 50.5t-35.5 10.5h-43v53div45v-53h-42q-21 0 -36 -11t-15 -54v-386q0 -84 40.5 -116.5t108.5 -32.5q67 0 106 35.5t39 111.5v392q0 40 -15 50.5t-36 10.5h-42v53h262v-53h-43q-21 0 -36 -11t-15 -54v-390
q0 -100 -59.5 -158t-190.5 -58zM314 771v13q15 19 33.5 45t36 53t27.5 49h157v-10q-9 -13 -30.5 -33t-48.5 -42t-55 -41.5t-52 -33.5h-68z" />
    <glyph glyph-name="Ucircumflex" unicode="&#xdb;" horiz-adv-x="747" 
d="M387 -10q-130 0 -203.5 52.5t-73.5 175.5v382q0 40 -15.5 50.5t-35.5 10.5h-43v53div45v-53h-42q-21 0 -36 -11t-15 -54v-386q0 -84 40.5 -116.5t108.5 -32.5q67 0 106 35.5t39 111.5v392q0 40 -15 50.5t-36 10.5h-42v53h262v-53h-43q-21 0 -36 -11t-15 -54v-390
q0 -100 -59.5 -158t-190.5 -58zM222 771v13q16 19 37.5 45t42 53t30.5 49h135q11 -22 31 -49t42 -53t37 -45v-13h-69q-14 11 -34 27t-40 33t-35 30q-22 -20 -54.5 -46.5t-53.5 -43.5h-69z" />
    <glyph glyph-name="Udieresis" unicode="&#xdc;" horiz-adv-x="747" 
d="M387 -10q-130 0 -203.5 52.5t-73.5 175.5v382q0 40 -15.5 50.5t-35.5 10.5h-43v53div45v-53h-42q-21 0 -36 -11t-15 -54v-386q0 -84 40.5 -116.5t108.5 -32.5q67 0 106 35.5t39 111.5v392q0 40 -15 50.5t-36 10.5h-42v53h262v-53h-43q-21 0 -36 -11t-15 -54v-390
q0 -100 -59.5 -158t-190.5 -58zM506 791q-24 0 -42 14t-18 48q0 35 18 48.5t42 13.5q23 0 41 -13.5t18 -48.5q0 -34 -18 -48t-41 -14zM300 791q-23 0 -41 14t-18 48q0 35 18 48.5t41 13.5t41.5 -13.5t18.5 -48.5q0 -34 -18.5 -48t-41.5 -14z" />
    <glyph glyph-name="Yacute" unicode="&#xdd;" horiz-adv-x="693" 
d="M164 0v53h47q24 0 41 9t17 52v139l-185 355q-15 29 -28.5 41t-42.5 12h-13v53div35v-53h-17q-30 0 -45 -12.5t-15 -32.5q0 -13 4.5 -27.5t10.5 -27.5l74 -147q16 -31 26 -56t18 -48q11 26 24.5 57t29.5 65l58 120q11 22 14 37t3 23q0 49 -66 49h-23v53h262v-53h-19
q-25 0 -39 -15.5t-37 -62.5l-170 -331v-137q0 -43 16.5 -52.5t39.5 -9.5h49v-53h-369zM294 771v13q15 19 33.5 45t36 53t27.5 49h157v-10q-9 -13 -30.5 -33t-48.5 -42t-55 -41.5t-52 -33.5h-68z" />
    <glyph glyph-name="Thorn" unicode="&#xde;" horiz-adv-x="638" 
d="M28 0v53h42q22 0 36.5 11t14.5 54v478q0 43 -14.5 54t-36.5 11h-42v53div45v-53h-41q-21 0 -37 -10t-16 -50v-18h56q139 -2 206 -58t67 -154q0 -60 -28.5 -112t-93.5 -84.5t-173 -32.5h-34v-29q2 -40 17 -50t36 -10h41v-53h-345zM279 200h24q74 0 105.5 38.5t31.5 128.5
q0 80 -27.5 118.5t-94.5 38.5h-39v-324z" />
    <glyph glyph-name="germandbls" unicode="&#xdf;" horiz-adv-x="706" 
d="M469 -10q-94 0 -139 33.5t-45 83.5q0 28 13 42t32.5 19t36.5 5q11 -58 37.5 -91t66.5 -33q29 0 48 17.5t19 49.5q0 35 -21 61t-80 54q-73 34 -99.5 79t-26.5 97q0 69 46 102t116 37q-1 92 -30 130t-80 38t-81.5 -34t-30.5 -107v-573h-245v53h43q21 0 36 11t15 54v349h-80
v69h80v10q0 84 34.5 133t93.5 70t132 21q139 0 196.5 -71.5t58.5 -207.5h-56q-49 0 -83 -13.5t-34 -53.5q0 -35 25 -55t86 -49q62 -29 87.5 -72t25.5 -90q0 -85 -52 -126.5t-145 -41.5z" />
    <glyph glyph-name="agrave" unicode="&#xe0;" horiz-adv-x="599" 
d="M202 -10q-66 0 -111.5 40t-45.5 123q0 81 56 120t168 43l82 3v55q0 50 -10.5 82t-51.5 32q-38 0 -52.5 -30.5t-14.5 -77.5q-67 0 -101 15t-34 52t28 59t75 32.5t103 10.5q105 0 157.5 -38t52.5 -132v-255q0 -41 13 -56t47 -15h4v-53h-186l-21 69h-9q-22 -27 -41.5 -44.5
t-44.5 -26t-63 -8.5zM257 63q43 0 68.5 35t25.5 93v75l-45 -3q-60 -3 -83 -31.5t-23 -82.5q0 -86 57 -86zM301 606q-24 14 -52 33.5t-55 41.5t-48.5 42t-30.5 33v10h157q11 -22 28 -49t36 -53t33 -45v-13h-68z" />
    <glyph glyph-name="aacute" unicode="&#xe1;" horiz-adv-x="599" 
d="M202 -10q-66 0 -111.5 40t-45.5 123q0 81 56 120t168 43l82 3v55q0 50 -10.5 82t-51.5 32q-38 0 -52.5 -30.5t-14.5 -77.5q-67 0 -101 15t-34 52t28 59t75 32.5t103 10.5q105 0 157.5 -38t52.5 -132v-255q0 -41 13 -56t47 -15h4v-53h-186l-21 69h-9q-22 -27 -41.5 -44.5
t-44.5 -26t-63 -8.5zM257 63q43 0 68.5 35t25.5 93v75l-45 -3q-60 -3 -83 -31.5t-23 -82.5q0 -86 57 -86zM228 606v13q15 19 33.5 45t36 53t27.5 49h157v-10q-9 -13 -30.5 -33t-48.5 -42t-55 -41.5t-52 -33.5h-68z" />
    <glyph glyph-name="acircumflex" unicode="&#xe2;" horiz-adv-x="599" 
d="M202 -10q-66 0 -111.5 40t-45.5 123q0 81 56 120t168 43l82 3v55q0 50 -10.5 82t-51.5 32q-38 0 -52.5 -30.5t-14.5 -77.5q-67 0 -101 15t-34 52t28 59t75 32.5t103 10.5q105 0 157.5 -38t52.5 -132v-255q0 -41 13 -56t47 -15h4v-53h-186l-21 69h-9q-22 -27 -41.5 -44.5
t-44.5 -26t-63 -8.5zM257 63q43 0 68.5 35t25.5 93v75l-45 -3q-60 -3 -83 -31.5t-23 -82.5q0 -86 57 -86zM125 606v13q16 19 37.5 45t42 53t30.5 49h135q11 -22 31 -49t42 -53t37 -45v-13h-69q-14 11 -34 27t-40 33t-35 30q-22 -20 -54.5 -46.5t-53.5 -43.5h-69z" />
    <glyph glyph-name="atilde" unicode="&#xe3;" horiz-adv-x="599" 
d="M202 -10q-66 0 -111.5 40t-45.5 123q0 81 56 120t168 43l82 3v55q0 50 -10.5 82t-51.5 32q-38 0 -52.5 -30.5t-14.5 -77.5q-67 0 -101 15t-34 52t28 59t75 32.5t103 10.5q105 0 157.5 -38t52.5 -132v-255q0 -41 13 -56t47 -15h4v-53h-186l-21 69h-9q-22 -27 -41.5 -44.5
t-44.5 -26t-63 -8.5zM257 63q43 0 68.5 35t25.5 93v75l-45 -3q-60 -3 -83 -31.5t-23 -82.5q0 -86 57 -86zM374 606q-27 0 -49 9.5t-40.5 22t-35 22t-32.5 9.5q-22 0 -34 -16.5t-15 -36.5h-65q2 41 18.5 74.5t44 53.5t63.5 20q27 0 48.5 -9.5t40 -22t35 -22t32.5 -9.5
q22 0 34 16.5t15 36.5h65q-2 -40 -18.5 -74t-43.5 -54t-63 -20z" />
    <glyph glyph-name="adieresis" unicode="&#xe4;" horiz-adv-x="599" 
d="M202 -10q-66 0 -111.5 40t-45.5 123q0 81 56 120t168 43l82 3v55q0 50 -10.5 82t-51.5 32q-38 0 -52.5 -30.5t-14.5 -77.5q-67 0 -101 15t-34 52t28 59t75 32.5t103 10.5q105 0 157.5 -38t52.5 -132v-255q0 -41 13 -56t47 -15h4v-53h-186l-21 69h-9q-22 -27 -41.5 -44.5
t-44.5 -26t-63 -8.5zM257 63q43 0 68.5 35t25.5 93v75l-45 -3q-60 -3 -83 -31.5t-23 -82.5q0 -86 57 -86zM401 626q-24 0 -42 14t-18 48q0 35 18 48.5t42 13.5q23 0 41 -13.5t18 -48.5q0 -34 -18 -48t-41 -14zM195 626q-23 0 -41 14t-18 48q0 35 18 48.5t41 13.5t41.5 -13.5
t18.5 -48.5q0 -34 -18.5 -48t-41.5 -14z" />
    <glyph glyph-name="aring" unicode="&#xe5;" horiz-adv-x="599" 
d="M202 -10q-66 0 -111.5 40t-45.5 123q0 81 56 120t168 43l82 3v55q0 50 -10.5 82t-51.5 32q-38 0 -52.5 -30.5t-14.5 -77.5q-67 0 -101 15t-34 52t28 59t75 32.5t103 10.5q105 0 157.5 -38t52.5 -132v-255q0 -41 13 -56t47 -15h4v-53h-186l-21 69h-9q-22 -27 -41.5 -44.5
t-44.5 -26t-63 -8.5zM257 63q43 0 68.5 35t25.5 93v75l-45 -3q-60 -3 -83 -31.5t-23 -82.5q0 -86 57 -86zM302 596q-50 0 -85 28t-35 81t35 81t85 28t85 -28t35 -81t-35 -81t-85 -28zM302 651q24 0 41.5 12.5t17.5 41.5t-17.5 41.5t-41.5 12.5t-41.5 -12.5t-17.5 -41.5
t17.5 -41.5t41.5 -12.5z" />
    <glyph glyph-name="ae" unicode="&#xe6;" horiz-adv-x="875" 
d="M202 -10q-66 0 -111.5 40t-45.5 123q0 81 56 120t168 43l82 3v55q0 50 -10.5 82t-51.5 32q-38 0 -52.5 -30.5t-14.5 -77.5q-67 0 -101 15t-34 52t28 59t75 32.5t103 10.5q53 0 93 -13.5t66 -43.5q60 57 147 57q109 0 171.5 -61t62.5 -180v-51h-328q3 -100 37.5 -146
t96.5 -46q52 0 88 23.5t53 57.5q27 -15 27 -49q0 -43 -47 -75t-148 -32q-73 0 -127 25t-86 71q-34 -50 -84 -73t-113 -23zM507 321h173q0 78 -19 120.5t-60 42.5t-66.5 -41.5t-27.5 -121.5zM257 63q43 0 68.5 35t25.5 93v75l-45 -3q-60 -3 -83 -31.5t-23 -82.5q0 -86 57 -86
z" />
    <glyph glyph-name="ccedilla" unicode="&#xe7;" horiz-adv-x="527" 
d="M295 -10q-73 0 -129 26.5t-87.5 87t-31.5 162.5q0 108 32.5 169.5t88 87.5t124.5 26q97 0 147.5 -30.5t50.5 -74.5q0 -21 -10.5 -40.5t-38.5 -32t-80 -12.5q0 35 -6 64t-20 47t-39 18q-29 0 -50.5 -19.5t-33 -67.5t-11.5 -134q0 -101 28 -151.5t91 -50.5q52 0 90 23.5
t55 57.5q12 -7 18 -19.5t6 -26.5q0 -25 -20.5 -50.5t-63 -42.5t-110.5 -17zM262 -240q-16 0 -42.5 3t-44.5 8v61q38 -8 68 -8q29 0 45 10.5t16 35.5q0 29 -21.5 39t-53.5 12l21 88h57l-10 -43q49 -4 78 -28t29 -64q0 -53 -39 -83.5t-103 -30.5z" />
    <glyph glyph-name="egrave" unicode="&#xe8;" horiz-adv-x="571" 
d="M306 -10q-127 0 -193 72.5t-66 202.5q0 141 65 212.5t183 71.5q109 0 171.5 -61t62.5 -180v-51h-328q3 -100 37.5 -146t96.5 -46q52 0 88 23.5t53 57.5q27 -15 27 -49q0 -43 -48 -75t-149 -32zM203 321h173q0 77 -18 120t-61 43q-42 0 -67 -41.5t-27 -121.5zM313 606
q-24 14 -52 33.5t-55 41.5t-48.5 42t-30.5 33v10h157q11 -22 28 -49t36 -53t33 -45v-13h-68z" />
    <glyph glyph-name="eacute" unicode="&#xe9;" horiz-adv-x="571" 
d="M306 -10q-127 0 -193 72.5t-66 202.5q0 141 65 212.5t183 71.5q109 0 171.5 -61t62.5 -180v-51h-328q3 -100 37.5 -146t96.5 -46q52 0 88 23.5t53 57.5q27 -15 27 -49q0 -43 -48 -75t-149 -32zM203 321h173q0 77 -18 120t-61 43q-42 0 -67 -41.5t-27 -121.5zM231 606v13
q15 19 33.5 45t36 53t27.5 49h157v-10q-9 -13 -30.5 -33t-48.5 -42t-55 -41.5t-52 -33.5h-68z" />
    <glyph glyph-name="ecircumflex" unicode="&#xea;" horiz-adv-x="571" 
d="M306 -10q-127 0 -193 72.5t-66 202.5q0 141 65 212.5t183 71.5q109 0 171.5 -61t62.5 -180v-51h-328q3 -100 37.5 -146t96.5 -46q52 0 88 23.5t53 57.5q27 -15 27 -49q0 -43 -48 -75t-149 -32zM203 321h173q0 77 -18 120t-61 43q-42 0 -67 -41.5t-27 -121.5zM124 606v13
q16 19 37.5 45t42 53t30.5 49h135q11 -22 31 -49t42 -53t37 -45v-13h-69q-14 11 -34 27t-40 33t-35 30q-22 -20 -54.5 -46.5t-53.5 -43.5h-69z" />
    <glyph glyph-name="edieresis" unicode="&#xeb;" horiz-adv-x="571" 
d="M306 -10q-127 0 -193 72.5t-66 202.5q0 141 65 212.5t183 71.5q109 0 171.5 -61t62.5 -180v-51h-328q3 -100 37.5 -146t96.5 -46q52 0 88 23.5t53 57.5q27 -15 27 -49q0 -43 -48 -75t-149 -32zM203 321h173q0 77 -18 120t-61 43q-42 0 -67 -41.5t-27 -121.5zM402 626
q-24 0 -42 14t-18 48q0 35 18 48.5t42 13.5q23 0 41 -13.5t18 -48.5q0 -34 -18 -48t-41 -14zM196 626q-23 0 -41 14t-18 48q0 35 18 48.5t41 13.5t41.5 -13.5t18.5 -48.5q0 -34 -18.5 -48t-41.5 -14z" />
    <glyph glyph-name="igrave" unicode="&#xec;" horiz-adv-x="352" 
d="M17 0v53h12q15 0 31.5 4.5t28 18.5t11.5 42v304q0 27 -12 40t-28.5 17t-30.5 4h-12v53h235v-418q0 -28 11.5 -42t28.5 -18.5t31 -4.5h12v-53h-318zM180 606q-24 14 -52 33.5t-55 41.5t-48.5 42t-30.5 33v10h157q11 -22 28 -49t36 -53t33 -45v-13h-68z" />
    <glyph glyph-name="iacute" unicode="&#xed;" horiz-adv-x="352" 
d="M17 0v53h12q15 0 31.5 4.5t28 18.5t11.5 42v304q0 27 -12 40t-28.5 17t-30.5 4h-12v53h235v-418q0 -28 11.5 -42t28.5 -18.5t31 -4.5h12v-53h-318zM98 606v13q15 19 33.5 45t36 53t27.5 49h157v-10q-9 -13 -30.5 -33t-48.5 -42t-55 -41.5t-52 -33.5h-68z" />
    <glyph glyph-name="icircumflex" unicode="&#xee;" horiz-adv-x="352" 
d="M17 0v53h12q15 0 31.5 4.5t28 18.5t11.5 42v304q0 27 -12 40t-28.5 17t-30.5 4h-12v53h235v-418q0 -28 11.5 -42t28.5 -18.5t31 -4.5h12v-53h-318zM-15 606v13q16 19 37.5 45t42 53t30.5 49h135q11 -22 31 -49t42 -53t37 -45v-13h-69q-14 11 -34 27t-40 33t-35 30
q-22 -20 -54.5 -46.5t-53.5 -43.5h-69z" />
    <glyph glyph-name="idieresis" unicode="&#xef;" horiz-adv-x="352" 
d="M17 0v53h12q15 0 31.5 4.5t28 18.5t11.5 42v304q0 27 -12 40t-28.5 17t-30.5 4h-12v53h235v-418q0 -28 11.5 -42t28.5 -18.5t31 -4.5h12v-53h-318zM264 626q-24 0 -42 14t-18 48q0 35 18 48.5t42 13.5q23 0 41 -13.5t18 -48.5q0 -34 -18 -48t-41 -14zM58 626
q-23 0 -41 14t-18 48q0 35 18 48.5t41 13.5t41.5 -13.5t18.5 -48.5q0 -34 -18.5 -48t-41.5 -14z" />
    <glyph glyph-name="eth" unicode="&#xf0;" horiz-adv-x="613" 
d="M304 -10q-119 0 -188 65.5t-69 199.5q0 133 62.5 198.5t178.5 65.5q33 0 61.5 -8t47.5 -19q-10 32 -28.5 64t-56.5 63l-141 -72v65l89 46q-25 16 -53 25t-65 15v63q25 -2 61 -11t73 -22.5t62 -29.5l126 64v-66l-70 -36q77 -59 124.5 -154t47.5 -215q0 -152 -67 -226.5
t-195 -74.5zM307 53q57 0 81 51t24 150q0 102 -24 151.5t-82 49.5q-57 0 -80.5 -48.5t-23.5 -152.5q0 -99 23.5 -150t81.5 -51z" />
    <glyph glyph-name="ntilde" unicode="&#xf1;" horiz-adv-x="667" 
d="M20 0v53h2q34 0 56 12t22 57v296q0 42 -19.5 53.5t-52.5 11.5h-3v53h210l13 -71h5q20 38 43.5 55.5t51 23t58.5 5.5q77 0 121 -46t44 -147v-232q0 -46 16.5 -58.5t50.5 -12.5divv-53h-222v329q0 65 -18 100t-62 35q-33 0 -52 -21.5t-27 -57t-8 -76.5v-191
q0 -42 19.5 -53.5t52.5 -11.5divv-53h-307zM400 606q-27 0 -49 9.5t-40.5 22t-35 22t-32.5 9.5q-22 0 -34 -16.5t-15 -36.5h-65q2 41 18.5 74.5t44 53.5t63.5 20q27 0 48.5 -9.5t40 -22t35 -22t32.5 -9.5q22 0 34 16.5t15 36.5h65q-2 -40 -18.5 -74t-43.5 -54t-63 -20z" />
    <glyph glyph-name="ograve" unicode="&#xf2;" horiz-adv-x="613" 
d="M305 -10q-120 0 -189 69.5t-69 210.5t66 210t195 69q120 0 189 -69t69 -210t-66.5 -210.5t-194.5 -69.5zM307 53q58 0 81 55.5t23 161.5q0 107 -23.5 161t-81.5 54t-81 -54t-23 -161q0 -106 23.5 -161.5t81.5 -55.5zM301 606q-24 14 -52 33.5t-55 41.5t-48.5 42t-30.5 33
v10h157q11 -22 28 -49t36 -53t33 -45v-13h-68z" />
    <glyph glyph-name="oacute" unicode="&#xf3;" horiz-adv-x="613" 
d="M305 -10q-120 0 -189 69.5t-69 210.5t66 210t195 69q120 0 189 -69t69 -210t-66.5 -210.5t-194.5 -69.5zM307 53q58 0 81 55.5t23 161.5q0 107 -23.5 161t-81.5 54t-81 -54t-23 -161q0 -106 23.5 -161.5t81.5 -55.5zM246 606v13q15 19 33.5 45t36 53t27.5 49h157v-10
q-9 -13 -30.5 -33t-48.5 -42t-55 -41.5t-52 -33.5h-68z" />
    <glyph glyph-name="ocircumflex" unicode="&#xf4;" horiz-adv-x="613" 
d="M305 -10q-120 0 -189 69.5t-69 210.5t66 210t195 69q120 0 189 -69t69 -210t-66.5 -210.5t-194.5 -69.5zM307 53q58 0 81 55.5t23 161.5q0 107 -23.5 161t-81.5 54t-81 -54t-23 -161q0 -106 23.5 -161.5t81.5 -55.5zM128 606v13q16 19 37.5 45t42 53t30.5 49h135
q11 -22 31 -49t42 -53t37 -45v-13h-69q-14 11 -34 27t-40 33t-35 30q-22 -20 -54.5 -46.5t-53.5 -43.5h-69z" />
    <glyph glyph-name="otilde" unicode="&#xf5;" horiz-adv-x="613" 
d="M305 -10q-120 0 -189 69.5t-69 210.5t66 210t195 69q120 0 189 -69t69 -210t-66.5 -210.5t-194.5 -69.5zM307 53q58 0 81 55.5t23 161.5q0 107 -23.5 161t-81.5 54t-81 -54t-23 -161q0 -106 23.5 -161.5t81.5 -55.5zM377 606q-27 0 -49 9.5t-40.5 22t-35 22t-32.5 9.5
q-22 0 -34 -16.5t-15 -36.5h-65q2 41 18.5 74.5t44 53.5t63.5 20q27 0 48.5 -9.5t40 -22t35 -22t32.5 -9.5q22 0 34 16.5t15 36.5h65q-2 -40 -18.5 -74t-43.5 -54t-63 -20z" />
    <glyph glyph-name="odieresis" unicode="&#xf6;" horiz-adv-x="613" 
d="M305 -10q-120 0 -189 69.5t-69 210.5t66 210t195 69q120 0 189 -69t69 -210t-66.5 -210.5t-194.5 -69.5zM307 53q58 0 81 55.5t23 161.5q0 107 -23.5 161t-81.5 54t-81 -54t-23 -161q0 -106 23.5 -161.5t81.5 -55.5zM408 626q-24 0 -42 14t-18 48q0 35 18 48.5t42 13.5
q23 0 41 -13.5t18 -48.5q0 -34 -18 -48t-41 -14zM202 626q-23 0 -41 14t-18 48q0 35 18 48.5t41 13.5t41.5 -13.5t18.5 -48.5q0 -34 -18.5 -48t-41.5 -14z" />
    <glyph glyph-name="divide" unicode="&#xf7;" horiz-adv-x="559" 
d="M280 486q-24 0 -40 13.5t-16 47.5q0 35 16 48t40 13q23 0 39.5 -13t16.5 -48q0 -34 -16.5 -47.5t-39.5 -13.5zM65 322v71h429v-71h-429zM280 107q-24 0 -40 13.5t-16 47.5q0 35 16 48t40 13q23 0 39.5 -13t16.5 -48q0 -34 -16.5 -47.5t-39.5 -13.5z" />
    <glyph glyph-name="oslash" unicode="&#xf8;" horiz-adv-x="613" 
d="M84 -40l50 82q-42 35 -64.5 92t-22.5 136q0 141 66 210t195 69q72 0 124 -24l32 51h70l-51 -84q40 -34 61.5 -89.5t21.5 -132.5q0 -141 -66.5 -210.5t-194.5 -69.5q-67 0 -118 21l-32 -51h-71zM209 164l172 279q-25 42 -75 42q-58 0 -81 -54t-23 -161q0 -31 1.5 -57.5
t5.5 -48.5zM307 53q58 0 81 55.5t23 161.5q0 54 -6 96l-170 -276q25 -37 72 -37z" />
    <glyph glyph-name="ugrave" unicode="&#xf9;" horiz-adv-x="667" 
d="M258 -10q-78 0 -120 48.5t-42 149.5v224q0 44 -16 57.5t-52 13.5h-2v53h222v-320q0 -64 16 -102.5t60 -38.5q48 0 69.5 41t21.5 111v192q0 44 -21.5 54t-50.5 10h-3v53h227v-420q0 -43 19 -53t48 -10h8v-53h-199l-22 71h-5q-30 -52 -70.5 -66.5t-87.5 -14.5zM309 606
q-24 14 -52 33.5t-55 41.5t-48.5 42t-30.5 33v10h157q11 -22 28 -49t36 -53t33 -45v-13h-68z" />
    <glyph glyph-name="uacute" unicode="&#xfa;" horiz-adv-x="667" 
d="M258 -10q-78 0 -120 48.5t-42 149.5v224q0 44 -16 57.5t-52 13.5h-2v53h222v-320q0 -64 16 -102.5t60 -38.5q48 0 69.5 41t21.5 111v192q0 44 -21.5 54t-50.5 10h-3v53h227v-420q0 -43 19 -53t48 -10h8v-53h-199l-22 71h-5q-30 -52 -70.5 -66.5t-87.5 -14.5zM257 606v13
q15 19 33.5 45t36 53t27.5 49h157v-10q-9 -13 -30.5 -33t-48.5 -42t-55 -41.5t-52 -33.5h-68z" />
    <glyph glyph-name="ucircumflex" unicode="&#xfb;" horiz-adv-x="667" 
d="M258 -10q-78 0 -120 48.5t-42 149.5v224q0 44 -16 57.5t-52 13.5h-2v53h222v-320q0 -64 16 -102.5t60 -38.5q48 0 69.5 41t21.5 111v192q0 44 -21.5 54t-50.5 10h-3v53h227v-420q0 -43 19 -53t48 -10h8v-53h-199l-22 71h-5q-30 -52 -70.5 -66.5t-87.5 -14.5zM144 606v13
q16 19 37.5 45t42 53t30.5 49h135q11 -22 31 -49t42 -53t37 -45v-13h-69q-14 11 -34 27t-40 33t-35 30q-22 -20 -54.5 -46.5t-53.5 -43.5h-69z" />
    <glyph glyph-name="udieresis" unicode="&#xfc;" horiz-adv-x="667" 
d="M258 -10q-78 0 -120 48.5t-42 149.5v224q0 44 -16 57.5t-52 13.5h-2v53h222v-320q0 -64 16 -102.5t60 -38.5q48 0 69.5 41t21.5 111v192q0 44 -21.5 54t-50.5 10h-3v53h227v-420q0 -43 19 -53t48 -10h8v-53h-199l-22 71h-5q-30 -52 -70.5 -66.5t-87.5 -14.5zM427 626
q-24 0 -42 14t-18 48q0 35 18 48.5t42 13.5q23 0 41 -13.5t18 -48.5q0 -34 -18 -48t-41 -14zM221 626q-23 0 -41 14t-18 48q0 35 18 48.5t41 13.5t41.5 -13.5t18.5 -48.5q0 -34 -18.5 -48t-41.5 -14z" />
    <glyph glyph-name="yacute" unicode="&#xfd;" horiz-adv-x="579" 
d="M27 -240v58q70 0 112.5 22t67.5 62t41 93l-180 440q-11 26 -27 33.5t-37 8.5h-4v59h285v-53h-3q-28 0 -44 -8t-16 -29q0 -8 3.5 -19.5t6.5 -19.5l69 -183q14 -38 20 -62t8 -44q2 21 10.5 47t11.5 33l66 196q4 10 7 25t3 24q0 22 -18 30.5t-51 9.5h-4v53h225v-53h-4
q-28 -1 -44.5 -16.5t-31.5 -56.5l-151 -410q-26 -73 -49.5 -119.5t-54.5 -73t-78.5 -37t-121.5 -10.5h-17zM226 606v13q15 19 33.5 45t36 53t27.5 49h157v-10q-9 -13 -30.5 -33t-48.5 -42t-55 -41.5t-52 -33.5h-68z" />
    <glyph glyph-name="thorn" unicode="&#xfe;" horiz-adv-x="645" 
d="M13 -240v53h12q15 0 31.5 4.5t28 18.5t11.5 42v759q0 46 -19 58t-48 12h-7v53h226v-184q0 -18 -3 -46t-6 -50l-3 -22h4q22 39 58.5 63.5t94.5 24.5q100 0 152.5 -67t52.5 -213q0 -145 -51.5 -211.5t-149.5 -66.5q-57 0 -92.5 21.5t-57.5 58.5h-7l2 -21.5t4 -50t2 -49.5
v-69q0 -28 11.5 -42t28.5 -18.5t31 -4.5h22v-53h-328zM350 62q50 0 72 50.5t22 152.5q0 100 -21.5 153t-71.5 53q-60 0 -81.5 -53t-21.5 -152q0 -103 21.5 -153.5t80.5 -50.5z" />
    <glyph glyph-name="ydieresis" unicode="&#xff;" horiz-adv-x="579" 
d="M27 -240v58q70 0 112.5 22t67.5 62t41 93l-180 440q-11 26 -27 33.5t-37 8.5h-4v59h285v-53h-3q-28 0 -44 -8t-16 -29q0 -8 3.5 -19.5t6.5 -19.5l69 -183q14 -38 20 -62t8 -44q2 21 10.5 47t11.5 33l66 196q4 10 7 25t3 24q0 22 -18 30.5t-51 9.5h-4v53h225v-53h-4
q-28 -1 -44.5 -16.5t-31.5 -56.5l-151 -410q-26 -73 -49.5 -119.5t-54.5 -73t-78.5 -37t-121.5 -10.5h-17zM403 626q-24 0 -42 14t-18 48q0 35 18 48.5t42 13.5q23 0 41 -13.5t18 -48.5q0 -34 -18 -48t-41 -14zM197 626q-23 0 -41 14t-18 48q0 35 18 48.5t41 13.5
t41.5 -13.5t18.5 -48.5q0 -34 -18.5 -48t-41.5 -14z" />
    <glyph glyph-name="Amacron" unicode="&#x100;" horiz-adv-x="753" 
d="M4 0v53h12q27 0 45.5 14t34.5 59l217 588h137l209 -589q15 -42 33.5 -57t42.5 -15h18v-53h-330v53div9q15 0 29 9t14 30q0 12 -3 23.5t-6 19.5l-35 100h-243l-29 -86q-4 -12 -8 -28.5t-4 -28.5q0 -19 14 -29t31 -10h42v-53h-260zM239 296h202l-53 164q-10 34 -22.5 76
t-20.5 77q-9 -32 -22 -72.5t-25 -75.5zM230 771v79h290v-79h-290z" />
    <glyph glyph-name="amacron" unicode="&#x101;" horiz-adv-x="599" 
d="M202 -10q-66 0 -111.5 40t-45.5 123q0 81 56 120t168 43l82 3v55q0 50 -10.5 82t-51.5 32q-38 0 -52.5 -30.5t-14.5 -77.5q-67 0 -101 15t-34 52t28 59t75 32.5t103 10.5q105 0 157.5 -38t52.5 -132v-255q0 -41 13 -56t47 -15h4v-53h-186l-21 69h-9q-22 -27 -41.5 -44.5
t-44.5 -26t-63 -8.5zM257 63q43 0 68.5 35t25.5 93v75l-45 -3q-60 -3 -83 -31.5t-23 -82.5q0 -86 57 -86zM142 606v79h290v-79h-290z" />
    <glyph glyph-name="Abreve" unicode="&#x102;" horiz-adv-x="753" 
d="M4 0v53h12q27 0 45.5 14t34.5 59l217 588h137l209 -589q15 -42 33.5 -57t42.5 -15h18v-53h-330v53div9q15 0 29 9t14 30q0 12 -3 23.5t-6 19.5l-35 100h-243l-29 -86q-4 -12 -8 -28.5t-4 -28.5q0 -19 14 -29t31 -10h42v-53h-260zM239 296h202l-53 164q-10 34 -22.5 76
t-20.5 77q-9 -32 -22 -72.5t-25 -75.5zM380 771q-52 0 -87.5 23.5t-53.5 60t-19 73.5h66q8 -36 32.5 -52t61.5 -16t61.5 16t32.5 52h66q-1 -37 -19 -73.5t-53 -60t-88 -23.5z" />
    <glyph glyph-name="abreve" unicode="&#x103;" horiz-adv-x="599" 
d="M202 -10q-66 0 -111.5 40t-45.5 123q0 81 56 120t168 43l82 3v55q0 50 -10.5 82t-51.5 32q-38 0 -52.5 -30.5t-14.5 -77.5q-67 0 -101 15t-34 52t28 59t75 32.5t103 10.5q105 0 157.5 -38t52.5 -132v-255q0 -41 13 -56t47 -15h4v-53h-186l-21 69h-9q-22 -27 -41.5 -44.5
t-44.5 -26t-63 -8.5zM257 63q43 0 68.5 35t25.5 93v75l-45 -3q-60 -3 -83 -31.5t-23 -82.5q0 -86 57 -86zM285 606q-52 0 -87.5 23.5t-53.5 60t-19 73.5h66q8 -36 32.5 -52t61.5 -16t61.5 16t32.5 52h66q-1 -37 -19 -73.5t-53 -60t-88 -23.5z" />
    <glyph glyph-name="Aogonek" unicode="&#x104;" horiz-adv-x="753" 
d="M4 0v53h12q27 0 45.5 14t34.5 59l217 588h137l209 -589q15 -42 33.5 -57t42.5 -15h18v-53h-330v53div9q15 0 29 9t14 30q0 12 -3 23.5t-6 19.5l-35 100h-243l-29 -86q-4 -12 -8 -28.5t-4 -28.5q0 -19 14 -29t31 -10h42v-53h-260zM239 296h202l-53 164q-10 34 -22.5 76
t-20.5 77q-9 -32 -22 -72.5t-25 -75.5zM639 -240q-73 0 -111 26.5t-38 83.5q0 31 17 58t44 46t57 26h77q-21 -6 -42.5 -21.5t-36 -38.5t-14.5 -55q0 -28 19.5 -40.5t49.5 -12.5q14 0 29.5 2t33.5 6v-64q-16 -7 -42.5 -11.5t-42.5 -4.5z" />
    <glyph glyph-name="aogonek" unicode="&#x105;" horiz-adv-x="599" 
d="M202 -10q-66 0 -111.5 40t-45.5 123q0 81 56 120t168 43l82 3v55q0 50 -10.5 82t-51.5 32q-38 0 -52.5 -30.5t-14.5 -77.5q-67 0 -101 15t-34 52t28 59t75 32.5t103 10.5q105 0 157.5 -38t52.5 -132v-255q0 -41 13 -56t47 -15h4v-53h-186l-21 69h-9q-22 -27 -41.5 -44.5
t-44.5 -26t-63 -8.5zM257 63q43 0 68.5 35t25.5 93v75l-45 -3q-60 -3 -83 -31.5t-23 -82.5q0 -86 57 -86zM412 -240q-73 0 -111 26.5t-38 83.5q0 31 17 58t44 46t57 26h77q-21 -6 -42.5 -21.5t-36 -38.5t-14.5 -55q0 -28 19.5 -40.5t49.5 -12.5q14 0 29.5 2t33.5 6v-64
q-16 -7 -42.5 -11.5t-42.5 -4.5z" />
    <glyph glyph-name="Cacute" unicode="&#x106;" horiz-adv-x="668" 
d="M401 -10q-116 0 -193 46t-115 128.5t-38 193.5q0 108 39 190.5t116 129t190 46.5q115 0 171.5 -33.5t56.5 -82.5q0 -37 -32 -62t-93 -25q0 33 -10 65t-34 53t-66 21q-95 0 -132.5 -78.5t-37.5 -223.5t45.5 -216.5t156.5 -71.5q49 0 84 14.5t59.5 36.5t41.5 44
q17 -14 17 -43q0 -28 -21 -58.5t-70 -52t-135 -21.5zM327 771v13q15 19 33.5 45t36 53t27.5 49h157v-10q-9 -13 -30.5 -33t-48.5 -42t-55 -41.5t-52 -33.5h-68z" />
    <glyph glyph-name="cacute" unicode="&#x107;" horiz-adv-x="527" 
d="M295 -10q-73 0 -129 26.5t-87.5 87t-31.5 162.5q0 108 32.5 169.5t88 87.5t124.5 26q97 0 147.5 -30.5t50.5 -74.5q0 -21 -10.5 -40.5t-38.5 -32t-80 -12.5q0 35 -6 64t-20 47t-39 18q-29 0 -50.5 -19.5t-33 -67.5t-11.5 -134q0 -101 28 -151.5t91 -50.5q52 0 90 23.5
t55 57.5q12 -7 18 -19.5t6 -26.5q0 -25 -20.5 -50.5t-63 -42.5t-110.5 -17zM218 606v13q15 19 33.5 45t36 53t27.5 49h157v-10q-9 -13 -30.5 -33t-48.5 -42t-55 -41.5t-52 -33.5h-68z" />
    <glyph glyph-name="Ccircumflex" unicode="&#x108;" horiz-adv-x="668" 
d="M401 -10q-116 0 -193 46t-115 128.5t-38 193.5q0 108 39 190.5t116 129t190 46.5q115 0 171.5 -33.5t56.5 -82.5q0 -37 -32 -62t-93 -25q0 33 -10 65t-34 53t-66 21q-95 0 -132.5 -78.5t-37.5 -223.5t45.5 -216.5t156.5 -71.5q49 0 84 14.5t59.5 36.5t41.5 44
q17 -14 17 -43q0 -28 -21 -58.5t-70 -52t-135 -21.5zM202 771v13q16 19 37.5 45t42 53t30.5 49h135q11 -22 31 -49t42 -53t37 -45v-13h-69q-14 11 -34 27t-40 33t-35 30q-22 -20 -54.5 -46.5t-53.5 -43.5h-69z" />
    <glyph glyph-name="ccircumflex" unicode="&#x109;" horiz-adv-x="527" 
d="M295 -10q-73 0 -129 26.5t-87.5 87t-31.5 162.5q0 108 32.5 169.5t88 87.5t124.5 26q97 0 147.5 -30.5t50.5 -74.5q0 -21 -10.5 -40.5t-38.5 -32t-80 -12.5q0 35 -6 64t-20 47t-39 18q-29 0 -50.5 -19.5t-33 -67.5t-11.5 -134q0 -101 28 -151.5t91 -50.5q52 0 90 23.5
t55 57.5q12 -7 18 -19.5t6 -26.5q0 -25 -20.5 -50.5t-63 -42.5t-110.5 -17zM111 606v13q16 19 37.5 45t42 53t30.5 49h135q11 -22 31 -49t42 -53t37 -45v-13h-69q-14 11 -34 27t-40 33t-35 30q-22 -20 -54.5 -46.5t-53.5 -43.5h-69z" />
    <glyph glyph-name="Cdot" unicode="&#x10a;" horiz-adv-x="668" 
d="M401 -10q-116 0 -193 46t-115 128.5t-38 193.5q0 108 39 190.5t116 129t190 46.5q115 0 171.5 -33.5t56.5 -82.5q0 -37 -32 -62t-93 -25q0 33 -10 65t-34 53t-66 21q-95 0 -132.5 -78.5t-37.5 -223.5t45.5 -216.5t156.5 -71.5q49 0 84 14.5t59.5 36.5t41.5 44
q17 -14 17 -43q0 -28 -21 -58.5t-70 -52t-135 -21.5zM388 791q-36 0 -60.5 17.5t-24.5 54.5q0 38 24.5 55t60.5 17q35 0 60.5 -17t25.5 -55q0 -37 -25.5 -54.5t-60.5 -17.5z" />
    <glyph glyph-name="cdot" unicode="&#x10b;" horiz-adv-x="527" 
d="M295 -10q-73 0 -129 26.5t-87.5 87t-31.5 162.5q0 108 32.5 169.5t88 87.5t124.5 26q97 0 147.5 -30.5t50.5 -74.5q0 -21 -10.5 -40.5t-38.5 -32t-80 -12.5q0 35 -6 64t-20 47t-39 18q-29 0 -50.5 -19.5t-33 -67.5t-11.5 -134q0 -101 28 -151.5t91 -50.5q52 0 90 23.5
t55 57.5q12 -7 18 -19.5t6 -26.5q0 -25 -20.5 -50.5t-63 -42.5t-110.5 -17zM289 626q-36 0 -60.5 17.5t-24.5 54.5q0 38 24.5 55t60.5 17q35 0 60.5 -17t25.5 -55q0 -37 -25.5 -54.5t-60.5 -17.5z" />
    <glyph glyph-name="Ccaron" unicode="&#x10c;" horiz-adv-x="668" 
d="M401 -10q-116 0 -193 46t-115 128.5t-38 193.5q0 108 39 190.5t116 129t190 46.5q115 0 171.5 -33.5t56.5 -82.5q0 -37 -32 -62t-93 -25q0 33 -10 65t-34 53t-66 21q-95 0 -132.5 -78.5t-37.5 -223.5t45.5 -216.5t156.5 -71.5q49 0 84 14.5t59.5 36.5t41.5 44
q17 -14 17 -43q0 -28 -21 -58.5t-70 -52t-135 -21.5zM312 771q-10 23 -30.5 49.5t-42 52.5t-37.5 45v13h69q21 -16 53.5 -43t54.5 -47q15 14 35 30.5t40 32.5t34 27h69v-13q-15 -19 -37 -45t-42 -52.5t-31 -49.5h-135z" />
    <glyph glyph-name="ccaron" unicode="&#x10d;" horiz-adv-x="527" 
d="M295 -10q-73 0 -129 26.5t-87.5 87t-31.5 162.5q0 108 32.5 169.5t88 87.5t124.5 26q97 0 147.5 -30.5t50.5 -74.5q0 -21 -10.5 -40.5t-38.5 -32t-80 -12.5q0 35 -6 64t-20 47t-39 18q-29 0 -50.5 -19.5t-33 -67.5t-11.5 -134q0 -101 28 -151.5t91 -50.5q52 0 90 23.5
t55 57.5q12 -7 18 -19.5t6 -26.5q0 -25 -20.5 -50.5t-63 -42.5t-110.5 -17zM222 606q-10 23 -30.5 49.5t-42 52.5t-37.5 45v13h69q21 -16 53.5 -43t54.5 -47q15 14 35 30.5t40 32.5t34 27h69v-13q-15 -19 -37 -45t-42 -52.5t-31 -49.5h-135z" />
    <glyph glyph-name="Dcaron" unicode="&#x10e;" horiz-adv-x="767" 
d="M28 0v53h42q22 0 36.5 11t14.5 54v482q0 40 -15 50.5t-36 10.5h-42v53div30q166 0 260 -87t94 -257q0 -109 -40 -192.5t-118.5 -130.5t-195.5 -47h-330zM279 62h56q103 0 155.5 82.5t52.5 225.5t-52.5 213t-154.5 70h-57v-591zM299 771q-10 23 -30.5 49.5t-42 52.5
t-37.5 45v13h69q21 -16 53.5 -43t54.5 -47q15 14 35 30.5t40 32.5t34 27h69v-13q-15 -19 -37 -45t-42 -52.5t-31 -49.5h-135z" />
    <glyph glyph-name="dcaron" unicode="&#x10f;" horiz-adv-x="649" 
d="M250 -10q-98 0 -151 66.5t-53 210.5q0 145 52.5 213t149.5 68q56 0 92 -22.5t57 -57.5h7q-4 28 -6 63t-2 59v55q0 41 -24 51.5t-57 10.5h-8v53h241v-637q0 -30 11.5 -45t30.5 -20t41 -5h4v-53h-194l-28 78h-9q-22 -40 -58.5 -64t-95.5 -24zM293 65q59 0 81 50.5t22 153.5
q0 99 -22 152t-81 53q-50 0 -71.5 -53t-21.5 -153q0 -102 21.5 -152.5t71.5 -50.5zM603 600v13q10 30 21.5 72t17.5 75h116v-10q-9 -21 -25 -48t-34.5 -53.5t-35.5 -48.5h-60z" />
    <glyph glyph-name="Dcroat" unicode="&#x110;" horiz-adv-x="767" 
d="M28 0v53h42q22 0 36.5 11t14.5 54v225h-83v61h83v196q0 40 -15 50.5t-36 10.5h-42v53div30q166 0 260 -87t94 -257q0 -109 -40 -192.5t-118.5 -130.5t-195.5 -47h-330zM279 62h56q103 0 155.5 82.5t52.5 225.5t-52.5 213t-154.5 70h-57v-249h125v-61h-125v-281z" />
    <glyph glyph-name="dcroat" unicode="&#x111;" horiz-adv-x="649" 
d="M250 -10q-98 0 -151 63t-53 199q0 137 52.5 201.5t149.5 64.5q56 0 92 -22.5t57 -57.5h7l-1 16t-3 39t-3 44t-1 31v10h-155v53h155v14q0 42 -24 52t-57 10h-8v53h241v-129h87v-53h-87v-455q0 -30 11.5 -45t30.5 -20t41 -5h4v-53h-194l-28 78h-9q-22 -40 -58.5 -64
t-95.5 -24zM293 65q59 0 81 46.5t22 142.5q0 92 -22 141t-81 49q-50 0 -71.5 -49.5t-21.5 -141.5q0 -94 21.5 -141t71.5 -47z" />
    <glyph glyph-name="Emacron" unicode="&#x112;" horiz-adv-x="653" 
d="M28 0v53h42q21 0 36 10t15 50v483q0 43 -14.5 54t-36.5 11h-42v53h555l4 -184h-70l-5 47q-4 37 -18.5 56.5t-45.5 19.5h-168v-250h237v-60h-237v-282h200q30 0 44.5 21.5t19.5 54.5l8 47h69l-7 -184h-586zM184 771v79h290v-79h-290z" />
    <glyph glyph-name="emacron" unicode="&#x113;" horiz-adv-x="571" 
d="M306 -10q-127 0 -193 72.5t-66 202.5q0 141 65 212.5t183 71.5q109 0 171.5 -61t62.5 -180v-51h-328q3 -100 37.5 -146t96.5 -46q52 0 88 23.5t53 57.5q27 -15 27 -49q0 -43 -48 -75t-149 -32zM203 321h173q0 77 -18 120t-61 43q-42 0 -67 -41.5t-27 -121.5zM158 606v79
h290v-79h-290z" />
    <glyph glyph-name="Ebreve" unicode="&#x114;" horiz-adv-x="653" 
d="M28 0v53h42q21 0 36 10t15 50v483q0 43 -14.5 54t-36.5 11h-42v53h555l4 -184h-70l-5 47q-4 37 -18.5 56.5t-45.5 19.5h-168v-250h237v-60h-237v-282h200q30 0 44.5 21.5t19.5 54.5l8 47h69l-7 -184h-586zM334 771q-52 0 -87.5 23.5t-53.5 60t-19 73.5h66q8 -36 32.5 -52
t61.5 -16t61.5 16t32.5 52h66q-1 -37 -19 -73.5t-53 -60t-88 -23.5z" />
    <glyph glyph-name="ebreve" unicode="&#x115;" horiz-adv-x="571" 
d="M306 -10q-127 0 -193 72.5t-66 202.5q0 141 65 212.5t183 71.5q109 0 171.5 -61t62.5 -180v-51h-328q3 -100 37.5 -146t96.5 -46q52 0 88 23.5t53 57.5q27 -15 27 -49q0 -43 -48 -75t-149 -32zM203 321h173q0 77 -18 120t-61 43q-42 0 -67 -41.5t-27 -121.5zM295 606
q-52 0 -87.5 23.5t-53.5 60t-19 73.5h66q8 -36 32.5 -52t61.5 -16t61.5 16t32.5 52h66q-1 -37 -19 -73.5t-53 -60t-88 -23.5z" />
    <glyph glyph-name="Edotaccent" unicode="&#x116;" horiz-adv-x="653" 
d="M28 0v53h42q21 0 36 10t15 50v483q0 43 -14.5 54t-36.5 11h-42v53h555l4 -184h-70l-5 47q-4 37 -18.5 56.5t-45.5 19.5h-168v-250h237v-60h-237v-282h200q30 0 44.5 21.5t19.5 54.5l8 47h69l-7 -184h-586zM331 777q-36 0 -60.5 17.5t-24.5 54.5q0 38 24.5 55t60.5 17
q35 0 60.5 -17t25.5 -55q0 -37 -25.5 -54.5t-60.5 -17.5z" />
    <glyph glyph-name="edotaccent" unicode="&#x117;" horiz-adv-x="571" 
d="M306 -10q-127 0 -193 72.5t-66 202.5q0 141 65 212.5t183 71.5q109 0 171.5 -61t62.5 -180v-51h-328q3 -100 37.5 -146t96.5 -46q52 0 88 23.5t53 57.5q27 -15 27 -49q0 -43 -48 -75t-149 -32zM203 321h173q0 77 -18 120t-61 43q-42 0 -67 -41.5t-27 -121.5zM297 626
q-36 0 -60.5 17.5t-24.5 54.5q0 38 24.5 55t60.5 17q35 0 60.5 -17t25.5 -55q0 -37 -25.5 -54.5t-60.5 -17.5z" />
    <glyph glyph-name="Eogonek" unicode="&#x118;" horiz-adv-x="653" 
d="M28 0v53h42q21 0 36 10t15 50v483q0 43 -14.5 54t-36.5 11h-42v53h555l4 -184h-70l-5 47q-4 37 -18.5 56.5t-45.5 19.5h-168v-250h237v-60h-237v-282h200q30 0 44.5 21.5t19.5 54.5l8 47h69l-7 -184h-586zM500 -240q-73 0 -111 26.5t-38 83.5q0 31 17 58t44 46t57 26h77
q-21 -6 -42.5 -21.5t-36 -38.5t-14.5 -55q0 -28 19.5 -40.5t49.5 -12.5q14 0 29.5 2t33.5 6v-64q-16 -7 -42.5 -11.5t-42.5 -4.5z" />
    <glyph glyph-name="eogonek" unicode="&#x119;" horiz-adv-x="571" 
d="M378 -240q-73 0 -111 26.5t-38 83.5q0 39 26 71.5t63 48.5h-12q-127 0 -193 72.5t-66 202.5q0 141 65 212.5t183 71.5q109 0 171.5 -61t62.5 -180v-51h-328q3 -100 37.5 -146t96.5 -46q52 0 88 23.5t53 57.5q27 -15 27 -49q0 -26 -17.5 -49t-54.5 -38
q-47 -26 -73.5 -53.5t-26.5 -71.5q0 -28 19.5 -40.5t49.5 -12.5q14 0 29.5 2t33.5 6v-64q-16 -7 -42.5 -11.5t-42.5 -4.5zM203 321h173q0 77 -18 120t-61 43q-42 0 -67 -41.5t-27 -121.5z" />
    <glyph glyph-name="Ecaron" unicode="&#x11a;" horiz-adv-x="653" 
d="M28 0v53h42q21 0 36 10t15 50v483q0 43 -14.5 54t-36.5 11h-42v53h555l4 -184h-70l-5 47q-4 37 -18.5 56.5t-45.5 19.5h-168v-250h237v-60h-237v-282h200q30 0 44.5 21.5t19.5 54.5l8 47h69l-7 -184h-586zM262 771q-10 23 -30.5 49.5t-42 52.5t-37.5 45v13h69
q21 -16 53.5 -43t54.5 -47q15 14 35 30.5t40 32.5t34 27h69v-13q-15 -19 -37 -45t-42 -52.5t-31 -49.5h-135z" />
    <glyph glyph-name="ecaron" unicode="&#x11b;" horiz-adv-x="571" 
d="M306 -10q-127 0 -193 72.5t-66 202.5q0 141 65 212.5t183 71.5q109 0 171.5 -61t62.5 -180v-51h-328q3 -100 37.5 -146t96.5 -46q52 0 88 23.5t53 57.5q27 -15 27 -49q0 -43 -48 -75t-149 -32zM203 321h173q0 77 -18 120t-61 43q-42 0 -67 -41.5t-27 -121.5zM224 606
q-10 23 -30.5 49.5t-42 52.5t-37.5 45v13h69q21 -16 53.5 -43t54.5 -47q15 14 35 30.5t40 32.5t34 27h69v-13q-15 -19 -37 -45t-42 -52.5t-31 -49.5h-135z" />
    <glyph glyph-name="Gcircumflex" unicode="&#x11c;" horiz-adv-x="769" 
d="M423 -10q-124 0 -205.5 46t-122 128.5t-40.5 193.5q0 108 42 190.5t125.5 129t205.5 46.5q125 0 187.5 -33.5t62.5 -82.5q0 -35 -33 -60t-96 -25q0 61 -30 99t-94 38q-109 0 -155.5 -78.5t-46.5 -223.5t48.5 -222.5t166.5 -77.5q19 0 37.5 1.5t35.5 5.5v147
q0 40 -18 55.5t-53 15.5h-13v53div14v-53h-13q-31 0 -45 -16t-14 -59v-164q-58 -27 -118 -40.5t-128 -13.5zM232 771v13q16 19 37.5 45t42 53t30.5 49h135q11 -22 31 -49t42 -53t37 -45v-13h-69q-14 11 -34 27t-40 33t-35 30q-22 -20 -54.5 -46.5t-53.5 -43.5h-69z" />
    <glyph glyph-name="gcircumflex" unicode="&#x11d;" horiz-adv-x="560" 
d="M236 -240q-234 0 -234 139q0 53 35 82t100 34q-27 11 -50 32.5t-23 56.5q0 33 25 58t64 47q-44 16 -73 55t-29 100q0 88 51 136.5t158 48.5q35 0 66 -9t53 -22q26 29 50 42.5t54 13.5q36 0 54 -17t18 -40q0 -22 -15 -39.5t-56 -17.5q0 20 -12 31t-26 11q-20 0 -33 -11
q20 -22 34.5 -56t14.5 -71q0 -76 -49 -125.5t-153 -49.5q-11 0 -30 1t-28 2q-14 -6 -25 -19.5t-11 -31.5q0 -16 13 -24t34 -8h121q100 0 146 -40.5t46 -112.5q0 -92 -71 -144t-219 -52zM257 248q40 0 54 31.5t14 85.5q0 56 -14.5 90t-54.5 34q-39 0 -54 -35t-15 -90
q0 -52 15.5 -84t54.5 -32zM238 -180q88 0 128 25.5t40 74.5q0 32 -20 44.5t-61 12.5h-116q-20 0 -40.5 -5.5t-34.5 -21.5t-14 -49q0 -81 118 -81zM82 606v13q16 19 37.5 45t42 53t30.5 49h135q11 -22 31 -49t42 -53t37 -45v-13h-69q-14 11 -34 27t-40 33t-35 30
q-22 -20 -54.5 -46.5t-53.5 -43.5h-69z" />
    <glyph glyph-name="Gbreve" unicode="&#x11e;" horiz-adv-x="769" 
d="M423 -10q-124 0 -205.5 46t-122 128.5t-40.5 193.5q0 108 42 190.5t125.5 129t205.5 46.5q125 0 187.5 -33.5t62.5 -82.5q0 -35 -33 -60t-96 -25q0 61 -30 99t-94 38q-109 0 -155.5 -78.5t-46.5 -223.5t48.5 -222.5t166.5 -77.5q19 0 37.5 1.5t35.5 5.5v147
q0 40 -18 55.5t-53 15.5h-13v53div14v-53h-13q-31 0 -45 -16t-14 -59v-164q-58 -27 -118 -40.5t-128 -13.5zM409 771q-52 0 -87.5 23.5t-53.5 60t-19 73.5h66q8 -36 32.5 -52t61.5 -16t61.5 16t32.5 52h66q-1 -37 -19 -73.5t-53 -60t-88 -23.5z" />
    <glyph glyph-name="gbreve" unicode="&#x11f;" horiz-adv-x="560" 
d="M236 -240q-234 0 -234 139q0 53 35 82t100 34q-27 11 -50 32.5t-23 56.5q0 33 25 58t64 47q-44 16 -73 55t-29 100q0 88 51 136.5t158 48.5q35 0 66 -9t53 -22q26 29 50 42.5t54 13.5q36 0 54 -17t18 -40q0 -22 -15 -39.5t-56 -17.5q0 20 -12 31t-26 11q-20 0 -33 -11
q20 -22 34.5 -56t14.5 -71q0 -76 -49 -125.5t-153 -49.5q-11 0 -30 1t-28 2q-14 -6 -25 -19.5t-11 -31.5q0 -16 13 -24t34 -8h121q100 0 146 -40.5t46 -112.5q0 -92 -71 -144t-219 -52zM257 248q40 0 54 31.5t14 85.5q0 56 -14.5 90t-54.5 34q-39 0 -54 -35t-15 -90
q0 -52 15.5 -84t54.5 -32zM238 -180q88 0 128 25.5t40 74.5q0 32 -20 44.5t-61 12.5h-116q-20 0 -40.5 -5.5t-34.5 -21.5t-14 -49q0 -81 118 -81zM256 606q-52 0 -87.5 23.5t-53.5 60t-19 73.5h66q8 -36 32.5 -52t61.5 -16t61.5 16t32.5 52h66q-1 -37 -19 -73.5t-53 -60
t-88 -23.5z" />
    <glyph glyph-name="Gdot" unicode="&#x120;" horiz-adv-x="769" 
d="M423 -10q-124 0 -205.5 46t-122 128.5t-40.5 193.5q0 108 42 190.5t125.5 129t205.5 46.5q125 0 187.5 -33.5t62.5 -82.5q0 -35 -33 -60t-96 -25q0 61 -30 99t-94 38q-109 0 -155.5 -78.5t-46.5 -223.5t48.5 -222.5t166.5 -77.5q19 0 37.5 1.5t35.5 5.5v147
q0 40 -18 55.5t-53 15.5h-13v53div14v-53h-13q-31 0 -45 -16t-14 -59v-164q-58 -27 -118 -40.5t-128 -13.5zM408 791q-36 0 -60.5 17.5t-24.5 54.5q0 38 24.5 55t60.5 17q35 0 60.5 -17t25.5 -55q0 -37 -25.5 -54.5t-60.5 -17.5z" />
    <glyph glyph-name="gdot" unicode="&#x121;" horiz-adv-x="560" 
d="M236 -240q-234 0 -234 139q0 53 35 82t100 34q-27 11 -50 32.5t-23 56.5q0 33 25 58t64 47q-44 16 -73 55t-29 100q0 88 51 136.5t158 48.5q35 0 66 -9t53 -22q26 29 50 42.5t54 13.5q36 0 54 -17t18 -40q0 -22 -15 -39.5t-56 -17.5q0 20 -12 31t-26 11q-20 0 -33 -11
q20 -22 34.5 -56t14.5 -71q0 -76 -49 -125.5t-153 -49.5q-11 0 -30 1t-28 2q-14 -6 -25 -19.5t-11 -31.5q0 -16 13 -24t34 -8h121q100 0 146 -40.5t46 -112.5q0 -92 -71 -144t-219 -52zM257 248q40 0 54 31.5t14 85.5q0 56 -14.5 90t-54.5 34q-39 0 -54 -35t-15 -90
q0 -52 15.5 -84t54.5 -32zM238 -180q88 0 128 25.5t40 74.5q0 32 -20 44.5t-61 12.5h-116q-20 0 -40.5 -5.5t-34.5 -21.5t-14 -49q0 -81 118 -81zM256 626q-36 0 -60.5 17.5t-24.5 54.5q0 38 24.5 55t60.5 17q35 0 60.5 -17t25.5 -55q0 -37 -25.5 -54.5t-60.5 -17.5z" />
    <glyph glyph-name="uni0122" unicode="&#x122;" horiz-adv-x="769" 
d="M423 -10q-124 0 -205.5 46t-122 128.5t-40.5 193.5q0 108 42 190.5t125.5 129t205.5 46.5q125 0 187.5 -33.5t62.5 -82.5q0 -35 -33 -60t-96 -25q0 61 -30 99t-94 38q-109 0 -155.5 -78.5t-46.5 -223.5t48.5 -222.5t166.5 -77.5q19 0 37.5 1.5t35.5 5.5v147
q0 40 -18 55.5t-53 15.5h-13v53div14v-53h-13q-31 0 -45 -16t-14 -59v-164q-58 -27 -118 -40.5t-128 -13.5zM309 -221v13q10 30 21.5 72t17.5 75h116v-10q-9 -21 -25 -48t-34.5 -53.5t-35.5 -48.5h-60z" />
    <glyph glyph-name="uni0123" unicode="&#x123;" horiz-adv-x="560" 
d="M236 -240q-234 0 -234 139q0 53 35 82t100 34q-27 11 -50 32.5t-23 56.5q0 33 25 58t64 47q-44 16 -73 55t-29 100q0 88 51 136.5t158 48.5q35 0 66 -9t53 -22q26 29 50 42.5t54 13.5q36 0 54 -17t18 -40q0 -22 -15 -39.5t-56 -17.5q0 20 -12 31t-26 11q-20 0 -33 -11
q20 -22 34.5 -56t14.5 -71q0 -76 -49 -125.5t-153 -49.5q-11 0 -30 1t-28 2q-14 -6 -25 -19.5t-11 -31.5q0 -16 13 -24t34 -8h121q100 0 146 -40.5t46 -112.5q0 -92 -71 -144t-219 -52zM257 248q40 0 54 31.5t14 85.5q0 56 -14.5 90t-54.5 34q-39 0 -54 -35t-15 -90
q0 -52 15.5 -84t54.5 -32zM238 -180q88 0 128 25.5t40 74.5q0 32 -20 44.5t-61 12.5h-116q-20 0 -40.5 -5.5t-34.5 -21.5t-14 -49q0 -81 118 -81zM206 606v10q9 21 25 48t35 54t35 48h60v-13q-10 -30 -21.5 -72t-17.5 -75h-116z" />
    <glyph glyph-name="Hcircumflex" unicode="&#x124;" horiz-adv-x="819" 
d="M28 0v53h42q21 0 36 11t15 54v482q0 40 -15.5 50.5t-35.5 10.5h-42v53div45v-53h-43q-21 0 -36 -11t-15 -54v-193h261v193q0 43 -15 54t-36 11h-43v53div45v-53h-42q-21 0 -36 -11t-15 -54v-483q0 -40 15.5 -50t35.5 -10h42v-53h-345v53h43q21 0 36 11t15 54v224h-261v-224
q0 -43 15 -54t36 -11h43v-53h-345zM233 771v13q16 19 37.5 45t42 53t30.5 49h135q11 -22 31 -49t42 -53t37 -45v-13h-69q-14 11 -34 27t-40 33t-35 30q-22 -20 -54.5 -46.5t-53.5 -43.5h-69z" />
    <glyph glyph-name="hcircumflex" unicode="&#x125;" horiz-adv-x="667" 
d="M20 0v53h2q34 0 56.5 12t22.5 57l-1 524q0 27 -12 40t-28.5 17t-30.5 4h-12v53h235v-165q0 -26 -2 -55.5t-4 -50.5l-2 -21h9q20 38 43.5 55t51 21.5t58.5 4.5q77 0 121 -46t44 -147v-232q0 -46 16.5 -58.5t50.5 -12.5divv-53h-222v329q0 65 -18 100t-62 35
q-33 0 -52 -21.5t-27 -57t-8 -76.5l1 -191q0 -42 19 -53.5t52 -11.5divv-53h-307zM149 798v13q16 19 37.5 45t42 53t30.5 49h135q11 -22 31 -49t42 -53t37 -45v-13h-69q-14 11 -34 27t-40 33t-35 30q-22 -20 -54.5 -46.5t-53.5 -43.5h-69z" />
    <glyph glyph-name="Hbar" unicode="&#x126;" horiz-adv-x="819" 
d="M28 0v53h42q21 0 36 11t15 54v381h-103v53h103v48q0 40 -15.5 50.5t-35.5 10.5h-42v53div45v-53h-43q-21 0 -36 -11t-15 -54v-44h261v44q0 43 -15 54t-36 11h-43v53div45v-53h-42q-21 0 -36 -11t-15 -54v-44h103v-53h-103v-386q0 -40 15.5 -50t35.5 -10h42v-53h-345v53h43
q21 0 36 11t15 54v224h-261v-224q0 -43 15 -54t36 -11h43v-53h-345zM279 403h261v96h-261v-96z" />
    <glyph glyph-name="hbar" unicode="&#x127;" horiz-adv-x="667" 
d="M20 0v53h2q34 0 56 12t22 57v456h-87v53h87v15q0 27 -12 40t-28.5 17t-30.5 4h-12v53h235v-129h155v-53h-155v-13q0 -26 -2 -55.5t-4 -50.5l-2 -21h9q20 38 43.5 55t51 21.5t58.5 4.5q77 0 121 -46t44 -147v-202q0 -46 16.5 -58.5t50.5 -12.5divv-53h-222v299
q0 65 -18 100t-62 35q-33 0 -52 -21.5t-27 -57t-8 -76.5v-161q0 -42 19.5 -53.5t52.5 -11.5divv-53h-307z" />
    <glyph glyph-name="Itilde" unicode="&#x128;" horiz-adv-x="401" 
d="M28 0v53h42q22 0 36.5 11t14.5 54v478q0 43 -14.5 54t-36.5 11h-42v53div45v-53h-42q-22 0 -36.5 -11t-14.5 -54v-478q0 -43 14.5 -54t36.5 -11h42v-53h-345zM271 771q-27 0 -49 9.5t-40.5 22t-35 22t-32.5 9.5q-22 0 -34 -16.5t-15 -36.5h-65q2 41 18.5 74.5t44 53.5
t63.5 20q27 0 48.5 -9.5t40 -22t35 -22t32.5 -9.5q22 0 34 16.5t15 36.5h65q-2 -40 -18.5 -74t-43.5 -54t-63 -20z" />
    <glyph glyph-name="itilde" unicode="&#x129;" horiz-adv-x="352" 
d="M17 0v53h12q15 0 31.5 4.5t28 18.5t11.5 42v304q0 27 -12 40t-28.5 17t-30.5 4h-12v53h235v-418q0 -28 11.5 -42t28.5 -18.5t31 -4.5h12v-53h-318zM245 606q-27 0 -49 9.5t-40.5 22t-35 22t-32.5 9.5q-22 0 -34 -16.5t-15 -36.5h-65q2 41 18.5 74.5t44 53.5t63.5 20
q27 0 48.5 -9.5t40 -22t35 -22t32.5 -9.5q22 0 34 16.5t15 36.5h65q-2 -40 -18.5 -74t-43.5 -54t-63 -20z" />
    <glyph glyph-name="Imacron" unicode="&#x12a;" horiz-adv-x="401" 
d="M28 0v53h42q22 0 36.5 11t14.5 54v478q0 43 -14.5 54t-36.5 11h-42v53div45v-53h-42q-22 0 -36.5 -11t-14.5 -54v-478q0 -43 14.5 -54t36.5 -11h42v-53h-345zM54 771v79h290v-79h-290z" />
    <glyph glyph-name="imacron" unicode="&#x12b;" horiz-adv-x="352" 
d="M17 0v53h12q15 0 31.5 4.5t28 18.5t11.5 42v304q0 27 -12 40t-28.5 17t-30.5 4h-12v53h235v-418q0 -28 11.5 -42t28.5 -18.5t31 -4.5h12v-53h-318zM14 606v79h290v-79h-290z" />
    <glyph glyph-name="Ibreve" unicode="&#x12c;" horiz-adv-x="401" 
d="M28 0v53h42q22 0 36.5 11t14.5 54v478q0 43 -14.5 54t-36.5 11h-42v53div45v-53h-42q-22 0 -36.5 -11t-14.5 -54v-478q0 -43 14.5 -54t36.5 -11h42v-53h-345zM199 771q-52 0 -87.5 23.5t-53.5 60t-19 73.5h66q8 -36 32.5 -52t61.5 -16t61.5 16t32.5 52h66
q-1 -37 -19 -73.5t-53 -60t-88 -23.5z" />
    <glyph glyph-name="ibreve" unicode="&#x12d;" horiz-adv-x="352" 
d="M17 0v53h12q15 0 31.5 4.5t28 18.5t11.5 42v304q0 27 -12 40t-28.5 17t-30.5 4h-12v53h235v-418q0 -28 11.5 -42t28.5 -18.5t31 -4.5h12v-53h-318zM168 606q-52 0 -87.5 23.5t-53.5 60t-19 73.5h66q8 -36 32.5 -52t61.5 -16t61.5 16t32.5 52h66q-1 -37 -19 -73.5t-53 -60
t-88 -23.5z" />
    <glyph glyph-name="Iogonek" unicode="&#x12e;" horiz-adv-x="401" 
d="M28 0v53h42q22 0 36.5 11t14.5 54v478q0 43 -14.5 54t-36.5 11h-42v53div45v-53h-42q-22 0 -36.5 -11t-14.5 -54v-478q0 -43 14.5 -54t36.5 -11h42v-53h-345zM253 -240q-73 0 -111 26.5t-38 83.5q0 31 17 58t44 46t57 26h77q-21 -6 -42.5 -21.5t-36 -38.5t-14.5 -55
q0 -28 19.5 -40.5t49.5 -12.5q14 0 29.5 2t33.5 6v-64q-16 -7 -42.5 -11.5t-42.5 -4.5z" />
    <glyph glyph-name="iogonek" unicode="&#x12f;" horiz-adv-x="352" 
d="M171 626q-36 0 -60.5 17.5t-24.5 54.5q0 38 24.5 55t60.5 17q35 0 60.5 -17t25.5 -55q0 -37 -25.5 -54.5t-60.5 -17.5zM17 0v53h12q15 0 31.5 4.5t28 18.5t11.5 42v304q0 27 -12 40t-28.5 17t-30.5 4h-12v53h235v-418q0 -28 11.5 -42t28.5 -18.5t31 -4.5h12v-53h-318z
M224 -240q-73 0 -111 26.5t-38 83.5q0 31 17 58t44 46t57 26h77q-21 -6 -42.5 -21.5t-36 -38.5t-14.5 -55q0 -28 19.5 -40.5t49.5 -12.5q14 0 29.5 2t33.5 6v-64q-16 -7 -42.5 -11.5t-42.5 -4.5z" />
    <glyph glyph-name="Idotaccent" unicode="&#x130;" horiz-adv-x="401" 
d="M28 0v53h42q22 0 36.5 11t14.5 54v478q0 43 -14.5 54t-36.5 11h-42v53div45v-53h-42q-22 0 -36.5 -11t-14.5 -54v-478q0 -43 14.5 -54t36.5 -11h42v-53h-345zM198 791q-36 0 -60.5 17.5t-24.5 54.5q0 38 24.5 55t60.5 17q35 0 60.5 -17t25.5 -55q0 -37 -25.5 -54.5
t-60.5 -17.5z" />
    <glyph glyph-name="IJ" unicode="&#x132;" horiz-adv-x="798" 
d="M28 0v53h42q22 0 36.5 11t14.5 54v478q0 43 -14.5 54t-36.5 11h-42v53div45v-53h-42q-22 0 -36.5 -11t-14.5 -54v-478q0 -43 14.5 -54t36.5 -11h42v-53h-345zM380 -240v58h18q32 0 61 17t47 56t18 106v603q0 40 -15 50.5t-36 10.5h-42v53div45v-53h-42q-22 0 -37 -11
t-15 -54v-598q0 -68 -22 -114t-59.5 -73t-85.5 -39t-99 -12h-36z" />
    <glyph glyph-name="ij" unicode="&#x133;" horiz-adv-x="697" 
d="M171 626q-36 0 -60.5 17.5t-24.5 54.5q0 38 24.5 55t60.5 17q35 0 60.5 -17t25.5 -55q0 -37 -25.5 -54.5t-60.5 -17.5zM17 0v53h12q15 0 31.5 4.5t28 18.5t11.5 42v304q0 27 -12 40t-28.5 17t-30.5 4h-12v53h235v-418q0 -28 11.5 -42t28.5 -18.5t31 -4.5h12v-53h-318z
M524 626q-36 0 -60.5 17.5t-24.5 54.5q0 38 24.5 55t60.5 17q35 0 60.5 -17t25.5 -55q0 -37 -25.5 -54.5t-60.5 -17.5zM332 -240v62h7q55 0 84 38t29 140v417q0 43 -24 54.5t-56 11.5h-3v53h235v-544q0 -89 -32.5 -140t-89 -71.5t-130.5 -20.5h-20z" />
    <glyph glyph-name="Jcircumflex" unicode="&#x134;" horiz-adv-x="397" 
d="M-21 -240v58h18q32 0 61 17t47 56t18 106v603q0 40 -15 50.5t-36 10.5h-42v53div45v-53h-42q-22 0 -37 -11t-15 -54v-598q0 -68 -22 -114t-59.5 -73t-85.5 -39t-99 -12h-36zM25 771v13q16 19 37.5 45t42 53t30.5 49h135q11 -22 31 -49t42 -53t37 -45v-13h-69
q-14 11 -34 27t-40 33t-35 30q-22 -20 -54.5 -46.5t-53.5 -43.5h-69z" />
    <glyph glyph-name="jcircumflex" unicode="&#x135;" horiz-adv-x="345" 
d="M-4 -240v62h6q47 0 72.5 38t25.5 140v417q0 43 -24 54.5t-56 11.5h-3v53h235v-544q0 -89 -30.5 -140t-84 -71.5t-122.5 -20.5h-19zM-21 606v13q16 19 37.5 45t42 53t30.5 49h135q11 -22 31 -49t42 -53t37 -45v-13h-69q-14 11 -34 27t-40 33t-35 30q-22 -20 -54.5 -46.5
t-53.5 -43.5h-69z" />
    <glyph glyph-name="uni0136" unicode="&#x136;" horiz-adv-x="734" 
d="M28 0v53h42q21 0 36 10t15 50v487q0 40 -15 50.5t-36 10.5h-42v53div45v-53h-42q-22 0 -37 -11t-15 -54v-233l155 169q32 35 44.5 57.5t12.5 43.5q0 17 -12.5 23t-43.5 6v52h271v-52q-40 0 -74.5 -24.5t-69.5 -63.5l-132 -145l186 -295q30 -46 55.5 -63.5t58.5 -17.5h4
v-53h-54q-76 0 -117.5 10t-63.5 30.5t-41 51.5l-135 230l-44 -35v-169q0 -43 15 -54t37 -11h42v-53h-345zM311 -221v13q10 30 21.5 72t17.5 75h116v-10q-9 -21 -25 -48t-34.5 -53.5t-35.5 -48.5h-60z" />
    <glyph glyph-name="uni0137" unicode="&#x137;" horiz-adv-x="636" 
d="M17 0v53h12q15 0 31.5 4.5t28 18.5t11.5 42v528q0 27 -12 40t-28.5 17t-30.5 4h-12v53h235v-386q0 -18 -1 -42.5t-2.5 -43l-1.5 -18.5l126 141q17 19 22 30t5 18q0 27 -52 27v50h252v-50q-34 0 -68 -20.5t-73 -64.5l-63 -72l133 -198q26 -40 53 -59t51 -19divv-53h-14
q-55 0 -92.5 2.5t-63.5 11t-45.5 26.5t-39.5 49l-89 140l-40 -30v-81q0 -28 11.5 -42t28.5 -18.5t31 -4.5h12v-53h-318zM255 -221v13q10 30 21.5 72t17.5 75h116v-10q-9 -21 -25 -48t-34.5 -53.5t-35.5 -48.5h-60z" />
    <glyph glyph-name="kgreenlandic" unicode="&#x138;" horiz-adv-x="636" 
d="M17 0v53h12q15 0 31.5 4.5t28 18.5t11.5 42v304q0 27 -12 40t-28.5 17t-30.5 4h-12v53h235v-162q0 -18 -1 -42.5t-2.5 -43l-1.5 -18.5l126 141q17 19 22 30t5 18q0 27 -52 27v50h252v-50q-34 0 -68 -20.5t-73 -64.5l-63 -72l133 -198q26 -40 53 -59t51 -19divv-53h-14
q-55 0 -92.5 2.5t-63.5 11t-45.5 26.5t-39.5 49l-89 140l-40 -30v-81q0 -28 11.5 -42t28.5 -18.5t31 -4.5h12v-53h-318z" />
    <glyph glyph-name="Lacute" unicode="&#x139;" horiz-adv-x="654" 
d="M28 0v53h42q22 0 36.5 11t14.5 54v478q0 43 -14.5 54t-36.5 11h-42v53div45v-53h-42q-21 0 -36 -10.5t-15 -50.5v-539h186q35 0 54.5 22.5t28.5 64.5l16 75h56l-7 -223h-586zM168 771v13q15 19 33.5 45t36 53t27.5 49h157v-10q-9 -13 -30.5 -33t-48.5 -42t-55 -41.5
t-52 -33.5h-68z" />
    <glyph glyph-name="lacute" unicode="&#x13a;" horiz-adv-x="352" 
d="M17 0v53h12q15 0 31.5 4.5t28 18.5t11.5 42v528q0 27 -12 40t-28.5 17t-30.5 4h-12v53h235v-642q0 -28 11.5 -42t28.5 -18.5t31 -4.5h12v-53h-318zM110 799v13q15 19 33.5 45t36 53t27.5 49h157v-10q-9 -13 -30.5 -33t-48.5 -42t-55 -41.5t-52 -33.5h-68z" />
    <glyph glyph-name="uni013B" unicode="&#x13b;" horiz-adv-x="654" 
d="M28 0v53h42q22 0 36.5 11t14.5 54v478q0 43 -14.5 54t-36.5 11h-42v53div45v-53h-42q-21 0 -36 -10.5t-15 -50.5v-539h186q35 0 54.5 22.5t28.5 64.5l16 75h56l-7 -223h-586zM243 -221v13q10 30 21.5 72t17.5 75h116v-10q-9 -21 -25 -48t-34.5 -53.5t-35.5 -48.5h-60z" />
    <glyph glyph-name="uni013C" unicode="&#x13c;" horiz-adv-x="352" 
d="M17 0v53h12q15 0 31.5 4.5t28 18.5t11.5 42v528q0 27 -12 40t-28.5 17t-30.5 4h-12v53h235v-642q0 -28 11.5 -42t28.5 -18.5t31 -4.5h12v-53h-318zM81 -221v13q10 30 21.5 72t17.5 75h116v-10q-9 -21 -25 -48t-34.5 -53.5t-35.5 -48.5h-60z" />
    <glyph glyph-name="Lcaron" unicode="&#x13d;" horiz-adv-x="654" 
d="M28 0v53h42q22 0 36.5 11t14.5 54v478q0 43 -14.5 54t-36.5 11h-42v53div45v-53h-42q-21 0 -36 -10.5t-15 -50.5v-539h186q35 0 54.5 22.5t28.5 64.5l16 75h56l-7 -223h-586zM451 554v13q10 30 21.5 72t17.5 75h116v-10q-9 -21 -25 -48t-34.5 -53.5t-35.5 -48.5h-60z" />
    <glyph glyph-name="lcaron" unicode="&#x13e;" horiz-adv-x="352" 
d="M17 0v53h12q15 0 31.5 4.5t28 18.5t11.5 42v528q0 27 -12 40t-28.5 17t-30.5 4h-12v53h235v-642q0 -28 11.5 -42t28.5 -18.5t31 -4.5h12v-53h-318zM307 600v13q10 30 21.5 72t17.5 75h116v-10q-9 -21 -25 -48t-34.5 -53.5t-35.5 -48.5h-60z" />
    <glyph glyph-name="Ldot" unicode="&#x13f;" horiz-adv-x="654" 
d="M28 0v53h42q22 0 36.5 11t14.5 54v478q0 43 -14.5 54t-36.5 11h-42v53div45v-53h-42q-21 0 -36 -10.5t-15 -50.5v-539h186q35 0 54.5 22.5t28.5 64.5l16 75h56l-7 -223h-586zM519 299q-36 0 -60.5 17.5t-24.5 54.5q0 38 24.5 55t60.5 17q35 0 60.5 -17t25.5 -55
q0 -37 -25.5 -54.5t-60.5 -17.5z" />
    <glyph glyph-name="ldot" unicode="&#x140;" horiz-adv-x="468" 
d="M17 0v53h12q15 0 31.5 4.5t28 18.5t11.5 42v528q0 27 -12 40t-28.5 17t-30.5 4h-12v53h235v-642q0 -28 11.5 -42t28.5 -18.5t31 -4.5h12v-53h-318zM406 256q-36 0 -60.5 17.5t-24.5 54.5q0 38 24.5 55t60.5 17q35 0 60.5 -17t25.5 -55q0 -37 -25.5 -54.5t-60.5 -17.5z
" />
    <glyph glyph-name="Lslash" unicode="&#x141;" horiz-adv-x="654" 
d="M28 0v53h42q22 0 36.5 11t14.5 54v158l-83 -47v68l83 48v251q0 43 -14.5 54t-36.5 11h-42v53div45v-53h-42q-21 0 -35 -10.5t-16 -50.5v-163l144 84v-70l-144 -84v-306h186q35 0 54.5 22.5t28.5 64.5l16 75h56l-7 -223h-586z" />
    <glyph glyph-name="lslash" unicode="&#x142;" horiz-adv-x="352" 
d="M17 0v53h12q15 0 31.5 4.5t28 18.5t11.5 42v146l-73 -41v68l73 42v313q0 27 -12 40t-28.5 17t-30.5 4h-12v53h235v-340l80 45v-70l-80 -45v-232q0 -28 11.5 -42t28.5 -18.5t31 -4.5h12v-53h-318z" />
    <glyph glyph-name="Nacute" unicode="&#x143;" horiz-adv-x="788" 
d="M28 0v53h42q21 0 36 11t15 54v482q0 40 -15.5 50.5t-35.5 10.5h-42v53h222l353 -499v385q0 40 -15.5 50.5t-35.5 10.5h-42v53h261v-53h-42q-21 0 -36 -11t-15 -54v-596h-92l-390 551v-433q0 -43 15 -54t36 -11h42v-53h-261zM348 771v13q15 19 33.5 45t36 53t27.5 49h157
v-10q-9 -13 -30.5 -33t-48.5 -42t-55 -41.5t-52 -33.5h-68z" />
    <glyph glyph-name="nacute" unicode="&#x144;" horiz-adv-x="667" 
d="M20 0v53h2q34 0 56 12t22 57v296q0 42 -19.5 53.5t-52.5 11.5h-3v53h210l13 -71h5q20 38 43.5 55.5t51 23t58.5 5.5q77 0 121 -46t44 -147v-232q0 -46 16.5 -58.5t50.5 -12.5divv-53h-222v329q0 65 -18 100t-62 35q-33 0 -52 -21.5t-27 -57t-8 -76.5v-191
q0 -42 19.5 -53.5t52.5 -11.5divv-53h-307zM270 606v13q15 19 33.5 45t36 53t27.5 49h157v-10q-9 -13 -30.5 -33t-48.5 -42t-55 -41.5t-52 -33.5h-68z" />
    <glyph glyph-name="uni0145" unicode="&#x145;" horiz-adv-x="788" 
d="M28 0v53h42q21 0 36 11t15 54v482q0 40 -15.5 50.5t-35.5 10.5h-42v53h222l353 -499v385q0 40 -15.5 50.5t-35.5 10.5h-42v53h261v-53h-42q-21 0 -36 -11t-15 -54v-596h-92l-390 551v-433q0 -43 15 -54t36 -11h42v-53h-261zM316 -221v13q10 30 21.5 72t17.5 75h116v-10
q-9 -21 -25 -48t-34.5 -53.5t-35.5 -48.5h-60z" />
    <glyph glyph-name="uni0146" unicode="&#x146;" horiz-adv-x="667" 
d="M20 0v53h2q34 0 56 12t22 57v296q0 42 -19.5 53.5t-52.5 11.5h-3v53h210l13 -71h5q20 38 43.5 55.5t51 23t58.5 5.5q77 0 121 -46t44 -147v-232q0 -46 16.5 -58.5t50.5 -12.5divv-53h-222v329q0 65 -18 100t-62 35q-33 0 -52 -21.5t-27 -57t-8 -76.5v-191
q0 -42 19.5 -53.5t52.5 -11.5divv-53h-307zM248 -221v13q10 30 21.5 72t17.5 75h116v-10q-9 -21 -25 -48t-34.5 -53.5t-35.5 -48.5h-60z" />
    <glyph glyph-name="Ncaron" unicode="&#x147;" horiz-adv-x="788" 
d="M28 0v53h42q21 0 36 11t15 54v482q0 40 -15.5 50.5t-35.5 10.5h-42v53h222l353 -499v385q0 40 -15.5 50.5t-35.5 10.5h-42v53h261v-53h-42q-21 0 -36 -11t-15 -54v-596h-92l-390 551v-433q0 -43 15 -54t36 -11h42v-53h-261zM348 771q-10 23 -30.5 49.5t-42 52.5t-37.5 45
v13h69q21 -16 53.5 -43t54.5 -47q15 14 35 30.5t40 32.5t34 27h69v-13q-15 -19 -37 -45t-42 -52.5t-31 -49.5h-135z" />
    <glyph glyph-name="ncaron" unicode="&#x148;" horiz-adv-x="667" 
d="M20 0v53h2q34 0 56 12t22 57v296q0 42 -19.5 53.5t-52.5 11.5h-3v53h210l13 -71h5q20 38 43.5 55.5t51 23t58.5 5.5q77 0 121 -46t44 -147v-232q0 -46 16.5 -58.5t50.5 -12.5divv-53h-222v329q0 65 -18 100t-62 35q-33 0 -52 -21.5t-27 -57t-8 -76.5v-191
q0 -42 19.5 -53.5t52.5 -11.5divv-53h-307zM269 606q-10 23 -30.5 49.5t-42 52.5t-37.5 45v13h69q21 -16 53.5 -43t54.5 -47q15 14 35 30.5t40 32.5t34 27h69v-13q-15 -19 -37 -45t-42 -52.5t-31 -49.5h-135z" />
    <glyph glyph-name="napostrophe" unicode="&#x149;" horiz-adv-x="855" 
d="M208 0v53h2q34 0 56 12t22 57v296q0 42 -19.5 53.5t-52.5 11.5h-3v53h210l13 -71h5q20 38 43.5 55.5t51 23t58.5 5.5q77 0 121 -46t44 -147v-232q0 -46 16.5 -58.5t50.5 -12.5divv-53h-222v329q0 65 -18 100t-62 35q-33 0 -52 -21.5t-27 -57t-8 -76.5v-191
q0 -42 19.5 -53.5t52.5 -11.5divv-53h-307zM15 408v52q44 16 66 32.5t22 45.5q0 14 -11 21.5t-25.5 16t-25.5 24t-11 45.5q0 34 20.5 51.5t51.5 17.5q42 0 67 -29.5t25 -80.5q0 -64 -40.5 -117t-138.5 -79z" />
    <glyph glyph-name="Eng" unicode="&#x14a;" horiz-adv-x="788" 
d="M479 -240v58h24q39 0 69.5 40.5t30.5 132.5v9l-407 551v-433q0 -43 15 -54t36 -11h42v-53h-261v53h42q21 0 36 11t15 54v482q0 40 -15.5 50.5t-35.5 10.5h-42v53h222l353 -477v363q0 40 -15.5 50.5t-35.5 10.5h-42v53h261v-53h-42q-21 0 -36 -11t-15 -54v-604
q0 -89 -20.5 -140t-57.5 -71.5t-88 -20.5h-33z" />
    <glyph glyph-name="eng" unicode="&#x14b;" horiz-adv-x="667" 
d="M315 -240v62h6q47 0 72.5 38t25.5 140v329q0 65 -18 100t-62 35q-33 0 -52 -21.5t-27 -57t-8 -76.5v-191q0 -42 19.5 -53.5t52.5 -11.5divv-53h-307v53h2q34 0 56 12t22 57v296q0 42 -19.5 53.5t-52.5 11.5h-3v53h210l13 -71h5q20 38 43.5 55.5t51 23t58.5 5.5
q77 0 121 -46t44 -147v-364q0 -89 -30.5 -140t-84 -71.5t-122.5 -20.5h-19z" />
    <glyph glyph-name="Omacron" unicode="&#x14c;" horiz-adv-x="787" 
d="M394 -10q-114 0 -189 46t-112.5 129t-37.5 194t37.5 193t113 127.5t189.5 45.5q108 0 183.5 -45.5t114.5 -128t39 -193.5t-39.5 -193.5t-114.5 -128.5t-184 -46zM394 55q94 0 132 80t38 223t-38 222.5t-131 79.5q-94 0 -133 -79.5t-39 -222.5t39 -223t132 -80zM247 771
v79h290v-79h-290z" />
    <glyph glyph-name="omacron" unicode="&#x14d;" horiz-adv-x="613" 
d="M305 -10q-120 0 -189 69.5t-69 210.5t66 210t195 69q120 0 189 -69t69 -210t-66.5 -210.5t-194.5 -69.5zM307 53q58 0 81 55.5t23 161.5q0 107 -23.5 161t-81.5 54t-81 -54t-23 -161q0 -106 23.5 -161.5t81.5 -55.5zM158 606v79h290v-79h-290z" />
    <glyph glyph-name="Obreve" unicode="&#x14e;" horiz-adv-x="787" 
d="M394 -10q-114 0 -189 46t-112.5 129t-37.5 194t37.5 193t113 127.5t189.5 45.5q108 0 183.5 -45.5t114.5 -128t39 -193.5t-39.5 -193.5t-114.5 -128.5t-184 -46zM394 55q94 0 132 80t38 223t-38 222.5t-131 79.5q-94 0 -133 -79.5t-39 -222.5t39 -223t132 -80zM390 771
q-52 0 -87.5 23.5t-53.5 60t-19 73.5h66q8 -36 32.5 -52t61.5 -16t61.5 16t32.5 52h66q-1 -37 -19 -73.5t-53 -60t-88 -23.5z" />
    <glyph glyph-name="obreve" unicode="&#x14f;" horiz-adv-x="613" 
d="M305 -10q-120 0 -189 69.5t-69 210.5t66 210t195 69q120 0 189 -69t69 -210t-66.5 -210.5t-194.5 -69.5zM307 53q58 0 81 55.5t23 161.5q0 107 -23.5 161t-81.5 54t-81 -54t-23 -161q0 -106 23.5 -161.5t81.5 -55.5zM304 606q-52 0 -87.5 23.5t-53.5 60t-19 73.5h66
q8 -36 32.5 -52t61.5 -16t61.5 16t32.5 52h66q-1 -37 -19 -73.5t-53 -60t-88 -23.5z" />
    <glyph glyph-name="Ohungarumlaut" unicode="&#x150;" horiz-adv-x="787" 
d="M394 -10q-114 0 -189 46t-112.5 129t-37.5 194t37.5 193t113 127.5t189.5 45.5q108 0 183.5 -45.5t114.5 -128t39 -193.5t-39.5 -193.5t-114.5 -128.5t-184 -46zM394 55q94 0 132 80t38 223t-38 222.5t-131 79.5q-94 0 -133 -79.5t-39 -222.5t39 -223t132 -80zM421 771
v13q21 32 45 72.5t40 74.5h127v-10q-10 -17 -35.5 -46t-55 -57.5t-52.5 -46.5h-69zM231 771v13q21 32 45 72.5t40 74.5h127v-10q-10 -17 -36 -46t-55 -57.5t-52 -46.5h-69z" />
    <glyph glyph-name="ohungarumlaut" unicode="&#x151;" horiz-adv-x="613" 
d="M305 -10q-120 0 -189 69.5t-69 210.5t66 210t195 69q120 0 189 -69t69 -210t-66.5 -210.5t-194.5 -69.5zM307 53q58 0 81 55.5t23 161.5q0 107 -23.5 161t-81.5 54t-81 -54t-23 -161q0 -106 23.5 -161.5t81.5 -55.5zM334 606v13q21 32 45 72.5t40 74.5h127v-10
q-10 -17 -35.5 -46t-55 -57.5t-52.5 -46.5h-69zM144 606v13q21 32 45 72.5t40 74.5h127v-10q-10 -17 -36 -46t-55 -57.5t-52 -46.5h-69z" />
    <glyph glyph-name="OE" unicode="&#x152;" horiz-adv-x="1019" 
d="M394 -10q-114 0 -189 46t-112.5 129t-37.5 194t37.5 193t113 127.5t189.5 45.5q26 0 55 -3t51 -8h448l4 -184h-70l-5 47q-4 37 -18.5 56.5t-45.5 19.5h-168v-250h237v-60h-237v-282h200q30 0 44.5 21.5t19.5 54.5l8 47h69l-7 -184h-482q-22 -4 -50.5 -7t-53.5 -3zM394 55
q55 0 93 29v546q-16 13 -40 21.5t-52 8.5q-94 0 -133 -79.5t-39 -222.5t39 -223t132 -80z" />
    <glyph glyph-name="oe" unicode="&#x153;" horiz-adv-x="935" 
d="M305 -10q-120 0 -189 69.5t-69 210.5t66 210t195 69q113 0 179 -77q62 77 172 77q109 0 171.5 -61t62.5 -180v-51h-327q0 -23 4 -55.5t16.5 -63.5t39.5 -52t73 -21q52 0 88 23.5t53 57.5q27 -15 27 -49q0 -43 -47 -75t-148 -32q-114 0 -182 77q-32 -40 -79 -58.5
t-106 -18.5zM307 53q57 0 80.5 52t23.5 167q0 108 -24.5 160.5t-80.5 52.5q-58 0 -81 -54t-23 -161q0 -106 23.5 -161.5t81.5 -55.5zM567 321h173q0 78 -19 120.5t-60 42.5t-66.5 -41.5t-27.5 -121.5z" />
    <glyph glyph-name="Racute" unicode="&#x154;" horiz-adv-x="707" 
d="M28 0v53h42q20 0 35.5 10t15.5 50v487q0 40 -15.5 50.5t-35.5 10.5h-42v53div22q142 0 208 -47.5t66 -137.5q0 -53 -20 -90t-51 -61t-65 -38l119 -205q26 -43 49 -62.5t51 -19.5h4v-53h-33q-60 0 -100 7t-66.5 26.5t-47.5 56.5l-119 220h-66v-197q0 -40 15.5 -50t35.5 -10
h43v-53h-345zM279 368h56q69 0 95 37t26 110q0 76 -28 108t-95 32h-54v-287zM268 771v13q15 19 33.5 45t36 53t27.5 49h157v-10q-9 -13 -30.5 -33t-48.5 -42t-55 -41.5t-52 -33.5h-68z" />
    <glyph glyph-name="racute" unicode="&#x155;" horiz-adv-x="523" 
d="M20 0v53divq34 0 55.5 12.5t21.5 59.5v290q0 44 -19.5 56t-52.5 12h-3v53h202l20 -78h5q20 45 50 67.5t91 22.5q115 0 115 -81q0 -46 -33.5 -71.5t-93.5 -25.5q0 41 -10 62t-39 21q-26 0 -42 -18t-24 -44.5t-11 -53.5t-3 -44v-173q0 -44 20 -55.5t50 -11.5div2v-53h-334z
M180 606v13q15 19 33.5 45t36 53t27.5 49h157v-10q-9 -13 -30.5 -33t-48.5 -42t-55 -41.5t-52 -33.5h-68z" />
    <glyph glyph-name="uni0156" unicode="&#x156;" horiz-adv-x="707" 
d="M28 0v53h42q20 0 35.5 10t15.5 50v487q0 40 -15.5 50.5t-35.5 10.5h-42v53div22q142 0 208 -47.5t66 -137.5q0 -53 -20 -90t-51 -61t-65 -38l119 -205q26 -43 49 -62.5t51 -19.5h4v-53h-33q-60 0 -100 7t-66.5 26.5t-47.5 56.5l-119 220h-66v-197q0 -40 15.5 -50t35.5 -10
h43v-53h-345zM279 368h56q69 0 95 37t26 110q0 76 -28 108t-95 32h-54v-287zM268 -221v13q10 30 21.5 72t17.5 75h116v-10q-9 -21 -25 -48t-34.5 -53.5t-35.5 -48.5h-60z" />
    <glyph glyph-name="uni0157" unicode="&#x157;" horiz-adv-x="523" 
d="M20 0v53divq34 0 55.5 12.5t21.5 59.5v290q0 44 -19.5 56t-52.5 12h-3v53h202l20 -78h5q20 45 50 67.5t91 22.5q115 0 115 -81q0 -46 -33.5 -71.5t-93.5 -25.5q0 41 -10 62t-39 21q-26 0 -42 -18t-24 -44.5t-11 -53.5t-3 -44v-173q0 -44 20 -55.5t50 -11.5div2v-53h-334z
M91 -221v13q10 30 21.5 72t17.5 75h116v-10q-9 -21 -25 -48t-34.5 -53.5t-35.5 -48.5h-60z" />
    <glyph glyph-name="Rcaron" unicode="&#x158;" horiz-adv-x="707" 
d="M28 0v53h42q20 0 35.5 10t15.5 50v487q0 40 -15.5 50.5t-35.5 10.5h-42v53div22q142 0 208 -47.5t66 -137.5q0 -53 -20 -90t-51 -61t-65 -38l119 -205q26 -43 49 -62.5t51 -19.5h4v-53h-33q-60 0 -100 7t-66.5 26.5t-47.5 56.5l-119 220h-66v-197q0 -40 15.5 -50t35.5 -10
h43v-53h-345zM279 368h56q69 0 95 37t26 110q0 76 -28 108t-95 32h-54v-287zM260 771q-10 23 -30.5 49.5t-42 52.5t-37.5 45v13h69q21 -16 53.5 -43t54.5 -47q15 14 35 30.5t40 32.5t34 27h69v-13q-15 -19 -37 -45t-42 -52.5t-31 -49.5h-135z" />
    <glyph glyph-name="rcaron" unicode="&#x159;" horiz-adv-x="523" 
d="M20 0v53divq34 0 55.5 12.5t21.5 59.5v290q0 44 -19.5 56t-52.5 12h-3v53h202l20 -78h5q20 45 50 67.5t91 22.5q115 0 115 -81q0 -46 -33.5 -71.5t-93.5 -25.5q0 41 -10 62t-39 21q-26 0 -42 -18t-24 -44.5t-11 -53.5t-3 -44v-173q0 -44 20 -55.5t50 -11.5div2v-53h-334z
M199 606q-10 23 -30.5 49.5t-42 52.5t-37.5 45v13h69q21 -16 53.5 -43t54.5 -47q15 14 35 30.5t40 32.5t34 27h69v-13q-15 -19 -37 -45t-42 -52.5t-31 -49.5h-135z" />
    <glyph glyph-name="Sacute" unicode="&#x15a;" horiz-adv-x="586" 
d="M264 -10q-89 0 -140.5 21.5t-72.5 54t-21 64.5q0 34 16 54.5t42 29.5t55 9q0 -85 38.5 -129t98.5 -44q59 0 91.5 31t32.5 77q0 51 -41.5 82t-125.5 65q-70 29 -111 60.5t-58.5 70t-17.5 87.5q0 61 32 106t87.5 70t125.5 25q110 0 161.5 -33.5t51.5 -82.5q0 -35 -30.5 -59
t-92.5 -24q0 28 -10.5 60t-33.5 55t-62 23q-40 0 -69.5 -23.5t-29.5 -68.5q0 -28 13 -52t49 -47.5t103 -50.5q103 -42 147 -90t44 -122q0 -64 -33.5 -113.5t-94.5 -77.5t-144 -28zM245 771v13q15 19 33.5 45t36 53t27.5 49h157v-10q-9 -13 -30.5 -33t-48.5 -42t-55 -41.5
t-52 -33.5h-68z" />
    <glyph glyph-name="sacute" unicode="&#x15b;" horiz-adv-x="488" 
d="M231 -10q-109 0 -155 33.5t-46 83.5q0 33 16 49t38 21.5t39 5.5q0 -62 29.5 -98t78.5 -36q52 0 75.5 20t23.5 48q0 33 -26 54t-97 46q-81 28 -124 66.5t-43 105.5q0 80 59 119.5t156 39.5q63 0 101.5 -13.5t56 -35t17.5 -44.5q0 -34 -23.5 -51.5t-78.5 -17.5
q0 50 -22 77.5t-66 27.5q-32 0 -56.5 -15.5t-24.5 -46.5q0 -21 11.5 -37t41.5 -31t84 -34q67 -23 109.5 -60.5t42.5 -100.5q0 -83 -56.5 -129.5t-160.5 -46.5zM188 606v13q15 19 33.5 45t36 53t27.5 49h157v-10q-9 -13 -30.5 -33t-48.5 -42t-55 -41.5t-52 -33.5h-68z" />
    <glyph glyph-name="Scircumflex" unicode="&#x15c;" horiz-adv-x="586" 
d="M264 -10q-89 0 -140.5 21.5t-72.5 54t-21 64.5q0 34 16 54.5t42 29.5t55 9q0 -85 38.5 -129t98.5 -44q59 0 91.5 31t32.5 77q0 51 -41.5 82t-125.5 65q-70 29 -111 60.5t-58.5 70t-17.5 87.5q0 61 32 106t87.5 70t125.5 25q110 0 161.5 -33.5t51.5 -82.5q0 -35 -30.5 -59
t-92.5 -24q0 28 -10.5 60t-33.5 55t-62 23q-40 0 -69.5 -23.5t-29.5 -68.5q0 -28 13 -52t49 -47.5t103 -50.5q103 -42 147 -90t44 -122q0 -64 -33.5 -113.5t-94.5 -77.5t-144 -28zM120 771v13q16 19 37.5 45t42 53t30.5 49h135q11 -22 31 -49t42 -53t37 -45v-13h-69
q-14 11 -34 27t-40 33t-35 30q-22 -20 -54.5 -46.5t-53.5 -43.5h-69z" />
    <glyph glyph-name="scircumflex" unicode="&#x15d;" horiz-adv-x="488" 
d="M231 -10q-109 0 -155 33.5t-46 83.5q0 33 16 49t38 21.5t39 5.5q0 -62 29.5 -98t78.5 -36q52 0 75.5 20t23.5 48q0 33 -26 54t-97 46q-81 28 -124 66.5t-43 105.5q0 80 59 119.5t156 39.5q63 0 101.5 -13.5t56 -35t17.5 -44.5q0 -34 -23.5 -51.5t-78.5 -17.5
q0 50 -22 77.5t-66 27.5q-32 0 -56.5 -15.5t-24.5 -46.5q0 -21 11.5 -37t41.5 -31t84 -34q67 -23 109.5 -60.5t42.5 -100.5q0 -83 -56.5 -129.5t-160.5 -46.5zM67 606v13q16 19 37.5 45t42 53t30.5 49h135q11 -22 31 -49t42 -53t37 -45v-13h-69q-14 11 -34 27t-40 33t-35 30
q-22 -20 -54.5 -46.5t-53.5 -43.5h-69z" />
    <glyph glyph-name="Scedilla" unicode="&#x15e;" horiz-adv-x="586" 
d="M264 -10q-89 0 -140.5 21.5t-72.5 54t-21 64.5q0 34 16 54.5t42 29.5t55 9q0 -85 38.5 -129t98.5 -44q59 0 91.5 31t32.5 77q0 51 -41.5 82t-125.5 65q-70 29 -111 60.5t-58.5 70t-17.5 87.5q0 61 32 106t87.5 70t125.5 25q110 0 161.5 -33.5t51.5 -82.5q0 -35 -30.5 -59
t-92.5 -24q0 28 -10.5 60t-33.5 55t-62 23q-40 0 -69.5 -23.5t-29.5 -68.5q0 -28 13 -52t49 -47.5t103 -50.5q103 -42 147 -90t44 -122q0 -64 -33.5 -113.5t-94.5 -77.5t-144 -28zM247 -240q-16 0 -42.5 3t-44.5 8v61q38 -8 68 -8q29 0 45 10.5t16 35.5q0 29 -21.5 39
t-53.5 12l21 88h57l-10 -43q49 -4 78 -28t29 -64q0 -53 -39 -83.5t-103 -30.5z" />
    <glyph glyph-name="scedilla" unicode="&#x15f;" horiz-adv-x="488" 
d="M231 -10q-109 0 -155 33.5t-46 83.5q0 33 16 49t38 21.5t39 5.5q0 -62 29.5 -98t78.5 -36q52 0 75.5 20t23.5 48q0 33 -26 54t-97 46q-81 28 -124 66.5t-43 105.5q0 80 59 119.5t156 39.5q63 0 101.5 -13.5t56 -35t17.5 -44.5q0 -34 -23.5 -51.5t-78.5 -17.5
q0 50 -22 77.5t-66 27.5q-32 0 -56.5 -15.5t-24.5 -46.5q0 -21 11.5 -37t41.5 -31t84 -34q67 -23 109.5 -60.5t42.5 -100.5q0 -83 -56.5 -129.5t-160.5 -46.5zM202 -240q-16 0 -42.5 3t-44.5 8v61q38 -8 68 -8q29 0 45 10.5t16 35.5q0 29 -21.5 39t-53.5 12l21 88h57
l-10 -43q49 -4 78 -28t29 -64q0 -53 -39 -83.5t-103 -30.5z" />
    <glyph glyph-name="Scaron" unicode="&#x160;" horiz-adv-x="586" 
d="M264 -10q-89 0 -140.5 21.5t-72.5 54t-21 64.5q0 34 16 54.5t42 29.5t55 9q0 -85 38.5 -129t98.5 -44q59 0 91.5 31t32.5 77q0 51 -41.5 82t-125.5 65q-70 29 -111 60.5t-58.5 70t-17.5 87.5q0 61 32 106t87.5 70t125.5 25q110 0 161.5 -33.5t51.5 -82.5q0 -35 -30.5 -59
t-92.5 -24q0 28 -10.5 60t-33.5 55t-62 23q-40 0 -69.5 -23.5t-29.5 -68.5q0 -28 13 -52t49 -47.5t103 -50.5q103 -42 147 -90t44 -122q0 -64 -33.5 -113.5t-94.5 -77.5t-144 -28zM230 771q-10 23 -30.5 49.5t-42 52.5t-37.5 45v13h69q21 -16 53.5 -43t54.5 -47
q15 14 35 30.5t40 32.5t34 27h69v-13q-15 -19 -37 -45t-42 -52.5t-31 -49.5h-135z" />
    <glyph glyph-name="scaron" unicode="&#x161;" horiz-adv-x="488" 
d="M231 -10q-109 0 -155 33.5t-46 83.5q0 33 16 49t38 21.5t39 5.5q0 -62 29.5 -98t78.5 -36q52 0 75.5 20t23.5 48q0 33 -26 54t-97 46q-81 28 -124 66.5t-43 105.5q0 80 59 119.5t156 39.5q63 0 101.5 -13.5t56 -35t17.5 -44.5q0 -34 -23.5 -51.5t-78.5 -17.5
q0 50 -22 77.5t-66 27.5q-32 0 -56.5 -15.5t-24.5 -46.5q0 -21 11.5 -37t41.5 -31t84 -34q67 -23 109.5 -60.5t42.5 -100.5q0 -83 -56.5 -129.5t-160.5 -46.5zM176 606q-10 23 -30.5 49.5t-42 52.5t-37.5 45v13h69q21 -16 53.5 -43t54.5 -47q15 14 35 30.5t40 32.5t34 27h69
v-13q-15 -19 -37 -45t-42 -52.5t-31 -49.5h-135z" />
    <glyph glyph-name="uni021A" unicode="&#x21a;" horiz-adv-x="653" 
d="M154 0v53h42q22 0 36.5 11t14.5 54v535h-80q-45 0 -62 -19t-21 -52l-7 -62h-67l5 194h623l5 -194h-67l-7 62q-4 33 -21 52t-62 19h-80v-535q0 -43 14.5 -54t36.5 -11h42v-53h-345zM236 -221v13q10 30 21.5 72t17.5 75h116v-10q-9 -21 -25 -48t-34.5 -53.5t-35.5 -48.5
h-60z" />
    <glyph glyph-name="uni021B" unicode="&#x21b;" horiz-adv-x="405" 
d="M243 -10q-67 0 -107 35t-40 123v320h-75v51q32 0 57.5 13t40.5 29q31 33 46 99h83v-124h128v-68h-128v-310q0 -45 15.5 -66t50.5 -21q20 0 37.5 2.5t33.5 6.5v-65q-16 -7 -52.5 -16t-89.5 -9zM129 -221v13q10 30 21.5 72t17.5 75h116v-10q-9 -21 -25 -48t-34.5 -53.5
t-35.5 -48.5h-60z" />
    <glyph glyph-name="Tcaron" unicode="&#x164;" horiz-adv-x="653" 
d="M154 0v53h42q22 0 36.5 11t14.5 54v535h-80q-45 0 -62 -19t-21 -52l-7 -62h-67l5 194h623l5 -194h-67l-7 62q-4 33 -21 52t-62 19h-80v-535q0 -43 14.5 -54t36.5 -11h42v-53h-345zM259 771q-10 23 -30.5 49.5t-42 52.5t-37.5 45v13h69q21 -16 53.5 -43t54.5 -47
q15 14 35 30.5t40 32.5t34 27h69v-13q-15 -19 -37 -45t-42 -52.5t-31 -49.5h-135z" />
    <glyph glyph-name="tcaron" unicode="&#x165;" horiz-adv-x="405" 
d="M243 -10q-67 0 -107 35t-40 123v320h-75v51q32 0 57.5 13t40.5 29q31 33 46 99h83v-124h128v-68h-128v-310q0 -45 15.5 -66t50.5 -21q20 0 37.5 2.5t33.5 6.5v-65q-16 -7 -52.5 -16t-89.5 -9zM307 600v13q10 30 21.5 72t17.5 75h116v-10q-9 -21 -25 -48t-34.5 -53.5
t-35.5 -48.5h-60z" />
    <glyph glyph-name="Tbar" unicode="&#x166;" horiz-adv-x="653" 
d="M154 0v53h42q22 0 36.5 11t14.5 54v211h-144v53h144v271h-80q-45 0 -62 -19t-21 -52l-7 -62h-67l5 194h623l5 -194h-67l-7 62q-4 33 -21 52t-62 19h-80v-271h144v-53h-144v-211q0 -43 14.5 -54t36.5 -11h42v-53h-345z" />
    <glyph glyph-name="tbar" unicode="&#x167;" horiz-adv-x="405" 
d="M243 -10q-67 0 -107 35t-40 123v133h-69v53h69v134h-75v51q32 0 57.5 13t40.5 29q31 33 46 99h83v-124h128v-68h-128v-134h112v-53h-112v-123q0 -45 15.5 -66t50.5 -21q20 0 37.5 2.5t33.5 6.5v-65q-16 -7 -52.5 -16t-89.5 -9z" />
    <glyph glyph-name="Utilde" unicode="&#x168;" horiz-adv-x="747" 
d="M387 -10q-130 0 -203.5 52.5t-73.5 175.5v382q0 40 -15.5 50.5t-35.5 10.5h-43v53div45v-53h-42q-21 0 -36 -11t-15 -54v-386q0 -84 40.5 -116.5t108.5 -32.5q67 0 106 35.5t39 111.5v392q0 40 -15 50.5t-36 10.5h-42v53h262v-53h-43q-21 0 -36 -11t-15 -54v-390
q0 -100 -59.5 -158t-190.5 -58zM473 771q-27 0 -49 9.5t-40.5 22t-35 22t-32.5 9.5q-22 0 -34 -16.5t-15 -36.5h-65q2 41 18.5 74.5t44 53.5t63.5 20q27 0 48.5 -9.5t40 -22t35 -22t32.5 -9.5q22 0 34 16.5t15 36.5h65q-2 -40 -18.5 -74t-43.5 -54t-63 -20z" />
    <glyph glyph-name="utilde" unicode="&#x169;" horiz-adv-x="667" 
d="M258 -10q-78 0 -120 48.5t-42 149.5v224q0 44 -16 57.5t-52 13.5h-2v53h222v-320q0 -64 16 -102.5t60 -38.5q48 0 69.5 41t21.5 111v192q0 44 -21.5 54t-50.5 10h-3v53h227v-420q0 -43 19 -53t48 -10h8v-53h-199l-22 71h-5q-30 -52 -70.5 -66.5t-87.5 -14.5zM402 606
q-27 0 -49 9.5t-40.5 22t-35 22t-32.5 9.5q-22 0 -34 -16.5t-15 -36.5h-65q2 41 18.5 74.5t44 53.5t63.5 20q27 0 48.5 -9.5t40 -22t35 -22t32.5 -9.5q22 0 34 16.5t15 36.5h65q-2 -40 -18.5 -74t-43.5 -54t-63 -20z" />
    <glyph glyph-name="Umacron" unicode="&#x16a;" horiz-adv-x="747" 
d="M387 -10q-130 0 -203.5 52.5t-73.5 175.5v382q0 40 -15.5 50.5t-35.5 10.5h-43v53div45v-53h-42q-21 0 -36 -11t-15 -54v-386q0 -84 40.5 -116.5t108.5 -32.5q67 0 106 35.5t39 111.5v392q0 40 -15 50.5t-36 10.5h-42v53h262v-53h-43q-21 0 -36 -11t-15 -54v-390
q0 -100 -59.5 -158t-190.5 -58zM257 771v79h290v-79h-290z" />
    <glyph glyph-name="umacron" unicode="&#x16b;" horiz-adv-x="667" 
d="M258 -10q-78 0 -120 48.5t-42 149.5v224q0 44 -16 57.5t-52 13.5h-2v53h222v-320q0 -64 16 -102.5t60 -38.5q48 0 69.5 41t21.5 111v192q0 44 -21.5 54t-50.5 10h-3v53h227v-420q0 -43 19 -53t48 -10h8v-53h-199l-22 71h-5q-30 -52 -70.5 -66.5t-87.5 -14.5zM176 606v79
h290v-79h-290z" />
    <glyph glyph-name="Ubreve" unicode="&#x16c;" horiz-adv-x="747" 
d="M387 -10q-130 0 -203.5 52.5t-73.5 175.5v382q0 40 -15.5 50.5t-35.5 10.5h-43v53div45v-53h-42q-21 0 -36 -11t-15 -54v-386q0 -84 40.5 -116.5t108.5 -32.5q67 0 106 35.5t39 111.5v392q0 40 -15 50.5t-36 10.5h-42v53h262v-53h-43q-21 0 -36 -11t-15 -54v-390
q0 -100 -59.5 -158t-190.5 -58zM394 771q-52 0 -87.5 23.5t-53.5 60t-19 73.5h66q8 -36 32.5 -52t61.5 -16t61.5 16t32.5 52h66q-1 -37 -19 -73.5t-53 -60t-88 -23.5z" />
    <glyph glyph-name="ubreve" unicode="&#x16d;" horiz-adv-x="667" 
d="M258 -10q-78 0 -120 48.5t-42 149.5v224q0 44 -16 57.5t-52 13.5h-2v53h222v-320q0 -64 16 -102.5t60 -38.5q48 0 69.5 41t21.5 111v192q0 44 -21.5 54t-50.5 10h-3v53h227v-420q0 -43 19 -53t48 -10h8v-53h-199l-22 71h-5q-30 -52 -70.5 -66.5t-87.5 -14.5zM327 606
q-52 0 -87.5 23.5t-53.5 60t-19 73.5h66q8 -36 32.5 -52t61.5 -16t61.5 16t32.5 52h66q-1 -37 -19 -73.5t-53 -60t-88 -23.5z" />
    <glyph glyph-name="Uring" unicode="&#x16e;" horiz-adv-x="747" 
d="M387 -10q-130 0 -203.5 52.5t-73.5 175.5v382q0 40 -15.5 50.5t-35.5 10.5h-43v53div45v-53h-42q-21 0 -36 -11t-15 -54v-386q0 -84 40.5 -116.5t108.5 -32.5q67 0 106 35.5t39 111.5v392q0 40 -15 50.5t-36 10.5h-42v53h262v-53h-43q-21 0 -36 -11t-15 -54v-390
q0 -100 -59.5 -158t-190.5 -58zM381 761q-50 0 -85 28t-35 81t35 81t85 28t85 -28t35 -81t-35 -81t-85 -28zM381 816q24 0 41.5 12.5t17.5 41.5t-17.5 41.5t-41.5 12.5t-41.5 -12.5t-17.5 -41.5t17.5 -41.5t41.5 -12.5z" />
    <glyph glyph-name="uring" unicode="&#x16f;" horiz-adv-x="667" 
d="M258 -10q-78 0 -120 48.5t-42 149.5v224q0 44 -16 57.5t-52 13.5h-2v53h222v-320q0 -64 16 -102.5t60 -38.5q48 0 69.5 41t21.5 111v192q0 44 -21.5 54t-50.5 10h-3v53h227v-420q0 -43 19 -53t48 -10h8v-53h-199l-22 71h-5q-30 -52 -70.5 -66.5t-87.5 -14.5zM319 596
q-50 0 -85 28t-35 81t35 81t85 28t85 -28t35 -81t-35 -81t-85 -28zM319 651q24 0 41.5 12.5t17.5 41.5t-17.5 41.5t-41.5 12.5t-41.5 -12.5t-17.5 -41.5t17.5 -41.5t41.5 -12.5z" />
    <glyph glyph-name="Uhungarumlaut" unicode="&#x170;" horiz-adv-x="747" 
d="M387 -10q-130 0 -203.5 52.5t-73.5 175.5v382q0 40 -15.5 50.5t-35.5 10.5h-43v53div45v-53h-42q-21 0 -36 -11t-15 -54v-386q0 -84 40.5 -116.5t108.5 -32.5q67 0 106 35.5t39 111.5v392q0 40 -15 50.5t-36 10.5h-42v53h262v-53h-43q-21 0 -36 -11t-15 -54v-390
q0 -100 -59.5 -158t-190.5 -58zM433 771v13q21 32 45 72.5t40 74.5h127v-10q-10 -17 -35.5 -46t-55 -57.5t-52.5 -46.5h-69zM243 771v13q21 32 45 72.5t40 74.5h127v-10q-10 -17 -36 -46t-55 -57.5t-52 -46.5h-69z" />
    <glyph glyph-name="uhungarumlaut" unicode="&#x171;" horiz-adv-x="667" 
d="M258 -10q-78 0 -120 48.5t-42 149.5v224q0 44 -16 57.5t-52 13.5h-2v53h222v-320q0 -64 16 -102.5t60 -38.5q48 0 69.5 41t21.5 111v192q0 44 -21.5 54t-50.5 10h-3v53h227v-420q0 -43 19 -53t48 -10h8v-53h-199l-22 71h-5q-30 -52 -70.5 -66.5t-87.5 -14.5zM357 606v13
q21 32 45 72.5t40 74.5h127v-10q-10 -17 -35.5 -46t-55 -57.5t-52.5 -46.5h-69zM167 606v13q21 32 45 72.5t40 74.5h127v-10q-10 -17 -36 -46t-55 -57.5t-52 -46.5h-69z" />
    <glyph glyph-name="Uogonek" unicode="&#x172;" horiz-adv-x="757" 
d="M397 -10q-130 0 -203.5 52.5t-73.5 175.5v382q0 40 -15.5 50.5t-35.5 10.5h-43v53div45v-53h-42q-21 0 -36 -11t-15 -54v-386q0 -84 40.5 -116.5t108.5 -32.5q67 0 106 35.5t39 111.5v392q0 40 -15 50.5t-36 10.5h-42v53h262v-53h-43q-21 0 -36 -11t-15 -54v-390
q0 -100 -59.5 -158t-190.5 -58zM433 -240q-73 0 -111 26.5t-38 83.5q0 31 17 58t44 46t57 26h77q-21 -6 -42.5 -21.5t-36 -38.5t-14.5 -55q0 -28 19.5 -40.5t49.5 -12.5q14 0 29.5 2t33.5 6v-64q-16 -7 -42.5 -11.5t-42.5 -4.5z" />
    <glyph glyph-name="uogonek" unicode="&#x173;" horiz-adv-x="667" 
d="M258 -10q-78 0 -120 48.5t-42 149.5v224q0 44 -16 57.5t-52 13.5h-2v53h222v-320q0 -64 16 -102.5t60 -38.5q48 0 69.5 41t21.5 111v192q0 44 -21.5 54t-50.5 10h-3v53h227v-420q0 -43 19 -53t48 -10h8v-53h-199l-22 71h-5q-30 -52 -70.5 -66.5t-87.5 -14.5zM474 -240
q-73 0 -111 26.5t-38 83.5q0 31 17 58t44 46t57 26h77q-21 -6 -42.5 -21.5t-36 -38.5t-14.5 -55q0 -28 19.5 -40.5t49.5 -12.5q14 0 29.5 2t33.5 6v-64q-16 -7 -42.5 -11.5t-42.5 -4.5z" />
    <glyph glyph-name="Wcircumflex" unicode="&#x174;" horiz-adv-x="1067" 
d="M267 0l-183 608q-9 32 -25.5 42.5t-45.5 10.5h-13v53div34v-53h-23q-60 0 -60 -48q0 -8 3 -24t7 -30l67 -231q8 -25 16 -55.5t14.5 -60t8.5 -51.5q7 32 15 60.5t17 57.5l132 428h73l138 -382q17 -47 30.5 -93.5t18.5 -72.5q8 36 18 86.5t22 98.5l53 216q3 12 6 29t3 25
q0 26 -15.5 36.5t-48.5 10.5h-23v53h261v-53h-19q-29 0 -45.5 -14t-30.5 -64l-155 -583h-114l-168 469l-144 -469h-124zM387 771v13q16 19 37.5 45t42 53t30.5 49h135q11 -22 31 -49t42 -53t37 -45v-13h-69q-14 11 -34 27t-40 33t-35 30q-22 -20 -54.5 -46.5t-53.5 -43.5
h-69z" />
    <glyph glyph-name="wcircumflex" unicode="&#x175;" horiz-adv-x="856" 
d="M199 0l-128 430q-11 32 -26.5 42.5t-44.5 10.5h-3v53h293v-53h-13q-30 0 -45 -8.5t-15 -33.5q0 -8 2.5 -20t5.5 -23l37 -130q10 -36 18 -74t12 -63divq5 25 12 51.5t20 63.5l102 285h65l98 -295q12 -36 17.5 -61t8.5 -44divq5 25 10.5 47.5t16.5 59.5l44 146q4 13 6.5 27.5
t2.5 22.5q0 49 -66 49h-7v53h229v-53h-13q-29 0 -44 -14.5t-31 -63.5l-129 -405h-108l-109 332l-115 -332h-109zM281 606v13q16 19 37.5 45t42 53t30.5 49h135q11 -22 31 -49t42 -53t37 -45v-13h-69q-14 11 -34 27t-40 33t-35 30q-22 -20 -54.5 -46.5t-53.5 -43.5h-69z" />
    <glyph glyph-name="Ycircumflex" unicode="&#x176;" horiz-adv-x="693" 
d="M164 0v53h47q24 0 41 9t17 52v139l-185 355q-15 29 -28.5 41t-42.5 12h-13v53div35v-53h-17q-30 0 -45 -12.5t-15 -32.5q0 -13 4.5 -27.5t10.5 -27.5l74 -147q16 -31 26 -56t18 -48q11 26 24.5 57t29.5 65l58 120q11 22 14 37t3 23q0 49 -66 49h-23v53h262v-53h-19
q-25 0 -39 -15.5t-37 -62.5l-170 -331v-137q0 -43 16.5 -52.5t39.5 -9.5h49v-53h-369zM174 771v13q16 19 37.5 45t42 53t30.5 49h135q11 -22 31 -49t42 -53t37 -45v-13h-69q-14 11 -34 27t-40 33t-35 30q-22 -20 -54.5 -46.5t-53.5 -43.5h-69z" />
    <glyph glyph-name="ycircumflex" unicode="&#x177;" horiz-adv-x="579" 
d="M27 -240v58q70 0 112.5 22t67.5 62t41 93l-180 440q-11 26 -27 33.5t-37 8.5h-4v59h285v-53h-3q-28 0 -44 -8t-16 -29q0 -8 3.5 -19.5t6.5 -19.5l69 -183q14 -38 20 -62t8 -44q2 21 10.5 47t11.5 33l66 196q4 10 7 25t3 24q0 22 -18 30.5t-51 9.5h-4v53h225v-53h-4
q-28 -1 -44.5 -16.5t-31.5 -56.5l-151 -410q-26 -73 -49.5 -119.5t-54.5 -73t-78.5 -37t-121.5 -10.5h-17zM118 606v13q16 19 37.5 45t42 53t30.5 49h135q11 -22 31 -49t42 -53t37 -45v-13h-69q-14 11 -34 27t-40 33t-35 30q-22 -20 -54.5 -46.5t-53.5 -43.5h-69z" />
    <glyph glyph-name="Ydieresis" unicode="&#x178;" horiz-adv-x="693" 
d="M164 0v53h47q24 0 41 9t17 52v139l-185 355q-15 29 -28.5 41t-42.5 12h-13v53div35v-53h-17q-30 0 -45 -12.5t-15 -32.5q0 -13 4.5 -27.5t10.5 -27.5l74 -147q16 -31 26 -56t18 -48q11 26 24.5 57t29.5 65l58 120q11 22 14 37t3 23q0 49 -66 49h-23v53h262v-53h-19
q-25 0 -39 -15.5t-37 -62.5l-170 -331v-137q0 -43 16.5 -52.5t39.5 -9.5h49v-53h-369zM461 791q-24 0 -42 14t-18 48q0 35 18 48.5t42 13.5q23 0 41 -13.5t18 -48.5q0 -34 -18 -48t-41 -14zM255 791q-23 0 -41 14t-18 48q0 35 18 48.5t41 13.5t41.5 -13.5t18.5 -48.5
q0 -34 -18.5 -48t-41.5 -14z" />
    <glyph glyph-name="Zacute" unicode="&#x179;" horiz-adv-x="666" 
d="M42 0v50l375 603h-197q-47 0 -62.5 -25t-19.5 -66l-5 -54h-72l5 206h534v-51l-376 -602h216q41 0 63 14.5t31 37.5t11 48l5 45h72l-5 -206h-575zM262 771v13q15 19 33.5 45t36 53t27.5 49h157v-10q-9 -13 -30.5 -33t-48.5 -42t-55 -41.5t-52 -33.5h-68z" />
    <glyph glyph-name="zacute" unicode="&#x17a;" horiz-adv-x="529" 
d="M18 0v41l295 427h-146q-22 0 -34 -14.5t-23 -55.5l-6 -24h-60l12 162h432v-43l-296 -425h176q30 0 44 19t22 62l6 32h59l-5 -181h-476zM203 606v13q15 19 33.5 45t36 53t27.5 49h157v-10q-9 -13 -30.5 -33t-48.5 -42t-55 -41.5t-52 -33.5h-68z" />
    <glyph glyph-name="Zdotaccent" unicode="&#x17b;" horiz-adv-x="666" 
d="M42 0v50l375 603h-197q-47 0 -62.5 -25t-19.5 -66l-5 -54h-72l5 206h534v-51l-376 -602h216q41 0 63 14.5t31 37.5t11 48l5 45h72l-5 -206h-575zM350 791q-36 0 -60.5 17.5t-24.5 54.5q0 38 24.5 55t60.5 17q35 0 60.5 -17t25.5 -55q0 -37 -25.5 -54.5t-60.5 -17.5z" />
    <glyph glyph-name="zdotaccent" unicode="&#x17c;" horiz-adv-x="529" 
d="M18 0v41l295 427h-146q-22 0 -34 -14.5t-23 -55.5l-6 -24h-60l12 162h432v-43l-296 -425h176q30 0 44 19t22 62l6 32h59l-5 -181h-476zM284 626q-36 0 -60.5 17.5t-24.5 54.5q0 38 24.5 55t60.5 17q35 0 60.5 -17t25.5 -55q0 -37 -25.5 -54.5t-60.5 -17.5z" />
    <glyph glyph-name="Zcaron" unicode="&#x17d;" horiz-adv-x="666" 
d="M42 0v50l375 603h-197q-47 0 -62.5 -25t-19.5 -66l-5 -54h-72l5 206h534v-51l-376 -602h216q41 0 63 14.5t31 37.5t11 48l5 45h72l-5 -206h-575zM275 771q-10 23 -30.5 49.5t-42 52.5t-37.5 45v13h69q21 -16 53.5 -43t54.5 -47q15 14 35 30.5t40 32.5t34 27h69v-13
q-15 -19 -37 -45t-42 -52.5t-31 -49.5h-135z" />
    <glyph glyph-name="zcaron" unicode="&#x17e;" horiz-adv-x="529" 
d="M18 0v41l295 427h-146q-22 0 -34 -14.5t-23 -55.5l-6 -24h-60l12 162h432v-43l-296 -425h176q30 0 44 19t22 62l6 32h59l-5 -181h-476zM211 606q-10 23 -30.5 49.5t-42 52.5t-37.5 45v13h69q21 -16 53.5 -43t54.5 -47q15 14 35 30.5t40 32.5t34 27h69v-13
q-15 -19 -37 -45t-42 -52.5t-31 -49.5h-135z" />
    <glyph glyph-name="longs" unicode="&#x17f;" horiz-adv-x="392" 
d="M7 0v53h22q15 0 31.5 4.5t28 18.5t11.5 42v455q0 93 49 144.5t155 51.5q65 0 101 -9.5t51 -26t15 -37.5q0 -65 -123 -65q0 16 -5 35t-15.5 32.5t-29.5 13.5q-25 0 -35.5 -27.5t-10.5 -93.5v-473q0 -28 11.5 -42t28.5 -18.5t31 -4.5h47v-53h-363z" />
    <glyph glyph-name="florin" unicode="&#x192;" horiz-adv-x="497" 
d="M146 -10q-87 0 -121.5 27t-34.5 70q0 29 16 44t38 20t39 5q0 -57 14.5 -82t48.5 -25q29 0 42.5 21t13.5 52v346h-89v68h89v37q0 93 49 144.5t155 51.5q65 0 101 -9.5t51 -26t15 -37.5q0 -65 -123 -65q0 16 -5 35t-15.5 32.5t-29.5 13.5q-25 0 -35.5 -27.5t-10.5 -93.5
v-55h138v-68h-138v-272q0 -71 -28.5 -117t-75.5 -67.5t-104 -21.5z" />
    <glyph glyph-name="Aringacute" unicode="&#x1fa;" horiz-adv-x="753" 
d="M312 830v10q15 16 33.5 36.5t36 42t27.5 39.5h157v-8q-9 -10 -30.5 -26t-48.5 -33.5t-55 -33.5t-52 -27h-68zM4 0v53h12q27 0 45 13t35 53l204 491q-19 14 -29.5 35.5t-10.5 50.5q0 53 35 81t85 28t85 -28t35 -81q0 -28 -10.5 -49t-27.5 -35l197 -494q15 -37 33.5 -51
t42.5 -14h18v-53h-330v53div9q15 0 29 9t14 28q0 11 -2.5 21.5t-5.5 17.5l-32 82h-247l-27 -69q-4 -11 -9 -26t-5 -26q0 -17 14 -27t31 -10h42v-53h-260zM380 643q26 0 42.5 12.5t16.5 40.5q0 29 -17.5 41.5t-41.5 12.5t-41.5 -12.5t-17.5 -41.5t15.5 -41t43.5 -12zM242 272
h197l-51 142q-10 30 -22.5 70.5t-20.5 72.5q-8 -29 -21.5 -68t-25.5 -71z" />
    <glyph glyph-name="aringacute" unicode="&#x1fb;" horiz-adv-x="599" 
d="M232 830v10q15 16 33.5 36.5t36 42t27.5 39.5h157v-8q-9 -10 -30.5 -26t-48.5 -33.5t-55 -33.5t-52 -27h-68zM302 584q-50 0 -85 28t-35 81t35 81t85 28t85 -28t35 -81t-35 -81t-85 -28zM302 639q24 0 41.5 12.5t17.5 41.5t-17.5 41.5t-41.5 12.5t-41.5 -12.5
t-17.5 -41.5t17.5 -41.5t41.5 -12.5zM202 -10q-66 0 -111.5 40t-45.5 123q0 81 56 120t168 43l82 3v55q0 50 -10.5 82t-51.5 32q-38 0 -52.5 -30.5t-14.5 -77.5q-67 0 -101 15t-34 52t28 59t75 32.5t103 10.5q105 0 157.5 -38t52.5 -132v-255q0 -41 13 -56t47 -15h4v-53
h-186l-21 69h-9q-22 -27 -41.5 -44.5t-44.5 -26t-63 -8.5zM257 63q43 0 68.5 35t25.5 93v75l-45 -3q-60 -3 -83 -31.5t-23 -82.5q0 -86 57 -86z" />
    <glyph glyph-name="AEacute" unicode="&#x1fc;" horiz-adv-x="993" 
d="M0 0v53h12q26 0 46.5 19t42.5 59l281 525l-66 5v53h607l4 -184h-70l-5 47q-4 37 -18.5 56.5t-45.5 19.5h-168v-250h237v-60h-237v-282h200q30 0 44.5 21.5t19.5 54.5l8 47h69l-7 -184h-586v53h42q28 0 39.5 17t11.5 43v116h-230l-42 -84q-8 -16 -12 -30t-4 -23
q0 -39 60 -39h17v-53h-250zM263 289h198v364h-10zM545 771v13q15 19 33.5 45t36 53t27.5 49h157v-10q-9 -13 -30.5 -33t-48.5 -42t-55 -41.5t-52 -33.5h-68z" />
    <glyph glyph-name="aeacute" unicode="&#x1fd;" horiz-adv-x="875" 
d="M202 -10q-66 0 -111.5 40t-45.5 123q0 81 56 120t168 43l82 3v55q0 50 -10.5 82t-51.5 32q-38 0 -52.5 -30.5t-14.5 -77.5q-67 0 -101 15t-34 52t28 59t75 32.5t103 10.5q53 0 93 -13.5t66 -43.5q60 57 147 57q109 0 171.5 -61t62.5 -180v-51h-328q3 -100 37.5 -146
t96.5 -46q52 0 88 23.5t53 57.5q27 -15 27 -49q0 -43 -47 -75t-148 -32q-73 0 -127 25t-86 71q-34 -50 -84 -73t-113 -23zM507 321h173q0 78 -19 120.5t-60 42.5t-66.5 -41.5t-27.5 -121.5zM257 63q43 0 68.5 35t25.5 93v75l-45 -3q-60 -3 -83 -31.5t-23 -82.5q0 -86 57 -86
zM398 606v13q15 19 33.5 45t36 53t27.5 49h157v-10q-9 -13 -30.5 -33t-48.5 -42t-55 -41.5t-52 -33.5h-68z" />
    <glyph glyph-name="Oslashacute" unicode="&#x1fe;" horiz-adv-x="787" 
d="M325 771v13q15 19 33.5 45t36 53t27.5 49h157v-10q-9 -13 -30.5 -33t-48.5 -42t-55 -41.5t-52 -33.5h-68zM145 -40l46 85q-68 47 -102 127.5t-34 186.5q0 111 37.5 193t113 127.5t189.5 45.5q41 0 78 -7t69 -21l31 58h70l-47 -87q66 -46 101 -126t35 -184
q0 -111 -39.5 -193.5t-114.5 -128.5t-184 -46q-84 0 -148 26l-30 -56h-71zM252 158l247 460q-39 42 -104 42q-94 0 -133 -79.5t-39 -222.5q0 -62 7 -112t22 -88zM394 55q94 0 132 80t38 223q0 125 -28 199l-247 -461q39 -41 105 -41z" />
    <glyph glyph-name="oslashacute" unicode="&#x1ff;" horiz-adv-x="613" 
d="M246 606v13q15 19 33.5 45t36 53t27.5 49h157v-10q-9 -13 -30.5 -33t-48.5 -42t-55 -41.5t-52 -33.5h-68zM84 -40l50 82q-42 35 -64.5 92t-22.5 136q0 141 66 210t195 69q72 0 124 -24l32 51h70l-51 -84q40 -34 61.5 -89.5t21.5 -132.5q0 -141 -66.5 -210.5t-194.5 -69.5
q-67 0 -118 21l-32 -51h-71zM209 164l172 279q-25 42 -75 42q-58 0 -81 -54t-23 -161q0 -31 1.5 -57.5t5.5 -48.5zM307 53q58 0 81 55.5t23 161.5q0 54 -6 96l-170 -276q25 -37 72 -37z" />
    <glyph glyph-name="uni0218" unicode="&#x218;" horiz-adv-x="586" 
d="M264 -10q-89 0 -140.5 21.5t-72.5 54t-21 64.5q0 34 16 54.5t42 29.5t55 9q0 -85 38.5 -129t98.5 -44q59 0 91.5 31t32.5 77q0 51 -41.5 82t-125.5 65q-70 29 -111 60.5t-58.5 70t-17.5 87.5q0 61 32 106t87.5 70t125.5 25q110 0 161.5 -33.5t51.5 -82.5q0 -35 -30.5 -59
t-92.5 -24q0 28 -10.5 60t-33.5 55t-62 23q-40 0 -69.5 -23.5t-29.5 -68.5q0 -28 13 -52t49 -47.5t103 -50.5q103 -42 147 -90t44 -122q0 -64 -33.5 -113.5t-94.5 -77.5t-144 -28zM176 -221v13q10 30 21.5 72t17.5 75h116v-10q-9 -21 -25 -48t-34.5 -53.5t-35.5 -48.5h-60z
" />
    <glyph glyph-name="uni0219" unicode="&#x219;" horiz-adv-x="488" 
d="M231 -10q-109 0 -155 33.5t-46 83.5q0 33 16 49t38 21.5t39 5.5q0 -62 29.5 -98t78.5 -36q52 0 75.5 20t23.5 48q0 33 -26 54t-97 46q-81 28 -124 66.5t-43 105.5q0 80 59 119.5t156 39.5q63 0 101.5 -13.5t56 -35t17.5 -44.5q0 -34 -23.5 -51.5t-78.5 -17.5
q0 50 -22 77.5t-66 27.5q-32 0 -56.5 -15.5t-24.5 -46.5q0 -21 11.5 -37t41.5 -31t84 -34q67 -23 109.5 -60.5t42.5 -100.5q0 -83 -56.5 -129.5t-160.5 -46.5zM143 -221v13q10 30 21.5 72t17.5 75h116v-10q-9 -21 -25 -48t-34.5 -53.5t-35.5 -48.5h-60z" />
    <glyph glyph-name="circumflex" unicode="&#x2c6;" horiz-adv-x="435" 
d="M40 606v13q16 19 37.5 45t42 53t30.5 49h135q11 -22 31 -49t42 -53t37 -45v-13h-69q-14 11 -34 27t-40 33t-35 30q-22 -20 -54.5 -46.5t-53.5 -43.5h-69z" />
    <glyph glyph-name="caron" unicode="&#x2c7;" horiz-adv-x="435" 
d="M150 606q-10 23 -30.5 49.5t-42 52.5t-37.5 45v13h69q21 -16 53.5 -43t54.5 -47q15 14 35 30.5t40 32.5t34 27h69v-13q-15 -19 -37 -45t-42 -52.5t-31 -49.5h-135z" />
    <glyph glyph-name="macron" unicode="&#x2c9;" horiz-adv-x="370" 
d="M40 606v79h290v-79h-290z" />
    <glyph glyph-name="breve" unicode="&#x2d8;" horiz-adv-x="400" 
d="M200 606q-52 0 -87.5 23.5t-53.5 60t-19 73.5h66q8 -36 32.5 -52t61.5 -16t61.5 16t32.5 52h66q-1 -37 -19 -73.5t-53 -60t-88 -23.5z" />
    <glyph glyph-name="dotaccent" unicode="&#x2d9;" horiz-adv-x="251" 
d="M125 626q-36 0 -60.5 17.5t-24.5 54.5q0 38 24.5 55t60.5 17q35 0 60.5 -17t25.5 -55q0 -37 -25.5 -54.5t-60.5 -17.5z" />
    <glyph glyph-name="ring" unicode="&#x2da;" horiz-adv-x="333" 
d="M166 596q-50 0 -85 28t-35 81t35 81t85 28t85 -28t35 -81t-35 -81t-85 -28zM166 651q24 0 41.5 12.5t17.5 41.5t-17.5 41.5t-41.5 12.5t-41.5 -12.5t-17.5 -41.5t17.5 -41.5t41.5 -12.5z" />
    <glyph glyph-name="ogonek" unicode="&#x2db;" horiz-adv-x="500" 
d="M301 -240q-73 0 -111 26.5t-38 83.5q0 31 17 58t44 46t57 26h77q-21 -6 -42.5 -21.5t-36 -38.5t-14.5 -55q0 -28 19.5 -40.5t49.5 -12.5q14 0 29.5 2t33.5 6v-64q-16 -7 -42.5 -11.5t-42.5 -4.5z" />
    <glyph glyph-name="tilde" unicode="&#x2dc;" horiz-adv-x="476" 
d="M311 606q-27 0 -49 9.5t-40.5 22t-35 22t-32.5 9.5q-22 0 -34 -16.5t-15 -36.5h-65q2 41 18.5 74.5t44 53.5t63.5 20q27 0 48.5 -9.5t40 -22t35 -22t32.5 -9.5q22 0 34 16.5t15 36.5h65q-2 -40 -18.5 -74t-43.5 -54t-63 -20z" />
    <glyph glyph-name="hungarumlaut" unicode="&#x2dd;" horiz-adv-x="482" 
d="M230 606v13q21 32 45 72.5t40 74.5h127v-10q-10 -17 -35.5 -46t-55 -57.5t-52.5 -46.5h-69zM40 606v13q21 32 45 72.5t40 74.5h127v-10q-10 -17 -36 -46t-55 -57.5t-52 -46.5h-69z" />
    <glyph glyph-name="tonos" unicode="&#x384;" horiz-adv-x="577" 
d="M220 606v15q12 36 27 86t22 89h136v-12q-10 -25 -29 -56.5t-42 -63.5t-44 -58h-70z" />
    <glyph glyph-name="dieresistonos" unicode="&#x385;" horiz-adv-x="577" 
d="M238 688v13q10 30 21.5 72t17.5 75h116v-10q-9 -21 -25 -48t-34.5 -53.5t-35.5 -48.5h-60zM161 626q-23 0 -41 14t-18 48q0 35 18 48.5t41 13.5t41.5 -13.5t18.5 -48.5q0 -34 -18.5 -48t-41.5 -14zM407 626q-24 0 -42 14t-18 48q0 35 18 48.5t42 13.5q23 0 41 -13.5
t18 -48.5q0 -34 -18 -48t-41 -14z" />
    <glyph glyph-name="Alphatonos" unicode="&#x386;" horiz-adv-x="753" 
d="M4 0v53h12q27 0 45.5 14t34.5 59l217 588h137l209 -589q15 -42 33.5 -57t42.5 -15h18v-53h-330v53div9q15 0 29 9t14 30q0 12 -3 23.5t-6 19.5l-35 100h-243l-29 -86q-4 -12 -8 -28.5t-4 -28.5q0 -19 14 -29t31 -10h42v-53h-260zM239 296h202l-53 164q-10 34 -22.5 76
t-20.5 77q-9 -32 -22 -72.5t-25 -75.5zM35 524v15q12 36 27 86t22 89h136v-12q-10 -25 -29 -56.5t-42 -63.5t-44 -58h-70z" />
    <glyph glyph-name="anoteleia" unicode="&#x387;" horiz-adv-x="294" 
d="M147 385q-34 0 -58 17.5t-24 62.5q0 46 24 63t58 17q33 0 57.5 -17t24.5 -63q0 -45 -24.5 -62.5t-57.5 -17.5z" />
    <glyph glyph-name="Epsilontonos" unicode="&#x388;" horiz-adv-x="775" 
d="M150 0v53h42q21 0 36 10t15 50v483q0 43 -14.5 54t-36.5 11h-42v53h555l4 -184h-70l-5 47q-4 37 -18.5 56.5t-45.5 19.5h-168v-250h237v-60h-237v-282h200q30 0 44.5 21.5t19.5 54.5l8 47h69l-7 -184h-586zM-48 524v15q12 36 27 86t22 89h136v-12q-10 -25 -29 -56.5
t-42 -63.5t-44 -58h-70z" />
    <glyph glyph-name="Etatonos" unicode="&#x389;" horiz-adv-x="941" 
d="M150 0v53h42q21 0 36 11t15 54v482q0 40 -15.5 50.5t-35.5 10.5h-42v53div45v-53h-43q-21 0 -36 -11t-15 -54v-193h261v193q0 43 -15 54t-36 11h-43v53div45v-53h-42q-21 0 -36 -11t-15 -54v-483q0 -40 15.5 -50t35.5 -10h42v-53h-345v53h43q21 0 36 11t15 54v224h-261
v-224q0 -43 15 -54t36 -11h43v-53h-345zM-48 524v15q12 36 27 86t22 89h136v-12q-10 -25 -29 -56.5t-42 -63.5t-44 -58h-70z" />
    <glyph glyph-name="Iotatonos" unicode="&#x38a;" horiz-adv-x="523" 
d="M150 0v53h42q22 0 36.5 11t14.5 54v478q0 43 -14.5 54t-36.5 11h-42v53div45v-53h-42q-22 0 -36.5 -11t-14.5 -54v-478q0 -43 14.5 -54t36.5 -11h42v-53h-345zM-48 524v15q12 36 27 86t22 89h136v-12q-10 -25 -29 -56.5t-42 -63.5t-44 -58h-70z" />
    <glyph glyph-name="Omicrontonos" unicode="&#x38c;" horiz-adv-x="794" 
d="M401 -10q-114 0 -189 46t-112.5 129t-37.5 194t37.5 193t113 127.5t189.5 45.5q108 0 183.5 -45.5t114.5 -128t39 -193.5t-39.5 -193.5t-114.5 -128.5t-184 -46zM401 55q94 0 132 80t38 223t-38 222.5t-131 79.5q-94 0 -133 -79.5t-39 -222.5t39 -223t132 -80zM-59 524
v15q12 36 27 86t22 89h136v-12q-10 -25 -29 -56.5t-42 -63.5t-44 -58h-70z" />
    <glyph glyph-name="Upsilontonos" unicode="&#x38e;" horiz-adv-x="840" 
d="M311 0v53h47q24 0 41 9t17 52v139l-185 355q-15 29 -28.5 41t-42.5 12h-13v53div35v-53h-17q-30 0 -45 -12.5t-15 -32.5q0 -13 4.5 -27.5t10.5 -27.5l74 -147q16 -31 26 -56t18 -48q11 26 24.5 57t29.5 65l58 120q11 22 14 37t3 23q0 49 -66 49h-23v53h262v-53h-19
q-25 0 -39 -15.5t-37 -62.5l-170 -331v-137q0 -43 16.5 -52.5t39.5 -9.5h49v-53h-369zM-48 524v15q12 36 27 86t22 89h136v-12q-10 -25 -29 -56.5t-42 -63.5t-44 -58h-70z" />
    <glyph glyph-name="Omegatonos" unicode="&#x38f;" horiz-adv-x="839" 
d="M-48 524v15q12 36 27 86t22 89h136v-12q-10 -25 -29 -56.5t-42 -63.5t-44 -58h-70zM82 0l-7 200h55l8 -33q7 -33 29 -47.5t74 -14.5h101l-3 87q-120 21 -182 87.5t-62 170.5q0 125 84.5 200t257.5 75q109 0 184 -34t114.5 -96t39.5 -145q0 -105 -62.5 -171.5
t-182.5 -87.5l-2 -84h100q52 0 74.5 14.5t29.5 47.5l8 33h55l-7 -202h-323l7 241q71 9 100.5 63.5t29.5 145.5q0 100 -37 155t-129 55t-130.5 -55t-38.5 -155q0 -91 29.5 -145.5t100.5 -63.5l7 -241h-322z" />
    <glyph glyph-name="iotadieresistonos" unicode="&#x390;" horiz-adv-x="393" 
d="M259 -10q-78 0 -122 34.5t-44 120.5v391h151v-372q0 -49 16.5 -71t50.5 -22q18 0 37.5 2t35.5 5v-67q-13 -6 -47 -13.5t-78 -7.5zM145 688v13q10 30 21.5 72t17.5 75h116v-10q-9 -21 -25 -48t-34.5 -53.5t-35.5 -48.5h-60zM68 626q-23 0 -41 14t-18 48q0 35 18 48.5
t41 13.5t41.5 -13.5t18.5 -48.5q0 -34 -18.5 -48t-41.5 -14zM314 626q-24 0 -42 14t-18 48q0 35 18 48.5t42 13.5q23 0 41 -13.5t18 -48.5q0 -34 -18 -48t-41 -14z" />
    <glyph glyph-name="Alpha" unicode="&#x391;" horiz-adv-x="753" 
d="M4 0v53h12q27 0 45.5 14t34.5 59l217 588h137l209 -589q15 -42 33.5 -57t42.5 -15h18v-53h-330v53div9q15 0 29 9t14 30q0 12 -3 23.5t-6 19.5l-35 100h-243l-29 -86q-4 -12 -8 -28.5t-4 -28.5q0 -19 14 -29t31 -10h42v-53h-260zM239 296h202l-53 164q-10 34 -22.5 76
t-20.5 77q-9 -32 -22 -72.5t-25 -75.5z" />
    <glyph glyph-name="Beta" unicode="&#x392;" horiz-adv-x="672" 
d="M28 0v53h41q22 0 37 11t15 54v479q0 40 -15.5 52t-36.5 12h-41v53h292q143 0 214.5 -44t71.5 -138q0 -66 -35 -100t-91 -52v-5q69 -17 112.5 -61.5t43.5 -117.5q0 -196 -286 -196h-322zM279 404div8q70 0 95.5 30t25.5 98t-27.5 94.5t-95.5 26.5h-36v-249zM279 61h66
q67 0 95 31t28 107q0 74 -26 109t-95 35h-68v-282z" />
    <glyph glyph-name="Gamma" unicode="&#x393;" horiz-adv-x="591" 
d="M28 0v53h42q22 0 36.5 11t14.5 54v478q0 43 -14.5 54t-36.5 11h-42v53h546l7 -196h-56l-12 48q-11 44 -33 65.5t-63 21.5h-137v-539q0 -40 15 -50.5t36 -10.5h62v-53h-365z" />
    <glyph glyph-name="uni0394" unicode="&#x394;" horiz-adv-x="700" 
d="M49 0v65l234 649h143l225 -642v-72h-602zM138 79div58l-129 376q-15 44 -28 86t-21 78q-7 -36 -19 -72t-28 -83z" />
    <glyph glyph-name="Epsilon" unicode="&#x395;" horiz-adv-x="653" 
d="M28 0v53h42q21 0 36 10t15 50v483q0 43 -14.5 54t-36.5 11h-42v53h555l4 -184h-70l-5 47q-4 37 -18.5 56.5t-45.5 19.5h-168v-250h237v-60h-237v-282h200q30 0 44.5 21.5t19.5 54.5l8 47h69l-7 -184h-586z" />
    <glyph glyph-name="Zeta" unicode="&#x396;" horiz-adv-x="666" 
d="M42 0v50l375 603h-197q-47 0 -62.5 -25t-19.5 -66l-5 -54h-72l5 206h534v-51l-376 -602h216q41 0 63 14.5t31 37.5t11 48l5 45h72l-5 -206h-575z" />
    <glyph glyph-name="Eta" unicode="&#x397;" horiz-adv-x="819" 
d="M28 0v53h42q21 0 36 11t15 54v482q0 40 -15.5 50.5t-35.5 10.5h-42v53div45v-53h-43q-21 0 -36 -11t-15 -54v-193h261v193q0 43 -15 54t-36 11h-43v53div45v-53h-42q-21 0 -36 -11t-15 -54v-483q0 -40 15.5 -50t35.5 -10h42v-53h-345v53h43q21 0 36 11t15 54v224h-261v-224
q0 -43 15 -54t36 -11h43v-53h-345z" />
    <glyph glyph-name="Theta" unicode="&#x398;" horiz-adv-x="787" 
d="M394 -10q-114 0 -189 46t-112.5 129t-37.5 194t37.5 193t113 127.5t189.5 45.5q108 0 183.5 -45.5t114.5 -128t39 -193.5t-39.5 -193.5t-114.5 -128.5t-184 -46zM394 55q94 0 132 80t38 223t-38 222.5t-131 79.5q-94 0 -133 -79.5t-39 -222.5t39 -223t132 -80zM260 269
v191h52l5 -19q4 -14 9.5 -24.5t19.5 -16t44 -5.5h5q40 0 55 12.5t20 33.5l5 19h52v-191h-52l-5 19q-5 21 -20 33.5t-55 12.5h-5q-30 0 -44 -5.5t-19.5 -15.5t-9.5 -25l-5 -19h-52z" />
    <glyph glyph-name="Iota" unicode="&#x399;" horiz-adv-x="401" 
d="M28 0v53h42q22 0 36.5 11t14.5 54v478q0 43 -14.5 54t-36.5 11h-42v53div45v-53h-42q-22 0 -36.5 -11t-14.5 -54v-478q0 -43 14.5 -54t36.5 -11h42v-53h-345z" />
    <glyph glyph-name="Kappa" unicode="&#x39a;" horiz-adv-x="734" 
d="M28 0v53h42q21 0 36 10t15 50v487q0 40 -15 50.5t-36 10.5h-42v53div45v-53h-42q-22 0 -37 -11t-15 -54v-233l155 169q32 35 44.5 57.5t12.5 43.5q0 17 -12.5 23t-43.5 6v52h271v-52q-40 0 -74.5 -24.5t-69.5 -63.5l-132 -145l186 -295q30 -46 55.5 -63.5t58.5 -17.5h4
v-53h-54q-76 0 -117.5 10t-63.5 30.5t-41 51.5l-135 230l-44 -35v-169q0 -43 15 -54t37 -11h42v-53h-345z" />
    <glyph glyph-name="Lambda" unicode="&#x39b;" horiz-adv-x="698" 
d="M0 0v53h48q14 0 23 13.5t25 59.5l204 588h100l213 -613q10 -28 28.5 -38t33.5 -10h23v-53h-330v53h46q14 0 26.5 7t12.5 26q0 10 -3 22.5t-6 20.5l-102 308q-7 23 -16 58.5t-12 62.5q-2 -11 -7.5 -32t-12.5 -44.5t-13 -41.5l-103 -304q-4 -10 -8 -25.5t-4 -23.5
q0 -16 11 -25t29 -9h52v-53h-258z" />
    <glyph glyph-name="Mu" unicode="&#x39c;" horiz-adv-x="952" 
d="M28 0v53h42q21 0 36 10t15 50v487q0 40 -15 50.5t-36 10.5h-42v53h288l166 -483l159 483h283v-53h-42q-22 0 -36.5 -11t-14.5 -54v-478q0 -43 14.5 -54t36.5 -11h42v-53h-320v53h10q32 0 47.5 9.5t15.5 46.5v506l-202 -615h-68l-211 615v-497q0 -43 19.5 -54t54.5 -11h6
v-53h-248z" />
    <glyph glyph-name="Nu" unicode="&#x39d;" horiz-adv-x="788" 
d="M28 0v53h42q21 0 36 11t15 54v482q0 40 -15.5 50.5t-35.5 10.5h-42v53h222l353 -499v385q0 40 -15.5 50.5t-35.5 10.5h-42v53h261v-53h-42q-21 0 -36 -11t-15 -54v-596h-92l-390 551v-433q0 -43 15 -54t36 -11h42v-53h-261z" />
    <glyph glyph-name="Xi" unicode="&#x39e;" horiz-adv-x="631" 
d="M62 499l5 215h497l5 -215h-62l-4 30q-4 30 -21.5 52.5t-62.5 22.5h-207q-45 0 -62.5 -22.5t-21.5 -52.5l-4 -30h-62zM168 269v191h52l5 -19q4 -14 9.5 -24.5t19.5 -16t44 -5.5div5q40 0 55 12.5t20 33.5l5 19h52v-191h-52l-5 19q-5 21 -20 33.5t-55 12.5h-35
q-30 0 -44 -5.5t-19.5 -15.5t-9.5 -25l-5 -19h-52zM37 0l-5 227h62l4 -30q4 -30 21.5 -52.5t62.5 -22.5h267q45 0 62.5 22.5t21.5 52.5l4 30h62l-5 -227h-557z" />
    <glyph glyph-name="Omicron" unicode="&#x39f;" horiz-adv-x="787" 
d="M394 -10q-114 0 -189 46t-112.5 129t-37.5 194t37.5 193t113 127.5t189.5 45.5q108 0 183.5 -45.5t114.5 -128t39 -193.5t-39.5 -193.5t-114.5 -128.5t-184 -46zM394 55q94 0 132 80t38 223t-38 222.5t-131 79.5q-94 0 -133 -79.5t-39 -222.5t39 -223t132 -80z" />
    <glyph glyph-name="Pi" unicode="&#x3a0;" horiz-adv-x="809" 
d="M28 0v53h42q21 0 36 11t15 54v482q0 40 -15.5 50.5t-35.5 10.5h-42v53h753v-53h-42q-21 0 -36 -11t-15 -54v-483q0 -40 15.5 -50t35.5 -10h42v-53h-345v53h43q21 0 36 11t15 54v535h-251v-535q0 -43 15 -54t36 -11h43v-53h-345z" />
    <glyph glyph-name="Rho" unicode="&#x3a1;" horiz-adv-x="638" 
d="M28 0v53h42q22 0 36.5 11t14.5 54v482q0 40 -15 50.5t-36 10.5h-42v53div07q139 0 206 -57t67 -155q0 -60 -28.5 -112t-93.5 -84.5t-173 -32.5h-34v-160q0 -40 16 -50t37 -10h61v-53h-365zM279 331h24q74 0 105.5 38.5t31.5 128.5q0 80 -27.5 118.5t-94.5 38.5h-39v-324z
" />
    <glyph glyph-name="Sigma" unicode="&#x3a3;" horiz-adv-x="635" 
d="M23 0v62l206 283l-184 330v39h499l5 -185h-62l-5 53q-4 33 -23.5 52t-64.5 19h-192l139 -251v-15l-197 -265h289q47 0 68 27t26 68l4 30h62l-5 -247h-565z" />
    <glyph glyph-name="Tau" unicode="&#x3a4;" horiz-adv-x="653" 
d="M154 0v53h42q22 0 36.5 11t14.5 54v535h-80q-45 0 -62 -19t-21 -52l-7 -62h-67l5 194h623l5 -194h-67l-7 62q-4 33 -21 52t-62 19h-80v-535q0 -43 14.5 -54t36.5 -11h42v-53h-345z" />
    <glyph glyph-name="Upsilon" unicode="&#x3a5;" horiz-adv-x="693" 
d="M164 0v53h47q24 0 41 9t17 52v139l-185 355q-15 29 -28.5 41t-42.5 12h-13v53div35v-53h-17q-30 0 -45 -12.5t-15 -32.5q0 -13 4.5 -27.5t10.5 -27.5l74 -147q16 -31 26 -56t18 -48q11 26 24.5 57t29.5 65l58 120q11 22 14 37t3 23q0 49 -66 49h-23v53h262v-53h-19
q-25 0 -39 -15.5t-37 -62.5l-170 -331v-137q0 -43 16.5 -52.5t39.5 -9.5h49v-53h-369z" />
    <glyph glyph-name="Phi" unicode="&#x3a6;" horiz-adv-x="850" 
d="M257 0v53h13q34 0 58 10.5t24 50.5v20h-31q-81 0 -136.5 20t-89.5 54t-49.5 76t-15.5 87q0 98 65.5 158.5t201.5 60.5h55v10q0 40 -24 50.5t-58 10.5h-13v53div36v-53h-13q-34 0 -58 -10.5t-24 -50.5v-10h55q137 0 202 -60.5t65 -158.5q0 -45 -15.5 -87t-49.5 -76
t-89.5 -54t-136.5 -20h-31v-20q0 -40 24 -50.5t58 -10.5h13v-53h-336zM323 192h29v339h-42q-70 0 -99.5 -40t-29.5 -124q0 -95 33 -135t109 -40zM498 192h29q76 0 109 40t33 135q0 84 -29 124t-100 40h-42v-339z" />
    <glyph glyph-name="Chi" unicode="&#x3a7;" horiz-adv-x="732" 
d="M10 0v53h6q36 0 57.5 19t46.5 51l175 228l-165 257q-16 26 -34 39.5t-52 13.5h-13v53div31v-53h-3q-34 0 -46.5 -8.5t-12.5 -20.5q0 -10 7.5 -26t18.5 -33l83 -124l87 122q9 14 18 31t9 30q0 18 -16.5 23.5t-39.5 5.5h-3v53h234v-53h-9q-29 0 -49.5 -15.5t-49.5 -56.5
l-145 -198l184 -285q20 -31 40.5 -42t39.5 -11h13v-53h-330v53h5q60 0 60 33q0 11 -5.5 24t-27.5 45l-92 139l-108 -146q-9 -13 -17.5 -29t-8.5 -32t14 -25t47 -9divv-53h-252z" />
    <glyph glyph-name="Psi" unicode="&#x3a8;" horiz-adv-x="976" 
d="M319 0v53h13q34 0 58 10.5t24 50.5v124h-38q-84 0 -137.5 18.5t-83 50.5t-40.5 72.5t-11 85.5v124q0 47 -24 59.5t-58 12.5v53h228v-236q0 -63 11.5 -103.5t42.5 -59.5t88 -19h22v303q0 40 -24 51t-58 11h-13v53div36v-53h-13q-34 0 -58 -11t-24 -51v-303h22q58 0 88.5 19
t42 59.5t11.5 103.5v236h228v-53q-34 0 -58 -12.5t-24 -59.5v-124q0 -45 -11 -85.5t-40.5 -72.5t-83 -50.5t-137.5 -18.5h-38v-124q0 -40 24 -50.5t58 -10.5h13v-53h-336z" />
    <glyph glyph-name="uni03A9" unicode="&#x3a9;" horiz-adv-x="808" 
d="M51 0l-7 200h55l8 -33q7 -33 29 -47.5t74 -14.5h101l-3 87q-120 21 -182 87.5t-62 170.5q0 125 84.5 200t257.5 75q109 0 184 -34t114.5 -96t39.5 -145q0 -105 -62.5 -171.5t-182.5 -87.5l-2 -84h100q52 0 74.5 14.5t29.5 47.5l8 33h55l-7 -202h-323l7 241
q71 9 100.5 63.5t29.5 145.5q0 100 -37 155t-129 55t-130.5 -55t-38.5 -155q0 -91 29.5 -145.5t100.5 -63.5l7 -241h-322z" />
    <glyph glyph-name="Iotadieresis" unicode="&#x3aa;" horiz-adv-x="401" 
d="M28 0v53h42q22 0 36.5 11t14.5 54v478q0 43 -14.5 54t-36.5 11h-42v53div45v-53h-42q-22 0 -36.5 -11t-14.5 -54v-478q0 -43 14.5 -54t36.5 -11h42v-53h-345zM303 791q-24 0 -42 14t-18 48q0 35 18 48.5t42 13.5q23 0 41 -13.5t18 -48.5q0 -34 -18 -48t-41 -14zM97 791
q-23 0 -41 14t-18 48q0 35 18 48.5t41 13.5t41.5 -13.5t18.5 -48.5q0 -34 -18.5 -48t-41.5 -14z" />
    <glyph glyph-name="Upsilondieresis" unicode="&#x3ab;" horiz-adv-x="693" 
d="M164 0v53h47q24 0 41 9t17 52v139l-185 355q-15 29 -28.5 41t-42.5 12h-13v53div35v-53h-17q-30 0 -45 -12.5t-15 -32.5q0 -13 4.5 -27.5t10.5 -27.5l74 -147q16 -31 26 -56t18 -48q11 26 24.5 57t29.5 65l58 120q11 22 14 37t3 23q0 49 -66 49h-23v53h262v-53h-19
q-25 0 -39 -15.5t-37 -62.5l-170 -331v-137q0 -43 16.5 -52.5t39.5 -9.5h49v-53h-369zM461 791q-24 0 -42 14t-18 48q0 35 18 48.5t42 13.5q23 0 41 -13.5t18 -48.5q0 -34 -18 -48t-41 -14zM255 791q-23 0 -41 14t-18 48q0 35 18 48.5t41 13.5t41.5 -13.5t18.5 -48.5
q0 -34 -18.5 -48t-41.5 -14z" />
    <glyph glyph-name="alphatonos" unicode="&#x3ac;" horiz-adv-x="649" 
d="M250 -10q-98 0 -150.5 66.5t-52.5 210.5q0 145 60.5 212t160.5 67q59 0 96 -29t56 -70h9q8 23 19.5 45t30.5 44h96q-6 -19 -12 -53t-10 -73.5t-4 -75.5v-194q0 -87 82 -87h8v-53h-84q-49 0 -79.5 12t-45.5 30t-21 36h-6q-22 -37 -58 -62.5t-95 -25.5zM294 65q40 0 62 32
t31.5 87t9.5 124v37q-10 68 -36.5 98.5t-58.5 30.5q-53 0 -77 -52t-24 -155q0 -101 21.5 -151.5t71.5 -50.5zM265 606v15q12 36 27 86t22 89h136v-12q-10 -25 -29 -56.5t-42 -63.5t-44 -58h-70z" />
    <glyph glyph-name="epsilontonos" unicode="&#x3ad;" horiz-adv-x="535" 
d="M224 606v15q12 36 27 86t22 89h136v-12q-10 -25 -29 -56.5t-42 -63.5t-44 -58h-70zM270 -10q-79 0 -130.5 21.5t-77 58.5t-25.5 81q0 40 16 64.5t42 38.5t55 24v5q-45 14 -71.5 48.5t-26.5 74.5q0 69 60.5 105.5t163.5 36.5q71 0 116 -16t66 -40t21 -49q0 -60 -137 -60
q0 50 -17 79t-52 29q-39 0 -53.5 -26t-14.5 -61q0 -37 15.5 -65t45.5 -32q21 6 46.5 11.5t48.5 5.5q22 0 35 -9t13 -29q0 -22 -18 -36t-49 -14q-11 0 -30 3t-37.5 7.5t-29.5 8.5q-25 -7 -39.5 -32.5t-14.5 -64.5q0 -46 32 -69.5t91 -23.5q62 0 100.5 23t60.5 51q9 -4 16 -16
t7 -25q0 -28 -22 -52.5t-72 -40t-134 -15.5z" />
    <glyph glyph-name="etatonos" unicode="&#x3ae;" horiz-adv-x="657" 
d="M439 -240q-9 12 -15 43t-9 68t-3 66v403q0 62 -20.5 93t-54.5 31q-52 0 -72 -49t-20 -135v-280h-152v339q0 32 -4 70.5t-10 73t-12 53.5h132q11 -20 18 -42.5t12 -48.5h4q15 27 35.5 50.5t50 38.5t71.5 15q89 0 131.5 -46.5t42.5 -150.5v-421q0 -25 2.5 -60t7 -66.5
t9.5 -44.5h-144zM281 606v15q12 36 27 86t22 89h136v-12q-10 -25 -29 -56.5t-42 -63.5t-44 -58h-70z" />
    <glyph glyph-name="iotatonos" unicode="&#x3af;" horiz-adv-x="393" 
d="M259 -10q-78 0 -122 34.5t-44 120.5v391h151v-372q0 -49 16.5 -71t50.5 -22q18 0 37.5 2t35.5 5v-67q-13 -6 -47 -13.5t-78 -7.5zM128 606v15q12 36 27 86t22 89h136v-12q-10 -25 -29 -56.5t-42 -63.5t-44 -58h-70z" />
    <glyph glyph-name="upsilondieresistonos" unicode="&#x3b0;" horiz-adv-x="633" 
d="M330 -10q-118 0 -176 60t-58 160v212q0 38 -15.5 49t-47.5 12h-6v53h220v-326q0 -78 32 -111.5t89 -33.5q75 0 110.5 60.5t35.5 155.5q0 64 -19 102.5t-45.5 58.5t-48.5 26q0 32 17.5 54t51.5 22q51 0 84 -64t33 -174q0 -58 -11.5 -114.5t-40 -102t-78.5 -72.5t-127 -27z
M293 688v13q10 30 21.5 72t17.5 75h116v-10q-9 -21 -25 -48t-34.5 -53.5t-35.5 -48.5h-60zM216 626q-23 0 -41 14t-18 48q0 35 18 48.5t41 13.5t41.5 -13.5t18.5 -48.5q0 -34 -18.5 -48t-41.5 -14zM462 626q-24 0 -42 14t-18 48q0 35 18 48.5t42 13.5q23 0 41 -13.5
t18 -48.5q0 -34 -18 -48t-41 -14z" />
    <glyph glyph-name="alpha" unicode="&#x3b1;" horiz-adv-x="649" 
d="M250 -10q-98 0 -150.5 66.5t-52.5 210.5q0 145 60.5 212t160.5 67q59 0 96 -29t56 -70h9q8 23 19.5 45t30.5 44h96q-6 -19 -12 -53t-10 -73.5t-4 -75.5v-194q0 -87 82 -87h8v-53h-84q-49 0 -79.5 12t-45.5 30t-21 36h-6q-22 -37 -58 -62.5t-95 -25.5zM294 65q40 0 62 32
t31.5 87t9.5 124v37q-10 68 -36.5 98.5t-58.5 30.5q-53 0 -77 -52t-24 -155q0 -101 21.5 -151.5t71.5 -50.5z" />
    <glyph glyph-name="beta" unicode="&#x3b2;" horiz-adv-x="663" 
d="M93 -240v811q0 75 33 118.5t89.5 62t126.5 18.5q120 0 180 -43.5t60 -120.5q0 -49 -19.5 -83t-45.5 -54.5t-45.5 -29.5l-19.5 -9v-6q46 -15 83 -40t59 -64t22 -97q0 -116 -60 -174.5t-163 -58.5q-52 0 -89 12.5t-60 32.5v-275h-151zM365 49q44 0 71.5 42t27.5 130
q0 79 -24.5 116t-71.5 55q-12 -5 -27.5 -9t-36.5 -4q-16 0 -27.5 10t-11.5 28q0 40 51 40q11 0 30.5 -2.5t28.5 -5.5q32 15 48 49t16 91q0 56 -24.5 91t-71.5 35q-49 0 -74 -37t-25 -99v-471q19 -22 50 -40.5t71 -18.5z" />
    <glyph glyph-name="gamma" unicode="&#x3b3;" horiz-adv-x="574" 
d="M221 -240q-34 0 -50 20t-16 51q0 44 18 92.5t40 84.5q-25 96 -48 179.5t-45.5 146.5t-45 98.5t-45.5 35.5q-10 0 -20.5 -4t-19.5 -9l-20 41q26 17 63 33.5t76 16.5q52 0 86 -47.5t64 -146.5t68 -256q36 42 61.5 97t39.5 110t14 96q0 63 -53 77q0 33 18.5 51.5t46.5 18.5
q31 0 47 -14.5t22.5 -36.5t6.5 -46q0 -54 -17.5 -115.5t-46 -120.5t-61.5 -108t-65 -79q1 -13 1.5 -31.5t0.5 -30.5q0 -94 -34.5 -149t-85.5 -55z" />
    <glyph glyph-name="delta" unicode="&#x3b4;" horiz-adv-x="613" 
d="M305 -10q-74 0 -132.5 26t-92 76.5t-33.5 121.5q0 69 26 113.5t71.5 72t103.5 44.5q-49 35 -83 78.5t-34 101.5q0 47 26.5 78.5t72.5 47t104 15.5q69 0 111 -15.5t61 -38t19 -45.5q0 -35 -27 -53.5t-72 -18.5q0 50 -24 82.5t-70 32.5q-41 0 -60.5 -21.5t-19.5 -50.5
q0 -28 13 -49.5t41.5 -42.5t75.5 -50q56 -34 97 -70t64 -80t23 -102q0 -124 -71.5 -188.5t-189.5 -64.5zM307 53q50 0 77 43.5t27 119.5q0 51 -15 85t-39.5 59t-53.5 46q-25 -10 -48 -31.5t-38 -60.5t-15 -104q0 -72 28 -114.5t77 -42.5z" />
    <glyph glyph-name="epsilon" unicode="&#x3b5;" horiz-adv-x="535" 
d="M270 -10q-79 0 -130.5 21.5t-77 58.5t-25.5 81q0 40 16 64.5t42 38.5t55 24v5q-45 14 -71.5 48.5t-26.5 74.5q0 69 60.5 105.5t163.5 36.5q71 0 116 -16t66 -40t21 -49q0 -60 -137 -60q0 50 -17 79t-52 29q-39 0 -53.5 -26t-14.5 -61q0 -37 15.5 -65t45.5 -32
q21 6 46.5 11.5t48.5 5.5q22 0 35 -9t13 -29q0 -22 -18 -36t-49 -14q-11 0 -30 3t-37.5 7.5t-29.5 8.5q-25 -7 -39.5 -32.5t-14.5 -64.5q0 -46 32 -69.5t91 -23.5q62 0 100.5 23t60.5 51q9 -4 16 -16t7 -25q0 -28 -22 -52.5t-72 -40t-134 -15.5z" />
    <glyph glyph-name="zeta" unicode="&#x3b6;" horiz-adv-x="498" 
d="M263 -203v52q47 12 64 30.5t17 45.5q0 20 -10 32t-36 21.5t-75 18.5q-86 17 -131 64.5t-45 142.5q0 83 28.5 164t81 154.5t125.5 132.5q-49 6 -102 30.5t-97 57.5l36 50q44 -32 94.5 -56.5t114.5 -30.5q24 20 59 40t72 20q27 0 42.5 -12t15.5 -34q0 -37 -32 -60t-107 -23
q-8 0 -17.5 0.5t-19.5 1.5q-74 -95 -107 -201t-33 -208q0 -54 16 -80.5t50 -39t88 -25.5q59 -13 88.5 -42.5t29.5 -78.5q0 -58 -51 -105.5t-159 -61.5z" />
    <glyph glyph-name="eta" unicode="&#x3b7;" horiz-adv-x="657" 
d="M439 -240q-9 12 -15 43t-9 68t-3 66v403q0 62 -20.5 93t-54.5 31q-52 0 -72 -49t-20 -135v-280h-152v339q0 32 -4 70.5t-10 73t-12 53.5h132q11 -20 18 -42.5t12 -48.5h4q15 27 35.5 50.5t50 38.5t71.5 15q89 0 131.5 -46.5t42.5 -150.5v-421q0 -25 2.5 -60t7 -66.5
t9.5 -44.5h-144z" />
    <glyph glyph-name="theta" unicode="&#x3b8;" horiz-adv-x="613" 
d="M307 -10q-91 0 -148.5 47t-84.5 134t-27 208t27 207t84.5 132t149.5 46q130 0 194 -102t64 -284q0 -181 -64 -284.5t-195 -103.5zM202 418h209q-2 135 -27 208.5t-76 73.5q-52 0 -77.5 -73.5t-28.5 -208.5zM307 53q53 0 78 79.5t26 221.5h-209q1 -142 26.5 -221.5
t78.5 -79.5z" />
    <glyph glyph-name="iota" unicode="&#x3b9;" horiz-adv-x="393" 
d="M259 -10q-78 0 -122 34.5t-44 120.5v391h151v-372q0 -49 16.5 -71t50.5 -22q18 0 37.5 2t35.5 5v-67q-13 -6 -47 -13.5t-78 -7.5z" />
    <glyph glyph-name="kappa" unicode="&#x3ba;" horiz-adv-x="641" 
d="M100 0v422q0 27 -12 40t-28.5 17t-30.5 4h-12v53h235v-177q0 -18 -1 -45.5t-2.5 -49l-1.5 -21.5l78 110q45 63 80 104.5t68 62t72 20.5q36 0 54.5 -17t18.5 -48q0 -11 -3 -26.5t-7 -23.5q-7 8 -22 13.5t-39 5.5q-27 0 -55.5 -11t-64.5 -54l-38 -46l140 -202
q56 -78 104 -78divv-53h-14q-55 0 -92.5 2.5t-63.5 11t-46 26.5t-39 49l-79 128l-50 -40v-177h-152z" />
    <glyph glyph-name="lambda" unicode="&#x3bb;" horiz-adv-x="570" 
d="M0 0l281 540q-24 84 -52 118.5t-68 34.5q-31 0 -51.5 -14t-32.5 -29q-7 9 -13 22t-6 31q0 32 26.5 49.5t67.5 17.5q80 0 123 -55t73 -161l92 -327q20 -68 40 -106t41 -53t41 -15h5v-53h-23q-41 0 -71 10t-52 42.5t-39 97.5q-23 89 -36.5 146.5t-15.5 73.5h-3
q-3 -16 -12 -42t-20.5 -53.5t-22.5 -49.5l-112 -225h-160z" />
    <glyph glyph-name="uni03BC" unicode="&#x3bc;" horiz-adv-x="665" 
d="M175 -240q-37 0 -65.5 29t-28.5 102q0 40 2.5 85.5t5.5 105.5t4 143v311h152v-330q0 -54 16 -92.5t60 -38.5q42 0 66.5 42.5t24.5 112.5v306h152v-398q0 -46 17 -65.5t51 -19.5h7v-53h-87q-51 0 -84 24t-46 63h-5q-23 -44 -53.5 -70.5t-83.5 -26.5q-41 0 -70.5 15.5
t-49.5 43.5q0 -55 7 -98.5t30 -70.5t70 -33q0 -37 -24.5 -62t-67.5 -25z" />
    <glyph glyph-name="nu" unicode="&#x3bd;" horiz-adv-x="579" 
d="M216 0q-25 97 -48.5 181t-46 147.5t-46 99t-48.5 35.5q-8 0 -19 -4t-20 -9l-20 42q29 18 66.5 33.5t72.5 15.5t62 -20t51 -69.5t49.5 -136t56.5 -219.5q40 45 66 99t38.5 106.5t12.5 90.5q0 39 -17.5 59t-37.5 25q0 37 20 53.5t47 16.5q41 0 58.5 -31t17.5 -66
q0 -54 -17.5 -117t-48.5 -126t-70 -116.5t-83 -89.5h-96z" />
    <glyph glyph-name="xi" unicode="&#x3be;" horiz-adv-x="505" 
d="M284 -205v53q42 12 57.5 31t15.5 44q0 31 -20.5 44t-75.5 24q-115 23 -164.5 67.5t-49.5 129.5q0 79 56 140t148 97v6q-76 9 -121.5 40.5t-45.5 74.5q0 35 35.5 71t97.5 63q-91 16 -152 62l37 50q19 -13 49.5 -26.5t65.5 -24t67 -15.5q20 13 55 26.5t72 13.5t50 -11.5
t13 -28.5q0 -31 -33 -48.5t-104 -17.5q-11 0 -23 0.5t-26 1.5q-27 -20 -45.5 -47.5t-18.5 -64.5q0 -33 25 -53.5t56 -30.5q18 9 49.5 17t60.5 8q26 0 39 -10.5t13 -27.5q0 -20 -17.5 -38t-60.5 -18q-23 0 -46.5 2.5t-33.5 3.5q-27 -11 -52 -40.5t-40.5 -69.5t-15.5 -84
q0 -42 16.5 -63.5t49.5 -33t83 -23.5q73 -16 104 -44t31 -78q0 -35 -20.5 -69.5t-64.5 -62t-116 -40.5z" />
    <glyph glyph-name="omicron" unicode="&#x3bf;" horiz-adv-x="613" 
d="M305 -10q-120 0 -189 69.5t-69 210.5t66 210t195 69q120 0 189 -69t69 -210t-66.5 -210.5t-194.5 -69.5zM307 53q58 0 81 55.5t23 161.5q0 107 -23.5 161t-81.5 54t-81 -54t-23 -161q0 -106 23.5 -161.5t81.5 -55.5z" />
    <glyph glyph-name="pi" unicode="&#x3c0;" horiz-adv-x="668" 
d="M517 -8q-54 0 -84.5 27t-30.5 91q0 34 4.5 84.5t12.5 106.5t16 106h-167l-12 -253q-4 -79 -34 -116.5t-105 -37.5h-66v52q21 0 46 11.5t45.5 40.5t27.5 81l30 222h-46q-29 0 -44 -17.5t-19 -45.5h-59q0 52 17 95.5t52.5 70t92.5 26.5h446v-129h-132q-4 -47 -6.5 -98.5
t-3.5 -95.5t-1 -70q0 -40 15.5 -56t38.5 -16q14 0 27.5 3t23.5 7v-62q-12 -11 -34.5 -19t-50.5 -8z" />
    <glyph glyph-name="rho" unicode="&#x3c1;" horiz-adv-x="648" 
d="M83 -240v533q0 122 60 189t188 67q80 0 141 -34t95 -98.5t34 -158.5q0 -141 -57.5 -204.5t-159.5 -63.5q-43 0 -81.5 11t-70.5 35q1 -13 1.5 -35.5t0.5 -49.5v-191h-151zM351 53q43 0 69.5 46.5t26.5 160.5q0 107 -28 166t-86 59t-78.5 -52.5t-20.5 -139.5v-183
q24 -25 52.5 -41t64.5 -16z" />
    <glyph glyph-name="uni03C2" unicode="&#x3c2;" horiz-adv-x="507" 
d="M284 -205v53q42 14 57.5 35.5t15.5 49.5q0 35 -20.5 49.5t-75.5 27.5q-82 19 -129 49.5t-66 76.5t-19 111q0 112 32.5 178t88 95t124.5 29q97 0 147.5 -30.5t50.5 -74.5q0 -21 -10.5 -40.5t-38.5 -32t-80 -12.5q0 35 -6 64t-20 47t-39 18q-29 0 -50.5 -17.5t-33.5 -65.5
t-12 -138q0 -46 16.5 -73.5t50 -43t83.5 -28.5q73 -19 104 -50t31 -86q0 -39 -20.5 -77.5t-64.5 -68.5t-116 -45z" />
    <glyph glyph-name="sigma" unicode="&#x3c3;" horiz-adv-x="645" 
d="M306 -10q-78 0 -136.5 31t-90.5 89.5t-32 139.5q0 85 26 140.5t72 87.5t104.5 45t122.5 13h258v-113h-164q22 -16 46.5 -43t42 -66t17.5 -93q0 -106 -66.5 -168.5t-199.5 -62.5zM315 52q48 0 74.5 42.5t26.5 130.5q0 79 -16 126.5t-30 71.5h-15q-42 0 -77 -17t-56 -56.5
t-21 -107.5q0 -88 29.5 -139t84.5 -51z" />
    <glyph glyph-name="tau" unicode="&#x3c4;" horiz-adv-x="527" 
d="M315 -10q-64 0 -94 35.5t-30 99.5q0 59 14.5 127t37.5 155h-89q-44 0 -62.5 -25t-18.5 -60h-53q0 79 21.5 126t54 67.5t64.5 20.5div35v-129h-183q-22 -170 -22 -256q0 -40 16 -60t40 -20q23 0 41 3.5t34 8.5v-69q-18 -11 -43.5 -17.5t-62.5 -6.5z" />
    <glyph glyph-name="upsilon" unicode="&#x3c5;" horiz-adv-x="633" 
d="M330 -10q-118 0 -176 60t-58 160v212q0 38 -15.5 49t-47.5 12h-6v53h220v-326q0 -78 32 -111.5t89 -33.5q75 0 110.5 60.5t35.5 155.5q0 64 -19 102.5t-45.5 58.5t-48.5 26q0 32 17.5 54t51.5 22q51 0 84 -64t33 -174q0 -58 -11.5 -114.5t-40 -102t-78.5 -72.5t-127 -27z
" />
    <glyph glyph-name="phi" unicode="&#x3c6;" horiz-adv-x="755" 
d="M344 -240v224q-85 3 -152 33.5t-106 93.5t-39 163q0 69 22 123.5t56 93.5t71 59l60 -41q-19 -31 -37 -87t-18 -149q0 -88 18 -136t50.5 -67.5t74.5 -22.5v333q0 92 39 130t104 38q221 0 221 -275q0 -101 -40 -164t-108.5 -93t-155.5 -32v-224h-60zM404 47q44 1 77.5 19.5
t53 67.5t19.5 139q0 93 -9 141.5t-27.5 66t-45.5 17.5q-41 0 -54.5 -34t-13.5 -90v-327z" />
    <glyph glyph-name="chi" unicode="&#x3c7;" horiz-adv-x="603" 
d="M13 -240l244 440l-76 192q-16 41 -33 60t-47 19q-10 0 -27 -5t-27 -10l-18 39q24 17 53.5 30.5t59.5 13.5q28 0 46.5 -10t33.5 -35t30 -69l50 -143l123 254h157l-216 -386l86 -232q15 -40 32.5 -64t46.5 -24q16 0 28.5 4.5t21.5 8.5l19 -42q-26 -17 -52 -28t-58 -11
q-44 0 -66 31t-42 90l-62 179l-142 -302h-165z" />
    <glyph glyph-name="psi" unicode="&#x3c8;" horiz-adv-x="718" 
d="M377 -240v230q-134 1 -207.5 65.5t-73.5 185.5v181q0 38 -16.5 49t-48.5 12h-4v53h220v-303q0 -74 30 -115.5t100 -50.5v693h60v-694q77 7 119.5 66.5t42.5 152.5q0 62 -14 99.5t-33.5 57.5t-36.5 26q0 32 14.5 54t43.5 22t51.5 -31.5t35 -84t12.5 -115.5
q0 -75 -22 -143.5t-73.5 -115.5t-139.5 -60v-234h-60z" />
    <glyph glyph-name="omega" unicode="&#x3c9;" horiz-adv-x="800" 
d="M252 -10q-98 0 -151.5 64t-53.5 192q0 95 38.5 169.5t103.5 138.5l71 -45q-31 -54 -45 -114t-14 -151q0 -65 13 -104.5t33 -57t40 -17.5q29 0 49 22.5t27 71.5q-15 47 -21.5 77t-6.5 61q0 44 17 63t48 19q32 0 48.5 -19t16.5 -63q0 -31 -7 -60.5t-21 -76.5
q8 -49 27.5 -72t48.5 -23q21 0 40.5 17.5t32.5 57t13 104.5q0 91 -13.5 151t-45.5 114l71 45q65 -64 103.5 -138.5t38.5 -169.5q0 -128 -53.5 -192t-151.5 -64q-61 0 -94 28.5t-55 77.5q-22 -49 -54 -77.5t-93 -28.5z" />
    <glyph glyph-name="iotadieresis" unicode="&#x3ca;" horiz-adv-x="393" 
d="M259 -10q-78 0 -122 34.5t-44 120.5v391h151v-372q0 -49 16.5 -71t50.5 -22q18 0 37.5 2t35.5 5v-67q-13 -6 -47 -13.5t-78 -7.5zM274 626q-24 0 -42 14t-18 48q0 35 18 48.5t42 13.5q23 0 41 -13.5t18 -48.5q0 -34 -18 -48t-41 -14zM68 626q-23 0 -41 14t-18 48
q0 35 18 48.5t41 13.5t41.5 -13.5t18.5 -48.5q0 -34 -18.5 -48t-41.5 -14z" />
    <glyph glyph-name="upsilondieresis" unicode="&#x3cb;" horiz-adv-x="633" 
d="M330 -10q-118 0 -176 60t-58 160v212q0 38 -15.5 49t-47.5 12h-6v53h220v-326q0 -78 32 -111.5t89 -33.5q75 0 110.5 60.5t35.5 155.5q0 64 -19 102.5t-45.5 58.5t-48.5 26q0 32 17.5 54t51.5 22q51 0 84 -64t33 -174q0 -58 -11.5 -114.5t-40 -102t-78.5 -72.5t-127 -27z
M438 626q-24 0 -42 14t-18 48q0 35 18 48.5t42 13.5q23 0 41 -13.5t18 -48.5q0 -34 -18 -48t-41 -14zM232 626q-23 0 -41 14t-18 48q0 35 18 48.5t41 13.5t41.5 -13.5t18.5 -48.5q0 -34 -18.5 -48t-41.5 -14z" />
    <glyph glyph-name="omicrontonos" unicode="&#x3cc;" horiz-adv-x="613" 
d="M305 -10q-120 0 -189 69.5t-69 210.5t66 210t195 69q120 0 189 -69t69 -210t-66.5 -210.5t-194.5 -69.5zM307 53q58 0 81 55.5t23 161.5q0 107 -23.5 161t-81.5 54t-81 -54t-23 -161q0 -106 23.5 -161.5t81.5 -55.5zM246 606v15q12 36 27 86t22 89h136v-12
q-10 -25 -29 -56.5t-42 -63.5t-44 -58h-70z" />
    <glyph glyph-name="upsilontonos" unicode="&#x3cd;" horiz-adv-x="633" 
d="M286 606v15q12 36 27 86t22 89h136v-12q-10 -25 -29 -56.5t-42 -63.5t-44 -58h-70zM330 -10q-118 0 -176 60t-58 160v212q0 38 -15.5 49t-47.5 12h-6v53h220v-326q0 -78 32 -111.5t89 -33.5q75 0 110.5 60.5t35.5 155.5q0 64 -19 102.5t-45.5 58.5t-48.5 26q0 32 17.5 54
t51.5 22q51 0 84 -64t33 -174q0 -58 -11.5 -114.5t-40 -102t-78.5 -72.5t-127 -27z" />
    <glyph glyph-name="omegatonos" unicode="&#x3ce;" horiz-adv-x="800" 
d="M252 -10q-98 0 -151.5 64t-53.5 192q0 95 38.5 169.5t103.5 138.5l71 -45q-31 -54 -45 -114t-14 -151q0 -65 13 -104.5t33 -57t40 -17.5q29 0 49 22.5t27 71.5q-15 47 -21.5 77t-6.5 61q0 44 17 63t48 19q32 0 48.5 -19t16.5 -63q0 -31 -7 -60.5t-21 -76.5
q8 -49 27.5 -72t48.5 -23q21 0 40.5 17.5t32.5 57t13 104.5q0 91 -13.5 151t-45.5 114l71 45q65 -64 103.5 -138.5t38.5 -169.5q0 -128 -53.5 -192t-151.5 -64q-61 0 -94 28.5t-55 77.5q-22 -49 -54 -77.5t-93 -28.5zM350 606v15q12 36 27 86t22 89h136v-12
q-10 -25 -29 -56.5t-42 -63.5t-44 -58h-70z" />
    <glyph glyph-name="uni0401" unicode="&#x401;" horiz-adv-x="653" 
d="M28 0v53h42q21 0 36 10t15 50v483q0 43 -14.5 54t-36.5 11h-42v53h555l4 -184h-70l-5 47q-4 37 -18.5 56.5t-45.5 19.5h-168v-250h237v-60h-237v-282h200q30 0 44.5 21.5t19.5 54.5l8 47h69l-7 -184h-586zM439 791q-24 0 -42 14t-18 48q0 35 18 48.5t42 13.5
q23 0 41 -13.5t18 -48.5q0 -34 -18 -48t-41 -14zM233 791q-23 0 -41 14t-18 48q0 35 18 48.5t41 13.5t41.5 -13.5t18.5 -48.5q0 -34 -18.5 -48t-41.5 -14z" />
    <glyph glyph-name="uni0402" unicode="&#x402;" horiz-adv-x="824" 
d="M134 0v53h42q22 0 36.5 11t14.5 54v535h-60q-45 0 -62 -19t-21 -52l-7 -62h-67l5 194h583l5 -194h-67l-7 62q-4 33 -21 52t-62 19h-60v-244q25 9 67 19t92 10q77 0 130.5 -19.5t81 -66.5t27.5 -130q0 -86 -26 -134.5t-75.5 -68t-119.5 -19.5h-27v58h11q25 0 42.5 10
t26.5 42t9 98t-15 98t-41.5 42t-61.5 10q-37 0 -70.5 -8t-50.5 -16v-216q0 -43 14.5 -54t36.5 -11h42v-53h-345z" />
    <glyph glyph-name="uni0403" unicode="&#x403;" horiz-adv-x="591" 
d="M28 0v53h42q22 0 36.5 11t14.5 54v478q0 43 -14.5 54t-36.5 11h-42v53h546l7 -196h-56l-12 48q-11 44 -33 65.5t-63 21.5h-137v-539q0 -40 15 -50.5t36 -10.5h62v-53h-365zM236 771v13q15 19 33.5 45t36 53t27.5 49h157v-10q-9 -13 -30.5 -33t-48.5 -42t-55 -41.5
t-52 -33.5h-68z" />
    <glyph glyph-name="uni0404" unicode="&#x404;" horiz-adv-x="668" 
d="M401 -10q-116 0 -193 46t-115 128.5t-38 193.5q0 108 39 190.5t116 129t190 46.5q115 0 171.5 -33.5t56.5 -82.5q0 -37 -32 -62t-93 -25q0 33 -10 65t-34 53t-66 21q-90 0 -128 -70.5t-42 -201.5h235v-60h-235q5 -130 51 -194t151 -64q49 0 84 14.5t59.5 36.5t41.5 44
q17 -14 17 -43q0 -28 -21 -58.5t-70 -52t-135 -21.5z" />
    <glyph glyph-name="uni0405" unicode="&#x405;" horiz-adv-x="586" 
d="M264 -10q-89 0 -140.5 21.5t-72.5 54t-21 64.5q0 34 16 54.5t42 29.5t55 9q0 -85 38.5 -129t98.5 -44q59 0 91.5 31t32.5 77q0 51 -41.5 82t-125.5 65q-70 29 -111 60.5t-58.5 70t-17.5 87.5q0 61 32 106t87.5 70t125.5 25q110 0 161.5 -33.5t51.5 -82.5q0 -35 -30.5 -59
t-92.5 -24q0 28 -10.5 60t-33.5 55t-62 23q-40 0 -69.5 -23.5t-29.5 -68.5q0 -28 13 -52t49 -47.5t103 -50.5q103 -42 147 -90t44 -122q0 -64 -33.5 -113.5t-94.5 -77.5t-144 -28z" />
    <glyph glyph-name="uni0406" unicode="&#x406;" horiz-adv-x="401" 
d="M28 0v53h42q22 0 36.5 11t14.5 54v478q0 43 -14.5 54t-36.5 11h-42v53div45v-53h-42q-22 0 -36.5 -11t-14.5 -54v-478q0 -43 14.5 -54t36.5 -11h42v-53h-345z" />
    <glyph glyph-name="uni0407" unicode="&#x407;" horiz-adv-x="401" 
d="M28 0v53h42q22 0 36.5 11t14.5 54v478q0 43 -14.5 54t-36.5 11h-42v53div45v-53h-42q-22 0 -36.5 -11t-14.5 -54v-478q0 -43 14.5 -54t36.5 -11h42v-53h-345zM303 791q-24 0 -42 14t-18 48q0 35 18 48.5t42 13.5q23 0 41 -13.5t18 -48.5q0 -34 -18 -48t-41 -14zM97 791
q-23 0 -41 14t-18 48q0 35 18 48.5t41 13.5t41.5 -13.5t18.5 -48.5q0 -34 -18.5 -48t-41.5 -14z" />
    <glyph glyph-name="uni0408" unicode="&#x408;" horiz-adv-x="397" 
d="M-21 -240v58h18q32 0 61 17t47 56t18 106v603q0 40 -15 50.5t-36 10.5h-42v53div45v-53h-42q-22 0 -37 -11t-15 -54v-598q0 -68 -22 -114t-59.5 -73t-85.5 -39t-99 -12h-36z" />
    <glyph glyph-name="uni0409" unicode="&#x409;" horiz-adv-x="955" 
d="M80 -7q-36 0 -58 19.5t-22 55.5q0 31 15 49t34 18q0 -19 12.5 -33t31.5 -14q33 0 56.5 27t43.5 103q10 39 19 87t15.5 98t10.5 94.5t6.5 77.5t2.5 46q0 28 -23.5 34t-56.5 6h-15v53h568v-53h-61q-27 0 -40 -13.5t-13 -46.5v-199h53q96 0 154.5 -25.5t85 -70.5t26.5 -104
q0 -90 -66 -146t-205 -56h-299v53h42q30 0 40.5 15.5t10.5 50.5v542h-130q-4 -83 -13.5 -176t-23.5 -180t-34 -153q-27 -91 -69 -125t-98 -34zM606 59div9q61 0 86 34t25 104q0 80 -28.5 113.5t-93.5 33.5h-28v-285z" />
    <glyph glyph-name="uni040A" unicode="&#x40a;" horiz-adv-x="1016" 
d="M28 0v53h42q21 0 36 11t15 54v482q0 40 -15.5 50.5t-35.5 10.5h-42v53div35v-53h-33q-21 0 -36 -11t-15 -54v-193h230v193q0 41 -14 53t-37 12h-32v53div35v-53h-41q-27 0 -40 -13.5t-13 -46.5v-199h53q96 0 154.5 -25.5t85 -70.5t26.5 -104q0 -90 -66 -146t-205 -56h-289
v53div2q30 0 40.5 15.5t10.5 50.5v223h-230v-224q0 -43 15 -54t36 -11div3v-53h-335zM667 59div9q61 0 86 34t25 104q0 80 -28.5 113.5t-93.5 33.5h-28v-285z" />
    <glyph glyph-name="uni040B" unicode="&#x40b;" horiz-adv-x="885" 
d="M134 0v53h42q22 0 36.5 11t14.5 54v535h-60q-45 0 -62 -19t-21 -52l-7 -62h-67l5 194h583l5 -194h-67l-7 62q-4 33 -21 52t-62 19h-60v-246q25 9 71 20t105 11q69 0 118.5 -19.5t76.5 -66.5t27 -130v-104q0 -43 14.5 -54t36.5 -11div2v-53h-335v53h42q22 0 36.5 11
t14.5 54v97q0 77 -27 110t-91 33q-37 0 -70.5 -8t-50.5 -16v-216q0 -43 14.5 -54t36.5 -11h42v-53h-345z" />
    <glyph glyph-name="uni040C" unicode="&#x40c;" horiz-adv-x="720" 
d="M323 771v13q15 19 33.5 45t36 53t27.5 49h157v-10q-9 -13 -30.5 -33t-48.5 -42t-55 -41.5t-52 -33.5h-68zM28 0v53h42q21 0 36 10t15 50v487q0 40 -15 50.5t-36 10.5h-42v53div35v-53h-42q-22 0 -37 -11t-15 -54v-209q33 0 50 6.5t33 22.5q14 14 36 50t49 91
q29 59 54.5 95t55.5 52t70 16q42 0 60.5 -17.5t18.5 -45.5q0 -31 -13 -50t-36 -24q-4 20 -17 36t-39 16q-31 0 -51.5 -25.5t-52.5 -85.5q-33 -63 -53.5 -93.5t-44.5 -48.5q44 0 79.5 -26t58.5 -68l81 -145q27 -48 51 -69t55 -21h6v-53h-71q-77 0 -116.5 24.5t-65.5 70.5
l-95 173q-16 29 -29.5 42t-30.5 16.5t-43 3.5v-212q0 -43 15 -54t37 -11h42v-53h-335z" />
    <glyph glyph-name="uni040E" unicode="&#x40e;" horiz-adv-x="694" 
d="M112 0v58h44q34 0 67.5 8.5t59.5 25t37 40.5l-236 476q-14 29 -28 41t-43 12h-13v53div43v-53h-36q-25 0 -39.5 -9t-14.5 -32q0 -14 5 -27.5t12 -29.5l76 -161q17 -35 34.5 -76.5t24.5 -74.5q6 20 14 42t18 50l73 200q19 51 19 69q0 49 -66 49h-21v53h252v-53h-19
q-29 0 -43 -15.5t-33 -62.5l-146 -376q-25 -64 -47.5 -104.5t-51.5 -63t-72 -31t-108 -8.5h-62zM358 771q-67 0 -109.5 13t-65 35t-32.5 50t-13 58h125q10 -101 95 -101t95 101h125q-3 -30 -13 -58t-32.5 -50t-64.5 -35t-110 -13z" />
    <glyph glyph-name="uni040F" unicode="&#x40f;" horiz-adv-x="809" 
d="M372 -210q0 109 -30 159.5t-82 50.5h-232v53h42q20 0 35.5 10.5t15.5 50.5v482q0 43 -15 54t-36 11h-42v53div45v-53h-43q-21 0 -36 -11t-15 -54v-535h251v535q0 43 -15 54t-36 11h-43v53div45v-53h-42q-20 0 -35.5 -10t-15.5 -50v-483q0 -43 15 -54t36 -11h42v-53h-236
q-54 0 -80.5 -49.5t-26.5 -160.5h-66z" />
    <glyph glyph-name="uni0410" unicode="&#x410;" horiz-adv-x="753" 
d="M4 0v53h12q27 0 45.5 14t34.5 59l217 588h137l209 -589q15 -42 33.5 -57t42.5 -15h18v-53h-330v53div9q15 0 29 9t14 30q0 12 -3 23.5t-6 19.5l-35 100h-243l-29 -86q-4 -12 -8 -28.5t-4 -28.5q0 -19 14 -29t31 -10h42v-53h-260zM239 296h202l-53 164q-10 34 -22.5 76
t-20.5 77q-9 -32 -22 -72.5t-25 -75.5z" />
    <glyph glyph-name="uni0411" unicode="&#x411;" horiz-adv-x="651" 
d="M41 0v53h42q30 0 40.5 15.5t10.5 50.5v477q0 41 -14 53t-37 12h-42v53h537l5 -194h-67l-7 62q-4 33 -21 52t-62 19h-134v-251h63q96 0 154.5 -25.5t85 -70.5t26.5 -104q0 -90 -66 -146t-205 -56h-309zM292 59h49q61 0 86 34t25 104q0 80 -28.5 113.5t-93.5 33.5h-38v-285
z" />
    <glyph glyph-name="uni0412" unicode="&#x412;" horiz-adv-x="672" 
d="M28 0v53h41q22 0 37 11t15 54v479q0 40 -15.5 52t-36.5 12h-41v53h292q143 0 214.5 -44t71.5 -138q0 -66 -35 -100t-91 -52v-5q69 -17 112.5 -61.5t43.5 -117.5q0 -196 -286 -196h-322zM279 404div8q70 0 95.5 30t25.5 98t-27.5 94.5t-95.5 26.5h-36v-249zM279 61h66
q67 0 95 31t28 107q0 74 -26 109t-95 35h-68v-282z" />
    <glyph glyph-name="uni0413" unicode="&#x413;" horiz-adv-x="591" 
d="M28 0v53h42q22 0 36.5 11t14.5 54v478q0 43 -14.5 54t-36.5 11h-42v53h546l7 -196h-56l-12 48q-11 44 -33 65.5t-63 21.5h-137v-539q0 -40 15 -50.5t36 -10.5h62v-53h-365z" />
    <glyph glyph-name="uni0414" unicode="&#x414;" horiz-adv-x="708" 
d="M8 -210v271h61q49 96 91.5 195.5t69 193t26.5 170.5q0 28 -27 34.5t-60 6.5h-3v53h498v-53h-13q-28 0 -49 -11.5t-21 -55.5v-461q0 -47 24 -59.5t58 -12.5h20v-271h-66q0 111 -29.5 160.5t-98.5 49.5h-287q-69 0 -98.5 -49.5t-29.5 -160.5h-66zM147 61h276v592h-95
q0 -74 -17 -153t-44.5 -157t-59 -150t-60.5 -132z" />
    <glyph glyph-name="uni0415" unicode="&#x415;" horiz-adv-x="653" 
d="M28 0v53h42q21 0 36 10t15 50v483q0 43 -14.5 54t-36.5 11h-42v53h555l4 -184h-70l-5 47q-4 37 -18.5 56.5t-45.5 19.5h-168v-250h237v-60h-237v-282h200q30 0 44.5 21.5t19.5 54.5l8 47h69l-7 -184h-586z" />
    <glyph glyph-name="uni0416" unicode="&#x416;" horiz-adv-x="1040" 
d="M0 0v53h6q32 0 55.5 21t50.5 69l81 145q23 42 58.5 68t79.5 26q-24 18 -44.5 48.5t-53.5 93.5q-31 60 -52 85.5t-52 25.5q-25 0 -38 -16t-18 -36q-22 5 -35.5 24t-13.5 50q0 28 18.5 45.5t60.5 17.5q41 0 70.5 -16t55 -52t54.5 -95q27 -55 49.5 -91t35.5 -50
q16 -16 33 -22.5t50 -6.5v213q0 40 -15 50.5t-36 10.5h-42v53div25v-53h-42q-22 0 -37 -11t-15 -54v-209q33 0 50 6.5t33 22.5q14 14 36 50t49 91q29 59 54.5 95t55.5 52t70 16q42 0 60.5 -17.5t18.5 -45.5q0 -31 -13 -50t-36 -24q-4 20 -17 36t-39 16q-31 0 -51.5 -25.5
t-52.5 -85.5q-33 -63 -53.5 -93.5t-44.5 -48.5q44 0 79.5 -26t58.5 -68l81 -145q27 -48 51 -69t55 -21h6v-53h-71q-51 0 -83 11t-52 32t-37 52l-95 173q-16 29 -32 42t-35.5 16.5t-45.5 3.5v-212q0 -43 15 -54t37 -11h42v-53h-325v53h42q21 0 36 10t15 50v217
q-26 0 -45.5 -3.5t-35.5 -16.5t-32 -42l-95 -173q-17 -31 -37 -52t-51.5 -32t-83.5 -11h-71z" />
    <glyph glyph-name="uni0417" unicode="&#x417;" horiz-adv-x="617" 
d="M286 -11q-87 0 -142.5 21t-81.5 55.5t-26 72.5q0 40 27 63.5t79 23.5q9 -78 44 -125t103 -47q65 0 101.5 35t36.5 110q0 67 -41 103.5t-133 36.5h-92v62h90q152 0 152 146q0 56 -24.5 86.5t-82.5 30.5q-42 0 -66 -21.5t-33.5 -57t-9.5 -76.5q-36 0 -66 6.5t-47.5 24.5
t-17.5 52q0 36 29 66t83.5 48.5t128.5 18.5q76 0 134.5 -17.5t91.5 -54.5t33 -95q0 -52 -22 -89t-58.5 -60t-81.5 -34q28 -3 60 -12.5t61 -29t47.5 -50.5t18.5 -78q0 -77 -40 -124.5t-107 -69t-148 -21.5z" />
    <glyph glyph-name="uni0418" unicode="&#x418;" horiz-adv-x="819" 
d="M28 0v53h42q21 0 36 11t15 54v482q0 40 -15.5 50.5t-35.5 10.5h-42v53div45v-53h-43q-21 0 -36 -11t-15 -54v-352l261 335v17q0 43 -15 54t-36 11h-43v53div45v-53h-42q-21 0 -36 -11t-15 -54v-483q0 -40 15.5 -50t35.5 -10h42v-53h-345v53h43q21 0 36 11t15 54v375
l-261 -335v-40q0 -43 15 -54t36 -11h43v-53h-345z" />
    <glyph glyph-name="uni0419" unicode="&#x419;" horiz-adv-x="819" 
d="M28 0v53h42q21 0 36 11t15 54v482q0 40 -15.5 50.5t-35.5 10.5h-42v53div45v-53h-43q-21 0 -36 -11t-15 -54v-352l261 335v17q0 43 -15 54t-36 11h-43v53div45v-53h-42q-21 0 -36 -11t-15 -54v-483q0 -40 15.5 -50t35.5 -10h42v-53h-345v53h43q21 0 36 11t15 54v375
l-261 -335v-40q0 -43 15 -54t36 -11h43v-53h-345zM407 771q-67 0 -109.5 13t-65 35t-32.5 50t-13 58h125q10 -101 95 -101t95 101h125q-3 -30 -13 -58t-32.5 -50t-64.5 -35t-110 -13z" />
    <glyph glyph-name="uni041A" unicode="&#x41a;" horiz-adv-x="720" 
d="M28 0v53h42q21 0 36 10t15 50v487q0 40 -15 50.5t-36 10.5h-42v53div35v-53h-42q-22 0 -37 -11t-15 -54v-209q33 0 50 6.5t33 22.5q14 14 36 50t49 91q29 59 54.5 95t55.5 52t70 16q42 0 60.5 -17.5t18.5 -45.5q0 -31 -13 -50t-36 -24q-4 20 -17 36t-39 16
q-31 0 -51.5 -25.5t-52.5 -85.5q-33 -63 -53.5 -93.5t-44.5 -48.5q44 0 79.5 -26t58.5 -68l81 -145q27 -48 51 -69t55 -21h6v-53h-71q-77 0 -116.5 24.5t-65.5 70.5l-95 173q-16 29 -29.5 42t-30.5 16.5t-43 3.5v-212q0 -43 15 -54t37 -11h42v-53h-335z" />
    <glyph glyph-name="uni041B" unicode="&#x41b;" horiz-adv-x="727" 
d="M80 -7q-36 0 -58 19.5t-22 55.5q0 31 15 49t34 18q0 -19 12.5 -33t31.5 -14q33 0 56.5 27t43.5 103q10 39 19 87t15.5 98t10.5 94.5t6.5 77.5t2.5 46q0 28 -23.5 34t-56.5 6h-15v53h547v-53h-42q-21 0 -36 -11t-15 -54v-483q0 -40 15.5 -50t35.5 -10h42v-53h-345v53h43
q21 0 36 11t15 54v543h-130q-3 -62 -9 -131t-15 -137.5t-20.5 -130.5t-26.5 -111q-27 -91 -69 -124.5t-98 -33.5z" />
    <glyph glyph-name="uni041C" unicode="&#x41c;" horiz-adv-x="952" 
d="M28 0v53h42q21 0 36 10t15 50v487q0 40 -15 50.5t-36 10.5h-42v53h288l166 -483l159 483h283v-53h-42q-22 0 -36.5 -11t-14.5 -54v-478q0 -43 14.5 -54t36.5 -11h42v-53h-320v53h10q32 0 47.5 9.5t15.5 46.5v506l-202 -615h-68l-211 615v-497q0 -43 19.5 -54t54.5 -11h6
v-53h-248z" />
    <glyph glyph-name="uni041D" unicode="&#x41d;" horiz-adv-x="819" 
d="M28 0v53h42q21 0 36 11t15 54v482q0 40 -15.5 50.5t-35.5 10.5h-42v53div45v-53h-43q-21 0 -36 -11t-15 -54v-193h261v193q0 43 -15 54t-36 11h-43v53div45v-53h-42q-21 0 -36 -11t-15 -54v-483q0 -40 15.5 -50t35.5 -10h42v-53h-345v53h43q21 0 36 11t15 54v224h-261v-224
q0 -43 15 -54t36 -11h43v-53h-345z" />
    <glyph glyph-name="uni041E" unicode="&#x41e;" horiz-adv-x="787" 
d="M394 -10q-114 0 -189 46t-112.5 129t-37.5 194t37.5 193t113 127.5t189.5 45.5q108 0 183.5 -45.5t114.5 -128t39 -193.5t-39.5 -193.5t-114.5 -128.5t-184 -46zM394 55q94 0 132 80t38 223t-38 222.5t-131 79.5q-94 0 -133 -79.5t-39 -222.5t39 -223t132 -80z" />
    <glyph glyph-name="uni041F" unicode="&#x41f;" horiz-adv-x="809" 
d="M28 0v53h42q21 0 36 11t15 54v482q0 40 -15.5 50.5t-35.5 10.5h-42v53h753v-53h-42q-21 0 -36 -11t-15 -54v-483q0 -40 15.5 -50t35.5 -10h42v-53h-345v53h43q21 0 36 11t15 54v535h-251v-535q0 -43 15 -54t36 -11h43v-53h-345z" />
    <glyph glyph-name="uni0420" unicode="&#x420;" horiz-adv-x="638" 
d="M28 0v53h42q22 0 36.5 11t14.5 54v482q0 40 -15 50.5t-36 10.5h-42v53div07q139 0 206 -57t67 -155q0 -60 -28.5 -112t-93.5 -84.5t-173 -32.5h-34v-160q0 -40 16 -50t37 -10h61v-53h-365zM279 331h24q74 0 105.5 38.5t31.5 128.5q0 80 -27.5 118.5t-94.5 38.5h-39v-324z
" />
    <glyph glyph-name="uni0421" unicode="&#x421;" horiz-adv-x="668" 
d="M401 -10q-116 0 -193 46t-115 128.5t-38 193.5q0 108 39 190.5t116 129t190 46.5q115 0 171.5 -33.5t56.5 -82.5q0 -37 -32 -62t-93 -25q0 33 -10 65t-34 53t-66 21q-95 0 -132.5 -78.5t-37.5 -223.5t45.5 -216.5t156.5 -71.5q49 0 84 14.5t59.5 36.5t41.5 44
q17 -14 17 -43q0 -28 -21 -58.5t-70 -52t-135 -21.5z" />
    <glyph glyph-name="uni0422" unicode="&#x422;" horiz-adv-x="653" 
d="M154 0v53h42q22 0 36.5 11t14.5 54v535h-80q-45 0 -62 -19t-21 -52l-7 -62h-67l5 194h623l5 -194h-67l-7 62q-4 33 -21 52t-62 19h-80v-535q0 -43 14.5 -54t36.5 -11h42v-53h-345z" />
    <glyph glyph-name="uni0423" unicode="&#x423;" horiz-adv-x="694" 
d="M112 0v58h44q34 0 67.5 8.5t59.5 25t37 40.5l-236 476q-14 29 -28 41t-43 12h-13v53div43v-53h-36q-25 0 -39.5 -9t-14.5 -32q0 -14 5 -27.5t12 -29.5l76 -161q17 -35 34.5 -76.5t24.5 -74.5q6 20 14 42t18 50l73 200q19 51 19 69q0 49 -66 49h-21v53h252v-53h-19
q-29 0 -43 -15.5t-33 -62.5l-146 -376q-25 -64 -47.5 -104.5t-51.5 -63t-72 -31t-108 -8.5h-62z" />
    <glyph glyph-name="uni0424" unicode="&#x424;" horiz-adv-x="850" 
d="M257 0v53h13q34 0 58 10.5t24 50.5v20h-31q-81 0 -136.5 20t-89.5 54t-49.5 76t-15.5 87q0 98 65.5 158.5t201.5 60.5h55v10q0 40 -24 50.5t-58 10.5h-13v53div36v-53h-13q-34 0 -58 -10.5t-24 -50.5v-10h55q137 0 202 -60.5t65 -158.5q0 -45 -15.5 -87t-49.5 -76
t-89.5 -54t-136.5 -20h-31v-20q0 -40 24 -50.5t58 -10.5h13v-53h-336zM323 192h29v339h-42q-70 0 -99.5 -40t-29.5 -124q0 -95 33 -135t109 -40zM498 192h29q76 0 109 40t33 135q0 84 -29 124t-100 40h-42v-339z" />
    <glyph glyph-name="uni0425" unicode="&#x425;" horiz-adv-x="732" 
d="M10 0v53h6q36 0 57.5 19t46.5 51l175 228l-165 257q-16 26 -34 39.5t-52 13.5h-13v53div31v-53h-3q-34 0 -46.5 -8.5t-12.5 -20.5q0 -10 7.5 -26t18.5 -33l83 -124l87 122q9 14 18 31t9 30q0 18 -16.5 23.5t-39.5 5.5h-3v53h234v-53h-9q-29 0 -49.5 -15.5t-49.5 -56.5
l-145 -198l184 -285q20 -31 40.5 -42t39.5 -11h13v-53h-330v53h5q60 0 60 33q0 11 -5.5 24t-27.5 45l-92 139l-108 -146q-9 -13 -17.5 -29t-8.5 -32t14 -25t47 -9divv-53h-252z" />
    <glyph glyph-name="uni0426" unicode="&#x426;" horiz-adv-x="815" 
d="M718 -210q0 111 -29.5 160.5t-98.5 49.5h-562v53h42q20 0 35.5 10.5t15.5 50.5v482q0 43 -15 54t-36 11h-42v53div45v-53h-43q-21 0 -36 -11t-15 -54v-535h251v535q0 43 -15 54t-36 11h-43v53div45v-53h-42q-20 0 -35.5 -10t-15.5 -50v-495q0 -23 17 -34t28 -11h51v-271
h-66z" />
    <glyph glyph-name="uni0427" unicode="&#x427;" horiz-adv-x="780" 
d="M407 0v53h42q22 0 36.5 11t14.5 54v172q-25 -10 -69 -22.5t-109 -12.5q-67 0 -116.5 19.5t-76.5 66.5t-27 130v125q0 43 -14.5 54t-36.5 11h-32v53div35v-53h-42q-22 0 -36.5 -11t-14.5 -54v-122q0 -79 28 -109t90 -30q38 0 71 8.5t50 15.5v237q0 43 -14.5 54t-36.5 11
h-42v53div45v-53h-42q-22 0 -36.5 -11t-14.5 -54v-478q0 -43 14.5 -54t36.5 -11h42v-53h-345z" />
    <glyph glyph-name="uni0428" unicode="&#x428;" horiz-adv-x="1138" 
d="M28 0v53h42q20 0 35.5 10.5t15.5 50.5v482q0 43 -15 54t-36 11h-42v53div29v-53h-33q-21 0 -36 -11t-15 -54v-535h220v535q0 43 -15 54t-36 11h-33v53div19v-53h-32q-20 0 -35.5 -10t-15.5 -50v-540h220v535q0 43 -15 54t-36 11h-33v53div29v-53h-42q-21 0 -36 -11t-15 -54
v-482q0 -40 15.5 -50.5t35.5 -10.5h42v-53h-1082z" />
    <glyph glyph-name="uni0429" unicode="&#x429;" horiz-adv-x="1144" 
d="M1047 -210q0 109 -28 159.5t-93 50.5h-898v53h42q20 0 35.5 10.5t15.5 50.5v482q0 43 -15 54t-36 11h-42v53div29v-53h-33q-21 0 -36 -11t-15 -54v-535h220v535q0 43 -15 54t-36 11h-33v53div19v-53h-32q-20 0 -35.5 -10t-15.5 -50v-540h220v535q0 43 -15 54t-36 11h-33v53
div29v-53h-42q-21 0 -36 -11t-15 -54v-493q0 -20 14.5 -31t36.5 -11h45v-271h-66z" />
    <glyph glyph-name="uni042A" unicode="&#x42a;" horiz-adv-x="744" 
d="M134 0v53h42q30 0 40.5 15.5t10.5 50.5v534h-60q-45 0 -62 -19t-21 -52l-7 -62h-67l5 194h484v-53h-61q-27 0 -40 -13.5t-13 -46.5v-199h63q96 0 154.5 -25.5t85 -70.5t26.5 -104q0 -90 -66 -146t-205 -56h-309zM385 59h49q61 0 86 34t25 104q0 80 -28.5 113.5
t-93.5 33.5h-38v-285z" />
    <glyph glyph-name="uni042B" unicode="&#x42b;" horiz-adv-x="988" 
d="M28 0v53h42q30 0 40.5 15.5t10.5 50.5v477q0 41 -14 53t-37 12h-42v53div65v-53h-61q-27 0 -40 -13.5t-13 -46.5v-199h53q96 0 154.5 -25.5t85 -70.5t26.5 -104q0 -90 -66 -146t-205 -56h-299zM615 0v53h42q22 0 36.5 11t14.5 54v478q0 43 -14.5 54t-36.5 11h-42v53div45
v-53h-42q-22 0 -36.5 -11t-14.5 -54v-478q0 -43 14.5 -54t36.5 -11h42v-53h-345zM279 59div9q61 0 86 34t25 104q0 80 -28.5 113.5t-93.5 33.5h-28v-285z" />
    <glyph glyph-name="uni042C" unicode="&#x42c;" horiz-adv-x="638" 
d="M28 0v53h42q30 0 40.5 15.5t10.5 50.5v477q0 41 -14 53t-37 12h-42v53div65v-53h-61q-27 0 -40 -13.5t-13 -46.5v-199h63q96 0 154.5 -25.5t85 -70.5t26.5 -104q0 -90 -66 -146t-205 -56h-309zM279 59h49q61 0 86 34t25 104q0 80 -28.5 113.5t-93.5 33.5h-38v-285z" />
    <glyph glyph-name="uni042D" unicode="&#x42d;" horiz-adv-x="682" 
d="M293 -10q-94 0 -150 22t-81 57t-25 75q0 39 27.5 61.5t74.5 22.5q9 -75 46 -124.5t109 -49.5q54 0 89.5 35.5t54.5 97.5t21 141h-235v60h235q-3 131 -39 201.5t-124 70.5q-40 0 -66 -22t-38 -55t-12 -67q-56 0 -91 22t-35 63q0 32 25.5 60t78 45.5t133.5 17.5
q115 0 189.5 -46t110.5 -126t36 -182q0 -117 -39.5 -202t-114 -131.5t-180.5 -46.5z" />
    <glyph glyph-name="uni042E" unicode="&#x42e;" horiz-adv-x="1112" 
d="M739 -10q-105 0 -175 43.5t-105.5 123t-38.5 185.5h-141v-224q0 -43 15 -54t36 -11h43v-53h-345v53h42q21 0 36 11t15 54v482q0 40 -15.5 50.5t-35.5 10.5h-42v53div45v-53h-43q-21 0 -36 -11t-15 -54v-193h142q7 98 44 170.5t105.5 112t169.5 39.5q102 0 172.5 -45.5
t107.5 -128t37 -193.5t-37 -193.5t-108 -128.5t-173 -46zM739 55q83 0 116.5 80t33.5 223t-33.5 222.5t-115.5 79.5q-83 0 -117.5 -79.5t-34.5 -222.5t34.5 -223t116.5 -80z" />
    <glyph glyph-name="uni042F" unicode="&#x42f;" horiz-adv-x="706" 
d="M-5 0v53h4q29 0 54.5 19t49.5 63l110 203q-33 14 -63 38.5t-49 62t-19 90.5q0 90 66 137.5t208 47.5div22v-53h-42q-20 0 -35.5 -10.5t-15.5 -50.5v-487q0 -40 15.5 -50t35.5 -10h42v-53h-345v53h43q20 0 35.5 10t15.5 50v197h-75l-100 -200q-24 -48 -53 -71.5t-70 -31
t-101 -7.5h-33zM371 368h56v287h-54q-67 0 -95 -32t-28 -108q0 -73 26 -110t95 -37z" />
    <glyph glyph-name="uni0430" unicode="&#x430;" horiz-adv-x="599" 
d="M202 -10q-66 0 -111.5 40t-45.5 123q0 81 56 120t168 43l82 3v55q0 50 -10.5 82t-51.5 32q-38 0 -52.5 -30.5t-14.5 -77.5q-67 0 -101 15t-34 52t28 59t75 32.5t103 10.5q105 0 157.5 -38t52.5 -132v-255q0 -41 13 -56t47 -15h4v-53h-186l-21 69h-9q-22 -27 -41.5 -44.5
t-44.5 -26t-63 -8.5zM257 63q43 0 68.5 35t25.5 93v75l-45 -3q-60 -3 -83 -31.5t-23 -82.5q0 -86 57 -86z" />
    <glyph glyph-name="uni0431" unicode="&#x431;" horiz-adv-x="613" 
d="M304 -10q-127 0 -191.5 80.5t-64.5 248.5q0 85 10.5 157t39.5 127t81.5 88.5t136.5 41.5q74 8 125 13.5t64 24.5h47q-1 -51 -17.5 -80.5t-46.5 -45.5t-74.5 -24t-102.5 -16q-61 -5 -98.5 -15.5t-57 -32t-27.5 -57.5t-11 -92h4q18 46 66 78t124 32q127 0 191 -66.5
t64 -196.5q0 -128 -64 -196.5t-198 -68.5zM304 53q60 0 83.5 51.5t23.5 149.5q0 100 -23.5 150.5t-83.5 50.5q-61 0 -81.5 -50.5t-20.5 -150.5q0 -98 24.5 -149.5t77.5 -51.5z" />
    <glyph glyph-name="uni0432" unicode="&#x432;" horiz-adv-x="621" 
d="M17 0v53h12q15 0 31.5 4.5t28 18.5t11.5 42v304q0 27 -12 40t-28.5 17t-30.5 4h-12v53div15q112 0 165.5 -33t53.5 -95q0 -60 -33 -90t-84 -37v-5q39 -3 71.5 -17t52.5 -41t20 -69q0 -66 -52 -107.5t-164 -41.5h-345zM252 305h67q45 0 63.5 24.5t18.5 67.5q0 39 -18 60.5
t-64 21.5h-67v-174zM252 57h71q51 0 73.5 20t22.5 79q0 53 -26 72t-75 19h-66v-190z" />
    <glyph glyph-name="uni0433" unicode="&#x433;" horiz-adv-x="508" 
d="M17 0v53h12q15 0 31.5 4.5t28 18.5t11.5 42v300q0 29 -11.5 42.5t-28 18t-31.5 4.5h-12v53h471v-170h-69l-5 43q-5 47 -20 58.5t-50 11.5h-92v-361q0 -28 11 -42t26.5 -18.5t28.5 -4.5h22v-53h-323z" />
    <glyph glyph-name="uni0434" unicode="&#x434;" horiz-adv-x="625" 
d="M13 -210v267h69q14 23 30 60.5t31 89.5q11 37 20 77t14.5 77t5.5 64q0 37 -24.5 47.5t-57.5 10.5h-4v53h491v-53h-12q-14 0 -31 -4.5t-28.5 -18t-11.5 -42.5v-308q0 -35 22 -45.5t50 -11.5h23v-263h-69l-5 73q-5 75 -33.5 106t-60.5 31h-248q-47 0 -69.5 -31t-27.5 -106
l-5 -73h-69zM152 57h206v422h-107q-3 -77 -17 -156.5t-35 -148.5t-47 -117z" />
    <glyph glyph-name="uni0435" unicode="&#x435;" horiz-adv-x="571" 
d="M306 -10q-127 0 -193 72.5t-66 202.5q0 141 65 212.5t183 71.5q109 0 171.5 -61t62.5 -180v-51h-328q3 -100 37.5 -146t96.5 -46q52 0 88 23.5t53 57.5q27 -15 27 -49q0 -43 -48 -75t-149 -32zM203 321h173q0 77 -18 120t-61 43q-42 0 -67 -41.5t-27 -121.5z" />
    <glyph glyph-name="uni0436" unicode="&#x436;" horiz-adv-x="922" 
d="M0 0v53divq34 0 54.5 13t44.5 54l55 94q26 45 58.5 64t64.5 23q-16 14 -32.5 34t-42.5 58q-27 41 -45 58.5t-36 17.5q-22 0 -34 -14t-16 -37q-24 2 -41.5 18.5t-17.5 44.5q0 23 18.5 42t67.5 19q40 0 65.5 -14t45 -39.5t41.5 -60.5q25 -38 40.5 -62t27.5 -36
q11 -11 26 -16.5t43 -5.5v110q0 29 -11.5 42.5t-28 18t-31.5 4.5h-2v53h283v-53h-2q-13 0 -28.5 -4.5t-26.5 -18t-11 -42.5v-110q28 0 43 5.5t26 16.5q12 12 27.5 36t40.5 62q22 35 41.5 60.5t45.5 39.5t65 14q50 0 68 -19t18 -42q0 -28 -17.5 -44.5t-41.5 -18.5
q-4 23 -16 37t-34 14q-18 0 -36 -17.5t-45 -58.5q-25 -38 -41.5 -58t-33.5 -34q32 -4 64.5 -23t58.5 -64l55 -94q24 -41 44.5 -54t54.5 -13divv-53h-42q-55 0 -93 6.5t-65 26.5t-50 62l-51 95q-22 41 -39.5 52t-49.5 11v-135q0 -28 11 -42t26.5 -18.5t28.5 -4.5h2v-53h-283
v53h2q15 0 31.5 4.5t28 18.5t11.5 42v135q-31 0 -49 -11t-40 -52l-51 -95q-22 -42 -49.5 -62t-65.5 -26.5t-93 -6.5h-42z" />
    <glyph glyph-name="uni0437" unicode="&#x437;" horiz-adv-x="529" 
d="M235 -9q-74 0 -118 16t-63 41.5t-19 51.5q0 17 7.5 28.5t17.5 17.5q17 -35 58.5 -58.5t109.5 -23.5q52 0 80 26t28 66q0 48 -28 69.5t-88 21.5h-67v64h68q38 0 59 14.5t30 38t9 48.5q0 36 -17.5 57.5t-51.5 21.5q-30 0 -48 -17t-25.5 -44t-7.5 -57q-61 0 -83.5 19.5
t-22.5 52.5q0 24 17.5 47.5t59.5 39.5t115 16q104 0 160 -34t56 -98q0 -55 -34 -89t-84 -42v-5q66 -12 101.5 -42.5t35.5 -84.5q0 -74 -63.5 -118t-191.5 -44z" />
    <glyph glyph-name="uni0438" unicode="&#x438;" horiz-adv-x="691" 
d="M17 0v53h12q15 0 31.5 4.5t28 18.5t11.5 42v300q0 29 -11.5 42.5t-28 18t-31.5 4.5h-12v53div03v-53h-2q-13 0 -28.5 -4.5t-26.5 -18t-11 -42.5v-213l187 205v8q0 29 -11 42.5t-26 18t-29 4.5h-2v53div03v-53h-12q-14 0 -31 -4.5t-28.5 -18t-11.5 -42.5v-300
q0 -28 11.5 -42t28.5 -18.5t31 -4.5h12v-53h-303v53h2q14 0 29 4.5t26 18.5t11 42v215l-187 -205v-10q0 -28 11 -42t26.5 -18.5t28.5 -4.5h2v-53h-303z" />
    <glyph glyph-name="uni0439" unicode="&#x439;" horiz-adv-x="691" 
d="M17 0v53h12q15 0 31.5 4.5t28 18.5t11.5 42v300q0 29 -11.5 42.5t-28 18t-31.5 4.5h-12v53div03v-53h-2q-13 0 -28.5 -4.5t-26.5 -18t-11 -42.5v-213l187 205v8q0 29 -11 42.5t-26 18t-29 4.5h-2v53div03v-53h-12q-14 0 -31 -4.5t-28.5 -18t-11.5 -42.5v-300
q0 -28 11.5 -42t28.5 -18.5t31 -4.5h12v-53h-303v53h2q14 0 29 4.5t26 18.5t11 42v215l-187 -205v-10q0 -28 11 -42t26.5 -18.5t28.5 -4.5h2v-53h-303zM345 606q-67 0 -109.5 13t-65 35t-32.5 50t-13 58h125q10 -101 95 -101t95 101h125q-3 -30 -13 -58t-32.5 -50t-64.5 -35
t-110 -13z" />
    <glyph glyph-name="uni043A" unicode="&#x43a;" horiz-adv-x="642" 
d="M17 0v53h12q15 0 31.5 4.5t28 18.5t11.5 42v300q0 29 -11.5 42.5t-28 18t-31.5 4.5h-12v53div03v-53h-2q-13 0 -28.5 -4.5t-26.5 -18t-11 -42.5v-110q24 0 39.5 5.5t26.5 16.5q12 12 27.5 36t40.5 62q22 35 42.5 60.5t46.5 39.5t66 14q50 0 68 -19t18 -42
q0 -28 -17.5 -44.5t-41.5 -18.5q-4 23 -16 37t-34 14q-18 0 -36 -17.5t-45 -58.5q-25 -38 -41.5 -58t-33.5 -34q32 -4 64.5 -23t58.5 -64l55 -94q24 -41 44.5 -54t54.5 -13divv-53h-42q-55 0 -95.5 6.5t-70 26.5t-52.5 62l-51 95q-22 41 -37 52t-42 11v-135q0 -28 11 -42
t26.5 -18.5t28.5 -4.5h2v-53h-303z" />
    <glyph glyph-name="uni043B" unicode="&#x43b;" horiz-adv-x="661" 
d="M84 -7q-40 0 -62 18.5t-22 51.5t18.5 49t36.5 16q0 -18 11.5 -31t30.5 -13q16 0 31.5 7.5t31.5 35.5t33 91q8 28 16.5 66t14.5 75t6 62q0 40 -22.5 51t-55.5 11h-13v53h505v-53h-12q-14 0 -31 -4.5t-28.5 -18t-11.5 -42.5v-300q0 -28 11.5 -42t28.5 -18.5t31 -4.5h12v-53
h-313v53h12q14 0 29 4.5t26 18.5t11 42v361h-113q-10 -92 -25 -174.5t-34 -149.5q-26 -92 -61.5 -127t-91.5 -35z" />
    <glyph glyph-name="uni043C" unicode="&#x43c;" horiz-adv-x="863" 
d="M17 0v53h12q15 0 31.5 4.5t28 18.5t11.5 42v300q0 29 -11.5 42.5t-28 18t-31.5 4.5h-12v53h262l148 -335l151 335h268v-53h-13q-33 0 -57.5 -11.5t-24.5 -55.5v-296q0 -44 24.5 -55.5t57.5 -11.5h13v-53h-324v53divq33 0 57.5 11.5t24.5 55.5v308h-7l-194 -428h-46
l-189 428h-7v-308q0 -44 24.5 -55.5t57.5 -11.5divv-53h-232z" />
    <glyph glyph-name="uni043D" unicode="&#x43d;" horiz-adv-x="691" 
d="M17 0v53h12q15 0 31.5 4.5t28 18.5t11.5 42v300q0 29 -11.5 42.5t-28 18t-31.5 4.5h-12v53div03v-53h-2q-13 0 -28.5 -4.5t-26.5 -18t-11 -42.5v-114h187v114q0 29 -11 42.5t-26 18t-29 4.5h-2v53div03v-53h-12q-14 0 -31 -4.5t-28.5 -18t-11.5 -42.5v-300q0 -28 11.5 -42
t28.5 -18.5t31 -4.5h12v-53h-303v53h2q14 0 29 4.5t26 18.5t11 42v129h-187v-129q0 -28 11 -42t26.5 -18.5t28.5 -4.5h2v-53h-303z" />
    <glyph glyph-name="uni043E" unicode="&#x43e;" horiz-adv-x="613" 
d="M305 -10q-120 0 -189 69.5t-69 210.5t66 210t195 69q120 0 189 -69t69 -210t-66.5 -210.5t-194.5 -69.5zM307 53q58 0 81 55.5t23 161.5q0 107 -23.5 161t-81.5 54t-81 -54t-23 -161q0 -106 23.5 -161.5t81.5 -55.5z" />
    <glyph glyph-name="uni043F" unicode="&#x43f;" horiz-adv-x="671" 
d="M17 0v53h12q15 0 31.5 4.5t28 18.5t11.5 42v304q0 27 -12 40t-28.5 17t-30.5 4h-12v53h637v-53h-12q-14 0 -30.5 -4t-28.5 -17t-12 -40v-304q0 -28 11.5 -42t28.5 -18.5t31 -4.5h12v-53h-303v53h2q14 0 29 4.5t26 18.5t11 42v361h-167v-361q0 -28 11 -42t26.5 -18.5
t28.5 -4.5h2v-53h-303z" />
    <glyph glyph-name="uni0440" unicode="&#x440;" horiz-adv-x="645" 
d="M13 -240v53h12q15 0 31.5 4.5t28 18.5t11.5 42v535q0 46 -19 58t-48 12h-7v53h196l18 -78h4q22 39 58.5 63.5t94.5 24.5q100 0 152.5 -67t52.5 -213q0 -145 -51.5 -211.5t-149.5 -66.5q-57 0 -92.5 21.5t-57.5 58.5h-7q2 -14 4 -37.5t3 -46t1 -37.5v-69q0 -28 11.5 -42
t28.5 -18.5t31 -4.5h22v-53h-328zM350 62q50 0 72 50.5t22 152.5q0 100 -21.5 153t-71.5 53q-60 0 -81.5 -53t-21.5 -152q0 -103 21.5 -153.5t80.5 -50.5z" />
    <glyph glyph-name="uni0441" unicode="&#x441;" horiz-adv-x="527" 
d="M295 -10q-73 0 -129 26.5t-87.5 87t-31.5 162.5q0 108 32.5 169.5t88 87.5t124.5 26q97 0 147.5 -30.5t50.5 -74.5q0 -21 -10.5 -40.5t-38.5 -32t-80 -12.5q0 35 -6 64t-20 47t-39 18q-29 0 -50.5 -19.5t-33 -67.5t-11.5 -134q0 -101 28 -151.5t91 -50.5q52 0 90 23.5
t55 57.5q12 -7 18 -19.5t6 -26.5q0 -25 -20.5 -50.5t-63 -42.5t-110.5 -17z" />
    <glyph glyph-name="uni0442" unicode="&#x442;" horiz-adv-x="567" 
d="M125 0v53h11q29 0 50.5 13.5t21.5 53.5v359h-58q-28 0 -39.5 -17t-17.5 -64l-4 -33h-69l6 171h515l6 -171h-69l-4 33q-6 47 -17.5 64t-39.5 17h-57v-359q0 -40 20 -53.5t47 -13.5h11v-53h-313z" />
    <glyph glyph-name="uni0443" unicode="&#x443;" horiz-adv-x="579" 
d="M27 -240v58q70 0 112.5 22t67.5 62t41 93l-180 440q-11 26 -27 33.5t-37 8.5h-4v59h285v-53h-3q-28 0 -44 -8t-16 -29q0 -8 3.5 -19.5t6.5 -19.5l69 -183q14 -38 20 -62t8 -44q2 21 10.5 47t11.5 33l66 196q4 10 7 25t3 24q0 22 -18 30.5t-51 9.5h-4v53h225v-53h-4
q-28 -1 -44.5 -16.5t-31.5 -56.5l-151 -410q-26 -73 -49.5 -119.5t-54.5 -73t-78.5 -37t-121.5 -10.5h-17z" />
    <glyph glyph-name="uni0444" unicode="&#x444;" horiz-adv-x="821" 
d="M257 -240v53h12q15 0 31.5 4t28 18t11.5 42v118q-90 5 -155.5 39t-101.5 93.5t-36 141.5q0 122 76.5 193.5t216.5 78.5v105q0 27 -12 40t-28.5 17t-30.5 4h-12v53h227v-220q89 -5 154 -39t100.5 -92.5t35.5 -139.5q0 -123 -76 -194.5t-214 -79.5v-118q0 -28 11.5 -42
t28.5 -18t31 -4h12v-53h-310zM340 58v418q-73 -9 -108 -62t-35 -145t35 -146.5t108 -64.5zM484 59q71 10 105.5 64.5t34.5 145.5t-34.5 144t-105.5 63v-417z" />
    <glyph glyph-name="uni0445" unicode="&#x445;" horiz-adv-x="646" 
d="M11 0v53h9q36 0 57.5 13.5t51.5 50.5l126 152l-126 161q-42 53 -86 53h-13v53div14v-53h-3q-34 0 -45.5 -8.5t-11.5 -20.5q0 -17 23 -46l56 -68l47 57q25 31 25 56q0 18 -14 24t-37 6h-3v53h231v-53h-9q-29 0 -49 -12.5t-52 -51.5l-103 -126l147 -187q23 -28 42 -40.5
t38 -12.5h13v-53h-318v53h5q60 0 60 33q0 11 -6.5 25t-31.5 44l-57 69l-70 -87q-9 -12 -15 -24.5t-6 -25.5q0 -16 14.5 -25t47.5 -9divv-53h-254z" />
    <glyph glyph-name="uni0446" unicode="&#x446;" horiz-adv-x="686" 
d="M597 -210l-5 73q-5 75 -33.5 106t-60.5 31h-481v53h12q14 0 30.5 4t28.5 17.5t12 39.5v304q0 29 -11.5 42.5t-28 18t-31.5 4.5h-12v53h298v-53h-2q-13 0 -28.5 -4.5t-26.5 -18t-11 -42.5v-361h177v365q0 27 -11 40t-26.5 17t-28.5 4h-2v53h298v-53h-12q-14 0 -31 -4.5
t-28.5 -18t-11.5 -42.5v-308q0 -35 22 -45.5t50 -11.5h23v-263h-69z" />
    <glyph glyph-name="uni0447" unicode="&#x447;" horiz-adv-x="681" 
d="M334 0v53h17q33 0 55.5 11.5t22.5 55.5v127q-49 -30 -92.5 -48.5t-102.5 -18.5q-69 0 -106.5 37t-37.5 95v103q0 37 -19.5 52.5t-51.5 15.5h-3v53h294v-53h-2q-15 0 -30 -5t-25.5 -19.5t-10.5 -42.5v-89q0 -66 64 -66q31 0 57.5 10t65.5 32v112q0 41 -19.5 54.5
t-46.5 13.5h-2v53div03v-53h-11q-29 0 -50.5 -13t-21.5 -54v-296q0 -40 21.5 -53.5t50.5 -13.5h11v-53h-330z" />
    <glyph glyph-name="uni0448" unicode="&#x448;" horiz-adv-x="995" 
d="M17 0v53h12q14 0 30.5 4t28.5 17.5t12 39.5v304q0 29 -11.5 42.5t-28 18t-31.5 4.5h-12v53h298v-53h-2q-13 0 -28.5 -4.5t-26.5 -18t-11 -42.5v-361h177v365q0 27 -11 40t-26.5 17t-28.5 4h-2v53h283v-53h-2q-13 0 -28.5 -4.5t-26.5 -18t-11 -42.5v-361h177v361
q0 29 -11 42.5t-26 18t-29 4.5h-2v53h298v-53h-12q-14 0 -31 -4.5t-28.5 -18t-11.5 -42.5v-304q0 -26 12 -39.5t28.5 -17.5t30.5 -4h12v-53h-961z" />
    <glyph glyph-name="uni0449" unicode="&#x449;" horiz-adv-x="1010" 
d="M921 -210l-5 73q-5 75 -33.5 106t-60.5 31h-805v53h12q14 0 30.5 4t28.5 17.5t12 39.5v304q0 29 -11.5 42.5t-28 18t-31.5 4.5h-12v53h298v-53h-2q-13 0 -28.5 -4.5t-26.5 -18t-11 -42.5v-361h177v365q0 27 -11 40t-26.5 17t-28.5 4h-2v53h283v-53h-2q-13 0 -28.5 -4.5
t-26.5 -18t-11 -42.5v-361h177v361q0 29 -11 42.5t-26 18t-29 4.5h-2v53h298v-53h-12q-14 0 -31 -4.5t-28.5 -18t-11.5 -42.5v-308q0 -35 22 -45.5t50 -11.5h23v-263h-69z" />
    <glyph glyph-name="uni044A" unicode="&#x44a;" horiz-adv-x="711" 
d="M125 0v53h11q72 0 72 64v362h-58q-28 0 -39.5 -17t-17.5 -64l-4 -33h-69l6 171h429v-57h-13q-33 0 -57.5 -13t-24.5 -48v-113h96q62 0 114 -11t84 -42.5t32 -94.5q0 -67 -55.5 -112t-169.5 -45h-336zM360 58h75q50 0 71 23.5t21 78.5q0 47 -25 67t-71 20h-71v-189z" />
    <glyph glyph-name="uni044B" unicode="&#x44b;" horiz-adv-x="905" 
d="M17 0v53h11q72 0 72 64v301q0 35 -18.5 50t-53.5 15h-11v53div30v-57h-13q-33 0 -57.5 -13t-24.5 -48v-113h76q62 0 114 -11t84 -42.5t32 -94.5q0 -67 -55.5 -112t-169.5 -45h-316zM570 0v53h12q15 0 31.5 4.5t28 18.5t11.5 42v300q0 29 -11.5 42.5t-28 18t-31.5 4.5h-12
v53div13v-53h-12q-13 0 -28.5 -4.5t-26.5 -18t-11 -42.5v-300q0 -28 11 -42t26.5 -18.5t28.5 -4.5h12v-53h-313zM252 58h55q50 0 71 23.5t21 78.5q0 47 -25 67t-71 20h-51v-189z" />
    <glyph glyph-name="uni044C" unicode="&#x44c;" horiz-adv-x="603" 
d="M17 0v53h11q72 0 72 64v301q0 35 -18.5 50t-53.5 15h-11v53div30v-57h-13q-33 0 -57.5 -13t-24.5 -48v-113h96q62 0 114 -11t84 -42.5t32 -94.5q0 -67 -55.5 -112t-169.5 -45h-336zM252 58h75q50 0 71 23.5t21 78.5q0 47 -25 67t-71 20h-71v-189z" />
    <glyph glyph-name="uni044D" unicode="&#x44d;" horiz-adv-x="519" 
d="M231 -9q-76 0 -119 15.5t-60.5 41.5t-17.5 57q0 37 25 57t74 20q0 -58 23.5 -97t69.5 -39q43 0 66 44.5t26 156.5h-174v64h174q-3 83 -20.5 131.5t-66.5 48.5q-27 0 -45 -18.5t-27.5 -46.5t-9.5 -56q-51 0 -74.5 19.5t-23.5 50.5q0 27 18.5 51.5t60.5 40.5t110 16
q110 0 171 -62t61 -205q0 -108 -30 -171.5t-84.5 -91t-126.5 -27.5z" />
    <glyph glyph-name="uni044E" unicode="&#x44e;" horiz-adv-x="923" 
d="M625 -10q-111 0 -176.5 63.5t-71.5 193.5h-125v-129q0 -28 11 -42t26.5 -18.5t28.5 -4.5h7v-53h-308v53h12q15 0 31.5 4.5t28 18.5t11.5 42v300q0 29 -11.5 42.5t-28 18t-31.5 4.5h-12v53div08v-53h-7q-13 0 -28.5 -4.5t-26.5 -18t-11 -42.5v-114h126q15 245 250 245
q116 0 182 -69t66 -210t-64 -210.5t-187 -69.5zM627 53q53 0 73.5 55.5t20.5 161.5q0 107 -21 161t-74 54q-52 0 -73 -54t-21 -161q0 -106 21.5 -161.5t73.5 -55.5z" />
    <glyph glyph-name="uni044F" unicode="&#x44f;" horiz-adv-x="613" 
d="M0 0v53divq27 0 45 14.5t37 45.5l88 141q-27 7 -53 23.5t-43.5 45.5t-17.5 71q0 67 50.5 104.5t168.5 37.5div18v-53h-3q-43 0 -61.5 -15t-18.5 -46v-302q0 -27 14.5 -47t55.5 -20h13v-53h-321v53h4q33 0 57.5 11.5t24.5 55.5v116h-53l-78 -144q-30 -55 -84 -73.5
t-146 -18.5zM295 295h66v184h-66q-44 0 -61.5 -25t-17.5 -64q0 -43 18 -69t61 -26z" />
    <glyph glyph-name="uni0451" unicode="&#x451;" horiz-adv-x="571" 
d="M306 -10q-127 0 -193 72.5t-66 202.5q0 141 65 212.5t183 71.5q109 0 171.5 -61t62.5 -180v-51h-328q3 -100 37.5 -146t96.5 -46q52 0 88 23.5t53 57.5q27 -15 27 -49q0 -43 -48 -75t-149 -32zM203 321h173q0 77 -18 120t-61 43q-42 0 -67 -41.5t-27 -121.5zM402 626
q-24 0 -42 14t-18 48q0 35 18 48.5t42 13.5q23 0 41 -13.5t18 -48.5q0 -34 -18 -48t-41 -14zM196 626q-23 0 -41 14t-18 48q0 35 18 48.5t41 13.5t41.5 -13.5t18.5 -48.5q0 -34 -18.5 -48t-41.5 -14z" />
    <glyph glyph-name="uni0452" unicode="&#x452;" horiz-adv-x="651" 
d="M315 -240v62h6q47 0 72.5 38t25.5 140v299q0 65 -18 100t-62 35q-33 0 -52 -21.5t-27 -57t-8 -76.5v-161q0 -42 19.5 -53.5t52.5 -11.5divv-53h-307v53h2q34 0 56 12t22 57v456h-87v53h87v15q0 27 -12 40t-28.5 17t-30.5 4h-12v53h235v-129h155v-53h-155v-13
q0 -26 -2 -55.5t-4 -50.5l-2 -21h9q20 38 43.5 55t51 21.5t58.5 4.5q77 0 121 -46t44 -147v-334q0 -89 -30.5 -140t-84 -71.5t-122.5 -20.5h-19z" />
    </font>
</defs>
</svg>
