<?xml version="1.0" standalone="no"?>
<!DOCTYPE svg PUBLIC "-//W3C//DTD SVG 1.1//EN" "http://www.w3.org/Graphics/SVG/1.1/DTD/svg11.dtd" >
<svg>
<metadata>
Created by FontForge 20120731 at Wed Mar 20 08:16:11 2019
 By www-data
Copyright 2015 Google Inc. All Rights Reserved.
</metadata>
<defs>
<font id="NotoSerif-BoldItalic" horiz-adv-x="0" >
  <font-face 
    font-family="Noto Serif"
    font-weight="700"
    font-style="italic"
    font-stretch="normal"
    units-per-em="1000"
    panose-1="2 2 8 2 6 5 5 9 2 4"
    ascent="800"
    descent="-200"
    x-height="536"
    cap-height="714"
    bbox="-697 -389 2797 1058"
    underline-thickness="50"
    underline-position="-75"
    slope="-12"
    unicode-range="U+000D-FFFD"
  />
<missing-glyph horiz-adv-x="500" 
d="M50 0v714h400v-714h-400zM98 48h304v618h-304v-618z" />
    <glyph glyph-name="f_f" unicode="ff" horiz-adv-x="729" 
d="M-78 -240q-15 0 -33 2.5t-28 5.5l12 58q8 -2 21.5 -4.5t24.5 -2.5q33 0 55.5 15.5t39.5 53t31 103.5l101 477h-91l10 47l96 21l8 31q24 94 80 143t157 49q59 0 97 -16.5t51 -40.5q60 68 177 68q77 0 117 -25t40 -62q0 -33 -29.5 -51.5t-85.5 -18.5q0 38 -9.5 68t-36.5 30
q-31 0 -48 -27.5t-28 -83.5l-13 -64h126l-14 -68h-127l-95 -447q-17 -80 -47.5 -131t-69.5 -79.5t-81 -39.5t-83 -11q-15 0 -33 2.5t-28 5.5l12 58q8 -2 21.5 -4.5t24.5 -2.5q33 0 55.5 15.5t39.5 53t31 103.5l101 477h-173l-95 -447q-17 -80 -47.5 -131t-69.5 -79.5
t-81 -39.5t-83 -11zM313 536h173l8 37q7 29 16 53q-22 -5 -53 -5q0 30 -16 54.5t-42 24.5q-29 0 -45 -26.5t-27 -76.5z" />
    <glyph glyph-name="fi" unicode="fi" horiz-adv-x="686" 
d="M-78 -240q-15 0 -33 2.5t-28 5.5l12 58q8 -2 21.5 -4.5t24.5 -2.5q33 0 55.5 15.5t39.5 53t31 103.5l101 477h-91l10 47l96 21l10 37q27 100 98 148.5t197 48.5q98 0 147.5 -27t49.5 -67q0 -35 -41 -55t-120 -20q0 43 -13 76.5t-51 33.5q-88 0 -116 -132l-9 -43h320
l-69 -325q-6 -27 -10 -51t-4 -45q0 -45 35 -45q16 0 29 6t30 17l24 -34q-24 -25 -61 -47t-92 -22q-57 0 -87.5 27.5t-30.5 75.5q0 21 4 51t12 68l53 256h-168l-95 -447q-17 -80 -47.5 -131t-69.5 -79.5t-81 -39.5t-83 -11z" />
    <glyph glyph-name="fl" unicode="fl" horiz-adv-x="710" 
d="M-78 -240q-15 0 -33 2.5t-28 5.5l12 58q8 -2 21.5 -4.5t24.5 -2.5q33 0 55.5 15.5t39.5 53t31 103.5l101 477h-91l10 47l96 21l10 37q27 100 96.5 148.5t186.5 48.5q38 0 68 -8.5t54 -19.5l73 18h44l-119 -549q-6 -27 -10 -51t-4 -45q0 -45 35 -45q16 0 29 6t30 17
l24 -34q-24 -25 -61 -47t-92 -22q-57 0 -88 27.5t-31 75.5q0 21 4 51t12 68l84 396q-1 41 -16.5 72t-51.5 31q-88 0 -116 -132l-9 -43h114l-12 -68h-117l-95 -447q-17 -80 -47.5 -131t-69.5 -79.5t-81 -39.5t-83 -11z" />
    <glyph glyph-name="f_f_i" unicode="ffi" horiz-adv-x="1012" 
d="M-78 -240q-15 0 -33 2.5t-28 5.5l12 58q8 -2 21.5 -4.5t24.5 -2.5q33 0 55.5 15.5t39.5 53t31 103.5l101 477h-91l10 47l96 21l8 31q24 94 80 143t157 49q63 0 102.5 -19t49.5 -46q37 40 95 58t139 18q98 0 147.5 -27t49.5 -67q0 -35 -41 -55t-120 -20q0 43 -13 76.5
t-51 33.5q-88 0 -116 -132l-9 -43h320l-69 -325q-6 -27 -10 -51t-4 -45q0 -45 35 -45q16 0 29 6t30 17l24 -34q-24 -25 -61 -47t-92 -22q-57 0 -87.5 27.5t-30.5 75.5q0 21 4 51t12 68l53 256h-168l-95 -447q-17 -80 -47.5 -131t-69.5 -79.5t-81 -39.5t-83 -11
q-15 0 -33 2.5t-28 5.5l12 58q8 -2 21.5 -4.5t24.5 -2.5q33 0 55.5 15.5t39.5 53t31 103.5l101 477h-174l-95 -447q-17 -80 -47.5 -131t-69.5 -79.5t-81 -39.5t-83 -11zM313 536h174l6 26q8 36 21 65q-23 -6 -57 -6q0 30 -16 54.5t-42 24.5q-29 0 -45 -26.5t-27 -76.5z" />
    <glyph glyph-name="f_f_l" unicode="ffl" horiz-adv-x="1036" 
d="M-78 -240q-15 0 -33 2.5t-28 5.5l12 58q8 -2 21.5 -4.5t24.5 -2.5q33 0 55.5 15.5t39.5 53t31 103.5l101 477h-91l10 47l96 21l8 31q24 94 80 143t157 49q65 0 104.5 -20t48.5 -48q40 44 95.5 61.5t119.5 17.5q41 0 72.5 -8.5t55.5 -19.5l73 18h44l-119 -549
q-6 -27 -10 -51t-4 -45q0 -45 35 -45q16 0 29 6t30 17l24 -34q-24 -25 -61 -47t-92 -22q-57 0 -88 27.5t-31 75.5q0 21 4 51t12 68l84 396q-1 41 -16.5 72t-51.5 31q-88 0 -116 -132l-9 -43h114l-12 -68h-117l-95 -447q-17 -80 -47.5 -131t-69.5 -79.5t-81 -39.5t-83 -11
q-15 0 -33 2.5t-28 5.5l12 58q8 -2 21.5 -4.5t24.5 -2.5q33 0 55.5 15.5t39.5 53t31 103.5l101 477h-174l-95 -447q-17 -80 -47.5 -131t-69.5 -79.5t-81 -39.5t-83 -11zM313 536h173l3 13q10 44 27 79q-24 -7 -59 -7q0 30 -16 54.5t-42 24.5q-29 0 -45 -26.5t-27 -76.5z" />
    <glyph glyph-name=".notdef" horiz-adv-x="500" 
d="M50 0v714h400v-714h-400zM98 48h304v618h-304v-618z" />
    <glyph glyph-name="NULL" 
 />
    <glyph glyph-name="NULL" 
 />
    <glyph glyph-name="CR" unicode="&#xd;" horiz-adv-x="260" 
 />
    <glyph glyph-name="space" unicode=" " horiz-adv-x="260" 
 />
    <glyph glyph-name="exclam" unicode="!" horiz-adv-x="395" 
d="M149 228l61 486h174l-169 -486h-66zM158 -8q-36 0 -58.5 17.5t-22.5 54.5q0 41 23.5 65.5t63.5 24.5q35 0 58 -17.5t23 -54.5q0 -50 -27.5 -70t-59.5 -20z" />
    <glyph glyph-name="quotedbl" unicode="&#x22;" horiz-adv-x="508" 
d="M152 439l24 275h156l-114 -275h-66zM370 439l24 275h156l-114 -275h-66z" />
    <glyph glyph-name="numbersign" unicode="#" horiz-adv-x="559" 
d="M69 0l59 200h-100l7 69h113l54 181h-116l8 70h129l55 194h72l-56 -194h104l57 194h71l-57 -194h96l-8 -70h-109l-53 -181h111l-7 -69h-125l-58 -200h-71l58 200h-104l-59 -200h-71zM219 269h105l54 181h-105z" />
    <glyph glyph-name="dollar" unicode="$" horiz-adv-x="559" 
d="M181 -79l25 117q-91 8 -136 43t-45 91q0 47 29.5 68.5t81.5 21.5q0 -70 23 -108t60 -52l45 213q-71 38 -109 80.5t-38 111.5q0 83 62.5 130t164.5 50l16 73h56l-17 -75q79 -6 118.5 -33t39.5 -68q0 -40 -24.5 -63.5t-88.5 -23.5q0 36 -13.5 73t-44.5 53l-42 -197l23 -12
q69 -36 102.5 -79t33.5 -100q0 -92 -65.5 -144t-176.5 -54l-24 -116h-56zM294 456l37 174q-34 -4 -59.5 -25.5t-25.5 -64.5q0 -28 12 -47.5t36 -36.5zM273 94q47 1 74.5 28t27.5 68q0 27 -11.5 49t-49.5 47z" />
    <glyph glyph-name="percent" unicode="%" horiz-adv-x="896" 
d="M213 280q-64 0 -102.5 37.5t-38.5 108.5q0 47 13.5 99t41.5 97t71.5 73.5t103.5 28.5q76 0 110.5 -42.5t34.5 -106.5q0 -43 -13.5 -94t-42 -96.5t-73 -75t-105.5 -29.5zM179 0l496 714h75l-493 -714h-78zM224 331q29 0 51.5 28t37.5 69.5t22.5 84.5t7.5 73
q0 40 -9.5 62.5t-34.5 23.5q-29 0 -51.5 -28t-37.5 -69.5t-22.5 -84t-7.5 -72.5q0 -40 10 -63.5t34 -23.5zM628 -10q-64 0 -102.5 37.5t-38.5 108.5q0 47 13.5 99t41.5 97t71.5 73.5t103.5 28.5q76 0 110.5 -42.5t34.5 -106.5q0 -43 -13.5 -94t-42 -96.5t-73 -75
t-105.5 -29.5zM639 41q29 0 51.5 28t37.5 69.5t22.5 84.5t7.5 73q0 40 -9.5 62.5t-34.5 23.5q-29 0 -51.5 -28t-37.5 -69.5t-22.5 -84t-7.5 -72.5q0 -40 10 -63.5t34 -23.5z" />
    <glyph glyph-name="ampersand" unicode="&#x26;" horiz-adv-x="801" 
d="M268 -10q-80 0 -132 24.5t-77 67.5t-25 96q0 67 30 109t80 69t108 48q-22 38 -34.5 75.5t-12.5 72.5q0 86 59 129t165 43q92 0 135 -37.5t43 -92.5q0 -46 -19 -78t-61.5 -58.5t-114.5 -55.5l123 -162q17 36 29.5 74t19.5 74l8 38h200l-11 -53h-9q-34 0 -65 -11t-54 -56
q-15 -29 -32 -62t-39 -67l63 -83q30 -41 93 -41h7l-11 -53h-192l-50 69q-41 -35 -96 -57t-128 -22zM379 450q62 26 88 55t26 75q0 40 -18 62t-53 22t-58.5 -27t-23.5 -77q0 -28 10 -54.5t29 -55.5zM299 57q47 0 85 18t69 48l-163 226q-59 -33 -84 -71.5t-25 -91.5
q0 -55 31 -92t87 -37z" />
    <glyph glyph-name="quotesingle" unicode="'" horiz-adv-x="290" 
d="M152 439l14 275h156l-104 -275h-66z" />
    <glyph glyph-name="parenleft" unicode="(" horiz-adv-x="400" 
d="M270 -139q-80 28 -130.5 77t-74 112.5t-23.5 135.5q0 93 25.5 186.5t77.5 175t131 140.5t185 84l-10 -63q-62 -34 -106 -89t-73 -121t-45.5 -133t-23.5 -126.5t-7 -100.5q0 -61 19 -120t68 -94z" />
    <glyph glyph-name="parenright" unicode=")" horiz-adv-x="400" 
d="M-44 -138l10 63q62 34 106 89t73 121t45.5 133t23.5 126.5t7 100.5q0 62 -19 120.5t-68 93.5l13 64q81 -28 131 -77t73.5 -112.5t23.5 -135.5q0 -93 -25.5 -186.5t-77.5 -175t-131 -140.5t-185 -84z" />
    <glyph glyph-name="asterisk" unicode="*" horiz-adv-x="618" 
d="M381 358l-109 23l66 153l-167 -73l-24 106l161 8l-144 71l65 90l123 -137l2 166l110 -23l-69 -150l168 71l23 -107l-160 -6l144 -72l-65 -87l-125 133z" />
    <glyph glyph-name="plus" unicode="+" horiz-adv-x="559" 
d="M243 143v179h-178v71h178v179h72v-179h179v-71h-179v-179h-72z" />
    <glyph glyph-name="comma" unicode="," horiz-adv-x="304" 
d="M-16 -151l11 53q103 24 103 83q0 16 -8.5 25.5t-19.5 18t-19.5 21t-8.5 34.5q0 32 22.5 50.5t52.5 18.5q36 0 61.5 -23.5t25.5 -67.5q0 -76 -55 -134t-165 -79z" />
    <glyph glyph-name="hyphen" unicode="-" horiz-adv-x="310" 
d="M10 220l23 105h260l-23 -105h-260z" />
    <glyph glyph-name="period" unicode="." horiz-adv-x="304" 
d="M115 -8q-36 0 -58.5 17.5t-22.5 54.5q0 41 23.5 65.5t63.5 24.5q35 0 58 -17.5t23 -54.5q0 -50 -27.5 -70t-59.5 -20z" />
    <glyph glyph-name="slash" unicode="/" horiz-adv-x="288" 
d="M-103 -121l426 881h78l-426 -881h-78z" />
    <glyph glyph-name="zero" unicode="0" horiz-adv-x="559" 
d="M245 -11q-93 0 -150.5 62t-57.5 180q0 62 12.5 130.5t37.5 133t63.5 116.5t90.5 83t119 31q57 0 103.5 -24t73.5 -74.5t27 -130.5q0 -61 -12 -130t-36.5 -135.5t-62.5 -121.5t-89.5 -87.5t-118.5 -32.5zM251 57q35 0 63.5 32.5t50.5 85t37 116t22.5 126t7.5 112.5
q0 65 -20 97t-57 32q-34 0 -62 -32t-50.5 -84.5t-37.5 -115t-23 -125t-8 -113.5q0 -67 21 -99t56 -32z" />
    <glyph glyph-name="one" unicode="1" horiz-adv-x="559" 
d="M40 0l11 53h59q35 0 57.5 14.5t29.5 50.5l77 364q8 35 16 69t17 68h-4q-47 -49 -80 -76.5t-65 -27.5q-21 0 -34.5 19.5t-13.5 54.5q35 9 74 24.5t96 52.5l81 52h112l-127 -597q-1 -6 -3.5 -17.5t-2.5 -17.5q0 -22 21.5 -27.5t53.5 -5.5h49l-11 -53h-413z" />
    <glyph glyph-name="two" unicode="2" horiz-adv-x="559" 
d="M-14 0l21 103l233 197q68 58 104.5 102.5t50.5 84t14 81.5q0 41 -18 67.5t-52 26.5q-49 0 -76.5 -49t-32.5 -120q-49 0 -82 21t-33 65q0 40 27 72.5t79.5 52.5t127.5 20q103 0 157.5 -37t54.5 -102q0 -67 -54.5 -131t-161.5 -151l-240 -193h233q32 0 51.5 12t31.5 31
t21 39l7 18h59l-49 -210h-473z" />
    <glyph glyph-name="three" unicode="3" horiz-adv-x="559" 
d="M210 -10q-78 0 -124 18.5t-66.5 46.5t-20.5 56q0 39 29 62t81 23q0 -58 28 -96.5t86 -38.5q34 0 63.5 17.5t48 52.5t18.5 87q0 57 -37 88.5t-104 31.5h-43l10 62h32q56 0 100 22t69.5 62t25.5 93q0 38 -16.5 62t-52.5 24t-59 -21t-35.5 -54.5t-19.5 -73.5
q-48 0 -80.5 13.5t-32.5 50.5q0 41 33 74t88.5 52.5t123.5 19.5q92 0 148.5 -37.5t56.5 -105.5q0 -46 -22.5 -89.5t-67 -75.5t-111.5 -44q69 -7 109.5 -44.5t40.5 -102.5q0 -66 -27 -111.5t-71.5 -72.5t-97 -39t-103.5 -12z" />
    <glyph glyph-name="four" unicode="4" horiz-adv-x="559" 
d="M129 0l10 53h29q20 0 39.5 4t35 19t22.5 49l13 61h-278l14 62l383 466h140l-99 -462h104l-14 -66h-104l-13 -62q-1 -6 -2.5 -16t-1.5 -15q0 -25 18 -32.5t48 -7.5h18l-11 -53h-351zM269 469l-177 -217h200l37 175q8 40 21 93t27 99q-14 -22 -34 -50.5t-39.5 -55
t-34.5 -44.5z" />
    <glyph glyph-name="five" unicode="5" horiz-adv-x="559" 
d="M199 -10q-69 0 -110.5 16t-60 42.5t-18.5 58.5q0 33 22.5 56.5t70.5 23.5q1 -28 9.5 -57.5t32 -49.5t67.5 -20q65 0 104.5 45t39.5 135q0 65 -34.5 96.5t-86.5 31.5q-36 0 -59.5 -7t-43.5 -15l-42 21l102 347h378l-29 -182h-61q1 13 2 27.5t1 20.5q0 11 -10 18t-39 7
h-203l-57 -187q18 5 42.5 10.5t61.5 5.5q104 0 165.5 -48t61.5 -139q0 -73 -36.5 -131t-105 -92t-164.5 -34z" />
    <glyph glyph-name="six" unicode="6" horiz-adv-x="559" 
d="M259 -10q-57 0 -104.5 27t-75.5 80.5t-28 134.5q0 93 25.5 181t74 158.5t117 111.5t155.5 41q82 0 124 -31t42 -72q0 -40 -33 -62.5t-92 -22.5q0 33 -3.5 62.5t-16 48t-39.5 18.5q-131 0 -192 -277q23 17 59 33.5t87 16.5q58 0 95.5 -24t55.5 -64.5t18 -88.5
q0 -70 -29.5 -132t-89 -100.5t-150.5 -38.5zM273 55q34 0 59.5 26t40 71t14.5 101q0 60 -18.5 92t-55.5 32q-32 0 -62.5 -16.5t-50.5 -35.5q-12 -73 -12 -125q0 -76 23 -110.5t62 -34.5z" />
    <glyph glyph-name="seven" unicode="7" horiz-adv-x="559" 
d="M104 0l395 605h-257q-55 0 -69 -51l-14 -50h-61l41 210h477l-11 -59l-416 -655h-85z" />
    <glyph glyph-name="eight" unicode="8" horiz-adv-x="559" 
d="M247 -10q-70 0 -122.5 22t-82 61t-29.5 89q0 56 26 92.5t70.5 61.5t100.5 46q-43 32 -69.5 78t-26.5 99q0 50 25.5 92t81 67.5t146.5 25.5q95 0 147.5 -41.5t52.5 -104.5q0 -50 -21.5 -85.5t-59 -61.5t-87.5 -48q52 -33 86.5 -76.5t34.5 -104.5q0 -73 -35 -120
t-96.5 -69.5t-141.5 -22.5zM337 414q58 30 81 69.5t23 87.5q0 41 -19 68t-60 27q-46 0 -78 -33t-32 -89q0 -78 85 -130zM255 48q53 0 91 31.5t38 94.5q0 49 -29 84t-85 66q-57 -23 -89.5 -63.5t-32.5 -102.5q0 -51 28.5 -80.5t78.5 -29.5z" />
    <glyph glyph-name="nine" unicode="9" horiz-adv-x="559" 
d="M180 -10q-80 0 -116 30.5t-36 72.5q0 33 20.5 51t57.5 18q1 -25 9.5 -50.5t27 -42t48.5 -16.5q74 0 120.5 75t84.5 215q-25 -26 -62 -47t-89 -21q-80 0 -123.5 46.5t-43.5 119.5q0 84 39 147.5t103 99.5t140 36q90 0 143 -51t53 -146q0 -58 -13 -129.5t-40.5 -143
t-71.5 -131.5t-106.5 -96.5t-144.5 -36.5zM296 347q39 1 67.5 25.5t46.5 52.5q6 24 10.5 56t4.5 52q0 66 -21 95t-53 29q-37 0 -66.5 -31.5t-46 -79.5t-16.5 -100q0 -49 20 -74t54 -25z" />
    <glyph glyph-name="colon" unicode=":" horiz-adv-x="358" 
d="M213 379q-36 0 -58.5 17.5t-22.5 54.5q0 41 23.5 65.5t63.5 24.5q35 0 58 -17.5t23 -54.5q0 -50 -27.5 -70t-59.5 -20zM125 -8q-36 0 -58.5 17.5t-22.5 54.5q0 41 23.5 65.5t63.5 24.5q35 0 58 -17.5t23 -54.5q0 -50 -27.5 -70t-59.5 -20z" />
    <glyph glyph-name="semicolon" unicode=";" horiz-adv-x="358" 
d="M213 379q-36 0 -58.5 17.5t-22.5 54.5q0 41 23.5 65.5t63.5 24.5q35 0 58 -17.5t23 -54.5q0 -50 -27.5 -70t-59.5 -20zM-11 -151l11 53q103 24 103 83q0 16 -8.5 25.5t-19.5 18t-19.5 21t-8.5 34.5q0 32 22.5 50.5t52.5 18.5q36 0 61.5 -23.5t25.5 -67.5q0 -76 -55 -134
t-165 -79z" />
    <glyph glyph-name="less" unicode="&#x3c;" horiz-adv-x="559" 
d="M494 104l-429 233v41l429 234v-79l-322 -176l322 -174v-79z" />
    <glyph glyph-name="equal" unicode="=" horiz-adv-x="559" 
d="M63 419v70h433v-70h-433zM63 225v70h433v-70h-433z" />
    <glyph glyph-name="greater" unicode="&#x3e;" horiz-adv-x="559" 
d="M65 104v79l322 174l-322 176v79l429 -234v-41z" />
    <glyph glyph-name="question" unicode="?" horiz-adv-x="535" 
d="M199 228l-2 124q89 32 142 79t53 129q0 50 -20.5 76.5t-51.5 26.5t-50.5 -20.5t-30 -54t-15.5 -71.5q-123 0 -123 77q0 36 28 65.5t80 47t123 17.5q100 0 158 -40t58 -126q0 -58 -32.5 -103t-89 -78.5t-127.5 -59.5l-34 -89h-66zM207 -8q-36 0 -58.5 17.5t-22.5 54.5
q0 41 23.5 65.5t63.5 24.5q35 0 58 -17.5t23 -54.5q0 -50 -27.5 -70t-59.5 -20z" />
    <glyph glyph-name="at" unicode="@" horiz-adv-x="921" 
d="M458 -142q-85 0 -160.5 24t-132.5 72t-89.5 120.5t-32.5 169.5q0 101 35.5 186.5t100 149t152 99t191.5 35.5q116 0 194 -43t118 -115.5t40 -163.5q0 -99 -30.5 -169.5t-78 -108t-97.5 -37.5q-44 0 -75 22t-48 72h-6q-21 -39 -53 -66.5t-85 -27.5q-42 0 -77.5 18.5
t-57.5 56.5t-22 96q0 40 15 88.5t47 92.5t83 72t124 28q35 0 59.5 -9t40.5 -21l42 21h24l-42 -250q-2 -12 -4.5 -34t-2.5 -34q0 -41 16 -54t32 -13q27 0 53.5 29t44 85.5t17.5 138.5q0 92 -36 153t-98.5 91.5t-143.5 30.5q-71 0 -138 -29.5t-120 -84.5t-84.5 -133.5
t-31.5 -177.5q0 -88 26 -151t72 -102t106 -57.5t127 -18.5q81 0 152.5 26.5t117.5 57.5l24 -38q-52 -40 -132.5 -68.5t-175.5 -28.5zM431 135q29 0 47 17.5t28.5 44.5t15.5 56l40 204q-6 14 -21.5 21t-31.5 7q-38 0 -65 -26.5t-44 -67t-25 -82t-8 -71.5q0 -49 18 -76t46 -27
z" />
    <glyph glyph-name="A" unicode="A" horiz-adv-x="753" 
d="M-49 0l11 53h21q19 0 31.5 6.5t26 23.5t31.5 48l339 583h137l84 -589q5 -31 17.5 -51.5t43.5 -20.5h18l-11 -53h-330l11 53h23q32 0 51 10t19 32q0 8 -0.5 16.5t-1.5 15.5l-13 108h-244l-50 -90q-19 -35 -19 -56q0 -36 56 -36h20l-11 -53h-260zM347 473l-98 -177h203
l-20 168q-4 44 -8 78.5t-5 70.5q-10 -24 -20 -44t-22 -42.5t-30 -53.5z" />
    <glyph glyph-name="B" unicode="B" horiz-adv-x="672" 
d="M-23 0l11 53h13q32 0 58 10.5t34 49.5l97 456q4 19 6.5 31.5t2.5 23.5q0 22 -19.5 29.5t-50.5 7.5h-13l11 53h310q116 0 175 -38t59 -112q0 -55 -21.5 -92.5t-58.5 -60t-83 -33.5l-1 -4q54 -10 88 -46.5t34 -99.5q0 -109 -73 -168.5t-215 -59.5h-364zM312 405h56
q71 0 102.5 37t31.5 105q0 106 -94 106h-44zM239 61h69q85 0 120.5 44.5t35.5 129.5q0 108 -102 108h-63z" />
    <glyph glyph-name="C" unicode="C" horiz-adv-x="668" 
d="M366 -10q-143 0 -223 70.5t-80 198.5q0 90 31.5 174t89.5 150.5t139.5 105.5t181.5 39t149 -32.5t49 -86.5q0 -43 -40 -66.5t-101 -23.5q0 21 -3 46t-11.5 47.5t-25.5 37t-45 14.5q-47 0 -86 -25.5t-69 -68t-51 -96.5t-31.5 -111t-10.5 -110q0 -85 43.5 -132t129.5 -47
q69 0 112 28.5t68 62.5q6 -4 11.5 -13.5t5.5 -20.5q0 -33 -27 -65.5t-78.5 -54t-127.5 -21.5z" />
    <glyph glyph-name="D" unicode="D" horiz-adv-x="768" 
d="M-24 0l11 53h14q32 0 58 10.5t34 49.5l104 491q4 14 4 23q0 22 -20 28t-52 6h-13l11 53h320q143 0 223 -69.5t80 -202.5q0 -89 -27.5 -169t-81.5 -141.5t-132.5 -96.5t-180.5 -35h-352zM240 62h45q94 0 160 49.5t101.5 137t35.5 201.5q0 105 -47.5 154t-127.5 49h-42z
" />
    <glyph glyph-name="E" unicode="E" horiz-adv-x="633" 
d="M-23 0l11 53h13q32 0 58 10.5t34 49.5l104 491q4 14 4 23q0 22 -20 28t-52 6h-13l11 53h543l-35 -186h-71q1 5 2 18t2 25.5t1 14.5q0 28 -16 47.5t-55 19.5h-133l-53 -250h227l-13 -60h-227l-60 -282h158q47 0 74 24.5t39 57.5l16 43h71l-46 -186h-574z" />
    <glyph glyph-name="F" unicode="F" horiz-adv-x="621" 
d="M-23 0l11 53h13q32 0 58 10.5t34 49.5l102 480q6 27 6 34q0 22 -20 28t-52 6h-13l11 53h550l-35 -186h-71q2 17 3.5 35.5t1.5 22.5q0 29 -16.5 48t-58.5 19h-136l-58 -273h237l-12 -59h-237l-44 -203q-2 -11 -3.5 -19t-1.5 -12q0 -22 21 -28t52 -6h13l-11 -53h-344z" />
    <glyph glyph-name="G" unicode="G" horiz-adv-x="796" 
d="M373 -10q-154 0 -232 72t-78 196q0 97 33.5 181.5t94.5 148.5t146.5 100t188.5 36q77 0 127 -17t75 -44.5t25 -57.5q0 -26 -19.5 -47t-52.5 -33.5t-73 -12.5q0 63 -27 105.5t-86 42.5q-57 0 -106 -33.5t-85 -91.5t-56.5 -132.5t-20.5 -156.5q0 -83 35 -135.5t116 -52.5
q23 0 47 4t42 10l33 148q6 27 6 34q0 22 -20 28t-52 6h-13l11 53h333l-11 -53h-4q-33 0 -58.5 -10.5t-33.5 -50.5l-38 -191q-60 -23 -118 -34.5t-129 -11.5z" />
    <glyph glyph-name="H" unicode="H" horiz-adv-x="819" 
d="M-23 0l11 53h13q32 0 58 10.5t34 49.5l102 480q6 27 6 34q0 18 -14 26t-58 8h-13l11 53h345l-11 -53h-13q-33 0 -60 -10.5t-35 -50.5l-41 -197h261l42 194q5 23 5 30q0 17 -15 25.5t-58 8.5h-13l11 53h345l-11 -53h-13q-32 0 -59 -10.5t-35 -50.5l-103 -490
q-4 -14 -4 -23q0 -16 15 -25t57 -9h13l-11 -53h-345l11 53h13q32 0 59 10.5t35 50.5l48 228h-261l-49 -232q-4 -14 -4 -23q0 -19 16.5 -26.5t56.5 -7.5h13l-11 -53h-344z" />
    <glyph glyph-name="I" unicode="I" horiz-adv-x="401" 
d="M-23 0l11 53h13q32 0 58 10.5t34 49.5l104 484q2 10 3 18t1 12q0 22 -20 28t-52 6h-13l11 53h345l-11 -53h-13q-33 0 -60 -10.5t-35 -50.5l-103 -490q-1 -5 -2.5 -12t-1.5 -11q0 -22 21 -28t52 -6h13l-11 -53h-344z" />
    <glyph glyph-name="J" unicode="J" horiz-adv-x="401" 
d="M-76 -240q-27 0 -45.5 3t-36.5 8l14 55q13 -4 31.5 -6.5t33.5 -2.5q52 0 88.5 40t58.5 140l129 607q4 14 4 23q0 22 -20 28t-52 6h-13l11 53h345l-11 -53h-13q-33 0 -60 -10.5t-35 -50.5l-127 -603q-17 -81 -62.5 -133.5t-108.5 -78t-131 -25.5z" />
    <glyph glyph-name="K" unicode="K" horiz-adv-x="741" 
d="M-23 0l11 53h13q32 0 58 10.5t34 49.5l102 480q6 27 6 34q0 22 -20 28t-52 6h-13l11 53h345l-11 -53h-13q-33 0 -60 -10.5t-35 -50.5l-50 -237l203 179q41 36 54 58.5t13 35.5t-9.5 19.5t-34.5 6.5l11 52h270l-11 -52q-40 0 -76.5 -20t-84.5 -63l-162 -143l117 -281
q23 -56 42 -79t53 -23h3l-10 -53h-52q-66 0 -104 11.5t-60.5 41.5t-44.5 85l-74 191l-59 -42l-37 -177q-1 -5 -2.5 -12t-1.5 -11q0 -22 21 -28t52 -6h13l-11 -53h-344z" />
    <glyph glyph-name="L" unicode="L" horiz-adv-x="654" 
d="M-23 0l11 53h13q32 0 58 10.5t34 49.5l102 480q6 27 6 34q0 22 -20 28t-52 6h-13l11 53h345l-11 -53h-13q-33 0 -60 -10.5t-35 -50.5l-113 -539h167q55 0 82.5 27t46.5 82l18 53h64l-55 -223h-586z" />
    <glyph glyph-name="M" unicode="M" horiz-adv-x="952" 
d="M-23 0l11 53h13q32 0 58 10.5t34 49.5l102 480q6 27 6 34q0 22 -20 28t-52 6h-13l11 53h279l67 -486l262 486h289l-11 -53h-13q-32 0 -59 -10.5t-35 -50.5l-103 -490q-4 -14 -4 -23q0 -22 20.5 -28t51.5 -6h13l-11 -53h-341l11 53h13q32 0 59 10.5t35 50.5l106 501
l-331 -615h-69l-81 615l-106 -497q-2 -11 -3.5 -19t-1.5 -12q0 -22 21 -28t52 -6h3l-11 -53h-252z" />
    <glyph glyph-name="N" unicode="N" horiz-adv-x="788" 
d="M-23 0l11 53h13q32 0 58 10.5t34 49.5l102 480q6 27 6 34q0 22 -20 28t-52 6h-13l11 53h222l244 -513l84 395q2 11 3.5 19t1.5 12q0 22 -20.5 28t-52.5 6h-3l11 53h252l-11 -53h-13q-31 0 -57.5 -10.5t-34.5 -49.5l-127 -601h-92l-271 566l-94 -448q-2 -11 -3.5 -19
t-1.5 -12q0 -22 21 -28t52 -6h3l-11 -53h-252z" />
    <glyph glyph-name="O" unicode="O" horiz-adv-x="792" 
d="M342 -11q-79 0 -142 31.5t-100 93.5t-37 152q0 58 17 121t51.5 123t85.5 108.5t119 77.5t153 29q74 0 136.5 -29t101 -89.5t38.5 -156.5q0 -55 -16.5 -118t-50 -123.5t-84 -110.5t-118.5 -79.5t-154 -29.5zM362 55q50 0 89 28t67.5 74t47.5 101.5t28 111.5t9 103
q0 98 -38 142.5t-97 44.5q-50 0 -89 -28t-68 -74t-47.5 -101.5t-28 -111.5t-9.5 -103q0 -98 39.5 -142.5t96.5 -44.5z" />
    <glyph glyph-name="P" unicode="P" horiz-adv-x="663" 
d="M-23 0l11 53h13q32 0 58 10.5t34 49.5l102 480q6 27 6 34q0 22 -20 28t-52 6h-13l11 53h286q118 0 186.5 -49.5t68.5 -145.5q0 -38 -12 -81t-44.5 -80.5t-93 -61t-156.5 -23.5h-76l-36 -163q-4 -14 -4 -23q0 -22 21 -28t52 -6h33l-11 -53h-364zM298 331h42q61 0 97 24
t52 65.5t16 95.5q0 75 -32.5 107t-82.5 32h-22z" />
    <glyph glyph-name="Q" unicode="Q" horiz-adv-x="787" 
d="M482 -240q-60 0 -107.5 24t-76 76.5t-30.5 136.5q-91 19 -148.5 87t-57.5 182q0 58 17 121t51.5 123t85.5 108.5t119 77.5t153 29q74 0 136.5 -29t101 -89.5t38.5 -156.5q0 -61 -20 -131t-61 -135.5t-102.5 -114.5t-144.5 -69q2 -73 16 -112.5t36.5 -54.5t49.5 -15
q11 0 18 1t11 2l7 -46q-20 -7 -41.5 -11t-50.5 -4zM361 55q50 0 89 28t67.5 74t47.5 101.5t28 111.5t9 103q0 98 -38 142.5t-97 44.5q-50 0 -89 -28t-68 -74t-47.5 -101.5t-28 -111.5t-9.5 -103q0 -98 39.5 -142.5t96.5 -44.5z" />
    <glyph glyph-name="R" unicode="R" horiz-adv-x="707" 
d="M-23 0l11 53h13q32 0 58 10.5t34 49.5l102 480q6 27 6 34q0 22 -20 28t-52 6h-13l11 53h321q238 0 238 -167q0 -67 -27.5 -109t-68.5 -64.5t-82 -32.5l69 -186q21 -57 41 -79.5t54 -22.5h4l-11 -53h-10q-69 0 -115 8.5t-73.5 33.5t-42.5 72l-63 196h-69l-39 -183
q-7 -34 -7 -40q0 -22 21 -28t52 -6h33l-11 -53h-364zM303 368h62q64 0 107.5 38.5t43.5 127.5q0 68 -24 94.5t-74 26.5h-51z" />
    <glyph glyph-name="S" unicode="S" horiz-adv-x="586" 
d="M261 -10q-124 0 -185.5 42t-61.5 104q0 47 36.5 70.5t93.5 23.5q0 -91 37 -135t96 -44q56 0 87.5 30t31.5 73q0 28 -10 50t-36.5 44.5t-76.5 49.5q-78 43 -118 93t-40 129q0 60 32 106t90 72t137 26q111 0 166 -32.5t55 -79.5q0 -40 -30.5 -63.5t-100.5 -23.5
q0 30 -8.5 62t-30 54t-60.5 22q-26 0 -51.5 -11t-42 -34t-16.5 -58t14.5 -57.5t44.5 -41.5t74 -44q76 -40 112 -90t36 -114q0 -106 -74.5 -164.5t-200.5 -58.5z" />
    <glyph glyph-name="T" unicode="T" horiz-adv-x="653" 
d="M104 0l11 53h13q32 0 58 10.5t34 49.5l113 540h-80q-46 0 -68 -23t-36 -67l-14 -43h-67l46 194h622l-35 -194h-67q1 5 2.5 23t3.5 36t2 21q0 26 -16 39.5t-54 13.5h-80l-115 -543q-1 -5 -2.5 -12t-1.5 -11q0 -22 21 -28t52 -6h13l-11 -53h-344z" />
    <glyph glyph-name="U" unicode="U" horiz-adv-x="747" 
d="M341 -10q-117 0 -179.5 45.5t-62.5 127.5q0 16 3.5 44t7.5 45l73 341q6 27 6 34q0 22 -20 28t-52 6h-13l11 53h346l-11 -53h-13q-33 0 -60 -10.5t-35 -48.5l-76 -352q-4 -17 -8 -41.5t-4 -45.5q0 -102 123 -102q61 0 97 22.5t56 62.5t30 90l77 361q2 8 3 17t1 13
q0 22 -20 28t-52 6h-13l11 53h263l-11 -53h-13q-32 0 -59 -10.5t-35 -50.5l-80 -380q-24 -112 -94 -171t-197 -59z" />
    <glyph glyph-name="V" unicode="V" horiz-adv-x="698" 
d="M245 0l-84 613q-4 31 -21 39.5t-42 8.5h-13l11 53h330l-11 -53h-23q-32 0 -51 -8t-19 -32q0 -8 0.5 -17.5t1.5 -16.5l32 -264q3 -23 4.5 -55.5t2.5 -63t1 -48.5q12 27 25 58t21 46l180 323q18 32 18 53q0 15 -14.5 20t-43.5 5h-23l10 53h261l-11 -53h-24q-19 0 -32 -4.5
t-24.5 -19t-28.5 -43.5l-333 -594h-100z" />
    <glyph glyph-name="W" unicode="W" horiz-adv-x="1067" 
d="M216 0l-54 613q-3 31 -20.5 39.5t-42.5 8.5h-13l11 53h327l-11 -53h-23q-32 0 -51 -8t-19 -32q0 -8 0.5 -19t1.5 -25l19 -249q2 -17 3.5 -48.5t3 -64t1.5 -54.5q11 29 24.5 59t28.5 59l223 428h73l57 -382q7 -47 12 -90.5t5 -75.5q11 34 32.5 85.5t43.5 99.5l111 239
q15 32 15 53q0 15 -13 20t-42 5h-23l10 53h261l-11 -53h-24q-29 0 -46.5 -14t-39.5 -59l-280 -588h-114l-69 477l-243 -477h-124z" />
    <glyph glyph-name="X" unicode="X" horiz-adv-x="732" 
d="M-42 0l11 53h10q30 0 54.5 16t63.5 56l221 228l-112 257q-15 34 -32 42.5t-46 8.5h-9l11 53h331l-11 -53h-23q-47 0 -47 -28q0 -18 18 -60l53 -124l118 126q14 14 24.5 31t10.5 30q0 25 -48 25h-3l11 53h233l-11 -53h-9q-29 0 -52 -15t-61 -56l-188 -198l123 -286
q14 -31 32 -42t37 -11h13l-11 -53h-330l11 53h15q57 0 57 35q0 14 -5 31.5t-14 37.5l-61 138l-140 -145q-18 -19 -29 -36t-11 -31t11 -22t44 -8h3l-11 -53h-252z" />
    <glyph glyph-name="Y" unicode="Y" horiz-adv-x="693" 
d="M111 0l11 53h27q32 0 57.5 11t33.5 50l29 139l-108 355q-9 29 -20 41t-40 12h-13l11 53h325l-11 -53h-45q-42 0 -42 -29q0 -20 12 -65l36 -141q8 -29 15 -64.5t8 -60.5q9 20 28.5 50.5t44.5 67.5l99 141q12 17 21 37.5t9 36.5q0 14 -14 20.5t-47 6.5h-21l12 53h262
l-11 -53h-19q-22 0 -39.5 -13.5t-45.5 -51.5l-248 -344l-30 -142q-1 -5 -2.5 -12t-1.5 -11q0 -22 21 -28t52 -6h24l-11 -53h-369z" />
    <glyph glyph-name="Z" unicode="Z" horiz-adv-x="666" 
d="M-2 0l9 50l493 603h-174q-45 0 -72.5 -20.5t-40.5 -66.5l-17 -58h-72l49 206h532l-10 -51l-494 -602h206q46 0 79.5 24.5t51.5 84.5l11 36h72l-48 -206h-575z" />
    <glyph glyph-name="bracketleft" unicode="[" horiz-adv-x="414" 
d="M21 -128l189 888h277l-11 -53h-43q-33 0 -60.5 -12.5t-37.5 -59.5l-135 -638q-3 -15 -3 -25q0 -31 20.5 -39t48.5 -8h43l-11 -53h-277z" />
    <glyph glyph-name="backslash" unicode="\" horiz-adv-x="288" 
d="M162 -121l-54 881h70l54 -881h-70z" />
    <glyph glyph-name="bracketright" unicode="]" horiz-adv-x="414" 
d="M-53 -128l11 53h43q33 0 60 12.5t37 59.5l135 638q3 15 3 25q0 31 -20 39t-49 8h-43l11 53h277l-189 -888h-276z" />
    <glyph glyph-name="asciicircum" unicode="^" horiz-adv-x="559" 
d="M46 262l211 452h43l212 -452h-78l-156 343l-154 -343h-78z" />
    <glyph glyph-name="underscore" unicode="_" horiz-adv-x="459" 
d="M-91 -142l13 59h468l-13 -59h-468z" />
    <glyph glyph-name="grave" unicode="`" horiz-adv-x="334" 
d="M307 606q-29 17 -61.5 45t-60 57t-41.5 48l3 10h147q8 -24 21.5 -52.5t28 -53.5t25.5 -41l-3 -13h-59z" />
    <glyph glyph-name="a" unicode="a" horiz-adv-x="665" 
d="M183 -10q-47 0 -79 24t-48 65.5t-16 93.5q0 47 13 98.5t39 100t64 88t87.5 63t110.5 23.5q39 0 79 -11t62 -24l53 24h53l-66 -312q-2 -11 -6.5 -31t-7.5 -40.5t-3 -33.5q0 -25 9.5 -37t25.5 -12q14 0 27 6t29 15l22 -40q-25 -19 -64.5 -39.5t-93.5 -20.5q-44 0 -71 20.5
t-27 59.5q0 29 7 65h-7q-24 -46 -50 -78.5t-59.5 -49.5t-82.5 -17zM246 70q22 0 45 18.5t44 50t37.5 70.5t24.5 79l35 166q-10 14 -27 21t-37 7q-35 0 -63 -21t-49 -56t-35.5 -76t-21.5 -82.5t-7 -74.5q0 -58 15.5 -80t38.5 -22z" />
    <glyph glyph-name="b" unicode="b" horiz-adv-x="623" 
d="M261 -10q-41 0 -74.5 11t-52.5 25l-57 -29h-56l133 625q3 13 5 26t2 17q0 27 -12 34.5t-41 7.5h-23l10 53h242l-40 -190q-3 -14 -10.5 -38t-16.5 -50t-16.5 -48t-11.5 -33h5q36 73 80 109t110 36q64 0 105 -46t41 -135q0 -61 -22 -126.5t-63.5 -122t-101 -91.5
t-135.5 -35zM256 54q35 0 63 21.5t49 56t35 75t21 80.5t7 71q0 59 -15.5 83.5t-37.5 24.5q-28 0 -52.5 -23t-44 -56t-32.5 -65t-17 -51l-41 -189q11 -12 27.5 -20t37.5 -8z" />
    <glyph glyph-name="c" unicode="c" horiz-adv-x="528" 
d="M261 -10q-60 0 -110.5 23t-80.5 68.5t-30 115.5q0 56 21 116.5t62.5 113.5t103 86t142.5 33q83 0 121 -31.5t38 -74.5q0 -31 -28 -57.5t-94 -26.5q0 53 -18.5 91.5t-54.5 38.5q-26 0 -47.5 -20t-39 -52.5t-29 -71.5t-18 -77.5t-6.5 -69.5q0 -61 28 -95t82 -34q53 0 86 26
t54 56q6 -6 10.5 -17.5t4.5 -26.5q0 -26 -20.5 -52.5t-64 -44t-112.5 -17.5z" />
    <glyph glyph-name="d" unicode="d" horiz-adv-x="665" 
d="M186 -10q-51 0 -83.5 25t-47.5 67t-15 91q0 47 13 98.5t38.5 100t62.5 88t85.5 63t107.5 23.5q29 0 55.5 -7t45.5 -18q2 13 5.5 32.5t5.5 28.5l9 40q7 30 7 43q0 27 -12 34.5t-41 7.5h-23l9 53h241l-116 -545q-4 -22 -9.5 -52.5t-5.5 -48.5q0 -23 11 -34t24 -11t28.5 7
t27.5 14l22 -39q-26 -22 -66 -41.5t-92 -19.5q-43 0 -70.5 20t-27.5 60q0 19 2 35.5t5 29.5h-6q-37 -77 -82.5 -111t-107.5 -34zM246 70q30 0 60.5 32t55 82t35.5 104l35 166q-10 14 -29 21t-37 7q-34 0 -61.5 -21t-48.5 -56t-35.5 -76.5t-21.5 -82.5t-7 -74
q0 -57 15.5 -79.5t38.5 -22.5z" />
    <glyph glyph-name="e" unicode="e" horiz-adv-x="535" 
d="M263 -10q-61 0 -111.5 22.5t-81 68.5t-30.5 116q0 56 22 117t65 113.5t106 85.5t146 33q71 0 111 -31t40 -87q0 -54 -38.5 -100t-106 -74.5t-153.5 -28.5h-37q-1 -10 -1.5 -20t-0.5 -18q0 -58 27 -89.5t82 -31.5q49 0 87 25.5t59 55.5q13 -16 13 -43q0 -24 -21 -50.5
t-64.5 -45t-112.5 -18.5zM202 282h9q50 0 89.5 17.5t62.5 48.5t23 73q0 31 -13 48t-36 17q-32 0 -60 -31t-47.5 -78t-27.5 -95z" />
    <glyph glyph-name="f" unicode="f" horiz-adv-x="404" 
d="M-78 -240q-15 0 -33 2.5t-28 5.5l12 58q8 -2 21.5 -4.5t24.5 -2.5q33 0 55.5 15.5t39.5 53t31 103.5l101 477h-91l10 47l96 21l8 37q23 99 79.5 148t157.5 49q77 0 117 -25t40 -62q0 -33 -29.5 -51.5t-85.5 -18.5q0 38 -9.5 68t-36.5 30q-31 0 -48 -27.5t-28 -83.5
l-13 -64h126l-14 -68h-127l-95 -447q-17 -80 -47.5 -131t-69.5 -79.5t-81 -39.5t-83 -11z" />
    <glyph glyph-name="g" unicode="g" horiz-adv-x="580" 
d="M170 -240q-121 0 -174.5 34.5t-53.5 92.5q0 36 23 62t59.5 42.5t77.5 23.5q-19 11 -35 33.5t-16 48.5q0 32 26 56.5t82 55.5q-33 16 -51.5 46.5t-18.5 73.5q0 35 15.5 73t46.5 70.5t78 53t110 20.5q33 0 62 -7.5t51 -24.5q23 29 51 48.5t65 19.5q31 0 45 -15t14 -38
q0 -25 -13.5 -48t-50.5 -23q0 43 -35 43q-13 0 -24.5 -5t-21.5 -13q11 -14 18 -35.5t7 -44.5q0 -33 -14 -70t-43.5 -69.5t-75 -53.5t-108.5 -21q-9 0 -26 1t-25 2q-23 -10 -39 -23.5t-16 -29.5t15.5 -22t38.5 -8l112 -11q74 -7 114.5 -39.5t40.5 -96.5q0 -91 -81 -146.5
t-230 -55.5zM269 250q27 0 46.5 17.5t32.5 44t19.5 54.5t6.5 50q0 68 -54 68q-26 0 -45.5 -17t-33 -43t-20 -54t-6.5 -51q0 -37 14.5 -53t39.5 -16zM185 -180q88 0 127.5 29t39.5 66q0 29 -21.5 44t-73.5 19l-89 8q-43 -6 -75 -31.5t-32 -60.5q0 -31 25.5 -52.5t98.5 -21.5z
" />
    <glyph glyph-name="h" unicode="h" horiz-adv-x="656" 
d="M487 -10q-57 0 -88 27.5t-31 75.5q0 21 4 51t12 68l17 79q5 20 11.5 53.5t6.5 58.5q0 19 -8 38t-34 19q-25 0 -50 -24t-46 -60.5t-36.5 -75.5t-21.5 -68l-52 -232h-150l132 622q3 13 5 26t2 17q0 27 -12 34.5t-41 7.5h-21l9 53h242l-47 -220q-5 -22 -13.5 -55t-14.5 -56
h6q38 60 83 88.5t112 28.5q43 0 67.5 -16t35.5 -42t11 -57q0 -25 -6.5 -56t-11.5 -57l-23 -107q-6 -27 -10 -51t-4 -45q0 -45 35 -45q16 0 29 6t30 17l24 -34q-24 -25 -61 -47t-92 -22z" />
    <glyph glyph-name="i" unicode="i" horiz-adv-x="354" 
d="M234 626q-33 0 -55.5 15.5t-22.5 46.5q0 44 28 63t65 19q32 0 56 -14.5t24 -48.5q0 -41 -29.5 -61t-65.5 -20zM185 -10q-57 0 -88 27.5t-31 75.5q0 21 4 51t12 68l39 186q3 13 5 26t2 17q0 27 -12 34.5t-41 7.5h-18l10 53h236l-69 -325q-6 -27 -10 -51t-4 -45
q0 -45 35 -45q16 0 29 6t30 17l24 -34q-24 -25 -61 -47t-92 -22z" />
    <glyph glyph-name="j" unicode="j" horiz-adv-x="338" 
d="M234 626q-33 0 -55.5 15.5t-22.5 46.5q0 44 28 63t65 19q32 0 56 -14.5t24 -48.5q0 -41 -29.5 -61t-65.5 -20zM-41 -240q-31 0 -54.5 3.5t-44.5 8.5l12 52q8 -2 21.5 -4.5t23.5 -2.5q31 0 52 16t36.5 54.5t29.5 104.5l86 406q3 13 5 26t2 17q0 27 -12 34.5t-41 7.5h-18
l10 53h236l-116 -544q-18 -89 -52.5 -139.5t-79.5 -71.5t-96 -21z" />
    <glyph glyph-name="k" unicode="k" horiz-adv-x="597" 
d="M507 0q-73 0 -116 22t-64 72l-59 140l-54 -35l-43 -199h-150l132 622q3 13 5 26t2 17q0 27 -12 34.5t-41 7.5h-21l9 53h242l-53 -244q-11 -53 -20 -91.5t-17.5 -74t-20.5 -80.5l156 141q24 22 31 34t7 19q0 22 -47 22l10 50h252l-10 -50q-34 0 -72.5 -20.5t-86.5 -64.5
l-80 -74l75 -163q22 -46 41 -70t36 -32.5t31 -8.5l-11 -53h-51z" />
    <glyph glyph-name="l" unicode="l" horiz-adv-x="354" 
d="M169 -10q-57 0 -88 27.5t-31 75.5q0 21 4 51t12 68l87 410q3 13 5 26t2 17q0 27 -12 34.5t-41 7.5h-21l9 53h242l-119 -549q-6 -27 -10 -51t-4 -45q0 -45 35 -45q16 0 29 6t30 17l24 -34q-24 -25 -61 -47t-92 -22z" />
    <glyph glyph-name="m" unicode="m" horiz-adv-x="969" 
d="M800 -7q-57 0 -88 27.5t-31 75.5q0 21 4 51t12 68l17 79q5 20 11.5 53.5t6.5 58.5q0 19 -7.5 38t-32.5 19q-24 0 -47.5 -23.5t-44 -59.5t-35 -74t-19.5 -67l-8 -42q-4 -21 -9.5 -58t-10 -75.5t-6.5 -63.5h-155q2 27 8 67.5t14 83t14 72.5l15 70q9 44 13 71t4 41
q0 18 -5 36.5t-28 18.5q-25 0 -49 -21.5t-44.5 -55t-35 -69t-20.5 -63.5l-56 -251h-150l84 398q2 9 4.5 22.5t2.5 20.5q0 27 -12 34.5t-41 7.5h-18l9 53h232l-19 -102h7q40 61 84.5 86.5t103.5 25.5q61 0 85 -32t25 -79v-6h6q37 60 81.5 90t108.5 30q62 0 86 -34.5t24 -80.5
q0 -25 -6.5 -56t-11.5 -57l-23 -107q-6 -27 -10 -51t-4 -45q0 -45 35 -45q16 0 29.5 6t29.5 17l24 -34q-24 -25 -61 -47t-92 -22z" />
    <glyph glyph-name="n" unicode="n" horiz-adv-x="672" 
d="M503 -10q-57 0 -88 27.5t-31 75.5q0 21 4 51t12 68l16 79q4 20 11 53.5t7 58.5q0 19 -8 38t-34 19q-25 0 -50 -24t-46 -60.5t-36.5 -75.5t-21.5 -68l-51 -232h-150l84 398q3 13 5 26t2 17q0 27 -12 34.5t-41 7.5h-18l9 53h222l-11 -107h6q38 60 83 88.5t112 28.5
q43 0 67.5 -16t35.5 -42t11 -57q0 -25 -6.5 -56t-11.5 -57l-22 -107q-6 -27 -10 -51t-4 -45q0 -45 35 -45q16 0 29 6t30 17l24 -34q-24 -25 -61 -47t-92 -22z" />
    <glyph glyph-name="o" unicode="o" horiz-adv-x="618" 
d="M252 -10q-94 0 -153 52t-59 158q0 56 20 116.5t60 112.5t102 84.5t146 32.5q58 0 105 -21.5t75.5 -67.5t28.5 -121q0 -54 -19 -114t-58.5 -113t-101 -86t-146.5 -33zM270 62q32 0 57 21t43.5 56t30.5 76t18 81t6 72q0 59 -20.5 85t-55.5 26q-38 0 -67.5 -31t-49 -78.5
t-29.5 -99.5t-10 -94q0 -61 20.5 -87.5t56.5 -26.5z" />
    <glyph glyph-name="p" unicode="p" horiz-adv-x="623" 
d="M-30 -240l136 638q3 13 5 26t2 17q0 27 -12 34.5t-41 7.5h-18l9 53h215l-26 -133h7q23 42 48 74.5t59 50.5t83 18q66 0 106 -46.5t40 -134.5q0 -43 -12.5 -93.5t-37 -100.5t-61.5 -91t-87 -65.5t-112 -24.5q-30 0 -56 6.5t-46 16.5q-1 -8 -3 -22t-5 -26l-14 -67
q-3 -13 -5 -26t-2 -17q0 -27 12.5 -34.5t40.5 -7.5h38l-9 -53h-254zM262 54q41 0 72.5 31t53 78.5t33 100t11.5 94.5q0 27 -4.5 52t-16.5 40.5t-33 15.5q-25 0 -49 -20.5t-44.5 -52t-35 -67t-20.5 -65.5l-38 -179q9 -9 28.5 -18.5t42.5 -9.5z" />
    <glyph glyph-name="q" unicode="q" horiz-adv-x="631" 
d="M304 -240l40 200q3 15 8.5 40t11.5 52t11 50t7 33h-6q-23 -43 -48 -76t-59.5 -51t-86.5 -18q-63 0 -102.5 46.5t-39.5 136.5q0 47 13.5 98.5t39.5 100t63.5 88t85.5 63t105 23.5q44 0 83 -10.5t64 -22.5l59 33h50l-137 -648q-3 -13 -5 -27t-2 -24q0 -18 12.5 -26t40.5 -8
h38l-9 -53h-237zM246 70q23 0 46 19.5t44 51.5t37 71t23 77l36 165q-7 11 -24 19.5t-41 8.5q-35 0 -63.5 -21.5t-49.5 -57t-34.5 -76.5t-20.5 -81t-7 -70q0 -58 15.5 -82t38.5 -24z" />
    <glyph glyph-name="r" unicode="r" horiz-adv-x="551" 
d="M37 0l85 402q2 8 4 22t2 24q0 19 -12 27t-41 8h-18l9 53h221l-21 -137h5q23 48 47 81t55.5 49.5t78.5 16.5q105 0 105 -78q0 -52 -30.5 -77.5t-87.5 -25.5q0 46 -10 72.5t-39 26.5q-21 0 -45 -24.5t-46.5 -66t-41.5 -93.5t-31 -107l-38 -173h-151z" />
    <glyph glyph-name="s" unicode="s" horiz-adv-x="514" 
d="M206 -10q-85 0 -137 29t-52 81q0 31 15.5 49.5t40.5 27t51 8.5q0 -35 9.5 -66t31.5 -50t58 -19q41 0 68.5 19.5t27.5 55.5q0 35 -27 55t-86 48q-58 28 -93 64.5t-35 94.5q0 74 60.5 116.5t165.5 42.5q68 0 108 -13.5t57.5 -34.5t17.5 -46q0 -40 -31 -58t-84 -18
q0 27 -7.5 53t-24 43.5t-45.5 17.5q-39 0 -61.5 -20.5t-22.5 -49.5q0 -33 27.5 -52t85.5 -45q65 -29 95 -66t30 -93q0 -81 -61.5 -127.5t-181.5 -46.5z" />
    <glyph glyph-name="t" unicode="t" horiz-adv-x="417" 
d="M197 -10q-55 0 -92.5 29t-37.5 88q0 18 3 41.5t7 42.5l60 277h-77l11 51q43 0 99 31.5t103 108.5h58l-26 -123h121l-14 -68h-122l-60 -274q-5 -22 -7.5 -40t-2.5 -32q0 -25 14 -37.5t36 -12.5q23 0 42.5 8t35.5 18l23 -38q-33 -28 -74.5 -49t-99.5 -21z" />
    <glyph glyph-name="u" unicode="u" horiz-adv-x="673" 
d="M504 -10q-66 0 -91.5 28t-25.5 68q0 8 2 22.5t3 21.5h-8q-29 -41 -58 -72.5t-63.5 -49t-82.5 -17.5q-43 0 -68 15.5t-35.5 41t-10.5 54.5q0 25 6 55l11 55l36 176q4 20 6.5 37t2.5 25q0 20 -12 26.5t-41 6.5h-18l9 53h240l-66 -299q-5 -24 -11 -55.5t-6 -50.5
q0 -22 9.5 -35t33.5 -13q22 0 45 19.5t44.5 51.5t38 70.5t25.5 76.5l53 235h149l-68 -325q-6 -27 -10 -51t-4 -45q0 -45 35 -45q16 0 29 6t30 17l24 -34q-24 -25 -61 -47t-92 -22z" />
    <glyph glyph-name="v" unicode="v" horiz-adv-x="586" 
d="M166 -9l-71 439q-5 32 -22.5 42.5t-46.5 10.5h-10l12 53h196l46 -296q8 -50 11 -90t5 -65h3q46 47 85 102t63.5 108.5t24.5 94.5q0 34 -19 49.5t-47 15.5q0 41 22.5 65.5t60.5 24.5q32 0 53.5 -21.5t21.5 -71.5q0 -47 -17.5 -98t-46.5 -102t-63 -98t-68 -86.5t-61 -66.5z
" />
    <glyph glyph-name="w" unicode="w" horiz-adv-x="875" 
d="M468 -10q0 46 -0.5 103t-2 114t-3 106.5t-3.5 80.5q-39 -92 -89.5 -192.5t-116.5 -198.5l-131 -9l-10 416q-1 46 -20.5 59.5t-48.5 13.5h-6l16 53h193q4 -68 6.5 -132.5t4 -132t1.5 -146.5h7q50 79 99.5 185.5t92.5 216.5l122 4q3 -30 6.5 -75t6.5 -96.5t5 -101t3.5 -89
t1.5 -59.5h7q59 72 91 126.5t45 96t13 74.5q0 30 -15.5 47t-34.5 21q3 38 24.5 54.5t49.5 16.5q33 0 51.5 -22t18.5 -63q0 -52 -22 -109.5t-59 -117.5t-84 -119t-97 -114z" />
    <glyph glyph-name="x" unicode="x" horiz-adv-x="604" 
d="M-20 0l10 53h13q19 0 33.5 4.5t31 18.5t41.5 41l126 139l-69 166q-16 38 -31.5 49.5t-44.5 11.5h-12l10 53h188l70 -190l139 190h122l-10 -53h-18q-19 0 -34 -6t-30.5 -21.5t-39.5 -44.5l-103 -119l73 -168q18 -42 34 -56.5t45 -14.5h13l-10 -53h-194l-75 202l-156 -202
h-122z" />
    <glyph glyph-name="y" unicode="y" horiz-adv-x="586" 
d="M-64 -240q-28 0 -55.5 5t-48.5 13l15 56q12 -4 33 -8.5t52 -4.5q61 0 109 21t87.5 55.5t74.5 76.5l-125 456q-8 30 -24 41.5t-45 11.5h-10l12 53h196l66 -259q7 -26 14 -62.5t12.5 -69.5t6.5 -50h3q40 54 72.5 107.5t52.5 102t20 86.5q0 34 -16.5 51.5t-45.5 17.5
q0 39 23 62.5t57 23.5q41 0 61.5 -22.5t20.5 -62.5q0 -78 -50.5 -175t-138.5 -219q-54 -76 -99.5 -133.5t-92.5 -96t-103.5 -58t-133.5 -19.5z" />
    <glyph glyph-name="z" unicode="z" horiz-adv-x="558" 
d="M0 0l11 51l334 417h-127q-40 0 -58 -25t-37 -65l-2 -4h-61l44 162h429l-11 -52l-335 -416h162q23 0 39 13.5t27 34.5t20 42l10 23h58l-43 -181h-460z" />
    <glyph glyph-name="braceleft" unicode="{" horiz-adv-x="442" 
d="M238 -125q-71 0 -107 29t-36 80q0 9 1.5 23t8.5 47l30 140q3 15 3 27q0 40 -28.5 53t-70.5 14l13 61q50 2 87 19.5t49 73.5l36 172q16 75 61 110.5t141 35.5h95l-11 -53h-39q-43 0 -61.5 -25t-29.5 -72l-37 -170q-10 -45 -41.5 -74t-92.5 -43l-2 -8q88 -23 88 -90
q0 -13 -3 -28l-37 -171q-3 -13 -4 -24t-1 -21q0 -25 12.5 -39t43.5 -14h39l-12 -53h-95z" />
    <glyph glyph-name="bar" unicode="|" horiz-adv-x="559" 
d="M243 -240v1000h72v-1000h-72z" />
    <glyph glyph-name="braceright" unicode="}" horiz-adv-x="442" 
d="M-54 -124l11 53h39q43 0 62 25t29 72l37 170q10 45 41.5 74.5t92.5 42.5l2 8q-88 23 -88 90q0 13 3 28l37 171q3 13 4 24t1 21q0 26 -12.5 39.5t-43.5 13.5h-39l12 53h95q71 0 107 -29t36 -80q0 -9 -1.5 -23t-8.5 -47l-30 -140q-3 -15 -3 -27q0 -40 28.5 -52.5
t70.5 -14.5l-13 -61q-49 -1 -86.5 -19t-49.5 -74l-36 -172q-16 -75 -61 -110.5t-141 -35.5h-95z" />
    <glyph glyph-name="asciitilde" unicode="~" horiz-adv-x="559" 
d="M46 262q0 49 12 92t40.5 70t79.5 27q36 0 61.5 -16t66.5 -51q31 -26 45.5 -37.5t29.5 -11.5q53 0 57 116h74q-2 -53 -14.5 -96t-40 -68t-74.5 -25q-32 0 -60 14.5t-67 50.5q-34 32 -47.5 41.5t-28.5 9.5q-30 0 -45 -27.5t-16 -88.5h-73z" />
    <glyph glyph-name="uni00A0" unicode="&#xa0;" horiz-adv-x="260" 
 />
    <glyph glyph-name="exclamdown" unicode="&#xa1;" horiz-adv-x="395" 
d="M232 381q-34 0 -57.5 17.5t-23.5 54.5q0 50 28 70t59 20q36 0 58.5 -17.5t22.5 -54.5q0 -40 -23.5 -65t-63.5 -25zM12 -179l173 486h58l-57 -486h-174z" />
    <glyph glyph-name="cent" unicode="&#xa2;" horiz-adv-x="559" 
d="M235 0l18 85q-53 8 -95 32.5t-66.5 67.5t-24.5 104q0 52 19.5 109.5t57.5 109t94.5 87t131.5 43.5l16 76h62l-16 -74q75 -4 109 -34.5t34 -70.5q0 -31 -28 -57.5t-94 -26.5q0 36 -9 66t-28 47l-86 -407q65 1 100.5 26.5t58.5 56.5q6 -6 11 -17.5t5 -26.5q0 -25 -20 -50.5
t-62.5 -43.5t-108.5 -20l-17 -82h-62zM272 174l85 405q-32 -7 -57.5 -39.5t-43 -77.5t-27 -92t-9.5 -83q0 -82 52 -113z" />
    <glyph glyph-name="sterling" unicode="&#xa3;" horiz-adv-x="559" 
d="M370 -10q-33 0 -64.5 11.5t-66 23t-75.5 11.5q-40 0 -69 -7t-63 -23l-16 -7l-22 53l34 21q33 20 65.5 49.5t54 69t21.5 90.5q0 17 -2 32.5t-4 31.5h-115l14 61h94q-3 19 -6.5 44.5t-3.5 50.5q0 106 71 164t189 58q85 0 130 -32t45 -77q0 -43 -32.5 -65.5t-92.5 -22.5
q0 68 -19.5 102t-53.5 34q-50 0 -77 -42t-27 -119q0 -29 3.5 -53.5t5.5 -41.5h178l-14 -61l-159 1q1 -7 2 -22t1 -28q0 -61 -38 -102t-107 -75l1 -4q26 10 47.5 14t40.5 4q30 0 62 -9t61 -18t49 -9q35 0 55.5 9t46.5 30l32 -50q-15 -16 -44 -39t-63.5 -40.5t-68.5 -17.5z
" />
    <glyph glyph-name="currency" unicode="&#xa4;" horiz-adv-x="559" 
d="M133 146l-51 51l58 58q-29 44 -29 101q0 60 32 104l-60 60l50 50l60 -60q22 14 47.5 22t53.5 8q56 0 101 -31l62 62l50 -51l-61 -62q15 -22 23.5 -47.5t8.5 -54.5q0 -28 -8 -53.5t-22 -47.5l59 -59l-50 -50l-59 59q-22 -15 -48.5 -23.5t-55.5 -8.5q-58 0 -103 31z
M294 240q50 0 82.5 34t32.5 82q0 50 -32.5 83.5t-82.5 33.5q-48 0 -81.5 -33.5t-33.5 -83.5q0 -32 15.5 -58.5t41.5 -42t58 -15.5z" />
    <glyph glyph-name="yen" unicode="&#xa5;" horiz-adv-x="559" 
d="M44 0l11 53h27q32 0 57.5 11t33.5 50l11 51h-140l12 59h140l13 58h-140l12 59h132l-61 267q-7 30 -16 41.5t-38 11.5h-13l11 53h273l-11 -53h-28q-42 0 -42 -29q0 -9 4 -27.5t8 -41.5l18 -95q6 -31 10.5 -61t4.5 -50q5 14 15.5 33t23.5 40l77 130q11 18 20.5 38t9.5 36
q0 14 -11 20.5t-28 6.5h-20l12 53h212l-11 -53h-3q-42 0 -92 -78l-156 -242h128l-12 -59h-140l-13 -58h140l-12 -59h-140l-11 -48q-5 -23 -5 -30q0 -22 20.5 -28t51.5 -6h24l-11 -53h-358z" />
    <glyph glyph-name="brokenbar" unicode="&#xa6;" horiz-adv-x="559" 
d="M243 360v400h72v-400h-72zM243 -240v400h72v-400h-72z" />
    <glyph glyph-name="section" unicode="&#xa7;" horiz-adv-x="544" 
d="M217 -115q-91 0 -143 33.5t-52 86.5q0 34 15.5 52t37.5 24.5t41 6.5q0 -63 30 -105t82 -42t82 31t30 75q0 27 -10.5 47t-38.5 41t-82 49q-76 41 -102.5 80t-26.5 82q0 54 29.5 88t64.5 55q-9 14 -16.5 37t-7.5 53q0 58 29.5 98t78.5 61.5t107 21.5q91 0 133.5 -32
t42.5 -76q0 -43 -27.5 -59t-71.5 -16q0 54 -22.5 91t-63.5 37q-24 0 -47 -10.5t-38 -32.5t-15 -56q0 -29 11.5 -49.5t38 -38.5t71.5 -42q74 -39 103.5 -74.5t29.5 -81.5t-28.5 -84t-67.5 -63q9 -14 16 -35.5t7 -47.5q0 -56 -27.5 -103t-76.5 -74.5t-116 -27.5zM379 214
q16 13 25 30t9 37q0 23 -20 48.5t-81 53.5q-32 15 -58.5 30.5t-49.5 33.5q-16 -12 -26 -26.5t-10 -35.5q0 -32 23.5 -56t89.5 -56q28 -13 54.5 -29t43.5 -30z" />
    <glyph glyph-name="dieresis" unicode="&#xa8;" horiz-adv-x="577" 
d="M457 622q-28 0 -45 15.5t-17 46.5q0 35 18 57t49 22q27 0 44.5 -15t17.5 -47q0 -44 -21.5 -61.5t-45.5 -17.5zM234 622q-28 0 -45 15.5t-17 46.5q0 35 18 57t49 22q27 0 44.5 -15t17.5 -47q0 -44 -21.5 -61.5t-45.5 -17.5z" />
    <glyph glyph-name="copyright" unicode="&#xa9;" horiz-adv-x="845" 
d="M422 -10q-106 0 -189 45.5t-130.5 128t-47.5 194.5q0 111 47 193.5t130 128t190 45.5t190 -45.5t130.5 -128t47.5 -194.5q0 -111 -47.5 -193.5t-130.5 -128t-190 -45.5zM423 50q91 0 158 38t104.5 107.5t37.5 162.5q0 94 -38 163t-105.5 106.5t-156.5 37.5t-157 -37.5
t-106 -106.5t-38 -164q0 -96 39 -165t107 -105.5t155 -36.5zM428 124q-105 0 -158 64t-53 170q0 103 57.5 167.5t167.5 64.5q71 0 106 -23.5t35 -58.5q0 -22 -20.5 -35t-49.5 -13q0 28 -16 53.5t-57 25.5q-71 0 -101 -47t-30 -134t34 -134.5t98 -47.5q47 0 80 21t46 46
q18 -10 18 -32q0 -20 -17.5 -40t-52.5 -33.5t-87 -13.5z" />
    <glyph glyph-name="ordfeminine" unicode="&#xaa;" horiz-adv-x="431" 
d="M173 381q-50 0 -73.5 32t-23.5 80q0 36 13.5 75t41.5 73t71 55.5t101 21.5q27 0 45 -6t33 -15l35 14h34l-37 -182l-7.5 -37.5t-3.5 -30.5q0 -26 21 -26q10 0 21 4.5t22 11.5l13 -24q-13 -13 -40.5 -29.5t-61.5 -16.5q-33 0 -51.5 13.5t-18.5 39.5q0 12 2 27.5t3 25.5h-4
q-25 -48 -58 -77t-77 -29zM224 439q18 0 36.5 20.5t33 49.5t20.5 53l24 95q-6 9 -18.5 14t-24.5 5q-25 0 -44 -18t-32 -46.5t-19.5 -58.5t-6.5 -54q0 -34 9 -47t22 -13z" />
    <glyph glyph-name="guillemotleft" unicode="&#xab;" horiz-adv-x="554" 
d="M376 70l-116 181l11 52l190 167h70l-143 -200l58 -200h-70zM175 70l-116 181l11 52l190 167h70l-143 -200l58 -200h-70z" />
    <glyph glyph-name="logicalnot" unicode="&#xac;" horiz-adv-x="559" 
d="M422 143v179h-357v71h429v-250h-72z" />
    <glyph glyph-name="uni00AD" unicode="&#xad;" horiz-adv-x="310" 
d="M10 220l23 105h260l-23 -105h-260z" />
    <glyph glyph-name="registered" unicode="&#xae;" horiz-adv-x="845" 
d="M422 -10q-106 0 -189 45.5t-130.5 128t-47.5 194.5q0 111 47 193.5t130 128t190 45.5t190 -45.5t130.5 -128t47.5 -194.5q0 -111 -47.5 -193.5t-130.5 -128t-190 -45.5zM423 50q91 0 158 38t104.5 107.5t37.5 162.5q0 94 -38 163t-105.5 106.5t-156.5 37.5t-157 -37.5
t-106 -106.5t-38 -164q0 -96 39 -165t107 -105.5t155 -36.5zM232 141v34h13q20 0 34.5 6t14.5 29v293q0 23 -14.5 29t-34.5 6h-13v41h183q176 0 176 -125q0 -49 -29.5 -75.5t-65.5 -38.5l89 -139q9 -16 19 -21t32 -5v-34h-105l-110 183h-49v-114q0 -23 15 -29t34 -6h14v-34
h-203zM372 368h42q54 0 74 21t20 64t-22 61t-75 18h-39v-164z" />
    <glyph glyph-name="overscore" unicode="&#xaf;" horiz-adv-x="459" 
d="M101 760l13 59h468l-13 -59h-468z" />
    <glyph glyph-name="degree" unicode="&#xb0;" horiz-adv-x="400" 
d="M279 423q-69 0 -112.5 42t-43.5 109t43.5 109.5t112.5 42.5t113 -42.5t44 -109.5t-44 -109t-113 -42zM280 491q38 0 59 23t21 61t-21.5 60.5t-58.5 22.5t-59 -22.5t-22 -60.5t21.5 -61t59.5 -23z" />
    <glyph glyph-name="plusminus" unicode="&#xb1;" horiz-adv-x="559" 
d="M243 143v179h-178v71h178v179h72v-179h179v-71h-179v-179h-72zM65 0v71h429v-71h-429z" />
    <glyph glyph-name="uni00B2" unicode="&#xb2;" horiz-adv-x="400" 
d="M59 386l14 72l148 108q61 44 83.5 82t22.5 80q0 20 -9.5 35.5t-32.5 15.5q-28 0 -45 -30t-22 -69q-35 0 -55.5 14.5t-20.5 36.5q0 41 41.5 67t114.5 26q62 0 99 -24.5t37 -65.5q0 -28 -13.5 -54t-45.5 -55.5t-89 -70.5l-125 -90h147q23 0 35 12.5t18 28.5l8 21h39
l-28 -140h-321z" />
    <glyph glyph-name="uni00B3" unicode="&#xb3;" horiz-adv-x="400" 
d="M214 380q-73 0 -110 22t-37 59q0 27 21.5 42t52.5 15q0 -19 8 -39t26 -33.5t48 -13.5q36 0 61.5 19t25.5 63q0 28 -22 48.5t-69 20.5h-33l8 47h34q42 0 73.5 27.5t31.5 76.5q0 20 -9 32.5t-29 12.5q-32 0 -48.5 -26t-21.5 -61q-37 0 -59 11t-22 35q0 35 42 60.5t115 25.5
q71 0 105 -26.5t34 -64.5q0 -52 -35.5 -79.5t-90.5 -38.5l-1 -5q46 -5 73.5 -28t27.5 -64q0 -45 -26 -75.5t-71 -46.5t-103 -16z" />
    <glyph glyph-name="acute" unicode="&#xb4;" horiz-adv-x="325" 
d="M112 606l3 13q19 19 40.5 45t42.5 53t36 49h157l-3 -10q-12 -13 -35.5 -33t-53.5 -42t-61 -41.5t-58 -33.5h-68z" />
    <glyph glyph-name="uni00B5" unicode="&#xb5;" horiz-adv-x="677" 
d="M63 -240q-28 0 -46.5 16t-18.5 56t14 93.5t35 126.5t42 173l66 311h152l-67 -314q-4 -22 -7.5 -41.5t-3.5 -38.5q0 -27 13.5 -47t42.5 -20q47 0 78.5 45t51.5 140l59 276h152l-69 -325q-6 -27 -10 -52t-4 -44q0 -45 35 -45q16 0 29 6t30 17l24 -34q-24 -25 -62 -47
t-97 -22q-41 0 -64 14.5t-32 38t-9 49.5h-5q-34 -46 -68 -74t-84 -28q-44 0 -75 20t-49 52q-7 -35 -10.5 -72t-3.5 -62q0 -34 15.5 -55t65.5 -26q-7 -44 -43 -65.5t-77 -21.5z" />
    <glyph glyph-name="paragraph" unicode="&#xb6;" horiz-adv-x="627" 
d="M193 -111v53h13q23 0 41.5 4.5t29.5 20t11 46.5v373h-71q-58 0 -91.5 27.5t-47.5 72t-14 96.5q0 80 35 129t120 49h392v-53h-13q-34 0 -58 -12.5t-24 -59.5v-622q0 -31 11 -46.5t30 -20t41 -4.5h13v-53h-167v809h-84v-809h-167z" />
    <glyph glyph-name="periodcentered" unicode="&#xb7;" horiz-adv-x="304" 
d="M166 274q-36 0 -58.5 17.5t-22.5 54.5q0 41 23.5 65.5t63.5 24.5q35 0 58 -17.5t23 -54.5q0 -50 -27.5 -70t-59.5 -20z" />
    <glyph glyph-name="cedilla" unicode="&#xb8;" horiz-adv-x="333" 
d="M113 -240q-51 0 -88 13l13 59q37 -8 65 -8q31 0 52.5 12t21.5 39q0 20 -19 32.5t-47 13.5l40 88h57l-19 -43q40 -5 64.5 -28t24.5 -55q0 -43 -25 -70t-63 -40t-77 -13z" />
    <glyph glyph-name="uni00B9" unicode="&#xb9;" horiz-adv-x="400" 
d="M84 387l9 44h51q19 0 33.5 6.5t19.5 31.5l60 284h-1q-28 -28 -50 -45t-40 -17q-14 0 -21.5 14.5t-7.5 34.5q17 3 30 7t28.5 12t39 22t61.5 38h74l-71 -336q-2 -9 -3 -16.5t-1 -9.5q0 -17 11.5 -21.5t27.5 -4.5h41l-9 -44h-282z" />
    <glyph glyph-name="ordmasculine" unicode="&#xba;" horiz-adv-x="407" 
d="M225 381q-69 0 -111 32.5t-42 93.5q0 34 14.5 71t43 69t71 52t98.5 20q62 0 106.5 -29.5t44.5 -94.5q0 -31 -13.5 -68t-41 -70.5t-70 -54.5t-100.5 -21zM230 431q27 0 47.5 16.5t34 42.5t20 55t6.5 53q0 68 -44 68q-34 0 -58.5 -27t-37.5 -65t-13 -72t11.5 -52.5
t33.5 -18.5z" />
    <glyph glyph-name="guillemotright" unicode="&#xbb;" horiz-adv-x="554" 
d="M223 70l144 200l-59 200h70l115 -180l-11 -52l-189 -168h-70zM22 70l144 200l-59 200h70l115 -180l-11 -52l-189 -168h-70z" />
    <glyph glyph-name="onequarter" unicode="&#xbc;" horiz-adv-x="882" 
d="M74 287l9 44h51q19 0 33.5 6.5t19.5 31.5l60 284h-1q-28 -28 -50 -45t-40 -17q-14 0 -21.5 14.5t-7.5 34.5q17 3 30 7t28.5 12t39 22t61.5 38h74l-71 -336q-2 -9 -3 -16.5t-1 -9.5q0 -17 11.5 -21.5t27.5 -4.5h41l-9 -44h-282zM185 0l507 714h84l-506 -714h-85zM564 0
l9 44h28q17 0 30.5 6.5t18.5 31.5l7 35h-189l8 40l258 275h89l-55 -262h78l-12 -53h-78l-4 -18q-2 -10 -3 -18.5t-1 -11.5q0 -16 10.5 -20.5t24.5 -4.5h20l-9 -44h-230zM550 170h119l23 112q3 16 8.5 31t10.5 34q-5 -8 -11.5 -16t-9.5 -12z" />
    <glyph glyph-name="onehalf" unicode="&#xbd;" horiz-adv-x="882" 
d="M74 287l9 44h51q19 0 33.5 6.5t19.5 31.5l60 284h-1q-28 -28 -50 -45t-40 -17q-14 0 -21.5 14.5t-7.5 34.5q17 3 30 7t28.5 12t39 22t61.5 38h74l-71 -336q-2 -9 -3 -16.5t-1 -9.5q0 -17 11.5 -21.5t27.5 -4.5h41l-9 -44h-282zM165 0l507 714h84l-506 -714h-85zM466 -1
l14 72l148 108q61 44 83.5 82t22.5 80q0 20 -9.5 35.5t-32.5 15.5q-28 0 -45 -30t-22 -69q-35 0 -55.5 14.5t-20.5 36.5q0 41 41.5 67t114.5 26q62 0 99 -24.5t37 -65.5q0 -28 -13.5 -54t-45.5 -55.5t-89 -70.5l-125 -90h147q23 0 35 12.5t18 28.5l8 21h39l-28 -140h-321z
" />
    <glyph glyph-name="threequarters" unicode="&#xbe;" horiz-adv-x="882" 
d="M200 280q-73 0 -110 22t-37 59q0 27 21.5 42t52.5 15q0 -19 8 -39t26 -33.5t48 -13.5q36 0 61.5 19t25.5 63q0 28 -22 48.5t-69 20.5h-33l8 47h34q42 0 73.5 27.5t31.5 76.5q0 20 -9 32.5t-29 12.5q-32 0 -48.5 -26t-21.5 -61q-37 0 -59 11t-22 35q0 35 42 60.5t115 25.5
q71 0 105 -26.5t34 -64.5q0 -52 -35.5 -79.5t-90.5 -38.5l-1 -5q46 -5 73.5 -28t27.5 -64q0 -45 -26 -75.5t-71 -46.5t-103 -16zM195 0l507 714h84l-506 -714h-85zM564 0l9 44h28q17 0 30.5 6.5t18.5 31.5l7 35h-189l8 40l258 275h89l-55 -262h78l-12 -53h-78l-4 -18
q-2 -10 -3 -18.5t-1 -11.5q0 -16 10.5 -20.5t24.5 -4.5h20l-9 -44h-230zM550 170h119l23 112q3 16 8.5 31t10.5 34q-5 -8 -11.5 -16t-9.5 -12z" />
    <glyph glyph-name="questiondown" unicode="&#xbf;" horiz-adv-x="535" 
d="M337 380q-34 0 -57.5 17.5t-23.5 54.5q0 50 28 70t59 20q36 0 58.5 -17.5t22.5 -54.5q0 -40 -23.5 -65t-63.5 -25zM218 -190q-100 0 -158 40t-58 126q0 58 32.5 103t89 79t127.5 59l34 89h66l2 -124q-88 -32 -141.5 -79t-53.5 -129q0 -49 20.5 -76t51.5 -27q32 0 51 20.5
t30 54t15 71.5q123 0 123 -77q0 -36 -28 -65.5t-80 -47t-123 -17.5z" />
    <glyph glyph-name="Agrave" unicode="&#xc0;" horiz-adv-x="753" 
d="M-49 0l11 53h21q19 0 31.5 6.5t26 23.5t31.5 48l339 583h137l84 -589q5 -31 17.5 -51.5t43.5 -20.5h18l-11 -53h-330l11 53h23q32 0 51 10t19 32q0 8 -0.5 16.5t-1.5 15.5l-13 108h-244l-50 -90q-19 -35 -19 -56q0 -36 56 -36h20l-11 -53h-260zM347 473l-98 -177h203
l-20 168q-4 44 -8 78.5t-5 70.5q-10 -24 -20 -44t-22 -42.5t-30 -53.5zM482 771q-29 17 -61.5 45t-60 57t-41.5 48l3 10h147q8 -24 21.5 -52.5t28 -53.5t25.5 -41l-3 -13h-59z" />
    <glyph glyph-name="Aacute" unicode="&#xc1;" horiz-adv-x="753" 
d="M-49 0l11 53h21q19 0 31.5 6.5t26 23.5t31.5 48l339 583h137l84 -589q5 -31 17.5 -51.5t43.5 -20.5h18l-11 -53h-330l11 53h23q32 0 51 10t19 32q0 8 -0.5 16.5t-1.5 15.5l-13 108h-244l-50 -90q-19 -35 -19 -56q0 -36 56 -36h20l-11 -53h-260zM347 473l-98 -177h203
l-20 168q-4 44 -8 78.5t-5 70.5q-10 -24 -20 -44t-22 -42.5t-30 -53.5zM419 771l3 13q19 19 40.5 45t42.5 53t36 49h157l-3 -10q-12 -13 -35.5 -33t-53.5 -42t-61 -41.5t-58 -33.5h-68z" />
    <glyph glyph-name="Acircumflex" unicode="&#xc2;" horiz-adv-x="753" 
d="M-49 0l11 53h21q19 0 31.5 6.5t26 23.5t31.5 48l339 583h137l84 -589q5 -31 17.5 -51.5t43.5 -20.5h18l-11 -53h-330l11 53h23q32 0 51 10t19 32q0 8 -0.5 16.5t-1.5 15.5l-13 108h-244l-50 -90q-19 -35 -19 -56q0 -36 56 -36h20l-11 -53h-260zM347 473l-98 -177h203
l-20 168q-4 44 -8 78.5t-5 70.5q-10 -24 -20 -44t-22 -42.5t-30 -53.5zM299 771l3 13q20 19 45.5 44.5t51.5 52.5t45 50h135q9 -20 22.5 -47.5t29 -54t26.5 -45.5l-3 -13h-63q-17 17 -44 43.5t-45 46.5q-18 -13 -41 -30t-45 -33t-39 -27h-78z" />
    <glyph glyph-name="Atilde" unicode="&#xc3;" horiz-adv-x="753" 
d="M-49 0l11 53h21q19 0 31.5 6.5t26 23.5t31.5 48l339 583h137l84 -589q5 -31 17.5 -51.5t43.5 -20.5h18l-11 -53h-330l11 53h23q32 0 51 10t19 32q0 8 -0.5 16.5t-1.5 15.5l-13 108h-244l-50 -90q-19 -35 -19 -56q0 -36 56 -36h20l-11 -53h-260zM347 473l-98 -177h203
l-20 168q-4 44 -8 78.5t-5 70.5q-10 -24 -20 -44t-22 -42.5t-30 -53.5zM565 771q-27 0 -48.5 9.5t-39.5 22t-34 22t-32 9.5q-21 0 -36 -16.5t-19 -36.5h-60q6 31 24.5 65t46.5 58.5t64 24.5q27 0 47.5 -9.5t38 -22t32.5 -22t31 -9.5q26 0 38 16.5t17 36.5h60
q-7 -32 -24 -66.5t-43.5 -58t-62.5 -23.5z" />
    <glyph glyph-name="Adieresis" unicode="&#xc4;" horiz-adv-x="753" 
d="M-49 0l11 53h21q19 0 31.5 6.5t26 23.5t31.5 48l339 583h137l84 -589q5 -31 17.5 -51.5t43.5 -20.5h18l-11 -53h-330l11 53h23q32 0 51 10t19 32q0 8 -0.5 16.5t-1.5 15.5l-13 108h-244l-50 -90q-19 -35 -19 -56q0 -36 56 -36h20l-11 -53h-260zM347 473l-98 -177h203
l-20 168q-4 44 -8 78.5t-5 70.5q-10 -24 -20 -44t-22 -42.5t-30 -53.5zM602 787q-28 0 -45 15.5t-17 46.5q0 35 18 57t49 22q27 0 44.5 -15t17.5 -47q0 -44 -21.5 -61.5t-45.5 -17.5zM379 787q-28 0 -45 15.5t-17 46.5q0 35 18 57t49 22q27 0 44.5 -15t17.5 -47
q0 -44 -21.5 -61.5t-45.5 -17.5z" />
    <glyph glyph-name="Aring" unicode="&#xc5;" horiz-adv-x="753" 
d="M-49 0l11 53h21q19 0 31.5 6.5t26 23.5t31.5 48l339 583h137l84 -589q5 -31 17.5 -51.5t43.5 -20.5h18l-11 -53h-330l11 53h23q32 0 51 10t19 32q0 8 -0.5 16.5t-1.5 15.5l-13 108h-244l-50 -90q-19 -35 -19 -56q0 -36 56 -36h20l-11 -53h-260zM347 473l-98 -177h203
l-20 168q-4 44 -8 78.5t-5 70.5q-10 -24 -20 -44t-22 -42.5t-30 -53.5zM474 659q-50 0 -85 28t-35 81t35 81t85 28t85 -28t35 -81t-35 -81t-85 -28zM474 714q24 0 41.5 12.5t17.5 41.5t-17.5 41.5t-41.5 12.5t-41.5 -12.5t-17.5 -41.5t17.5 -41.5t41.5 -12.5z" />
    <glyph glyph-name="AE" unicode="&#xc6;" horiz-adv-x="993" 
d="M-44 0l11 53h12q26 0 50 19t54 59l393 525l-65 5l11 53h595l-35 -186h-71q1 5 2 18t2 25.5t1 14.5q0 28 -16 47.5t-55 19.5h-133l-53 -250h227l-13 -60h-227l-60 -282h158q47 0 74 24.5t39 57.5l16 43h71l-46 -186h-574l11 53h13q32 0 58 10.5t34 49.5l24 116h-228
l-59 -84q-15 -21 -21.5 -37.5t-6.5 -24.5q0 -30 53 -30h17l-11 -53h-252zM281 289h196l77 364h-15q-32 -46 -64 -92.5t-66 -93.5z" />
    <glyph glyph-name="Ccedilla" unicode="&#xc7;" horiz-adv-x="668" 
d="M366 -10q-143 0 -223 70.5t-80 198.5q0 90 31.5 174t89.5 150.5t139.5 105.5t181.5 39t149 -32.5t49 -86.5q0 -43 -40 -66.5t-101 -23.5q0 21 -3 46t-11.5 47.5t-25.5 37t-45 14.5q-47 0 -86 -25.5t-69 -68t-51 -96.5t-31.5 -111t-10.5 -110q0 -85 43.5 -132t129.5 -47
q69 0 112 28.5t68 62.5q6 -4 11.5 -13.5t5.5 -20.5q0 -33 -27 -65.5t-78.5 -54t-127.5 -21.5zM258 -240q-51 0 -88 13l13 59q37 -8 65 -8q31 0 52.5 12t21.5 39q0 20 -19 32.5t-47 13.5l40 88h57l-19 -43q40 -5 64.5 -28t24.5 -55q0 -43 -25 -70t-63 -40t-77 -13z" />
    <glyph glyph-name="Egrave" unicode="&#xc8;" horiz-adv-x="633" 
d="M-23 0l11 53h13q32 0 58 10.5t34 49.5l104 491q4 14 4 23q0 22 -20 28t-52 6h-13l11 53h543l-35 -186h-71q1 5 2 18t2 25.5t1 14.5q0 28 -16 47.5t-55 19.5h-133l-53 -250h227l-13 -60h-227l-60 -282h158q47 0 74 24.5t39 57.5l16 43h71l-46 -186h-574zM425 771
q-29 17 -61.5 45t-60 57t-41.5 48l3 10h147q8 -24 21.5 -52.5t28 -53.5t25.5 -41l-3 -13h-59z" />
    <glyph glyph-name="Eacute" unicode="&#xc9;" horiz-adv-x="633" 
d="M-23 0l11 53h13q32 0 58 10.5t34 49.5l104 491q4 14 4 23q0 22 -20 28t-52 6h-13l11 53h543l-35 -186h-71q1 5 2 18t2 25.5t1 14.5q0 28 -16 47.5t-55 19.5h-133l-53 -250h227l-13 -60h-227l-60 -282h158q47 0 74 24.5t39 57.5l16 43h71l-46 -186h-574zM362 771l3 13
q19 19 40.5 45t42.5 53t36 49h157l-3 -10q-12 -13 -35.5 -33t-53.5 -42t-61 -41.5t-58 -33.5h-68z" />
    <glyph glyph-name="Ecircumflex" unicode="&#xca;" horiz-adv-x="633" 
d="M-23 0l11 53h13q32 0 58 10.5t34 49.5l104 491q4 14 4 23q0 22 -20 28t-52 6h-13l11 53h543l-35 -186h-71q1 5 2 18t2 25.5t1 14.5q0 28 -16 47.5t-55 19.5h-133l-53 -250h227l-13 -60h-227l-60 -282h158q47 0 74 24.5t39 57.5l16 43h71l-46 -186h-574zM269 771l3 13
q20 19 45.5 44.5t51.5 52.5t45 50h135q9 -20 22.5 -47.5t29 -54t26.5 -45.5l-3 -13h-63q-17 17 -44 43.5t-45 46.5q-18 -13 -41 -30t-45 -33t-39 -27h-78z" />
    <glyph glyph-name="Edieresis" unicode="&#xcb;" horiz-adv-x="633" 
d="M-23 0l11 53h13q32 0 58 10.5t34 49.5l104 491q4 14 4 23q0 22 -20 28t-52 6h-13l11 53h543l-35 -186h-71q1 5 2 18t2 25.5t1 14.5q0 28 -16 47.5t-55 19.5h-133l-53 -250h227l-13 -60h-227l-60 -282h158q47 0 74 24.5t39 57.5l16 43h71l-46 -186h-574zM552 787
q-28 0 -45 15.5t-17 46.5q0 35 18 57t49 22q27 0 44.5 -15t17.5 -47q0 -44 -21.5 -61.5t-45.5 -17.5zM329 787q-28 0 -45 15.5t-17 46.5q0 35 18 57t49 22q27 0 44.5 -15t17.5 -47q0 -44 -21.5 -61.5t-45.5 -17.5z" />
    <glyph glyph-name="Igrave" unicode="&#xcc;" horiz-adv-x="401" 
d="M-23 0l11 53h13q32 0 58 10.5t34 49.5l104 484q2 10 3 18t1 12q0 22 -20 28t-52 6h-13l11 53h345l-11 -53h-13q-33 0 -60 -10.5t-35 -50.5l-103 -490q-1 -5 -2.5 -12t-1.5 -11q0 -22 21 -28t52 -6h13l-11 -53h-344zM307 771q-29 17 -61.5 45t-60 57t-41.5 48l3 10h147
q8 -24 21.5 -52.5t28 -53.5t25.5 -41l-3 -13h-59z" />
    <glyph glyph-name="Iacute" unicode="&#xcd;" horiz-adv-x="401" 
d="M-23 0l11 53h13q32 0 58 10.5t34 49.5l104 484q2 10 3 18t1 12q0 22 -20 28t-52 6h-13l11 53h345l-11 -53h-13q-33 0 -60 -10.5t-35 -50.5l-103 -490q-1 -5 -2.5 -12t-1.5 -11q0 -22 21 -28t52 -6h13l-11 -53h-344zM241 771l3 13q19 19 40.5 45t42.5 53t36 49h157l-3 -10
q-12 -13 -35.5 -33t-53.5 -42t-61 -41.5t-58 -33.5h-68z" />
    <glyph glyph-name="Icircumflex" unicode="&#xce;" horiz-adv-x="401" 
d="M-23 0l11 53h13q32 0 58 10.5t34 49.5l104 484q2 10 3 18t1 12q0 22 -20 28t-52 6h-13l11 53h345l-11 -53h-13q-33 0 -60 -10.5t-35 -50.5l-103 -490q-1 -5 -2.5 -12t-1.5 -11q0 -22 21 -28t52 -6h13l-11 -53h-344zM129 771l3 13q20 19 45.5 44.5t51.5 52.5t45 50h135
q9 -20 22.5 -47.5t29 -54t26.5 -45.5l-3 -13h-63q-17 17 -44 43.5t-45 46.5q-18 -13 -41 -30t-45 -33t-39 -27h-78z" />
    <glyph glyph-name="Idieresis" unicode="&#xcf;" horiz-adv-x="401" 
d="M-23 0l11 53h13q32 0 58 10.5t34 49.5l104 484q2 10 3 18t1 12q0 22 -20 28t-52 6h-13l11 53h345l-11 -53h-13q-33 0 -60 -10.5t-35 -50.5l-103 -490q-1 -5 -2.5 -12t-1.5 -11q0 -22 21 -28t52 -6h13l-11 -53h-344zM427 787q-28 0 -45 15.5t-17 46.5q0 35 18 57t49 22
q27 0 44.5 -15t17.5 -47q0 -44 -21.5 -61.5t-45.5 -17.5zM204 787q-28 0 -45 15.5t-17 46.5q0 35 18 57t49 22q27 0 44.5 -15t17.5 -47q0 -44 -21.5 -61.5t-45.5 -17.5z" />
    <glyph glyph-name="Eth" unicode="&#xd0;" horiz-adv-x="768" 
d="M-24 0l11 53h14q32 0 58 10.5t34 49.5l49 230h-83l13 61h83l42 200q4 14 4 23q0 22 -20 28t-52 6h-13l11 53h320q143 0 223 -69.5t80 -202.5q0 -89 -27.5 -169t-81.5 -141.5t-132.5 -96.5t-180.5 -35h-352zM240 62h45q94 0 160 49.5t101.5 137t35.5 201.5
q0 105 -47.5 154t-127.5 49h-42l-53 -249h126l-13 -61h-126z" />
    <glyph glyph-name="Ntilde" unicode="&#xd1;" horiz-adv-x="788" 
d="M-23 0l11 53h13q32 0 58 10.5t34 49.5l102 480q6 27 6 34q0 22 -20 28t-52 6h-13l11 53h222l244 -513l84 395q2 11 3.5 19t1.5 12q0 22 -20.5 28t-52.5 6h-3l11 53h252l-11 -53h-13q-31 0 -57.5 -10.5t-34.5 -49.5l-127 -601h-92l-271 566l-94 -448q-2 -11 -3.5 -19
t-1.5 -12q0 -22 21 -28t52 -6h3l-11 -53h-252zM594 771q-27 0 -48.5 9.5t-39.5 22t-34 22t-32 9.5q-21 0 -36 -16.5t-19 -36.5h-60q6 31 24.5 65t46.5 58.5t64 24.5q27 0 47.5 -9.5t38 -22t32.5 -22t31 -9.5q26 0 38 16.5t17 36.5h60q-7 -32 -24 -66.5t-43.5 -58
t-62.5 -23.5z" />
    <glyph glyph-name="Ograve" unicode="&#xd2;" horiz-adv-x="792" 
d="M342 -11q-79 0 -142 31.5t-100 93.5t-37 152q0 58 17 121t51.5 123t85.5 108.5t119 77.5t153 29q74 0 136.5 -29t101 -89.5t38.5 -156.5q0 -55 -16.5 -118t-50 -123.5t-84 -110.5t-118.5 -79.5t-154 -29.5zM362 55q50 0 89 28t67.5 74t47.5 101.5t28 111.5t9 103
q0 98 -38 142.5t-97 44.5q-50 0 -89 -28t-68 -74t-47.5 -101.5t-28 -111.5t-9.5 -103q0 -98 39.5 -142.5t96.5 -44.5zM480 771q-29 17 -61.5 45t-60 57t-41.5 48l3 10h147q8 -24 21.5 -52.5t28 -53.5t25.5 -41l-3 -13h-59z" />
    <glyph glyph-name="Oacute" unicode="&#xd3;" horiz-adv-x="792" 
d="M342 -11q-79 0 -142 31.5t-100 93.5t-37 152q0 58 17 121t51.5 123t85.5 108.5t119 77.5t153 29q74 0 136.5 -29t101 -89.5t38.5 -156.5q0 -55 -16.5 -118t-50 -123.5t-84 -110.5t-118.5 -79.5t-154 -29.5zM362 55q50 0 89 28t67.5 74t47.5 101.5t28 111.5t9 103
q0 98 -38 142.5t-97 44.5q-50 0 -89 -28t-68 -74t-47.5 -101.5t-28 -111.5t-9.5 -103q0 -98 39.5 -142.5t96.5 -44.5zM427 771l3 13q19 19 40.5 45t42.5 53t36 49h157l-3 -10q-12 -13 -35.5 -33t-53.5 -42t-61 -41.5t-58 -33.5h-68z" />
    <glyph glyph-name="Ocircumflex" unicode="&#xd4;" horiz-adv-x="792" 
d="M342 -11q-79 0 -142 31.5t-100 93.5t-37 152q0 58 17 121t51.5 123t85.5 108.5t119 77.5t153 29q74 0 136.5 -29t101 -89.5t38.5 -156.5q0 -55 -16.5 -118t-50 -123.5t-84 -110.5t-118.5 -79.5t-154 -29.5zM362 55q50 0 89 28t67.5 74t47.5 101.5t28 111.5t9 103
q0 98 -38 142.5t-97 44.5q-50 0 -89 -28t-68 -74t-47.5 -101.5t-28 -111.5t-9.5 -103q0 -98 39.5 -142.5t96.5 -44.5zM315 771l3 13q20 19 45.5 44.5t51.5 52.5t45 50h135q9 -20 22.5 -47.5t29 -54t26.5 -45.5l-3 -13h-63q-17 17 -44 43.5t-45 46.5q-18 -13 -41 -30t-45 -33
t-39 -27h-78z" />
    <glyph glyph-name="Otilde" unicode="&#xd5;" horiz-adv-x="792" 
d="M342 -11q-79 0 -142 31.5t-100 93.5t-37 152q0 58 17 121t51.5 123t85.5 108.5t119 77.5t153 29q74 0 136.5 -29t101 -89.5t38.5 -156.5q0 -55 -16.5 -118t-50 -123.5t-84 -110.5t-118.5 -79.5t-154 -29.5zM362 55q50 0 89 28t67.5 74t47.5 101.5t28 111.5t9 103
q0 98 -38 142.5t-97 44.5q-50 0 -89 -28t-68 -74t-47.5 -101.5t-28 -111.5t-9.5 -103q0 -98 39.5 -142.5t96.5 -44.5zM563 771q-27 0 -48.5 9.5t-39.5 22t-34 22t-32 9.5q-21 0 -36 -16.5t-19 -36.5h-60q6 31 24.5 65t46.5 58.5t64 24.5q27 0 47.5 -9.5t38 -22t32.5 -22
t31 -9.5q26 0 38 16.5t17 36.5h60q-7 -32 -24 -66.5t-43.5 -58t-62.5 -23.5z" />
    <glyph glyph-name="Odieresis" unicode="&#xd6;" horiz-adv-x="792" 
d="M342 -11q-79 0 -142 31.5t-100 93.5t-37 152q0 58 17 121t51.5 123t85.5 108.5t119 77.5t153 29q74 0 136.5 -29t101 -89.5t38.5 -156.5q0 -55 -16.5 -118t-50 -123.5t-84 -110.5t-118.5 -79.5t-154 -29.5zM362 55q50 0 89 28t67.5 74t47.5 101.5t28 111.5t9 103
q0 98 -38 142.5t-97 44.5q-50 0 -89 -28t-68 -74t-47.5 -101.5t-28 -111.5t-9.5 -103q0 -98 39.5 -142.5t96.5 -44.5zM616 787q-28 0 -45 15.5t-17 46.5q0 35 18 57t49 22q27 0 44.5 -15t17.5 -47q0 -44 -21.5 -61.5t-45.5 -17.5zM393 787q-28 0 -45 15.5t-17 46.5
q0 35 18 57t49 22q27 0 44.5 -15t17.5 -47q0 -44 -21.5 -61.5t-45.5 -17.5z" />
    <glyph glyph-name="multiply" unicode="&#xd7;" horiz-adv-x="559" 
d="M132 160l-51 51l147 148l-147 147l51 50l147 -147l147 148l51 -51l-148 -148l148 -148l-50 -50l-148 148z" />
    <glyph glyph-name="Oslash" unicode="&#xd8;" horiz-adv-x="792" 
d="M83 -40l69 92q-41 35 -65 88.5t-24 125.5q0 58 17 121t51.5 123t85.5 108.5t119 77.5t153 29q39 0 75.5 -8t68.5 -24l47 62h70l-70 -94q39 -33 62 -85.5t23 -125.5q0 -55 -16.5 -118t-50 -123.5t-84 -110.5t-118.5 -79.5t-154 -29.5q-80 0 -143 32l-45 -61h-71zM226 242
q0 -45 9 -79l335 445q-18 27 -44.5 39.5t-57.5 12.5q-50 0 -89 -28t-68 -74t-47.5 -101.5t-28 -111.5t-9.5 -103zM362 55q50 0 89 28t67.5 74t47.5 101.5t28 111.5t9 103q0 42 -8 75l-333 -444q18 -25 44 -37t56 -12z" />
    <glyph glyph-name="Ugrave" unicode="&#xd9;" horiz-adv-x="747" 
d="M341 -10q-117 0 -179.5 45.5t-62.5 127.5q0 16 3.5 44t7.5 45l73 341q6 27 6 34q0 22 -20 28t-52 6h-13l11 53h346l-11 -53h-13q-33 0 -60 -10.5t-35 -48.5l-76 -352q-4 -17 -8 -41.5t-4 -45.5q0 -102 123 -102q61 0 97 22.5t56 62.5t30 90l77 361q2 8 3 17t1 13
q0 22 -20 28t-52 6h-13l11 53h263l-11 -53h-13q-32 0 -59 -10.5t-35 -50.5l-80 -380q-24 -112 -94 -171t-197 -59zM496 771q-29 17 -61.5 45t-60 57t-41.5 48l3 10h147q8 -24 21.5 -52.5t28 -53.5t25.5 -41l-3 -13h-59z" />
    <glyph glyph-name="Uacute" unicode="&#xda;" horiz-adv-x="747" 
d="M341 -10q-117 0 -179.5 45.5t-62.5 127.5q0 16 3.5 44t7.5 45l73 341q6 27 6 34q0 22 -20 28t-52 6h-13l11 53h346l-11 -53h-13q-33 0 -60 -10.5t-35 -48.5l-76 -352q-4 -17 -8 -41.5t-4 -45.5q0 -102 123 -102q61 0 97 22.5t56 62.5t30 90l77 361q2 8 3 17t1 13
q0 22 -20 28t-52 6h-13l11 53h263l-11 -53h-13q-32 0 -59 -10.5t-35 -50.5l-80 -380q-24 -112 -94 -171t-197 -59zM443 771l3 13q19 19 40.5 45t42.5 53t36 49h157l-3 -10q-12 -13 -35.5 -33t-53.5 -42t-61 -41.5t-58 -33.5h-68z" />
    <glyph glyph-name="Ucircumflex" unicode="&#xdb;" horiz-adv-x="747" 
d="M341 -10q-117 0 -179.5 45.5t-62.5 127.5q0 16 3.5 44t7.5 45l73 341q6 27 6 34q0 22 -20 28t-52 6h-13l11 53h346l-11 -53h-13q-33 0 -60 -10.5t-35 -48.5l-76 -352q-4 -17 -8 -41.5t-4 -45.5q0 -102 123 -102q61 0 97 22.5t56 62.5t30 90l77 361q2 8 3 17t1 13
q0 22 -20 28t-52 6h-13l11 53h263l-11 -53h-13q-32 0 -59 -10.5t-35 -50.5l-80 -380q-24 -112 -94 -171t-197 -59zM337 771l3 13q20 19 45.5 44.5t51.5 52.5t45 50h135q9 -20 22.5 -47.5t29 -54t26.5 -45.5l-3 -13h-63q-17 17 -44 43.5t-45 46.5q-18 -13 -41 -30t-45 -33
t-39 -27h-78z" />
    <glyph glyph-name="Udieresis" unicode="&#xdc;" horiz-adv-x="747" 
d="M341 -10q-117 0 -179.5 45.5t-62.5 127.5q0 16 3.5 44t7.5 45l73 341q6 27 6 34q0 22 -20 28t-52 6h-13l11 53h346l-11 -53h-13q-33 0 -60 -10.5t-35 -48.5l-76 -352q-4 -17 -8 -41.5t-4 -45.5q0 -102 123 -102q61 0 97 22.5t56 62.5t30 90l77 361q2 8 3 17t1 13
q0 22 -20 28t-52 6h-13l11 53h263l-11 -53h-13q-32 0 -59 -10.5t-35 -50.5l-80 -380q-24 -112 -94 -171t-197 -59zM623 787q-28 0 -45 15.5t-17 46.5q0 35 18 57t49 22q27 0 44.5 -15t17.5 -47q0 -44 -21.5 -61.5t-45.5 -17.5zM400 787q-28 0 -45 15.5t-17 46.5q0 35 18 57
t49 22q27 0 44.5 -15t17.5 -47q0 -44 -21.5 -61.5t-45.5 -17.5z" />
    <glyph glyph-name="Yacute" unicode="&#xdd;" horiz-adv-x="693" 
d="M111 0l11 53h27q32 0 57.5 11t33.5 50l29 139l-108 355q-9 29 -20 41t-40 12h-13l11 53h325l-11 -53h-45q-42 0 -42 -29q0 -20 12 -65l36 -141q8 -29 15 -64.5t8 -60.5q9 20 28.5 50.5t44.5 67.5l99 141q12 17 21 37.5t9 36.5q0 14 -14 20.5t-47 6.5h-21l12 53h262
l-11 -53h-19q-22 0 -39.5 -13.5t-45.5 -51.5l-248 -344l-30 -142q-1 -5 -2.5 -12t-1.5 -11q0 -22 21 -28t52 -6h24l-11 -53h-369zM403 771l3 13q19 19 40.5 45t42.5 53t36 49h157l-3 -10q-12 -13 -35.5 -33t-53.5 -42t-61 -41.5t-58 -33.5h-68z" />
    <glyph glyph-name="Thorn" unicode="&#xde;" horiz-adv-x="638" 
d="M-23 0l11 53h13q32 0 58 10.5t34 49.5l104 491q4 14 4 23q0 22 -20 28t-52 6h-13l11 53h345l-11 -53h-13q-33 0 -60 -10.5t-35 -50.5l-3 -15h33q118 0 186.5 -49.5t68.5 -145.5q0 -38 -12 -81t-44.5 -80.5t-93 -61t-156.5 -23.5h-75l-7 -34q-1 -5 -2.5 -12t-1.5 -11
q0 -22 21 -28t52 -6h13l-11 -53h-344zM269 202h41q61 0 97 24t52 65.5t16 95.5q0 75 -32.5 107t-82.5 32h-22z" />
    <glyph glyph-name="germandbls" unicode="&#xdf;" horiz-adv-x="695" 
d="M-82 -240q-19 0 -36.5 3t-27.5 7l14 55q8 -2 19.5 -4t27.5 -2q44 0 71.5 39.5t48.5 132.5l101 477h-81l13 68h83l8 31q18 76 58.5 120.5t99 64t127.5 19.5q108 0 162 -42.5t54 -113.5q0 -25 -5.5 -60.5t-12.5 -63.5h-57q-59 0 -86.5 -22t-27.5 -58q0 -28 18 -48.5
t69 -50.5q48 -28 69 -63.5t21 -83.5q0 -52 -27.5 -91.5t-77.5 -61.5t-116 -22q-76 0 -121.5 29t-45.5 80q0 40 28.5 61t74.5 21q0 -31 7.5 -60.5t24 -49t43.5 -19.5q33 0 50.5 22t17.5 58q0 32 -14.5 56.5t-61.5 52.5q-46 27 -72.5 64t-26.5 86q0 54 26 88t67 50t85 16
q5 23 7.5 42t2.5 35q0 41 -20 66t-62 25q-54 0 -84 -37t-42 -102l-125 -582q-15 -69 -44 -114t-66.5 -71t-78.5 -36.5t-79 -10.5z" />
    <glyph glyph-name="agrave" unicode="&#xe0;" horiz-adv-x="665" 
d="M183 -10q-47 0 -79 24t-48 65.5t-16 93.5q0 47 13 98.5t39 100t64 88t87.5 63t110.5 23.5q39 0 79 -11t62 -24l53 24h53l-66 -312q-2 -11 -6.5 -31t-7.5 -40.5t-3 -33.5q0 -25 9.5 -37t25.5 -12q14 0 27 6t29 15l22 -40q-25 -19 -64.5 -39.5t-93.5 -20.5q-44 0 -71 20.5
t-27 59.5q0 29 7 65h-7q-24 -46 -50 -78.5t-59.5 -49.5t-82.5 -17zM246 70q22 0 45 18.5t44 50t37.5 70.5t24.5 79l35 166q-10 14 -27 21t-37 7q-35 0 -63 -21t-49 -56t-35.5 -76t-21.5 -82.5t-7 -74.5q0 -58 15.5 -80t38.5 -22zM370 606q-29 17 -61.5 45t-60 57t-41.5 48
l3 10h147q8 -24 21.5 -52.5t28 -53.5t25.5 -41l-3 -13h-59z" />
    <glyph glyph-name="aacute" unicode="&#xe1;" horiz-adv-x="665" 
d="M183 -10q-47 0 -79 24t-48 65.5t-16 93.5q0 47 13 98.5t39 100t64 88t87.5 63t110.5 23.5q39 0 79 -11t62 -24l53 24h53l-66 -312q-2 -11 -6.5 -31t-7.5 -40.5t-3 -33.5q0 -25 9.5 -37t25.5 -12q14 0 27 6t29 15l22 -40q-25 -19 -64.5 -39.5t-93.5 -20.5q-44 0 -71 20.5
t-27 59.5q0 29 7 65h-7q-24 -46 -50 -78.5t-59.5 -49.5t-82.5 -17zM246 70q22 0 45 18.5t44 50t37.5 70.5t24.5 79l35 166q-10 14 -27 21t-37 7q-35 0 -63 -21t-49 -56t-35.5 -76t-21.5 -82.5t-7 -74.5q0 -58 15.5 -80t38.5 -22zM308 606l3 13q19 19 40.5 45t42.5 53t36 49
h157l-3 -10q-12 -13 -35.5 -33t-53.5 -42t-61 -41.5t-58 -33.5h-68z" />
    <glyph glyph-name="acircumflex" unicode="&#xe2;" horiz-adv-x="665" 
d="M183 -10q-47 0 -79 24t-48 65.5t-16 93.5q0 47 13 98.5t39 100t64 88t87.5 63t110.5 23.5q39 0 79 -11t62 -24l53 24h53l-66 -312q-2 -11 -6.5 -31t-7.5 -40.5t-3 -33.5q0 -25 9.5 -37t25.5 -12q14 0 27 6t29 15l22 -40q-25 -19 -64.5 -39.5t-93.5 -20.5q-44 0 -71 20.5
t-27 59.5q0 29 7 65h-7q-24 -46 -50 -78.5t-59.5 -49.5t-82.5 -17zM246 70q22 0 45 18.5t44 50t37.5 70.5t24.5 79l35 166q-10 14 -27 21t-37 7q-35 0 -63 -21t-49 -56t-35.5 -76t-21.5 -82.5t-7 -74.5q0 -58 15.5 -80t38.5 -22zM187 606l3 13q20 19 45.5 44.5t51.5 52.5
t45 50h135q9 -20 22.5 -47.5t29 -54t26.5 -45.5l-3 -13h-63q-17 17 -44 43.5t-45 46.5q-18 -13 -41 -30t-45 -33t-39 -27h-78z" />
    <glyph glyph-name="atilde" unicode="&#xe3;" horiz-adv-x="665" 
d="M183 -10q-47 0 -79 24t-48 65.5t-16 93.5q0 47 13 98.5t39 100t64 88t87.5 63t110.5 23.5q39 0 79 -11t62 -24l53 24h53l-66 -312q-2 -11 -6.5 -31t-7.5 -40.5t-3 -33.5q0 -25 9.5 -37t25.5 -12q14 0 27 6t29 15l22 -40q-25 -19 -64.5 -39.5t-93.5 -20.5q-44 0 -71 20.5
t-27 59.5q0 29 7 65h-7q-24 -46 -50 -78.5t-59.5 -49.5t-82.5 -17zM246 70q22 0 45 18.5t44 50t37.5 70.5t24.5 79l35 166q-10 14 -27 21t-37 7q-35 0 -63 -21t-49 -56t-35.5 -76t-21.5 -82.5t-7 -74.5q0 -58 15.5 -80t38.5 -22zM463 606q-27 0 -48.5 9.5t-39.5 22t-34 22
t-32 9.5q-21 0 -36 -16.5t-19 -36.5h-60q6 31 24.5 65t46.5 58.5t64 24.5q27 0 47.5 -9.5t38 -22t32.5 -22t31 -9.5q26 0 38 16.5t17 36.5h60q-7 -32 -24 -66.5t-43.5 -58t-62.5 -23.5z" />
    <glyph glyph-name="adieresis" unicode="&#xe4;" horiz-adv-x="665" 
d="M183 -10q-47 0 -79 24t-48 65.5t-16 93.5q0 47 13 98.5t39 100t64 88t87.5 63t110.5 23.5q39 0 79 -11t62 -24l53 24h53l-66 -312q-2 -11 -6.5 -31t-7.5 -40.5t-3 -33.5q0 -25 9.5 -37t25.5 -12q14 0 27 6t29 15l22 -40q-25 -19 -64.5 -39.5t-93.5 -20.5q-44 0 -71 20.5
t-27 59.5q0 29 7 65h-7q-24 -46 -50 -78.5t-59.5 -49.5t-82.5 -17zM246 70q22 0 45 18.5t44 50t37.5 70.5t24.5 79l35 166q-10 14 -27 21t-37 7q-35 0 -63 -21t-49 -56t-35.5 -76t-21.5 -82.5t-7 -74.5q0 -58 15.5 -80t38.5 -22zM478 622q-28 0 -45 15.5t-17 46.5
q0 35 18 57t49 22q27 0 44.5 -15t17.5 -47q0 -44 -21.5 -61.5t-45.5 -17.5zM255 622q-28 0 -45 15.5t-17 46.5q0 35 18 57t49 22q27 0 44.5 -15t17.5 -47q0 -44 -21.5 -61.5t-45.5 -17.5z" />
    <glyph glyph-name="aring" unicode="&#xe5;" horiz-adv-x="665" 
d="M183 -10q-47 0 -79 24t-48 65.5t-16 93.5q0 47 13 98.5t39 100t64 88t87.5 63t110.5 23.5q39 0 79 -11t62 -24l53 24h53l-66 -312q-2 -11 -6.5 -31t-7.5 -40.5t-3 -33.5q0 -25 9.5 -37t25.5 -12q14 0 27 6t29 15l22 -40q-25 -19 -64.5 -39.5t-93.5 -20.5q-44 0 -71 20.5
t-27 59.5q0 29 7 65h-7q-24 -46 -50 -78.5t-59.5 -49.5t-82.5 -17zM246 70q22 0 45 18.5t44 50t37.5 70.5t24.5 79l35 166q-10 14 -27 21t-37 7q-35 0 -63 -21t-49 -56t-35.5 -76t-21.5 -82.5t-7 -74.5q0 -58 15.5 -80t38.5 -22zM392 590q-50 0 -85 28t-35 81t35 81t85 28
t85 -28t35 -81t-35 -81t-85 -28zM392 645q24 0 41.5 12.5t17.5 41.5t-17.5 41.5t-41.5 12.5t-41.5 -12.5t-17.5 -41.5t17.5 -41.5t41.5 -12.5z" />
    <glyph glyph-name="ae" unicode="&#xe6;" horiz-adv-x="880" 
d="M183 -10q-47 0 -79 24t-48 65.5t-16 93.5q0 47 13 98.5t39 100t64 88t87.5 63t110.5 23.5q50 0 91 -15.5t75 -45.5q39 30 88.5 46.5t110.5 16.5q75 0 115.5 -31t40.5 -87q0 -54 -38.5 -100.5t-106 -75.5t-153.5 -29h-37q-1 -10 -1.5 -20t-0.5 -18q0 -58 27 -89.5
t82 -31.5q49 0 87 25.5t59 55.5q13 -16 13 -43q0 -24 -21 -50.5t-64.5 -45t-112.5 -18.5q-182 0 -220 145h-9q-37 -70 -79.5 -107.5t-116.5 -37.5zM547 282h9q50 0 89.5 17.5t62.5 49.5t23 74q0 31 -13 48t-36 17q-32 0 -60 -31.5t-47.5 -79t-27.5 -95.5zM246 70q25 0 51 23
t49 61t38 82q10 52 28 104.5t49 93.5q-10 14 -36.5 31t-56.5 17q-35 0 -63 -21t-49 -56t-35.5 -76t-21.5 -82.5t-7 -74.5q0 -58 15.5 -80t38.5 -22z" />
    <glyph glyph-name="ccedilla" unicode="&#xe7;" horiz-adv-x="528" 
d="M261 -10q-60 0 -110.5 23t-80.5 68.5t-30 115.5q0 56 21 116.5t62.5 113.5t103 86t142.5 33q83 0 121 -31.5t38 -74.5q0 -31 -28 -57.5t-94 -26.5q0 53 -18.5 91.5t-54.5 38.5q-26 0 -47.5 -20t-39 -52.5t-29 -71.5t-18 -77.5t-6.5 -69.5q0 -61 28 -95t82 -34q53 0 86 26
t54 56q6 -6 10.5 -17.5t4.5 -26.5q0 -26 -20.5 -52.5t-64 -44t-112.5 -17.5zM172 -240q-51 0 -88 13l13 59q37 -8 65 -8q31 0 52.5 12t21.5 39q0 20 -19 32.5t-47 13.5l40 88h57l-19 -43q40 -5 64.5 -28t24.5 -55q0 -43 -25 -70t-63 -40t-77 -13z" />
    <glyph glyph-name="egrave" unicode="&#xe8;" horiz-adv-x="535" 
d="M263 -10q-61 0 -111.5 22.5t-81 68.5t-30.5 116q0 56 22 117t65 113.5t106 85.5t146 33q71 0 111 -31t40 -87q0 -54 -38.5 -100t-106 -74.5t-153.5 -28.5h-37q-1 -10 -1.5 -20t-0.5 -18q0 -58 27 -89.5t82 -31.5q49 0 87 25.5t59 55.5q13 -16 13 -43q0 -24 -21 -50.5
t-64.5 -45t-112.5 -18.5zM202 282h9q50 0 89.5 17.5t62.5 48.5t23 73q0 31 -13 48t-36 17q-32 0 -60 -31t-47.5 -78t-27.5 -95zM372 606q-29 17 -61.5 45t-60 57t-41.5 48l3 10h147q8 -24 21.5 -52.5t28 -53.5t25.5 -41l-3 -13h-59z" />
    <glyph glyph-name="eacute" unicode="&#xe9;" horiz-adv-x="535" 
d="M263 -10q-61 0 -111.5 22.5t-81 68.5t-30.5 116q0 56 22 117t65 113.5t106 85.5t146 33q71 0 111 -31t40 -87q0 -54 -38.5 -100t-106 -74.5t-153.5 -28.5h-37q-1 -10 -1.5 -20t-0.5 -18q0 -58 27 -89.5t82 -31.5q49 0 87 25.5t59 55.5q13 -16 13 -43q0 -24 -21 -50.5
t-64.5 -45t-112.5 -18.5zM202 282h9q50 0 89.5 17.5t62.5 48.5t23 73q0 31 -13 48t-36 17q-32 0 -60 -31t-47.5 -78t-27.5 -95zM306 606l3 13q19 19 40.5 45t42.5 53t36 49h157l-3 -10q-12 -13 -35.5 -33t-53.5 -42t-61 -41.5t-58 -33.5h-68z" />
    <glyph glyph-name="ecircumflex" unicode="&#xea;" horiz-adv-x="535" 
d="M263 -10q-61 0 -111.5 22.5t-81 68.5t-30.5 116q0 56 22 117t65 113.5t106 85.5t146 33q71 0 111 -31t40 -87q0 -54 -38.5 -100t-106 -74.5t-153.5 -28.5h-37q-1 -10 -1.5 -20t-0.5 -18q0 -58 27 -89.5t82 -31.5q49 0 87 25.5t59 55.5q13 -16 13 -43q0 -24 -21 -50.5
t-64.5 -45t-112.5 -18.5zM202 282h9q50 0 89.5 17.5t62.5 48.5t23 73q0 31 -13 48t-36 17q-32 0 -60 -31t-47.5 -78t-27.5 -95zM178 606l3 13q20 19 45.5 44.5t51.5 52.5t45 50h135q9 -20 22.5 -47.5t29 -54t26.5 -45.5l-3 -13h-63q-17 17 -44 43.5t-45 46.5
q-18 -13 -41 -30t-45 -33t-39 -27h-78z" />
    <glyph glyph-name="edieresis" unicode="&#xeb;" horiz-adv-x="535" 
d="M263 -10q-61 0 -111.5 22.5t-81 68.5t-30.5 116q0 56 22 117t65 113.5t106 85.5t146 33q71 0 111 -31t40 -87q0 -54 -38.5 -100t-106 -74.5t-153.5 -28.5h-37q-1 -10 -1.5 -20t-0.5 -18q0 -58 27 -89.5t82 -31.5q49 0 87 25.5t59 55.5q13 -16 13 -43q0 -24 -21 -50.5
t-64.5 -45t-112.5 -18.5zM202 282h9q50 0 89.5 17.5t62.5 48.5t23 73q0 31 -13 48t-36 17q-32 0 -60 -31t-47.5 -78t-27.5 -95zM466 622q-28 0 -45 15.5t-17 46.5q0 35 18 57t49 22q27 0 44.5 -15t17.5 -47q0 -44 -21.5 -61.5t-45.5 -17.5zM243 622q-28 0 -45 15.5t-17 46.5
q0 35 18 57t49 22q27 0 44.5 -15t17.5 -47q0 -44 -21.5 -61.5t-45.5 -17.5z" />
    <glyph glyph-name="igrave" unicode="&#xec;" horiz-adv-x="354" 
d="M185 -10q-57 0 -88 27.5t-31 75.5q0 21 4 51t12 68l39 186q10 41 5 63t-51 22h-18l9 53h237l-69 -325q-6 -27 -10 -51t-4 -45q0 -45 35 -45q16 0 29 6t30 17l24 -34q-24 -25 -61 -47t-92 -22zM223 606q-29 17 -61.5 45t-60 57t-41.5 48l3 10h147q8 -24 21.5 -52.5
t28 -53.5t25.5 -41l-3 -13h-59z" />
    <glyph glyph-name="iacute" unicode="&#xed;" horiz-adv-x="354" 
d="M185 -10q-57 0 -88 27.5t-31 75.5q0 21 4 51t12 68l39 186q10 41 5 63t-51 22h-18l9 53h237l-69 -325q-6 -27 -10 -51t-4 -45q0 -45 35 -45q16 0 29 6t30 17l24 -34q-24 -25 -61 -47t-92 -22zM165 606l3 13q19 19 40.5 45t42.5 53t36 49h157l-3 -10q-12 -13 -35.5 -33
t-53.5 -42t-61 -41.5t-58 -33.5h-68z" />
    <glyph glyph-name="icircumflex" unicode="&#xee;" horiz-adv-x="354" 
d="M185 -10q-57 0 -88 27.5t-31 75.5q0 21 4 51t12 68l39 186q10 41 5 63t-51 22h-18l9 53h237l-69 -325q-6 -27 -10 -51t-4 -45q0 -45 35 -45q16 0 29 6t30 17l24 -34q-24 -25 -61 -47t-92 -22zM30 606l3 13q20 19 45.5 44.5t51.5 52.5t45 50h135q9 -20 22.5 -47.5t29 -54
t26.5 -45.5l-3 -13h-63q-17 17 -44 43.5t-45 46.5q-18 -13 -41 -30t-45 -33t-39 -27h-78z" />
    <glyph glyph-name="idieresis" unicode="&#xef;" horiz-adv-x="354" 
d="M185 -10q-57 0 -88 27.5t-31 75.5q0 21 4 51t12 68l39 186q10 41 5 63t-51 22h-18l9 53h237l-69 -325q-6 -27 -10 -51t-4 -45q0 -45 35 -45q16 0 29 6t30 17l24 -34q-24 -25 -61 -47t-92 -22zM329 622q-28 0 -45 15.5t-17 46.5q0 35 18 57t49 22q27 0 44.5 -15t17.5 -47
q0 -44 -21.5 -61.5t-45.5 -17.5zM106 622q-28 0 -45 15.5t-17 46.5q0 35 18 57t49 22q27 0 44.5 -15t17.5 -47q0 -44 -21.5 -61.5t-45.5 -17.5z" />
    <glyph glyph-name="eth" unicode="&#xf0;" horiz-adv-x="615" 
d="M250 -10q-92 0 -151 52t-59 158q0 46 18 100t54.5 102.5t92.5 79.5t133 31q25 0 48 -7t39 -20q-13 74 -62 128l-158 -72l14 70l96 44q-46 31 -106 50l19 61q93 -22 168 -73l148 68l-15 -71l-83 -38q59 -55 94 -133t35 -178q0 -65 -19 -128t-59 -113.5t-101.5 -80.5
t-145.5 -30zM273 62q41 0 69 27t46 68.5t26 87t8 82.5q0 61 -21 89t-59 28q-41 0 -69.5 -26t-46.5 -66.5t-26 -83.5t-8 -76q0 -70 19.5 -100t61.5 -30z" />
    <glyph glyph-name="ntilde" unicode="&#xf1;" horiz-adv-x="672" 
d="M503 -10q-57 0 -88 27.5t-31 75.5q0 21 4 51t12 68l16 79q4 20 11 53.5t7 58.5q0 19 -8 38t-34 19q-25 0 -50 -24t-46 -60.5t-36.5 -75.5t-21.5 -68l-51 -232h-150l84 398q3 13 5 26t2 17q0 27 -12 34.5t-41 7.5h-18l9 53h222l-11 -107h6q38 60 83 88.5t112 28.5
q43 0 67.5 -16t35.5 -42t11 -57q0 -25 -6.5 -56t-11.5 -57l-22 -107q-6 -27 -10 -51t-4 -45q0 -45 35 -45q16 0 29 6t30 17l24 -34q-24 -25 -61 -47t-92 -22zM464 606q-27 0 -48.5 9.5t-39.5 22t-34 22t-32 9.5q-21 0 -36 -16.5t-19 -36.5h-60q6 31 24.5 65t46.5 58.5
t64 24.5q27 0 47.5 -9.5t38 -22t32.5 -22t31 -9.5q26 0 38 16.5t17 36.5h60q-7 -32 -24 -66.5t-43.5 -58t-62.5 -23.5z" />
    <glyph glyph-name="ograve" unicode="&#xf2;" horiz-adv-x="618" 
d="M252 -10q-94 0 -153 52t-59 158q0 56 20 116.5t60 112.5t102 84.5t146 32.5q58 0 105 -21.5t75.5 -67.5t28.5 -121q0 -54 -19 -114t-58.5 -113t-101 -86t-146.5 -33zM270 62q32 0 57 21t43.5 56t30.5 76t18 81t6 72q0 59 -20.5 85t-55.5 26q-38 0 -67.5 -31t-49 -78.5
t-29.5 -99.5t-10 -94q0 -61 20.5 -87.5t56.5 -26.5zM370 606q-29 17 -61.5 45t-60 57t-41.5 48l3 10h147q8 -24 21.5 -52.5t28 -53.5t25.5 -41l-3 -13h-59z" />
    <glyph glyph-name="oacute" unicode="&#xf3;" horiz-adv-x="618" 
d="M252 -10q-94 0 -153 52t-59 158q0 56 20 116.5t60 112.5t102 84.5t146 32.5q58 0 105 -21.5t75.5 -67.5t28.5 -121q0 -54 -19 -114t-58.5 -113t-101 -86t-146.5 -33zM270 62q32 0 57 21t43.5 56t30.5 76t18 81t6 72q0 59 -20.5 85t-55.5 26q-38 0 -67.5 -31t-49 -78.5
t-29.5 -99.5t-10 -94q0 -61 20.5 -87.5t56.5 -26.5zM326 606l3 13q19 19 40.5 45t42.5 53t36 49h157l-3 -10q-12 -13 -35.5 -33t-53.5 -42t-61 -41.5t-58 -33.5h-68z" />
    <glyph glyph-name="ocircumflex" unicode="&#xf4;" horiz-adv-x="618" 
d="M252 -10q-94 0 -153 52t-59 158q0 56 20 116.5t60 112.5t102 84.5t146 32.5q58 0 105 -21.5t75.5 -67.5t28.5 -121q0 -54 -19 -114t-58.5 -113t-101 -86t-146.5 -33zM270 62q32 0 57 21t43.5 56t30.5 76t18 81t6 72q0 59 -20.5 85t-55.5 26q-38 0 -67.5 -31t-49 -78.5
t-29.5 -99.5t-10 -94q0 -61 20.5 -87.5t56.5 -26.5zM196 606l3 13q20 19 45.5 44.5t51.5 52.5t45 50h135q9 -20 22.5 -47.5t29 -54t26.5 -45.5l-3 -13h-63q-17 17 -44 43.5t-45 46.5q-18 -13 -41 -30t-45 -33t-39 -27h-78z" />
    <glyph glyph-name="otilde" unicode="&#xf5;" horiz-adv-x="618" 
d="M252 -10q-94 0 -153 52t-59 158q0 56 20 116.5t60 112.5t102 84.5t146 32.5q58 0 105 -21.5t75.5 -67.5t28.5 -121q0 -54 -19 -114t-58.5 -113t-101 -86t-146.5 -33zM270 62q32 0 57 21t43.5 56t30.5 76t18 81t6 72q0 59 -20.5 85t-55.5 26q-38 0 -67.5 -31t-49 -78.5
t-29.5 -99.5t-10 -94q0 -61 20.5 -87.5t56.5 -26.5zM463 606q-27 0 -48.5 9.5t-39.5 22t-34 22t-32 9.5q-21 0 -36 -16.5t-19 -36.5h-60q6 31 24.5 65t46.5 58.5t64 24.5q27 0 47.5 -9.5t38 -22t32.5 -22t31 -9.5q26 0 38 16.5t17 36.5h60q-7 -32 -24 -66.5t-43.5 -58
t-62.5 -23.5z" />
    <glyph glyph-name="odieresis" unicode="&#xf6;" horiz-adv-x="618" 
d="M252 -10q-94 0 -153 52t-59 158q0 56 20 116.5t60 112.5t102 84.5t146 32.5q58 0 105 -21.5t75.5 -67.5t28.5 -121q0 -54 -19 -114t-58.5 -113t-101 -86t-146.5 -33zM270 62q32 0 57 21t43.5 56t30.5 76t18 81t6 72q0 59 -20.5 85t-55.5 26q-38 0 -67.5 -31t-49 -78.5
t-29.5 -99.5t-10 -94q0 -61 20.5 -87.5t56.5 -26.5zM493 622q-28 0 -45 15.5t-17 46.5q0 35 18 57t49 22q27 0 44.5 -15t17.5 -47q0 -44 -21.5 -61.5t-45.5 -17.5zM270 622q-28 0 -45 15.5t-17 46.5q0 35 18 57t49 22q27 0 44.5 -15t17.5 -47q0 -44 -21.5 -61.5t-45.5 -17.5
z" />
    <glyph glyph-name="divide" unicode="&#xf7;" horiz-adv-x="559" 
d="M280 486q-24 0 -40 13.5t-16 47.5q0 35 16 48t40 13q23 0 39.5 -13t16.5 -48q0 -34 -16.5 -47.5t-39.5 -13.5zM65 322v71h429v-71h-429zM280 107q-24 0 -40 13.5t-16 47.5q0 35 16 48t40 13q23 0 39.5 -13t16.5 -48q0 -34 -16.5 -47.5t-39.5 -13.5z" />
    <glyph glyph-name="oslash" unicode="&#xf8;" horiz-adv-x="618" 
d="M13 -50l79 99q-25 26 -38.5 64t-13.5 87q0 56 20 116.5t60 112.5t102 84.5t146 32.5q58 0 103 -20l48 60h75l-74 -93q26 -26 41.5 -64.5t15.5 -92.5t-19 -114t-58.5 -113t-101 -86t-146.5 -33q-65 0 -112 24l-51 -64h-76zM349 479q-38 0 -67.5 -31t-49 -78.5t-29.5 -99.5
t-10 -94l216 271q-19 32 -60 32zM270 62q32 0 57 21t43.5 56t30.5 76t18 81t6 72v5l-218 -274q19 -37 63 -37z" />
    <glyph glyph-name="ugrave" unicode="&#xf9;" horiz-adv-x="673" 
d="M504 -10q-66 0 -91.5 28t-25.5 68q0 8 2 22.5t3 21.5h-8q-29 -41 -58 -72.5t-63.5 -49t-82.5 -17.5q-43 0 -68 15.5t-35.5 41t-10.5 54.5q0 25 6 55l11 55l36 176q4 20 6.5 37t2.5 25q0 20 -12 26.5t-41 6.5h-18l9 53h240l-66 -299q-5 -24 -11 -55.5t-6 -50.5
q0 -22 9.5 -35t33.5 -13q22 0 45 19.5t44.5 51.5t38 70.5t25.5 76.5l53 235h149l-68 -325q-6 -27 -10 -51t-4 -45q0 -45 35 -45q16 0 29 6t30 17l24 -34q-24 -25 -61 -47t-92 -22zM382 606q-29 17 -61.5 45t-60 57t-41.5 48l3 10h147q8 -24 21.5 -52.5t28 -53.5t25.5 -41
l-3 -13h-59z" />
    <glyph glyph-name="uacute" unicode="&#xfa;" horiz-adv-x="673" 
d="M504 -10q-66 0 -91.5 28t-25.5 68q0 8 2 22.5t3 21.5h-8q-29 -41 -58 -72.5t-63.5 -49t-82.5 -17.5q-43 0 -68 15.5t-35.5 41t-10.5 54.5q0 25 6 55l11 55l36 176q4 20 6.5 37t2.5 25q0 20 -12 26.5t-41 6.5h-18l9 53h240l-66 -299q-5 -24 -11 -55.5t-6 -50.5
q0 -22 9.5 -35t33.5 -13q22 0 45 19.5t44.5 51.5t38 70.5t25.5 76.5l53 235h149l-68 -325q-6 -27 -10 -51t-4 -45q0 -45 35 -45q16 0 29 6t30 17l24 -34q-24 -25 -61 -47t-92 -22zM333 606l3 13q19 19 40.5 45t42.5 53t36 49h157l-3 -10q-12 -13 -35.5 -33t-53.5 -42
t-61 -41.5t-58 -33.5h-68z" />
    <glyph glyph-name="ucircumflex" unicode="&#xfb;" horiz-adv-x="673" 
d="M504 -10q-66 0 -91.5 28t-25.5 68q0 8 2 22.5t3 21.5h-8q-29 -41 -58 -72.5t-63.5 -49t-82.5 -17.5q-43 0 -68 15.5t-35.5 41t-10.5 54.5q0 25 6 55l11 55l36 176q4 20 6.5 37t2.5 25q0 20 -12 26.5t-41 6.5h-18l9 53h240l-66 -299q-5 -24 -11 -55.5t-6 -50.5
q0 -22 9.5 -35t33.5 -13q22 0 45 19.5t44.5 51.5t38 70.5t25.5 76.5l53 235h149l-68 -325q-6 -27 -10 -51t-4 -45q0 -45 35 -45q16 0 29 6t30 17l24 -34q-24 -25 -61 -47t-92 -22zM217 606l3 13q20 19 45.5 44.5t51.5 52.5t45 50h135q9 -20 22.5 -47.5t29 -54t26.5 -45.5
l-3 -13h-63q-17 17 -44 43.5t-45 46.5q-18 -13 -41 -30t-45 -33t-39 -27h-78z" />
    <glyph glyph-name="udieresis" unicode="&#xfc;" horiz-adv-x="673" 
d="M504 -10q-66 0 -91.5 28t-25.5 68q0 8 2 22.5t3 21.5h-8q-29 -41 -58 -72.5t-63.5 -49t-82.5 -17.5q-43 0 -68 15.5t-35.5 41t-10.5 54.5q0 25 6 55l11 55l36 176q4 20 6.5 37t2.5 25q0 20 -12 26.5t-41 6.5h-18l9 53h240l-66 -299q-5 -24 -11 -55.5t-6 -50.5
q0 -22 9.5 -35t33.5 -13q22 0 45 19.5t44.5 51.5t38 70.5t25.5 76.5l53 235h149l-68 -325q-6 -27 -10 -51t-4 -45q0 -45 35 -45q16 0 29 6t30 17l24 -34q-24 -25 -61 -47t-92 -22zM528 622q-28 0 -45 15.5t-17 46.5q0 35 18 57t49 22q27 0 44.5 -15t17.5 -47
q0 -44 -21.5 -61.5t-45.5 -17.5zM305 622q-28 0 -45 15.5t-17 46.5q0 35 18 57t49 22q27 0 44.5 -15t17.5 -47q0 -44 -21.5 -61.5t-45.5 -17.5z" />
    <glyph glyph-name="yacute" unicode="&#xfd;" horiz-adv-x="586" 
d="M-64 -240q-28 0 -55.5 5t-48.5 13l15 56q12 -4 33 -8.5t52 -4.5q61 0 109 21t87.5 55.5t74.5 76.5l-125 456q-8 30 -24 41.5t-45 11.5h-10l12 53h196l66 -259q7 -26 14 -62.5t12.5 -69.5t6.5 -50h3q40 54 72.5 107.5t52.5 102t20 86.5q0 34 -16.5 51.5t-45.5 17.5
q0 39 23 62.5t57 23.5q41 0 61.5 -22.5t20.5 -62.5q0 -78 -50.5 -175t-138.5 -219q-54 -76 -99.5 -133.5t-92.5 -96t-103.5 -58t-133.5 -19.5zM245 606l3 13q19 19 40.5 45t42.5 53t36 49h157l-3 -10q-12 -13 -35.5 -33t-53.5 -42t-61 -41.5t-58 -33.5h-68z" />
    <glyph glyph-name="thorn" unicode="&#xfe;" horiz-adv-x="623" 
d="M-30 -240l184 862q3 13 5 26t2 17q0 27 -12 34.5t-41 7.5h-23l9 53h243l-40 -190q-3 -14 -10.5 -37.5t-17 -49.5t-17.5 -47.5t-12 -32.5h7q23 42 48 74.5t59 50.5t83 18q66 0 106 -46.5t40 -134.5q0 -43 -12.5 -93.5t-37 -100.5t-61.5 -91t-87 -65.5t-112 -24.5
q-30 0 -56 6.5t-46 16.5q-1 -8 -3 -22t-5 -26l-14 -67q-3 -13 -5 -26t-2 -17q0 -27 12.5 -34.5t40.5 -7.5h38l-9 -53h-254zM262 54q41 0 72.5 31t53 78.5t33 100t11.5 94.5q0 27 -4.5 52t-16.5 40.5t-33 15.5q-25 0 -49 -20.5t-44.5 -52t-35 -67t-20.5 -65.5l-38 -179
q9 -9 28.5 -18.5t42.5 -9.5z" />
    <glyph glyph-name="ydieresis" unicode="&#xff;" horiz-adv-x="586" 
d="M-64 -240q-28 0 -55.5 5t-48.5 13l15 56q12 -4 33 -8.5t52 -4.5q61 0 109 21t87.5 55.5t74.5 76.5l-125 456q-8 30 -24 41.5t-45 11.5h-10l12 53h196l66 -259q7 -26 14 -62.5t12.5 -69.5t6.5 -50h3q40 54 72.5 107.5t52.5 102t20 86.5q0 34 -16.5 51.5t-45.5 17.5
q0 39 23 62.5t57 23.5q41 0 61.5 -22.5t20.5 -62.5q0 -78 -50.5 -175t-138.5 -219q-54 -76 -99.5 -133.5t-92.5 -96t-103.5 -58t-133.5 -19.5zM427 622q-28 0 -45 15.5t-17 46.5q0 35 18 57t49 22q27 0 44.5 -15t17.5 -47q0 -44 -21.5 -61.5t-45.5 -17.5zM204 622
q-28 0 -45 15.5t-17 46.5q0 35 18 57t49 22q27 0 44.5 -15t17.5 -47q0 -44 -21.5 -61.5t-45.5 -17.5z" />
    <glyph glyph-name="Amacron" unicode="&#x100;" horiz-adv-x="753" 
d="M-49 0l11 53h21q19 0 31.5 6.5t26 23.5t31.5 48l339 583h137l84 -589q5 -31 17.5 -51.5t43.5 -20.5h18l-11 -53h-330l11 53h23q32 0 51 10t19 32q0 8 -0.5 16.5t-1.5 15.5l-13 108h-244l-50 -90q-19 -35 -19 -56q0 -36 56 -36h20l-11 -53h-260zM347 473l-98 -177h203
l-20 168q-4 44 -8 78.5t-5 70.5q-10 -24 -20 -44t-22 -42.5t-30 -53.5zM337 771l17 79h290l-17 -79h-290z" />
    <glyph glyph-name="amacron" unicode="&#x101;" horiz-adv-x="665" 
d="M183 -10q-47 0 -79 24t-48 65.5t-16 93.5q0 47 13 98.5t39 100t64 88t87.5 63t110.5 23.5q39 0 79 -11t62 -24l53 24h53l-66 -312q-2 -11 -6.5 -31t-7.5 -40.5t-3 -33.5q0 -25 9.5 -37t25.5 -12q14 0 27 6t29 15l22 -40q-25 -19 -64.5 -39.5t-93.5 -20.5q-44 0 -71 20.5
t-27 59.5q0 29 7 65h-7q-24 -46 -50 -78.5t-59.5 -49.5t-82.5 -17zM246 70q22 0 45 18.5t44 50t37.5 70.5t24.5 79l35 166q-10 14 -27 21t-37 7q-35 0 -63 -21t-49 -56t-35.5 -76t-21.5 -82.5t-7 -74.5q0 -58 15.5 -80t38.5 -22zM225 606l17 79h290l-17 -79h-290z" />
    <glyph glyph-name="Abreve" unicode="&#x102;" horiz-adv-x="753" 
d="M-49 0l11 53h21q19 0 31.5 6.5t26 23.5t31.5 48l339 583h137l84 -589q5 -31 17.5 -51.5t43.5 -20.5h18l-11 -53h-330l11 53h23q32 0 51 10t19 32q0 8 -0.5 16.5t-1.5 15.5l-13 108h-244l-50 -90q-19 -35 -19 -56q0 -36 56 -36h20l-11 -53h-260zM347 473l-98 -177h203
l-20 168q-4 44 -8 78.5t-5 70.5q-10 -24 -20 -44t-22 -42.5t-30 -53.5zM484 771q-66 0 -100 43.5t-39 113.5h66q4 -34 26.5 -51t57.5 -17q36 0 63 16t42 52h62q-10 -38 -33.5 -74.5t-60 -59.5t-84.5 -23z" />
    <glyph glyph-name="abreve" unicode="&#x103;" horiz-adv-x="665" 
d="M183 -10q-47 0 -79 24t-48 65.5t-16 93.5q0 47 13 98.5t39 100t64 88t87.5 63t110.5 23.5q39 0 79 -11t62 -24l53 24h53l-66 -312q-2 -11 -6.5 -31t-7.5 -40.5t-3 -33.5q0 -25 9.5 -37t25.5 -12q14 0 27 6t29 15l22 -40q-25 -19 -64.5 -39.5t-93.5 -20.5q-44 0 -71 20.5
t-27 59.5q0 29 7 65h-7q-24 -46 -50 -78.5t-59.5 -49.5t-82.5 -17zM246 70q22 0 45 18.5t44 50t37.5 70.5t24.5 79l35 166q-10 14 -27 21t-37 7q-35 0 -63 -21t-49 -56t-35.5 -76t-21.5 -82.5t-7 -74.5q0 -58 15.5 -80t38.5 -22zM371 606q-66 0 -100 43.5t-39 113.5h66
q4 -34 26.5 -51t57.5 -17q36 0 63 16t42 52h62q-10 -38 -33.5 -74.5t-60 -59.5t-84.5 -23z" />
    <glyph glyph-name="Aogonek" unicode="&#x104;" horiz-adv-x="753" 
d="M-49 0l11 53h21q19 0 31.5 6.5t26 23.5t31.5 48l339 583h137l84 -589q5 -31 17.5 -51.5t43.5 -20.5h18l-11 -53h-330l11 53h23q32 0 51 10t19 32q0 8 -0.5 16.5t-1.5 15.5l-13 108h-244l-50 -90q-19 -35 -19 -56q0 -36 56 -36h20l-11 -53h-260zM347 473l-98 -177h203
l-20 168q-4 44 -8 78.5t-5 70.5q-10 -24 -20 -44t-22 -42.5t-30 -53.5zM516 -240q-60 0 -94 26.5t-34 75.5q0 54 41.5 88.5t106.5 49.5h77q-23 -6 -51 -21.5t-48 -39t-20 -56.5q0 -23 16 -37t41 -14q14 0 30 2t35 6l-13 -64q-40 -16 -87 -16z" />
    <glyph glyph-name="aogonek" unicode="&#x105;" horiz-adv-x="665" 
d="M183 -10q-47 0 -79 24t-48 65.5t-16 93.5q0 47 13 98.5t39 100t64 88t87.5 63t110.5 23.5q39 0 79 -11t62 -24l53 24h53l-66 -312q-2 -11 -6.5 -31t-7.5 -40.5t-3 -33.5q0 -25 9.5 -37t25.5 -12q14 0 27 6t29 15l22 -40q-25 -19 -64.5 -39.5t-93.5 -20.5q-44 0 -71 20.5
t-27 59.5q0 29 7 65h-7q-24 -46 -50 -78.5t-59.5 -49.5t-82.5 -17zM246 70q22 0 45 18.5t44 50t37.5 70.5t24.5 79l35 166q-10 14 -27 21t-37 7q-35 0 -63 -21t-49 -56t-35.5 -76t-21.5 -82.5t-7 -74.5q0 -58 15.5 -80t38.5 -22zM442 -240q-60 0 -94 26.5t-34 75.5
q0 54 41.5 88.5t106.5 49.5h77q-23 -6 -51 -21.5t-48 -39t-20 -56.5q0 -23 16 -37t41 -14q14 0 30 2t35 6l-13 -64q-40 -16 -87 -16z" />
    <glyph glyph-name="Cacute" unicode="&#x106;" horiz-adv-x="668" 
d="M366 -10q-143 0 -223 70.5t-80 198.5q0 90 31.5 174t89.5 150.5t139.5 105.5t181.5 39t149 -32.5t49 -86.5q0 -43 -40 -66.5t-101 -23.5q0 21 -3 46t-11.5 47.5t-25.5 37t-45 14.5q-47 0 -86 -25.5t-69 -68t-51 -96.5t-31.5 -111t-10.5 -110q0 -85 43.5 -132t129.5 -47
q69 0 112 28.5t68 62.5q6 -4 11.5 -13.5t5.5 -20.5q0 -33 -27 -65.5t-78.5 -54t-127.5 -21.5zM450 771l3 13q19 19 40.5 45t42.5 53t36 49h157l-3 -10q-12 -13 -35.5 -33t-53.5 -42t-61 -41.5t-58 -33.5h-68z" />
    <glyph glyph-name="cacute" unicode="&#x107;" horiz-adv-x="528" 
d="M261 -10q-60 0 -110.5 23t-80.5 68.5t-30 115.5q0 56 21 116.5t62.5 113.5t103 86t142.5 33q83 0 121 -31.5t38 -74.5q0 -31 -28 -57.5t-94 -26.5q0 53 -18.5 91.5t-54.5 38.5q-26 0 -47.5 -20t-39 -52.5t-29 -71.5t-18 -77.5t-6.5 -69.5q0 -61 28 -95t82 -34q53 0 86 26
t54 56q6 -6 10.5 -17.5t4.5 -26.5q0 -26 -20.5 -52.5t-64 -44t-112.5 -17.5zM321 606l3 13q19 19 40.5 45t42.5 53t36 49h157l-3 -10q-12 -13 -35.5 -33t-53.5 -42t-61 -41.5t-58 -33.5h-68z" />
    <glyph glyph-name="Ccircumflex" unicode="&#x108;" horiz-adv-x="668" 
d="M366 -10q-143 0 -223 70.5t-80 198.5q0 90 31.5 174t89.5 150.5t139.5 105.5t181.5 39t149 -32.5t49 -86.5q0 -43 -40 -66.5t-101 -23.5q0 21 -3 46t-11.5 47.5t-25.5 37t-45 14.5q-47 0 -86 -25.5t-69 -68t-51 -96.5t-31.5 -111t-10.5 -110q0 -85 43.5 -132t129.5 -47
q69 0 112 28.5t68 62.5q6 -4 11.5 -13.5t5.5 -20.5q0 -33 -27 -65.5t-78.5 -54t-127.5 -21.5zM314 771l3 13q20 19 45.5 44.5t51.5 52.5t45 50h135q9 -20 22.5 -47.5t29 -54t26.5 -45.5l-3 -13h-63q-17 17 -44 43.5t-45 46.5q-18 -13 -41 -30t-45 -33t-39 -27h-78z" />
    <glyph glyph-name="ccircumflex" unicode="&#x109;" horiz-adv-x="528" 
d="M261 -10q-60 0 -110.5 23t-80.5 68.5t-30 115.5q0 56 21 116.5t62.5 113.5t103 86t142.5 33q83 0 121 -31.5t38 -74.5q0 -31 -28 -57.5t-94 -26.5q0 53 -18.5 91.5t-54.5 38.5q-26 0 -47.5 -20t-39 -52.5t-29 -71.5t-18 -77.5t-6.5 -69.5q0 -61 28 -95t82 -34q53 0 86 26
t54 56q6 -6 10.5 -17.5t4.5 -26.5q0 -26 -20.5 -52.5t-64 -44t-112.5 -17.5zM196 606l3 13q20 19 45.5 44.5t51.5 52.5t45 50h135q9 -20 22.5 -47.5t29 -54t26.5 -45.5l-3 -13h-63q-17 17 -44 43.5t-45 46.5q-18 -13 -41 -30t-45 -33t-39 -27h-78z" />
    <glyph glyph-name="Cdot" unicode="&#x10a;" horiz-adv-x="668" 
d="M366 -10q-143 0 -223 70.5t-80 198.5q0 90 31.5 174t89.5 150.5t139.5 105.5t181.5 39t149 -32.5t49 -86.5q0 -43 -40 -66.5t-101 -23.5q0 21 -3 46t-11.5 47.5t-25.5 37t-45 14.5q-47 0 -86 -25.5t-69 -68t-51 -96.5t-31.5 -111t-10.5 -110q0 -85 43.5 -132t129.5 -47
q69 0 112 28.5t68 62.5q6 -4 11.5 -13.5t5.5 -20.5q0 -33 -27 -65.5t-78.5 -54t-127.5 -21.5zM513 791q-33 0 -55.5 15.5t-22.5 46.5q0 44 28 63t65 19q32 0 56 -14.5t24 -48.5q0 -41 -29.5 -61t-65.5 -20z" />
    <glyph glyph-name="cdot" unicode="&#x10b;" horiz-adv-x="528" 
d="M261 -10q-60 0 -110.5 23t-80.5 68.5t-30 115.5q0 56 21 116.5t62.5 113.5t103 86t142.5 33q83 0 121 -31.5t38 -74.5q0 -31 -28 -57.5t-94 -26.5q0 53 -18.5 91.5t-54.5 38.5q-26 0 -47.5 -20t-39 -52.5t-29 -71.5t-18 -77.5t-6.5 -69.5q0 -61 28 -95t82 -34q53 0 86 26
t54 56q6 -6 10.5 -17.5t4.5 -26.5q0 -26 -20.5 -52.5t-64 -44t-112.5 -17.5zM382 626q-33 0 -55.5 15.5t-22.5 46.5q0 44 28 63t65 19q32 0 56 -14.5t24 -48.5q0 -41 -29.5 -61t-65.5 -20z" />
    <glyph glyph-name="Ccaron" unicode="&#x10c;" horiz-adv-x="668" 
d="M366 -10q-143 0 -223 70.5t-80 198.5q0 90 31.5 174t89.5 150.5t139.5 105.5t181.5 39t149 -32.5t49 -86.5q0 -43 -40 -66.5t-101 -23.5q0 21 -3 46t-11.5 47.5t-25.5 37t-45 14.5q-47 0 -86 -25.5t-69 -68t-51 -96.5t-31.5 -111t-10.5 -110q0 -85 43.5 -132t129.5 -47
q69 0 112 28.5t68 62.5q6 -4 11.5 -13.5t5.5 -20.5q0 -33 -27 -65.5t-78.5 -54t-127.5 -21.5zM435 771q-8 21 -22.5 48t-29 53.5t-26.5 45.5l3 13h63q17 -16 44 -43t45 -47q18 14 41 30.5t45.5 32.5t38.5 27h78l-3 -13q-19 -19 -45 -44.5t-52 -52t-45 -50.5h-135z" />
    <glyph glyph-name="ccaron" unicode="&#x10d;" horiz-adv-x="528" 
d="M261 -10q-60 0 -110.5 23t-80.5 68.5t-30 115.5q0 56 21 116.5t62.5 113.5t103 86t142.5 33q83 0 121 -31.5t38 -74.5q0 -31 -28 -57.5t-94 -26.5q0 53 -18.5 91.5t-54.5 38.5q-26 0 -47.5 -20t-39 -52.5t-29 -71.5t-18 -77.5t-6.5 -69.5q0 -61 28 -95t82 -34q53 0 86 26
t54 56q6 -6 10.5 -17.5t4.5 -26.5q0 -26 -20.5 -52.5t-64 -44t-112.5 -17.5zM291 606q-8 21 -22.5 48t-29 53.5t-26.5 45.5l3 13h63q17 -16 44 -43t45 -47q18 14 41 30.5t45.5 32.5t38.5 27h78l-3 -13q-19 -19 -45 -44.5t-52 -52t-45 -50.5h-135z" />
    <glyph glyph-name="Dcaron" unicode="&#x10e;" horiz-adv-x="768" 
d="M-24 0l11 53h14q32 0 58 10.5t34 49.5l104 491q4 14 4 23q0 22 -20 28t-52 6h-13l11 53h320q143 0 223 -69.5t80 -202.5q0 -89 -27.5 -169t-81.5 -141.5t-132.5 -96.5t-180.5 -35h-352zM240 62h45q94 0 160 49.5t101.5 137t35.5 201.5q0 105 -47.5 154t-127.5 49h-42z
M375 771q-8 21 -22.5 48t-29 53.5t-26.5 45.5l3 13h63q17 -16 44 -43t45 -47q18 14 41 30.5t45.5 32.5t38.5 27h78l-3 -13q-19 -19 -45 -44.5t-52 -52t-45 -50.5h-135z" />
    <glyph glyph-name="dcaron" unicode="&#x10f;" horiz-adv-x="665" 
d="M186 -10q-51 0 -83.5 25t-47.5 67t-15 91q0 47 13 98.5t38.5 100t62.5 88t85.5 63t107.5 23.5q29 0 55.5 -7t45.5 -18q2 13 5.5 32.5t5.5 28.5l9 40q7 30 7 43q0 27 -12 34.5t-41 7.5h-23l9 53h241l-116 -545q-4 -22 -9.5 -52.5t-5.5 -48.5q0 -23 11 -34t24 -11t28.5 7
t27.5 14l22 -39q-26 -22 -66 -41.5t-92 -19.5q-43 0 -70.5 20t-27.5 60q0 19 2 35.5t5 29.5h-6q-37 -77 -82.5 -111t-107.5 -34zM246 70q30 0 60.5 32t55 82t35.5 104l35 166q-10 14 -29 21t-37 7q-34 0 -61.5 -21t-48.5 -56t-35.5 -76.5t-21.5 -82.5t-7 -74
q0 -57 15.5 -79.5t38.5 -22.5zM670 600l3 13q17 35 33 73t28 74h126l-3 -10q-20 -31 -56 -73.5t-71 -76.5h-60z" />
    <glyph glyph-name="Dcroat" unicode="&#x110;" horiz-adv-x="768" 
d="M-24 0l11 53h14q32 0 58 10.5t34 49.5l49 230h-83l13 61h83l42 200q4 14 4 23q0 22 -20 28t-52 6h-13l11 53h320q143 0 223 -69.5t80 -202.5q0 -89 -27.5 -169t-81.5 -141.5t-132.5 -96.5t-180.5 -35h-352zM240 62h45q94 0 160 49.5t101.5 137t35.5 201.5
q0 105 -47.5 154t-127.5 49h-42l-53 -249h126l-13 -61h-126z" />
    <glyph glyph-name="dcroat" unicode="&#x111;" horiz-adv-x="664" 
d="M185 -10q-51 0 -83.5 25t-47.5 67t-15 91q0 54 20 113.5t58 111.5t94 85t128 33q58 0 100 -24q3 17 8.5 43.5t9.5 42.5h-154l11 53h155l3 15q6 30 -2 45.5t-49 15.5h-23l9 53h241l-28 -129h88l-11 -53h-88l-77 -363q-6 -28 -10.5 -55.5t-4.5 -45.5q0 -23 11 -34t24 -11
t28.5 7t27.5 14l22 -39q-26 -22 -66 -41.5t-92 -19.5q-43 0 -70.5 20t-27.5 60q0 16 1.5 29.5t5.5 35.5h-6q-37 -77 -82.5 -111t-107.5 -34zM245 70q30 0 60.5 32t55 82t35.5 104l28 136q-10 14 -29 21t-37 7q-40 0 -71.5 -29t-52.5 -73.5t-32 -92.5t-11 -85
q0 -57 15.5 -79.5t38.5 -22.5z" />
    <glyph glyph-name="Emacron" unicode="&#x112;" horiz-adv-x="633" 
d="M-23 0l11 53h13q32 0 58 10.5t34 49.5l104 491q4 14 4 23q0 22 -20 28t-52 6h-13l11 53h543l-35 -186h-71q1 5 2 18t2 25.5t1 14.5q0 28 -16 47.5t-55 19.5h-133l-53 -250h227l-13 -60h-227l-60 -282h158q47 0 74 24.5t39 57.5l16 43h71l-46 -186h-574zM287 771l17 79
h290l-17 -79h-290z" />
    <glyph glyph-name="emacron" unicode="&#x113;" horiz-adv-x="535" 
d="M263 -10q-61 0 -111.5 22.5t-81 68.5t-30.5 116q0 56 22 117t65 113.5t106 85.5t146 33q71 0 111 -31t40 -87q0 -54 -38.5 -100t-106 -74.5t-153.5 -28.5h-37q-1 -10 -1.5 -20t-0.5 -18q0 -58 27 -89.5t82 -31.5q49 0 87 25.5t59 55.5q13 -16 13 -43q0 -24 -21 -50.5
t-64.5 -45t-112.5 -18.5zM202 282h9q50 0 89.5 17.5t62.5 48.5t23 73q0 31 -13 48t-36 17q-32 0 -60 -31t-47.5 -78t-27.5 -95zM226 606l17 79h290l-17 -79h-290z" />
    <glyph glyph-name="Ebreve" unicode="&#x114;" horiz-adv-x="633" 
d="M-23 0l11 53h13q32 0 58 10.5t34 49.5l104 491q4 14 4 23q0 22 -20 28t-52 6h-13l11 53h543l-35 -186h-71q1 5 2 18t2 25.5t1 14.5q0 28 -16 47.5t-55 19.5h-133l-53 -250h227l-13 -60h-227l-60 -282h158q47 0 74 24.5t39 57.5l16 43h71l-46 -186h-574zM421 771
q-66 0 -100 43.5t-39 113.5h66q4 -34 26.5 -51t57.5 -17q36 0 63 16t42 52h62q-10 -38 -33.5 -74.5t-60 -59.5t-84.5 -23z" />
    <glyph glyph-name="ebreve" unicode="&#x115;" horiz-adv-x="535" 
d="M263 -10q-61 0 -111.5 22.5t-81 68.5t-30.5 116q0 56 22 117t65 113.5t106 85.5t146 33q71 0 111 -31t40 -87q0 -54 -38.5 -100t-106 -74.5t-153.5 -28.5h-37q-1 -10 -1.5 -20t-0.5 -18q0 -58 27 -89.5t82 -31.5q49 0 87 25.5t59 55.5q13 -16 13 -43q0 -24 -21 -50.5
t-64.5 -45t-112.5 -18.5zM202 282h9q50 0 89.5 17.5t62.5 48.5t23 73q0 31 -13 48t-36 17q-32 0 -60 -31t-47.5 -78t-27.5 -95zM362 606q-66 0 -100 43.5t-39 113.5h66q4 -34 26.5 -51t57.5 -17q36 0 63 16t42 52h62q-10 -38 -33.5 -74.5t-60 -59.5t-84.5 -23z" />
    <glyph glyph-name="Edotaccent" unicode="&#x116;" horiz-adv-x="633" 
d="M-23 0l11 53h13q32 0 58 10.5t34 49.5l104 491q4 14 4 23q0 22 -20 28t-52 6h-13l11 53h543l-35 -186h-71q1 5 2 18t2 25.5t1 14.5q0 28 -16 47.5t-55 19.5h-133l-53 -250h227l-13 -60h-227l-60 -282h158q47 0 74 24.5t39 57.5l16 43h71l-46 -186h-574zM421 777
q-33 0 -55.5 15.5t-22.5 46.5q0 44 28 63t65 19q32 0 56 -14.5t24 -48.5q0 -41 -29.5 -61t-65.5 -20z" />
    <glyph glyph-name="edotaccent" unicode="&#x117;" horiz-adv-x="535" 
d="M263 -10q-61 0 -111.5 22.5t-81 68.5t-30.5 116q0 56 22 117t65 113.5t106 85.5t146 33q71 0 111 -31t40 -87q0 -54 -38.5 -100t-106 -74.5t-153.5 -28.5h-37q-1 -10 -1.5 -20t-0.5 -18q0 -58 27 -89.5t82 -31.5q49 0 87 25.5t59 55.5q13 -16 13 -43q0 -24 -21 -50.5
t-64.5 -45t-112.5 -18.5zM202 282h9q50 0 89.5 17.5t62.5 48.5t23 73q0 31 -13 48t-36 17q-32 0 -60 -31t-47.5 -78t-27.5 -95zM363 626q-33 0 -55.5 15.5t-22.5 46.5q0 44 28 63t65 19q32 0 56 -14.5t24 -48.5q0 -41 -29.5 -61t-65.5 -20z" />
    <glyph glyph-name="Eogonek" unicode="&#x118;" horiz-adv-x="633" 
d="M-23 0l11 53h13q32 0 58 10.5t34 49.5l104 491q4 14 4 23q0 22 -20 28t-52 6h-13l11 53h543l-35 -186h-71q1 5 2 18t2 25.5t1 14.5q0 28 -16 47.5t-55 19.5h-133l-53 -250h227l-13 -60h-227l-60 -282h158q47 0 74 24.5t39 57.5l16 43h71l-46 -186h-574zM425 -240
q-60 0 -94 26.5t-34 75.5q0 54 41.5 88.5t106.5 49.5h77q-23 -6 -51 -21.5t-48 -39t-20 -56.5q0 -23 16 -37t41 -14q14 0 30 2t35 6l-13 -64q-40 -16 -87 -16z" />
    <glyph glyph-name="eogonek" unicode="&#x119;" horiz-adv-x="535" 
d="M263 -10q-61 0 -111.5 22.5t-81 68.5t-30.5 116q0 56 22 117t65 113.5t106 85.5t146 33q71 0 111 -31t40 -87q0 -54 -38.5 -100t-106 -74.5t-153.5 -28.5h-37q-1 -10 -1.5 -20t-0.5 -18q0 -58 27 -89.5t82 -31.5q49 0 87 25.5t59 55.5q13 -16 13 -43q0 -24 -21 -50.5
t-64.5 -45t-112.5 -18.5zM202 282h9q50 0 89.5 17.5t62.5 48.5t23 73q0 31 -13 48t-36 17q-32 0 -60 -31t-47.5 -78t-27.5 -95zM292 -225q-60 0 -94 26.5t-34 75.5q0 54 41.5 88.5t106.5 49.5h77q-23 -6 -51 -21.5t-48 -39t-20 -56.5q0 -23 16 -37t41 -14q14 0 30 2t35 6
l-13 -64q-40 -16 -87 -16z" />
    <glyph glyph-name="Ecaron" unicode="&#x11a;" horiz-adv-x="633" 
d="M-23 0l11 53h13q32 0 58 10.5t34 49.5l104 491q4 14 4 23q0 22 -20 28t-52 6h-13l11 53h543l-35 -186h-71q1 5 2 18t2 25.5t1 14.5q0 28 -16 47.5t-55 19.5h-133l-53 -250h227l-13 -60h-227l-60 -282h158q47 0 74 24.5t39 57.5l16 43h71l-46 -186h-574zM352 771
q-8 21 -22.5 48t-29 53.5t-26.5 45.5l3 13h63q17 -16 44 -43t45 -47q18 14 41 30.5t45.5 32.5t38.5 27h78l-3 -13q-19 -19 -45 -44.5t-52 -52t-45 -50.5h-135z" />
    <glyph glyph-name="ecaron" unicode="&#x11b;" horiz-adv-x="535" 
d="M263 -10q-61 0 -111.5 22.5t-81 68.5t-30.5 116q0 56 22 117t65 113.5t106 85.5t146 33q71 0 111 -31t40 -87q0 -54 -38.5 -100t-106 -74.5t-153.5 -28.5h-37q-1 -10 -1.5 -20t-0.5 -18q0 -58 27 -89.5t82 -31.5q49 0 87 25.5t59 55.5q13 -16 13 -43q0 -24 -21 -50.5
t-64.5 -45t-112.5 -18.5zM202 282h9q50 0 89.5 17.5t62.5 48.5t23 73q0 31 -13 48t-36 17q-32 0 -60 -31t-47.5 -78t-27.5 -95zM300 606q-8 21 -22.5 48t-29 53.5t-26.5 45.5l3 13h63q17 -16 44 -43t45 -47q18 14 41 30.5t45.5 32.5t38.5 27h78l-3 -13q-19 -19 -45 -44.5
t-52 -52t-45 -50.5h-135z" />
    <glyph glyph-name="Gcircumflex" unicode="&#x11c;" horiz-adv-x="796" 
d="M373 -10q-154 0 -232 72t-78 196q0 97 33.5 181.5t94.5 148.5t146.5 100t188.5 36q77 0 127 -17t75 -44.5t25 -57.5q0 -26 -19.5 -47t-52.5 -33.5t-73 -12.5q0 63 -27 105.5t-86 42.5q-57 0 -106 -33.5t-85 -91.5t-56.5 -132.5t-20.5 -156.5q0 -83 35 -135.5t116 -52.5
q23 0 47 4t42 10l33 148q6 27 6 34q0 22 -20 28t-52 6h-13l11 53h333l-11 -53h-4q-33 0 -58.5 -10.5t-33.5 -50.5l-38 -191q-60 -23 -118 -34.5t-129 -11.5zM320 771l3 13q20 19 45.5 44.5t51.5 52.5t45 50h135q9 -20 22.5 -47.5t29 -54t26.5 -45.5l-3 -13h-63
q-17 17 -44 43.5t-45 46.5q-18 -13 -41 -30t-45 -33t-39 -27h-78z" />
    <glyph glyph-name="gcircumflex" unicode="&#x11d;" horiz-adv-x="580" 
d="M170 -240q-121 0 -174.5 34.5t-53.5 92.5q0 36 23 62t59.5 42.5t77.5 23.5q-19 11 -35 33.5t-16 48.5q0 32 26 56.5t82 55.5q-33 16 -51.5 46.5t-18.5 73.5q0 35 15.5 73t46.5 70.5t78 53t110 20.5q33 0 62 -7.5t51 -24.5q23 29 51 48.5t65 19.5q31 0 45 -15t14 -38
q0 -25 -13.5 -48t-50.5 -23q0 43 -35 43q-13 0 -24.5 -5t-21.5 -13q11 -14 18 -35.5t7 -44.5q0 -33 -14 -70t-43.5 -69.5t-75 -53.5t-108.5 -21q-9 0 -26 1t-25 2q-23 -10 -39 -23.5t-16 -29.5t15.5 -22t38.5 -8l112 -11q74 -7 114.5 -39.5t40.5 -96.5q0 -91 -81 -146.5
t-230 -55.5zM269 250q27 0 46.5 17.5t32.5 44t19.5 54.5t6.5 50q0 68 -54 68q-26 0 -45.5 -17t-33 -43t-20 -54t-6.5 -51q0 -37 14.5 -53t39.5 -16zM185 -180q88 0 127.5 29t39.5 66q0 29 -21.5 44t-73.5 19l-89 8q-43 -6 -75 -31.5t-32 -60.5q0 -31 25.5 -52.5t98.5 -21.5z
M160 606l3 13q20 19 45.5 44.5t51.5 52.5t45 50h135q9 -20 22.5 -47.5t29 -54t26.5 -45.5l-3 -13h-63q-17 17 -44 43.5t-45 46.5q-18 -13 -41 -30t-45 -33t-39 -27h-78z" />
    <glyph glyph-name="Gbreve" unicode="&#x11e;" horiz-adv-x="796" 
d="M373 -10q-154 0 -232 72t-78 196q0 97 33.5 181.5t94.5 148.5t146.5 100t188.5 36q77 0 127 -17t75 -44.5t25 -57.5q0 -26 -19.5 -47t-52.5 -33.5t-73 -12.5q0 63 -27 105.5t-86 42.5q-57 0 -106 -33.5t-85 -91.5t-56.5 -132.5t-20.5 -156.5q0 -83 35 -135.5t116 -52.5
q23 0 47 4t42 10l33 148q6 27 6 34q0 22 -20 28t-52 6h-13l11 53h333l-11 -53h-4q-33 0 -58.5 -10.5t-33.5 -50.5l-38 -191q-60 -23 -118 -34.5t-129 -11.5zM515 771q-66 0 -100 43.5t-39 113.5h66q4 -34 26.5 -51t57.5 -17q36 0 63 16t42 52h62q-10 -38 -33.5 -74.5
t-60 -59.5t-84.5 -23z" />
    <glyph glyph-name="gbreve" unicode="&#x11f;" horiz-adv-x="580" 
d="M170 -240q-121 0 -174.5 34.5t-53.5 92.5q0 36 23 62t59.5 42.5t77.5 23.5q-19 11 -35 33.5t-16 48.5q0 32 26 56.5t82 55.5q-33 16 -51.5 46.5t-18.5 73.5q0 35 15.5 73t46.5 70.5t78 53t110 20.5q33 0 62 -7.5t51 -24.5q23 29 51 48.5t65 19.5q31 0 45 -15t14 -38
q0 -25 -13.5 -48t-50.5 -23q0 43 -35 43q-13 0 -24.5 -5t-21.5 -13q11 -14 18 -35.5t7 -44.5q0 -33 -14 -70t-43.5 -69.5t-75 -53.5t-108.5 -21q-9 0 -26 1t-25 2q-23 -10 -39 -23.5t-16 -29.5t15.5 -22t38.5 -8l112 -11q74 -7 114.5 -39.5t40.5 -96.5q0 -91 -81 -146.5
t-230 -55.5zM269 250q27 0 46.5 17.5t32.5 44t19.5 54.5t6.5 50q0 68 -54 68q-26 0 -45.5 -17t-33 -43t-20 -54t-6.5 -51q0 -37 14.5 -53t39.5 -16zM185 -180q88 0 127.5 29t39.5 66q0 29 -21.5 44t-73.5 19l-89 8q-43 -6 -75 -31.5t-32 -60.5q0 -31 25.5 -52.5t98.5 -21.5z
M345 606q-66 0 -100 43.5t-39 113.5h66q4 -34 26.5 -51t57.5 -17q36 0 63 16t42 52h62q-10 -38 -33.5 -74.5t-60 -59.5t-84.5 -23z" />
    <glyph glyph-name="Gdot" unicode="&#x120;" horiz-adv-x="796" 
d="M373 -10q-154 0 -232 72t-78 196q0 97 33.5 181.5t94.5 148.5t146.5 100t188.5 36q77 0 127 -17t75 -44.5t25 -57.5q0 -26 -19.5 -47t-52.5 -33.5t-73 -12.5q0 63 -27 105.5t-86 42.5q-57 0 -106 -33.5t-85 -91.5t-56.5 -132.5t-20.5 -156.5q0 -83 35 -135.5t116 -52.5
q23 0 47 4t42 10l33 148q6 27 6 34q0 22 -20 28t-52 6h-13l11 53h333l-11 -53h-4q-33 0 -58.5 -10.5t-33.5 -50.5l-38 -191q-60 -23 -118 -34.5t-129 -11.5zM511 791q-33 0 -55.5 15.5t-22.5 46.5q0 44 28 63t65 19q32 0 56 -14.5t24 -48.5q0 -41 -29.5 -61t-65.5 -20z" />
    <glyph glyph-name="gdot" unicode="&#x121;" horiz-adv-x="580" 
d="M170 -240q-121 0 -174.5 34.5t-53.5 92.5q0 36 23 62t59.5 42.5t77.5 23.5q-19 11 -35 33.5t-16 48.5q0 32 26 56.5t82 55.5q-33 16 -51.5 46.5t-18.5 73.5q0 35 15.5 73t46.5 70.5t78 53t110 20.5q33 0 62 -7.5t51 -24.5q23 29 51 48.5t65 19.5q31 0 45 -15t14 -38
q0 -25 -13.5 -48t-50.5 -23q0 43 -35 43q-13 0 -24.5 -5t-21.5 -13q11 -14 18 -35.5t7 -44.5q0 -33 -14 -70t-43.5 -69.5t-75 -53.5t-108.5 -21q-9 0 -26 1t-25 2q-23 -10 -39 -23.5t-16 -29.5t15.5 -22t38.5 -8l112 -11q74 -7 114.5 -39.5t40.5 -96.5q0 -91 -81 -146.5
t-230 -55.5zM269 250q27 0 46.5 17.5t32.5 44t19.5 54.5t6.5 50q0 68 -54 68q-26 0 -45.5 -17t-33 -43t-20 -54t-6.5 -51q0 -37 14.5 -53t39.5 -16zM185 -180q88 0 127.5 29t39.5 66q0 29 -21.5 44t-73.5 19l-89 8q-43 -6 -75 -31.5t-32 -60.5q0 -31 25.5 -52.5t98.5 -21.5z
M362 626q-33 0 -55.5 15.5t-22.5 46.5q0 44 28 63t65 19q32 0 56 -14.5t24 -48.5q0 -41 -29.5 -61t-65.5 -20z" />
    <glyph glyph-name="uni0122" unicode="&#x122;" horiz-adv-x="796" 
d="M373 -10q-154 0 -232 72t-78 196q0 97 33.5 181.5t94.5 148.5t146.5 100t188.5 36q77 0 127 -17t75 -44.5t25 -57.5q0 -26 -19.5 -47t-52.5 -33.5t-73 -12.5q0 63 -27 105.5t-86 42.5q-57 0 -106 -33.5t-85 -91.5t-56.5 -132.5t-20.5 -156.5q0 -83 35 -135.5t116 -52.5
q23 0 47 4t42 10l33 148q6 27 6 34q0 22 -20 28t-52 6h-13l11 53h333l-11 -53h-4q-33 0 -58.5 -10.5t-33.5 -50.5l-38 -191q-60 -23 -118 -34.5t-129 -11.5zM216 -221l3 13q17 35 33 73t28 74h126l-3 -10q-20 -31 -56 -73.5t-71 -76.5h-60z" />
    <glyph glyph-name="uni0123" unicode="&#x123;" horiz-adv-x="580" 
d="M170 -240q-121 0 -174.5 34.5t-53.5 92.5q0 36 23 62t59.5 42.5t77.5 23.5q-19 11 -35 33.5t-16 48.5q0 32 26 56.5t82 55.5q-33 16 -51.5 46.5t-18.5 73.5q0 35 15.5 73t46.5 70.5t78 53t110 20.5q33 0 62 -7.5t51 -24.5q23 29 51 48.5t65 19.5q31 0 45 -15t14 -38
q0 -25 -13.5 -48t-50.5 -23q0 43 -35 43q-13 0 -24.5 -5t-21.5 -13q11 -14 18 -35.5t7 -44.5q0 -33 -14 -70t-43.5 -69.5t-75 -53.5t-108.5 -21q-9 0 -26 1t-25 2q-23 -10 -39 -23.5t-16 -29.5t15.5 -22t38.5 -8l112 -11q74 -7 114.5 -39.5t40.5 -96.5q0 -91 -81 -146.5
t-230 -55.5zM269 250q27 0 46.5 17.5t32.5 44t19.5 54.5t6.5 50q0 68 -54 68q-26 0 -45.5 -17t-33 -43t-20 -54t-6.5 -51q0 -37 14.5 -53t39.5 -16zM185 -180q88 0 127.5 29t39.5 66q0 29 -21.5 44t-73.5 19l-89 8q-43 -6 -75 -31.5t-32 -60.5q0 -31 25.5 -52.5t98.5 -21.5z
M290 606l3 10q20 32 56 74t71 76h60l-3 -13q-16 -34 -32.5 -72.5t-28.5 -74.5h-126z" />
    <glyph glyph-name="Hcircumflex" unicode="&#x124;" horiz-adv-x="819" 
d="M-23 0l11 53h13q32 0 58 10.5t34 49.5l102 480q6 27 6 34q0 18 -14 26t-58 8h-13l11 53h345l-11 -53h-13q-33 0 -60 -10.5t-35 -50.5l-41 -197h261l42 194q5 23 5 30q0 17 -15 25.5t-58 8.5h-13l11 53h345l-11 -53h-13q-32 0 -59 -10.5t-35 -50.5l-103 -490
q-4 -14 -4 -23q0 -16 15 -25t57 -9h13l-11 -53h-345l11 53h13q32 0 59 10.5t35 50.5l48 228h-261l-49 -232q-4 -14 -4 -23q0 -19 16.5 -26.5t56.5 -7.5h13l-11 -53h-344zM329 771l3 13q20 19 45.5 44.5t51.5 52.5t45 50h135q9 -20 22.5 -47.5t29 -54t26.5 -45.5l-3 -13h-63
q-17 17 -44 43.5t-45 46.5q-18 -13 -41 -30t-45 -33t-39 -27h-78z" />
    <glyph glyph-name="hcircumflex" unicode="&#x125;" horiz-adv-x="656" 
d="M487 -10q-57 0 -88 27.5t-31 75.5q0 21 4 51t12 68l17 79q5 20 11.5 53.5t6.5 58.5q0 19 -8 38t-34 19q-25 0 -50 -24t-46 -60.5t-36.5 -75.5t-21.5 -68l-52 -232h-150l132 622q3 13 5 26t2 17q0 27 -12 34.5t-41 7.5h-21l9 53h242l-47 -220q-5 -22 -13.5 -55t-14.5 -56
h6q38 60 83 88.5t112 28.5q43 0 67.5 -16t35.5 -42t11 -57q0 -25 -6.5 -56t-11.5 -57l-23 -107q-6 -27 -10 -51t-4 -45q0 -45 35 -45q16 0 29 6t30 17l24 -34q-24 -25 -61 -47t-92 -22zM223 798l3 13q20 19 45.5 44.5t51.5 52.5t45 50h135q9 -20 22.5 -47.5t29 -54
t26.5 -45.5l-3 -13h-63q-17 17 -44 43.5t-45 46.5q-18 -13 -41 -30t-45 -33t-39 -27h-78z" />
    <glyph glyph-name="Hbar" unicode="&#x126;" horiz-adv-x="819" 
d="M-23 0l11 53h13q32 0 58 10.5t34 49.5l82 386h-104l11 53h104l9 41q6 27 6 34q0 18 -14 26t-58 8h-13l11 53h345l-11 -53h-13q-33 0 -60 -10.5t-35 -50.5l-10 -48h262l10 45q5 23 5 30q0 17 -15 25.5t-58 8.5h-13l11 53h345l-11 -53h-13q-32 0 -59 -10.5t-35 -50.5
l-10 -48h103l-11 -53h-103l-82 -389q-4 -14 -4 -23q0 -16 15 -25t57 -9h13l-11 -53h-345l11 53h13q32 0 59 10.5t35 50.5l48 228h-261l-49 -232q-4 -14 -4 -23q0 -19 16.5 -26.5t56.5 -7.5h13l-11 -53h-344zM312 403h261l21 96h-262z" />
    <glyph glyph-name="hbar" unicode="&#x127;" horiz-adv-x="656" 
d="M487 -10q-57 0 -88 27.5t-31 75.5q0 21 4 51t12 68l12 58q4 20 11 53.5t7 58.5q0 19 -8 38t-34 19q-25 0 -50 -24t-46 -60.5t-36.5 -75.5t-21.5 -68l-47 -211h-150l122 578h-85l12 53h85q2 11 3.5 21t1.5 13q0 27 -12 34.5t-41 7.5h-21l9 53h242l-28 -129h155l-12 -53
h-154l-13 -59q-5 -22 -13.5 -55t-14.5 -56h6q38 60 83 88.5t112 28.5q43 0 67.5 -16t35.5 -42t11 -57q0 -25 -6.5 -56t-11.5 -57l-18 -86q-6 -27 -10 -51t-4 -45q0 -45 35 -45q16 0 29 6t30 17l24 -34q-24 -25 -61 -47t-92 -22z" />
    <glyph glyph-name="Itilde" unicode="&#x128;" horiz-adv-x="401" 
d="M-23 0l11 53h13q32 0 58 10.5t34 49.5l104 484q2 10 3 18t1 12q0 22 -20 28t-52 6h-13l11 53h345l-11 -53h-13q-33 0 -60 -10.5t-35 -50.5l-103 -490q-1 -5 -2.5 -12t-1.5 -11q0 -22 21 -28t52 -6h13l-11 -53h-344zM391 771q-27 0 -48.5 9.5t-39.5 22t-34 22t-32 9.5
q-21 0 -36 -16.5t-19 -36.5h-60q6 31 24.5 65t46.5 58.5t64 24.5q27 0 47.5 -9.5t38 -22t32.5 -22t31 -9.5q26 0 38 16.5t17 36.5h60q-7 -32 -24 -66.5t-43.5 -58t-62.5 -23.5z" />
    <glyph glyph-name="itilde" unicode="&#x129;" horiz-adv-x="354" 
d="M185 -10q-57 0 -88 27.5t-31 75.5q0 21 4 51t12 68l39 186q10 41 5 63t-51 22h-18l9 53h237l-69 -325q-6 -27 -10 -51t-4 -45q0 -45 35 -45q16 0 29 6t30 17l24 -34q-24 -25 -61 -47t-92 -22zM294 606q-27 0 -48.5 9.5t-39.5 22t-34 22t-32 9.5q-21 0 -36 -16.5
t-19 -36.5h-60q6 31 24.5 65t46.5 58.5t64 24.5q27 0 47.5 -9.5t38 -22t32.5 -22t31 -9.5q26 0 38 16.5t17 36.5h60q-7 -32 -24 -66.5t-43.5 -58t-62.5 -23.5z" />
    <glyph glyph-name="Imacron" unicode="&#x12a;" horiz-adv-x="401" 
d="M-23 0l11 53h13q32 0 58 10.5t34 49.5l104 484q2 10 3 18t1 12q0 22 -20 28t-52 6h-13l11 53h345l-11 -53h-13q-33 0 -60 -10.5t-35 -50.5l-103 -490q-1 -5 -2.5 -12t-1.5 -11q0 -22 21 -28t52 -6h13l-11 -53h-344zM158 771l17 79h290l-17 -79h-290z" />
    <glyph glyph-name="imacron" unicode="&#x12b;" horiz-adv-x="354" 
d="M185 -10q-57 0 -88 27.5t-31 75.5q0 21 4 51t12 68l39 186q10 41 5 63t-51 22h-18l9 53h237l-69 -325q-6 -27 -10 -51t-4 -45q0 -45 35 -45q16 0 29 6t30 17l24 -34q-24 -25 -61 -47t-92 -22zM66 606l17 79h290l-17 -79h-290z" />
    <glyph glyph-name="Ibreve" unicode="&#x12c;" horiz-adv-x="401" 
d="M-23 0l11 53h13q32 0 58 10.5t34 49.5l104 484q2 10 3 18t1 12q0 22 -20 28t-52 6h-13l11 53h345l-11 -53h-13q-33 0 -60 -10.5t-35 -50.5l-103 -490q-1 -5 -2.5 -12t-1.5 -11q0 -22 21 -28t52 -6h13l-11 -53h-344zM308 771q-66 0 -100 43.5t-39 113.5h66q4 -34 26.5 -51
t57.5 -17q36 0 63 16t42 52h62q-10 -38 -33.5 -74.5t-60 -59.5t-84.5 -23z" />
    <glyph glyph-name="ibreve" unicode="&#x12d;" horiz-adv-x="354" 
d="M185 -10q-57 0 -88 27.5t-31 75.5q0 21 4 51t12 68l39 186q10 41 5 63t-51 22h-18l9 53h237l-69 -325q-6 -27 -10 -51t-4 -45q0 -45 35 -45q16 0 29 6t30 17l24 -34q-24 -25 -61 -47t-92 -22zM223 606q-66 0 -100 43.5t-39 113.5h66q4 -34 26.5 -51t57.5 -17q36 0 63 16
t42 52h62q-10 -38 -33.5 -74.5t-60 -59.5t-84.5 -23z" />
    <glyph glyph-name="Iogonek" unicode="&#x12e;" horiz-adv-x="401" 
d="M-23 0l11 53h13q32 0 58 10.5t34 49.5l104 484q2 10 3 18t1 12q0 22 -20 28t-52 6h-13l11 53h345l-11 -53h-13q-33 0 -60 -10.5t-35 -50.5l-103 -490q-1 -5 -2.5 -12t-1.5 -11q0 -22 21 -28t52 -6h13l-11 -53h-344zM143 -240q-60 0 -94 26.5t-34 75.5q0 54 41.5 88.5
t106.5 49.5h77q-23 -6 -51 -21.5t-48 -39t-20 -56.5q0 -23 16 -37t41 -14q14 0 30 2t35 6l-13 -64q-40 -16 -87 -16z" />
    <glyph glyph-name="iogonek" unicode="&#x12f;" horiz-adv-x="354" 
d="M234 626q-33 0 -55.5 15.5t-22.5 46.5q0 44 28 63t65 19q32 0 56 -14.5t24 -48.5q0 -41 -29.5 -61t-65.5 -20zM185 -10q-57 0 -88 27.5t-31 75.5q0 21 4 51t12 68l39 186q3 13 5 26t2 17q0 27 -12 34.5t-41 7.5h-18l10 53h236l-69 -325q-6 -27 -10 -51t-4 -45
q0 -45 35 -45q16 0 29 6t30 17l24 -34q-24 -25 -61 -47t-92 -22zM152 -240q-60 0 -94 26.5t-34 75.5q0 54 41.5 88.5t106.5 49.5h77q-23 -6 -51 -21.5t-48 -39t-20 -56.5q0 -23 16 -37t41 -14q14 0 30 2t35 6l-13 -64q-40 -16 -87 -16z" />
    <glyph glyph-name="Idotaccent" unicode="&#x130;" horiz-adv-x="401" 
d="M-23 0l11 53h13q32 0 58 10.5t34 49.5l104 484q2 10 3 18t1 12q0 22 -20 28t-52 6h-13l11 53h345l-11 -53h-13q-33 0 -60 -10.5t-35 -50.5l-103 -490q-1 -5 -2.5 -12t-1.5 -11q0 -22 21 -28t52 -6h13l-11 -53h-344zM312 791q-33 0 -55.5 15.5t-22.5 46.5q0 44 28 63
t65 19q32 0 56 -14.5t24 -48.5q0 -41 -29.5 -61t-65.5 -20z" />
    <glyph glyph-name="IJ" unicode="&#x132;" horiz-adv-x="802" 
d="M-23 0l11 53h13q32 0 58 10.5t34 49.5l104 484q2 10 3 18t1 12q0 22 -20 28t-52 6h-13l11 53h345l-11 -53h-13q-33 0 -60 -10.5t-35 -50.5l-103 -490q-1 -5 -2.5 -12t-1.5 -11q0 -22 21 -28t52 -6h13l-11 -53h-344zM325 -240q-27 0 -45.5 3t-36.5 8l14 55
q13 -4 31.5 -6.5t33.5 -2.5q52 0 88.5 40t58.5 140l129 607q4 14 4 23q0 22 -20 28t-52 6h-13l11 53h345l-11 -53h-13q-33 0 -60 -10.5t-35 -50.5l-127 -603q-17 -81 -62.5 -133.5t-108.5 -78t-131 -25.5z" />
    <glyph glyph-name="ij" unicode="&#x133;" horiz-adv-x="692" 
d="M234 626q-33 0 -55.5 15.5t-22.5 46.5q0 44 28 63t65 19q32 0 56 -14.5t24 -48.5q0 -41 -29.5 -61t-65.5 -20zM185 -10q-57 0 -88 27.5t-31 75.5q0 21 4 51t12 68l39 186q3 13 5 26t2 17q0 27 -12 34.5t-41 7.5h-18l10 53h236l-69 -325q-6 -27 -10 -51t-4 -45
q0 -45 35 -45q16 0 29 6t30 17l24 -34q-24 -25 -61 -47t-92 -22zM588 626q-33 0 -55.5 15.5t-22.5 46.5q0 44 28 63t65 19q32 0 56 -14.5t24 -48.5q0 -41 -29.5 -61t-65.5 -20zM313 -240q-31 0 -54.5 3.5t-44.5 8.5l12 52q8 -2 21.5 -4.5t23.5 -2.5q31 0 52 16t36.5 54.5
t29.5 104.5l86 406q3 13 5 26t2 17q0 27 -12 34.5t-41 7.5h-18l10 53h236l-116 -544q-18 -89 -52.5 -139.5t-79.5 -71.5t-96 -21z" />
    <glyph glyph-name="Jcircumflex" unicode="&#x134;" horiz-adv-x="401" 
d="M-76 -240q-27 0 -45.5 3t-36.5 8l14 55q13 -4 31.5 -6.5t33.5 -2.5q52 0 88.5 40t58.5 140l129 607q4 14 4 23q0 22 -20 28t-52 6h-13l11 53h345l-11 -53h-13q-33 0 -60 -10.5t-35 -50.5l-127 -603q-17 -81 -62.5 -133.5t-108.5 -78t-131 -25.5zM125 771l3 13
q20 19 45.5 44.5t51.5 52.5t45 50h135q9 -20 22.5 -47.5t29 -54t26.5 -45.5l-3 -13h-63q-17 17 -44 43.5t-45 46.5q-18 -13 -41 -30t-45 -33t-39 -27h-78z" />
    <glyph glyph-name="jcircumflex" unicode="&#x135;" horiz-adv-x="338" 
d="M-41 -240q-31 0 -54.5 3.5t-44.5 8.5l12 52q8 -2 21.5 -4.5t23.5 -2.5q31 0 52 16t36.5 54.5t29.5 104.5l86 406q3 13 5 26t2 17q0 27 -12 34.5t-41 7.5h-18l9 53h237l-116 -544q-18 -89 -52.5 -139.5t-79.5 -71.5t-96 -21zM25 606l3 13q20 19 45.5 44.5t51.5 52.5t45 50
h135q9 -20 22.5 -47.5t29 -54t26.5 -45.5l-3 -13h-63q-17 17 -44 43.5t-45 46.5q-18 -13 -41 -30t-45 -33t-39 -27h-78z" />
    <glyph glyph-name="uni0136" unicode="&#x136;" horiz-adv-x="741" 
d="M-23 0l11 53h13q32 0 58 10.5t34 49.5l102 480q6 27 6 34q0 22 -20 28t-52 6h-13l11 53h345l-11 -53h-13q-33 0 -60 -10.5t-35 -50.5l-50 -237l203 179q41 36 54 58.5t13 35.5t-9.5 19.5t-34.5 6.5l11 52h270l-11 -52q-40 0 -76.5 -20t-84.5 -63l-162 -143l117 -281
q23 -56 42 -79t53 -23h3l-10 -53h-52q-66 0 -104 11.5t-60.5 41.5t-44.5 85l-74 191l-59 -42l-37 -177q-1 -5 -2.5 -12t-1.5 -11q0 -22 21 -28t52 -6h13l-11 -53h-344zM189 -221l3 13q17 35 33 73t28 74h126l-3 -10q-20 -31 -56 -73.5t-71 -76.5h-60z" />
    <glyph glyph-name="uni0137" unicode="&#x137;" horiz-adv-x="597" 
d="M507 0q-73 0 -116 22t-64 72l-59 140l-54 -35l-43 -199h-150l132 622q3 13 5 26t2 17q0 27 -12 34.5t-41 7.5h-21l9 53h242l-53 -244q-11 -53 -20 -91.5t-17.5 -74t-20.5 -80.5l156 141q24 22 31 34t7 19q0 22 -47 22l10 50h252l-10 -50q-34 0 -72.5 -20.5t-86.5 -64.5
l-80 -74l75 -163q22 -46 41 -70t36 -32.5t31 -8.5l-11 -53h-51zM117 -221l3 13q17 35 33 73t28 74h126l-3 -10q-20 -31 -56 -73.5t-71 -76.5h-60z" />
    <glyph glyph-name="kgreenlandic" unicode="&#x138;" horiz-adv-x="597" 
d="M507 0q-73 0 -116 22t-64 72l-59 140l-54 -35l-43 -199h-150l84 398q3 13 5 26t2 17q0 27 -12 34.5t-41 7.5h-21l9 53h242l-15 -70q-6 -29 -14.5 -65t-17 -70.5t-16.5 -60.5l156 141q24 22 31 34t7 19q0 22 -47 22l10 50h252l-10 -50q-34 0 -72.5 -20.5t-86.5 -64.5
l-80 -74l75 -163q22 -46 41 -70t36 -32.5t31 -8.5l-11 -53h-51z" />
    <glyph glyph-name="Lacute" unicode="&#x139;" horiz-adv-x="654" 
d="M-23 0l11 53h13q32 0 58 10.5t34 49.5l102 480q6 27 6 34q0 22 -20 28t-52 6h-13l11 53h345l-11 -53h-13q-33 0 -60 -10.5t-35 -50.5l-113 -539h167q55 0 82.5 27t46.5 82l18 53h64l-55 -223h-586zM277 771l3 13q19 19 40.5 45t42.5 53t36 49h157l-3 -10
q-12 -13 -35.5 -33t-53.5 -42t-61 -41.5t-58 -33.5h-68z" />
    <glyph glyph-name="lacute" unicode="&#x13a;" horiz-adv-x="354" 
d="M169 -10q-57 0 -88 27.5t-31 75.5q0 21 4 51t12 68l87 410q3 13 5 26t2 17q0 27 -12 34.5t-41 7.5h-21l9 53h242l-119 -549q-6 -27 -10 -51t-4 -45q0 -45 35 -45q16 0 29 6t30 17l24 -34q-24 -25 -61 -47t-92 -22zM213 799l3 13q19 19 40.5 45t42.5 53t36 49h157l-3 -10
q-12 -13 -35.5 -33t-53.5 -42t-61 -41.5t-58 -33.5h-68z" />
    <glyph glyph-name="uni013B" unicode="&#x13b;" horiz-adv-x="654" 
d="M-23 0l11 53h13q32 0 58 10.5t34 49.5l102 480q6 27 6 34q0 22 -20 28t-52 6h-13l11 53h345l-11 -53h-13q-33 0 -60 -10.5t-35 -50.5l-113 -539h167q55 0 82.5 27t46.5 82l18 53h64l-55 -223h-586zM145 -221l3 13q17 35 33 73t28 74h126l-3 -10q-20 -31 -56 -73.5
t-71 -76.5h-60z" />
    <glyph glyph-name="uni013C" unicode="&#x13c;" horiz-adv-x="354" 
d="M169 -10q-57 0 -88 27.5t-31 75.5q0 21 4 51t12 68l87 410q3 13 5 26t2 17q0 27 -12 34.5t-41 7.5h-21l9 53h242l-119 -549q-6 -27 -10 -51t-4 -45q0 -45 35 -45q16 0 29 6t30 17l24 -34q-24 -25 -61 -47t-92 -22zM-5 -221l3 13q17 35 33 73t28 74h126l-3 -10
q-20 -31 -56 -73.5t-71 -76.5h-60z" />
    <glyph glyph-name="Lcaron" unicode="&#x13d;" horiz-adv-x="654" 
d="M-23 0l11 53h13q32 0 58 10.5t34 49.5l102 480q6 27 6 34q0 22 -20 28t-52 6h-13l11 53h345l-11 -53h-13q-33 0 -60 -10.5t-35 -50.5l-113 -539h167q55 0 82.5 27t46.5 82l18 53h64l-55 -223h-586zM482 554l3 13q17 35 33 73t28 74h126l-3 -10q-20 -31 -56 -73.5
t-71 -76.5h-60z" />
    <glyph glyph-name="lcaron" unicode="&#x13e;" horiz-adv-x="354" 
d="M169 -10q-57 0 -88 27.5t-31 75.5q0 21 4 51t12 68l87 410q3 13 5 26t2 17q0 27 -12 34.5t-41 7.5h-21l9 53h242l-119 -549q-6 -27 -10 -51t-4 -45q0 -45 35 -45q16 0 29 6t30 17l24 -34q-24 -25 -61 -47t-92 -22zM357 600l3 13q17 35 33 73t28 74h126l-3 -10
q-20 -31 -56 -73.5t-71 -76.5h-60z" />
    <glyph glyph-name="Ldot" unicode="&#x13f;" horiz-adv-x="654" 
d="M-23 0l11 53h13q32 0 58 10.5t34 49.5l102 480q6 27 6 34q0 22 -20 28t-52 6h-13l11 53h345l-11 -53h-13q-33 0 -60 -10.5t-35 -50.5l-113 -539h167q55 0 82.5 27t46.5 82l18 53h64l-55 -223h-586zM543 311q-33 0 -55.5 15.5t-22.5 46.5q0 44 28 63t65 19q32 0 56 -14.5
t24 -48.5q0 -41 -29.5 -61t-65.5 -20z" />
    <glyph glyph-name="ldot" unicode="&#x140;" horiz-adv-x="463" 
d="M169 -10q-57 0 -88 27.5t-31 75.5q0 21 4 51t12 68l87 410q3 13 5 26t2 17q0 27 -12 34.5t-41 7.5h-21l9 53h242l-119 -549q-6 -27 -10 -51t-4 -45q0 -45 35 -45q16 0 29 6t30 17l24 -34q-24 -25 -61 -47t-92 -22zM395 278q-33 0 -55.5 15.5t-22.5 46.5q0 44 28 63t65 19
q32 0 56 -14.5t24 -48.5q0 -41 -29.5 -61t-65.5 -20z" />
    <glyph glyph-name="Lslash" unicode="&#x141;" horiz-adv-x="654" 
d="M-23 0l11 53h13q32 0 58 10.5t34 49.5l35 163h-1l-92 -47l16 72l92 47l52 245q6 27 6 34q0 22 -20 28t-52 6h-13l11 53h345l-11 -53h-13q-33 0 -60 -10.5t-35 -50.5l-34 -162l166 87l-16 -74l-165 -85v0l-64 -305h167q55 0 82.5 27t46.5 82l18 53h64l-55 -223h-586z" />
    <glyph glyph-name="lslash" unicode="&#x142;" horiz-adv-x="354" 
d="M169 -10q-57 0 -88 27.5t-31 75.5q0 21 4 51t12 68l11 52v0l-81 -41l15 74l82 42l60 283q3 13 5 26t2 17q0 27 -12 34.5t-41 7.5h-21l9 53h242l-72 -334l88 45l-16 -76l-89 -45l-30 -139q-6 -27 -10 -51t-4 -45q0 -45 35 -45q16 0 29 6t30 17l24 -34q-24 -25 -61 -47
t-92 -22z" />
    <glyph glyph-name="Nacute" unicode="&#x143;" horiz-adv-x="788" 
d="M-23 0l11 53h13q32 0 58 10.5t34 49.5l102 480q6 27 6 34q0 22 -20 28t-52 6h-13l11 53h222l244 -513l84 395q2 11 3.5 19t1.5 12q0 22 -20.5 28t-52.5 6h-3l11 53h252l-11 -53h-13q-31 0 -57.5 -10.5t-34.5 -49.5l-127 -601h-92l-271 566l-94 -448q-2 -11 -3.5 -19
t-1.5 -12q0 -22 21 -28t52 -6h3l-11 -53h-252zM438 771l3 13q19 19 40.5 45t42.5 53t36 49h157l-3 -10q-12 -13 -35.5 -33t-53.5 -42t-61 -41.5t-58 -33.5h-68z" />
    <glyph glyph-name="nacute" unicode="&#x144;" horiz-adv-x="672" 
d="M503 -10q-57 0 -88 27.5t-31 75.5q0 21 4 51t12 68l16 79q4 20 11 53.5t7 58.5q0 19 -8 38t-34 19q-25 0 -50 -24t-46 -60.5t-36.5 -75.5t-21.5 -68l-51 -232h-150l84 398q3 13 5 26t2 17q0 27 -12 34.5t-41 7.5h-18l9 53h222l-11 -107h6q38 60 83 88.5t112 28.5
q43 0 67.5 -16t35.5 -42t11 -57q0 -25 -6.5 -56t-11.5 -57l-22 -107q-6 -27 -10 -51t-4 -45q0 -45 35 -45q16 0 29 6t30 17l24 -34q-24 -25 -61 -47t-92 -22zM330 606l3 13q19 19 40.5 45t42.5 53t36 49h157l-3 -10q-12 -13 -35.5 -33t-53.5 -42t-61 -41.5t-58 -33.5h-68z
" />
    <glyph glyph-name="uni0145" unicode="&#x145;" horiz-adv-x="788" 
d="M-23 0l11 53h13q32 0 58 10.5t34 49.5l102 480q6 27 6 34q0 22 -20 28t-52 6h-13l11 53h222l244 -513l84 395q2 11 3.5 19t1.5 12q0 22 -20.5 28t-52.5 6h-3l11 53h252l-11 -53h-13q-31 0 -57.5 -10.5t-34.5 -49.5l-127 -601h-92l-271 566l-94 -448q-2 -11 -3.5 -19
t-1.5 -12q0 -22 21 -28t52 -6h3l-11 -53h-252zM212 -221l3 13q17 35 33 73t28 74h126l-3 -10q-20 -31 -56 -73.5t-71 -76.5h-60z" />
    <glyph glyph-name="uni0146" unicode="&#x146;" horiz-adv-x="672" 
d="M503 -10q-57 0 -88 27.5t-31 75.5q0 21 4 51t12 68l16 79q4 20 11 53.5t7 58.5q0 19 -8 38t-34 19q-25 0 -50 -24t-46 -60.5t-36.5 -75.5t-21.5 -68l-51 -232h-150l84 398q3 13 5 26t2 17q0 27 -12 34.5t-41 7.5h-18l9 53h222l-11 -107h6q38 60 83 88.5t112 28.5
q43 0 67.5 -16t35.5 -42t11 -57q0 -25 -6.5 -56t-11.5 -57l-22 -107q-6 -27 -10 -51t-4 -45q0 -45 35 -45q16 0 29 6t30 17l24 -34q-24 -25 -61 -47t-92 -22zM164 -221l3 13q17 35 33 73t28 74h126l-3 -10q-20 -31 -56 -73.5t-71 -76.5h-60z" />
    <glyph glyph-name="Ncaron" unicode="&#x147;" horiz-adv-x="788" 
d="M-23 0l11 53h13q32 0 58 10.5t34 49.5l102 480q6 27 6 34q0 22 -20 28t-52 6h-13l11 53h222l244 -513l84 395q2 11 3.5 19t1.5 12q0 22 -20.5 28t-52.5 6h-3l11 53h252l-11 -53h-13q-31 0 -57.5 -10.5t-34.5 -49.5l-127 -601h-92l-271 566l-94 -448q-2 -11 -3.5 -19
t-1.5 -12q0 -22 21 -28t52 -6h3l-11 -53h-252zM422 771q-8 21 -22.5 48t-29 53.5t-26.5 45.5l3 13h63q17 -16 44 -43t45 -47q18 14 41 30.5t45.5 32.5t38.5 27h78l-3 -13q-19 -19 -45 -44.5t-52 -52t-45 -50.5h-135z" />
    <glyph glyph-name="ncaron" unicode="&#x148;" horiz-adv-x="672" 
d="M503 -10q-57 0 -88 27.5t-31 75.5q0 21 4 51t12 68l16 79q4 20 11 53.5t7 58.5q0 19 -8 38t-34 19q-25 0 -50 -24t-46 -60.5t-36.5 -75.5t-21.5 -68l-51 -232h-150l84 398q3 13 5 26t2 17q0 27 -12 34.5t-41 7.5h-18l9 53h222l-11 -107h6q38 60 83 88.5t112 28.5
q43 0 67.5 -16t35.5 -42t11 -57q0 -25 -6.5 -56t-11.5 -57l-22 -107q-6 -27 -10 -51t-4 -45q0 -45 35 -45q16 0 29 6t30 17l24 -34q-24 -25 -61 -47t-92 -22zM328 606q-8 21 -22.5 48t-29 53.5t-26.5 45.5l3 13h63q17 -16 44 -43t45 -47q18 14 41 30.5t45.5 32.5t38.5 27h78
l-3 -13q-19 -19 -45 -44.5t-52 -52t-45 -50.5h-135z" />
    <glyph glyph-name="napostrophe" unicode="&#x149;" horiz-adv-x="879" 
d="M710 -10q-57 0 -88 27.5t-31 75.5q0 21 4 51t12 68l16 79q4 20 11 53.5t7 58.5q0 19 -8 38t-34 19q-25 0 -50 -24t-46 -60.5t-36.5 -75.5t-21.5 -68l-51 -232h-150l84 398q3 13 5 26t2 17q0 27 -12 34.5t-41 7.5h-18l9 53h222l-11 -107h6q38 60 83 88.5t112 28.5
q43 0 67.5 -16t35.5 -42t11 -57q0 -25 -6.5 -56t-11.5 -57l-22 -107q-6 -27 -10 -51t-4 -45q0 -45 35 -45q16 0 29 6t30 17l24 -34q-24 -25 -61 -47t-92 -22zM26 411l11 53q103 24 103 83q0 16 -8.5 25.5t-19.5 18t-19.5 21t-8.5 34.5q0 32 22.5 50.5t52.5 18.5
q36 0 61.5 -23.5t25.5 -67.5q0 -76 -55 -134t-165 -79z" />
    <glyph glyph-name="Eng" unicode="&#x14a;" horiz-adv-x="763" 
d="M377 -240q-42 0 -77 11l13 56q26 -9 54 -9q32 0 64.5 16t60 56t42.5 110l-271 566l-94 -448q-2 -11 -3.5 -19t-1.5 -12q0 -22 21 -28t52 -6h3l-11 -53h-252l11 53h13q32 0 58 10.5t34 49.5l102 480q6 27 6 34q0 22 -20 28t-52 6h-13l11 53h222l244 -513l84 395
q2 11 3.5 19t1.5 12q0 22 -20.5 28t-52.5 6h-3l11 53h252l-11 -53h-13q-31 0 -57.5 -10.5t-34.5 -49.5l-127 -601q-27 -129 -90 -184.5t-159 -55.5z" />
    <glyph glyph-name="eng" unicode="&#x14b;" horiz-adv-x="652" 
d="M277 -240q-31 0 -54.5 3.5t-44.5 8.5l12 52q8 -2 21.5 -4.5t23.5 -2.5q31 0 52 16t36.5 54.5t29.5 104.5l65 304q5 20 10.5 53.5t5.5 58.5q0 19 -9 35.5t-32 16.5q-25 0 -50 -23.5t-46 -59t-36 -73.5t-21 -67l-53 -237h-150l84 398q3 13 5 26t2 17q0 27 -12 34.5t-41 7.5
h-18l9 53h222l-11 -107h6q38 60 84 88.5t113 28.5q43 0 67 -16.5t34.5 -42t10.5 -51.5q0 -25 -6 -56t-11 -57l-70 -331q-19 -89 -53.5 -139.5t-79 -71.5t-95.5 -21z" />
    <glyph glyph-name="Omacron" unicode="&#x14c;" horiz-adv-x="792" 
d="M342 -11q-79 0 -142 31.5t-100 93.5t-37 152q0 58 17 121t51.5 123t85.5 108.5t119 77.5t153 29q74 0 136.5 -29t101 -89.5t38.5 -156.5q0 -55 -16.5 -118t-50 -123.5t-84 -110.5t-118.5 -79.5t-154 -29.5zM362 55q50 0 89 28t67.5 74t47.5 101.5t28 111.5t9 103
q0 98 -38 142.5t-97 44.5q-50 0 -89 -28t-68 -74t-47.5 -101.5t-28 -111.5t-9.5 -103q0 -98 39.5 -142.5t96.5 -44.5zM342 771l17 79h290l-17 -79h-290z" />
    <glyph glyph-name="omacron" unicode="&#x14d;" horiz-adv-x="618" 
d="M252 -10q-94 0 -153 52t-59 158q0 56 20 116.5t60 112.5t102 84.5t146 32.5q58 0 105 -21.5t75.5 -67.5t28.5 -121q0 -54 -19 -114t-58.5 -113t-101 -86t-146.5 -33zM270 62q32 0 57 21t43.5 56t30.5 76t18 81t6 72q0 59 -20.5 85t-55.5 26q-38 0 -67.5 -31t-49 -78.5
t-29.5 -99.5t-10 -94q0 -61 20.5 -87.5t56.5 -26.5zM222 606l17 79h290l-17 -79h-290z" />
    <glyph glyph-name="Obreve" unicode="&#x14e;" horiz-adv-x="792" 
d="M342 -11q-79 0 -142 31.5t-100 93.5t-37 152q0 58 17 121t51.5 123t85.5 108.5t119 77.5t153 29q74 0 136.5 -29t101 -89.5t38.5 -156.5q0 -55 -16.5 -118t-50 -123.5t-84 -110.5t-118.5 -79.5t-154 -29.5zM362 55q50 0 89 28t67.5 74t47.5 101.5t28 111.5t9 103
q0 98 -38 142.5t-97 44.5q-50 0 -89 -28t-68 -74t-47.5 -101.5t-28 -111.5t-9.5 -103q0 -98 39.5 -142.5t96.5 -44.5zM495 771q-66 0 -100 43.5t-39 113.5h66q4 -34 26.5 -51t57.5 -17q36 0 63 16t42 52h62q-10 -38 -33.5 -74.5t-60 -59.5t-84.5 -23z" />
    <glyph glyph-name="obreve" unicode="&#x14f;" horiz-adv-x="618" 
d="M252 -10q-94 0 -153 52t-59 158q0 56 20 116.5t60 112.5t102 84.5t146 32.5q58 0 105 -21.5t75.5 -67.5t28.5 -121q0 -54 -19 -114t-58.5 -113t-101 -86t-146.5 -33zM270 62q32 0 57 21t43.5 56t30.5 76t18 81t6 72q0 59 -20.5 85t-55.5 26q-38 0 -67.5 -31t-49 -78.5
t-29.5 -99.5t-10 -94q0 -61 20.5 -87.5t56.5 -26.5zM374 606q-66 0 -100 43.5t-39 113.5h66q4 -34 26.5 -51t57.5 -17q36 0 63 16t42 52h62q-10 -38 -33.5 -74.5t-60 -59.5t-84.5 -23z" />
    <glyph glyph-name="Ohungarumlaut" unicode="&#x150;" horiz-adv-x="792" 
d="M342 -11q-79 0 -142 31.5t-100 93.5t-37 152q0 58 17 121t51.5 123t85.5 108.5t119 77.5t153 29q74 0 136.5 -29t101 -89.5t38.5 -156.5q0 -55 -16.5 -118t-50 -123.5t-84 -110.5t-118.5 -79.5t-154 -29.5zM362 55q50 0 89 28t67.5 74t47.5 101.5t28 111.5t9 103
q0 98 -38 142.5t-97 44.5q-50 0 -89 -28t-68 -74t-47.5 -101.5t-28 -111.5t-9.5 -103q0 -98 39.5 -142.5t96.5 -44.5zM540 771l3 13q28 32 56.5 71.5t50.5 75.5h127l-3 -10q-10 -13 -30.5 -33t-45 -42t-49.5 -41.5t-45 -33.5h-64zM350 771l3 13q28 32 56.5 71.5t50.5 75.5
h127l-3 -10q-10 -13 -30.5 -33t-45 -42t-49.5 -41.5t-45 -33.5h-64z" />
    <glyph glyph-name="ohungarumlaut" unicode="&#x151;" horiz-adv-x="618" 
d="M252 -10q-94 0 -153 52t-59 158q0 56 20 116.5t60 112.5t102 84.5t146 32.5q58 0 105 -21.5t75.5 -67.5t28.5 -121q0 -54 -19 -114t-58.5 -113t-101 -86t-146.5 -33zM270 62q32 0 57 21t43.5 56t30.5 76t18 81t6 72q0 59 -20.5 85t-55.5 26q-38 0 -67.5 -31t-49 -78.5
t-29.5 -99.5t-10 -94q0 -61 20.5 -87.5t56.5 -26.5zM406 606l3 13q28 32 56.5 71.5t50.5 75.5h127l-3 -10q-10 -13 -30.5 -33t-45 -42t-49.5 -41.5t-45 -33.5h-64zM216 606l3 13q28 32 56.5 71.5t50.5 75.5h127l-3 -10q-10 -13 -30.5 -33t-45 -42t-49.5 -41.5t-45 -33.5h-64
z" />
    <glyph glyph-name="OE" unicode="&#x152;" horiz-adv-x="991" 
d="M342 -11q-79 0 -142 31.5t-100 93.5t-37 152q0 58 17 121t51.5 123t85.5 108.5t119 77.5t153 29q48 0 92 -11h447l-35 -186h-71q1 5 2 18t2 25.5t1 14.5q0 28 -16 47.5t-55 19.5h-133l-53 -250h227l-13 -60h-227l-60 -282h158q47 0 74 24.5t39 57.5l16 43h71l-46 -186
h-473q-46 -11 -94 -11zM362 55q22 0 42 4t38 14l119 563q-17 11 -41.5 17.5t-51.5 6.5q-50 0 -89 -28t-68 -74t-47.5 -101.5t-28 -111.5t-9.5 -103q0 -98 39.5 -142.5t96.5 -44.5z" />
    <glyph glyph-name="oe" unicode="&#x153;" horiz-adv-x="901" 
d="M252 -10q-94 0 -153 51.5t-59 155.5q0 56 20 116.5t60.5 113.5t102.5 86t146 33q56 0 99.5 -18.5t67.5 -59.5q39 35 91 56.5t118 21.5q71 0 111 -30.5t40 -85.5q0 -54 -38.5 -100.5t-106 -75.5t-153.5 -29h-37q-1 -10 -1.5 -20t-0.5 -18q0 -58 27 -89.5t82 -31.5
q49 0 87 25.5t59 55.5q13 -16 13 -43q0 -24 -21 -50.5t-64.5 -45t-112.5 -18.5q-57 0 -102 19.5t-72 59.5q-36 -35 -86.5 -57t-116.5 -22zM568 282h9q50 0 89.5 17.5t62.5 49.5t23 74q0 63 -49 63q-32 0 -60 -31t-47.5 -78t-27.5 -95zM270 62q32 0 57.5 21.5t44 56.5
t30.5 76.5t18 82t6 71.5q0 59 -20.5 84t-55.5 25q-31 0 -55.5 -20.5t-43.5 -55t-32 -75t-19.5 -81t-6.5 -73.5q0 -61 20.5 -86.5t56.5 -25.5z" />
    <glyph glyph-name="Racute" unicode="&#x154;" horiz-adv-x="707" 
d="M-23 0l11 53h13q32 0 58 10.5t34 49.5l102 480q6 27 6 34q0 22 -20 28t-52 6h-13l11 53h321q238 0 238 -167q0 -67 -27.5 -109t-68.5 -64.5t-82 -32.5l69 -186q21 -57 41 -79.5t54 -22.5h4l-11 -53h-10q-69 0 -115 8.5t-73.5 33.5t-42.5 72l-63 196h-69l-39 -183
q-7 -34 -7 -40q0 -22 21 -28t52 -6h33l-11 -53h-364zM303 368h62q64 0 107.5 38.5t43.5 127.5q0 68 -24 94.5t-74 26.5h-51zM368 771l3 13q19 19 40.5 45t42.5 53t36 49h157l-3 -10q-12 -13 -35.5 -33t-53.5 -42t-61 -41.5t-58 -33.5h-68z" />
    <glyph glyph-name="racute" unicode="&#x155;" horiz-adv-x="551" 
d="M37 0l85 402q2 8 4 22t2 24q0 19 -12 27t-41 8h-18l9 53h221l-21 -137h5q23 48 47 81t55.5 49.5t78.5 16.5q105 0 105 -78q0 -52 -30.5 -77.5t-87.5 -25.5q0 46 -10 72.5t-39 26.5q-21 0 -45 -24.5t-46.5 -66t-41.5 -93.5t-31 -107l-38 -173h-151zM259 606l3 13
q19 19 40.5 45t42.5 53t36 49h157l-3 -10q-12 -13 -35.5 -33t-53.5 -42t-61 -41.5t-58 -33.5h-68z" />
    <glyph glyph-name="uni0156" unicode="&#x156;" horiz-adv-x="707" 
d="M-23 0l11 53h13q32 0 58 10.5t34 49.5l102 480q6 27 6 34q0 22 -20 28t-52 6h-13l11 53h321q238 0 238 -167q0 -67 -27.5 -109t-68.5 -64.5t-82 -32.5l69 -186q21 -57 41 -79.5t54 -22.5h4l-11 -53h-10q-69 0 -115 8.5t-73.5 33.5t-42.5 72l-63 196h-69l-39 -183
q-7 -34 -7 -40q0 -22 21 -28t52 -6h33l-11 -53h-364zM303 368h62q64 0 107.5 38.5t43.5 127.5q0 68 -24 94.5t-74 26.5h-51zM197 -221l3 13q17 35 33 73t28 74h126l-3 -10q-20 -31 -56 -73.5t-71 -76.5h-60z" />
    <glyph glyph-name="uni0157" unicode="&#x157;" horiz-adv-x="551" 
d="M37 0l85 402q2 8 4 22t2 24q0 19 -12 27t-41 8h-18l9 53h221l-21 -137h5q23 48 47 81t55.5 49.5t78.5 16.5q105 0 105 -78q0 -52 -30.5 -77.5t-87.5 -25.5q0 46 -10 72.5t-39 26.5q-21 0 -45 -24.5t-46.5 -66t-41.5 -93.5t-31 -107l-38 -173h-151zM-16 -221l3 13
q17 35 33 73t28 74h126l-3 -10q-20 -31 -56 -73.5t-71 -76.5h-60z" />
    <glyph glyph-name="Rcaron" unicode="&#x158;" horiz-adv-x="707" 
d="M-23 0l11 53h13q32 0 58 10.5t34 49.5l102 480q6 27 6 34q0 22 -20 28t-52 6h-13l11 53h321q238 0 238 -167q0 -67 -27.5 -109t-68.5 -64.5t-82 -32.5l69 -186q21 -57 41 -79.5t54 -22.5h4l-11 -53h-10q-69 0 -115 8.5t-73.5 33.5t-42.5 72l-63 196h-69l-39 -183
q-7 -34 -7 -40q0 -22 21 -28t52 -6h33l-11 -53h-364zM303 368h62q64 0 107.5 38.5t43.5 127.5q0 68 -24 94.5t-74 26.5h-51zM348 771q-8 21 -22.5 48t-29 53.5t-26.5 45.5l3 13h63q17 -16 44 -43t45 -47q18 14 41 30.5t45.5 32.5t38.5 27h78l-3 -13q-19 -19 -45 -44.5
t-52 -52t-45 -50.5h-135z" />
    <glyph glyph-name="rcaron" unicode="&#x159;" horiz-adv-x="551" 
d="M37 0l85 402q2 8 4 22t2 24q0 19 -12 27t-41 8h-18l9 53h221l-21 -137h5q23 48 47 81t55.5 49.5t78.5 16.5q105 0 105 -78q0 -52 -30.5 -77.5t-87.5 -25.5q0 46 -10 72.5t-39 26.5q-21 0 -45 -24.5t-46.5 -66t-41.5 -93.5t-31 -107l-38 -173h-151zM248 606
q-8 21 -22.5 48t-29 53.5t-26.5 45.5l3 13h63q17 -16 44 -43t45 -47q18 14 41 30.5t45.5 32.5t38.5 27h78l-3 -13q-19 -19 -45 -44.5t-52 -52t-45 -50.5h-135z" />
    <glyph glyph-name="Sacute" unicode="&#x15a;" horiz-adv-x="586" 
d="M261 -10q-124 0 -185.5 42t-61.5 104q0 47 36.5 70.5t93.5 23.5q0 -91 37 -135t96 -44q56 0 87.5 30t31.5 73q0 28 -10 50t-36.5 44.5t-76.5 49.5q-78 43 -118 93t-40 129q0 60 32 106t90 72t137 26q111 0 166 -32.5t55 -79.5q0 -40 -30.5 -63.5t-100.5 -23.5
q0 30 -8.5 62t-30 54t-60.5 22q-26 0 -51.5 -11t-42 -34t-16.5 -58t14.5 -57.5t44.5 -41.5t74 -44q76 -40 112 -90t36 -114q0 -106 -74.5 -164.5t-200.5 -58.5zM342 771l3 13q19 19 40.5 45t42.5 53t36 49h157l-3 -10q-12 -13 -35.5 -33t-53.5 -42t-61 -41.5t-58 -33.5h-68z
" />
    <glyph glyph-name="sacute" unicode="&#x15b;" horiz-adv-x="514" 
d="M206 -10q-85 0 -137 29t-52 81q0 31 15.5 49.5t40.5 27t51 8.5q0 -35 9.5 -66t31.5 -50t58 -19q41 0 68.5 19.5t27.5 55.5q0 35 -27 55t-86 48q-58 28 -93 64.5t-35 94.5q0 74 60.5 116.5t165.5 42.5q68 0 108 -13.5t57.5 -34.5t17.5 -46q0 -40 -31 -58t-84 -18
q0 27 -7.5 53t-24 43.5t-45.5 17.5q-39 0 -61.5 -20.5t-22.5 -49.5q0 -33 27.5 -52t85.5 -45q65 -29 95 -66t30 -93q0 -81 -61.5 -127.5t-181.5 -46.5zM270 606l3 13q19 19 40.5 45t42.5 53t36 49h157l-3 -10q-12 -13 -35.5 -33t-53.5 -42t-61 -41.5t-58 -33.5h-68z" />
    <glyph glyph-name="Scircumflex" unicode="&#x15c;" horiz-adv-x="586" 
d="M261 -10q-124 0 -185.5 42t-61.5 104q0 47 36.5 70.5t93.5 23.5q0 -91 37 -135t96 -44q56 0 87.5 30t31.5 73q0 28 -10 50t-36.5 44.5t-76.5 49.5q-78 43 -118 93t-40 129q0 60 32 106t90 72t137 26q111 0 166 -32.5t55 -79.5q0 -40 -30.5 -63.5t-100.5 -23.5
q0 30 -8.5 62t-30 54t-60.5 22q-26 0 -51.5 -11t-42 -34t-16.5 -58t14.5 -57.5t44.5 -41.5t74 -44q76 -40 112 -90t36 -114q0 -106 -74.5 -164.5t-200.5 -58.5zM208 771l3 13q20 19 45.5 44.5t51.5 52.5t45 50h135q9 -20 22.5 -47.5t29 -54t26.5 -45.5l-3 -13h-63
q-17 17 -44 43.5t-45 46.5q-18 -13 -41 -30t-45 -33t-39 -27h-78z" />
    <glyph glyph-name="scircumflex" unicode="&#x15d;" horiz-adv-x="514" 
d="M206 -10q-85 0 -137 29t-52 81q0 31 15.5 49.5t40.5 27t51 8.5q0 -35 9.5 -66t31.5 -50t58 -19q41 0 68.5 19.5t27.5 55.5q0 35 -27 55t-86 48q-58 28 -93 64.5t-35 94.5q0 74 60.5 116.5t165.5 42.5q68 0 108 -13.5t57.5 -34.5t17.5 -46q0 -40 -31 -58t-84 -18
q0 27 -7.5 53t-24 43.5t-45.5 17.5q-39 0 -61.5 -20.5t-22.5 -49.5q0 -33 27.5 -52t85.5 -45q65 -29 95 -66t30 -93q0 -81 -61.5 -127.5t-181.5 -46.5zM138 606l3 13q20 19 45.5 44.5t51.5 52.5t45 50h135q9 -20 22.5 -47.5t29 -54t26.5 -45.5l-3 -13h-63q-17 17 -44 43.5
t-45 46.5q-18 -13 -41 -30t-45 -33t-39 -27h-78z" />
    <glyph glyph-name="Scedilla" unicode="&#x15e;" horiz-adv-x="586" 
d="M261 -10q-124 0 -185.5 42t-61.5 104q0 47 36.5 70.5t93.5 23.5q0 -91 37 -135t96 -44q56 0 87.5 30t31.5 73q0 28 -10 50t-36.5 44.5t-76.5 49.5q-78 43 -118 93t-40 129q0 60 32 106t90 72t137 26q111 0 166 -32.5t55 -79.5q0 -40 -30.5 -63.5t-100.5 -23.5
q0 30 -8.5 62t-30 54t-60.5 22q-26 0 -51.5 -11t-42 -34t-16.5 -58t14.5 -57.5t44.5 -41.5t74 -44q76 -40 112 -90t36 -114q0 -106 -74.5 -164.5t-200.5 -58.5zM201 -240q-51 0 -88 13l13 59q37 -8 65 -8q31 0 52.5 12t21.5 39q0 20 -19 32.5t-47 13.5l40 88h57l-19 -43
q40 -5 64.5 -28t24.5 -55q0 -43 -25 -70t-63 -40t-77 -13z" />
    <glyph glyph-name="scedilla" unicode="&#x15f;" horiz-adv-x="514" 
d="M206 -10q-85 0 -137 29t-52 81q0 31 15.5 49.5t40.5 27t51 8.5q0 -35 9.5 -66t31.5 -50t58 -19q41 0 68.5 19.5t27.5 55.5q0 35 -27 55t-86 48q-58 28 -93 64.5t-35 94.5q0 74 60.5 116.5t165.5 42.5q68 0 108 -13.5t57.5 -34.5t17.5 -46q0 -40 -31 -58t-84 -18
q0 27 -7.5 53t-24 43.5t-45.5 17.5q-39 0 -61.5 -20.5t-22.5 -49.5q0 -33 27.5 -52t85.5 -45q65 -29 95 -66t30 -93q0 -81 -61.5 -127.5t-181.5 -46.5zM151 -240q-51 0 -88 13l13 59q37 -8 65 -8q31 0 52.5 12t21.5 39q0 20 -19 32.5t-47 13.5l40 88h57l-19 -43
q40 -5 64.5 -28t24.5 -55q0 -43 -25 -70t-63 -40t-77 -13z" />
    <glyph glyph-name="Scaron" unicode="&#x160;" horiz-adv-x="586" 
d="M261 -10q-124 0 -185.5 42t-61.5 104q0 47 36.5 70.5t93.5 23.5q0 -91 37 -135t96 -44q56 0 87.5 30t31.5 73q0 28 -10 50t-36.5 44.5t-76.5 49.5q-78 43 -118 93t-40 129q0 60 32 106t90 72t137 26q111 0 166 -32.5t55 -79.5q0 -40 -30.5 -63.5t-100.5 -23.5
q0 30 -8.5 62t-30 54t-60.5 22q-26 0 -51.5 -11t-42 -34t-16.5 -58t14.5 -57.5t44.5 -41.5t74 -44q76 -40 112 -90t36 -114q0 -106 -74.5 -164.5t-200.5 -58.5zM315 771q-8 21 -22.5 48t-29 53.5t-26.5 45.5l3 13h63q17 -16 44 -43t45 -47q18 14 41 30.5t45.5 32.5t38.5 27
h78l-3 -13q-19 -19 -45 -44.5t-52 -52t-45 -50.5h-135z" />
    <glyph glyph-name="scaron" unicode="&#x161;" horiz-adv-x="514" 
d="M206 -10q-85 0 -137 29t-52 81q0 31 15.5 49.5t40.5 27t51 8.5q0 -35 9.5 -66t31.5 -50t58 -19q41 0 68.5 19.5t27.5 55.5q0 35 -27 55t-86 48q-58 28 -93 64.5t-35 94.5q0 74 60.5 116.5t165.5 42.5q68 0 108 -13.5t57.5 -34.5t17.5 -46q0 -40 -31 -58t-84 -18
q0 27 -7.5 53t-24 43.5t-45.5 17.5q-39 0 -61.5 -20.5t-22.5 -49.5q0 -33 27.5 -52t85.5 -45q65 -29 95 -66t30 -93q0 -81 -61.5 -127.5t-181.5 -46.5zM236 606q-8 21 -22.5 48t-29 53.5t-26.5 45.5l3 13h63q17 -16 44 -43t45 -47q18 14 41 30.5t45.5 32.5t38.5 27h78
l-3 -13q-19 -19 -45 -44.5t-52 -52t-45 -50.5h-135z" />
    <glyph glyph-name="uni021A" unicode="&#x21a;" horiz-adv-x="653" 
d="M104 0l11 53h13q32 0 58 10.5t34 49.5l113 540h-80q-46 0 -68 -23t-36 -67l-14 -43h-67l46 194h622l-35 -194h-67q1 5 2.5 23t3.5 36t2 21q0 26 -16 39.5t-54 13.5h-80l-115 -543q-1 -5 -2.5 -12t-1.5 -11q0 -22 21 -28t52 -6h13l-11 -53h-344zM145 -221l3 13
q17 35 33 73t28 74h126l-3 -10q-20 -31 -56 -73.5t-71 -76.5h-60z" />
    <glyph glyph-name="uni021B" unicode="&#x21b;" horiz-adv-x="417" 
d="M197 -10q-55 0 -92.5 29t-37.5 88q0 18 3 41.5t7 42.5l60 277h-77l11 51q43 0 99 31.5t103 108.5h58l-26 -123h121l-14 -68h-122l-60 -274q-5 -22 -7.5 -40t-2.5 -32q0 -25 14 -37.5t36 -12.5q23 0 42.5 8t35.5 18l23 -38q-33 -28 -74.5 -49t-99.5 -21zM27 -221l3 13
q17 35 33 73t28 74h126l-3 -10q-20 -31 -56 -73.5t-71 -76.5h-60z" />
    <glyph glyph-name="Tcaron" unicode="&#x164;" horiz-adv-x="653" 
d="M104 0l11 53h13q32 0 58 10.5t34 49.5l113 540h-80q-46 0 -68 -23t-36 -67l-14 -43h-67l46 194h622l-35 -194h-67q1 5 2.5 23t3.5 36t2 21q0 26 -16 39.5t-54 13.5h-80l-115 -543q-1 -5 -2.5 -12t-1.5 -11q0 -22 21 -28t52 -6h13l-11 -53h-344zM355 771q-8 21 -22.5 48
t-29 53.5t-26.5 45.5l3 13h63q17 -16 44 -43t45 -47q18 14 41 30.5t45.5 32.5t38.5 27h78l-3 -13q-19 -19 -45 -44.5t-52 -52t-45 -50.5h-135z" />
    <glyph glyph-name="tcaron" unicode="&#x165;" horiz-adv-x="417" 
d="M197 -10q-55 0 -92.5 29t-37.5 88q0 18 3 41.5t7 42.5l60 277h-77l11 51q43 0 99 31.5t103 108.5h58l-26 -123h121l-14 -68h-122l-60 -274q-5 -22 -7.5 -40t-2.5 -32q0 -25 14 -37.5t36 -12.5q23 0 42.5 8t35.5 18l23 -38q-33 -28 -74.5 -49t-99.5 -21zM359 600l3 13
q17 35 33 73t28 74h126l-3 -10q-20 -31 -56 -73.5t-71 -76.5h-60z" />
    <glyph glyph-name="Tbar" unicode="&#x166;" horiz-adv-x="653" 
d="M104 0l11 53h13q32 0 58 10.5t34 49.5l45 216h-145l11 53h145l57 271h-80q-46 0 -68 -23t-36 -67l-14 -43h-67l46 194h622l-35 -194h-67q1 5 2.5 23t3.5 36t2 21q0 26 -16 39.5t-54 13.5h-80l-57 -271h143l-11 -53h-144l-46 -219q-1 -5 -2.5 -12t-1.5 -11q0 -22 21 -28
t52 -6h13l-11 -53h-344z" />
    <glyph glyph-name="tbar" unicode="&#x167;" horiz-adv-x="417" 
d="M197 -10q-55 0 -92.5 29t-37.5 88q0 18 3 41.5t7 42.5l19 90h-68l11 53h69l29 134h-77l11 51q43 0 99 31.5t103 108.5h58l-26 -123h121l-14 -68h-122l-29 -134h111l-11 -53h-112l-19 -87q-5 -22 -7.5 -40t-2.5 -32q0 -25 14 -37.5t36 -12.5q23 0 42.5 8t35.5 18l23 -38
q-33 -28 -74.5 -49t-99.5 -21z" />
    <glyph glyph-name="Utilde" unicode="&#x168;" horiz-adv-x="747" 
d="M341 -10q-117 0 -179.5 45.5t-62.5 127.5q0 16 3.5 44t7.5 45l73 341q6 27 6 34q0 22 -20 28t-52 6h-13l11 53h346l-11 -53h-13q-33 0 -60 -10.5t-35 -48.5l-76 -352q-4 -17 -8 -41.5t-4 -45.5q0 -102 123 -102q61 0 97 22.5t56 62.5t30 90l77 361q2 8 3 17t1 13
q0 22 -20 28t-52 6h-13l11 53h263l-11 -53h-13q-32 0 -59 -10.5t-35 -50.5l-80 -380q-24 -112 -94 -171t-197 -59zM595 771q-27 0 -48.5 9.5t-39.5 22t-34 22t-32 9.5q-21 0 -36 -16.5t-19 -36.5h-60q6 31 24.5 65t46.5 58.5t64 24.5q27 0 47.5 -9.5t38 -22t32.5 -22
t31 -9.5q26 0 38 16.5t17 36.5h60q-7 -32 -24 -66.5t-43.5 -58t-62.5 -23.5z" />
    <glyph glyph-name="utilde" unicode="&#x169;" horiz-adv-x="673" 
d="M504 -10q-66 0 -91.5 28t-25.5 68q0 8 2 22.5t3 21.5h-8q-29 -41 -58 -72.5t-63.5 -49t-82.5 -17.5q-43 0 -68 15.5t-35.5 41t-10.5 54.5q0 25 6 55l11 55l36 176q4 20 6.5 37t2.5 25q0 20 -12 26.5t-41 6.5h-18l9 53h240l-66 -299q-5 -24 -11 -55.5t-6 -50.5
q0 -22 9.5 -35t33.5 -13q22 0 45 19.5t44.5 51.5t38 70.5t25.5 76.5l53 235h149l-68 -325q-6 -27 -10 -51t-4 -45q0 -45 35 -45q16 0 29 6t30 17l24 -34q-24 -25 -61 -47t-92 -22zM485 606q-27 0 -48.5 9.5t-39.5 22t-34 22t-32 9.5q-21 0 -36 -16.5t-19 -36.5h-60
q6 31 24.5 65t46.5 58.5t64 24.5q27 0 47.5 -9.5t38 -22t32.5 -22t31 -9.5q26 0 38 16.5t17 36.5h60q-7 -32 -24 -66.5t-43.5 -58t-62.5 -23.5z" />
    <glyph glyph-name="Umacron" unicode="&#x16a;" horiz-adv-x="747" 
d="M341 -10q-117 0 -179.5 45.5t-62.5 127.5q0 16 3.5 44t7.5 45l73 341q6 27 6 34q0 22 -20 28t-52 6h-13l11 53h346l-11 -53h-13q-33 0 -60 -10.5t-35 -48.5l-76 -352q-4 -17 -8 -41.5t-4 -45.5q0 -102 123 -102q61 0 97 22.5t56 62.5t30 90l77 361q2 8 3 17t1 13
q0 22 -20 28t-52 6h-13l11 53h263l-11 -53h-13q-32 0 -59 -10.5t-35 -50.5l-80 -380q-24 -112 -94 -171t-197 -59zM338 771l17 79h290l-17 -79h-290z" />
    <glyph glyph-name="umacron" unicode="&#x16b;" horiz-adv-x="673" 
d="M504 -10q-66 0 -91.5 28t-25.5 68q0 8 2 22.5t3 21.5h-8q-29 -41 -58 -72.5t-63.5 -49t-82.5 -17.5q-43 0 -68 15.5t-35.5 41t-10.5 54.5q0 25 6 55l11 55l36 176q4 20 6.5 37t2.5 25q0 20 -12 26.5t-41 6.5h-18l9 53h240l-66 -299q-5 -24 -11 -55.5t-6 -50.5
q0 -22 9.5 -35t33.5 -13q22 0 45 19.5t44.5 51.5t38 70.5t25.5 76.5l53 235h149l-68 -325q-6 -27 -10 -51t-4 -45q0 -45 35 -45q16 0 29 6t30 17l24 -34q-24 -25 -61 -47t-92 -22zM252 606l17 79h290l-17 -79h-290z" />
    <glyph glyph-name="Ubreve" unicode="&#x16c;" horiz-adv-x="747" 
d="M341 -10q-117 0 -179.5 45.5t-62.5 127.5q0 16 3.5 44t7.5 45l73 341q6 27 6 34q0 22 -20 28t-52 6h-13l11 53h346l-11 -53h-13q-33 0 -60 -10.5t-35 -48.5l-76 -352q-4 -17 -8 -41.5t-4 -45.5q0 -102 123 -102q61 0 97 22.5t56 62.5t30 90l77 361q2 8 3 17t1 13
q0 22 -20 28t-52 6h-13l11 53h263l-11 -53h-13q-32 0 -59 -10.5t-35 -50.5l-80 -380q-24 -112 -94 -171t-197 -59zM494 771q-66 0 -100 43.5t-39 113.5h66q4 -34 26.5 -51t57.5 -17q36 0 63 16t42 52h62q-10 -38 -33.5 -74.5t-60 -59.5t-84.5 -23z" />
    <glyph glyph-name="ubreve" unicode="&#x16d;" horiz-adv-x="673" 
d="M504 -10q-66 0 -91.5 28t-25.5 68q0 8 2 22.5t3 21.5h-8q-29 -41 -58 -72.5t-63.5 -49t-82.5 -17.5q-43 0 -68 15.5t-35.5 41t-10.5 54.5q0 25 6 55l11 55l36 176q4 20 6.5 37t2.5 25q0 20 -12 26.5t-41 6.5h-18l9 53h240l-66 -299q-5 -24 -11 -55.5t-6 -50.5
q0 -22 9.5 -35t33.5 -13q22 0 45 19.5t44.5 51.5t38 70.5t25.5 76.5l53 235h149l-68 -325q-6 -27 -10 -51t-4 -45q0 -45 35 -45q16 0 29 6t30 17l24 -34q-24 -25 -61 -47t-92 -22zM393 606q-66 0 -100 43.5t-39 113.5h66q4 -34 26.5 -51t57.5 -17q36 0 63 16t42 52h62
q-10 -38 -33.5 -74.5t-60 -59.5t-84.5 -23z" />
    <glyph glyph-name="Uring" unicode="&#x16e;" horiz-adv-x="747" 
d="M341 -10q-117 0 -179.5 45.5t-62.5 127.5q0 16 3.5 44t7.5 45l73 341q6 27 6 34q0 22 -20 28t-52 6h-13l11 53h346l-11 -53h-13q-33 0 -60 -10.5t-35 -48.5l-76 -352q-4 -17 -8 -41.5t-4 -45.5q0 -102 123 -102q61 0 97 22.5t56 62.5t30 90l77 361q2 8 3 17t1 13
q0 22 -20 28t-52 6h-13l11 53h263l-11 -53h-13q-32 0 -59 -10.5t-35 -50.5l-80 -380q-24 -112 -94 -171t-197 -59zM490 755q-50 0 -85 28t-35 81t35 81t85 28t85 -28t35 -81t-35 -81t-85 -28zM490 810q24 0 41.5 12.5t17.5 41.5t-17.5 41.5t-41.5 12.5t-41.5 -12.5
t-17.5 -41.5t17.5 -41.5t41.5 -12.5z" />
    <glyph glyph-name="uring" unicode="&#x16f;" horiz-adv-x="673" 
d="M504 -10q-66 0 -91.5 28t-25.5 68q0 8 2 22.5t3 21.5h-8q-29 -41 -58 -72.5t-63.5 -49t-82.5 -17.5q-43 0 -68 15.5t-35.5 41t-10.5 54.5q0 25 6 55l11 55l36 176q4 20 6.5 37t2.5 25q0 20 -12 26.5t-41 6.5h-18l9 53h240l-66 -299q-5 -24 -11 -55.5t-6 -50.5
q0 -22 9.5 -35t33.5 -13q22 0 45 19.5t44.5 51.5t38 70.5t25.5 76.5l53 235h149l-68 -325q-6 -27 -10 -51t-4 -45q0 -45 35 -45q16 0 29 6t30 17l24 -34q-24 -25 -61 -47t-92 -22zM391 590q-50 0 -85 28t-35 81t35 81t85 28t85 -28t35 -81t-35 -81t-85 -28zM391 645
q24 0 41.5 12.5t17.5 41.5t-17.5 41.5t-41.5 12.5t-41.5 -12.5t-17.5 -41.5t17.5 -41.5t41.5 -12.5z" />
    <glyph glyph-name="Uhungarumlaut" unicode="&#x170;" horiz-adv-x="747" 
d="M341 -10q-117 0 -179.5 45.5t-62.5 127.5q0 16 3.5 44t7.5 45l73 341q6 27 6 34q0 22 -20 28t-52 6h-13l11 53h346l-11 -53h-13q-33 0 -60 -10.5t-35 -48.5l-76 -352q-4 -17 -8 -41.5t-4 -45.5q0 -102 123 -102q61 0 97 22.5t56 62.5t30 90l77 361q2 8 3 17t1 13
q0 22 -20 28t-52 6h-13l11 53h263l-11 -53h-13q-32 0 -59 -10.5t-35 -50.5l-80 -380q-24 -112 -94 -171t-197 -59zM530 771l3 13q28 32 56.5 71.5t50.5 75.5h127l-3 -10q-10 -13 -30.5 -33t-45 -42t-49.5 -41.5t-45 -33.5h-64zM340 771l3 13q28 32 56.5 71.5t50.5 75.5h127
l-3 -10q-10 -13 -30.5 -33t-45 -42t-49.5 -41.5t-45 -33.5h-64z" />
    <glyph glyph-name="uhungarumlaut" unicode="&#x171;" horiz-adv-x="673" 
d="M504 -10q-66 0 -91.5 28t-25.5 68q0 8 2 22.5t3 21.5h-8q-29 -41 -58 -72.5t-63.5 -49t-82.5 -17.5q-43 0 -68 15.5t-35.5 41t-10.5 54.5q0 25 6 55l11 55l36 176q4 20 6.5 37t2.5 25q0 20 -12 26.5t-41 6.5h-18l9 53h240l-66 -299q-5 -24 -11 -55.5t-6 -50.5
q0 -22 9.5 -35t33.5 -13q22 0 45 19.5t44.5 51.5t38 70.5t25.5 76.5l53 235h149l-68 -325q-6 -27 -10 -51t-4 -45q0 -45 35 -45q16 0 29 6t30 17l24 -34q-24 -25 -61 -47t-92 -22zM443 606l3 13q28 32 56.5 71.5t50.5 75.5h127l-3 -10q-10 -13 -30.5 -33t-45 -42
t-49.5 -41.5t-45 -33.5h-64zM253 606l3 13q28 32 56.5 71.5t50.5 75.5h127l-3 -10q-10 -13 -30.5 -33t-45 -42t-49.5 -41.5t-45 -33.5h-64z" />
    <glyph glyph-name="Uogonek" unicode="&#x172;" horiz-adv-x="747" 
d="M341 -10q-117 0 -179.5 45.5t-62.5 127.5q0 16 3.5 44t7.5 45l73 341q6 27 6 34q0 22 -20 28t-52 6h-13l11 53h346l-11 -53h-13q-33 0 -60 -10.5t-35 -48.5l-76 -352q-4 -17 -8 -41.5t-4 -45.5q0 -102 123 -102q61 0 97 22.5t56 62.5t30 90l77 361q2 8 3 17t1 13
q0 22 -20 28t-52 6h-13l11 53h263l-11 -53h-13q-32 0 -59 -10.5t-35 -50.5l-80 -380q-24 -112 -94 -171t-197 -59zM334 -240q-60 0 -94 26.5t-34 75.5q0 54 41.5 88.5t106.5 49.5h77q-23 -6 -51 -21.5t-48 -39t-20 -56.5q0 -23 16 -37t41 -14q14 0 30 2t35 6l-13 -64
q-40 -16 -87 -16z" />
    <glyph glyph-name="uogonek" unicode="&#x173;" horiz-adv-x="673" 
d="M504 -10q-66 0 -91.5 28t-25.5 68q0 8 2 22.5t3 21.5h-8q-29 -41 -58 -72.5t-63.5 -49t-82.5 -17.5q-43 0 -68 15.5t-35.5 41t-10.5 54.5q0 25 6 55l11 55l36 176q4 20 6.5 37t2.5 25q0 20 -12 26.5t-41 6.5h-18l9 53h240l-66 -299q-5 -24 -11 -55.5t-6 -50.5
q0 -22 9.5 -35t33.5 -13q22 0 45 19.5t44.5 51.5t38 70.5t25.5 76.5l53 235h149l-68 -325q-6 -27 -10 -51t-4 -45q0 -45 35 -45q16 0 29 6t30 17l24 -34q-24 -25 -61 -47t-92 -22zM470 -240q-60 0 -94 26.5t-34 75.5q0 54 41.5 88.5t106.5 49.5h77q-23 -6 -51 -21.5t-48 -39
t-20 -56.5q0 -23 16 -37t41 -14q14 0 30 2t35 6l-13 -64q-40 -16 -87 -16z" />
    <glyph glyph-name="Wcircumflex" unicode="&#x174;" horiz-adv-x="1067" 
d="M216 0l-54 613q-3 31 -20.5 39.5t-42.5 8.5h-13l11 53h327l-11 -53h-23q-32 0 -51 -8t-19 -32q0 -8 0.5 -19t1.5 -25l19 -249q2 -17 3.5 -48.5t3 -64t1.5 -54.5q11 29 24.5 59t28.5 59l223 428h73l57 -382q7 -47 12 -90.5t5 -75.5q11 34 32.5 85.5t43.5 99.5l111 239
q15 32 15 53q0 15 -13 20t-42 5h-23l10 53h261l-11 -53h-24q-29 0 -46.5 -14t-39.5 -59l-280 -588h-114l-69 477l-243 -477h-124zM474 771l3 13q20 19 45.5 44.5t51.5 52.5t45 50h135q9 -20 22.5 -47.5t29 -54t26.5 -45.5l-3 -13h-63q-17 17 -44 43.5t-45 46.5
q-18 -13 -41 -30t-45 -33t-39 -27h-78z" />
    <glyph glyph-name="wcircumflex" unicode="&#x175;" horiz-adv-x="875" 
d="M468 -10q0 46 -0.5 103t-2 114t-3 106.5t-3.5 80.5q-39 -92 -89.5 -192.5t-116.5 -198.5l-131 -9l-10 416q-1 46 -20.5 59.5t-48.5 13.5h-6l16 53h193q4 -68 6.5 -132.5t4 -132t1.5 -146.5h7q50 79 99.5 185.5t92.5 216.5l122 4q3 -30 6.5 -75t6.5 -96.5t5 -101t3.5 -89
t1.5 -59.5h7q59 72 91 126.5t45 96t13 74.5q0 30 -15.5 47t-34.5 21q3 38 24.5 54.5t49.5 16.5q33 0 51.5 -22t18.5 -63q0 -52 -22 -109.5t-59 -117.5t-84 -119t-97 -114zM331 606l3 13q20 19 45.5 44.5t51.5 52.5t45 50h135q9 -20 22.5 -47.5t29 -54t26.5 -45.5l-3 -13h-63
q-17 17 -44 43.5t-45 46.5q-18 -13 -41 -30t-45 -33t-39 -27h-78z" />
    <glyph glyph-name="Ycircumflex" unicode="&#x176;" horiz-adv-x="693" 
d="M111 0l11 53h27q32 0 57.5 11t33.5 50l29 139l-108 355q-9 29 -20 41t-40 12h-13l11 53h325l-11 -53h-45q-42 0 -42 -29q0 -20 12 -65l36 -141q8 -29 15 -64.5t8 -60.5q9 20 28.5 50.5t44.5 67.5l99 141q12 17 21 37.5t9 36.5q0 14 -14 20.5t-47 6.5h-21l12 53h262
l-11 -53h-19q-22 0 -39.5 -13.5t-45.5 -51.5l-248 -344l-30 -142q-1 -5 -2.5 -12t-1.5 -11q0 -22 21 -28t52 -6h24l-11 -53h-369zM271 771l3 13q20 19 45.5 44.5t51.5 52.5t45 50h135q9 -20 22.5 -47.5t29 -54t26.5 -45.5l-3 -13h-63q-17 17 -44 43.5t-45 46.5
q-18 -13 -41 -30t-45 -33t-39 -27h-78z" />
    <glyph glyph-name="ycircumflex" unicode="&#x177;" horiz-adv-x="586" 
d="M-64 -240q-28 0 -55.5 5t-48.5 13l15 56q12 -4 33 -8.5t52 -4.5q61 0 109 21t87.5 55.5t74.5 76.5l-125 456q-8 30 -24 41.5t-45 11.5h-10l12 53h196l66 -259q7 -26 14 -62.5t12.5 -69.5t6.5 -50h3q40 54 72.5 107.5t52.5 102t20 86.5q0 34 -16.5 51.5t-45.5 17.5
q0 39 23 62.5t57 23.5q41 0 61.5 -22.5t20.5 -62.5q0 -78 -50.5 -175t-138.5 -219q-54 -76 -99.5 -133.5t-92.5 -96t-103.5 -58t-133.5 -19.5zM150 606l3 13q20 19 45.5 44.5t51.5 52.5t45 50h135q9 -20 22.5 -47.5t29 -54t26.5 -45.5l-3 -13h-63q-17 17 -44 43.5t-45 46.5
q-18 -13 -41 -30t-45 -33t-39 -27h-78z" />
    <glyph glyph-name="Ydieresis" unicode="&#x178;" horiz-adv-x="693" 
d="M111 0l11 53h27q32 0 57.5 11t33.5 50l29 139l-108 355q-9 29 -20 41t-40 12h-13l11 53h325l-11 -53h-45q-42 0 -42 -29q0 -20 12 -65l36 -141q8 -29 15 -64.5t8 -60.5q9 20 28.5 50.5t44.5 67.5l99 141q12 17 21 37.5t9 36.5q0 14 -14 20.5t-47 6.5h-21l12 53h262
l-11 -53h-19q-22 0 -39.5 -13.5t-45.5 -51.5l-248 -344l-30 -142q-1 -5 -2.5 -12t-1.5 -11q0 -22 21 -28t52 -6h24l-11 -53h-369zM605 787q-28 0 -45 15.5t-17 46.5q0 35 18 57t49 22q27 0 44.5 -15t17.5 -47q0 -44 -21.5 -61.5t-45.5 -17.5zM382 787q-28 0 -45 15.5
t-17 46.5q0 35 18 57t49 22q27 0 44.5 -15t17.5 -47q0 -44 -21.5 -61.5t-45.5 -17.5z" />
    <glyph glyph-name="Zacute" unicode="&#x179;" horiz-adv-x="666" 
d="M-2 0l9 50l493 603h-174q-45 0 -72.5 -20.5t-40.5 -66.5l-17 -58h-72l49 206h532l-10 -51l-494 -602h206q46 0 79.5 24.5t51.5 84.5l11 36h72l-48 -206h-575zM373 771l3 13q19 19 40.5 45t42.5 53t36 49h157l-3 -10q-12 -13 -35.5 -33t-53.5 -42t-61 -41.5t-58 -33.5h-68
z" />
    <glyph glyph-name="zacute" unicode="&#x17a;" horiz-adv-x="558" 
d="M0 0l11 51l334 417h-127q-40 0 -58 -25t-37 -65l-2 -4h-61l44 162h429l-11 -52l-335 -416h162q23 0 39 13.5t27 34.5t20 42l10 23h58l-43 -181h-460zM263 606l3 13q19 19 40.5 45t42.5 53t36 49h157l-3 -10q-12 -13 -35.5 -33t-53.5 -42t-61 -41.5t-58 -33.5h-68z" />
    <glyph glyph-name="Zdotaccent" unicode="&#x17b;" horiz-adv-x="666" 
d="M-2 0l9 50l493 603h-174q-45 0 -72.5 -20.5t-40.5 -66.5l-17 -58h-72l49 206h532l-10 -51l-494 -602h206q46 0 79.5 24.5t51.5 84.5l11 36h72l-48 -206h-575zM446 791q-33 0 -55.5 15.5t-22.5 46.5q0 44 28 63t65 19q32 0 56 -14.5t24 -48.5q0 -41 -29.5 -61t-65.5 -20z
" />
    <glyph glyph-name="zdotaccent" unicode="&#x17c;" horiz-adv-x="558" 
d="M0 0l11 51l334 417h-127q-40 0 -58 -25t-37 -65l-2 -4h-61l44 162h429l-11 -52l-335 -416h162q23 0 39 13.5t27 34.5t20 42l10 23h58l-43 -181h-460zM334 626q-33 0 -55.5 15.5t-22.5 46.5q0 44 28 63t65 19q32 0 56 -14.5t24 -48.5q0 -41 -29.5 -61t-65.5 -20z" />
    <glyph glyph-name="Zcaron" unicode="&#x17d;" horiz-adv-x="666" 
d="M-2 0l9 50l493 603h-174q-45 0 -72.5 -20.5t-40.5 -66.5l-17 -58h-72l49 206h532l-10 -51l-494 -602h206q46 0 79.5 24.5t51.5 84.5l11 36h72l-48 -206h-575zM374 771q-8 21 -22.5 48t-29 53.5t-26.5 45.5l3 13h63q17 -16 44 -43t45 -47q18 14 41 30.5t45.5 32.5t38.5 27
h78l-3 -13q-19 -19 -45 -44.5t-52 -52t-45 -50.5h-135z" />
    <glyph glyph-name="zcaron" unicode="&#x17e;" horiz-adv-x="558" 
d="M0 0l11 51l334 417h-127q-40 0 -58 -25t-37 -65l-2 -4h-61l44 162h429l-11 -52l-335 -416h162q23 0 39 13.5t27 34.5t20 42l10 23h58l-43 -181h-460zM258 606q-8 21 -22.5 48t-29 53.5t-26.5 45.5l3 13h63q17 -16 44 -43t45 -47q18 14 41 30.5t45.5 32.5t38.5 27h78
l-3 -13q-19 -19 -45 -44.5t-52 -52t-45 -50.5h-135z" />
    <glyph glyph-name="longs" unicode="&#x17f;" horiz-adv-x="404" 
d="M-78 -240q-15 0 -33 2.5t-28 5.5l12 58q8 -2 21.5 -4.5t24.5 -2.5q33 0 55.5 15.5t39.5 53t31 103.5l124 582q21 100 78.5 148.5t158.5 48.5q77 0 117 -25t40 -62q0 -33 -29.5 -51.5t-85.5 -18.5q0 38 -9.5 68t-36.5 30q-31 0 -47.5 -27.5t-28.5 -83.5l-123 -579
q-17 -80 -47.5 -131t-69.5 -79.5t-81 -39.5t-83 -11z" />
    <glyph glyph-name="florin" unicode="&#x192;" horiz-adv-x="499" 
d="M95 -12q-70 0 -106 25t-36 62q0 33 25.5 51.5t74.5 18.5q0 -38 9.5 -68t36.5 -30q34 0 50 33.5t33 112.5l59 275h-91l10 47l96 21l8 37q23 99 79.5 148t157.5 49q77 0 117 -25t40 -62q0 -33 -29.5 -51.5t-85.5 -18.5q0 38 -9.5 68t-36.5 30q-31 0 -48 -27.5t-28 -83.5
l-13 -64h126l-14 -68h-127l-53 -248q-26 -124 -84 -178t-161 -54z" />
    <glyph glyph-name="Aringacute" unicode="&#x1fa;" horiz-adv-x="753" 
d="M417 830l3 13q19 19 40.5 45t42.5 53t36 49h157l-3 -10q-12 -13 -35.5 -33t-53.5 -42t-61 -41.5t-58 -33.5h-68zM-49 0l11 53h21q19 0 31.5 6.5t25.5 23.5t32 48l306 481q-38 29 -38 84q0 53 35 81t85 28t85 -28t35 -81q0 -29 -11 -50.5t-29 -35.5l92 -485
q5 -31 17.5 -51.5t43.5 -20.5h18l-11 -53h-330l11 53h23q32 0 51 10t19 32q0 8 -0.5 16.5t-1.5 15.5l-13 84h-254l-40 -66q-10 -17 -14.5 -31t-4.5 -25q0 -36 56 -36h20l-11 -53h-260zM465 642q23 0 38.5 13t15.5 41q0 29 -17.5 41.5t-41.5 12.5t-41.5 -12.5t-17.5 -41.5
q0 -30 17 -42t47 -12zM243 272h209l-21 132q-7 44 -11.5 83.5t-5.5 75.5q-16 -34 -34 -66.5t-47 -78.5z" />
    <glyph glyph-name="aringacute" unicode="&#x1fb;" horiz-adv-x="665" 
d="M183 -10q-47 0 -79 24t-48 65.5t-16 93.5q0 47 13 98.5t39 100t64 88t87.5 63t110.5 23.5q39 0 79 -11t62 -24l53 24h53l-66 -312q-2 -11 -6.5 -31t-7.5 -40.5t-3 -33.5q0 -25 9.5 -37t25.5 -12q14 0 27 6t29 15l22 -40q-25 -19 -64.5 -39.5t-93.5 -20.5q-44 0 -71 20.5
t-27 59.5q0 29 7 65h-7q-24 -46 -50 -78.5t-59.5 -49.5t-82.5 -17zM246 70q22 0 45 18.5t44 50t37.5 70.5t24.5 79l35 166q-10 14 -27 21t-37 7q-35 0 -63 -21t-49 -56t-35.5 -76t-21.5 -82.5t-7 -74.5q0 -58 15.5 -80t38.5 -22zM392 586q-50 0 -85 28t-35 81t35 81t85 28
t85 -28t35 -81t-35 -81t-85 -28zM392 641q24 0 41.5 12.5t17.5 41.5t-17.5 41.5t-41.5 12.5t-41.5 -12.5t-17.5 -41.5t17.5 -41.5t41.5 -12.5zM363 830l3 13q19 19 40.5 45t42.5 53t36 49h157l-3 -10q-12 -13 -35.5 -33t-53.5 -42t-61 -41.5t-58 -33.5h-68z" />
    <glyph glyph-name="AEacute" unicode="&#x1fc;" horiz-adv-x="993" 
d="M-44 0l11 53h12q26 0 50 19t54 59l393 525l-65 5l11 53h595l-35 -186h-71q1 5 2 18t2 25.5t1 14.5q0 28 -16 47.5t-55 19.5h-133l-53 -250h227l-13 -60h-227l-60 -282h158q47 0 74 24.5t39 57.5l16 43h71l-46 -186h-574l11 53h13q32 0 58 10.5t34 49.5l24 116h-228
l-59 -84q-15 -21 -21.5 -37.5t-6.5 -24.5q0 -30 53 -30h17l-11 -53h-252zM281 289h196l77 364h-15q-32 -46 -64 -92.5t-66 -93.5zM654 771l3 13q19 19 40.5 45t42.5 53t36 49h157l-3 -10q-12 -13 -35.5 -33t-53.5 -42t-61 -41.5t-58 -33.5h-68z" />
    <glyph glyph-name="aeacute" unicode="&#x1fd;" horiz-adv-x="880" 
d="M183 -10q-47 0 -79 24t-48 65.5t-16 93.5q0 47 13 98.5t39 100t64 88t87.5 63t110.5 23.5q50 0 91 -15.5t75 -45.5q39 30 88.5 46.5t110.5 16.5q75 0 115.5 -31t40.5 -87q0 -54 -38.5 -100.5t-106 -75.5t-153.5 -29h-37q-1 -10 -1.5 -20t-0.5 -18q0 -58 27 -89.5
t82 -31.5q49 0 87 25.5t59 55.5q13 -16 13 -43q0 -24 -21 -50.5t-64.5 -45t-112.5 -18.5q-182 0 -220 145h-9q-37 -70 -79.5 -107.5t-116.5 -37.5zM547 282h9q50 0 89.5 17.5t62.5 49.5t23 74q0 31 -13 48t-36 17q-32 0 -60 -31.5t-47.5 -79t-27.5 -95.5zM246 70q25 0 51 23
t49 61t38 82q10 52 28 104.5t49 93.5q-10 14 -36.5 31t-56.5 17q-35 0 -63 -21t-49 -56t-35.5 -76t-21.5 -82.5t-7 -74.5q0 -58 15.5 -80t38.5 -22zM456 606l3 13q19 19 40.5 45t42.5 53t36 49h157l-3 -10q-12 -13 -35.5 -33t-53.5 -42t-61 -41.5t-58 -33.5h-68z" />
    <glyph glyph-name="Oslashacute" unicode="&#x1fe;" horiz-adv-x="792" 
d="M83 -40l69 92q-41 35 -65 88.5t-24 125.5q0 58 17 121t51.5 123t85.5 108.5t119 77.5t153 29q39 0 75.5 -8t68.5 -24l47 62h70l-70 -94q39 -33 62 -85.5t23 -125.5q0 -55 -16.5 -118t-50 -123.5t-84 -110.5t-118.5 -79.5t-154 -29.5q-80 0 -143 32l-45 -61h-71zM226 242
q0 -45 9 -79l335 445q-18 27 -44.5 39.5t-57.5 12.5q-50 0 -89 -28t-68 -74t-47.5 -101.5t-28 -111.5t-9.5 -103zM362 55q50 0 89 28t67.5 74t47.5 101.5t28 111.5t9 103q0 42 -8 75l-333 -444q18 -25 44 -37t56 -12zM427 771l3 13q19 19 40.5 45t42.5 53t36 49h157l-3 -10
q-12 -13 -35.5 -33t-53.5 -42t-61 -41.5t-58 -33.5h-68z" />
    <glyph glyph-name="oslashacute" unicode="&#x1ff;" horiz-adv-x="618" 
d="M13 -50l79 99q-25 26 -38.5 64t-13.5 87q0 56 20 116.5t60 112.5t102 84.5t146 32.5q58 0 103 -20l48 60h75l-74 -93q26 -26 41.5 -64.5t15.5 -92.5t-19 -114t-58.5 -113t-101 -86t-146.5 -33q-65 0 -112 24l-51 -64h-76zM349 479q-38 0 -67.5 -31t-49 -78.5t-29.5 -99.5
t-10 -94l216 271q-19 32 -60 32zM270 62q32 0 57 21t43.5 56t30.5 76t18 81t6 72v5l-218 -274q19 -37 63 -37zM326 606l3 13q19 19 40.5 45t42.5 53t36 49h157l-3 -10q-12 -13 -35.5 -33t-53.5 -42t-61 -41.5t-58 -33.5h-68z" />
    <glyph glyph-name="uni0218" unicode="&#x218;" horiz-adv-x="586" 
d="M261 -10q-124 0 -185.5 42t-61.5 104q0 47 36.5 70.5t93.5 23.5q0 -91 37 -135t96 -44q56 0 87.5 30t31.5 73q0 28 -10 50t-36.5 44.5t-76.5 49.5q-78 43 -118 93t-40 129q0 60 32 106t90 72t137 26q111 0 166 -32.5t55 -79.5q0 -40 -30.5 -63.5t-100.5 -23.5
q0 30 -8.5 62t-30 54t-60.5 22q-26 0 -51.5 -11t-42 -34t-16.5 -58t14.5 -57.5t44.5 -41.5t74 -44q76 -40 112 -90t36 -114q0 -106 -74.5 -164.5t-200.5 -58.5zM111 -221l3 13q17 35 33 73t28 74h126l-3 -10q-20 -31 -56 -73.5t-71 -76.5h-60z" />
    <glyph glyph-name="uni0219" unicode="&#x219;" horiz-adv-x="514" 
d="M206 -10q-85 0 -137 29t-52 81q0 31 15.5 49.5t40.5 27t51 8.5q0 -35 9.5 -66t31.5 -50t58 -19q41 0 68.5 19.5t27.5 55.5q0 35 -27 55t-86 48q-58 28 -93 64.5t-35 94.5q0 74 60.5 116.5t165.5 42.5q68 0 108 -13.5t57.5 -34.5t17.5 -46q0 -40 -31 -58t-84 -18
q0 27 -7.5 53t-24 43.5t-45.5 17.5q-39 0 -61.5 -20.5t-22.5 -49.5q0 -33 27.5 -52t85.5 -45q65 -29 95 -66t30 -93q0 -81 -61.5 -127.5t-181.5 -46.5zM75 -221l3 13q17 35 33 73t28 74h126l-3 -10q-20 -31 -56 -73.5t-71 -76.5h-60z" />
    <glyph glyph-name="circumflex" unicode="&#x2c6;" horiz-adv-x="435" 
d="M112 606l3 13q20 19 45.5 44.5t51.5 52.5t45 50h135q9 -20 22.5 -47.5t29 -54t26.5 -45.5l-3 -13h-63q-17 17 -44 43.5t-45 46.5q-18 -13 -41 -30t-45 -33t-39 -27h-78z" />
    <glyph glyph-name="caron" unicode="&#x2c7;" horiz-adv-x="435" 
d="M221 606q-8 21 -22.5 48t-29 53.5t-26.5 45.5l3 13h63q17 -16 44 -43t45 -47q18 14 41 30.5t45.5 32.5t38.5 27h78l-3 -13q-19 -19 -45 -44.5t-52 -52t-45 -50.5h-135z" />
    <glyph glyph-name="macron" unicode="&#x2c9;" horiz-adv-x="370" 
d="M112 606l17 79h290l-17 -79h-290z" />
    <glyph glyph-name="breve" unicode="&#x2d8;" horiz-adv-x="397" 
d="M284 606q-66 0 -100 43.5t-39 113.5h66q4 -34 26.5 -51t57.5 -17q36 0 63 16t42 52h62q-10 -38 -33.5 -74.5t-60 -59.5t-84.5 -23z" />
    <glyph glyph-name="dotaccent" unicode="&#x2d9;" horiz-adv-x="254" 
d="M210 626q-33 0 -55.5 15.5t-22.5 46.5q0 44 28 63t65 19q32 0 56 -14.5t24 -48.5q0 -41 -29.5 -61t-65.5 -20z" />
    <glyph glyph-name="ring" unicode="&#x2da;" horiz-adv-x="326" 
d="M255 590q-50 0 -85 28t-35 81t35 81t85 28t85 -28t35 -81t-35 -81t-85 -28zM255 645q24 0 41.5 12.5t17.5 41.5t-17.5 41.5t-41.5 12.5t-41.5 -12.5t-17.5 -41.5t17.5 -41.5t41.5 -12.5z" />
    <glyph glyph-name="ogonek" unicode="&#x2db;" horiz-adv-x="316" 
d="M84 -240q-60 0 -94 26.5t-34 75.5q0 54 41.5 88.5t106.5 49.5h77q-23 -6 -51 -21.5t-48 -39t-20 -56.5q0 -23 16 -37t41 -14q14 0 30 2t35 6l-13 -64q-40 -16 -87 -16z" />
    <glyph glyph-name="tilde" unicode="&#x2dc;" horiz-adv-x="450" 
d="M383 606q-27 0 -48.5 9.5t-39.5 22t-34 22t-32 9.5q-21 0 -36 -16.5t-19 -36.5h-60q6 31 24.5 65t46.5 58.5t64 24.5q27 0 47.5 -9.5t38 -22t32.5 -22t31 -9.5q26 0 38 16.5t17 36.5h60q-7 -32 -24 -66.5t-43.5 -58t-62.5 -23.5z" />
    <glyph glyph-name="hungarumlaut" unicode="&#x2dd;" horiz-adv-x="473" 
d="M302 606l3 13q28 32 56.5 71.5t50.5 75.5h127l-3 -10q-10 -13 -30.5 -33t-45 -42t-49.5 -41.5t-45 -33.5h-64zM112 606l3 13q28 32 56.5 71.5t50.5 75.5h127l-3 -10q-10 -13 -30.5 -33t-45 -42t-49.5 -41.5t-45 -33.5h-64z" />
    <glyph glyph-name="tonos" unicode="&#x384;" horiz-adv-x="577" 
d="M212 606l3 15q13 24 28 55t29 62.5t24 57.5h136l-3 -12q-14 -25 -39 -56.5t-53.5 -63.5t-54.5 -58h-70z" />
    <glyph glyph-name="dieresistonos" unicode="&#x385;" horiz-adv-x="577" 
d="M335 688l2 13q14 30 32 72t28 75h116l-2 -10q-12 -21 -32 -48t-42 -53.5t-42 -48.5h-60zM251 625q-25 0 -40 13.5t-15 41.5q0 32 16 51t44 19q24 0 39.5 -13.5t15.5 -41.5q0 -39 -19 -54.5t-41 -15.5zM505 625q-25 0 -40 13.5t-15 41.5q0 32 16 51t44 19q24 0 39.5 -13.5
t15.5 -41.5q0 -39 -19 -54.5t-41 -15.5z" />
    <glyph glyph-name="Alphatonos" unicode="&#x386;" horiz-adv-x="753" 
d="M-49 0l11 53h21q19 0 31.5 6.5t26 23.5t31.5 48l339 583h137l84 -589q5 -31 17.5 -51.5t43.5 -20.5h18l-11 -53h-330l11 53h23q32 0 51 10t19 32q0 8 -0.5 16.5t-1.5 15.5l-13 108h-244l-50 -90q-19 -35 -19 -56q0 -36 56 -36h20l-11 -53h-260zM347 473l-98 -177h203
l-20 168q-4 44 -8 78.5t-5 70.5q-10 -24 -20 -44t-22 -42.5t-30 -53.5zM89 524l3 15q13 24 28 55t29 62.5t24 57.5h136l-3 -12q-14 -25 -39 -56.5t-53.5 -63.5t-54.5 -58h-70z" />
    <glyph glyph-name="anoteleia" unicode="&#x387;" horiz-adv-x="304" 
d="M190 378q-36 0 -58.5 17.5t-22.5 54.5q0 41 23.5 65.5t63.5 24.5q35 0 58 -17.5t23 -54.5q0 -50 -27.5 -70t-59.5 -20z" />
    <glyph glyph-name="Epsilontonos" unicode="&#x388;" horiz-adv-x="823" 
d="M167 0l11 53h13q32 0 58 10.5t34 49.5l104 491q4 14 4 23q0 22 -20 28t-52 6h-13l11 53h543l-35 -186h-71q1 5 2 18t2 25.5t1 14.5q0 28 -16 47.5t-55 19.5h-133l-53 -250h227l-13 -60h-227l-60 -282h158q47 0 74 24.5t39 57.5l16 43h71l-46 -186h-574zM55 524l3 15
q13 24 28 55t29 62.5t24 57.5h136l-3 -12q-14 -25 -39 -56.5t-53.5 -63.5t-54.5 -58h-70z" />
    <glyph glyph-name="Etatonos" unicode="&#x389;" horiz-adv-x="1015" 
d="M173 0l11 53h13q32 0 58 10.5t34 49.5l102 480q6 27 6 34q0 18 -14 26t-58 8h-13l11 53h345l-11 -53h-13q-33 0 -60 -10.5t-35 -50.5l-41 -197h261l42 194q5 23 5 30q0 17 -15 25.5t-58 8.5h-13l11 53h345l-11 -53h-13q-32 0 -59 -10.5t-35 -50.5l-103 -490
q-4 -14 -4 -23q0 -16 15 -25t57 -9h13l-11 -53h-345l11 53h13q32 0 59 10.5t35 50.5l48 228h-261l-49 -232q-4 -14 -4 -23q0 -19 16.5 -26.5t56.5 -7.5h13l-11 -53h-344zM55 524l3 15q13 24 28 55t29 62.5t24 57.5h136l-3 -12q-14 -25 -39 -56.5t-53.5 -63.5t-54.5 -58h-70z
" />
    <glyph glyph-name="Iotatonos" unicode="&#x38a;" horiz-adv-x="593" 
d="M169 0l11 53h13q32 0 58 10.5t34 49.5l104 484q2 10 3 18t1 12q0 22 -20 28t-52 6h-13l11 53h345l-11 -53h-13q-33 0 -60 -10.5t-35 -50.5l-103 -490q-1 -5 -2.5 -12t-1.5 -11q0 -22 21 -28t52 -6h13l-11 -53h-344zM55 524l3 15q13 24 28 55t29 62.5t24 57.5h136l-3 -12
q-14 -25 -39 -56.5t-53.5 -63.5t-54.5 -58h-70z" />
    <glyph glyph-name="Omicrontonos" unicode="&#x38c;" horiz-adv-x="878" 
d="M428 -11q-79 0 -142 31.5t-100 93.5t-37 152q0 58 17 121t51.5 123t85.5 108.5t119 77.5t153 29q74 0 136.5 -29t101 -89.5t38.5 -156.5q0 -55 -16.5 -118t-50 -123.5t-84 -110.5t-118.5 -79.5t-154 -29.5zM448 55q50 0 89 28t67.5 74t47.5 101.5t28 111.5t9 103
q0 98 -38 142.5t-97 44.5q-50 0 -89 -28t-68 -74t-47.5 -101.5t-28 -111.5t-9.5 -103q0 -98 39.5 -142.5t96.5 -44.5zM55 524l3 15q13 24 28 55t29 62.5t24 57.5h136l-3 -12q-14 -25 -39 -56.5t-53.5 -63.5t-54.5 -58h-70z" />
    <glyph glyph-name="Upsilontonos" unicode="&#x38e;" horiz-adv-x="903" 
d="M321 0l11 53h27q32 0 57.5 11t33.5 50l29 139l-108 355q-9 29 -20 41t-40 12h-13l11 53h325l-11 -53h-45q-42 0 -42 -29q0 -20 12 -65l36 -141q8 -29 15 -64.5t8 -60.5q9 20 28.5 50.5t44.5 67.5l99 141q12 17 21 37.5t9 36.5q0 14 -14 20.5t-47 6.5h-21l12 53h262
l-11 -53h-19q-22 0 -39.5 -13.5t-45.5 -51.5l-248 -344l-30 -142q-1 -5 -2.5 -12t-1.5 -11q0 -22 21 -28t52 -6h24l-11 -53h-369zM55 524l3 15q13 24 28 55t29 62.5t24 57.5h136l-3 -12q-14 -25 -39 -56.5t-53.5 -63.5t-54.5 -58h-70z" />
    <glyph glyph-name="Omegatonos" unicode="&#x38f;" horiz-adv-x="914" 
d="M112 0l16 200h54l2 -31q2 -33 19.5 -48.5t73.5 -15.5h102l15 87q-90 17 -140.5 74.5t-50.5 139.5q0 33 11.5 75t38 85t72.5 79t114.5 58t163.5 22q135 0 212 -58.5t77 -160.5q0 -77 -32.5 -142.5t-98 -111t-163.5 -61.5l-23 -84h97q50 0 74.5 14.5t38.5 47.5l15 33h53
l-41 -202h-322l59 241q50 6 84 34t54.5 67.5t29.5 83t9 80.5q0 69 -35 111.5t-111 42.5q-62 0 -102.5 -27t-63.5 -70.5t-32.5 -93t-9.5 -94.5q0 -52 24 -88.5t67 -45.5l-45 -241h-306zM55 524l3 15q13 24 28 55t29 62.5t24 57.5h136l-3 -12q-14 -25 -39 -56.5t-53.5 -63.5
t-54.5 -58h-70z" />
    <glyph glyph-name="iotadieresistonos" unicode="&#x390;" horiz-adv-x="377" 
d="M187 -10q-55 0 -92.5 29t-37.5 88q0 18 3.5 42.5t8.5 49.5l75 337h153l-75 -333q-7 -28 -9.5 -47.5t-2.5 -33.5q0 -25 14 -37.5t36 -12.5q23 0 42.5 8t35.5 18l23 -38q-33 -28 -74.5 -49t-99.5 -21zM243 688l2 13q14 30 32 72t28 75h116l-2 -10q-12 -21 -32 -48
t-42 -53.5t-42 -48.5h-60zM159 625q-25 0 -40 13.5t-15 41.5q0 32 16 51t44 19q24 0 39.5 -13.5t15.5 -41.5q0 -39 -19 -54.5t-41 -15.5zM413 625q-25 0 -40 13.5t-15 41.5q0 32 16 51t44 19q24 0 39.5 -13.5t15.5 -41.5q0 -39 -19 -54.5t-41 -15.5z" />
    <glyph glyph-name="Alpha" unicode="&#x391;" horiz-adv-x="753" 
d="M-49 0l11 53h21q19 0 31.5 6.5t26 23.5t31.5 48l339 583h137l84 -589q5 -31 17.5 -51.5t43.5 -20.5h18l-11 -53h-330l11 53h23q32 0 51 10t19 32q0 8 -0.5 16.5t-1.5 15.5l-13 108h-244l-50 -90q-19 -35 -19 -56q0 -36 56 -36h20l-11 -53h-260zM347 473l-98 -177h203
l-20 168q-4 44 -8 78.5t-5 70.5q-10 -24 -20 -44t-22 -42.5t-30 -53.5z" />
    <glyph glyph-name="Beta" unicode="&#x392;" horiz-adv-x="672" 
d="M-23 0l11 53h13q32 0 58 10.5t34 49.5l97 456q4 19 6.5 31.5t2.5 23.5q0 22 -19.5 29.5t-50.5 7.5h-13l11 53h310q116 0 175 -38t59 -112q0 -55 -21.5 -92.5t-58.5 -60t-83 -33.5l-1 -4q54 -10 88 -46.5t34 -99.5q0 -109 -73 -168.5t-215 -59.5h-364zM312 405h56
q71 0 102.5 37t31.5 105q0 106 -94 106h-44zM239 61h69q85 0 120.5 44.5t35.5 129.5q0 108 -102 108h-63z" />
    <glyph glyph-name="Gamma" unicode="&#x393;" horiz-adv-x="591" 
d="M-23 0l11 53h13q32 0 58 10.5t34 49.5l104 491q4 14 4 23q0 22 -20 28t-52 6h-13l10 53h546l-34 -196h-66q-1 12 -1 24t-1 24q-2 44 -18.5 65.5t-57.5 21.5h-130l-109 -516q-9 -40 -9 -50q0 -22 21 -28t52 -6h33l-11 -53h-364z" />
    <glyph glyph-name="uni0394" unicode="&#x394;" horiz-adv-x="700" 
d="M-4 0l13 65l371 649h143l89 -642l-15 -72h-601zM101 79h358l-49 376q-5 44 -9 86t-5 78q-15 -36 -34.5 -72t-45.5 -83z" />
    <glyph glyph-name="Epsilon" unicode="&#x395;" horiz-adv-x="633" 
d="M-23 0l11 53h13q32 0 58 10.5t34 49.5l104 491q4 14 4 23q0 22 -20 28t-52 6h-13l11 53h543l-35 -186h-71q1 5 2 18t2 25.5t1 14.5q0 28 -16 47.5t-55 19.5h-133l-53 -250h227l-13 -60h-227l-60 -282h158q47 0 74 24.5t39 57.5l16 43h71l-46 -186h-574z" />
    <glyph glyph-name="Zeta" unicode="&#x396;" horiz-adv-x="666" 
d="M-2 0l9 50l493 603h-174q-45 0 -72.5 -20.5t-40.5 -66.5l-17 -58h-72l49 206h532l-10 -51l-494 -602h206q46 0 79.5 24.5t51.5 84.5l11 36h72l-48 -206h-575z" />
    <glyph glyph-name="Eta" unicode="&#x397;" horiz-adv-x="819" 
d="M-23 0l11 53h13q32 0 58 10.5t34 49.5l102 480q6 27 6 34q0 18 -14 26t-58 8h-13l11 53h345l-11 -53h-13q-33 0 -60 -10.5t-35 -50.5l-41 -197h261l42 194q5 23 5 30q0 17 -15 25.5t-58 8.5h-13l11 53h345l-11 -53h-13q-32 0 -59 -10.5t-35 -50.5l-103 -490
q-4 -14 -4 -23q0 -16 15 -25t57 -9h13l-11 -53h-345l11 53h13q32 0 59 10.5t35 50.5l48 228h-261l-49 -232q-4 -14 -4 -23q0 -19 16.5 -26.5t56.5 -7.5h13l-11 -53h-344z" />
    <glyph glyph-name="Theta" unicode="&#x398;" horiz-adv-x="792" 
d="M342 -11q-79 0 -142 31.5t-100 93.5t-37 152q0 58 17 121t51.5 123t85.5 108.5t119 77.5t153 29q74 0 136.5 -29t101 -89.5t38.5 -156.5q0 -55 -16.5 -118t-50 -123.5t-84 -110.5t-118.5 -79.5t-154 -29.5zM362 55q50 0 89 28t67.5 74t47.5 101.5t28 111.5t9 103
q0 98 -38 142.5t-97 44.5q-50 0 -89 -28t-68 -74t-47.5 -101.5t-28 -111.5t-9.5 -103q0 -98 39.5 -142.5t96.5 -44.5zM263 274l42 191h52l1 -19q1 -14 4 -24.5t15.5 -16t42.5 -5.5h4q40 0 57.5 12.5t27.5 33.5l9 19h52l-42 -191h-52l-1 19q-1 21 -12.5 33.5t-51.5 12.5h-4
q-30 0 -45 -5.5t-22.5 -15.5t-15.5 -25l-9 -19h-52z" />
    <glyph glyph-name="Iota" unicode="&#x399;" horiz-adv-x="401" 
d="M-23 0l11 53h13q32 0 58 10.5t34 49.5l104 484q2 10 3 18t1 12q0 22 -20 28t-52 6h-13l11 53h345l-11 -53h-13q-33 0 -60 -10.5t-35 -50.5l-103 -490q-1 -5 -2.5 -12t-1.5 -11q0 -22 21 -28t52 -6h13l-11 -53h-344z" />
    <glyph glyph-name="Kappa" unicode="&#x39a;" horiz-adv-x="741" 
d="M-23 0l11 53h13q32 0 58 10.5t34 49.5l102 480q6 27 6 34q0 22 -20 28t-52 6h-13l11 53h345l-11 -53h-13q-33 0 -60 -10.5t-35 -50.5l-50 -237l203 179q41 36 54 58.5t13 35.5t-9.5 19.5t-34.5 6.5l11 52h270l-11 -52q-40 0 -76.5 -20t-84.5 -63l-162 -143l117 -281
q23 -56 42 -79t53 -23h3l-10 -53h-52q-66 0 -104 11.5t-60.5 41.5t-44.5 85l-74 191l-59 -42l-37 -177q-1 -5 -2.5 -12t-1.5 -11q0 -22 21 -28t52 -6h13l-11 -53h-344z" />
    <glyph glyph-name="Lambda" unicode="&#x39b;" horiz-adv-x="713" 
d="M-49 0l11 53h21q28 0 45.5 15t43.5 63l319 583h137l64 -589q4 -31 17 -51.5t44 -20.5h18l-11 -53h-330l11 53h23q32 0 51 10t19 32q0 8 -0.5 27.5t-2.5 35.5l-24 280q-4 44 -6 91.5t-2 83.5q-15 -36 -31 -71t-41 -83l-162 -314q-9 -18 -14 -31.5t-5 -24.5q0 -36 56 -36
h20l-11 -53h-260z" />
    <glyph glyph-name="Mu" unicode="&#x39c;" horiz-adv-x="952" 
d="M-23 0l11 53h13q32 0 58 10.5t34 49.5l102 480q6 27 6 34q0 22 -20 28t-52 6h-13l11 53h279l67 -486l262 486h289l-11 -53h-13q-32 0 -59 -10.5t-35 -50.5l-103 -490q-4 -14 -4 -23q0 -22 20.5 -28t51.5 -6h13l-11 -53h-341l11 53h13q32 0 59 10.5t35 50.5l106 501
l-331 -615h-69l-81 615l-106 -497q-2 -11 -3.5 -19t-1.5 -12q0 -22 21 -28t52 -6h3l-11 -53h-252z" />
    <glyph glyph-name="Nu" unicode="&#x39d;" horiz-adv-x="788" 
d="M-23 0l11 53h13q32 0 58 10.5t34 49.5l102 480q6 27 6 34q0 22 -20 28t-52 6h-13l11 53h222l244 -513l84 395q2 11 3.5 19t1.5 12q0 22 -20.5 28t-52.5 6h-3l11 53h252l-11 -53h-13q-31 0 -57.5 -10.5t-34.5 -49.5l-127 -601h-92l-271 566l-94 -448q-2 -11 -3.5 -19
t-1.5 -12q0 -22 21 -28t52 -6h3l-11 -53h-252z" />
    <glyph glyph-name="Xi" unicode="&#x39e;" horiz-adv-x="662" 
d="M130 499l50 215h497l-40 -215h-62v31q0 20 -4 37t-18 27t-44 10h-207q-45 0 -67 -22.5t-33 -52.5l-10 -30h-62zM187 269l40 191h52l1 -19q1 -14 4.5 -24.5t16.5 -16t43 -5.5h35q40 0 57 12.5t27 33.5l9 19h52l-40 -191h-52l-1 19q-1 21 -13 33.5t-52 12.5h-35
q-30 0 -45.5 -5.5t-23 -15.5t-14.5 -25l-9 -19h-52zM0 0l42 227h62q-1 -7 -1.5 -14.5t-1.5 -15.5q-2 -30 11 -52.5t58 -22.5h267q45 0 67 22.5t32 52.5l11 30h62l-53 -227h-556z" />
    <glyph glyph-name="Omicron" unicode="&#x39f;" horiz-adv-x="792" 
d="M342 -11q-79 0 -142 31.5t-100 93.5t-37 152q0 58 17 121t51.5 123t85.5 108.5t119 77.5t153 29q74 0 136.5 -29t101 -89.5t38.5 -156.5q0 -55 -16.5 -118t-50 -123.5t-84 -110.5t-118.5 -79.5t-154 -29.5zM362 55q50 0 89 28t67.5 74t47.5 101.5t28 111.5t9 103
q0 98 -38 142.5t-97 44.5q-50 0 -89 -28t-68 -74t-47.5 -101.5t-28 -111.5t-9.5 -103q0 -98 39.5 -142.5t96.5 -44.5z" />
    <glyph glyph-name="Pi" unicode="&#x3a0;" horiz-adv-x="808" 
d="M-23 0l11 53h13q32 0 58 10.5t34 49.5l102 480q6 27 6 34q0 22 -20 28t-52 6h-13l11 53h753l-11 -53h-13q-32 0 -59 -10.5t-35 -50.5l-103 -490q-4 -14 -4 -23q0 -22 20.5 -28t51.5 -6h13l-11 -53h-345l11 53h13q32 0 59 10.5t35 50.5l115 539h-251l-116 -543
q-4 -14 -4 -23q0 -22 21 -28t52 -6h13l-11 -53h-344z" />
    <glyph glyph-name="Rho" unicode="&#x3a1;" horiz-adv-x="663" 
d="M-23 0l11 53h13q32 0 58 10.5t34 49.5l102 480q6 27 6 34q0 22 -20 28t-52 6h-13l11 53h286q118 0 186.5 -49.5t68.5 -145.5q0 -38 -12 -81t-44.5 -80.5t-93 -61t-156.5 -23.5h-76l-36 -163q-4 -14 -4 -23q0 -22 21 -28t52 -6h33l-11 -53h-364zM298 331h42q61 0 97 24
t52 65.5t16 95.5q0 75 -32.5 107t-82.5 32h-22z" />
    <glyph glyph-name="Sigma" unicode="&#x3a3;" horiz-adv-x="635" 
d="M-22 0l17 80l252 266l-110 310l13 58h499l-34 -185h-62q2 14 3.5 27t2.5 26q4 33 -12 52t-61 19h-189l85 -246l-4 -16l-254 -269h289q47 0 73.5 27t40.5 68l10 30h62l-57 -247h-564z" />
    <glyph glyph-name="Tau" unicode="&#x3a4;" horiz-adv-x="653" 
d="M104 0l11 53h13q32 0 58 10.5t34 49.5l113 540h-80q-46 0 -68 -23t-36 -67l-14 -43h-67l46 194h622l-35 -194h-67q1 5 2.5 23t3.5 36t2 21q0 26 -16 39.5t-54 13.5h-80l-115 -543q-1 -5 -2.5 -12t-1.5 -11q0 -22 21 -28t52 -6h13l-11 -53h-344z" />
    <glyph glyph-name="Upsilon" unicode="&#x3a5;" horiz-adv-x="693" 
d="M111 0l11 53h27q32 0 57.5 11t33.5 50l29 139l-108 355q-9 29 -20 41t-40 12h-13l11 53h325l-11 -53h-45q-42 0 -42 -29q0 -20 12 -65l36 -141q8 -29 15 -64.5t8 -60.5q9 20 28.5 50.5t44.5 67.5l99 141q12 17 21 37.5t9 36.5q0 14 -14 20.5t-47 6.5h-21l12 53h262
l-11 -53h-19q-22 0 -39.5 -13.5t-45.5 -51.5l-248 -344l-30 -142q-1 -5 -2.5 -12t-1.5 -11q0 -22 21 -28t52 -6h24l-11 -53h-369z" />
    <glyph glyph-name="Phi" unicode="&#x3a6;" horiz-adv-x="850" 
d="M199 0l11 53h13q32 0 59 9t35 48l7 34h-23q-118 0 -186.5 49.5t-68.5 145.5q0 38 13.5 81t48 80.5t96.5 61t158 23.5h55l4 16q4 14 4 26q0 22 -20 28t-52 6h-13l11 53h333l-11 -53h-13q-33 0 -60 -10.5t-35 -50.5l-3 -15h23q118 0 186.5 -49.5t68.5 -145.5
q0 -38 -13.5 -81t-48 -80.5t-96.5 -61t-158 -23.5h-55l-7 -34q-1 -5 -2.5 -12t-1.5 -11q0 -22 21 -28t52 -6h13l-11 -53h-334zM324 203h12l69 324h-21q-91 0 -135.5 -52t-44.5 -133q0 -75 35 -107t85 -32zM481 202h21q91 0 135.5 52t44.5 133q0 75 -35 107t-85 32h-12z" />
    <glyph glyph-name="Chi" unicode="&#x3a7;" horiz-adv-x="732" 
d="M-42 0l11 53h10q30 0 54.5 16t63.5 56l221 228l-112 257q-15 34 -32 42.5t-46 8.5h-9l11 53h331l-11 -53h-23q-47 0 -47 -28q0 -18 18 -60l53 -124l118 126q14 14 24.5 31t10.5 30q0 25 -48 25h-3l11 53h233l-11 -53h-9q-29 0 -52 -15t-61 -56l-188 -198l123 -286
q14 -31 32 -42t37 -11h13l-11 -53h-330l11 53h15q57 0 57 35q0 14 -5 31.5t-14 37.5l-61 138l-140 -145q-18 -19 -29 -36t-11 -31t11 -22t44 -8h3l-11 -53h-252z" />
    <glyph glyph-name="Psi" unicode="&#x3a8;" horiz-adv-x="976" 
d="M267 0l11 53h13q32 0 59.5 9t34.5 48l26 128h-38q-90 0 -140 21t-70 57t-20 80q0 23 4.5 52.5t9.5 51.5l23 102q4 14 4 26q0 22 -15 27.5t-47 5.5h-13l11 53h228l-48 -228q-5 -25 -9 -51t-4 -44q0 -49 26 -72t89 -23h22l65 305q4 14 4 26q0 22 -20 28t-52 6h-13l11 53
h333l-11 -53h-13q-33 0 -60 -10.5t-35 -50.5l-63 -304h22q58 0 92.5 19t54.5 59.5t33 103.5l50 236h228l-11 -53q-34 0 -60 -12.5t-37 -59.5l-27 -124q-10 -45 -29.5 -85.5t-55.5 -72.5t-93 -50.5t-142 -18.5h-38l-25 -116q-6 -28 -6 -35q0 -22 21 -28t52 -6h13l-11 -53
h-334z" />
    <glyph glyph-name="uni03A9" unicode="&#x3a9;" horiz-adv-x="808" 
d="M6 0l16 200h54l2 -31q2 -33 19.5 -48.5t73.5 -15.5h102l15 87q-90 17 -140.5 74.5t-50.5 139.5q0 33 11.5 75t38 85t72.5 79t114.5 58t163.5 22q135 0 212 -58.5t77 -160.5q0 -77 -32.5 -142.5t-98 -111t-163.5 -61.5l-23 -84h97q50 0 74.5 14.5t38.5 47.5l15 33h53
l-41 -202h-322l59 241q50 6 84 34t54.5 67.5t29.5 83t9 80.5q0 69 -35 111.5t-111 42.5q-62 0 -102.5 -27t-63.5 -70.5t-32.5 -93t-9.5 -94.5q0 -52 24 -88.5t67 -45.5l-45 -241h-306z" />
    <glyph glyph-name="Iotadieresis" unicode="&#x3aa;" horiz-adv-x="401" 
d="M-23 0l11 53h13q32 0 58 10.5t34 49.5l104 484q2 10 3 18t1 12q0 22 -20 28t-52 6h-13l11 53h345l-11 -53h-13q-33 0 -60 -10.5t-35 -50.5l-103 -490q-1 -5 -2.5 -12t-1.5 -11q0 -22 21 -28t52 -6h13l-11 -53h-344zM427 787q-28 0 -45 15.5t-17 46.5q0 35 18 57t49 22
q27 0 44.5 -15t17.5 -47q0 -44 -21.5 -61.5t-45.5 -17.5zM204 787q-28 0 -45 15.5t-17 46.5q0 35 18 57t49 22q27 0 44.5 -15t17.5 -47q0 -44 -21.5 -61.5t-45.5 -17.5z" />
    <glyph glyph-name="Upsilondieresis" unicode="&#x3ab;" horiz-adv-x="693" 
d="M111 0l11 53h27q32 0 57.5 11t33.5 50l29 139l-108 355q-9 29 -20 41t-40 12h-13l11 53h325l-11 -53h-45q-42 0 -42 -29q0 -20 12 -65l36 -141q8 -29 15 -64.5t8 -60.5q9 20 28.5 50.5t44.5 67.5l99 141q12 17 21 37.5t9 36.5q0 14 -14 20.5t-47 6.5h-21l12 53h262
l-11 -53h-19q-22 0 -39.5 -13.5t-45.5 -51.5l-248 -344l-30 -142q-1 -5 -2.5 -12t-1.5 -11q0 -22 21 -28t52 -6h24l-11 -53h-369zM605 787q-28 0 -45 15.5t-17 46.5q0 35 18 57t49 22q27 0 44.5 -15t17.5 -47q0 -44 -21.5 -61.5t-45.5 -17.5zM382 787q-28 0 -45 15.5
t-17 46.5q0 35 18 57t49 22q27 0 44.5 -15t17.5 -47q0 -44 -21.5 -61.5t-45.5 -17.5z" />
    <glyph glyph-name="alphatonos" unicode="&#x3ac;" horiz-adv-x="659" 
d="M182 -10q-71 0 -105 50.5t-34 130.5q0 78 23 146t62.5 119.5t90.5 80.5t107 29q49 0 79.5 -27.5t40.5 -74.5h4q16 26 34.5 49.5t43.5 42.5h103q-29 -48 -45.5 -90.5t-27.5 -101.5l-21 -107q-5 -25 -12 -59t-7 -58q0 -22 10 -36t26 -14t29 6t30 17l24 -34
q-24 -25 -66.5 -47t-91.5 -22q-57 0 -80 21.5t-23 57t8 77.5h-4q-37 -72 -81 -114t-117 -42zM243 70q30 0 55.5 24.5t45.5 61.5t33.5 74.5t19.5 64.5l14 64q-1 55 -19 90t-50 35t-59.5 -27.5t-48 -72t-31.5 -98t-11 -105.5t12.5 -81.5t38.5 -29.5zM312 606l3 15q13 24 28 55
t29 62.5t24 57.5h136l-3 -12q-14 -25 -39 -56.5t-53.5 -63.5t-54.5 -58h-70z" />
    <glyph glyph-name="epsilontonos" unicode="&#x3ad;" horiz-adv-x="544" 
d="M252 -10q-112 0 -168 37t-56 104q0 44 20 73t52.5 47t70.5 30l1 5q-32 13 -52.5 41.5t-20.5 66.5q0 73 66.5 112.5t186.5 39.5q92 0 138 -29t46 -68q0 -31 -30 -49.5t-109 -18.5q0 47 -13.5 77.5t-49.5 30.5q-31 0 -49.5 -15.5t-26.5 -39.5t-8 -51q0 -32 16.5 -51.5
t45.5 -22.5q18 4 41.5 9.5t41.5 5.5q38 0 38 -33q0 -22 -14.5 -37t-46.5 -15q-13 0 -32 3t-35.5 7.5t-24.5 7.5q-45 -10 -70.5 -40t-25.5 -74q0 -40 29.5 -59t80.5 -19q59 0 102.5 24t72.5 52q5 -3 9 -11.5t4 -21.5q0 -26 -25 -53.5t-76 -46t-129 -18.5zM254 606l3 15
q13 24 28 55t29 62.5t24 57.5h136l-3 -12q-14 -25 -39 -56.5t-53.5 -63.5t-54.5 -58h-70z" />
    <glyph glyph-name="etatonos" unicode="&#x3ae;" horiz-adv-x="632" 
d="M313 -240q-2 8 -3 18t-1 20q0 29 6 67.5t14 76.5l81 383q3 14 6 35t3 30q0 71 -61 71q-45 0 -75 -45.5t-47 -125.5l-61 -290h-152l72 339q6 29 10 67.5t5.5 74.5t-1.5 55h134q6 -20 7 -46.5t1 -50.5h4q19 26 44.5 50.5t59 40.5t76.5 16q68 0 104.5 -33t36.5 -98
q0 -15 -2 -33t-5 -32l-90 -420q-7 -36 -12.5 -71t-5.5 -60q0 -15 1.5 -23.5t2.5 -15.5h-152zM298 606l3 15q13 24 28 55t29 62.5t24 57.5h136l-3 -12q-14 -25 -39 -56.5t-53.5 -63.5t-54.5 -58h-70z" />
    <glyph glyph-name="iotatonos" unicode="&#x3af;" horiz-adv-x="377" 
d="M187 -10q-55 0 -92.5 29t-37.5 88q0 18 3.5 42.5t8.5 49.5l75 337h153l-75 -333q-7 -28 -9.5 -47.5t-2.5 -33.5q0 -25 14 -37.5t36 -12.5q23 0 42.5 8t35.5 18l23 -38q-33 -28 -74.5 -49t-99.5 -21zM171 606l3 15q13 24 28 55t29 62.5t24 57.5h136l-3 -12
q-14 -25 -39 -56.5t-53.5 -63.5t-54.5 -58h-70z" />
    <glyph glyph-name="upsilondieresistonos" unicode="&#x3b0;" horiz-adv-x="639" 
d="M262 -10q-99 0 -146.5 43.5t-47.5 116.5q0 15 2.5 38t9.5 53l34 146q5 20 7 37.5t2 25.5q0 20 -12 26.5t-41 6.5h-18l11 53h230l-69 -306q-4 -16 -6 -34.5t-2 -32.5q0 -43 23.5 -70.5t75.5 -27.5q47 0 83 27.5t61 72t37.5 98t12.5 105.5q0 44 -21 68t-56 29q4 36 22 58.5
t49 22.5q47 0 70 -35t23 -94q0 -56 -13 -115.5t-39.5 -115t-66.5 -100t-93.5 -70.5t-121.5 -26zM374 688l2 13q14 30 32 72t28 75h116l-2 -10q-12 -21 -32 -48t-42 -53.5t-42 -48.5h-60zM290 625q-25 0 -40 13.5t-15 41.5q0 32 16 51t44 19q24 0 39.5 -13.5t15.5 -41.5
q0 -39 -19 -54.5t-41 -15.5zM544 625q-25 0 -40 13.5t-15 41.5q0 32 16 51t44 19q24 0 39.5 -13.5t15.5 -41.5q0 -39 -19 -54.5t-41 -15.5z" />
    <glyph glyph-name="alpha" unicode="&#x3b1;" horiz-adv-x="659" 
d="M182 -10q-71 0 -105 50.5t-34 130.5q0 78 23 146t62.5 119.5t90.5 80.5t107 29q49 0 79.5 -27.5t40.5 -74.5h4q16 26 34.5 49.5t43.5 42.5h103q-29 -48 -45.5 -90.5t-27.5 -101.5l-21 -107q-5 -25 -12 -59t-7 -58q0 -22 10 -36t26 -14t29 6t30 17l24 -34
q-24 -25 -66.5 -47t-91.5 -22q-57 0 -80 21.5t-23 57t8 77.5h-4q-37 -72 -81 -114t-117 -42zM243 70q30 0 55.5 24.5t45.5 61.5t33.5 74.5t19.5 64.5l14 64q-1 55 -19 90t-50 35t-59.5 -27.5t-48 -72t-31.5 -98t-11 -105.5t12.5 -81.5t38.5 -29.5z" />
    <glyph glyph-name="beta" unicode="&#x3b2;" horiz-adv-x="643" 
d="M-30 -241l169 793q18 84 55.5 131.5t91 67t119.5 19.5q95 0 153.5 -38t58.5 -110q0 -61 -26 -99.5t-63.5 -59.5t-71.5 -31v-4q30 -11 57.5 -33.5t45 -55t17.5 -77.5q0 -80 -32 -141.5t-89.5 -96t-134.5 -34.5q-52 0 -86 14.5t-57 33.5l-61 -279h-146zM314 59
q33 0 59.5 25t42 67t15.5 92q0 63 -15.5 98t-38.5 50q-12 -5 -27.5 -9.5t-31.5 -4.5q-15 0 -26.5 10t-11.5 27q0 22 14.5 33t36.5 11q16 0 34 -3.5t25 -6.5q39 15 61 59t22 102q0 47 -20 75.5t-55 28.5q-43 0 -67.5 -41t-42.5 -125l-95 -438q17 -18 47.5 -34t73.5 -16z" />
    <glyph glyph-name="gamma" unicode="&#x3b3;" horiz-adv-x="601" 
d="M119 -240q-23 0 -34 14.5t-11 29.5q0 37 14.5 74t37 69.5t45.5 57.5q-4 95 -10 178t-14.5 145.5t-23 98t-36.5 35.5q-11 0 -22.5 -4t-22.5 -9l-16 44q30 20 68.5 36.5t77.5 16.5q47 0 73 -42t39 -140.5t19 -266.5q41 32 74 76t57.5 90.5t37.5 88.5t13 71q0 43 -37 53
q8 36 27.5 53t47.5 17q32 0 46.5 -16.5t14.5 -44.5q0 -41 -17.5 -92t-47.5 -104.5t-66.5 -103.5t-74.5 -91t-73 -66q-14 -80 -42 -140.5t-65 -94t-79 -33.5z" />
    <glyph glyph-name="delta" unicode="&#x3b4;" horiz-adv-x="615" 
d="M264 -10q-106 0 -169.5 51t-63.5 136q0 80 32 133.5t87.5 87.5t125.5 54q-32 29 -55.5 65.5t-23.5 83.5q0 57 31.5 93t83 53.5t110.5 17.5q64 0 106 -16t62.5 -39.5t20.5 -45.5q0 -37 -31.5 -56.5t-77.5 -19.5q0 52 -19 86.5t-68 34.5q-40 0 -64.5 -26.5t-24.5 -67.5
q0 -35 29.5 -64.5t86.5 -68.5q59 -40 91.5 -90t32.5 -111q0 -88 -40 -153.5t-108.5 -101.5t-153.5 -36zM272 52q42 0 73 26.5t48.5 73.5t17.5 109q0 59 -28 93.5t-65 59.5q-58 -21 -99 -79t-41 -153q0 -64 25.5 -97t68.5 -33z" />
    <glyph glyph-name="epsilon" unicode="&#x3b5;" horiz-adv-x="544" 
d="M252 -10q-112 0 -168 37t-56 104q0 44 20 73t52.5 47t70.5 30l1 5q-32 13 -52.5 41.5t-20.5 66.5q0 73 66.5 112.5t186.5 39.5q92 0 138 -29t46 -68q0 -31 -30 -49.5t-109 -18.5q0 47 -13.5 77.5t-49.5 30.5q-31 0 -49.5 -15.5t-26.5 -39.5t-8 -51q0 -32 16.5 -51.5
t45.5 -22.5q18 4 41.5 9.5t41.5 5.5q38 0 38 -33q0 -22 -14.5 -37t-46.5 -15q-13 0 -32 3t-35.5 7.5t-24.5 7.5q-45 -10 -70.5 -40t-25.5 -74q0 -40 29.5 -59t80.5 -19q59 0 102.5 24t72.5 52q5 -3 9 -11.5t4 -21.5q0 -26 -25 -53.5t-76 -46t-129 -18.5z" />
    <glyph glyph-name="zeta" unicode="&#x3b6;" horiz-adv-x="511" 
d="M219 -203l-14 47q56 13 86 36t30 51q0 25 -21 38t-78 25q-47 10 -89.5 30t-69.5 56t-27 92q0 39 21 97.5t62.5 126.5t103 135.5t143.5 124.5q-49 6 -95.5 30.5t-83.5 57.5l42 49q32 -29 86 -55t114 -31q29 20 63 38t70 18q29 0 41 -13.5t12 -28.5q0 -32 -34 -58t-115 -26
q-8 0 -19.5 1t-21.5 2q-70 -67 -123.5 -144.5t-83 -154t-29.5 -143.5q0 -40 30 -58.5t106 -36.5q71 -16 102 -46t31 -77q0 -50 -30.5 -87t-84.5 -60.5t-124 -35.5z" />
    <glyph glyph-name="eta" unicode="&#x3b7;" horiz-adv-x="632" 
d="M313 -240q-2 8 -3 18t-1 20q0 29 6 67.5t14 76.5l81 383q3 14 6 35t3 30q0 71 -61 71q-45 0 -75 -45.5t-47 -125.5l-61 -290h-152l72 339q6 29 10 67.5t5.5 74.5t-1.5 55h134q6 -20 7 -46.5t1 -50.5h4q19 26 44.5 50.5t59 40.5t76.5 16q68 0 104.5 -33t36.5 -98
q0 -15 -2 -33t-5 -32l-90 -420q-7 -36 -12.5 -71t-5.5 -60q0 -15 1.5 -23.5t2.5 -15.5h-152z" />
    <glyph glyph-name="theta" unicode="&#x3b8;" horiz-adv-x="625" 
d="M247 -10q-95 0 -145.5 67t-50.5 191q0 61 13 131.5t40 138.5t69 123.5t99 89t130 33.5q101 0 153 -65.5t52 -187.5q0 -44 -9 -99.5t-27.5 -114t-47 -113.5t-68.5 -98.5t-92 -69.5t-116 -26zM392 703q-28 0 -52.5 -24t-44.5 -65t-36 -91.5t-28 -104.5h213q9 51 13.5 94.5
t4.5 68.5q0 54 -15 88t-55 34zM265 50q29 0 54 26.5t46 70.5t37.5 98t28.5 109h-213q-10 -60 -15.5 -111t-5.5 -81q0 -54 18.5 -83t49.5 -29z" />
    <glyph glyph-name="iota" unicode="&#x3b9;" horiz-adv-x="377" 
d="M187 -10q-55 0 -92.5 29t-37.5 88q0 18 3.5 42.5t8.5 49.5l75 337h153l-75 -333q-7 -28 -9.5 -47.5t-2.5 -33.5q0 -25 14 -37.5t36 -12.5q23 0 42.5 8t35.5 18l23 -38q-33 -28 -74.5 -49t-99.5 -21z" />
    <glyph glyph-name="kappa" unicode="&#x3ba;" horiz-adv-x="605" 
d="M549 -7q-69 0 -111.5 9t-67.5 32t-43 66l-50 122l-70 -55l-36 -167h-150l82 388q5 20 7 37t2 25q0 20 -12 26.5t-41 6.5h-18l11 53h236l-41 -190q-4 -19 -14 -54t-18 -61l60 81l79 96q44 54 73 83.5t54 41.5t57 12q41 0 59.5 -20t18.5 -46q0 -36 -18 -57.5t-55 -21.5
q0 51 -36 51q-29 0 -62 -35.5t-68 -80.5l93 -199q21 -44 42.5 -67t55.5 -23h6l-12 -53h-13z" />
    <glyph glyph-name="lambda" unicode="&#x3bb;" horiz-adv-x="574" 
d="M-23 0l363 548q-6 84 -25.5 114.5t-59.5 30.5q-28 0 -47 -18t-33 -37q-21 19 -21 54q0 34 25.5 56t74.5 22q80 0 115 -55t43 -161l24 -313q7 -86 30 -137t54 -51h5l-11 -53h-23q-41 0 -69.5 12.5t-43 45t-17.5 92.5q-2 45 -3.5 89t-2 78.5t-0.5 52.5h-4q-6 -16 -20.5 -47
t-31 -63.5t-30.5 -55.5l-122 -204h-170z" />
    <glyph glyph-name="uni03BC" unicode="&#x3bc;" horiz-adv-x="677" 
d="M63 -240q-28 0 -46.5 16t-18.5 56t14 93.5t35 126.5t42 173l66 311h152l-67 -314q-4 -22 -7.5 -41.5t-3.5 -38.5q0 -27 13.5 -47t42.5 -20q47 0 78.5 45t51.5 140l59 276h152l-69 -325q-6 -27 -10 -52t-4 -44q0 -45 35 -45q16 0 29 6t30 17l24 -34q-24 -25 -62 -47
t-97 -22q-41 0 -64 14.5t-32 38t-9 49.5h-5q-34 -46 -68 -74t-84 -28q-44 0 -75 20t-49 52q-7 -35 -10.5 -72t-3.5 -62q0 -34 15.5 -55t65.5 -26q-7 -44 -43 -65.5t-77 -21.5z" />
    <glyph glyph-name="nu" unicode="&#x3bd;" horiz-adv-x="602" 
d="M179 0q-9 94 -17.5 177.5t-18 147.5t-24.5 100.5t-38 36.5q-7 0 -17 -3t-18 -8l-19 44q35 20 76 35t81 15q31 0 50 -21.5t30.5 -72.5t21 -137.5t20.5 -216.5q35 32 67 73t57 85.5t39.5 87.5t14.5 77q0 20 -10 36.5t-30 20.5q11 69 75 69q33 0 49.5 -19t16.5 -52
q0 -40 -18.5 -91t-50 -105.5t-71.5 -107t-84 -97t-87 -74.5h-95z" />
    <glyph glyph-name="xi" unicode="&#x3be;" horiz-adv-x="533" 
d="M210 -203l-13 47q54 13 84.5 35.5t30.5 51.5q0 25 -21 38t-78 25q-47 10 -89.5 27.5t-69.5 47.5t-27 75q0 63 37 118.5t96 98t126 66.5l2 5q-37 9 -69.5 23t-53 35.5t-20.5 51.5q0 42 44.5 77.5t114.5 60.5q-42 5 -81 20.5t-68 39.5l43 53q29 -24 82 -42.5t105 -23.5
q29 14 64 26.5t72 12.5q53 0 53 -34q0 -33 -32 -52.5t-83 -19.5q-30 0 -50 1.5t-33 2.5q-42 -22 -66 -53t-24 -64q0 -31 23.5 -51t55.5 -29q21 8 46.5 15.5t49.5 7.5q20 0 34 -9t14 -30q0 -24 -20 -39.5t-66 -15.5q-19 0 -41.5 3t-36.5 7q-35 -12 -72 -44t-61.5 -76
t-24.5 -92q0 -30 17 -46.5t47.5 -26t71.5 -19.5q71 -16 98.5 -47t27.5 -75q0 -43 -29.5 -80.5t-83 -64t-126.5 -38.5z" />
    <glyph glyph-name="omicron" unicode="&#x3bf;" horiz-adv-x="618" 
d="M252 -10q-94 0 -153 52t-59 158q0 56 20 116.5t60 112.5t102 84.5t146 32.5q58 0 105 -21.5t75.5 -67.5t28.5 -121q0 -54 -19 -114t-58.5 -113t-101 -86t-146.5 -33zM270 62q32 0 57 21t43.5 56t30.5 76t18 81t6 72q0 59 -20.5 85t-55.5 26q-38 0 -67.5 -31t-49 -78.5
t-29.5 -99.5t-10 -94q0 -61 20.5 -87.5t56.5 -26.5z" />
    <glyph glyph-name="pi" unicode="&#x3c0;" horiz-adv-x="661" 
d="M480 -8q-43 0 -67 20.5t-24 66.5q0 32 7 73.5t18 86.5t24 88.5t25 79.5h-175l-59 -255q-19 -79 -52 -118t-102 -39q-17 0 -33.5 5.5t-30.5 14.5l12 57q24 0 46.5 6.5t42.5 30t36 75.5l72 223h-28q-34 0 -56 -17.5t-31 -45.5h-54q7 39 17.5 73.5t32 61t58.5 42t96 15.5
h412l-31 -129h-101q-8 -36 -15.5 -78.5t-13.5 -84.5t-9.5 -75.5t-3.5 -51.5q0 -33 12 -43.5t29 -10.5q11 0 26.5 5t25.5 10l18 -41q-28 -21 -57.5 -33t-66.5 -12z" />
    <glyph glyph-name="rho" unicode="&#x3c1;" horiz-adv-x="618" 
d="M-34 -240l114 533q26 123 92.5 188t181.5 65q102 0 163 -55t61 -179q0 -93 -36 -165.5t-96.5 -114.5t-135.5 -42q-50 0 -81.5 13.5t-58.5 33.5q-1 -13 -4.5 -36t-9.5 -50l-39 -191h-151zM285 62q37 0 69.5 30t53 86.5t20.5 135.5q0 152 -77 152q-37 0 -59.5 -25.5
t-37.5 -70.5t-28 -106l-36 -168q20 -15 42 -24.5t53 -9.5z" />
    <glyph glyph-name="uni03C2" unicode="&#x3c2;" horiz-adv-x="520" 
d="M224 -203l-13 47q56 14 85.5 36.5t29.5 50.5q0 25 -21 38t-78 25q-47 10 -89.5 28.5t-69.5 56.5t-27 105q0 42 12 91t36.5 97t61.5 87t88 63t115 24q62 0 98.5 -15.5t52 -40.5t15.5 -53q0 -38 -28.5 -59.5t-93.5 -21.5q0 52 -19.5 90t-50.5 38q-28 0 -53 -28.5t-44 -72
t-29.5 -91.5t-10.5 -87q0 -40 31.5 -62t107.5 -40q71 -16 102 -46t31 -77q0 -50 -30.5 -87t-84.5 -60.5t-124 -35.5z" />
    <glyph glyph-name="sigma" unicode="&#x3c3;" horiz-adv-x="652" 
d="M275 -10q-113 0 -174 61.5t-61 158.5q0 92 29 154.5t80 100t116.5 54.5t138.5 17h287l-23 -113h-161q13 -14 28 -38.5t26 -56.5t11 -70q0 -78 -34.5 -138.5t-101 -95t-161.5 -34.5zM292 55q59 0 95 59.5t36 186.5q0 41 -5.5 73.5t-11.5 48.5h-13q-33 0 -69 -10t-67 -34.5
t-50.5 -69t-19.5 -113.5q0 -67 29 -104t76 -37z" />
    <glyph glyph-name="tau" unicode="&#x3c4;" horiz-adv-x="502" 
d="M268 -10q-49 0 -79.5 27t-30.5 85q0 40 14 95t37.5 111t50.5 99h-86q-36 0 -58.5 -23.5t-33.5 -55.5h-54q7 39 18.5 76t33.5 67t60 47.5t97 17.5h282l-30 -129h-160q-18 -44 -31.5 -96.5t-21 -99.5t-7.5 -75q0 -36 11.5 -52t36.5 -16q19 0 38 5.5t37 14.5l23 -41
q-30 -27 -66 -42t-81 -15z" />
    <glyph glyph-name="upsilon" unicode="&#x3c5;" horiz-adv-x="639" 
d="M262 -10q-99 0 -146.5 43.5t-47.5 116.5q0 15 2.5 38t9.5 53l34 146q5 20 7 37.5t2 25.5q0 20 -12 26.5t-41 6.5h-18l11 53h230l-69 -306q-4 -16 -6 -34.5t-2 -32.5q0 -43 23.5 -70.5t75.5 -27.5q47 0 83 27.5t61 72t37.5 98t12.5 105.5q0 44 -21 68t-56 29q4 36 22 58.5
t49 22.5q47 0 70 -35t23 -94q0 -56 -13 -115.5t-39.5 -115t-66.5 -100t-93.5 -70.5t-121.5 -26z" />
    <glyph glyph-name="phi" unicode="&#x3c6;" horiz-adv-x="743" 
d="M230 -240l48 227q-68 5 -121.5 32.5t-84.5 77t-31 120.5q0 67 21 120t55.5 93t73.5 68.5t75 46.5l44 -38q-45 -55 -71 -101.5t-36.5 -94t-10.5 -106.5q0 -152 99 -158l69 332q17 81 50 125t103 44q61 0 103 -26t64.5 -71.5t22.5 -103.5q0 -102 -33 -171t-87.5 -110.5
t-118.5 -59.5t-126 -19l-48 -227h-60zM351 47q48 0 82.5 23t58.5 61t38 83.5t20.5 91.5t6.5 84q0 53 -12.5 78t-43.5 25q-37 0 -54 -34.5t-29 -90.5z" />
    <glyph glyph-name="chi" unicode="&#x3c7;" horiz-adv-x="581" 
d="M-122 -240l343 450l-35 192q-7 38 -26 54.5t-45 16.5q-10 0 -27 -4t-28 -9l-14 39q23 17 58 28.5t65 11.5q31 0 47 -11t24 -36t15 -69l22 -141l177 254h157l-306 -397l36 -232q6 -37 24.5 -57t43.5 -20q11 0 28 4t27 9l17 -37q-23 -17 -53 -30.5t-60 -13.5q-44 0 -66 31
t-30 90l-24 179l-206 -302h-164z" />
    <glyph glyph-name="psi" unicode="&#x3c8;" horiz-adv-x="721" 
d="M253 -240l49 231q-115 7 -169 57t-54 131q0 18 3 42t7 47.5t7 39.5l17 79q5 20 7 37.5t2 25.5q0 20 -12 26.5t-40 6.5h-18l11 53h225l-54 -263q-7 -32 -10.5 -59t-3.5 -51q0 -40 25 -65.5t73 -31.5l148 694h60l-148 -693q55 8 96 37t67.5 72t40 93t13.5 99q0 44 -21 68
t-56 29q4 37 23.5 59t47.5 22q44 0 66.5 -35t22.5 -94q0 -67 -20 -139t-59.5 -134.5t-98.5 -104t-138 -47.5l-49 -232h-60z" />
    <glyph glyph-name="omega" unicode="&#x3c9;" horiz-adv-x="805" 
d="M204 -10q-73 0 -118.5 49.5t-45.5 138.5q0 67 21 124t55.5 104.5t75 85t79.5 64.5l64 -43q-65 -64 -106.5 -153t-41.5 -181q0 -60 19 -87t44 -27q32 0 60.5 29t44.5 70q-4 10 -8 32.5t-4 52.5q0 65 24 97.5t61 32.5q20 0 37.5 -11t17.5 -37q0 -28 -10.5 -58.5t-26.5 -59
t-32 -49.5q5 -40 22.5 -70t56.5 -30q32 0 56.5 27.5t41.5 70.5t26 92t9 91q0 46 -10 90t-24 78l64 42q51 -41 80 -104.5t29 -149.5q0 -66 -19 -122.5t-53 -99t-78.5 -66t-95.5 -23.5q-47 0 -75.5 14t-43.5 38.5t-24 54.5h-4q-26 -44 -64.5 -75.5t-103.5 -31.5z" />
    <glyph glyph-name="iotadieresis" unicode="&#x3ca;" horiz-adv-x="377" 
d="M187 -10q-55 0 -92.5 29t-37.5 88q0 18 3.5 42.5t8.5 49.5l75 337h153l-75 -333q-7 -28 -9.5 -47.5t-2.5 -33.5q0 -25 14 -37.5t36 -12.5q23 0 42.5 8t35.5 18l23 -38q-33 -28 -74.5 -49t-99.5 -21zM349 622q-28 0 -45 15.5t-17 46.5q0 35 18 57t49 22q27 0 44.5 -15
t17.5 -47q0 -44 -21.5 -61.5t-45.5 -17.5zM126 622q-28 0 -45 15.5t-17 46.5q0 35 18 57t49 22q27 0 44.5 -15t17.5 -47q0 -44 -21.5 -61.5t-45.5 -17.5z" />
    <glyph glyph-name="upsilondieresis" unicode="&#x3cb;" horiz-adv-x="639" 
d="M262 -10q-99 0 -146.5 43.5t-47.5 116.5q0 15 2.5 38t9.5 53l34 146q5 20 7 37.5t2 25.5q0 20 -12 26.5t-41 6.5h-18l11 53h230l-69 -306q-4 -16 -6 -34.5t-2 -32.5q0 -43 23.5 -70.5t75.5 -27.5q47 0 83 27.5t61 72t37.5 98t12.5 105.5q0 44 -21 68t-56 29q4 36 22 58.5
t49 22.5q47 0 70 -35t23 -94q0 -56 -13 -115.5t-39.5 -115t-66.5 -100t-93.5 -70.5t-121.5 -26zM496 622q-28 0 -45 15.5t-17 46.5q0 35 18 57t49 22q27 0 44.5 -15t17.5 -47q0 -44 -21.5 -61.5t-45.5 -17.5zM273 622q-28 0 -45 15.5t-17 46.5q0 35 18 57t49 22
q27 0 44.5 -15t17.5 -47q0 -44 -21.5 -61.5t-45.5 -17.5z" />
    <glyph glyph-name="omicrontonos" unicode="&#x3cc;" horiz-adv-x="618" 
d="M252 -10q-94 0 -153 52t-59 158q0 56 20 116.5t60 112.5t102 84.5t146 32.5q58 0 105 -21.5t75.5 -67.5t28.5 -121q0 -54 -19 -114t-58.5 -113t-101 -86t-146.5 -33zM270 62q32 0 57 21t43.5 56t30.5 76t18 81t6 72q0 59 -20.5 85t-55.5 26q-38 0 -67.5 -31t-49 -78.5
t-29.5 -99.5t-10 -94q0 -61 20.5 -87.5t56.5 -26.5zM291 606l3 15q13 24 28 55t29 62.5t24 57.5h136l-3 -12q-14 -25 -39 -56.5t-53.5 -63.5t-54.5 -58h-70z" />
    <glyph glyph-name="upsilontonos" unicode="&#x3cd;" horiz-adv-x="639" 
d="M262 -10q-99 0 -146.5 43.5t-47.5 116.5q0 15 2.5 38t9.5 53l34 146q5 20 7 37.5t2 25.5q0 20 -12 26.5t-41 6.5h-18l11 53h230l-69 -306q-4 -16 -6 -34.5t-2 -32.5q0 -43 23.5 -70.5t75.5 -27.5q47 0 83 27.5t61 72t37.5 98t12.5 105.5q0 44 -21 68t-56 29q4 36 22 58.5
t49 22.5q47 0 70 -35t23 -94q0 -56 -13 -115.5t-39.5 -115t-66.5 -100t-93.5 -70.5t-121.5 -26zM302 606l3 15q13 24 28 55t29 62.5t24 57.5h136l-3 -12q-14 -25 -39 -56.5t-53.5 -63.5t-54.5 -58h-70z" />
    <glyph glyph-name="omegatonos" unicode="&#x3ce;" horiz-adv-x="805" 
d="M204 -10q-73 0 -118.5 49.5t-45.5 138.5q0 67 21 124t55.5 104.5t75 85t79.5 64.5l64 -43q-65 -64 -106.5 -153t-41.5 -181q0 -60 19 -87t44 -27q32 0 60.5 29t44.5 70q-4 10 -8 32.5t-4 52.5q0 65 24 97.5t61 32.5q20 0 37.5 -11t17.5 -37q0 -28 -10.5 -58.5t-26.5 -59
t-32 -49.5q5 -40 22.5 -70t56.5 -30q32 0 56.5 27.5t41.5 70.5t26 92t9 91q0 46 -10 90t-24 78l64 42q51 -41 80 -104.5t29 -149.5q0 -66 -19 -122.5t-53 -99t-78.5 -66t-95.5 -23.5q-47 0 -75.5 14t-43.5 38.5t-24 54.5h-4q-26 -44 -64.5 -75.5t-103.5 -31.5zM385 606l3 15
q13 24 28 55t29 62.5t24 57.5h136l-3 -12q-14 -25 -39 -56.5t-53.5 -63.5t-54.5 -58h-70z" />
    <glyph glyph-name="uni0401" unicode="&#x401;" horiz-adv-x="633" 
d="M-23 0l11 53h13q32 0 58 10.5t34 49.5l104 491q4 14 4 23q0 22 -20 28t-52 6h-13l11 53h543l-35 -186h-71q1 5 2 18t2 25.5t1 14.5q0 28 -16 47.5t-55 19.5h-133l-53 -250h227l-13 -60h-227l-60 -282h158q47 0 74 24.5t39 57.5l16 43h71l-46 -186h-574zM552 787
q-28 0 -45 15.5t-17 46.5q0 35 18 57t49 22q27 0 44.5 -15t17.5 -47q0 -44 -21.5 -61.5t-45.5 -17.5zM329 787q-28 0 -45 15.5t-17 46.5q0 35 18 57t49 22q27 0 44.5 -15t17.5 -47q0 -44 -21.5 -61.5t-45.5 -17.5z" />
    <glyph glyph-name="uni0402" unicode="&#x402;" horiz-adv-x="865" 
d="M591 -5q-25 0 -49.5 3t-38.5 8l10 55q18 -6 38 -6q23 0 41 18t29 64q10 38 16 72.5t6 55.5q0 49 -29 71t-73 22q-43 0 -78 -8t-59 -16l-47 -224q-1 -5 -2.5 -12t-1.5 -11q0 -22 21 -28t52 -6h13l-11 -53h-344l11 53h13q32 0 58 10.5t34 49.5l113 540h-60q-46 0 -68 -23
t-36 -67l-14 -43h-67l46 194h602l-35 -194h-67q1 5 2.5 23t3.5 36t2 21q0 26 -16 39.5t-54 13.5h-80l-54 -255q29 12 76.5 26t99.5 14q101 0 156 -37t55 -122q0 -22 -5.5 -64t-17.5 -89q-16 -65 -60 -98t-131 -33z" />
    <glyph glyph-name="uni0403" unicode="&#x403;" horiz-adv-x="591" 
d="M-23 0l11 53h13q32 0 58 10.5t34 49.5l104 491q4 14 4 23q0 22 -20 28t-52 6h-13l10 53h546l-34 -196h-66q-1 12 -1 24t-1 24q-2 44 -18.5 65.5t-57.5 21.5h-130l-109 -516q-9 -40 -9 -50q0 -22 21 -28t52 -6h33l-11 -53h-364zM345 771l3 13q19 19 40.5 45t42.5 53t36 49
h157l-3 -10q-12 -13 -35.5 -33t-53.5 -42t-61 -41.5t-58 -33.5h-68z" />
    <glyph glyph-name="uni0404" unicode="&#x404;" horiz-adv-x="668" 
d="M366 -10q-143 0 -223 70.5t-80 198.5q0 90 31.5 174t89.5 150.5t139.5 105.5t181.5 39t149 -32.5t49 -86.5q0 -43 -40 -66.5t-101 -23.5q0 21 -3 46t-11.5 47.5t-25.5 37t-45 14.5q-59 0 -105.5 -39.5t-78.5 -102.5t-49 -134h235l-13 -60h-232q-3 -19 -4 -38t-1 -37
q0 -85 43.5 -132t129.5 -47q69 0 112 28.5t68 62.5q6 -4 11.5 -13.5t5.5 -20.5q0 -33 -27 -65.5t-78.5 -54t-127.5 -21.5z" />
    <glyph glyph-name="uni0405" unicode="&#x405;" horiz-adv-x="586" 
d="M261 -10q-124 0 -185.5 42t-61.5 104q0 47 36.5 70.5t93.5 23.5q0 -91 37 -135t96 -44q56 0 87.5 30t31.5 73q0 28 -10 50t-36.5 44.5t-76.5 49.5q-78 43 -118 93t-40 129q0 60 32 106t90 72t137 26q111 0 166 -32.5t55 -79.5q0 -40 -30.5 -63.5t-100.5 -23.5
q0 30 -8.5 62t-30 54t-60.5 22q-26 0 -51.5 -11t-42 -34t-16.5 -58t14.5 -57.5t44.5 -41.5t74 -44q76 -40 112 -90t36 -114q0 -106 -74.5 -164.5t-200.5 -58.5z" />
    <glyph glyph-name="uni0406" unicode="&#x406;" horiz-adv-x="401" 
d="M-23 0l11 53h13q32 0 58 10.5t34 49.5l104 484q2 10 3 18t1 12q0 22 -20 28t-52 6h-13l11 53h345l-11 -53h-13q-33 0 -60 -10.5t-35 -50.5l-103 -490q-1 -5 -2.5 -12t-1.5 -11q0 -22 21 -28t52 -6h13l-11 -53h-344z" />
    <glyph glyph-name="uni0407" unicode="&#x407;" horiz-adv-x="401" 
d="M-23 0l11 53h13q32 0 58 10.5t34 49.5l104 484q2 10 3 18t1 12q0 22 -20 28t-52 6h-13l11 53h345l-11 -53h-13q-33 0 -60 -10.5t-35 -50.5l-103 -490q-1 -5 -2.5 -12t-1.5 -11q0 -22 21 -28t52 -6h13l-11 -53h-344zM427 787q-28 0 -45 15.5t-17 46.5q0 35 18 57t49 22
q27 0 44.5 -15t17.5 -47q0 -44 -21.5 -61.5t-45.5 -17.5zM204 787q-28 0 -45 15.5t-17 46.5q0 35 18 57t49 22q27 0 44.5 -15t17.5 -47q0 -44 -21.5 -61.5t-45.5 -17.5z" />
    <glyph glyph-name="uni0408" unicode="&#x408;" horiz-adv-x="401" 
d="M-76 -240q-27 0 -45.5 3t-36.5 8l14 55q13 -4 31.5 -6.5t33.5 -2.5q52 0 88.5 40t58.5 140l129 607q4 14 4 23q0 22 -20 28t-52 6h-13l11 53h345l-11 -53h-13q-33 0 -60 -10.5t-35 -50.5l-127 -603q-17 -81 -62.5 -133.5t-108.5 -78t-131 -25.5z" />
    <glyph glyph-name="uni0409" unicode="&#x409;" horiz-adv-x="964" 
d="M32 -7q-39 0 -59 19t-20 51q0 35 20.5 53.5t47.5 18.5q0 -19 7 -33t29 -14q18 0 35 9.5t38.5 38t49.5 85.5q18 36 36.5 83t36 97.5t32 95.5t24 78.5t12.5 46.5q2 6 2 13q0 18 -21.5 22t-51.5 4h-17l11 53h558l-11 -53h-23q-32 0 -59 -10.5t-35 -50.5l-42 -195h35
q118 0 177.5 -43t59.5 -134q0 -109 -73 -168.5t-215 -59.5h-319l11 53h13q32 0 58 10.5t34 49.5l116 548h-130q-16 -62 -37.5 -132t-46.5 -141.5t-52.5 -136.5t-56.5 -118q-32 -59 -59 -89t-54.5 -40.5t-60.5 -10.5zM559 61h29q57 0 90 21.5t47 58.5t14 82q0 63 -25 91.5
t-77 28.5h-18z" />
    <glyph glyph-name="uni040A" unicode="&#x40a;" horiz-adv-x="1034" 
d="M-23 0l11 53h13q32 0 58 10.5t34 49.5l102 480q6 27 6 34q0 22 -20 28t-52 6h-13l11 53h335l-11 -53h-3q-33 0 -60 -10.5t-35 -50.5l-41 -197h231l42 194q5 23 5 30q0 22 -20.5 28t-52.5 6h-3l11 53h335l-11 -53h-13q-32 0 -59 -10.5t-35 -50.5l-41 -195h36
q118 0 177.5 -43t59.5 -134q0 -109 -73 -168.5t-215 -59.5h-312l11 53h3q32 0 59 10.5t35 50.5l48 228h-231l-49 -232q-4 -14 -4 -23q0 -22 21 -28t52 -6h3l-11 -53h-334zM629 61h29q57 0 90 21.5t47 58.5t14 82q0 63 -25 91.5t-77 28.5h-18z" />
    <glyph glyph-name="uni040B" unicode="&#x40b;" horiz-adv-x="885" 
d="M84 0l11 53h13q32 0 58 10.5t34 49.5l113 540h-60q-46 0 -68 -23t-36 -67l-14 -43h-67l46 194h602l-35 -194h-67q1 5 2.5 23t3.5 36t2 21q0 26 -16 39.5t-54 13.5h-80l-51 -246q27 9 75.5 20t107.5 11q69 0 114 -19t62 -66t-1 -130l-22 -105q-1 -7 -3 -17t-2 -14
q0 -22 21 -28t52 -6h13l-11 -53h-344l11 53h13q32 0 58.5 10.5t33.5 49.5l20 102q15 77 -4 110t-83 33q-37 0 -72 -8t-54 -16l-49 -224q-4 -14 -4 -23q0 -22 21 -28t52 -6h13l-11 -53h-344z" />
    <glyph glyph-name="uni040C" unicode="&#x40c;" horiz-adv-x="743" 
d="M-23 0l11 53h13q32 0 58 10.5t34 49.5l104 491q4 14 4 23q0 22 -20 28t-52 6h-13l11 53h345l-11 -53h-13q-33 0 -60 -10.5t-35 -50.5l-45 -213q36 0 60.5 8t40.5 24q16 15 41 49t60 91q53 86 101 123.5t110 37.5q41 0 60 -16t19 -43q0 -34 -21.5 -55.5t-53.5 -22.5
q0 19 -9 35.5t-34 16.5q-26 0 -56.5 -26t-68.5 -85q-38 -58 -65 -93t-50 -49q67 -7 109 -120l52 -140q14 -37 42 -53t62 -16h3l-12 -53h-63q-80 0 -126 19.5t-66 79.5l-54 160q-14 43 -32 57t-61 14l-46 -220q-1 -5 -2.5 -12t-1.5 -11q0 -22 21 -28t52 -6h13l-11 -53h-344z
M450 771l3 13q19 19 40.5 45t42.5 53t36 49h157l-3 -10q-12 -13 -35.5 -33t-53.5 -42t-61 -41.5t-58 -33.5h-68z" />
    <glyph glyph-name="uni040E" unicode="&#x40e;" horiz-adv-x="694" 
d="M61 -5l13 63h53q48 0 95.5 22.5t72.5 67.5l-133 461q-8 29 -20.5 40.5t-39.5 11.5h-12l11 53h333l-11 -53h-21q-34 0 -54 -11.5t-20 -36.5q0 -13 2.5 -27.5t5.5 -26.5l53 -202l13.5 -54t8.5 -58q7 19 12.5 31.5t14 27t22.5 39.5l133 228q11 18 15 31.5t4 23.5
q0 35 -57 35h-23l10 53h253l-11 -53h-18q-19 0 -32 -6.5t-25.5 -22.5t-31.5 -47l-246 -403q-37 -61 -64 -98t-55.5 -56.5t-69 -26t-104.5 -6.5h-77zM442 771q-61 0 -96 15.5t-49.5 41t-14.5 54.5q0 23 9 42l116 13q-7 -21 -7 -46t17 -42.5t52 -17.5q50 0 88.5 18.5t67 46
t47.5 53.5l35 -27q-24 -35 -59 -70t-85 -58t-121 -23z" />
    <glyph glyph-name="uni040F" unicode="&#x40f;" horiz-adv-x="809" 
d="M275 -210q7 29 10 54.5t3 45.5q0 56 -21 83t-59 27h-231l11 53h13q32 0 58 10.5t34 49.5l102 480q6 27 6 34q0 22 -20 28t-52 6h-13l11 53h345l-11 -53h-13q-33 0 -60 -10.5t-35 -50.5l-113 -539h251l114 536q5 23 5 30q0 22 -20.5 28t-52.5 6h-13l11 53h345l-11 -53h-13
q-32 0 -59 -10.5t-35 -50.5l-103 -490q-4 -14 -4 -23q0 -22 20.5 -28t51.5 -6h13l-11 -53h-236q-54 0 -91 -49.5t-61 -160.5h-66z" />
    <glyph glyph-name="uni0410" unicode="&#x410;" horiz-adv-x="753" 
d="M-49 0l11 53h21q19 0 31.5 6.5t26 23.5t31.5 48l339 583h137l84 -589q5 -31 17.5 -51.5t43.5 -20.5h18l-11 -53h-330l11 53h23q32 0 51 10t19 32q0 8 -0.5 16.5t-1.5 15.5l-13 108h-244l-50 -90q-19 -35 -19 -56q0 -36 56 -36h20l-11 -53h-260zM347 473l-98 -177h203
l-20 168q-4 44 -8 78.5t-5 70.5q-10 -24 -20 -44t-22 -42.5t-30 -53.5z" />
    <glyph glyph-name="uni0411" unicode="&#x411;" horiz-adv-x="664" 
d="M-23 0l11 53h13q32 0 58 10.5t34 49.5l101 475q3 14 5 24.5t2 14.5q0 22 -20 28t-52 6h-13l11 53h535l-35 -194h-71q1 5 2 18t2 28.5t1 25.5q0 28 -16 44.5t-55 16.5h-126l-52 -248h55q118 0 177.5 -43t59.5 -134q0 -109 -73 -168.5t-215 -59.5h-339zM239 61h49
q57 0 90 21.5t47 58.5t14 82q0 63 -25 91.5t-77 28.5h-38z" />
    <glyph glyph-name="uni0412" unicode="&#x412;" horiz-adv-x="672" 
d="M-23 0l11 53h13q32 0 58 10.5t34 49.5l97 456q4 19 6.5 31.5t2.5 23.5q0 22 -19.5 29.5t-50.5 7.5h-13l11 53h310q116 0 175 -38t59 -112q0 -55 -21.5 -92.5t-58.5 -60t-83 -33.5l-1 -4q54 -10 88 -46.5t34 -99.5q0 -109 -73 -168.5t-215 -59.5h-364zM312 405h56
q71 0 102.5 37t31.5 105q0 106 -94 106h-44zM239 61h69q85 0 120.5 44.5t35.5 129.5q0 108 -102 108h-63z" />
    <glyph glyph-name="uni0413" unicode="&#x413;" horiz-adv-x="591" 
d="M-23 0l11 53h13q32 0 58 10.5t34 49.5l104 491q4 14 4 23q0 22 -20 28t-52 6h-13l10 53h546l-34 -196h-66q-1 12 -1 24t-1 24q-2 44 -18.5 65.5t-57.5 21.5h-130l-109 -516q-9 -40 -9 -50q0 -22 21 -28t52 -6h33l-11 -53h-364z" />
    <glyph glyph-name="uni0414" unicode="&#x414;" horiz-adv-x="691" 
d="M-91 -210l59 271h59q71 99 134.5 198t109.5 191.5t62 169.5q2 6 2 12q0 22 -25 25.5t-55 3.5h-3l11 53h499l-11 -53h-6q-33 0 -58 -10.5t-33 -50.5l-98 -462q-3 -14 -5 -26.5t-2 -16.5q0 -22 21 -28t52 -6h20l-58 -271h-66q5 25 8 46t3 40q0 65 -30 94.5t-84 29.5h-248
q-68 0 -117.5 -49.5t-73.5 -160.5h-67zM102 61h280l126 592h-101q-16 -74 -49.5 -153t-77.5 -157t-90.5 -150t-87.5 -132z" />
    <glyph glyph-name="uni0415" unicode="&#x415;" horiz-adv-x="633" 
d="M-23 0l11 53h13q32 0 58 10.5t34 49.5l104 491q4 14 4 23q0 22 -20 28t-52 6h-13l11 53h543l-35 -186h-71q1 5 2 18t2 25.5t1 14.5q0 28 -16 47.5t-55 19.5h-133l-53 -250h227l-13 -60h-227l-60 -282h158q47 0 74 24.5t39 57.5l16 43h71l-46 -186h-574z" />
    <glyph glyph-name="uni0416" unicode="&#x416;" horiz-adv-x="1044" 
d="M-58 0l11 53h3q32 0 61.5 18.5t59.5 60.5l115 162q31 45 70.5 63.5t97.5 20.5q-17 13 -36 47.5t-39 95.5q-19 58 -34.5 85.5t-46.5 27.5q-26 0 -41.5 -16.5t-24.5 -39.5q-17 7 -26.5 22t-9.5 41q0 36 24.5 57.5t68.5 21.5t70.5 -19.5t43.5 -55.5t32 -86
q20 -64 34.5 -95.5t27.5 -45.5q13 -15 28 -23t44 -8l47 217q4 14 4 23q0 22 -20 28t-52 6h-13l11 53h325l-11 -53h-13q-33 0 -60 -10.5t-35 -50.5l-45 -213q36 0 60.5 8t40.5 24q29 28 101 140q55 86 102 123.5t109 37.5q41 0 60 -16t19 -43q0 -34 -21.5 -55.5t-53.5 -22.5
q0 19 -9 35.5t-34 16.5q-26 0 -56.5 -26t-68.5 -85q-38 -58 -63 -92t-51 -50q38 -7 62 -34.5t46 -85.5l52 -140q14 -37 42 -53t62 -16h3l-12 -53h-63q-80 0 -123.5 19.5t-63.5 79.5l-54 160q-14 43 -34.5 57t-63.5 14l-46 -220q-1 -5 -2.5 -12t-1.5 -11q0 -22 21 -28t52 -6
h13l-11 -53h-324l11 53h13q32 0 58 10.5t34 49.5l46 217q-41 -1 -63.5 -8.5t-36 -22t-28.5 -36.5l-116 -171q-21 -31 -41.5 -49.5t-46 -27.5t-62 -12t-89.5 -3h-39z" />
    </font>
</defs>
</svg>
